G04*
G04 #@! TF.GenerationSoftware,Altium Limited,Altium Designer,24.5.2 (23)*
G04*
G04 Layer_Color=65280*
%FSLAX25Y25*%
%MOIN*%
G70*
G04*
G04 #@! TF.SameCoordinates,D208CBCF-4B6E-48A8-A20F-7FDAAE84B22A*
G04*
G04*
G04 #@! TF.FilePolarity,Positive*
G04*
G01*
G75*
%ADD10C,0.00500*%
%ADD12C,0.01000*%
D10*
X169532Y59295D02*
Y67295D01*
X163531Y59295D02*
Y67295D01*
X179283Y59189D02*
Y67189D01*
X185284Y59189D02*
Y67189D01*
D12*
X162946Y46576D02*
X168944D01*
Y49575D01*
X167944Y50575D01*
X165945D01*
X164945Y49575D01*
Y46576D01*
Y48576D02*
X162946Y50575D01*
X167944Y52574D02*
X168944Y53574D01*
Y55573D01*
X167944Y56573D01*
X166945D01*
X165945Y55573D01*
X164945Y56573D01*
X163945D01*
X162946Y55573D01*
Y53574D01*
X163945Y52574D01*
X164945D01*
X165945Y53574D01*
X166945Y52574D01*
X167944D01*
X165945Y53574D02*
Y55573D01*
X185479Y55195D02*
X179481D01*
Y52196D01*
X180481Y51196D01*
X182480D01*
X183480Y52196D01*
Y55195D01*
Y53196D02*
X185479Y51196D01*
X179481Y45199D02*
Y49197D01*
X182480D01*
X181481Y47198D01*
Y46198D01*
X182480Y45199D01*
X184480D01*
X185479Y46198D01*
Y48197D01*
X184480Y49197D01*
M02*
