G04*
G04 #@! TF.GenerationSoftware,Altium Limited,Altium Designer,24.5.2 (23)*
G04*
G04 Layer_Color=128*
%FSLAX25Y25*%
%MOIN*%
G70*
G04*
G04 #@! TF.SameCoordinates,D208CBCF-4B6E-48A8-A20F-7FDAAE84B22A*
G04*
G04*
G04 #@! TF.FilePolarity,Positive*
G04*
G01*
G75*
%ADD10C,0.00500*%
D10*
X244488Y157677D02*
X257087D01*
X250787Y151378D02*
Y163976D01*
X32283Y127126D02*
X36220D01*
X34252Y125157D02*
Y129095D01*
X32283Y87126D02*
X36220D01*
X34252Y85158D02*
Y89095D01*
X32283Y97126D02*
X36220D01*
X34252Y95157D02*
Y99094D01*
X32283Y107126D02*
X36220D01*
X34252Y105157D02*
Y109095D01*
X32283Y117126D02*
X36220D01*
X34252Y115157D02*
Y119095D01*
X22284Y87126D02*
X26221D01*
X24252Y85158D02*
Y89095D01*
X22284Y97126D02*
X26221D01*
X24252Y95157D02*
Y99094D01*
X22284Y107126D02*
X26221D01*
X24252Y105157D02*
Y109095D01*
X22284Y117126D02*
X26221D01*
X24252Y115157D02*
Y119095D01*
X22284Y127126D02*
X26221D01*
X24252Y125157D02*
Y129095D01*
X32283Y77126D02*
X36220D01*
X34252Y75157D02*
Y79094D01*
X22284Y77126D02*
X26221D01*
X24252Y75157D02*
Y79094D01*
X20472Y150984D02*
X33071D01*
X26772Y144685D02*
Y157283D01*
X14567Y20079D02*
X27165D01*
X20866Y13780D02*
Y26378D01*
X245472Y20472D02*
X258071D01*
X251772Y14173D02*
Y26772D01*
X157384Y80512D02*
X158584D01*
X157984Y79912D02*
Y81112D01*
X162392Y81102D02*
X163592D01*
X162992Y80502D02*
Y81702D01*
X152943Y78347D02*
X154143D01*
X153543Y77746D02*
Y78947D01*
X152943Y87598D02*
X154143D01*
X153543Y86998D02*
Y88198D01*
X167904Y80481D02*
X169104D01*
X168504Y79882D02*
Y81081D01*
X167707Y74410D02*
X168907D01*
X168307Y73809D02*
Y75010D01*
X260620Y43307D02*
X261821D01*
X261221Y42707D02*
Y43907D01*
X260620Y52559D02*
X261821D01*
X261221Y51959D02*
Y53159D01*
X260620Y63583D02*
X261821D01*
X261221Y62983D02*
Y64183D01*
X219282Y33661D02*
X220482D01*
X219882Y33061D02*
Y34261D01*
X219282Y43701D02*
X220482D01*
X219882Y43101D02*
Y44301D01*
X219282Y53543D02*
X220482D01*
X219882Y52943D02*
Y54143D01*
X219282Y63386D02*
X220482D01*
X219882Y62786D02*
Y63986D01*
X166809Y93555D02*
X168009D01*
X167409Y92955D02*
Y94155D01*
X171809Y93555D02*
X173009D01*
X172409Y92955D02*
Y94155D01*
X166809Y89055D02*
X168009D01*
X167409Y88455D02*
Y89655D01*
X171809Y89055D02*
X173009D01*
X172409Y88455D02*
Y89655D01*
X176809Y89055D02*
X178009D01*
X177409Y88455D02*
Y89655D01*
X176809Y98055D02*
X178009D01*
X177409Y97455D02*
Y98655D01*
X171809Y98055D02*
X173009D01*
X172409Y97455D02*
Y98655D01*
X176809Y93555D02*
X178009D01*
X177409Y92955D02*
Y94155D01*
X166809Y98055D02*
X168009D01*
X167409Y97455D02*
Y98655D01*
X173809Y9055D02*
X175009D01*
X174409Y8455D02*
Y9655D01*
X173809Y14055D02*
X175009D01*
X174409Y13455D02*
Y14655D01*
X173809Y19055D02*
X175009D01*
X174409Y18455D02*
Y19655D01*
X173809Y24055D02*
X175009D01*
X174409Y23455D02*
Y24655D01*
X173809Y29055D02*
X175009D01*
X174409Y28455D02*
Y29655D01*
X173809Y34055D02*
X175009D01*
X174409Y33455D02*
Y34655D01*
X173809Y39055D02*
X175009D01*
X174409Y38455D02*
Y39655D01*
X173809Y44055D02*
X175009D01*
X174409Y43455D02*
Y44655D01*
X173809Y49055D02*
X175009D01*
X174409Y48455D02*
Y49655D01*
X173809Y54055D02*
X175009D01*
X174409Y53455D02*
Y54655D01*
X173809Y59055D02*
X175009D01*
X174409Y58455D02*
Y59655D01*
X173809Y64055D02*
X175009D01*
X174409Y63455D02*
Y64655D01*
X173809Y69055D02*
X175009D01*
X174409Y68455D02*
Y69655D01*
X183431Y149295D02*
X184632D01*
X184031Y148695D02*
Y149895D01*
X183431Y158795D02*
X184632D01*
X184031Y158195D02*
Y159395D01*
X43431Y15295D02*
X44631D01*
X44032Y14695D02*
Y15895D01*
X105431Y25295D02*
X106632D01*
X106032Y24695D02*
Y25895D01*
X72431Y62795D02*
X73632D01*
X73032Y62195D02*
Y63395D01*
X72431Y71795D02*
X73632D01*
X73032Y71195D02*
Y72395D01*
X72431Y80295D02*
X73632D01*
X73032Y79695D02*
Y80895D01*
X72431Y90795D02*
X73632D01*
X73032Y90195D02*
Y91395D01*
X74932Y127295D02*
X76131D01*
X75532Y126695D02*
Y127895D01*
X227432Y94295D02*
X228631D01*
X228031Y93695D02*
Y94895D01*
X227432Y105295D02*
X228631D01*
X228031Y104695D02*
Y105895D01*
X227432Y114795D02*
X228631D01*
X228031Y114195D02*
Y115395D01*
X227432Y125295D02*
X228631D01*
X228031Y124695D02*
Y125895D01*
X227432Y134295D02*
X228631D01*
X228031Y133695D02*
Y134895D01*
X227432Y143795D02*
X228631D01*
X228031Y143195D02*
Y144395D01*
X192431Y71795D02*
X193631D01*
X193032Y71195D02*
Y72395D01*
X188432Y74295D02*
X189631D01*
X189032Y73695D02*
Y74895D01*
X183431Y74295D02*
X184632D01*
X184031Y73695D02*
Y74895D01*
X178431Y74795D02*
X179631D01*
X179032Y74195D02*
Y75395D01*
X182431Y80795D02*
X183632D01*
X183031Y80195D02*
Y81395D01*
X187432Y80795D02*
X188631D01*
X188031Y80195D02*
Y81395D01*
X192431Y79795D02*
X193631D01*
X193032Y79195D02*
Y80395D01*
X196432Y77295D02*
X197632D01*
X197031Y76695D02*
Y77895D01*
X193931Y62795D02*
X195132D01*
X194532Y62195D02*
Y63395D01*
X153884Y67598D02*
X155084D01*
X154484Y66998D02*
Y68198D01*
X165935Y66142D02*
X167135D01*
X166535Y65542D02*
Y66742D01*
X203432Y12795D02*
X204631D01*
X204031Y12195D02*
Y13395D01*
X203432Y17795D02*
X204631D01*
X204031Y17195D02*
Y18395D01*
X203432Y22795D02*
X204631D01*
X204031Y22195D02*
Y23395D01*
X201431Y27795D02*
X202631D01*
X202031Y27195D02*
Y28395D01*
X200932Y32795D02*
X202132D01*
X201532Y32195D02*
Y33395D01*
X202432Y47795D02*
X203631D01*
X203031Y47195D02*
Y48395D01*
X200932Y37795D02*
X202132D01*
X201532Y37195D02*
Y38395D01*
X202432Y52795D02*
X203631D01*
X203031Y52195D02*
Y53395D01*
X200932Y57795D02*
X202132D01*
X201532Y57195D02*
Y58395D01*
X203432Y7795D02*
X204631D01*
X204031Y7195D02*
Y8395D01*
X201431Y42795D02*
X202631D01*
X202031Y42195D02*
Y43395D01*
X200932Y62795D02*
X202132D01*
X201532Y62195D02*
Y63395D01*
X193431Y42795D02*
X194632D01*
X194032Y42195D02*
Y43395D01*
X191431Y7795D02*
X192631D01*
X192032Y7195D02*
Y8395D01*
X193931Y57795D02*
X195132D01*
X194532Y57195D02*
Y58395D01*
X192431Y52795D02*
X193631D01*
X193032Y52195D02*
Y53395D01*
X193931Y37795D02*
X195132D01*
X194532Y37195D02*
Y38395D01*
X192235Y47795D02*
X193435D01*
X192835Y47195D02*
Y48395D01*
X193931Y32795D02*
X195132D01*
X194532Y32195D02*
Y33395D01*
X193431Y27795D02*
X194632D01*
X194032Y27195D02*
Y28395D01*
X191431Y22795D02*
X192631D01*
X192032Y22195D02*
Y23395D01*
X191431Y17795D02*
X192631D01*
X192032Y17195D02*
Y18395D01*
X191431Y12795D02*
X192631D01*
X192032Y12195D02*
Y13395D01*
X162195Y74016D02*
X163395D01*
X162795Y73416D02*
Y74616D01*
X157471Y73032D02*
X158671D01*
X158071Y72431D02*
Y73632D01*
X156384Y12598D02*
X157584D01*
X156984Y11998D02*
Y13198D01*
X156384Y17598D02*
X157584D01*
X156984Y16998D02*
Y18198D01*
X156384Y22598D02*
X157584D01*
X156984Y21998D02*
Y23198D01*
X154384Y27598D02*
X155584D01*
X154984Y26998D02*
Y28198D01*
X154184Y32598D02*
X155384D01*
X154784Y31998D02*
Y33198D01*
X155384Y47598D02*
X156584D01*
X155984Y46998D02*
Y48198D01*
X154184Y37598D02*
X155384D01*
X154784Y36998D02*
Y38198D01*
X155384Y52598D02*
X156584D01*
X155984Y51998D02*
Y53198D01*
X153884Y57598D02*
X155084D01*
X154484Y56998D02*
Y58198D01*
X156384Y7598D02*
X157584D01*
X156984Y6998D02*
Y8198D01*
X154384Y42598D02*
X155584D01*
X154984Y41998D02*
Y43198D01*
X153884Y62598D02*
X155084D01*
X154484Y61998D02*
Y63198D01*
X146884Y62598D02*
X148084D01*
X147484Y61998D02*
Y63198D01*
X146187Y42598D02*
X147387D01*
X146787Y41998D02*
Y43198D01*
X164884Y6098D02*
X166084D01*
X165484Y5498D02*
Y6698D01*
X144384Y7598D02*
X145584D01*
X144984Y6998D02*
Y8198D01*
X146884Y57598D02*
X148084D01*
X147484Y56998D02*
Y58198D01*
X145384Y52598D02*
X146584D01*
X145984Y51998D02*
Y53198D01*
X146584Y37598D02*
X147784D01*
X147184Y36998D02*
Y38198D01*
X145384Y47598D02*
X146584D01*
X145984Y46998D02*
Y48198D01*
X146584Y32598D02*
X147784D01*
X147184Y31998D02*
Y33198D01*
X146384Y27598D02*
X147584D01*
X146984Y26998D02*
Y28198D01*
X144384Y22598D02*
X145584D01*
X144984Y21998D02*
Y23198D01*
X144384Y17598D02*
X145584D01*
X144984Y16998D02*
Y18198D01*
X144384Y12598D02*
X145584D01*
X144984Y11998D02*
Y13198D01*
X265305Y10905D02*
X266506D01*
X265905Y10306D02*
Y11506D01*
X265305Y15905D02*
X266506D01*
X265905Y15305D02*
Y16506D01*
X265305Y20906D02*
X266506D01*
X265905Y20305D02*
Y21506D01*
X265305Y25905D02*
X266506D01*
X265905Y25306D02*
Y26506D01*
X265305Y30906D02*
X266506D01*
X265905Y30305D02*
Y31506D01*
X265305Y35906D02*
X266506D01*
X265905Y35306D02*
Y36505D01*
X265305Y40905D02*
X266506D01*
X265905Y40306D02*
Y41506D01*
X265305Y45906D02*
X266506D01*
X265905Y45305D02*
Y46505D01*
X265305Y50906D02*
X266506D01*
X265905Y50305D02*
Y51506D01*
X265305Y55905D02*
X266506D01*
X265905Y55305D02*
Y56506D01*
X265305Y60905D02*
X266506D01*
X265905Y60306D02*
Y61506D01*
X265305Y65905D02*
X266506D01*
X265905Y65306D02*
Y66505D01*
X265305Y70906D02*
X266506D01*
X265905Y70306D02*
Y71505D01*
X265305Y75906D02*
X266506D01*
X265905Y75305D02*
Y76506D01*
X265305Y80905D02*
X266506D01*
X265905Y80305D02*
Y81506D01*
X265305Y85905D02*
X266506D01*
X265905Y85306D02*
Y86506D01*
X265305Y90905D02*
X266506D01*
X265905Y90306D02*
Y91505D01*
X265305Y95906D02*
X266506D01*
X265905Y95306D02*
Y96505D01*
X265305Y105905D02*
X266506D01*
X265905Y105306D02*
Y106506D01*
X265305Y100906D02*
X266506D01*
X265905Y100305D02*
Y101505D01*
X265305Y110906D02*
X266506D01*
X265905Y110306D02*
Y111505D01*
X265305Y115905D02*
X266506D01*
X265905Y115305D02*
Y116506D01*
X265305Y120905D02*
X266506D01*
X265905Y120306D02*
Y121505D01*
X265305Y125906D02*
X266506D01*
X265905Y125305D02*
Y126505D01*
X265305Y130905D02*
X266506D01*
X265905Y130306D02*
Y131506D01*
X265305Y135906D02*
X266506D01*
X265905Y135306D02*
Y136505D01*
X265305Y140905D02*
X266506D01*
X265905Y140305D02*
Y141506D01*
X265305Y145905D02*
X266506D01*
X265905Y145306D02*
Y146505D01*
X265305Y150906D02*
X266506D01*
X265905Y150305D02*
Y151505D01*
X265305Y155905D02*
X266506D01*
X265905Y155306D02*
Y156506D01*
X265305Y160906D02*
X266506D01*
X265905Y160306D02*
Y161505D01*
X265305Y165905D02*
X266506D01*
X265905Y165305D02*
Y166506D01*
X210306Y5906D02*
X211506D01*
X210906Y5305D02*
Y6505D01*
X180306Y5906D02*
X181506D01*
X180905Y5305D02*
Y6505D01*
X185306Y5906D02*
X186505D01*
X185906Y5305D02*
Y6505D01*
X160306Y5906D02*
X161505D01*
X160906Y5305D02*
Y6505D01*
X140305Y5906D02*
X141506D01*
X140905Y5305D02*
Y6505D01*
X135306Y5906D02*
X136505D01*
X135906Y5305D02*
Y6505D01*
X265305Y170905D02*
X266506D01*
X265905Y170306D02*
Y171505D01*
X260306Y170905D02*
X261506D01*
X260906Y170306D02*
Y171505D01*
X255306Y170905D02*
X256505D01*
X255906Y170306D02*
Y171505D01*
X250306Y170905D02*
X251505D01*
X250905Y170306D02*
Y171505D01*
X245305Y170905D02*
X246505D01*
X245905Y170306D02*
Y171505D01*
X240305Y170905D02*
X241506D01*
X240905Y170306D02*
Y171505D01*
X235306Y170905D02*
X236506D01*
X235906Y170306D02*
Y171505D01*
X230306Y170905D02*
X231505D01*
X230906Y170306D02*
Y171505D01*
X225306Y170905D02*
X226505D01*
X225905Y170306D02*
Y171505D01*
X220305Y170905D02*
X221505D01*
X220905Y170306D02*
Y171505D01*
X215305Y170905D02*
X216506D01*
X215905Y170306D02*
Y171505D01*
X210306Y170905D02*
X211506D01*
X210906Y170306D02*
Y171505D01*
X205306Y170905D02*
X206505D01*
X205906Y170306D02*
Y171505D01*
X200306Y170905D02*
X201505D01*
X200905Y170306D02*
Y171505D01*
X190305Y170905D02*
X191506D01*
X190905Y170306D02*
Y171505D01*
X195306Y170905D02*
X196505D01*
X195905Y170306D02*
Y171505D01*
X185306Y170905D02*
X186505D01*
X185906Y170306D02*
Y171505D01*
X180306Y170905D02*
X181506D01*
X180905Y170306D02*
Y171505D01*
X170306Y170905D02*
X171505D01*
X170905Y170306D02*
Y171505D01*
X175305Y170905D02*
X176505D01*
X175906Y170306D02*
Y171505D01*
X165305Y170905D02*
X166506D01*
X165905Y170306D02*
Y171505D01*
X160306Y170905D02*
X161505D01*
X160906Y170306D02*
Y171505D01*
X155306Y170905D02*
X156506D01*
X155905Y170306D02*
Y171505D01*
X145306Y170905D02*
X146505D01*
X145905Y170306D02*
Y171505D01*
X150305Y170905D02*
X151505D01*
X150906Y170306D02*
Y171505D01*
X140305Y170905D02*
X141506D01*
X140905Y170306D02*
Y171505D01*
X135306Y170905D02*
X136505D01*
X135906Y170306D02*
Y171505D01*
X130306Y170905D02*
X131506D01*
X130905Y170306D02*
Y171505D01*
X125305Y170905D02*
X126505D01*
X125906Y170306D02*
Y171505D01*
X115305Y170905D02*
X116506D01*
X115905Y170306D02*
Y171505D01*
X120306Y170905D02*
X121505D01*
X120905Y170306D02*
Y171505D01*
X110306Y170905D02*
X111505D01*
X110906Y170306D02*
Y171505D01*
X105306Y170905D02*
X106506D01*
X105905Y170306D02*
Y171505D01*
X100305Y170905D02*
X101505D01*
X100906Y170306D02*
Y171505D01*
X95306Y170905D02*
X96505D01*
X95906Y170306D02*
Y171505D01*
X90306Y170905D02*
X91505D01*
X90905Y170306D02*
Y171505D01*
X85306Y170905D02*
X86506D01*
X85905Y170306D02*
Y171505D01*
X80305Y170905D02*
X81506D01*
X80905Y170306D02*
Y171505D01*
X75305Y170905D02*
X76506D01*
X75906Y170306D02*
Y171505D01*
X70306Y170905D02*
X71505D01*
X70906Y170306D02*
Y171505D01*
X65306Y170905D02*
X66505D01*
X65905Y170306D02*
Y171505D01*
X60306Y170905D02*
X61506D01*
X60905Y170306D02*
Y171505D01*
X55305Y170905D02*
X56506D01*
X55905Y170306D02*
Y171505D01*
X50305Y170905D02*
X51506D01*
X50906Y170306D02*
Y171505D01*
X40306Y170905D02*
X41506D01*
X40905Y170306D02*
Y171505D01*
X45305Y170905D02*
X46505D01*
X45906Y170306D02*
Y171505D01*
X35306Y170905D02*
X36505D01*
X35906Y170306D02*
Y171505D01*
X30305Y170905D02*
X31506D01*
X30906Y170306D02*
Y171505D01*
X25306Y170905D02*
X26506D01*
X25905Y170306D02*
Y171505D01*
X20305Y170905D02*
X21506D01*
X20906Y170306D02*
Y171505D01*
X15305Y170905D02*
X16506D01*
X15905Y170306D02*
Y171505D01*
X10306Y170905D02*
X11506D01*
X10905Y170306D02*
Y171505D01*
X5305Y170905D02*
X6505D01*
X5906Y170306D02*
Y171505D01*
X5305Y165905D02*
X6505D01*
X5906Y165305D02*
Y166506D01*
X5305Y160906D02*
X6505D01*
X5906Y160306D02*
Y161505D01*
X5305Y155905D02*
X6505D01*
X5906Y155306D02*
Y156506D01*
X5305Y150906D02*
X6505D01*
X5906Y150305D02*
Y151505D01*
X5305Y145905D02*
X6505D01*
X5906Y145306D02*
Y146505D01*
X5305Y140905D02*
X6505D01*
X5906Y140305D02*
Y141506D01*
X5305Y135906D02*
X6505D01*
X5906Y135306D02*
Y136505D01*
X5305Y130905D02*
X6505D01*
X5906Y130306D02*
Y131506D01*
X5305Y125906D02*
X6505D01*
X5906Y125305D02*
Y126505D01*
X5305Y120905D02*
X6505D01*
X5906Y120306D02*
Y121505D01*
X5305Y115905D02*
X6505D01*
X5906Y115305D02*
Y116506D01*
X5305Y110906D02*
X6505D01*
X5906Y110306D02*
Y111505D01*
X5305Y105905D02*
X6505D01*
X5906Y105306D02*
Y106506D01*
X5305Y100906D02*
X6505D01*
X5906Y100305D02*
Y101505D01*
X5305Y95906D02*
X6505D01*
X5906Y95306D02*
Y96505D01*
X5305Y90905D02*
X6505D01*
X5906Y90306D02*
Y91505D01*
X5305Y85905D02*
X6505D01*
X5906Y85306D02*
Y86506D01*
X5305Y80905D02*
X6505D01*
X5906Y80305D02*
Y81506D01*
X5305Y75906D02*
X6505D01*
X5906Y75305D02*
Y76506D01*
X5305Y70906D02*
X6505D01*
X5906Y70306D02*
Y71505D01*
X5305Y65905D02*
X6505D01*
X5906Y65306D02*
Y66505D01*
X5305Y60905D02*
X6505D01*
X5906Y60306D02*
Y61506D01*
X5305Y55905D02*
X6505D01*
X5906Y55305D02*
Y56506D01*
X5305Y50906D02*
X6505D01*
X5906Y50305D02*
Y51506D01*
X5305Y45906D02*
X6505D01*
X5906Y45305D02*
Y46505D01*
X5305Y40905D02*
X6505D01*
X5906Y40306D02*
Y41506D01*
X5305Y35906D02*
X6505D01*
X5906Y35306D02*
Y36505D01*
X5305Y30906D02*
X6505D01*
X5906Y30305D02*
Y31506D01*
X5305Y25905D02*
X6505D01*
X5906Y25306D02*
Y26506D01*
X5305Y20906D02*
X6505D01*
X5906Y20305D02*
Y21506D01*
X5305Y15905D02*
X6505D01*
X5906Y15305D02*
Y16506D01*
X5305Y10905D02*
X6505D01*
X5906Y10306D02*
Y11506D01*
X265305Y5906D02*
X266506D01*
X265905Y5305D02*
Y6505D01*
X260306Y5906D02*
X261506D01*
X260906Y5305D02*
Y6505D01*
X255306Y5906D02*
X256505D01*
X255906Y5305D02*
Y6505D01*
X250306Y5906D02*
X251505D01*
X250905Y5305D02*
Y6505D01*
X245305Y5906D02*
X246505D01*
X245905Y5305D02*
Y6505D01*
X240305Y5906D02*
X241506D01*
X240905Y5305D02*
Y6505D01*
X235306Y5906D02*
X236506D01*
X235906Y5305D02*
Y6505D01*
X230306Y5906D02*
X231505D01*
X230906Y5305D02*
Y6505D01*
X225306Y5906D02*
X226505D01*
X225905Y5305D02*
Y6505D01*
X220305Y5906D02*
X221505D01*
X220905Y5305D02*
Y6505D01*
X215305Y5906D02*
X216506D01*
X215905Y5305D02*
Y6505D01*
X175305Y5906D02*
X176505D01*
X175906Y5305D02*
Y6505D01*
X170306Y5906D02*
X171505D01*
X170905Y5305D02*
Y6505D01*
X130306Y5906D02*
X131506D01*
X130905Y5305D02*
Y6505D01*
X125305Y5906D02*
X126505D01*
X125906Y5305D02*
Y6505D01*
X120306Y5906D02*
X121505D01*
X120905Y5305D02*
Y6505D01*
X115305Y5906D02*
X116506D01*
X115905Y5305D02*
Y6505D01*
X110306Y5906D02*
X111505D01*
X110906Y5305D02*
Y6505D01*
X105306Y5906D02*
X106506D01*
X105905Y5305D02*
Y6505D01*
X100305Y5906D02*
X101505D01*
X100906Y5305D02*
Y6505D01*
X95306Y5906D02*
X96505D01*
X95906Y5305D02*
Y6505D01*
X90306Y5906D02*
X91505D01*
X90905Y5305D02*
Y6505D01*
X85306Y5906D02*
X86506D01*
X85905Y5305D02*
Y6505D01*
X80305Y5906D02*
X81506D01*
X80905Y5305D02*
Y6505D01*
X75305Y5906D02*
X76506D01*
X75906Y5305D02*
Y6505D01*
X70306Y5906D02*
X71505D01*
X70906Y5305D02*
Y6505D01*
X65306Y5906D02*
X66505D01*
X65905Y5305D02*
Y6505D01*
X60306Y5906D02*
X61506D01*
X60905Y5305D02*
Y6505D01*
X55305Y5906D02*
X56506D01*
X55905Y5305D02*
Y6505D01*
X45305Y5906D02*
X46505D01*
X45906Y5305D02*
Y6505D01*
X50305Y5906D02*
X51506D01*
X50906Y5305D02*
Y6505D01*
X40306Y5906D02*
X41506D01*
X40905Y5305D02*
Y6505D01*
X35306Y5906D02*
X36505D01*
X35906Y5305D02*
Y6505D01*
X30305Y5906D02*
X31506D01*
X30906Y5305D02*
Y6505D01*
X25306Y5906D02*
X26506D01*
X25905Y5305D02*
Y6505D01*
X20305Y5906D02*
X21506D01*
X20906Y5305D02*
Y6505D01*
X15305Y5906D02*
X16506D01*
X15905Y5305D02*
Y6505D01*
X10306Y5906D02*
X11506D01*
X10905Y5305D02*
Y6505D01*
X5305Y5906D02*
X6505D01*
X5906Y5305D02*
Y6505D01*
X133849Y70276D02*
X135049D01*
X134449Y69676D02*
Y70876D01*
X143098Y84252D02*
X144698D01*
X143898Y83452D02*
Y85052D01*
X240542Y63583D02*
X241742D01*
X241142Y62983D02*
Y64183D01*
X200778Y86806D02*
X201978D01*
X201378Y86206D02*
Y87406D01*
X101368Y44488D02*
X102568D01*
X101969Y43888D02*
Y45088D01*
X95069Y62795D02*
X96269D01*
X95669Y62195D02*
Y63395D01*
X95857Y71904D02*
X97057D01*
X96457Y71305D02*
Y72505D01*
X96053Y80512D02*
X97254D01*
X96653Y79912D02*
Y81112D01*
X130306Y87205D02*
X131506D01*
X130905Y86605D02*
Y87805D01*
X126432Y141795D02*
X127631D01*
X127032Y141195D02*
Y142395D01*
X125932Y157295D02*
X127131D01*
X126532Y156695D02*
Y157895D01*
X216723Y76181D02*
X217923D01*
X217323Y75581D02*
Y76781D01*
X181684Y66142D02*
X182884D01*
X182283Y65542D02*
Y66742D01*
X114751Y90158D02*
X116351D01*
X115551Y89358D02*
Y90957D01*
X71050Y130315D02*
X72650D01*
X71850Y129515D02*
Y131115D01*
X202743Y121653D02*
X204343D01*
X203543Y120853D02*
Y122453D01*
X185224Y120866D02*
X186824D01*
X186024Y120066D02*
Y121666D01*
X55696Y121850D02*
X57296D01*
X56496Y121050D02*
Y122650D01*
X156877Y121260D02*
X158477D01*
X157677Y120460D02*
Y122060D01*
X186011Y112205D02*
X187611D01*
X186811Y111405D02*
Y113005D01*
X100578Y91339D02*
X102178D01*
X101378Y90539D02*
Y92139D01*
X149084Y125724D02*
X150684D01*
X149884Y124924D02*
Y126524D01*
X172625Y125591D02*
X174225D01*
X173425Y124791D02*
Y126391D01*
X61405Y94882D02*
X63005D01*
X62205Y94082D02*
Y95682D01*
M02*
