G04*
G04 #@! TF.GenerationSoftware,Altium Limited,Altium Designer,24.5.2 (23)*
G04*
G04 Layer_Color=2752767*
%FSLAX25Y25*%
%MOIN*%
G70*
G04*
G04 #@! TF.SameCoordinates,D208CBCF-4B6E-48A8-A20F-7FDAAE84B22A*
G04*
G04*
G04 #@! TF.FilePolarity,Positive*
G04*
G01*
G75*
%ADD10C,0.00500*%
%ADD58C,0.00667*%
D10*
X248787Y155677D02*
X249787Y157677D01*
X248787Y159677D01*
X250787Y158677D01*
X252787Y159677D01*
X251787Y157677D01*
X252787Y155677D01*
X250787Y156677D01*
X248787Y155677D01*
X32252Y125126D02*
Y129126D01*
X36252D01*
Y125126D01*
X32252D01*
Y85126D02*
Y89126D01*
X36252D01*
Y85126D01*
X32252D01*
Y95126D02*
Y99126D01*
X36252D01*
Y95126D01*
X32252D01*
Y105126D02*
Y109126D01*
X36252D01*
Y105126D01*
X32252D01*
Y115126D02*
Y119126D01*
X36252D01*
Y115126D01*
X32252D01*
X22252Y85126D02*
Y89126D01*
X26252D01*
Y85126D01*
X22252D01*
Y95126D02*
Y99126D01*
X26252D01*
Y95126D01*
X22252D01*
Y105126D02*
Y109126D01*
X26252D01*
Y105126D01*
X22252D01*
Y115126D02*
Y119126D01*
X26252D01*
Y115126D01*
X22252D01*
Y125126D02*
Y129126D01*
X26252D01*
Y125126D01*
X22252D01*
X32252Y75126D02*
Y79126D01*
X36252D01*
Y75126D01*
X32252D01*
X22252D02*
Y79126D01*
X26252D01*
Y75126D01*
X22252D01*
X24772Y148984D02*
X25772Y150984D01*
X24772Y152984D01*
X26772Y151984D01*
X28772Y152984D01*
X27772Y150984D01*
X28772Y148984D01*
X26772Y149984D01*
X24772Y148984D01*
X18866Y18079D02*
X19866Y20079D01*
X18866Y22079D01*
X20866Y21079D01*
X22866Y22079D01*
X21866Y20079D01*
X22866Y18079D01*
X20866Y19079D01*
X18866Y18079D01*
X249772Y18472D02*
X250772Y20472D01*
X249772Y22472D01*
X251772Y21472D01*
X253772Y22472D01*
X252772Y20472D01*
X253772Y18472D01*
X251772Y19472D01*
X249772Y18472D01*
X157984Y78512D02*
X155984Y82512D01*
X159984D01*
X157984Y78512D01*
X162992Y79102D02*
X160992Y83102D01*
X164992D01*
X162992Y79102D01*
X153543Y76346D02*
X151543Y80347D01*
X155543D01*
X153543Y76346D01*
Y85598D02*
X151543Y89598D01*
X155543D01*
X153543Y85598D01*
X168504Y78482D02*
X166504Y82481D01*
X170504D01*
X168504Y78482D01*
X168307Y72409D02*
X166307Y76410D01*
X170307D01*
X168307Y72409D01*
X261221Y41307D02*
X259221Y45307D01*
X263221D01*
X261221Y41307D01*
Y50559D02*
X259221Y54559D01*
X263221D01*
X261221Y50559D01*
Y61583D02*
X259221Y65583D01*
X263221D01*
X261221Y61583D01*
X219882Y31661D02*
X217882Y35661D01*
X221882D01*
X219882Y31661D01*
Y41701D02*
X217882Y45701D01*
X221882D01*
X219882Y41701D01*
Y51543D02*
X217882Y55543D01*
X221882D01*
X219882Y51543D01*
Y61386D02*
X217882Y65386D01*
X221882D01*
X219882Y61386D01*
X167409Y91555D02*
X165409Y95555D01*
X169409D01*
X167409Y91555D01*
X172409D02*
X170409Y95555D01*
X174409D01*
X172409Y91555D01*
X167409Y87055D02*
X165409Y91055D01*
X169409D01*
X167409Y87055D01*
X172409D02*
X170409Y91055D01*
X174409D01*
X172409Y87055D01*
X177409D02*
X175409Y91055D01*
X179409D01*
X177409Y87055D01*
Y96055D02*
X175409Y100055D01*
X179409D01*
X177409Y96055D01*
X172409D02*
X170409Y100055D01*
X174409D01*
X172409Y96055D01*
X177409Y91555D02*
X175409Y95555D01*
X179409D01*
X177409Y91555D01*
X167409Y96055D02*
X165409Y100055D01*
X169409D01*
X167409Y96055D01*
X174409Y7055D02*
X172409Y11055D01*
X176409D01*
X174409Y7055D01*
Y12055D02*
X172409Y16055D01*
X176409D01*
X174409Y12055D01*
Y17055D02*
X172409Y21055D01*
X176409D01*
X174409Y17055D01*
Y22055D02*
X172409Y26055D01*
X176409D01*
X174409Y22055D01*
Y27055D02*
X172409Y31055D01*
X176409D01*
X174409Y27055D01*
Y32055D02*
X172409Y36055D01*
X176409D01*
X174409Y32055D01*
Y37055D02*
X172409Y41055D01*
X176409D01*
X174409Y37055D01*
Y42055D02*
X172409Y46055D01*
X176409D01*
X174409Y42055D01*
Y47055D02*
X172409Y51055D01*
X176409D01*
X174409Y47055D01*
Y52055D02*
X172409Y56055D01*
X176409D01*
X174409Y52055D01*
Y57055D02*
X172409Y61055D01*
X176409D01*
X174409Y57055D01*
Y62055D02*
X172409Y66055D01*
X176409D01*
X174409Y62055D01*
Y67055D02*
X172409Y71055D01*
X176409D01*
X174409Y67055D01*
X184031Y147295D02*
X182032Y151295D01*
X186031D01*
X184031Y147295D01*
Y156795D02*
X182032Y160795D01*
X186031D01*
X184031Y156795D01*
X44032Y13295D02*
X42031Y17295D01*
X46031D01*
X44032Y13295D01*
X106032Y23295D02*
X104032Y27295D01*
X108031D01*
X106032Y23295D01*
X73032Y60795D02*
X71031Y64795D01*
X75032D01*
X73032Y60795D01*
Y69795D02*
X71031Y73795D01*
X75032D01*
X73032Y69795D01*
Y78295D02*
X71031Y82295D01*
X75032D01*
X73032Y78295D01*
Y88795D02*
X71031Y92795D01*
X75032D01*
X73032Y88795D01*
X75532Y125295D02*
X73532Y129295D01*
X77531D01*
X75532Y125295D01*
X228031Y92295D02*
X226031Y96295D01*
X230031D01*
X228031Y92295D01*
Y103295D02*
X226031Y107295D01*
X230031D01*
X228031Y103295D01*
Y112795D02*
X226031Y116795D01*
X230031D01*
X228031Y112795D01*
Y123295D02*
X226031Y127295D01*
X230031D01*
X228031Y123295D01*
Y132295D02*
X226031Y136295D01*
X230031D01*
X228031Y132295D01*
Y141795D02*
X226031Y145795D01*
X230031D01*
X228031Y141795D01*
X193032Y69795D02*
X191032Y73795D01*
X195031D01*
X193032Y69795D01*
X189032Y72295D02*
X187031Y76295D01*
X191032D01*
X189032Y72295D01*
X184031D02*
X182032Y76295D01*
X186031D01*
X184031Y72295D01*
X179032Y72795D02*
X177032Y76795D01*
X181032D01*
X179032Y72795D01*
X183031Y78795D02*
X181032Y82795D01*
X185031D01*
X183031Y78795D01*
X188031D02*
X186031Y82795D01*
X190032D01*
X188031Y78795D01*
X193032Y77795D02*
X191032Y81795D01*
X195031D01*
X193032Y77795D01*
X197031Y75295D02*
X195031Y79295D01*
X199031D01*
X197031Y75295D01*
X194532Y60795D02*
X192532Y64795D01*
X196531D01*
X194532Y60795D01*
X154484Y65598D02*
X152484Y69598D01*
X156484D01*
X154484Y65598D01*
X166535Y64142D02*
X164535Y68142D01*
X168535D01*
X166535Y64142D01*
X204031Y10795D02*
X202031Y14795D01*
X206031D01*
X204031Y10795D01*
Y15795D02*
X202031Y19795D01*
X206031D01*
X204031Y15795D01*
Y20795D02*
X202031Y24795D01*
X206031D01*
X204031Y20795D01*
X202031Y25795D02*
X200031Y29795D01*
X204031D01*
X202031Y25795D01*
X201532Y30795D02*
X199531Y34795D01*
X203532D01*
X201532Y30795D01*
X203031Y45795D02*
X201031Y49795D01*
X205031D01*
X203031Y45795D01*
X201532Y35795D02*
X199531Y39795D01*
X203532D01*
X201532Y35795D01*
X203031Y50795D02*
X201031Y54795D01*
X205031D01*
X203031Y50795D01*
X201532Y55795D02*
X199531Y59795D01*
X203532D01*
X201532Y55795D01*
X204031Y5795D02*
X202031Y9795D01*
X206031D01*
X204031Y5795D01*
X202031Y40795D02*
X200031Y44795D01*
X204031D01*
X202031Y40795D01*
X201532Y60795D02*
X199531Y64795D01*
X203532D01*
X201532Y60795D01*
X194032Y40795D02*
X192032Y44795D01*
X196031D01*
X194032Y40795D01*
X192032Y5795D02*
X190032Y9795D01*
X194032D01*
X192032Y5795D01*
X194532Y55795D02*
X192532Y59795D01*
X196531D01*
X194532Y55795D01*
X193032Y50795D02*
X191032Y54795D01*
X195031D01*
X193032Y50795D01*
X194532Y35795D02*
X192532Y39795D01*
X196531D01*
X194532Y35795D01*
X192835Y45795D02*
X190835Y49795D01*
X194835D01*
X192835Y45795D01*
X194532Y30795D02*
X192532Y34795D01*
X196531D01*
X194532Y30795D01*
X194032Y25795D02*
X192032Y29795D01*
X196031D01*
X194032Y25795D01*
X192032Y20795D02*
X190032Y24795D01*
X194032D01*
X192032Y20795D01*
Y15795D02*
X190032Y19795D01*
X194032D01*
X192032Y15795D01*
Y10795D02*
X190032Y14795D01*
X194032D01*
X192032Y10795D01*
X162795Y72016D02*
X160795Y76016D01*
X164795D01*
X162795Y72016D01*
X158071Y71031D02*
X156071Y75032D01*
X160071D01*
X158071Y71031D01*
X156984Y10598D02*
X154984Y14598D01*
X158984D01*
X156984Y10598D01*
Y15598D02*
X154984Y19598D01*
X158984D01*
X156984Y15598D01*
Y20598D02*
X154984Y24598D01*
X158984D01*
X156984Y20598D01*
X154984Y25598D02*
X152984Y29598D01*
X156984D01*
X154984Y25598D01*
X154784Y30598D02*
X152784Y34598D01*
X156784D01*
X154784Y30598D01*
X155984Y45598D02*
X153984Y49598D01*
X157984D01*
X155984Y45598D01*
X154784Y35598D02*
X152784Y39598D01*
X156784D01*
X154784Y35598D01*
X155984Y50598D02*
X153984Y54598D01*
X157984D01*
X155984Y50598D01*
X154484Y55598D02*
X152484Y59598D01*
X156484D01*
X154484Y55598D01*
X156984Y5598D02*
X154984Y9598D01*
X158984D01*
X156984Y5598D01*
X154984Y40598D02*
X152984Y44598D01*
X156984D01*
X154984Y40598D01*
X154484Y60598D02*
X152484Y64598D01*
X156484D01*
X154484Y60598D01*
X147484D02*
X145484Y64598D01*
X149484D01*
X147484Y60598D01*
X146787Y40598D02*
X144787Y44598D01*
X148787D01*
X146787Y40598D01*
X165484Y4098D02*
X163484Y8098D01*
X167484D01*
X165484Y4098D01*
X144984Y5598D02*
X142984Y9598D01*
X146984D01*
X144984Y5598D01*
X147484Y55598D02*
X145484Y59598D01*
X149484D01*
X147484Y55598D01*
X145984Y50598D02*
X143984Y54598D01*
X147984D01*
X145984Y50598D01*
X147184Y35598D02*
X145184Y39598D01*
X149184D01*
X147184Y35598D01*
X145984Y45598D02*
X143984Y49598D01*
X147984D01*
X145984Y45598D01*
X147184Y30598D02*
X145184Y34598D01*
X149184D01*
X147184Y30598D01*
X146984Y25598D02*
X144984Y29598D01*
X148984D01*
X146984Y25598D01*
X144984Y20598D02*
X142984Y24598D01*
X146984D01*
X144984Y20598D01*
Y15598D02*
X142984Y19598D01*
X146984D01*
X144984Y15598D01*
Y10598D02*
X142984Y14598D01*
X146984D01*
X144984Y10598D01*
X265905Y8906D02*
X263906Y12905D01*
X267905D01*
X265905Y8906D01*
Y13905D02*
X263906Y17906D01*
X267905D01*
X265905Y13905D01*
Y18905D02*
X263906Y22906D01*
X267905D01*
X265905Y18905D01*
Y23905D02*
X263906Y27905D01*
X267905D01*
X265905Y23905D01*
Y28905D02*
X263906Y32906D01*
X267905D01*
X265905Y28905D01*
Y33906D02*
X263906Y37905D01*
X267905D01*
X265905Y33906D01*
Y38906D02*
X263906Y42906D01*
X267905D01*
X265905Y38906D01*
Y43905D02*
X263906Y47905D01*
X267905D01*
X265905Y43905D01*
Y48906D02*
X263906Y52905D01*
X267905D01*
X265905Y48906D01*
Y53905D02*
X263906Y57906D01*
X267905D01*
X265905Y53905D01*
Y58906D02*
X263906Y62906D01*
X267905D01*
X265905Y58906D01*
Y63906D02*
X263906Y67905D01*
X267905D01*
X265905Y63906D01*
Y68906D02*
X263906Y72905D01*
X267905D01*
X265905Y68906D01*
Y73905D02*
X263906Y77905D01*
X267905D01*
X265905Y73905D01*
Y78905D02*
X263906Y82906D01*
X267905D01*
X265905Y78905D01*
Y83906D02*
X263906Y87906D01*
X267905D01*
X265905Y83906D01*
Y88906D02*
X263906Y92905D01*
X267905D01*
X265905Y88906D01*
Y93906D02*
X263906Y97905D01*
X267905D01*
X265905Y93906D01*
Y103905D02*
X263906Y107905D01*
X267905D01*
X265905Y103905D01*
Y98905D02*
X263906Y102905D01*
X267905D01*
X265905Y98905D01*
Y108905D02*
X263906Y112906D01*
X267905D01*
X265905Y108905D01*
Y113906D02*
X263906Y117905D01*
X267905D01*
X265905Y113906D01*
Y118905D02*
X263906Y122906D01*
X267905D01*
X265905Y118905D01*
Y123906D02*
X263906Y127905D01*
X267905D01*
X265905Y123906D01*
Y128905D02*
X263906Y132905D01*
X267905D01*
X265905Y128905D01*
Y133905D02*
X263906Y137906D01*
X267905D01*
X265905Y133905D01*
Y138906D02*
X263906Y142905D01*
X267905D01*
X265905Y138906D01*
Y143905D02*
X263906Y147906D01*
X267905D01*
X265905Y143905D01*
Y148906D02*
X263906Y152905D01*
X267905D01*
X265905Y148906D01*
Y153905D02*
X263906Y157905D01*
X267905D01*
X265905Y153905D01*
Y158905D02*
X263906Y162906D01*
X267905D01*
X265905Y158905D01*
Y163906D02*
X263906Y167905D01*
X267905D01*
X265905Y163906D01*
X210906Y3906D02*
X208906Y7905D01*
X212906D01*
X210906Y3906D01*
X180905D02*
X178905Y7905D01*
X182905D01*
X180905Y3906D01*
X185906D02*
X183905Y7905D01*
X187906D01*
X185906Y3906D01*
X160906D02*
X158905Y7905D01*
X162906D01*
X160906Y3906D01*
X140905D02*
X138906Y7905D01*
X142905D01*
X140905Y3906D01*
X135906D02*
X133905Y7905D01*
X137906D01*
X135906Y3906D01*
X265905Y168905D02*
X263906Y172906D01*
X267905D01*
X265905Y168905D01*
X260906D02*
X258906Y172906D01*
X262906D01*
X260906Y168905D01*
X255906D02*
X253906Y172906D01*
X257906D01*
X255906Y168905D01*
X250905D02*
X248905Y172906D01*
X252906D01*
X250905Y168905D01*
X245905D02*
X243905Y172906D01*
X247905D01*
X245905Y168905D01*
X240905D02*
X238906Y172906D01*
X242905D01*
X240905Y168905D01*
X235906D02*
X233906Y172906D01*
X237906D01*
X235906Y168905D01*
X230906D02*
X228906Y172906D01*
X232906D01*
X230906Y168905D01*
X225905D02*
X223905Y172906D01*
X227906D01*
X225905Y168905D01*
X220905D02*
X218905Y172906D01*
X222905D01*
X220905Y168905D01*
X215905D02*
X213906Y172906D01*
X217905D01*
X215905Y168905D01*
X210906D02*
X208906Y172906D01*
X212906D01*
X210906Y168905D01*
X205906D02*
X203906Y172906D01*
X207906D01*
X205906Y168905D01*
X200905D02*
X198906Y172906D01*
X202906D01*
X200905Y168905D01*
X190905D02*
X188906Y172906D01*
X192905D01*
X190905Y168905D01*
X195905D02*
X193905Y172906D01*
X197906D01*
X195905Y168905D01*
X185906D02*
X183905Y172906D01*
X187906D01*
X185906Y168905D01*
X180905D02*
X178905Y172906D01*
X182905D01*
X180905Y168905D01*
X170905D02*
X168905Y172906D01*
X172906D01*
X170905Y168905D01*
X175906D02*
X173906Y172906D01*
X177905D01*
X175906Y168905D01*
X165905D02*
X163906Y172906D01*
X167905D01*
X165905Y168905D01*
X160906D02*
X158905Y172906D01*
X162906D01*
X160906Y168905D01*
X155905D02*
X153905Y172906D01*
X157905D01*
X155905Y168905D01*
X145905D02*
X143905Y172906D01*
X147906D01*
X145905Y168905D01*
X150906D02*
X148906Y172906D01*
X152905D01*
X150906Y168905D01*
X140905D02*
X138906Y172906D01*
X142905D01*
X140905Y168905D01*
X135906D02*
X133905Y172906D01*
X137906D01*
X135906Y168905D01*
X130905D02*
X128905Y172906D01*
X132905D01*
X130905Y168905D01*
X125906D02*
X123906Y172906D01*
X127905D01*
X125906Y168905D01*
X115905D02*
X113906Y172906D01*
X117905D01*
X115905Y168905D01*
X120905D02*
X118905Y172906D01*
X122906D01*
X120905Y168905D01*
X110906D02*
X108905Y172906D01*
X112906D01*
X110906Y168905D01*
X105905D02*
X103905Y172906D01*
X107905D01*
X105905Y168905D01*
X100906D02*
X98905Y172906D01*
X102905D01*
X100906Y168905D01*
X95906D02*
X93906Y172906D01*
X97905D01*
X95906Y168905D01*
X90905D02*
X88906Y172906D01*
X92905D01*
X90905Y168905D01*
X85905D02*
X83906Y172906D01*
X87906D01*
X85905Y168905D01*
X80905D02*
X78905Y172906D01*
X82906D01*
X80905Y168905D01*
X75906D02*
X73905Y172906D01*
X77905D01*
X75906Y168905D01*
X70906D02*
X68906Y172906D01*
X72905D01*
X70906Y168905D01*
X65905D02*
X63906Y172906D01*
X67905D01*
X65905Y168905D01*
X60905D02*
X58906Y172906D01*
X62906D01*
X60905Y168905D01*
X55905D02*
X53905Y172906D01*
X57906D01*
X55905Y168905D01*
X50906D02*
X48906Y172906D01*
X52905D01*
X50906Y168905D01*
X40905D02*
X38906Y172906D01*
X42906D01*
X40905Y168905D01*
X45906D02*
X43905Y172906D01*
X47905D01*
X45906Y168905D01*
X35906D02*
X33906Y172906D01*
X37905D01*
X35906Y168905D01*
X30906D02*
X28905Y172906D01*
X32906D01*
X30906Y168905D01*
X25905D02*
X23905Y172906D01*
X27905D01*
X25905Y168905D01*
X20906D02*
X18905Y172906D01*
X22906D01*
X20906Y168905D01*
X15905D02*
X13905Y172906D01*
X17906D01*
X15905Y168905D01*
X10905D02*
X8906Y172906D01*
X12905D01*
X10905Y168905D01*
X5906D02*
X3906Y172906D01*
X7905D01*
X5906Y168905D01*
Y163906D02*
X3906Y167905D01*
X7905D01*
X5906Y163906D01*
Y158905D02*
X3906Y162906D01*
X7905D01*
X5906Y158905D01*
Y153905D02*
X3906Y157905D01*
X7905D01*
X5906Y153905D01*
Y148906D02*
X3906Y152905D01*
X7905D01*
X5906Y148906D01*
Y143905D02*
X3906Y147906D01*
X7905D01*
X5906Y143905D01*
Y138906D02*
X3906Y142905D01*
X7905D01*
X5906Y138906D01*
Y133905D02*
X3906Y137906D01*
X7905D01*
X5906Y133905D01*
Y128905D02*
X3906Y132905D01*
X7905D01*
X5906Y128905D01*
Y123906D02*
X3906Y127905D01*
X7905D01*
X5906Y123906D01*
Y118905D02*
X3906Y122906D01*
X7905D01*
X5906Y118905D01*
Y113906D02*
X3906Y117905D01*
X7905D01*
X5906Y113906D01*
Y108905D02*
X3906Y112906D01*
X7905D01*
X5906Y108905D01*
Y103905D02*
X3906Y107905D01*
X7905D01*
X5906Y103905D01*
Y98905D02*
X3906Y102905D01*
X7905D01*
X5906Y98905D01*
Y93906D02*
X3906Y97905D01*
X7905D01*
X5906Y93906D01*
Y88906D02*
X3906Y92905D01*
X7905D01*
X5906Y88906D01*
Y83906D02*
X3906Y87906D01*
X7905D01*
X5906Y83906D01*
Y78905D02*
X3906Y82906D01*
X7905D01*
X5906Y78905D01*
Y73905D02*
X3906Y77905D01*
X7905D01*
X5906Y73905D01*
Y68906D02*
X3906Y72905D01*
X7905D01*
X5906Y68906D01*
Y63906D02*
X3906Y67905D01*
X7905D01*
X5906Y63906D01*
Y58906D02*
X3906Y62906D01*
X7905D01*
X5906Y58906D01*
Y53905D02*
X3906Y57906D01*
X7905D01*
X5906Y53905D01*
Y48906D02*
X3906Y52905D01*
X7905D01*
X5906Y48906D01*
Y43905D02*
X3906Y47905D01*
X7905D01*
X5906Y43905D01*
Y38906D02*
X3906Y42906D01*
X7905D01*
X5906Y38906D01*
Y33906D02*
X3906Y37905D01*
X7905D01*
X5906Y33906D01*
Y28905D02*
X3906Y32906D01*
X7905D01*
X5906Y28905D01*
Y23905D02*
X3906Y27905D01*
X7905D01*
X5906Y23905D01*
Y18905D02*
X3906Y22906D01*
X7905D01*
X5906Y18905D01*
Y13905D02*
X3906Y17906D01*
X7905D01*
X5906Y13905D01*
Y8906D02*
X3906Y12905D01*
X7905D01*
X5906Y8906D01*
X265905Y3906D02*
X263906Y7905D01*
X267905D01*
X265905Y3906D01*
X260906D02*
X258906Y7905D01*
X262906D01*
X260906Y3906D01*
X255906D02*
X253906Y7905D01*
X257906D01*
X255906Y3906D01*
X250905D02*
X248905Y7905D01*
X252906D01*
X250905Y3906D01*
X245905D02*
X243905Y7905D01*
X247905D01*
X245905Y3906D01*
X240905D02*
X238906Y7905D01*
X242905D01*
X240905Y3906D01*
X235906D02*
X233906Y7905D01*
X237906D01*
X235906Y3906D01*
X230906D02*
X228906Y7905D01*
X232906D01*
X230906Y3906D01*
X225905D02*
X223905Y7905D01*
X227906D01*
X225905Y3906D01*
X220905D02*
X218905Y7905D01*
X222905D01*
X220905Y3906D01*
X215905D02*
X213906Y7905D01*
X217905D01*
X215905Y3906D01*
X175906D02*
X173906Y7905D01*
X177905D01*
X175906Y3906D01*
X170905D02*
X168905Y7905D01*
X172906D01*
X170905Y3906D01*
X130905D02*
X128905Y7905D01*
X132905D01*
X130905Y3906D01*
X125906D02*
X123906Y7905D01*
X127905D01*
X125906Y3906D01*
X120905D02*
X118905Y7905D01*
X122906D01*
X120905Y3906D01*
X115905D02*
X113906Y7905D01*
X117905D01*
X115905Y3906D01*
X110906D02*
X108905Y7905D01*
X112906D01*
X110906Y3906D01*
X105905D02*
X103905Y7905D01*
X107905D01*
X105905Y3906D01*
X100906D02*
X98905Y7905D01*
X102905D01*
X100906Y3906D01*
X95906D02*
X93906Y7905D01*
X97905D01*
X95906Y3906D01*
X90905D02*
X88906Y7905D01*
X92905D01*
X90905Y3906D01*
X85905D02*
X83906Y7905D01*
X87906D01*
X85905Y3906D01*
X80905D02*
X78905Y7905D01*
X82906D01*
X80905Y3906D01*
X75906D02*
X73905Y7905D01*
X77905D01*
X75906Y3906D01*
X70906D02*
X68906Y7905D01*
X72905D01*
X70906Y3906D01*
X65905D02*
X63906Y7905D01*
X67905D01*
X65905Y3906D01*
X60905D02*
X58906Y7905D01*
X62906D01*
X60905Y3906D01*
X55905D02*
X53905Y7905D01*
X57906D01*
X55905Y3906D01*
X45906D02*
X43905Y7905D01*
X47905D01*
X45906Y3906D01*
X50906D02*
X48906Y7905D01*
X52905D01*
X50906Y3906D01*
X40905D02*
X38906Y7905D01*
X42906D01*
X40905Y3906D01*
X35906D02*
X33906Y7905D01*
X37905D01*
X35906Y3906D01*
X30906D02*
X28905Y7905D01*
X32906D01*
X30906Y3906D01*
X25905D02*
X23905Y7905D01*
X27905D01*
X25905Y3906D01*
X20906D02*
X18905Y7905D01*
X22906D01*
X20906Y3906D01*
X15905D02*
X13905Y7905D01*
X17906D01*
X15905Y3906D01*
X10905D02*
X8906Y7905D01*
X12905D01*
X10905Y3906D01*
X5906D02*
X3906Y7905D01*
X7905D01*
X5906Y3906D01*
X134449Y68276D02*
X132449Y72276D01*
X136449D01*
X134449Y68276D01*
X241142Y61583D02*
X239142Y65583D01*
X243142D01*
X241142Y61583D01*
X201378Y84806D02*
X199378Y88806D01*
X203378D01*
X201378Y84806D01*
X101969Y42488D02*
X99968Y46488D01*
X103969D01*
X101969Y42488D01*
X95669Y60795D02*
X93669Y64795D01*
X97669D01*
X95669Y60795D01*
X96457Y69905D02*
X94457Y73905D01*
X98457D01*
X96457Y69905D01*
X96653Y78512D02*
X94653Y82512D01*
X98654D01*
X96653Y78512D01*
X130905Y85205D02*
X128905Y89205D01*
X132905D01*
X130905Y85205D01*
X127032Y139795D02*
X125031Y143795D01*
X129032D01*
X127032Y139795D01*
X126532Y155295D02*
X124531Y159295D01*
X128532D01*
X126532Y155295D01*
X217323Y74181D02*
X215323Y78181D01*
X219323D01*
X217323Y74181D01*
X182283Y64142D02*
X180283Y68142D01*
X184283D01*
X182283Y64142D01*
D58*
X145898Y84252D02*
G03*
X145898Y84252I-2000J0D01*
G01*
X117551Y90158D02*
G03*
X117551Y90158I-2000J0D01*
G01*
X73850Y130315D02*
G03*
X73850Y130315I-2000J0D01*
G01*
X205543Y121653D02*
G03*
X205543Y121653I-2000J0D01*
G01*
X188024Y120866D02*
G03*
X188024Y120866I-2000J0D01*
G01*
X58496Y121850D02*
G03*
X58496Y121850I-2000J0D01*
G01*
X159677Y121260D02*
G03*
X159677Y121260I-2000J0D01*
G01*
X188811Y112205D02*
G03*
X188811Y112205I-2000J0D01*
G01*
X103378Y91339D02*
G03*
X103378Y91339I-2000J0D01*
G01*
X151884Y125724D02*
G03*
X151884Y125724I-2000J0D01*
G01*
X175425Y125591D02*
G03*
X175425Y125591I-2000J0D01*
G01*
X64205Y94882D02*
G03*
X64205Y94882I-2000J0D01*
G01*
M02*
