M48
;Layer_Color=9474304
;FILE_FORMAT=2:5
INCH,TZ
;TYPE=PLATED
T01F00S00C0.01200
T02F00S00C0.01600
T03F00S00C0.03937
T04F00S00C0.12598
%
T01
X255906Y5906
X260906
X265905
Y10905
Y15905
Y20906
Y25905
Y30906
Y35906
Y40905
Y45906
Y50906
Y55905
X261221Y52559
Y43307
X219882Y43701
Y53543
X203031Y52795
Y47795
X202031Y42795
X201532Y37795
Y32795
X202031Y27795
X204031Y22795
Y17795
Y12795
Y7795
X210906Y5906
X215905
X220905
X225905
X230906
X235906
X240905
X245905
X250905
X219882Y33661
X194532Y32795
Y37795
X194032Y42795
X192835Y47795
X193032Y52795
X194532Y57795
X201532
X174409Y54055
Y49055
Y44055
Y39055
Y34055
Y29055
Y24055
Y19055
Y14055
Y9055
X175906Y5906
X180905
X185906
X192032Y7795
Y12795
Y17795
Y22795
X194032Y27795
X154984Y27598
X154784Y32598
Y37598
X154984Y42598
X155984Y47598
Y52598
X154484Y57598
X147484
X145984Y52598
Y47598
X146787Y42598
X147184Y37598
Y32598
X146984Y27598
X144984Y22598
Y17598
Y12598
Y7598
X140905Y5906
X135906
X130905
X125906
X120905
X115905
X110906
X105905
X100906
X106032Y25295
X101969Y44488
X156984Y22598
Y17598
Y12598
Y7598
X160906Y5906
X165484Y6098
X170905Y5906
X95906
X90905
X85905
X80905
X75906
X70906
X65905
X60905
X55905
X50906
X45906
X40905
X35906
X30906
X25905
X20906
X15905
X10905
X5906
Y10905
Y15905
Y20906
Y25905
Y30906
Y35906
Y40905
Y45906
Y50906
Y55905
X44032Y15295
X73032Y62795
Y71795
Y80295
Y90795
X96653Y80512
X96457Y71904
X95669Y62795
X75532Y127295
X75906Y170905
X80905
X85905
X90905
X95906
X70906
X65905
X60905
X55905
X50906
X45906
X40905
X35906
X30906
X25905
X20906
X15905
X10905
X5906
Y165905
Y160906
Y155905
Y150906
Y145905
Y140905
Y135906
Y130905
Y125906
Y120905
Y115905
Y110906
Y105905
Y100906
Y95906
Y90905
Y85905
Y80905
Y75906
Y70906
Y65905
Y60905
X134449Y70276
X130905Y87205
X153543Y87598
Y78347
X157984Y80512
X162992Y81102
X168504Y80481
X168307Y74410
X162795Y74016
X158071Y73032
X154484Y67598
Y62598
X147484
X166535Y66142
X174409Y64055
Y59055
Y69055
X179032Y74795
X184031Y74295
X189032
X193032Y71795
Y79795
X188031Y80795
X183031
X177409Y89055
Y93555
Y98055
X172409
Y93555
Y89055
X167409
Y93555
Y98055
X201378Y86806
X197031Y77295
X194532Y62795
X201532
X219882Y63386
X217323Y76181
X228031Y94295
Y105295
Y114795
Y125295
Y134295
Y143795
X225905Y170905
X230906
X235906
X240905
X245905
X250905
X220905
X215905
X210906
X205906
X200905
X195905
X190905
X185906
X180905
X175906
X170905
X165905
X160906
X155905
X150906
X145905
X140905
X135906
X130905
X125906
X120905
X115905
X110906
X105905
X100906
X126532Y157295
X127032Y141795
X184031Y149295
Y158795
X182283Y66142
X241142Y63583
X261221
X265905Y65905
Y60905
Y70906
Y75906
Y80905
Y85905
Y90905
Y95906
Y100906
Y105905
Y110906
Y115905
Y120905
Y125906
Y130905
Y135906
Y140905
Y145905
Y150906
Y155905
Y160906
Y165905
Y170905
X260906
X255906
T02
X62205Y94882
X56496Y121850
X71850Y130315
X101378Y91339
X115551Y90158
X143898Y84252
X149884Y125724
X157677Y121260
X173425Y125591
X186024Y120866
X186811Y112205
X203543Y121653
T03
X24252Y77126
Y87126
X34252
Y97126
Y107126
Y117126
Y127126
X24252
Y117126
Y107126
Y97126
X34252Y77126
T04
X251772Y20472
X20866Y20079
X26772Y150984
X250787Y157677
M30
