G04*
G04 #@! TF.GenerationSoftware,Altium Limited,Altium Designer,24.4.1 (13)*
G04*
G04 Layer_Color=2752767*
%FSLAX25Y25*%
%MOIN*%
G70*
G04*
G04 #@! TF.SameCoordinates,9EAFE7E4-189C-44CB-946A-5F511CB8720B*
G04*
G04*
G04 #@! TF.FilePolarity,Positive*
G04*
G01*
G75*
%ADD10C,0.00500*%
%ADD49C,0.00667*%
D10*
X17347Y27615D02*
X18347Y28615D01*
X19347D01*
X18347Y29615D01*
X19347Y30615D01*
X18347D01*
X17347Y31615D01*
X16347Y30615D01*
X15347D01*
X16347Y29615D01*
X15347Y28615D01*
X16347D01*
X17347Y27615D01*
X276795Y46213D02*
X277795Y47213D01*
X278795D01*
X277795Y48213D01*
X278795Y49213D01*
X277795D01*
X276795Y50213D01*
X275795Y49213D01*
X274795D01*
X275795Y48213D01*
X274795Y47213D01*
X275795D01*
X276795Y46213D01*
X154795Y75213D02*
Y79213D01*
X158795D01*
Y75213D01*
X154795D01*
X164795D02*
Y79213D01*
X168795D01*
Y75213D01*
X164795D01*
X174795D02*
Y79213D01*
X178795D01*
Y75213D01*
X174795D01*
X184795D02*
Y79213D01*
X188795D01*
Y75213D01*
X184795D01*
X164795Y85213D02*
Y89213D01*
X168795D01*
Y85213D01*
X164795D01*
X174795D02*
Y89213D01*
X178795D01*
Y85213D01*
X174795D01*
X184795D02*
Y89213D01*
X188795D01*
Y85213D01*
X184795D01*
X154795D02*
Y89213D01*
X158795D01*
Y85213D01*
X154795D01*
X93295Y41213D02*
Y45213D01*
X97295D01*
Y41213D01*
X93295D01*
Y51213D02*
Y55213D01*
X97295D01*
Y51213D01*
X93295D01*
X103295D02*
Y55213D01*
X107295D01*
Y51213D01*
X103295D01*
Y41213D02*
Y45213D01*
X107295D01*
Y41213D01*
X103295D01*
X286795Y1713D02*
X284795Y5713D01*
X288795D01*
X286795Y1713D01*
X281795D02*
X279795Y5713D01*
X283795D01*
X281795Y1713D01*
X286795Y90713D02*
X284795Y94713D01*
X288795D01*
X286795Y90713D01*
X281795D02*
X279795Y94713D01*
X283795D01*
X281795Y90713D01*
X287732Y6097D02*
X285732Y10097D01*
X289732D01*
X287732Y6097D01*
Y11097D02*
X285732Y15097D01*
X289732D01*
X287732Y11097D01*
Y16097D02*
X285732Y20097D01*
X289732D01*
X287732Y16097D01*
Y21097D02*
X285732Y25097D01*
X289732D01*
X287732Y21097D01*
Y26097D02*
X285732Y30097D01*
X289732D01*
X287732Y26097D01*
Y31097D02*
X285732Y35097D01*
X289732D01*
X287732Y31097D01*
Y36097D02*
X285732Y40097D01*
X289732D01*
X287732Y36097D01*
Y41097D02*
X285732Y45097D01*
X289732D01*
X287732Y41097D01*
Y46097D02*
X285732Y50097D01*
X289732D01*
X287732Y46097D01*
Y51097D02*
X285732Y55097D01*
X289732D01*
X287732Y51097D01*
Y56097D02*
X285732Y60097D01*
X289732D01*
X287732Y56097D01*
Y61097D02*
X285732Y65097D01*
X289732D01*
X287732Y61097D01*
Y66097D02*
X285732Y70097D01*
X289732D01*
X287732Y66097D01*
Y71097D02*
X285732Y75097D01*
X289732D01*
X287732Y71097D01*
Y76097D02*
X285732Y80097D01*
X289732D01*
X287732Y76097D01*
Y81097D02*
X285732Y85097D01*
X289732D01*
X287732Y81097D01*
Y86097D02*
X285732Y90097D01*
X289732D01*
X287732Y86097D01*
X6795Y1713D02*
X4795Y5713D01*
X8795D01*
X6795Y1713D01*
X11795D02*
X9795Y5713D01*
X13795D01*
X11795Y1713D01*
X6795Y90713D02*
X4795Y94713D01*
X8795D01*
X6795Y90713D01*
X11795D02*
X9795Y94713D01*
X13795D01*
X11795Y90713D01*
X3795Y46213D02*
X1795Y50213D01*
X5795D01*
X3795Y46213D01*
Y36213D02*
X1795Y40213D01*
X5795D01*
X3795Y36213D01*
Y26213D02*
X1795Y30213D01*
X5795D01*
X3795Y26213D01*
Y16213D02*
X1795Y20213D01*
X5795D01*
X3795Y16213D01*
Y6213D02*
X1795Y10213D01*
X5795D01*
X3795Y6213D01*
Y41213D02*
X1795Y45213D01*
X5795D01*
X3795Y41213D01*
Y31213D02*
X1795Y35213D01*
X5795D01*
X3795Y31213D01*
Y21213D02*
X1795Y25213D01*
X5795D01*
X3795Y21213D01*
Y11213D02*
X1795Y15213D01*
X5795D01*
X3795Y11213D01*
Y51213D02*
X1795Y55213D01*
X5795D01*
X3795Y51213D01*
Y56213D02*
X1795Y60213D01*
X5795D01*
X3795Y56213D01*
Y61213D02*
X1795Y65213D01*
X5795D01*
X3795Y61213D01*
Y66213D02*
X1795Y70213D01*
X5795D01*
X3795Y66213D01*
Y71213D02*
X1795Y75213D01*
X5795D01*
X3795Y71213D01*
Y76213D02*
X1795Y80213D01*
X5795D01*
X3795Y76213D01*
Y81213D02*
X1795Y85213D01*
X5795D01*
X3795Y81213D01*
Y86213D02*
X1795Y90213D01*
X5795D01*
X3795Y86213D01*
X188295Y58213D02*
X186295Y62213D01*
X190295D01*
X188295Y58213D01*
X179795D02*
X177795Y62213D01*
X181795D01*
X179795Y58213D01*
X188295Y63213D02*
X186295Y67213D01*
X190295D01*
X188295Y63213D01*
X179795D02*
X177795Y67213D01*
X181795D01*
X179795Y63213D01*
X166795Y39713D02*
X164795Y43713D01*
X168795D01*
X166795Y39713D01*
X176295D02*
X174295Y43713D01*
X178295D01*
X176295Y39713D01*
X242095Y35213D02*
X240095Y39213D01*
X244095D01*
X242095Y35213D01*
X246795D02*
X244795Y39213D01*
X248795D01*
X246795Y35213D01*
X51495Y45213D02*
X49495Y49213D01*
X53495D01*
X51495Y45213D01*
X46795D02*
X44795Y49213D01*
X48795D01*
X46795Y45213D01*
X242095Y57513D02*
X240095Y61513D01*
X244095D01*
X242095Y57513D01*
X247348D02*
X245348Y61513D01*
X249348D01*
X247348Y57513D01*
X146795Y41213D02*
X144795Y45213D01*
X148795D01*
X146795Y41213D01*
X142295Y46213D02*
X140295Y50213D01*
X144295D01*
X142295Y46213D01*
X146795Y50213D02*
X144795Y54213D01*
X148795D01*
X146795Y50213D01*
X151295Y46213D02*
X149295Y50213D01*
X153295D01*
X151295Y46213D01*
X146795D02*
X144795Y50213D01*
X148795D01*
X146795Y46213D01*
X207795Y74713D02*
X205795Y78713D01*
X209795D01*
X207795Y74713D01*
X208295Y69713D02*
X206295Y73713D01*
X210295D01*
X208295Y69713D01*
Y64713D02*
X206295Y68713D01*
X210295D01*
X208295Y64713D01*
X201795Y61713D02*
X199795Y65713D01*
X203795D01*
X201795Y61713D01*
Y56713D02*
X199795Y60713D01*
X203795D01*
X201795Y56713D01*
Y51213D02*
X199795Y55213D01*
X203795D01*
X201795Y51213D01*
X205295Y85213D02*
X203295Y89213D01*
X207295D01*
X205295Y85213D01*
Y79713D02*
X203295Y83713D01*
X207295D01*
X205295Y79713D01*
X166795Y60213D02*
X164795Y64213D01*
X168795D01*
X166795Y60213D01*
X157795Y58213D02*
X155795Y62213D01*
X159795D01*
X157795Y58213D01*
X163795Y64213D02*
X161795Y68213D01*
X165795D01*
X163795Y64213D01*
X173795Y63213D02*
X171795Y67213D01*
X175795D01*
X173795Y63213D01*
Y58713D02*
X171795Y62713D01*
X175795D01*
X173795Y58713D01*
X153795Y54213D02*
X151795Y58213D01*
X155795D01*
X153795Y54213D01*
X231295Y41713D02*
X229295Y45713D01*
X233295D01*
X231295Y41713D01*
Y50713D02*
X229295Y54713D01*
X233295D01*
X231295Y50713D01*
X236795Y46213D02*
X234795Y50213D01*
X238795D01*
X236795Y46213D01*
X250795Y51213D02*
X248795Y55213D01*
X252795D01*
X250795Y51213D01*
Y46213D02*
X248795Y50213D01*
X252795D01*
X250795Y46213D01*
X251295Y41713D02*
X249295Y45713D01*
X253295D01*
X251295Y41713D01*
X146795Y55713D02*
X144795Y59713D01*
X148795D01*
X146795Y55713D01*
X150295Y59213D02*
X148295Y63213D01*
X152295D01*
X150295Y59213D01*
X143795Y58713D02*
X141795Y62713D01*
X145795D01*
X143795Y58713D01*
X143295Y35213D02*
X141295Y39213D01*
X145295D01*
X143295Y35213D01*
X150295D02*
X148295Y39213D01*
X152295D01*
X150295Y35213D01*
X146795Y34713D02*
X144795Y38713D01*
X148795D01*
X146795Y34713D01*
X136795Y46213D02*
X134795Y50213D01*
X138795D01*
X136795Y46213D01*
X155795D02*
X153795Y50213D01*
X157795D01*
X155795Y46213D01*
X161295Y51213D02*
X159295Y55213D01*
X163295D01*
X161295Y51213D01*
X159295Y47713D02*
X157295Y51713D01*
X161295D01*
X159295Y47713D01*
Y43213D02*
X157295Y47213D01*
X161295D01*
X159295Y43213D01*
X133795Y48713D02*
X131795Y52713D01*
X135795D01*
X133795Y48713D01*
Y43713D02*
X131795Y47713D01*
X135795D01*
X133795Y43713D01*
X56295Y78713D02*
X54295Y82713D01*
X58295D01*
X56295Y78713D01*
X51795D02*
X49795Y82713D01*
X53795D01*
X51795Y78713D01*
X46795D02*
X44795Y82713D01*
X48795D01*
X46795Y78713D01*
X41295D02*
X39295Y82713D01*
X43295D01*
X41295Y78713D01*
X58295Y53713D02*
X56295Y57713D01*
X60295D01*
X58295Y53713D01*
X41795D02*
X39795Y57713D01*
X43795D01*
X41795Y53713D01*
X40295Y39213D02*
X38295Y43213D01*
X42295D01*
X40295Y39213D01*
X42795Y36213D02*
X40795Y40213D01*
X44795D01*
X42795Y36213D01*
X61795Y39213D02*
X59795Y43213D01*
X63795D01*
X61795Y39213D01*
X56295Y35713D02*
X54295Y39713D01*
X58295D01*
X56295Y35713D01*
X195795Y76213D02*
X193795Y80213D01*
X197795D01*
X195795Y76213D01*
Y71213D02*
X193795Y75213D01*
X197795D01*
X195795Y71213D01*
Y61213D02*
X193795Y65213D01*
X197795D01*
X195795Y61213D01*
Y56213D02*
X193795Y60213D01*
X197795D01*
X195795Y56213D01*
Y51213D02*
X193795Y55213D01*
X197795D01*
X195795Y51213D01*
Y46213D02*
X193795Y50213D01*
X197795D01*
X195795Y46213D01*
Y66213D02*
X193795Y70213D01*
X197795D01*
X195795Y66213D01*
Y83213D02*
X193795Y87213D01*
X197795D01*
X195795Y83213D01*
Y87213D02*
X193795Y91213D01*
X197795D01*
X195795Y87213D01*
X16795Y90713D02*
X14795Y94713D01*
X18795D01*
X16795Y90713D01*
X31795D02*
X29795Y94713D01*
X33795D01*
X31795Y90713D01*
X36795D02*
X34795Y94713D01*
X38795D01*
X36795Y90713D01*
X41795D02*
X39795Y94713D01*
X43795D01*
X41795Y90713D01*
X46795D02*
X44795Y94713D01*
X48795D01*
X46795Y90713D01*
X51795D02*
X49795Y94713D01*
X53795D01*
X51795Y90713D01*
X56795D02*
X54795Y94713D01*
X58795D01*
X56795Y90713D01*
X61795D02*
X59795Y94713D01*
X63795D01*
X61795Y90713D01*
X66795D02*
X64795Y94713D01*
X68795D01*
X66795Y90713D01*
X81795D02*
X79795Y94713D01*
X83795D01*
X81795Y90713D01*
X86795D02*
X84795Y94713D01*
X88795D01*
X86795Y90713D01*
X91795D02*
X89795Y94713D01*
X93795D01*
X91795Y90713D01*
X96795D02*
X94795Y94713D01*
X98795D01*
X96795Y90713D01*
X101795D02*
X99795Y94713D01*
X103795D01*
X101795Y90713D01*
X106795D02*
X104795Y94713D01*
X108795D01*
X106795Y90713D01*
X261795Y1713D02*
X259795Y5713D01*
X263795D01*
X261795Y1713D01*
Y90713D02*
X259795Y94713D01*
X263795D01*
X261795Y90713D01*
X116795D02*
X114795Y94713D01*
X118795D01*
X116795Y90713D01*
X111795D02*
X109795Y94713D01*
X113795D01*
X111795Y90713D01*
X136795D02*
X134795Y94713D01*
X138795D01*
X136795Y90713D01*
X141795D02*
X139795Y94713D01*
X143795D01*
X141795Y90713D01*
X146795D02*
X144795Y94713D01*
X148795D01*
X146795Y90713D01*
X151795D02*
X149795Y94713D01*
X153795D01*
X151795Y90713D01*
X156795D02*
X154795Y94713D01*
X158795D01*
X156795Y90713D01*
X161795D02*
X159795Y94713D01*
X163795D01*
X161795Y90713D01*
X206795D02*
X204795Y94713D01*
X208795D01*
X206795Y90713D01*
X231795D02*
X229795Y94713D01*
X233795D01*
X231795Y90713D01*
X236795D02*
X234795Y94713D01*
X238795D01*
X236795Y90713D01*
X241795D02*
X239795Y94713D01*
X243795D01*
X241795Y90713D01*
X246795D02*
X244795Y94713D01*
X248795D01*
X246795Y90713D01*
X251795D02*
X249795Y94713D01*
X253795D01*
X251795Y90713D01*
X256795D02*
X254795Y94713D01*
X258795D01*
X256795Y90713D01*
X276795D02*
X274795Y94713D01*
X278795D01*
X276795Y90713D01*
X231795Y1713D02*
X229795Y5713D01*
X233795D01*
X231795Y1713D01*
X276795D02*
X274795Y5713D01*
X278795D01*
X276795Y1713D01*
X256795D02*
X254795Y5713D01*
X258795D01*
X256795Y1713D01*
X251795D02*
X249795Y5713D01*
X253795D01*
X251795Y1713D01*
X246795D02*
X244795Y5713D01*
X248795D01*
X246795Y1713D01*
X241795D02*
X239795Y5713D01*
X243795D01*
X241795Y1713D01*
X236795D02*
X234795Y5713D01*
X238795D01*
X236795Y1713D01*
X206795D02*
X204795Y5713D01*
X208795D01*
X206795Y1713D01*
X201795D02*
X199795Y5713D01*
X203795D01*
X201795Y1713D01*
X196795D02*
X194795Y5713D01*
X198795D01*
X196795Y1713D01*
X191795D02*
X189795Y5713D01*
X193795D01*
X191795Y1713D01*
X186795D02*
X184795Y5713D01*
X188795D01*
X186795Y1713D01*
X176795Y1419D02*
X174795Y5418D01*
X178795D01*
X176795Y1419D01*
X181795Y1713D02*
X179795Y5713D01*
X183795D01*
X181795Y1713D01*
X156795D02*
X154795Y5713D01*
X158795D01*
X156795Y1713D01*
X151795D02*
X149795Y5713D01*
X153795D01*
X151795Y1713D01*
X136795D02*
X134795Y5713D01*
X138795D01*
X136795Y1713D01*
X61795D02*
X59795Y5713D01*
X63795D01*
X61795Y1713D01*
X36795D02*
X34795Y5713D01*
X38795D01*
X36795Y1713D01*
X16795D02*
X14795Y5713D01*
X18795D01*
X16795Y1713D01*
X26795D02*
X24795Y5713D01*
X28795D01*
X26795Y1713D01*
X31795D02*
X29795Y5713D01*
X33795D01*
X31795Y1713D01*
X66795D02*
X64795Y5713D01*
X68795D01*
X66795Y1713D01*
X71795D02*
X69795Y5713D01*
X73795D01*
X71795Y1713D01*
X76795D02*
X74795Y5713D01*
X78795D01*
X76795Y1713D01*
X81795D02*
X79795Y5713D01*
X83795D01*
X81795Y1713D01*
X86795D02*
X84795Y5713D01*
X88795D01*
X86795Y1713D01*
X91795D02*
X89795Y5713D01*
X93795D01*
X91795Y1713D01*
X116795D02*
X114795Y5713D01*
X118795D01*
X116795Y1713D01*
X96795D02*
X94795Y5713D01*
X98795D01*
X96795Y1713D01*
X101795D02*
X99795Y5713D01*
X103795D01*
X101795Y1713D01*
X106795D02*
X104795Y5713D01*
X108795D01*
X106795Y1713D01*
X111795D02*
X109795Y5713D01*
X113795D01*
X111795Y1713D01*
X141795D02*
X139795Y5713D01*
X143795D01*
X141795Y1713D01*
X146795D02*
X144795Y5713D01*
X148795D01*
X146795Y1713D01*
X21795D02*
X19795Y5713D01*
X23795D01*
X21795Y1713D01*
X55795Y58212D02*
X53795Y62212D01*
X57795D01*
X55795Y58212D01*
X70295Y62213D02*
X68295Y66213D01*
X72295D01*
X70295Y62213D01*
X77295Y57213D02*
X75295Y61213D01*
X79295D01*
X77295Y57213D01*
Y62213D02*
X75295Y66213D01*
X79295D01*
X77295Y62213D01*
X172595Y7713D02*
X170595Y11713D01*
X174595D01*
X172595Y7713D01*
Y12713D02*
X170595Y16713D01*
X174595D01*
X172595Y12713D01*
Y17713D02*
X170595Y21713D01*
X174595D01*
X172595Y17713D01*
X170295Y22713D02*
X168295Y26713D01*
X172295D01*
X170295Y22713D01*
X169195Y27513D02*
X167195Y31513D01*
X171195D01*
X169195Y27513D01*
X166395Y31613D02*
X164395Y35613D01*
X168395D01*
X166395Y31613D01*
X162795Y35213D02*
X160795Y39213D01*
X164795D01*
X162795Y35213D01*
X159295Y38713D02*
X157295Y42713D01*
X161295D01*
X159295Y38713D01*
X160995Y7713D02*
X158995Y11713D01*
X162995D01*
X160995Y7713D01*
Y12713D02*
X158995Y16713D01*
X162995D01*
X160995Y12713D01*
Y17713D02*
X158995Y21713D01*
X162995D01*
X160995Y17713D01*
X163295Y22713D02*
X161295Y26713D01*
X165295D01*
X163295Y22713D01*
X160895Y27013D02*
X158895Y31013D01*
X162895D01*
X160895Y27013D01*
X157395Y30513D02*
X155395Y34513D01*
X159395D01*
X157395Y30513D01*
X153895Y34113D02*
X151895Y38113D01*
X155895D01*
X153895Y34113D01*
X139695D02*
X137695Y38113D01*
X141695D01*
X139695Y34113D01*
X136195Y30513D02*
X134195Y34513D01*
X138195D01*
X136195Y30513D01*
X132695Y27013D02*
X130695Y31013D01*
X134695D01*
X132695Y27013D01*
X130295Y22713D02*
X128295Y26713D01*
X132295D01*
X130295Y22713D01*
X132595Y17713D02*
X130595Y21713D01*
X134595D01*
X132595Y17713D01*
Y12713D02*
X130595Y16713D01*
X134595D01*
X132595Y12713D01*
Y7713D02*
X130595Y11713D01*
X134595D01*
X132595Y7713D01*
X134295Y38713D02*
X132295Y42713D01*
X136295D01*
X134295Y38713D01*
X130795Y35213D02*
X128795Y39213D01*
X132795D01*
X130795Y35213D01*
X127195Y31613D02*
X125195Y35613D01*
X129195D01*
X127195Y31613D01*
X124395Y27513D02*
X122395Y31513D01*
X126395D01*
X124395Y27513D01*
X123295Y22713D02*
X121295Y26713D01*
X125295D01*
X123295Y22713D01*
X120995Y17713D02*
X118995Y21713D01*
X122995D01*
X120995Y17713D01*
Y12713D02*
X118995Y16713D01*
X122995D01*
X120995Y12713D01*
Y7713D02*
X118995Y11713D01*
X122995D01*
X120995Y7713D01*
X123295Y70213D02*
X121295Y74213D01*
X125295D01*
X123295Y70213D01*
X124395Y64813D02*
X122395Y68813D01*
X126395D01*
X124395Y64813D01*
X120995Y79713D02*
X118995Y83713D01*
X122995D01*
X120995Y79713D01*
X132595D02*
X130595Y83713D01*
X134595D01*
X132595Y79713D01*
Y84713D02*
X130595Y88713D01*
X134595D01*
X132595Y84713D01*
X120995D02*
X118995Y88713D01*
X122995D01*
X120995Y84713D01*
X43995Y12713D02*
X41995Y16713D01*
X45995D01*
X43995Y12713D01*
Y7713D02*
X41995Y11713D01*
X45995D01*
X43995Y7713D01*
Y2713D02*
X41995Y6713D01*
X45995D01*
X43995Y2713D01*
X55595D02*
X53595Y6713D01*
X57595D01*
X55595Y2713D01*
Y7713D02*
X53595Y11713D01*
X57595D01*
X55595Y7713D01*
Y12713D02*
X53595Y16713D01*
X57595D01*
X55595Y12713D01*
X19795Y87213D02*
X17795Y91213D01*
X21795D01*
X19795Y87213D01*
Y82213D02*
X17795Y86213D01*
X21795D01*
X19795Y82213D01*
X31795Y87213D02*
X29795Y91213D01*
X33795D01*
X31795Y87213D01*
X79795D02*
X77795Y91213D01*
X81795D01*
X79795Y87213D01*
Y82213D02*
X77795Y86213D01*
X81795D01*
X79795Y82213D01*
X67795Y87213D02*
X65795Y91213D01*
X69795D01*
X67795Y87213D01*
Y82213D02*
X65795Y86213D01*
X69795D01*
X67795Y82213D01*
X31795D02*
X29795Y86213D01*
X33795D01*
X31795Y82213D01*
X254395Y30913D02*
X252395Y34913D01*
X256395D01*
X254395Y30913D01*
X255595Y37813D02*
X253595Y41813D01*
X257595D01*
X255595Y37813D01*
X260595Y37513D02*
X258595Y41513D01*
X262595D01*
X260595Y37513D01*
X265195Y35613D02*
X263195Y39613D01*
X267195D01*
X265195Y35613D01*
X268795Y32213D02*
X266795Y36213D01*
X270795D01*
X268795Y32213D01*
X270895Y27713D02*
X268895Y31713D01*
X272895D01*
X270895Y27713D01*
X271295Y22713D02*
X269295Y26713D01*
X273295D01*
X271295Y22713D01*
X273595Y17713D02*
X271595Y21713D01*
X275595D01*
X273595Y17713D01*
Y12713D02*
X271595Y16713D01*
X275595D01*
X273595Y12713D01*
X273795Y7713D02*
X271795Y11713D01*
X275795D01*
X273795Y7713D01*
X273595Y2713D02*
X271595Y6713D01*
X275595D01*
X273595Y2713D01*
X259395Y30413D02*
X257395Y34413D01*
X261395D01*
X259395Y30413D01*
X263295Y27513D02*
X261295Y31513D01*
X265295D01*
X263295Y27513D01*
X264295Y22713D02*
X262295Y26713D01*
X266295D01*
X264295Y22713D01*
X261995Y17713D02*
X259995Y21713D01*
X263995D01*
X261995Y17713D01*
Y12713D02*
X259995Y16713D01*
X263995D01*
X261995Y12713D01*
Y7713D02*
X259995Y11713D01*
X263995D01*
X261995Y7713D01*
X213995Y2713D02*
X211995Y6713D01*
X215995D01*
X213995Y2713D01*
X225595D02*
X223595Y6713D01*
X227595D01*
X225595Y2713D01*
X216295Y22713D02*
X214295Y26713D01*
X218295D01*
X216295Y22713D01*
X216695Y27713D02*
X214695Y31713D01*
X218695D01*
X216695Y27713D01*
X213995Y17713D02*
X211995Y21713D01*
X215995D01*
X213995Y17713D01*
X233195Y30913D02*
X231195Y34913D01*
X235195D01*
X233195Y30913D01*
X228195Y30413D02*
X226195Y34413D01*
X230195D01*
X228195Y30413D01*
X224295Y27513D02*
X222295Y31513D01*
X226295D01*
X224295Y27513D01*
X223295Y22713D02*
X221295Y26713D01*
X225295D01*
X223295Y22713D01*
X225595Y17713D02*
X223595Y21713D01*
X227595D01*
X225595Y17713D01*
Y12713D02*
X223595Y16713D01*
X227595D01*
X225595Y12713D01*
Y7713D02*
X223595Y11713D01*
X227595D01*
X225595Y7713D01*
X231995Y37813D02*
X229995Y41813D01*
X233995D01*
X231995Y37813D01*
X226995Y37513D02*
X224995Y41513D01*
X228995D01*
X226995Y37513D01*
X222395Y35613D02*
X220395Y39613D01*
X224395D01*
X222395Y35613D01*
X218795Y32213D02*
X216795Y36213D01*
X220795D01*
X218795Y32213D01*
X213995Y12713D02*
X211995Y16713D01*
X215995D01*
X213995Y12713D01*
Y7713D02*
X211995Y11713D01*
X215995D01*
X213995Y7713D01*
X64295Y32213D02*
X62295Y36213D01*
X66295D01*
X64295Y32213D01*
X213995Y89713D02*
X211995Y93713D01*
X215995D01*
X213995Y89713D01*
X225595D02*
X223595Y93713D01*
X227595D01*
X225595Y89713D01*
X216695Y64713D02*
X214695Y68713D01*
X218695D01*
X216695Y64713D01*
X216295Y69713D02*
X214295Y73713D01*
X218295D01*
X216295Y69713D01*
X224295Y64913D02*
X222295Y68913D01*
X226295D01*
X224295Y64913D01*
X233195Y61513D02*
X231195Y65513D01*
X235195D01*
X233195Y61513D01*
X228195Y62013D02*
X226195Y66013D01*
X230195D01*
X228195Y62013D01*
X223295Y69713D02*
X221295Y73713D01*
X225295D01*
X223295Y69713D01*
X231995Y54613D02*
X229995Y58613D01*
X233995D01*
X231995Y54613D01*
X226995Y54913D02*
X224995Y58913D01*
X228995D01*
X226995Y54913D01*
X222395Y56813D02*
X220395Y60813D01*
X224395D01*
X222395Y56813D01*
X218795Y60213D02*
X216795Y64213D01*
X220795D01*
X218795Y60213D01*
X225595Y74713D02*
X223595Y78713D01*
X227595D01*
X225595Y74713D01*
Y79713D02*
X223595Y83713D01*
X227595D01*
X225595Y79713D01*
Y84713D02*
X223595Y88713D01*
X227595D01*
X225595Y84713D01*
X213995D02*
X211995Y88713D01*
X215995D01*
X213995Y84713D01*
Y79713D02*
X211995Y83713D01*
X215995D01*
X213995Y79713D01*
Y74713D02*
X211995Y78713D01*
X215995D01*
X213995Y74713D01*
X254395Y61513D02*
X252395Y65513D01*
X256395D01*
X254395Y61513D01*
X259395Y62013D02*
X257395Y66013D01*
X261395D01*
X259395Y62013D01*
X263295Y64913D02*
X261295Y68913D01*
X265295D01*
X263295Y64913D01*
X264295Y69713D02*
X262295Y73713D01*
X266295D01*
X264295Y69713D01*
X261995Y74713D02*
X259995Y78713D01*
X263995D01*
X261995Y74713D01*
Y79713D02*
X259995Y83713D01*
X263995D01*
X261995Y79713D01*
Y84713D02*
X259995Y88713D01*
X263995D01*
X261995Y84713D01*
X255595Y54613D02*
X253595Y58613D01*
X257595D01*
X255595Y54613D01*
X260595Y54913D02*
X258595Y58913D01*
X262595D01*
X260595Y54913D01*
X265195Y56813D02*
X263195Y60813D01*
X267195D01*
X265195Y56813D01*
X268795Y60213D02*
X266795Y64213D01*
X270795D01*
X268795Y60213D01*
X273595Y74713D02*
X271595Y78713D01*
X275595D01*
X273595Y74713D01*
X270895Y64713D02*
X268895Y68713D01*
X272895D01*
X270895Y64713D01*
X271295Y69713D02*
X269295Y73713D01*
X273295D01*
X271295Y69713D01*
X273595Y79713D02*
X271595Y83713D01*
X275595D01*
X273595Y79713D01*
Y84713D02*
X271595Y88713D01*
X275595D01*
X273595Y84713D01*
X46295Y22713D02*
X44295Y26713D01*
X48295D01*
X46295Y22713D01*
Y27713D02*
X44295Y31713D01*
X48295D01*
X46295Y27713D01*
Y32713D02*
X44295Y36713D01*
X48295D01*
X46295Y32713D01*
X43995Y17713D02*
X41995Y21713D01*
X45995D01*
X43995Y17713D01*
X53295Y32713D02*
X51295Y36713D01*
X55295D01*
X53295Y32713D01*
Y27713D02*
X51295Y31713D01*
X55295D01*
X53295Y27713D01*
Y22713D02*
X51295Y26713D01*
X55295D01*
X53295Y22713D01*
X55595Y17713D02*
X53595Y21713D01*
X57595D01*
X55595Y17713D01*
X59695Y49413D02*
X57695Y53413D01*
X61695D01*
X59695Y49413D01*
X39695D02*
X37695Y53413D01*
X41695D01*
X39695Y49413D01*
X34695Y49813D02*
X32695Y53813D01*
X36695D01*
X34695Y49813D01*
X30595Y52513D02*
X28595Y56513D01*
X32595D01*
X30595Y52513D01*
X38495Y42713D02*
X36495Y46713D01*
X40495D01*
X38495Y42713D01*
X33495Y42813D02*
X31495Y46813D01*
X35495D01*
X33495Y42813D01*
X28895Y44613D02*
X26895Y48613D01*
X30895D01*
X28895Y44613D01*
X21295Y72213D02*
X19295Y76213D01*
X23295D01*
X21295Y72213D01*
X30295D02*
X28295Y76213D01*
X32295D01*
X30295Y72213D01*
X19795Y77213D02*
X17795Y81213D01*
X21795D01*
X19795Y77213D01*
X31795D02*
X29795Y81213D01*
X33795D01*
X31795Y77213D01*
X22295Y67213D02*
X20295Y71213D01*
X24295D01*
X22295Y67213D01*
Y62213D02*
X20295Y66213D01*
X24295D01*
X22295Y62213D01*
Y57213D02*
X20295Y61213D01*
X24295D01*
X22295Y57213D01*
X29295D02*
X27295Y61213D01*
X31295D01*
X29295Y57213D01*
Y62213D02*
X27295Y66213D01*
X31295D01*
X29295Y62213D01*
Y67213D02*
X27295Y71213D01*
X31295D01*
X29295Y67213D01*
X61095Y42613D02*
X59095Y46613D01*
X63095D01*
X61095Y42613D01*
X70695Y44613D02*
X68695Y48613D01*
X72695D01*
X70695Y44613D01*
X66095Y42813D02*
X64095Y46813D01*
X68095D01*
X66095Y42813D01*
X64695Y49813D02*
X62695Y53813D01*
X66695D01*
X64695Y49813D01*
X76795Y52313D02*
X74795Y56313D01*
X78795D01*
X76795Y52313D01*
X74495Y47813D02*
X72495Y51813D01*
X76495D01*
X74495Y47813D01*
X79795Y77213D02*
X77795Y81213D01*
X81795D01*
X79795Y77213D01*
X67795D02*
X65795Y81213D01*
X69795D01*
X67795Y77213D01*
X78295Y72213D02*
X76295Y76213D01*
X80295D01*
X78295Y72213D01*
X69295D02*
X67295Y76213D01*
X71295D01*
X69295Y72213D01*
X77295Y67213D02*
X75295Y71213D01*
X79295D01*
X77295Y67213D01*
X70295D02*
X68295Y71213D01*
X72295D01*
X70295Y67213D01*
Y57213D02*
X68295Y61213D01*
X72295D01*
X70295Y57213D01*
X68895Y52413D02*
X66895Y56413D01*
X70895D01*
X68895Y52413D01*
X246545Y46213D02*
X244545Y50213D01*
X248545D01*
X246545Y46213D01*
X241045D02*
X239045Y50213D01*
X243045D01*
X241045Y46213D01*
X127195Y60813D02*
X125195Y64813D01*
X129195D01*
X127195Y60813D01*
X130795Y57213D02*
X128795Y61213D01*
X132795D01*
X130795Y57213D01*
X134295Y53713D02*
X132295Y57713D01*
X136295D01*
X134295Y53713D01*
X139695Y58313D02*
X137695Y62313D01*
X141695D01*
X139695Y58313D01*
X136195Y61913D02*
X134195Y65913D01*
X138195D01*
X136195Y61913D01*
X132695Y65413D02*
X130695Y69413D01*
X134695D01*
X132695Y65413D01*
X130295Y70213D02*
X128295Y74213D01*
X132295D01*
X130295Y70213D01*
X132595Y74713D02*
X130595Y78713D01*
X134595D01*
X132595Y74713D01*
X120995D02*
X118995Y78713D01*
X122995D01*
X120995Y74713D01*
X25095Y47813D02*
X23095Y51813D01*
X27095D01*
X25095Y47813D01*
X22795Y52313D02*
X20795Y56313D01*
X24795D01*
X22795Y52313D01*
D49*
X61795Y66713D02*
G03*
X61795Y66713I-2000J0D01*
G01*
X207295Y69213D02*
G03*
X207295Y69213I-2000J0D01*
G01*
X233795Y48213D02*
G03*
X233795Y48213I-2000J0D01*
G01*
X151674Y66713D02*
G03*
X151674Y66713I-2000J0D01*
G01*
X47795Y59713D02*
G03*
X47795Y59713I-2000J0D01*
G01*
X168795Y58213D02*
G03*
X168795Y58213I-2000J0D01*
G01*
X207295Y22213D02*
G03*
X207295Y22213I-2000J0D01*
G01*
Y27213D02*
G03*
X207295Y27213I-2000J0D01*
G01*
X236295Y22213D02*
G03*
X236295Y22213I-2000J0D01*
G01*
X207295Y74213D02*
G03*
X207295Y74213I-2000J0D01*
G01*
X236295D02*
G03*
X236295Y74213I-2000J0D01*
G01*
X239795Y24213D02*
G03*
X239795Y24213I-2000J0D01*
G01*
X241795Y72213D02*
G03*
X241795Y72213I-2000J0D01*
G01*
X251795Y72713D02*
G03*
X251795Y72713I-2000J0D01*
G01*
X249795Y24213D02*
G03*
X249795Y24213I-2000J0D01*
G01*
M02*
