G04*
G04 #@! TF.GenerationSoftware,Altium Limited,Altium Designer,24.4.1 (13)*
G04*
G04 Layer_Physical_Order=2*
G04 Layer_Color=16711680*
%FSLAX25Y25*%
%MOIN*%
G70*
G04*
G04 #@! TF.SameCoordinates,9EAFE7E4-189C-44CB-946A-5F511CB8720B*
G04*
G04*
G04 #@! TF.FilePolarity,Positive*
G04*
G01*
G75*
%ADD37R,0.07000X0.16000*%
%ADD38R,0.05906X0.05118*%
%ADD40C,0.01000*%
%ADD41C,0.00700*%
%ADD43C,0.08661*%
%ADD44C,0.07087*%
%ADD45R,0.07087X0.07087*%
%ADD46R,0.07087X0.07087*%
%ADD47C,0.02400*%
%ADD48C,0.02600*%
G36*
X290348Y1275D02*
X1275Y1275D01*
Y95226D01*
X290348Y95226D01*
Y1275D01*
D02*
G37*
%LPC*%
G36*
X251848Y89612D02*
X249795D01*
Y87953D01*
X251848D01*
Y89612D01*
D02*
G37*
G36*
X242848D02*
X240795D01*
Y87953D01*
X242848D01*
Y89612D01*
D02*
G37*
G36*
X237795D02*
X235742D01*
Y87953D01*
X237795D01*
Y89612D01*
D02*
G37*
G36*
X246795D02*
X244742D01*
Y87953D01*
X246795D01*
Y89612D01*
D02*
G37*
G36*
X251848Y84953D02*
X249795D01*
Y83294D01*
X251848D01*
Y84953D01*
D02*
G37*
G36*
X246795D02*
X244742D01*
Y83294D01*
X246795D01*
Y84953D01*
D02*
G37*
G36*
X242848D02*
X240795D01*
Y83294D01*
X242848D01*
Y84953D01*
D02*
G37*
G36*
X237795D02*
X235742D01*
Y83294D01*
X237795D01*
Y84953D01*
D02*
G37*
G36*
X177341Y91356D02*
X176250D01*
X175196Y91074D01*
X174251Y90528D01*
X173480Y89757D01*
X172934Y88812D01*
X172652Y87758D01*
Y86667D01*
X172934Y85613D01*
X173480Y84669D01*
X174251Y83897D01*
X175196Y83352D01*
X176250Y83069D01*
X177341D01*
X178394Y83352D01*
X179339Y83897D01*
X180111Y84669D01*
X180656Y85613D01*
X180939Y86667D01*
Y87758D01*
X180656Y88812D01*
X180111Y89757D01*
X179339Y90528D01*
X178394Y91074D01*
X177341Y91356D01*
D02*
G37*
G36*
X167341D02*
X166250D01*
X165196Y91074D01*
X164251Y90528D01*
X163480Y89757D01*
X162934Y88812D01*
X162652Y87758D01*
Y86667D01*
X162934Y85613D01*
X163480Y84669D01*
X164251Y83897D01*
X165196Y83352D01*
X166250Y83069D01*
X167341D01*
X168394Y83352D01*
X169339Y83897D01*
X170111Y84669D01*
X170656Y85613D01*
X170939Y86667D01*
Y87758D01*
X170656Y88812D01*
X170111Y89757D01*
X169339Y90528D01*
X168394Y91074D01*
X167341Y91356D01*
D02*
G37*
G36*
X160939D02*
X152652D01*
Y88334D01*
X149674D01*
X149244Y88249D01*
X148881Y88006D01*
X148638Y87642D01*
X148552Y87213D01*
Y68278D01*
X148063Y67789D01*
X147774Y67090D01*
Y66335D01*
X148063Y65636D01*
X148598Y65102D01*
X149296Y64813D01*
X150052D01*
X150750Y65102D01*
X151285Y65636D01*
X151574Y66335D01*
Y67090D01*
X151285Y67789D01*
X150795Y68278D01*
Y86091D01*
X152652D01*
Y83069D01*
X160939D01*
Y91356D01*
D02*
G37*
G36*
X57348Y78112D02*
X55295D01*
Y76453D01*
X57348D01*
Y78112D01*
D02*
G37*
G36*
X48848D02*
X46795D01*
Y76453D01*
X48848D01*
Y78112D01*
D02*
G37*
G36*
X43795D02*
X41743D01*
Y76453D01*
X43795D01*
Y78112D01*
D02*
G37*
G36*
X52295D02*
X50243D01*
Y76453D01*
X52295D01*
Y78112D01*
D02*
G37*
G36*
X251848Y82131D02*
X244742D01*
Y75834D01*
X242848D01*
Y82131D01*
X235742D01*
Y76270D01*
X235693Y76210D01*
X235142Y75918D01*
X234673Y76113D01*
X233917D01*
X233219Y75823D01*
X232684Y75289D01*
X232640Y75181D01*
X206951D01*
X206906Y75289D01*
X206371Y75823D01*
X205673Y76113D01*
X204917D01*
X204219Y75823D01*
X203684Y75289D01*
X203395Y74590D01*
Y73835D01*
X203684Y73136D01*
X204219Y72602D01*
X204917Y72313D01*
X205673D01*
X206371Y72602D01*
X206906Y73136D01*
X206951Y73244D01*
X232640D01*
X232684Y73136D01*
X233219Y72602D01*
X233917Y72313D01*
X234673D01*
X235227Y72542D01*
X235827Y72273D01*
Y70181D01*
X206951D01*
X206906Y70289D01*
X206371Y70823D01*
X205673Y71113D01*
X204917D01*
X204219Y70823D01*
X203684Y70289D01*
X203395Y69591D01*
Y68835D01*
X203684Y68136D01*
X204219Y67602D01*
X204917Y67313D01*
X205673D01*
X206371Y67602D01*
X206906Y68136D01*
X206951Y68244D01*
X236795D01*
X237166Y68318D01*
X237480Y68528D01*
X237690Y68842D01*
X237764Y69213D01*
Y70324D01*
X238364Y70624D01*
X238621Y70430D01*
Y63900D01*
X238621Y63900D01*
X238621Y63900D01*
Y56616D01*
X232118Y50113D01*
X231417D01*
X230719Y49823D01*
X230185Y49289D01*
X229895Y48590D01*
Y47835D01*
X230185Y47136D01*
X230719Y46602D01*
X231417Y46313D01*
X232121D01*
X238621Y39813D01*
Y37394D01*
X238599D01*
X238623Y37271D01*
X238645Y36804D01*
X238645Y36804D01*
X238645Y36807D01*
X238645Y36804D01*
X238674Y32709D01*
Y32472D01*
X238759Y32043D01*
X239002Y31679D01*
X239366Y31436D01*
X239795Y31351D01*
X240243D01*
Y29313D01*
X246674D01*
Y25778D01*
X246184Y25289D01*
X245895Y24590D01*
Y23835D01*
X246061Y23434D01*
X245703Y22834D01*
X240260D01*
X239568Y23526D01*
X239695Y23835D01*
Y24590D01*
X239406Y25289D01*
X238872Y25823D01*
X238173Y26113D01*
X237765D01*
X235980Y27898D01*
X235666Y28108D01*
X235295Y28181D01*
X206951D01*
X206906Y28289D01*
X206371Y28823D01*
X205673Y29113D01*
X204917D01*
X204219Y28823D01*
X203684Y28289D01*
X203395Y27591D01*
Y26835D01*
X203684Y26136D01*
X204219Y25602D01*
X204917Y25313D01*
X205673D01*
X206371Y25602D01*
X206906Y26136D01*
X206951Y26244D01*
X234894D01*
X236086Y25052D01*
X235895Y24590D01*
Y24148D01*
X235625Y23981D01*
X235295Y23855D01*
X234673Y24113D01*
X233917D01*
X233219Y23823D01*
X232684Y23289D01*
X232640Y23181D01*
X206951D01*
X206906Y23289D01*
X206371Y23823D01*
X205673Y24113D01*
X204917D01*
X204219Y23823D01*
X203684Y23289D01*
X203395Y22591D01*
Y21835D01*
X203684Y21136D01*
X204219Y20602D01*
X204917Y20313D01*
X205673D01*
X206371Y20602D01*
X206906Y21136D01*
X206951Y21244D01*
X232640D01*
X232684Y21136D01*
X233219Y20602D01*
X233917Y20313D01*
X234673D01*
X235371Y20602D01*
X235906Y21136D01*
X236195Y21835D01*
Y22277D01*
X236465Y22445D01*
X236795Y22570D01*
X237417Y22313D01*
X237609D01*
X238674Y21248D01*
Y20612D01*
X236243D01*
Y14294D01*
X243348D01*
Y20591D01*
X244742D01*
Y14294D01*
X251848D01*
Y20612D01*
X249417D01*
Y21713D01*
X249331Y22142D01*
X249088Y22506D01*
X249060Y22791D01*
X249406Y23136D01*
X249695Y23835D01*
Y24590D01*
X249406Y25289D01*
X248917Y25778D01*
Y32472D01*
X248832Y32902D01*
X248588Y33266D01*
X248224Y33509D01*
X247795Y33594D01*
X247348D01*
Y35631D01*
X240896D01*
X240891Y36368D01*
X241314Y36794D01*
X242295D01*
Y39953D01*
Y43112D01*
X240243D01*
Y42148D01*
X239688Y41918D01*
X233695Y47911D01*
Y48518D01*
X239688Y54511D01*
X240243Y54281D01*
Y53313D01*
X242295D01*
Y56472D01*
Y59632D01*
X240864D01*
Y60794D01*
X247348D01*
Y67112D01*
X240864D01*
Y70599D01*
X240872Y70602D01*
X241406Y71136D01*
X241695Y71835D01*
Y72591D01*
X241529Y72991D01*
X241888Y73591D01*
X247453D01*
X247895Y73090D01*
Y72335D01*
X248184Y71636D01*
X248719Y71102D01*
X249417Y70813D01*
X250173D01*
X250871Y71102D01*
X251406Y71636D01*
X251695Y72335D01*
Y73090D01*
X251406Y73789D01*
X250871Y74323D01*
X250173Y74613D01*
X249981D01*
X249417Y75177D01*
Y75813D01*
X251848D01*
Y82131D01*
D02*
G37*
G36*
X167341Y81356D02*
X166250D01*
X165196Y81073D01*
X164251Y80528D01*
X163480Y79757D01*
X162934Y78812D01*
X162652Y77758D01*
Y76667D01*
X162934Y75613D01*
X163480Y74669D01*
X164251Y73897D01*
X165196Y73352D01*
X166250Y73069D01*
X167341D01*
X168394Y73352D01*
X169339Y73897D01*
X170111Y74669D01*
X170656Y75613D01*
X170939Y76667D01*
Y77758D01*
X170656Y78812D01*
X170111Y79757D01*
X169339Y80528D01*
X168394Y81073D01*
X167341Y81356D01*
D02*
G37*
G36*
X57348Y73453D02*
X55295D01*
Y71794D01*
X57348D01*
Y73453D01*
D02*
G37*
G36*
X52295D02*
X50243D01*
Y71794D01*
X52295D01*
Y73453D01*
D02*
G37*
G36*
X48848D02*
X46795D01*
Y71794D01*
X48848D01*
Y73453D01*
D02*
G37*
G36*
X43795D02*
X41743D01*
Y71794D01*
X43795D01*
Y73453D01*
D02*
G37*
G36*
X57348Y70631D02*
X50243D01*
Y64313D01*
X49951Y63834D01*
X49140D01*
X48848Y64313D01*
Y70631D01*
X41743D01*
Y64313D01*
X44174D01*
Y62713D01*
X44259Y62283D01*
X44502Y61919D01*
X44536Y61897D01*
X44579Y61761D01*
X44567Y61171D01*
X44184Y60789D01*
X43895Y60091D01*
Y59335D01*
X44184Y58636D01*
X44674Y58147D01*
Y51953D01*
X44759Y51524D01*
X45002Y51160D01*
X45366Y50917D01*
X45795Y50831D01*
X46242D01*
Y48794D01*
X52826D01*
Y47631D01*
X51295D01*
Y44472D01*
Y41313D01*
X53348D01*
Y42351D01*
X53898Y42592D01*
X59518Y37404D01*
X62495Y34427D01*
Y33855D01*
X62769Y33193D01*
X63276Y32687D01*
X63937Y32413D01*
X64653D01*
X65315Y32687D01*
X65821Y33193D01*
X66095Y33855D01*
Y34571D01*
X65821Y35232D01*
X65315Y35739D01*
X64653Y36013D01*
X64081D01*
X61088Y39006D01*
X61069Y39018D01*
X61056Y39037D01*
X55070Y44563D01*
Y51953D01*
X54984Y52382D01*
X54741Y52746D01*
X54377Y52989D01*
X53948Y53074D01*
X53348D01*
Y55112D01*
X46917D01*
Y58147D01*
X47406Y58636D01*
X47695Y59335D01*
Y60091D01*
X47406Y60789D01*
X47204Y60991D01*
X47452Y61591D01*
X53844D01*
X54169Y60991D01*
X53995Y60570D01*
Y59854D01*
X54269Y59193D01*
X54775Y58686D01*
X55437Y58412D01*
X56153D01*
X56815Y58686D01*
X57321Y59193D01*
X57595Y59854D01*
Y60570D01*
X57358Y61144D01*
X57497Y61500D01*
X57658Y61744D01*
X59894D01*
X60610Y61028D01*
X60925Y60818D01*
X61295Y60744D01*
X94327D01*
Y57243D01*
X93696Y57073D01*
X92751Y56528D01*
X91980Y55757D01*
X91434Y54812D01*
X91152Y53758D01*
Y52667D01*
X91434Y51613D01*
X91980Y50669D01*
X92751Y49897D01*
X93696Y49352D01*
X94750Y49069D01*
X95841D01*
X96895Y49352D01*
X97839Y49897D01*
X98611Y50669D01*
X99156Y51613D01*
X99439Y52667D01*
Y53758D01*
X99156Y54812D01*
X98611Y55757D01*
X97839Y56528D01*
X96895Y57073D01*
X96264Y57243D01*
Y61713D01*
X96190Y62083D01*
X95980Y62397D01*
X95666Y62608D01*
X95295Y62681D01*
X61696D01*
X60980Y63398D01*
X60666Y63608D01*
X60295Y63681D01*
X56903D01*
X56825Y63805D01*
X57085Y64313D01*
X57348D01*
Y66088D01*
X57948Y66207D01*
X58184Y65636D01*
X58719Y65102D01*
X59417Y64813D01*
X60173D01*
X60871Y65102D01*
X61406Y65636D01*
X61451Y65744D01*
X104327D01*
Y57243D01*
X103696Y57073D01*
X102751Y56528D01*
X101980Y55757D01*
X101434Y54812D01*
X101152Y53758D01*
Y52667D01*
X101434Y51613D01*
X101980Y50669D01*
X102751Y49897D01*
X103696Y49352D01*
X104750Y49069D01*
X105841D01*
X106895Y49352D01*
X107839Y49897D01*
X108611Y50669D01*
X109156Y51613D01*
X109439Y52667D01*
Y53758D01*
X109156Y54812D01*
X108611Y55757D01*
X107839Y56528D01*
X106895Y57073D01*
X106264Y57243D01*
Y66713D01*
X106190Y67083D01*
X105980Y67397D01*
X105666Y67607D01*
X105295Y67681D01*
X61451D01*
X61406Y67789D01*
X60871Y68323D01*
X60173Y68613D01*
X59417D01*
X58719Y68323D01*
X58184Y67789D01*
X57948Y67218D01*
X57348Y67337D01*
Y70631D01*
D02*
G37*
G36*
X177341Y81356D02*
X176250D01*
X175196Y81073D01*
X174251Y80528D01*
X173480Y79757D01*
X172934Y78812D01*
X172652Y77758D01*
Y76667D01*
X172934Y75613D01*
X173480Y74669D01*
X174251Y73897D01*
X175174Y73365D01*
Y59334D01*
X168361D01*
X167871Y59823D01*
X167173Y60113D01*
X166417D01*
X165719Y59823D01*
X165184Y59289D01*
X164895Y58591D01*
Y57835D01*
X165184Y57136D01*
X165674Y56647D01*
Y55112D01*
X163242D01*
Y48794D01*
X170348D01*
Y55112D01*
X167917D01*
Y56647D01*
X168361Y57091D01*
X175174D01*
Y55112D01*
X172742D01*
Y48794D01*
X179848D01*
Y55112D01*
X177417D01*
Y58213D01*
Y73090D01*
X178394Y73352D01*
X179339Y73897D01*
X180111Y74669D01*
X180656Y75613D01*
X180939Y76667D01*
Y77758D01*
X180656Y78812D01*
X180111Y79757D01*
X179339Y80528D01*
X178394Y81073D01*
X177341Y81356D01*
D02*
G37*
G36*
X247348Y59632D02*
X245295D01*
Y57972D01*
X247348D01*
Y59632D01*
D02*
G37*
G36*
Y54972D02*
X245295D01*
Y53313D01*
X247348D01*
Y54972D01*
D02*
G37*
G36*
X179848Y47631D02*
X177795D01*
Y45972D01*
X179848D01*
Y47631D01*
D02*
G37*
G36*
X170348D02*
X168295D01*
Y45972D01*
X170348D01*
Y47631D01*
D02*
G37*
G36*
X165295D02*
X163242D01*
Y45972D01*
X165295D01*
Y47631D01*
D02*
G37*
G36*
X174795D02*
X172742D01*
Y45972D01*
X174795D01*
Y47631D01*
D02*
G37*
G36*
X48295D02*
X46242D01*
Y45972D01*
X48295D01*
Y47631D01*
D02*
G37*
G36*
X247348Y43112D02*
X245295D01*
Y41453D01*
X247348D01*
Y43112D01*
D02*
G37*
G36*
X179848Y42972D02*
X177795D01*
Y41313D01*
X179848D01*
Y42972D01*
D02*
G37*
G36*
X174795D02*
X172742D01*
Y41313D01*
X174795D01*
Y42972D01*
D02*
G37*
G36*
X170348D02*
X168295D01*
Y41313D01*
X170348D01*
Y42972D01*
D02*
G37*
G36*
X165295D02*
X163242D01*
Y41313D01*
X165295D01*
Y42972D01*
D02*
G37*
G36*
X48295D02*
X46242D01*
Y41313D01*
X48295D01*
Y42972D01*
D02*
G37*
G36*
X276795Y55403D02*
X275393Y55265D01*
X274044Y54855D01*
X272801Y54191D01*
X271711Y53297D01*
X270817Y52207D01*
X270152Y50964D01*
X269743Y49615D01*
X269605Y48213D01*
X269743Y46810D01*
X270152Y45461D01*
X270817Y44218D01*
X271711Y43128D01*
X272801Y42234D01*
X274044Y41570D01*
X275393Y41161D01*
X276795Y41023D01*
X278198Y41161D01*
X279547Y41570D01*
X280790Y42234D01*
X281879Y43128D01*
X282774Y44218D01*
X283438Y45461D01*
X283847Y46810D01*
X283985Y48213D01*
X283847Y49615D01*
X283438Y50964D01*
X282774Y52207D01*
X281879Y53297D01*
X280790Y54191D01*
X279547Y54855D01*
X278198Y55265D01*
X276795Y55403D01*
D02*
G37*
G36*
X105841Y47356D02*
X104750D01*
X103696Y47074D01*
X102751Y46528D01*
X101980Y45757D01*
X101434Y44812D01*
X101152Y43758D01*
Y42667D01*
X101434Y41613D01*
X101980Y40669D01*
X102751Y39897D01*
X103696Y39352D01*
X104750Y39069D01*
X105841D01*
X106895Y39352D01*
X107839Y39897D01*
X108611Y40669D01*
X109156Y41613D01*
X109439Y42667D01*
Y43758D01*
X109156Y44812D01*
X108611Y45757D01*
X107839Y46528D01*
X106895Y47074D01*
X105841Y47356D01*
D02*
G37*
G36*
X247348Y38453D02*
X245295D01*
Y36794D01*
X247348D01*
Y38453D01*
D02*
G37*
G36*
X17347Y36805D02*
X15945Y36667D01*
X14596Y36258D01*
X13353Y35594D01*
X12263Y34699D01*
X11369Y33610D01*
X10704Y32367D01*
X10295Y31018D01*
X10157Y29615D01*
X10295Y28213D01*
X10704Y26864D01*
X11369Y25621D01*
X12263Y24531D01*
X13353Y23637D01*
X14596Y22973D01*
X15945Y22563D01*
X17347Y22425D01*
X18750Y22563D01*
X20099Y22973D01*
X21342Y23637D01*
X22431Y24531D01*
X23326Y25621D01*
X23990Y26864D01*
X24399Y28213D01*
X24537Y29615D01*
X24399Y31018D01*
X23990Y32367D01*
X23326Y33610D01*
X22431Y34699D01*
X21342Y35594D01*
X20099Y36258D01*
X18750Y36667D01*
X17347Y36805D01*
D02*
G37*
G36*
X243348Y13131D02*
X241295D01*
Y11472D01*
X243348D01*
Y13131D01*
D02*
G37*
G36*
X251848D02*
X249795D01*
Y11472D01*
X251848D01*
Y13131D01*
D02*
G37*
G36*
X246795D02*
X244742D01*
Y11472D01*
X246795D01*
Y13131D01*
D02*
G37*
G36*
X238295D02*
X236243D01*
Y11472D01*
X238295D01*
Y13131D01*
D02*
G37*
G36*
X251848Y8472D02*
X249795D01*
Y6813D01*
X251848D01*
Y8472D01*
D02*
G37*
G36*
X246795D02*
X244742D01*
Y6813D01*
X246795D01*
Y8472D01*
D02*
G37*
G36*
X243348D02*
X241295D01*
Y6813D01*
X243348D01*
Y8472D01*
D02*
G37*
G36*
X238295D02*
X236243D01*
Y6813D01*
X238295D01*
Y8472D01*
D02*
G37*
%LPD*%
D37*
X257795Y86713D02*
D03*
X277795D02*
D03*
X63795D02*
D03*
X83795D02*
D03*
X15795D02*
D03*
X35795D02*
D03*
X136795D02*
D03*
X116795D02*
D03*
X209795D02*
D03*
X229795D02*
D03*
X39795Y9713D02*
D03*
X59795D02*
D03*
X136795D02*
D03*
X116795D02*
D03*
X176795D02*
D03*
X156795D02*
D03*
X257795D02*
D03*
X277795D02*
D03*
X209795D02*
D03*
X229795D02*
D03*
D38*
X239795Y9972D02*
D03*
Y17453D02*
D03*
X243795Y63953D02*
D03*
Y56472D02*
D03*
X248295Y78972D02*
D03*
Y86453D02*
D03*
X49795Y51953D02*
D03*
Y44472D02*
D03*
X53795Y74953D02*
D03*
Y67472D02*
D03*
X45295Y74953D02*
D03*
Y67472D02*
D03*
X166795Y44472D02*
D03*
Y51953D02*
D03*
X176295Y44472D02*
D03*
Y51953D02*
D03*
X239295Y86453D02*
D03*
Y78972D02*
D03*
X248295Y9972D02*
D03*
Y17453D02*
D03*
X243795Y32472D02*
D03*
Y39953D02*
D03*
D40*
X239742Y37394D02*
G03*
X239764Y37178I1100J0D01*
G01*
X239742Y56151D02*
Y63900D01*
X231804Y48213D02*
X231807D01*
X231804D02*
X239742Y56151D01*
X231807Y48213D02*
X239742Y40277D01*
X231795Y48213D02*
X231807D01*
X55795Y60212D02*
Y62713D01*
X53795D02*
X55795D01*
X237795Y24213D02*
Y24713D01*
X60295Y38213D02*
X64295Y34213D01*
X149674Y87213D02*
X156795D01*
X149674Y66713D02*
Y87213D01*
X236795Y74713D02*
X239295D01*
X239795Y32472D02*
Y32713D01*
X239764Y37178D02*
Y37178D01*
X239795Y32472D02*
X243795D01*
X239742Y37394D02*
Y40277D01*
X239764Y37178D02*
X239795Y32713D01*
X248295Y17453D02*
Y21713D01*
X239795D02*
X248295D01*
X53795Y62713D02*
Y67472D01*
X45295Y62713D02*
Y67472D01*
Y62713D02*
X53795D01*
X45795Y51953D02*
Y59713D01*
Y51953D02*
X49795D01*
X53948Y44072D02*
Y51953D01*
X49795D02*
X53948D01*
Y44072D02*
X60295Y38213D01*
X176295Y58213D02*
Y78213D01*
X176795D01*
X166795Y58213D02*
X176295D01*
X166795Y51953D02*
Y58213D01*
X176295Y51953D02*
Y58213D01*
X237795Y23713D02*
Y24213D01*
Y23713D02*
X239795Y21713D01*
Y17453D02*
Y21713D01*
X249795Y72713D02*
Y73213D01*
X248295Y74713D02*
X249795Y73213D01*
X239742Y63900D02*
Y72160D01*
X239795Y72213D01*
X239742Y63900D02*
X239795Y63953D01*
X239295Y74713D02*
X248295D01*
X239295D02*
Y78972D01*
X248295Y74713D02*
Y78972D01*
X239795Y63953D02*
X243795D01*
X247795Y23713D02*
Y32472D01*
X243795D02*
X247795D01*
D41*
X55795Y62713D02*
X60295D01*
X61295Y61713D01*
X95295D01*
Y53213D02*
Y61713D01*
X105295Y53213D02*
Y66713D01*
X59795D02*
X105295D01*
X235295Y27213D02*
X237795Y24713D01*
X205295Y27213D02*
X235295D01*
X205295Y22213D02*
X234295D01*
X205295Y74213D02*
X234295D01*
X236795Y69213D02*
Y74713D01*
X205295Y69213D02*
X236795D01*
D43*
X17347Y29615D02*
D03*
X276795Y48213D02*
D03*
D44*
X156795Y77213D02*
D03*
X166795D02*
D03*
X176795D02*
D03*
X186795D02*
D03*
X166795Y87213D02*
D03*
X176795D02*
D03*
X186795D02*
D03*
X95295Y53213D02*
D03*
X105295D02*
D03*
Y43213D02*
D03*
D45*
X156795Y87213D02*
D03*
D46*
X95295Y43213D02*
D03*
D47*
X286795Y3713D02*
D03*
X281795D02*
D03*
X286795Y92713D02*
D03*
X281795D02*
D03*
X287732Y8097D02*
D03*
Y13097D02*
D03*
Y18097D02*
D03*
Y23097D02*
D03*
Y28097D02*
D03*
Y33097D02*
D03*
Y38097D02*
D03*
Y43097D02*
D03*
Y48097D02*
D03*
Y53097D02*
D03*
Y58097D02*
D03*
Y63097D02*
D03*
Y68097D02*
D03*
Y73097D02*
D03*
Y78097D02*
D03*
Y83097D02*
D03*
Y88097D02*
D03*
X6795Y3713D02*
D03*
X11795D02*
D03*
X6795Y92713D02*
D03*
X11795D02*
D03*
X3795Y48213D02*
D03*
Y38213D02*
D03*
Y28213D02*
D03*
Y18213D02*
D03*
Y8213D02*
D03*
Y43213D02*
D03*
Y33213D02*
D03*
Y23213D02*
D03*
Y13213D02*
D03*
Y53213D02*
D03*
Y58213D02*
D03*
Y63213D02*
D03*
Y68213D02*
D03*
Y73213D02*
D03*
Y78213D02*
D03*
Y83213D02*
D03*
Y88213D02*
D03*
X188295Y60213D02*
D03*
X179795D02*
D03*
X188295Y65213D02*
D03*
X179795D02*
D03*
X166795Y41713D02*
D03*
X176295D02*
D03*
X242095Y37213D02*
D03*
X246795D02*
D03*
X51495Y47213D02*
D03*
X46795D02*
D03*
X242095Y59513D02*
D03*
X247348D02*
D03*
X146795Y43213D02*
D03*
X142295Y48213D02*
D03*
X146795Y52213D02*
D03*
X151295Y48213D02*
D03*
X146795D02*
D03*
X207795Y76713D02*
D03*
X208295Y71713D02*
D03*
Y66713D02*
D03*
X201795Y63713D02*
D03*
Y58713D02*
D03*
Y53213D02*
D03*
X205295Y87213D02*
D03*
Y81713D02*
D03*
X166795Y62213D02*
D03*
X157795Y60213D02*
D03*
X163795Y66213D02*
D03*
X173795Y65213D02*
D03*
Y60713D02*
D03*
X153795Y56213D02*
D03*
X231295Y43713D02*
D03*
Y52713D02*
D03*
X236795Y48213D02*
D03*
X250795Y53213D02*
D03*
Y48213D02*
D03*
X251295Y43713D02*
D03*
X146795Y57713D02*
D03*
X150295Y61213D02*
D03*
X143795Y60713D02*
D03*
X143295Y37213D02*
D03*
X150295D02*
D03*
X146795Y36713D02*
D03*
X136795Y48213D02*
D03*
X155795D02*
D03*
X161295Y53213D02*
D03*
X159295Y49713D02*
D03*
Y45213D02*
D03*
X133795Y50713D02*
D03*
Y45713D02*
D03*
X56295Y80713D02*
D03*
X51795D02*
D03*
X46795D02*
D03*
X41295D02*
D03*
X58295Y55713D02*
D03*
X41795D02*
D03*
X40295Y41213D02*
D03*
X42795Y38213D02*
D03*
X61795Y41213D02*
D03*
X56295Y37713D02*
D03*
X195795Y78213D02*
D03*
Y73213D02*
D03*
Y63213D02*
D03*
Y58213D02*
D03*
Y53213D02*
D03*
Y48213D02*
D03*
Y68213D02*
D03*
Y85213D02*
D03*
Y89213D02*
D03*
X16795Y92713D02*
D03*
X31795D02*
D03*
X36795D02*
D03*
X41795D02*
D03*
X46795D02*
D03*
X51795D02*
D03*
X56795D02*
D03*
X61795D02*
D03*
X66795D02*
D03*
X81795D02*
D03*
X86795D02*
D03*
X91795D02*
D03*
X96795D02*
D03*
X101795D02*
D03*
X106795D02*
D03*
X261795Y3713D02*
D03*
Y92713D02*
D03*
X116795D02*
D03*
X111795D02*
D03*
X136795D02*
D03*
X141795D02*
D03*
X146795D02*
D03*
X151795D02*
D03*
X156795D02*
D03*
X161795D02*
D03*
X206795D02*
D03*
X231795D02*
D03*
X236795D02*
D03*
X241795D02*
D03*
X246795D02*
D03*
X251795D02*
D03*
X256795D02*
D03*
X276795D02*
D03*
X231795Y3713D02*
D03*
X276795D02*
D03*
X256795D02*
D03*
X251795D02*
D03*
X246795D02*
D03*
X241795D02*
D03*
X236795D02*
D03*
X206795D02*
D03*
X201795D02*
D03*
X196795D02*
D03*
X191795D02*
D03*
X186795D02*
D03*
X176795Y3418D02*
D03*
X181795Y3713D02*
D03*
X156795D02*
D03*
X151795D02*
D03*
X136795D02*
D03*
X61795D02*
D03*
X36795D02*
D03*
X16795D02*
D03*
X26795D02*
D03*
X31795D02*
D03*
X66795D02*
D03*
X71795D02*
D03*
X76795D02*
D03*
X81795D02*
D03*
X86795D02*
D03*
X91795D02*
D03*
X116795D02*
D03*
X96795D02*
D03*
X101795D02*
D03*
X106795D02*
D03*
X111795D02*
D03*
X141795D02*
D03*
X146795D02*
D03*
X21795D02*
D03*
X55795Y60212D02*
D03*
X70295Y64213D02*
D03*
X77295Y59213D02*
D03*
Y64213D02*
D03*
X172595Y9713D02*
D03*
Y14713D02*
D03*
Y19713D02*
D03*
X170295Y24713D02*
D03*
X169195Y29513D02*
D03*
X166395Y33613D02*
D03*
X162795Y37213D02*
D03*
X159295Y40713D02*
D03*
X160995Y9713D02*
D03*
Y14713D02*
D03*
Y19713D02*
D03*
X163295Y24713D02*
D03*
X160895Y29013D02*
D03*
X157395Y32513D02*
D03*
X153895Y36113D02*
D03*
X139695D02*
D03*
X136195Y32513D02*
D03*
X132695Y29013D02*
D03*
X130295Y24713D02*
D03*
X132595Y19713D02*
D03*
Y14713D02*
D03*
Y9713D02*
D03*
X134295Y40713D02*
D03*
X130795Y37213D02*
D03*
X127195Y33613D02*
D03*
X124395Y29513D02*
D03*
X123295Y24713D02*
D03*
X120995Y19713D02*
D03*
Y14713D02*
D03*
Y9713D02*
D03*
X123295Y72213D02*
D03*
X124395Y66813D02*
D03*
X120995Y81713D02*
D03*
X132595D02*
D03*
Y86713D02*
D03*
X120995D02*
D03*
X43995Y14713D02*
D03*
Y9713D02*
D03*
Y4713D02*
D03*
X55595D02*
D03*
Y9713D02*
D03*
Y14713D02*
D03*
X19795Y89213D02*
D03*
Y84213D02*
D03*
X31795Y89213D02*
D03*
X79795D02*
D03*
Y84213D02*
D03*
X67795Y89213D02*
D03*
Y84213D02*
D03*
X31795D02*
D03*
X254395Y32913D02*
D03*
X255595Y39813D02*
D03*
X260595Y39513D02*
D03*
X265195Y37613D02*
D03*
X268795Y34213D02*
D03*
X270895Y29713D02*
D03*
X271295Y24713D02*
D03*
X273595Y19713D02*
D03*
Y14713D02*
D03*
X273795Y9713D02*
D03*
X273595Y4713D02*
D03*
X259395Y32413D02*
D03*
X263295Y29513D02*
D03*
X264295Y24713D02*
D03*
X261995Y19713D02*
D03*
Y14713D02*
D03*
Y9713D02*
D03*
X213995Y4713D02*
D03*
X225595D02*
D03*
X216295Y24713D02*
D03*
X216695Y29713D02*
D03*
X213995Y19713D02*
D03*
X233195Y32913D02*
D03*
X228195Y32413D02*
D03*
X224295Y29513D02*
D03*
X223295Y24713D02*
D03*
X225595Y19713D02*
D03*
Y14713D02*
D03*
Y9713D02*
D03*
X231995Y39813D02*
D03*
X226995Y39513D02*
D03*
X222395Y37613D02*
D03*
X218795Y34213D02*
D03*
X213995Y14713D02*
D03*
Y9713D02*
D03*
X64295Y34213D02*
D03*
X213995Y91713D02*
D03*
X225595D02*
D03*
X216695Y66713D02*
D03*
X216295Y71713D02*
D03*
X224295Y66913D02*
D03*
X233195Y63513D02*
D03*
X228195Y64013D02*
D03*
X223295Y71713D02*
D03*
X231995Y56613D02*
D03*
X226995Y56913D02*
D03*
X222395Y58813D02*
D03*
X218795Y62213D02*
D03*
X225595Y76713D02*
D03*
Y81713D02*
D03*
Y86713D02*
D03*
X213995D02*
D03*
Y81713D02*
D03*
Y76713D02*
D03*
X254395Y63513D02*
D03*
X259395Y64013D02*
D03*
X263295Y66913D02*
D03*
X264295Y71713D02*
D03*
X261995Y76713D02*
D03*
Y81713D02*
D03*
Y86713D02*
D03*
X255595Y56613D02*
D03*
X260595Y56913D02*
D03*
X265195Y58813D02*
D03*
X268795Y62213D02*
D03*
X273595Y76713D02*
D03*
X270895Y66713D02*
D03*
X271295Y71713D02*
D03*
X273595Y81713D02*
D03*
Y86713D02*
D03*
X46295Y24713D02*
D03*
Y29713D02*
D03*
Y34713D02*
D03*
X43995Y19713D02*
D03*
X53295Y34713D02*
D03*
Y29713D02*
D03*
Y24713D02*
D03*
X55595Y19713D02*
D03*
X59695Y51413D02*
D03*
X39695D02*
D03*
X34695Y51813D02*
D03*
X30595Y54513D02*
D03*
X38495Y44713D02*
D03*
X33495Y44813D02*
D03*
X28895Y46613D02*
D03*
X21295Y74213D02*
D03*
X30295D02*
D03*
X19795Y79213D02*
D03*
X31795D02*
D03*
X22295Y69213D02*
D03*
Y64213D02*
D03*
Y59213D02*
D03*
X29295D02*
D03*
Y64213D02*
D03*
Y69213D02*
D03*
X61095Y44613D02*
D03*
X70695Y46613D02*
D03*
X66095Y44813D02*
D03*
X64695Y51813D02*
D03*
X76795Y54313D02*
D03*
X74495Y49813D02*
D03*
X79795Y79213D02*
D03*
X67795D02*
D03*
X78295Y74213D02*
D03*
X69295D02*
D03*
X77295Y69213D02*
D03*
X70295D02*
D03*
Y59213D02*
D03*
X68895Y54413D02*
D03*
X246545Y48213D02*
D03*
X241045D02*
D03*
X127195Y62813D02*
D03*
X130795Y59213D02*
D03*
X134295Y55713D02*
D03*
X139695Y60313D02*
D03*
X136195Y63913D02*
D03*
X132695Y67413D02*
D03*
X130295Y72213D02*
D03*
X132595Y76713D02*
D03*
X120995D02*
D03*
X25095Y49813D02*
D03*
X22795Y54313D02*
D03*
D48*
X59795Y66713D02*
D03*
X205295Y69213D02*
D03*
X231795Y48213D02*
D03*
X149674Y66713D02*
D03*
X45795Y59713D02*
D03*
X166795Y58213D02*
D03*
X205295Y22213D02*
D03*
Y27213D02*
D03*
X234295Y22213D02*
D03*
X205295Y74213D02*
D03*
X234295D02*
D03*
X237795Y24213D02*
D03*
X239795Y72213D02*
D03*
X249795Y72713D02*
D03*
X247795Y24213D02*
D03*
M02*
