M48
;Layer_Color=9474304
;FILE_FORMAT=2:5
INCH,TZ
;TYPE=PLATED
T01F00S00C0.01200
T02F00S00C0.01300
T03F00S00C0.03937
T04F00S00C0.08661
%
T01
X181795Y3713
X186795
X191795
X196795
X201795
X206795
X213995Y4713
Y9713
Y14713
Y19713
X216295Y24713
X216695Y29713
X218795Y34213
X222395Y37613
X226995Y39513
X231995Y39813
X231295Y43713
Y52713
X231995Y56613
X226995Y56913
X222395Y58813
X218795Y62213
X216695Y66713
X216295Y71713
X223295
X224295Y66913
X228195Y64013
X233195Y63513
X242095Y59513
X247348
X250795Y53213
Y48213
X246545
X241045
X236795
X242095Y37213
X246795
X251295Y43713
X255595Y39813
X260595Y39513
X265195Y37613
X268795Y34213
X270895Y29713
X271295Y24713
X264295
X263295Y29513
X259395Y32413
X254395Y32913
X261995Y19713
Y14713
Y9713
X261795Y3713
X256795
X251795
X246795
X241795
X236795
X231795
X225595Y4713
Y9713
Y14713
Y19713
X223295Y24713
X224295Y29513
X228195Y32413
X233195Y32913
X255595Y56613
X260595Y56913
X265195Y58813
X268795Y62213
X270895Y66713
X271295Y71713
X264295
X263295Y66913
X259395Y64013
X254395Y63513
X261995Y76713
Y81713
Y86713
X261795Y92713
X256795
X251795
X246795
X241795
X236795
X231795
X225595Y91713
Y86713
Y81713
Y76713
X213995
Y81713
Y86713
Y91713
X206795Y92713
X205295Y87213
Y81713
X207795Y76713
X208295Y71713
Y66713
X201795Y63713
Y58713
Y53213
X195795
Y58213
Y63213
Y68213
Y73213
Y78213
Y85213
Y89213
X188295Y65213
Y60213
X179795
Y65213
X195795Y48213
X287732Y48097
Y43097
Y38097
Y33097
Y28097
Y23097
Y18097
Y13097
Y8097
X286795Y3713
X281795
X276795
X273595Y4713
X273795Y9713
X273595Y14713
Y19713
X287732Y53097
Y58097
Y63097
Y68097
Y73097
Y78097
Y83097
Y88097
X286795Y92713
X281795
X276795
X273595Y86713
Y81713
Y76713
X173795Y65213
Y60713
X166795Y62213
X163795Y66213
X157795Y60213
X153795Y56213
X146795Y57713
Y52213
Y48213
X142295
X136795
X133795Y50713
Y45713
X134295Y40713
X130795Y37213
X127195Y33613
X124395Y29513
X123295Y24713
X130295
X132695Y29013
X136195Y32513
X139695Y36113
X143295Y37213
X146795Y36713
X150295Y37213
X153895Y36113
X157395Y32513
X160895Y29013
X163295Y24713
X170295
X169195Y29513
X166395Y33613
X162795Y37213
X159295Y40713
Y45213
Y49713
X155795Y48213
X151295
X146795Y43213
X143795Y60713
X139695Y60313
X136195Y63913
X132695Y67413
X130295Y72213
X132595Y76713
Y81713
Y86713
X136795Y92713
X141795
X146795
X151795
X156795
X161795
X161295Y53213
X166795Y41713
X176295
X172595Y19713
Y14713
Y9713
X176795Y3418
X156795Y3713
X151795
X146795
X141795
X136795
X132595Y9713
Y14713
Y19713
X120995
Y14713
Y9713
X116795Y3713
X111795
X106795
X101795
X96795
X91795
X86795
X81795
X76795
X71795
X66795
X61795
X55595Y4713
Y9713
Y14713
Y19713
X53295Y24713
Y29713
Y34713
X56295Y37713
X61795Y41213
X61095Y44613
X66095Y44813
X70695Y46613
X74495Y49813
X76795Y54313
X77295Y59213
Y64213
Y69213
X78295Y74213
X79795Y79213
Y84213
Y89213
X81795Y92713
X86795
X91795
X96795
X101795
X106795
X111795
X116795
X120995Y86713
Y81713
Y76713
X123295Y72213
X124395Y66813
X127195Y62813
X130795Y59213
X134295Y55713
X150295Y61213
X160995Y19713
Y14713
Y9713
X43995
Y14713
Y19713
X46295Y24713
Y29713
Y34713
X42795Y38213
X40295Y41213
X38495Y44713
X33495Y44813
X28895Y46613
X25095Y49813
X22795Y54313
X22295Y59213
Y64213
Y69213
X29295
Y64213
Y59213
X30595Y54513
X34695Y51813
X39695Y51413
X41795Y55713
X46795Y47213
X51495
X59695Y51413
X64695Y51813
X68895Y54413
X70295Y59213
Y64213
Y69213
X69295Y74213
X67795Y79213
Y84213
Y89213
X66795Y92713
X61795
X56795
X51795
X46795
X41795
X36795
X31795
Y89213
Y84213
Y79213
X30295Y74213
X41295Y80713
X46795
X51795
X56295
X55795Y60212
X58295Y55713
X64295Y34213
X43995Y4713
X36795Y3713
X31795
X26795
X21795
X16795
X11795
X6795
X3795Y8213
Y13213
Y18213
Y23213
Y28213
Y33213
Y38213
Y43213
Y48213
Y53213
Y58213
Y63213
Y68213
Y73213
Y78213
Y83213
Y88213
X6795Y92713
X11795
X16795
X19795Y89213
Y84213
Y79213
X21295Y74213
T02
X205295Y22213
Y27213
X234295Y22213
X237795Y24213
X247795
X231795Y48213
X234295Y74213
X239795Y72213
X249795Y72713
X205295Y74213
Y69213
X166795Y58213
X149674Y66713
X59795
X45795Y59713
T03
X186795Y77213
Y87213
X176795
Y77213
X166795
X156795
Y87213
X166795
X105295Y53213
X95295
Y43213
X105295
T04
X276795Y48213
X17347Y29615
M30
