G04*
G04 #@! TF.GenerationSoftware,Altium Limited,Altium Designer,24.4.1 (13)*
G04*
G04 Layer_Color=32896*
%FSLAX25Y25*%
%MOIN*%
G70*
G04*
G04 #@! TF.SameCoordinates,9EAFE7E4-189C-44CB-946A-5F511CB8720B*
G04*
G04*
G04 #@! TF.FilePolarity,Positive*
G04*
G01*
G75*
%ADD10C,0.00500*%
%ADD11C,0.00600*%
D10*
X243545Y9713D02*
Y17713D01*
X236045Y9713D02*
Y17713D01*
X240045Y56213D02*
Y64213D01*
X247545Y56213D02*
Y64213D01*
X252045Y78713D02*
Y86713D01*
X244545Y78713D02*
Y86713D01*
X46045Y44213D02*
Y52213D01*
X53545Y44213D02*
Y52213D01*
X50045Y67213D02*
Y75213D01*
X57545Y67213D02*
Y75213D01*
X41545Y67213D02*
Y75213D01*
X49045Y67213D02*
Y75213D01*
X170545Y44213D02*
Y52213D01*
X163045Y44213D02*
Y52213D01*
X180045Y44213D02*
Y52213D01*
X172545Y44213D02*
Y52213D01*
X235545Y78713D02*
Y86713D01*
X243045Y78713D02*
Y86713D01*
X252045Y9713D02*
Y17713D01*
X244545Y9713D02*
Y17713D01*
X247545Y32213D02*
Y40213D01*
X240045Y32213D02*
Y40213D01*
D11*
X114734Y27099D02*
X115401Y27765D01*
X116734D01*
X117400Y27099D01*
Y26432D01*
X116734Y25766D01*
X115401D01*
X114734Y25099D01*
Y24433D01*
X115401Y23766D01*
X116734D01*
X117400Y24433D01*
X113401Y26432D02*
Y24433D01*
X112735Y23766D01*
X112068Y24433D01*
X111402Y23766D01*
X110735Y24433D01*
Y26432D01*
X109403Y23766D02*
X108070D01*
X108736D01*
Y26432D01*
X109403D01*
X105404Y27099D02*
Y26432D01*
X106070D01*
X104737D01*
X105404D01*
Y24433D01*
X104737Y23766D01*
X100072Y26432D02*
X102072D01*
X102738Y25766D01*
Y24433D01*
X102072Y23766D01*
X100072D01*
X98739Y27765D02*
Y23766D01*
Y25766D01*
X98073Y26432D01*
X96740D01*
X96074Y25766D01*
Y23766D01*
X94741Y27765D02*
Y23766D01*
X92741D01*
X92075Y24433D01*
Y25099D01*
X92741Y25766D01*
X94741D01*
X92741D01*
X92075Y26432D01*
Y27099D01*
X92741Y27765D01*
X94741D01*
X90075Y23766D02*
X88743D01*
X88076Y24433D01*
Y25766D01*
X88743Y26432D01*
X90075D01*
X90742Y25766D01*
Y24433D01*
X90075Y23766D01*
X86077Y26432D02*
X84744D01*
X84077Y25766D01*
Y23766D01*
X86077D01*
X86743Y24433D01*
X86077Y25099D01*
X84077D01*
X82744Y26432D02*
Y23766D01*
Y25099D01*
X82078Y25766D01*
X81412Y26432D01*
X80745D01*
X76080Y27765D02*
Y23766D01*
X78079D01*
X78746Y24433D01*
Y25766D01*
X78079Y26432D01*
X76080D01*
X74747Y23100D02*
X72081D01*
X70748Y23766D02*
Y27765D01*
X68749D01*
X68083Y27099D01*
Y25766D01*
X68749Y25099D01*
X70748D01*
X69415D02*
X68083Y23766D01*
X66750Y27099D02*
X66083Y27765D01*
X64750D01*
X64084Y27099D01*
Y24433D01*
X64750Y23766D01*
X66083D01*
X66750Y24433D01*
Y27099D01*
X62751D02*
X62085Y27765D01*
X60752D01*
X60085Y27099D01*
Y24433D01*
X60752Y23766D01*
X62085D01*
X62751Y24433D01*
Y27099D01*
X48128Y83046D02*
X48794Y83712D01*
X50127D01*
X50794Y83046D01*
Y80380D01*
X50127Y79713D01*
X48794D01*
X48128Y80380D01*
X46795Y79713D02*
X45462D01*
X46128D01*
Y83712D01*
X46795Y83046D01*
X43463D02*
X42796Y83712D01*
X41463D01*
X40797Y83046D01*
Y82379D01*
X41463Y81713D01*
X40797Y81046D01*
Y80380D01*
X41463Y79713D01*
X42796D01*
X43463Y80380D01*
Y81046D01*
X42796Y81713D01*
X43463Y82379D01*
Y83046D01*
X42796Y81713D02*
X41463D01*
X56128Y88046D02*
X56794Y88712D01*
X58127D01*
X58794Y88046D01*
Y85380D01*
X58127Y84713D01*
X56794D01*
X56128Y85380D01*
X54795Y84713D02*
X53462D01*
X54128D01*
Y88712D01*
X54795Y88046D01*
X51463Y88712D02*
X48797D01*
Y88046D01*
X51463Y85380D01*
Y84713D01*
X52128Y39046D02*
X52794Y39712D01*
X54127D01*
X54794Y39046D01*
Y36380D01*
X54127Y35713D01*
X52794D01*
X52128Y36380D01*
X50795Y35713D02*
X49462D01*
X50129D01*
Y39712D01*
X50795Y39046D01*
X44797Y39712D02*
X46130Y39046D01*
X47463Y37713D01*
Y36380D01*
X46796Y35713D01*
X45463D01*
X44797Y36380D01*
Y37046D01*
X45463Y37713D01*
X47463D01*
X168128Y39046D02*
X168794Y39712D01*
X170127D01*
X170794Y39046D01*
Y36380D01*
X170127Y35713D01*
X168794D01*
X168128Y36380D01*
X166795Y35713D02*
X165462D01*
X166129D01*
Y39712D01*
X166795Y39046D01*
X160797Y39712D02*
X163463D01*
Y37713D01*
X162130Y38379D01*
X161463D01*
X160797Y37713D01*
Y36380D01*
X161463Y35713D01*
X162796D01*
X163463Y36380D01*
X180628Y39046D02*
X181294Y39712D01*
X182627D01*
X183294Y39046D01*
Y36380D01*
X182627Y35713D01*
X181294D01*
X180628Y36380D01*
X179295Y35713D02*
X177962D01*
X178629D01*
Y39712D01*
X179295Y39046D01*
X173963Y35713D02*
Y39712D01*
X175963Y37713D01*
X173297D01*
X241628Y4546D02*
X242294Y5212D01*
X243627D01*
X244294Y4546D01*
Y1880D01*
X243627Y1213D01*
X242294D01*
X241628Y1880D01*
X240295Y1213D02*
X238962D01*
X239629D01*
Y5212D01*
X240295Y4546D01*
X236963D02*
X236296Y5212D01*
X234963D01*
X234297Y4546D01*
Y1880D01*
X234963Y1213D01*
X236296D01*
X236963Y1880D01*
Y4546D01*
X249462D02*
X250128Y5212D01*
X251461D01*
X252128Y4546D01*
Y1880D01*
X251461Y1213D01*
X250128D01*
X249462Y1880D01*
X248129D02*
X247462Y1213D01*
X246129D01*
X245463Y1880D01*
Y4546D01*
X246129Y5212D01*
X247462D01*
X248129Y4546D01*
Y3879D01*
X247462Y3213D01*
X245463D01*
X253962Y45046D02*
X254628Y45712D01*
X255961D01*
X256627Y45046D01*
Y42380D01*
X255961Y41713D01*
X254628D01*
X253962Y42380D01*
X249963Y45712D02*
X251296Y45046D01*
X252629Y43713D01*
Y42380D01*
X251962Y41713D01*
X250629D01*
X249963Y42380D01*
Y43046D01*
X250629Y43713D01*
X252629D01*
X253962Y67045D02*
X254628Y67712D01*
X255961D01*
X256627Y67045D01*
Y64380D01*
X255961Y63713D01*
X254628D01*
X253962Y64380D01*
X249963Y67712D02*
X252629D01*
Y65713D01*
X251296Y66379D01*
X250629D01*
X249963Y65713D01*
Y64380D01*
X250629Y63713D01*
X251962D01*
X252629Y64380D01*
X239962Y93546D02*
X240628Y94212D01*
X241961D01*
X242628Y93546D01*
Y90880D01*
X241961Y90213D01*
X240628D01*
X239962Y90880D01*
X236630Y90213D02*
Y94212D01*
X238629Y92213D01*
X235963D01*
X249462Y93546D02*
X250128Y94212D01*
X251461D01*
X252128Y93546D01*
Y90880D01*
X251461Y90213D01*
X250128D01*
X249462Y90880D01*
X245463Y90213D02*
X248129D01*
X245463Y92879D01*
Y93546D01*
X246129Y94212D01*
X247462D01*
X248129Y93546D01*
M02*
