G04*
G04 #@! TF.GenerationSoftware,Altium Limited,Altium Designer,24.4.1 (13)*
G04*
G04 Layer_Color=65535*
%FSLAX25Y25*%
%MOIN*%
G70*
G04*
G04 #@! TF.SameCoordinates,70BA40AD-3E04-444A-AD5C-AF6B0887806A*
G04*
G04*
G04 #@! TF.FilePolarity,Positive*
G04*
G01*
G75*
%ADD10C,0.00787*%
%ADD11C,0.00500*%
%ADD12C,0.00600*%
%ADD13C,0.00700*%
D10*
X-29104Y-15051D02*
G03*
X-29104Y-15051I-199J0D01*
G01*
X-29104Y-95051D02*
G03*
X-29104Y-95051I-199J0D01*
G01*
X-54419Y-15051D02*
G03*
X-54419Y-15051I-199J0D01*
G01*
Y-95051D02*
G03*
X-54419Y-95051I-199J0D01*
G01*
X-45539Y-12500D02*
X-34555D01*
X-45539Y-27500D02*
X-34555D01*
X-45539Y-92500D02*
X-34555D01*
X-45539Y-107500D02*
X-34555D01*
X-70854Y-12500D02*
X-59870D01*
X-70854Y-27500D02*
X-59870D01*
X-70854Y-92500D02*
X-59870D01*
X-70854Y-107500D02*
X-59870D01*
D11*
X-114362Y-5500D02*
X-96862D01*
X-114362Y-34500D02*
X-96862D01*
Y-5500D01*
X-114362Y-85500D02*
X-96862D01*
X-114362Y-114500D02*
X-96862D01*
Y-85500D01*
X-9500Y-54500D02*
Y-25500D01*
X8000D01*
X-9500Y-54500D02*
X8000D01*
X-27547Y-23500D02*
X-27547Y-31500D01*
X-21547Y-23500D02*
X-21547Y-31500D01*
X-9500Y-94500D02*
Y-65500D01*
X8000D01*
X-9500Y-94500D02*
X8000D01*
X-62362Y3000D02*
X-54362D01*
X-62362Y-3000D02*
X-54362D01*
X-9500Y-14500D02*
Y14500D01*
X8000D01*
X-9500Y-14500D02*
X8000D01*
X-69362Y-39000D02*
Y-31000D01*
X-75362Y-39000D02*
Y-31000D01*
X-87862Y-22000D02*
X-79862D01*
X-87862Y-28000D02*
X-79862D01*
X-87862Y-12000D02*
X-79862D01*
X-87862Y-18000D02*
X-79862D01*
X-87862Y-92000D02*
X-79862D01*
X-87862Y-98000D02*
X-79862D01*
X-87862Y-102000D02*
X-79862D01*
X-87862Y-108000D02*
X-79862D01*
X-75362Y-89000D02*
Y-81000D01*
X-69362Y-89000D02*
Y-81000D01*
X-9500Y-134500D02*
Y-105500D01*
X8000D01*
X-9500Y-134500D02*
X8000D01*
X-21547Y-96500D02*
Y-88500D01*
X-27547Y-96500D02*
Y-88500D01*
X-62362Y-117000D02*
X-54362D01*
X-62362Y-123000D02*
X-54362D01*
D12*
X-52259Y-32001D02*
X-49593D01*
X-50926D01*
Y-35999D01*
X-45594D02*
X-48260D01*
X-45594Y-33334D01*
Y-32667D01*
X-46261Y-32001D01*
X-47594D01*
X-48260Y-32667D01*
X-52259Y-85001D02*
X-49593D01*
X-50926D01*
Y-88999D01*
X-46261D02*
Y-85001D01*
X-48260Y-87000D01*
X-45594D01*
X-37213Y-36167D02*
X-37879Y-35501D01*
X-39212D01*
X-39879Y-36167D01*
Y-38833D01*
X-39212Y-39499D01*
X-37879D01*
X-37213Y-38833D01*
X-33214Y-39499D02*
X-35880D01*
X-33214Y-36834D01*
Y-36167D01*
X-33881Y-35501D01*
X-35214D01*
X-35880Y-36167D01*
X-29882Y-39499D02*
Y-35501D01*
X-31881Y-37500D01*
X-29216D01*
X-108400Y17100D02*
Y21099D01*
X-106401D01*
X-105734Y20432D01*
Y19099D01*
X-106401Y18433D01*
X-108400D01*
X-103735Y17100D02*
X-102402D01*
X-101735Y17766D01*
Y19099D01*
X-102402Y19766D01*
X-103735D01*
X-104401Y19099D01*
Y17766D01*
X-103735Y17100D01*
X-100403Y19766D02*
Y17100D01*
Y18433D01*
X-99736Y19099D01*
X-99070Y19766D01*
X-98403D01*
X-95737Y20432D02*
Y19766D01*
X-96404D01*
X-95071D01*
X-95737D01*
Y17766D01*
X-95071Y17100D01*
X-93072D02*
X-91739D01*
X-92405D01*
Y21099D01*
X-93072Y20432D01*
X-17327Y19599D02*
X-18660D01*
X-19327Y18932D01*
Y16266D01*
X-18660Y15600D01*
X-17327D01*
X-16661Y16266D01*
Y18932D01*
X-17327Y19599D01*
X-15328D02*
Y16266D01*
X-14662Y15600D01*
X-13329D01*
X-12662Y16266D01*
Y19599D01*
X-11329D02*
X-8664D01*
X-9996D01*
Y15600D01*
X-103921Y-36401D02*
X-102588D01*
X-103254D01*
Y-40400D01*
X-103921D01*
X-102588D01*
X-100589D02*
Y-36401D01*
X-97923Y-40400D01*
Y-36401D01*
X-108421Y-118401D02*
X-107088D01*
X-107754D01*
Y-122400D01*
X-108421D01*
X-107088D01*
X-105089D02*
Y-118401D01*
X-102423Y-122400D01*
Y-118401D01*
X-17327Y-137401D02*
X-18660D01*
X-19327Y-138068D01*
Y-140734D01*
X-18660Y-141400D01*
X-17327D01*
X-16661Y-140734D01*
Y-138068D01*
X-17327Y-137401D01*
X-15328D02*
Y-140734D01*
X-14662Y-141400D01*
X-13329D01*
X-12662Y-140734D01*
Y-137401D01*
X-11329D02*
X-8664D01*
X-9996D01*
Y-141400D01*
X-108900Y-67900D02*
Y-63901D01*
X-106901D01*
X-106234Y-64568D01*
Y-65901D01*
X-106901Y-66567D01*
X-108900D01*
X-104235Y-67900D02*
X-102902D01*
X-102235Y-67234D01*
Y-65901D01*
X-102902Y-65234D01*
X-104235D01*
X-104901Y-65901D01*
Y-67234D01*
X-104235Y-67900D01*
X-100903Y-65234D02*
Y-67900D01*
Y-66567D01*
X-100236Y-65901D01*
X-99570Y-65234D01*
X-98903D01*
X-96237Y-64568D02*
Y-65234D01*
X-96904D01*
X-95571D01*
X-96237D01*
Y-67234D01*
X-95571Y-67900D01*
X-90906D02*
X-93572D01*
X-90906Y-65234D01*
Y-64568D01*
X-91572Y-63901D01*
X-92905D01*
X-93572Y-64568D01*
X-68028Y-6001D02*
X-65362D01*
X-66695D01*
Y-9999D01*
X-64029D02*
X-62696D01*
X-63363D01*
Y-6001D01*
X-64029Y-6667D01*
X-68694Y-110001D02*
X-66029D01*
X-67361D01*
Y-113999D01*
X-64696Y-110667D02*
X-64029Y-110001D01*
X-62696D01*
X-62030Y-110667D01*
Y-111334D01*
X-62696Y-112000D01*
X-63363D01*
X-62696D01*
X-62030Y-112666D01*
Y-113333D01*
X-62696Y-113999D01*
X-64029D01*
X-64696Y-113333D01*
X-75259Y-46999D02*
Y-43001D01*
X-73260D01*
X-72593Y-43667D01*
Y-45000D01*
X-73260Y-45666D01*
X-75259D01*
X-73926D02*
X-72593Y-46999D01*
X-68594Y-43001D02*
X-69927Y-43667D01*
X-71260Y-45000D01*
Y-46333D01*
X-70594Y-46999D01*
X-69261D01*
X-68594Y-46333D01*
Y-45666D01*
X-69261Y-45000D01*
X-71260D01*
X-74759Y-77499D02*
Y-73501D01*
X-72760D01*
X-72093Y-74167D01*
Y-75500D01*
X-72760Y-76166D01*
X-74759D01*
X-73426D02*
X-72093Y-77499D01*
X-68094Y-73501D02*
X-70760D01*
Y-75500D01*
X-69427Y-74834D01*
X-68761D01*
X-68094Y-75500D01*
Y-76833D01*
X-68761Y-77499D01*
X-70094D01*
X-70760Y-76833D01*
X-88694Y-33999D02*
Y-30001D01*
X-86695D01*
X-86029Y-30667D01*
Y-32000D01*
X-86695Y-32666D01*
X-88694D01*
X-87362D02*
X-86029Y-33999D01*
X-82696D02*
Y-30001D01*
X-84696Y-32000D01*
X-82030D01*
X-88694Y-9999D02*
Y-6001D01*
X-86695D01*
X-86029Y-6667D01*
Y-8000D01*
X-86695Y-8666D01*
X-88694D01*
X-87362D02*
X-86029Y-9999D01*
X-84696Y-6667D02*
X-84029Y-6001D01*
X-82696D01*
X-82030Y-6667D01*
Y-7333D01*
X-82696Y-8000D01*
X-83363D01*
X-82696D01*
X-82030Y-8666D01*
Y-9333D01*
X-82696Y-9999D01*
X-84029D01*
X-84696Y-9333D01*
X-93353Y-90499D02*
Y-86501D01*
X-91354D01*
X-90687Y-87167D01*
Y-88500D01*
X-91354Y-89166D01*
X-93353D01*
X-92020D02*
X-90687Y-90499D01*
X-86689D02*
X-89354D01*
X-86689Y-87833D01*
Y-87167D01*
X-87355Y-86501D01*
X-88688D01*
X-89354Y-87167D01*
X-91687Y-113499D02*
Y-109501D01*
X-89687D01*
X-89021Y-110167D01*
Y-111500D01*
X-89687Y-112166D01*
X-91687D01*
X-90354D02*
X-89021Y-113499D01*
X-87688D02*
X-86355D01*
X-87021D01*
Y-109501D01*
X-87688Y-110167D01*
X-36093Y-81167D02*
X-36759Y-80501D01*
X-38092D01*
X-38758Y-81167D01*
Y-83833D01*
X-38092Y-84499D01*
X-36759D01*
X-36093Y-83833D01*
X-32094Y-84499D02*
X-34760D01*
X-32094Y-81833D01*
Y-81167D01*
X-32760Y-80501D01*
X-34093D01*
X-34760Y-81167D01*
X-30761D02*
X-30095Y-80501D01*
X-28762D01*
X-28095Y-81167D01*
Y-81833D01*
X-28762Y-82500D01*
X-29428D01*
X-28762D01*
X-28095Y-83166D01*
Y-83833D01*
X-28762Y-84499D01*
X-30095D01*
X-30761Y-83833D01*
X-73187Y5333D02*
X-73853Y5999D01*
X-75186D01*
X-75852Y5333D01*
Y2667D01*
X-75186Y2001D01*
X-73853D01*
X-73187Y2667D01*
X-69188Y2001D02*
X-71854D01*
X-69188Y4667D01*
Y5333D01*
X-69854Y5999D01*
X-71187D01*
X-71854Y5333D01*
X-65189Y2001D02*
X-67855D01*
X-65189Y4667D01*
Y5333D01*
X-65856Y5999D01*
X-67189D01*
X-67855Y5333D01*
X-69020Y-125167D02*
X-69687Y-124501D01*
X-71020D01*
X-71686Y-125167D01*
Y-127833D01*
X-71020Y-128499D01*
X-69687D01*
X-69020Y-127833D01*
X-65022Y-128499D02*
X-67687D01*
X-65022Y-125833D01*
Y-125167D01*
X-65688Y-124501D01*
X-67021D01*
X-67687Y-125167D01*
X-63689Y-128499D02*
X-62356D01*
X-63022D01*
Y-124501D01*
X-63689Y-125167D01*
D13*
X-35061Y-58801D02*
X-35727Y-58135D01*
X-37060D01*
X-37727Y-58801D01*
Y-61467D01*
X-37060Y-62134D01*
X-35727D01*
X-35061Y-61467D01*
X-33728Y-62134D02*
Y-58135D01*
X-31729D01*
X-31062Y-58801D01*
Y-60134D01*
X-31729Y-60801D01*
X-33728D01*
X-29729Y-58135D02*
Y-62134D01*
X-27064D01*
X-25731Y-62800D02*
X-23065D01*
X-19733Y-58135D02*
X-21066D01*
X-21732Y-58801D01*
Y-61467D01*
X-21066Y-62134D01*
X-19733D01*
X-19066Y-61467D01*
Y-58801D01*
X-19733Y-58135D01*
X-17733D02*
Y-61467D01*
X-17067Y-62134D01*
X-15734D01*
X-15067Y-61467D01*
Y-58135D01*
X-13735D02*
X-11069D01*
X-12402D01*
Y-62134D01*
M02*
