G04*
G04 #@! TF.GenerationSoftware,Altium Limited,Altium Designer,24.4.1 (13)*
G04*
G04 Layer_Physical_Order=2*
G04 Layer_Color=16711680*
%FSLAX25Y25*%
%MOIN*%
G70*
G04*
G04 #@! TF.SameCoordinates,70BA40AD-3E04-444A-AD5C-AF6B0887806A*
G04*
G04*
G04 #@! TF.FilePolarity,Positive*
G04*
G01*
G75*
%ADD25R,0.16000X0.07000*%
%ADD30C,0.08661*%
%ADD31C,0.02400*%
G36*
X7929Y-146929D02*
X-114242D01*
Y26929D01*
X7929D01*
Y-146929D01*
D02*
G37*
%LPC*%
G36*
X-52521Y23190D02*
X-53924Y23052D01*
X-55272Y22643D01*
X-56515Y21978D01*
X-57605Y21084D01*
X-58499Y19995D01*
X-59164Y18752D01*
X-59573Y17403D01*
X-59711Y16000D01*
X-59573Y14597D01*
X-59164Y13249D01*
X-58499Y12005D01*
X-57605Y10916D01*
X-56515Y10022D01*
X-55272Y9357D01*
X-53924Y8948D01*
X-52521Y8810D01*
X-51118Y8948D01*
X-49769Y9357D01*
X-48526Y10022D01*
X-47437Y10916D01*
X-46543Y12005D01*
X-45878Y13249D01*
X-45469Y14597D01*
X-45331Y16000D01*
X-45469Y17403D01*
X-45878Y18752D01*
X-46543Y19995D01*
X-47437Y21084D01*
X-48526Y21978D01*
X-49769Y22643D01*
X-51118Y23052D01*
X-52521Y23190D01*
D02*
G37*
G36*
Y-129310D02*
X-53924Y-129448D01*
X-55272Y-129857D01*
X-56515Y-130522D01*
X-57605Y-131416D01*
X-58499Y-132505D01*
X-59164Y-133748D01*
X-59573Y-135097D01*
X-59711Y-136500D01*
X-59573Y-137903D01*
X-59164Y-139251D01*
X-58499Y-140495D01*
X-57605Y-141584D01*
X-56515Y-142478D01*
X-55272Y-143143D01*
X-53924Y-143552D01*
X-52521Y-143690D01*
X-51118Y-143552D01*
X-49769Y-143143D01*
X-48526Y-142478D01*
X-47437Y-141584D01*
X-46543Y-140495D01*
X-45878Y-139251D01*
X-45469Y-137903D01*
X-45331Y-136500D01*
X-45469Y-135097D01*
X-45878Y-133748D01*
X-46543Y-132505D01*
X-47437Y-131416D01*
X-48526Y-130522D01*
X-49769Y-129857D01*
X-51118Y-129448D01*
X-52521Y-129310D01*
D02*
G37*
%LPD*%
D25*
X-106362Y-30000D02*
D03*
Y-10000D02*
D03*
Y-110000D02*
D03*
Y-90000D02*
D03*
X0Y-50000D02*
D03*
Y-30000D02*
D03*
Y-90000D02*
D03*
Y-70000D02*
D03*
Y-10000D02*
D03*
Y10000D02*
D03*
Y-130000D02*
D03*
Y-110000D02*
D03*
D30*
X-52521Y-136500D02*
D03*
X-52427Y16000D02*
D03*
D31*
X-59362Y-108509D02*
D03*
X-63295Y-28517D02*
D03*
Y-91500D02*
D03*
X-59362Y-91491D02*
D03*
X2479Y-145000D02*
D03*
X-2521D02*
D03*
X-7521D02*
D03*
X-12521D02*
D03*
X-17521D02*
D03*
X-22521D02*
D03*
X-27521D02*
D03*
X-54362Y-108509D02*
D03*
X-22547Y-78547D02*
D03*
X-26047Y-82047D02*
D03*
X-28047Y-86547D02*
D03*
X-29047Y-91500D02*
D03*
X-20047Y-86500D02*
D03*
X-5547Y-74200D02*
D03*
X-15547Y-76500D02*
D03*
X-15500Y-83500D02*
D03*
X-20047Y-96500D02*
D03*
X-34047Y-108509D02*
D03*
X-29047Y-108000D02*
D03*
X-20047Y-91500D02*
D03*
X-22047Y-101000D02*
D03*
X-25047Y-105000D02*
D03*
X-29047Y-96500D02*
D03*
X-49362Y-108509D02*
D03*
X-44362D02*
D03*
X-39362D02*
D03*
X6341Y-110000D02*
D03*
Y-105000D02*
D03*
Y-100000D02*
D03*
Y-95000D02*
D03*
Y-90000D02*
D03*
X-5000Y-85800D02*
D03*
X-0D02*
D03*
X5000D02*
D03*
X-10000Y-85000D02*
D03*
X6341Y-90000D02*
D03*
Y-95000D02*
D03*
X-0Y-74200D02*
D03*
X5000D02*
D03*
X-10000Y-75000D02*
D03*
X6341Y-70000D02*
D03*
X-39362Y-91491D02*
D03*
X-44362D02*
D03*
X-49362D02*
D03*
X-34047Y-91491D02*
D03*
X-54362Y-91491D02*
D03*
X-52610Y-100000D02*
D03*
X-47610D02*
D03*
X-42610D02*
D03*
Y-20000D02*
D03*
X-47610D02*
D03*
X-52610D02*
D03*
X-30862Y-116500D02*
D03*
X-35862D02*
D03*
X-40862D02*
D03*
X-45862D02*
D03*
X-25862D02*
D03*
X-20862D02*
D03*
X5000Y-114200D02*
D03*
X-0D02*
D03*
X-5000D02*
D03*
X-10000Y-115500D02*
D03*
X-15000Y-116500D02*
D03*
X-25862Y-123500D02*
D03*
X-45862D02*
D03*
X-35862D02*
D03*
X-30862D02*
D03*
X-40862D02*
D03*
X-20862D02*
D03*
X6205Y-145000D02*
D03*
X5000Y-125800D02*
D03*
X-0D02*
D03*
X-5000D02*
D03*
X-10000Y-124500D02*
D03*
X-15000Y-123500D02*
D03*
X6341Y-130000D02*
D03*
Y-135000D02*
D03*
Y-140000D02*
D03*
X5479Y-60000D02*
D03*
X479D02*
D03*
X-4521D02*
D03*
X-9521D02*
D03*
X-14521D02*
D03*
X-19521D02*
D03*
X-24521D02*
D03*
X-59362Y-28509D02*
D03*
X-54362D02*
D03*
X-34047Y-28509D02*
D03*
X-49362Y-28509D02*
D03*
X-44362D02*
D03*
X-39362D02*
D03*
X6341Y-55000D02*
D03*
Y-50000D02*
D03*
X-10000Y-45000D02*
D03*
X5000Y-45800D02*
D03*
X-0D02*
D03*
X6341Y-25000D02*
D03*
Y-30000D02*
D03*
X-10000Y-35000D02*
D03*
X5000Y-34200D02*
D03*
X-0D02*
D03*
X-5000D02*
D03*
X-76659Y-110000D02*
D03*
X6341Y-30000D02*
D03*
Y-25000D02*
D03*
Y-20000D02*
D03*
Y-15000D02*
D03*
Y-10000D02*
D03*
X-15000Y-3500D02*
D03*
X-10000Y-4500D02*
D03*
X-5000Y-5800D02*
D03*
X-0D02*
D03*
X5000D02*
D03*
X6341Y25000D02*
D03*
Y20000D02*
D03*
Y15000D02*
D03*
Y10000D02*
D03*
X-15000Y3500D02*
D03*
X-10000Y4500D02*
D03*
X-5000Y5800D02*
D03*
X-0D02*
D03*
X5000D02*
D03*
X-39362Y-11491D02*
D03*
X-44362D02*
D03*
X-49362D02*
D03*
X479Y25000D02*
D03*
X-4521D02*
D03*
X-9521D02*
D03*
X-14521D02*
D03*
X-19521D02*
D03*
X-24521D02*
D03*
X-29047Y-23500D02*
D03*
X-25047Y-15000D02*
D03*
X-22047Y-19000D02*
D03*
X-20047Y-28500D02*
D03*
X-29047Y-12000D02*
D03*
X-34047Y-11491D02*
D03*
X-20047Y-23500D02*
D03*
X-15500Y-36500D02*
D03*
X-15547Y-43500D02*
D03*
X-5547Y-45800D02*
D03*
X-20047Y-33500D02*
D03*
X-29047Y-28500D02*
D03*
X-28047Y-33453D02*
D03*
X-26047Y-37953D02*
D03*
X-22547Y-41453D02*
D03*
X-20862Y-3500D02*
D03*
X-25862D02*
D03*
X-20862Y3500D02*
D03*
X-63362Y-106047D02*
D03*
X-64862Y-101547D02*
D03*
X-112521Y-145000D02*
D03*
X-32521D02*
D03*
X-112521Y-140000D02*
D03*
X-107521Y-145000D02*
D03*
X-102021D02*
D03*
X-97521D02*
D03*
X-92521D02*
D03*
X-87521D02*
D03*
X-82521D02*
D03*
X-77521D02*
D03*
X-72521D02*
D03*
X-67521D02*
D03*
X-62521D02*
D03*
X-57521D02*
D03*
X-52521D02*
D03*
X-47521D02*
D03*
X-42521D02*
D03*
X-37521D02*
D03*
X-112521Y25000D02*
D03*
X-29521D02*
D03*
X-112521Y20000D02*
D03*
X-89521Y-100000D02*
D03*
X-84521D02*
D03*
X-79521D02*
D03*
X-74521D02*
D03*
X-69521D02*
D03*
X-106362Y-105800D02*
D03*
X-101362D02*
D03*
X-96362D02*
D03*
X-91362Y-108000D02*
D03*
X-86362Y-109500D02*
D03*
X-81362D02*
D03*
X-75362Y-113500D02*
D03*
X-60862Y-124000D02*
D03*
X-55862D02*
D03*
X-50862Y-123500D02*
D03*
X-65862Y-123000D02*
D03*
X-69862Y-121000D02*
D03*
X-73362Y-117500D02*
D03*
X-50862Y-116500D02*
D03*
X-55862Y-116000D02*
D03*
X-60862D02*
D03*
X-111362Y-105800D02*
D03*
X-111362Y-94200D02*
D03*
X-76362Y-91500D02*
D03*
X-81362Y-90500D02*
D03*
X-86362D02*
D03*
X-91362Y-92000D02*
D03*
X-96362Y-94200D02*
D03*
X-101362D02*
D03*
X-106362D02*
D03*
X-65862Y-115000D02*
D03*
X-68362Y-111000D02*
D03*
X-67362Y-106000D02*
D03*
X-77362Y-86500D02*
D03*
X-67362Y-86547D02*
D03*
X-67862Y-91547D02*
D03*
X-66862Y-96547D02*
D03*
X-72362Y-79000D02*
D03*
X-77362Y-81500D02*
D03*
X-67362D02*
D03*
X-67362Y-38500D02*
D03*
X-77362D02*
D03*
X-72362Y-41000D02*
D03*
X-63362Y-13953D02*
D03*
X-64862Y-18453D02*
D03*
X-66862Y-23453D02*
D03*
X-67862Y-28453D02*
D03*
X-67362Y-33453D02*
D03*
X-77362Y-33500D02*
D03*
X-54362Y-11491D02*
D03*
X-59362D02*
D03*
X-67362Y-14000D02*
D03*
X-68362Y-9000D02*
D03*
X-65862Y-5000D02*
D03*
X-40862Y3500D02*
D03*
X-30862D02*
D03*
X-106362Y-25800D02*
D03*
X-101362D02*
D03*
X-96362D02*
D03*
X-91362Y-28000D02*
D03*
X-86362Y-29500D02*
D03*
X-81362D02*
D03*
X-76362Y-28500D02*
D03*
X-111362Y-25800D02*
D03*
X-111362Y-14200D02*
D03*
X-60862Y-4000D02*
D03*
X-55862D02*
D03*
X-50862Y-3500D02*
D03*
X-45862D02*
D03*
X-40862D02*
D03*
X-35862D02*
D03*
X-30862D02*
D03*
X-73362Y-2500D02*
D03*
X-69862Y1000D02*
D03*
X-65862Y3000D02*
D03*
X-35862Y3500D02*
D03*
X-45862D02*
D03*
X-50862D02*
D03*
X-55862Y4000D02*
D03*
X-60862D02*
D03*
X-75362Y-6500D02*
D03*
X-76362Y-11500D02*
D03*
X-81362Y-10500D02*
D03*
X-86362D02*
D03*
X-91362Y-12000D02*
D03*
X-96362Y-14200D02*
D03*
X-101362D02*
D03*
X-106362D02*
D03*
X-69521Y-20000D02*
D03*
X-74521D02*
D03*
X-79521D02*
D03*
X-84521D02*
D03*
X-89521D02*
D03*
X-109521Y-60000D02*
D03*
X-104521D02*
D03*
X-99521D02*
D03*
X-94521D02*
D03*
X-89521D02*
D03*
X-84521D02*
D03*
X-79521D02*
D03*
X-74521D02*
D03*
X-69521D02*
D03*
X-64521D02*
D03*
X-59521D02*
D03*
X-54521D02*
D03*
X-49521D02*
D03*
X-44521D02*
D03*
X-39521D02*
D03*
X-34521D02*
D03*
X-104521Y25000D02*
D03*
X-99521D02*
D03*
X-94521D02*
D03*
X-89521D02*
D03*
X-84521D02*
D03*
X-79521D02*
D03*
X-74521D02*
D03*
X-69521D02*
D03*
X-64521D02*
D03*
X-59521D02*
D03*
X-54521D02*
D03*
X-49521D02*
D03*
X-44521D02*
D03*
X-39521D02*
D03*
X-34521D02*
D03*
X-25862Y3500D02*
D03*
X-29521Y-60000D02*
D03*
X-112521Y-135000D02*
D03*
Y-130000D02*
D03*
Y-125000D02*
D03*
Y-120000D02*
D03*
Y-115000D02*
D03*
Y-110000D02*
D03*
Y-90000D02*
D03*
Y-85000D02*
D03*
Y-80000D02*
D03*
Y-75000D02*
D03*
Y-70000D02*
D03*
Y-65000D02*
D03*
Y15000D02*
D03*
Y10000D02*
D03*
Y5000D02*
D03*
Y0D02*
D03*
Y-5000D02*
D03*
Y-10000D02*
D03*
Y-30000D02*
D03*
Y-35000D02*
D03*
Y-40000D02*
D03*
Y-45000D02*
D03*
Y-50000D02*
D03*
Y-55000D02*
D03*
Y-60000D02*
D03*
M02*
