G04*
G04 #@! TF.GenerationSoftware,Altium Limited,Altium Designer,24.4.1 (13)*
G04*
G04 Layer_Color=32896*
%FSLAX25Y25*%
%MOIN*%
G70*
G04*
G04 #@! TF.SameCoordinates,70BA40AD-3E04-444A-AD5C-AF6B0887806A*
G04*
G04*
G04 #@! TF.FilePolarity,Positive*
G04*
G01*
G75*
%ADD32C,0.01000*%
D32*
X-85023Y-93001D02*
X-84023Y-94001D01*
Y-96000D01*
X-85023Y-97000D01*
X-89022D01*
X-90022Y-96000D01*
Y-94001D01*
X-89022Y-93001D01*
X-90022Y-91002D02*
X-84023D01*
Y-88003D01*
X-85023Y-87003D01*
X-87023D01*
X-88022Y-88003D01*
Y-91002D01*
X-84023Y-85004D02*
X-90022D01*
Y-81005D01*
X-84023Y-79006D02*
X-90022D01*
Y-76007D01*
X-89022Y-75007D01*
X-88022D01*
X-87023Y-76007D01*
Y-79006D01*
Y-76007D01*
X-86023Y-75007D01*
X-85023D01*
X-84023Y-76007D01*
Y-79006D01*
X-86023Y-73008D02*
X-90022D01*
X-88022D01*
X-87023Y-72008D01*
X-86023Y-71008D01*
Y-70009D01*
X-90022Y-67010D02*
Y-65010D01*
Y-66010D01*
X-86023D01*
Y-67010D01*
X-84023Y-58013D02*
X-90022D01*
Y-61012D01*
X-89022Y-62011D01*
X-87023D01*
X-86023Y-61012D01*
Y-58013D01*
X-92021Y-54014D02*
Y-53014D01*
X-91021Y-52014D01*
X-86023D01*
Y-55014D01*
X-87023Y-56013D01*
X-89022D01*
X-90022Y-55014D01*
Y-52014D01*
Y-47016D02*
Y-49016D01*
X-89022Y-50015D01*
X-87023D01*
X-86023Y-49016D01*
Y-47016D01*
X-87023Y-46016D01*
X-88022D01*
Y-50015D01*
X-91021Y-44017D02*
Y-40018D01*
X-90022Y-38019D02*
X-84023D01*
Y-35020D01*
X-85023Y-34020D01*
X-87023D01*
X-88022Y-35020D01*
Y-38019D01*
Y-36020D02*
X-90022Y-34020D01*
X-85023Y-32021D02*
X-84023Y-31021D01*
Y-29022D01*
X-85023Y-28022D01*
X-89022D01*
X-90022Y-29022D01*
Y-31021D01*
X-89022Y-32021D01*
X-85023D01*
Y-26023D02*
X-84023Y-25023D01*
Y-23024D01*
X-85023Y-22024D01*
X-89022D01*
X-90022Y-23024D01*
Y-25023D01*
X-89022Y-26023D01*
X-85023D01*
M02*
