G04*
G04 #@! TF.GenerationSoftware,Altium Limited,Altium Designer,24.4.1 (13)*
G04*
G04 Layer_Color=255*
%FSLAX25Y25*%
%MOIN*%
G70*
G04*
G04 #@! TF.SameCoordinates,E101684F-62CE-472E-B8B6-B79B7EA84F3C*
G04*
G04*
G04 #@! TF.FilePolarity,Positive*
G04*
G01*
G75*
%ADD23R,0.05512X0.02992*%
%ADD24R,0.16000X0.07000*%
%ADD25R,0.16000X0.06000*%
%ADD26R,0.03150X0.04331*%
%ADD27R,0.04331X0.03150*%
%ADD28R,0.03150X0.04331*%
%ADD29R,0.04331X0.03150*%
%ADD30C,0.08661*%
D23*
X43198Y133000D02*
D03*
Y123000D02*
D03*
X56702D02*
D03*
Y128000D02*
D03*
Y133000D02*
D03*
X43198Y53000D02*
D03*
Y43000D02*
D03*
X56702D02*
D03*
Y48000D02*
D03*
Y53000D02*
D03*
D24*
X8950Y58000D02*
D03*
Y38000D02*
D03*
X79450Y58000D02*
D03*
Y78000D02*
D03*
Y98000D02*
D03*
Y118000D02*
D03*
Y138000D02*
D03*
Y158000D02*
D03*
X8950Y138000D02*
D03*
Y118000D02*
D03*
X79450Y18000D02*
D03*
Y38000D02*
D03*
D25*
X8950Y48000D02*
D03*
X79450Y68000D02*
D03*
Y108000D02*
D03*
Y148000D02*
D03*
X8950Y128000D02*
D03*
X79450Y28000D02*
D03*
D26*
X53997Y148000D02*
D03*
X59903D02*
D03*
X53997Y28000D02*
D03*
X59903D02*
D03*
D27*
X42950Y115953D02*
D03*
Y110047D02*
D03*
Y60047D02*
D03*
Y65953D02*
D03*
D28*
X28497Y123000D02*
D03*
X34403D02*
D03*
X28497Y133000D02*
D03*
X34403D02*
D03*
X28497Y53000D02*
D03*
X34403D02*
D03*
X28497Y43000D02*
D03*
X34403D02*
D03*
D29*
X65450Y58453D02*
D03*
Y52547D02*
D03*
Y117547D02*
D03*
Y123453D02*
D03*
D30*
X31291Y12500D02*
D03*
Y163500D02*
D03*
M02*
