G04*
G04 #@! TF.GenerationSoftware,Altium Limited,Altium Designer,24.4.1 (13)*
G04*
G04 Layer_Color=128*
%FSLAX25Y25*%
%MOIN*%
G70*
G04*
G04 #@! TF.SameCoordinates,E101684F-62CE-472E-B8B6-B79B7EA84F3C*
G04*
G04*
G04 #@! TF.FilePolarity,Positive*
G04*
G01*
G75*
%ADD11C,0.00500*%
D11*
X26961Y12500D02*
X35622D01*
X31291Y8169D02*
Y16831D01*
X26961Y163500D02*
X35622D01*
X31291Y159169D02*
Y167831D01*
X2191Y3000D02*
X3391D01*
X2791Y2400D02*
Y3600D01*
X82191Y3000D02*
X83391D01*
X82791Y2400D02*
Y3600D01*
X85191Y8000D02*
X86391D01*
X85791Y7400D02*
Y8600D01*
X2191Y8000D02*
X3391D01*
X2791Y7400D02*
Y8600D01*
X7191Y3000D02*
X8391D01*
X7791Y2400D02*
Y3600D01*
X12691Y3000D02*
X13891D01*
X13291Y2400D02*
Y3600D01*
X17191Y3000D02*
X18391D01*
X17791Y2400D02*
Y3600D01*
X22191Y3000D02*
X23391D01*
X22791Y2400D02*
Y3600D01*
X27191Y3000D02*
X28391D01*
X27791Y2400D02*
Y3600D01*
X32191Y3000D02*
X33391D01*
X32791Y2400D02*
Y3600D01*
X37191Y3000D02*
X38391D01*
X37791Y2400D02*
Y3600D01*
X42191Y3000D02*
X43391D01*
X42791Y2400D02*
Y3600D01*
X47191Y3000D02*
X48391D01*
X47791Y2400D02*
Y3600D01*
X52191Y3000D02*
X53391D01*
X52791Y2400D02*
Y3600D01*
X57191Y3000D02*
X58391D01*
X57791Y2400D02*
Y3600D01*
X62191Y3000D02*
X63391D01*
X62791Y2400D02*
Y3600D01*
X67191Y3000D02*
X68391D01*
X67791Y2400D02*
Y3600D01*
X72191Y3000D02*
X73391D01*
X72791Y2400D02*
Y3600D01*
X77191Y3000D02*
X78391D01*
X77791Y2400D02*
Y3600D01*
X2191Y173000D02*
X3391D01*
X2791Y172400D02*
Y173600D01*
X85191Y173000D02*
X86391D01*
X85791Y172400D02*
Y173600D01*
X85191Y168000D02*
X86391D01*
X85791Y167400D02*
Y168600D01*
X2191Y168000D02*
X3391D01*
X2791Y167400D02*
Y168600D01*
X25191Y48000D02*
X26391D01*
X25791Y47400D02*
Y48600D01*
X30191Y48000D02*
X31391D01*
X30791Y47400D02*
Y48600D01*
X35191Y48000D02*
X36391D01*
X35791Y47400D02*
Y48600D01*
X40191Y48000D02*
X41391D01*
X40791Y47400D02*
Y48600D01*
X45191Y48000D02*
X46391D01*
X45791Y47400D02*
Y48600D01*
X8350Y42200D02*
X9550D01*
X8950Y41600D02*
Y42800D01*
X13350Y42200D02*
X14550D01*
X13950Y41600D02*
Y42800D01*
X18350Y42200D02*
X19550D01*
X18950Y41600D02*
Y42800D01*
X23350Y40000D02*
X24550D01*
X23950Y39400D02*
Y40600D01*
X28350Y38500D02*
X29550D01*
X28950Y37900D02*
Y39100D01*
X33350Y38500D02*
X34550D01*
X33950Y37900D02*
Y39100D01*
X38350Y39500D02*
X39550D01*
X38950Y38900D02*
Y40100D01*
X39350Y34500D02*
X40550D01*
X39950Y33900D02*
Y35100D01*
X53850Y24000D02*
X55050D01*
X54450Y23400D02*
Y24600D01*
X58850Y24000D02*
X60050D01*
X59450Y23400D02*
Y24600D01*
X63850Y24500D02*
X65050D01*
X64450Y23900D02*
Y25100D01*
X68850Y23500D02*
X70050D01*
X69450Y22900D02*
Y24100D01*
X78850Y22200D02*
X80050D01*
X79450Y21600D02*
Y22800D01*
X48850Y25000D02*
X50050D01*
X49450Y24400D02*
Y25600D01*
X44850Y27000D02*
X46050D01*
X45450Y26400D02*
Y27600D01*
X41350Y30500D02*
X42550D01*
X41950Y29900D02*
Y31100D01*
X83850Y33800D02*
X85050D01*
X84450Y33200D02*
Y34400D01*
X78850Y33800D02*
X80050D01*
X79450Y33200D02*
Y34400D01*
X73850Y33800D02*
X75050D01*
X74450Y33200D02*
Y34400D01*
X68850Y32500D02*
X70050D01*
X69450Y31900D02*
Y33100D01*
X63850Y31500D02*
X65050D01*
X64450Y30900D02*
Y32100D01*
X58850Y32000D02*
X60050D01*
X59450Y31400D02*
Y32600D01*
X53850Y32000D02*
X55050D01*
X54450Y31400D02*
Y32600D01*
X3350Y42200D02*
X4550D01*
X3950Y41600D02*
Y42800D01*
X3350Y53800D02*
X4550D01*
X3950Y53200D02*
Y54400D01*
X38350Y56500D02*
X39550D01*
X38950Y55900D02*
Y57100D01*
X33350Y57500D02*
X34550D01*
X33950Y56900D02*
Y58100D01*
X28350Y57500D02*
X29550D01*
X28950Y56900D02*
Y58100D01*
X23350Y56000D02*
X24550D01*
X23950Y55400D02*
Y56600D01*
X18350Y53800D02*
X19550D01*
X18950Y53200D02*
Y54400D01*
X13350Y53800D02*
X14550D01*
X13950Y53200D02*
Y54400D01*
X8350Y53800D02*
X9550D01*
X8950Y53200D02*
Y54400D01*
X83850Y22200D02*
X85050D01*
X84450Y21600D02*
Y22800D01*
X73850Y22200D02*
X75050D01*
X74450Y21600D02*
Y22800D01*
X73850Y62200D02*
X75050D01*
X74450Y61600D02*
Y62800D01*
X83850Y62200D02*
X85050D01*
X84450Y61600D02*
Y62800D01*
X73850Y73800D02*
X75050D01*
X74450Y73200D02*
Y74400D01*
X78850Y73800D02*
X80050D01*
X79450Y73200D02*
Y74400D01*
X83850Y73800D02*
X85050D01*
X84450Y73200D02*
Y74400D01*
X78850Y62200D02*
X80050D01*
X79450Y61600D02*
Y62800D01*
X48850Y33000D02*
X50050D01*
X49450Y32400D02*
Y33600D01*
X46350Y37000D02*
X47550D01*
X46950Y36400D02*
Y37600D01*
X47350Y42000D02*
X48550D01*
X47950Y41400D02*
Y42600D01*
X55350Y39491D02*
X56550D01*
X55950Y38891D02*
Y40091D01*
X60350Y40000D02*
X61550D01*
X60950Y39400D02*
Y40600D01*
X64350Y43000D02*
X65550D01*
X64950Y42400D02*
Y43600D01*
X67350Y47000D02*
X68550D01*
X67950Y46400D02*
Y47600D01*
X69350Y51500D02*
X70550D01*
X69950Y50900D02*
Y52100D01*
X69350Y61500D02*
X70550D01*
X69950Y60900D02*
Y62100D01*
X60350Y56500D02*
X61550D01*
X60950Y55900D02*
Y57100D01*
X60350Y61500D02*
X61550D01*
X60950Y60900D02*
Y62100D01*
X62850Y66000D02*
X64050D01*
X63450Y65400D02*
Y66600D01*
X66350Y69500D02*
X67550D01*
X66950Y68900D02*
Y70100D01*
X68850Y73800D02*
X70050D01*
X69450Y73200D02*
Y74400D01*
X37350Y61500D02*
X38550D01*
X37950Y60900D02*
Y62100D01*
X47350Y61453D02*
X48550D01*
X47950Y60853D02*
Y62053D01*
X46850Y56453D02*
X48050D01*
X47450Y55853D02*
Y57053D01*
X47850Y51453D02*
X49050D01*
X48450Y50853D02*
Y52053D01*
X49850Y46453D02*
X51050D01*
X50450Y45853D02*
Y47053D01*
X51350Y41953D02*
X52550D01*
X51950Y41353D02*
Y42553D01*
X42350Y69000D02*
X43550D01*
X42950Y68400D02*
Y69600D01*
X37350Y66500D02*
X38550D01*
X37950Y65900D02*
Y67100D01*
X47350Y66500D02*
X48550D01*
X47950Y65900D02*
Y67100D01*
X69350Y56500D02*
X70550D01*
X69950Y55900D02*
Y57100D01*
X60350Y51500D02*
X61550D01*
X60950Y50900D02*
Y52100D01*
X58850Y47500D02*
X60050D01*
X59450Y46900D02*
Y48100D01*
X55350Y46491D02*
X56550D01*
X55950Y45891D02*
Y47091D01*
X55350Y129509D02*
X56550D01*
X55950Y128909D02*
Y130109D01*
X58850Y128500D02*
X60050D01*
X59450Y127900D02*
Y129100D01*
X60350Y124500D02*
X61550D01*
X60950Y123900D02*
Y125100D01*
X69350Y119500D02*
X70550D01*
X69950Y118900D02*
Y120100D01*
X47350Y109500D02*
X48550D01*
X47950Y108900D02*
Y110100D01*
X37350Y109500D02*
X38550D01*
X37950Y108900D02*
Y110100D01*
X42350Y107000D02*
X43550D01*
X42950Y106400D02*
Y107600D01*
X51350Y134047D02*
X52550D01*
X51950Y133447D02*
Y134647D01*
X49850Y129547D02*
X51050D01*
X50450Y128947D02*
Y130147D01*
X47850Y124547D02*
X49050D01*
X48450Y123947D02*
Y125147D01*
X46850Y119547D02*
X48050D01*
X47450Y118947D02*
Y120147D01*
X47350Y114547D02*
X48550D01*
X47950Y113947D02*
Y115147D01*
X37350Y114500D02*
X38550D01*
X37950Y113900D02*
Y115100D01*
X68850Y102200D02*
X70050D01*
X69450Y101600D02*
Y102800D01*
X66350Y106500D02*
X67550D01*
X66950Y105900D02*
Y107100D01*
X62850Y110000D02*
X64050D01*
X63450Y109400D02*
Y110600D01*
X60350Y114500D02*
X61550D01*
X60950Y113900D02*
Y115100D01*
X60350Y119500D02*
X61550D01*
X60950Y118900D02*
Y120100D01*
X69350Y114500D02*
X70550D01*
X69950Y113900D02*
Y115100D01*
X69350Y124500D02*
X70550D01*
X69950Y123900D02*
Y125100D01*
X67350Y129000D02*
X68550D01*
X67950Y128400D02*
Y129600D01*
X64350Y133000D02*
X65550D01*
X64950Y132400D02*
Y133600D01*
X60350Y136000D02*
X61550D01*
X60950Y135400D02*
Y136600D01*
X55350Y136509D02*
X56550D01*
X55950Y135909D02*
Y137109D01*
X47350Y134000D02*
X48550D01*
X47950Y133400D02*
Y134600D01*
X46350Y139000D02*
X47550D01*
X46950Y138400D02*
Y139600D01*
X48850Y143000D02*
X50050D01*
X49450Y142400D02*
Y143600D01*
X78850Y113800D02*
X80050D01*
X79450Y113200D02*
Y114400D01*
X83850Y102200D02*
X85050D01*
X84450Y101600D02*
Y102800D01*
X78850Y102200D02*
X80050D01*
X79450Y101600D02*
Y102800D01*
X73850Y102200D02*
X75050D01*
X74450Y101600D02*
Y102800D01*
X83850Y113800D02*
X85050D01*
X84450Y113200D02*
Y114400D01*
X73850Y113800D02*
X75050D01*
X74450Y113200D02*
Y114400D01*
X73850Y153800D02*
X75050D01*
X74450Y153200D02*
Y154400D01*
X83850Y153800D02*
X85050D01*
X84450Y153200D02*
Y154400D01*
X8350Y122200D02*
X9550D01*
X8950Y121600D02*
Y122800D01*
X13350Y122200D02*
X14550D01*
X13950Y121600D02*
Y122800D01*
X18350Y122200D02*
X19550D01*
X18950Y121600D02*
Y122800D01*
X23350Y120000D02*
X24550D01*
X23950Y119400D02*
Y120600D01*
X28350Y118500D02*
X29550D01*
X28950Y117900D02*
Y119100D01*
X33350Y118500D02*
X34550D01*
X33950Y117900D02*
Y119100D01*
X38350Y119500D02*
X39550D01*
X38950Y118900D02*
Y120100D01*
X3350Y122200D02*
X4550D01*
X3950Y121600D02*
Y122800D01*
X3350Y133800D02*
X4550D01*
X3950Y133200D02*
Y134400D01*
X53850Y144000D02*
X55050D01*
X54450Y143400D02*
Y144600D01*
X58850Y144000D02*
X60050D01*
X59450Y143400D02*
Y144600D01*
X63850Y144500D02*
X65050D01*
X64450Y143900D02*
Y145100D01*
X68850Y143500D02*
X70050D01*
X69450Y142900D02*
Y144100D01*
X73850Y142200D02*
X75050D01*
X74450Y141600D02*
Y142800D01*
X78850Y142200D02*
X80050D01*
X79450Y141600D02*
Y142800D01*
X83850Y142200D02*
X85050D01*
X84450Y141600D02*
Y142800D01*
X41350Y145500D02*
X42550D01*
X41950Y144900D02*
Y146100D01*
X44850Y149000D02*
X46050D01*
X45450Y148400D02*
Y149600D01*
X48850Y151000D02*
X50050D01*
X49450Y150400D02*
Y151600D01*
X78850Y153800D02*
X80050D01*
X79450Y153200D02*
Y154400D01*
X68850Y152500D02*
X70050D01*
X69450Y151900D02*
Y153100D01*
X63850Y151500D02*
X65050D01*
X64450Y150900D02*
Y152100D01*
X58850Y152000D02*
X60050D01*
X59450Y151400D02*
Y152600D01*
X53850Y152000D02*
X55050D01*
X54450Y151400D02*
Y152600D01*
X39350Y141500D02*
X40550D01*
X39950Y140900D02*
Y142100D01*
X38350Y136500D02*
X39550D01*
X38950Y135900D02*
Y137100D01*
X33350Y137500D02*
X34550D01*
X33950Y136900D02*
Y138100D01*
X28350Y137500D02*
X29550D01*
X28950Y136900D02*
Y138100D01*
X23350Y136000D02*
X24550D01*
X23950Y135400D02*
Y136600D01*
X18350Y133800D02*
X19550D01*
X18950Y133200D02*
Y134400D01*
X13350Y133800D02*
X14550D01*
X13950Y133200D02*
Y134400D01*
X8350Y133800D02*
X9550D01*
X8950Y133200D02*
Y134400D01*
X45191Y128000D02*
X46391D01*
X45791Y127400D02*
Y128600D01*
X40191Y128000D02*
X41391D01*
X40791Y127400D02*
Y128600D01*
X35191Y128000D02*
X36391D01*
X35791Y127400D02*
Y128600D01*
X30191Y128000D02*
X31391D01*
X30791Y127400D02*
Y128600D01*
X25191Y128000D02*
X26391D01*
X25791Y127400D02*
Y128600D01*
X5191Y88000D02*
X6391D01*
X5791Y87400D02*
Y88600D01*
X10191Y88000D02*
X11391D01*
X10791Y87400D02*
Y88600D01*
X15191Y88000D02*
X16391D01*
X15791Y87400D02*
Y88600D01*
X20191Y88000D02*
X21391D01*
X20791Y87400D02*
Y88600D01*
X25191Y88000D02*
X26391D01*
X25791Y87400D02*
Y88600D01*
X30191Y88000D02*
X31391D01*
X30791Y87400D02*
Y88600D01*
X35191Y88000D02*
X36391D01*
X35791Y87400D02*
Y88600D01*
X40191Y88000D02*
X41391D01*
X40791Y87400D02*
Y88600D01*
X45191Y88000D02*
X46391D01*
X45791Y87400D02*
Y88600D01*
X50191Y88000D02*
X51391D01*
X50791Y87400D02*
Y88600D01*
X55191Y88000D02*
X56391D01*
X55791Y87400D02*
Y88600D01*
X60191Y88000D02*
X61391D01*
X60791Y87400D02*
Y88600D01*
X65191Y88000D02*
X66391D01*
X65791Y87400D02*
Y88600D01*
X70191Y88000D02*
X71391D01*
X70791Y87400D02*
Y88600D01*
X75191Y88000D02*
X76391D01*
X75791Y87400D02*
Y88600D01*
X80191Y88000D02*
X81391D01*
X80791Y87400D02*
Y88600D01*
X85191Y13000D02*
X86391D01*
X85791Y12400D02*
Y13600D01*
X85191Y18000D02*
X86391D01*
X85791Y17400D02*
Y18600D01*
X85191Y38000D02*
X86391D01*
X85791Y37400D02*
Y38600D01*
X85191Y43000D02*
X86391D01*
X85791Y42400D02*
Y43600D01*
X85191Y48000D02*
X86391D01*
X85791Y47400D02*
Y48600D01*
X85191Y53000D02*
X86391D01*
X85791Y52400D02*
Y53600D01*
X85191Y58000D02*
X86391D01*
X85791Y57400D02*
Y58600D01*
X85191Y78000D02*
X86391D01*
X85791Y77400D02*
Y78600D01*
X85191Y83000D02*
X86391D01*
X85791Y82400D02*
Y83600D01*
X10191Y173000D02*
X11391D01*
X10791Y172400D02*
Y173600D01*
X15191Y173000D02*
X16391D01*
X15791Y172400D02*
Y173600D01*
X20191Y173000D02*
X21391D01*
X20791Y172400D02*
Y173600D01*
X25191Y173000D02*
X26391D01*
X25791Y172400D02*
Y173600D01*
X30191Y173000D02*
X31391D01*
X30791Y172400D02*
Y173600D01*
X35191Y173000D02*
X36391D01*
X35791Y172400D02*
Y173600D01*
X40191Y173000D02*
X41391D01*
X40791Y172400D02*
Y173600D01*
X45191Y173000D02*
X46391D01*
X45791Y172400D02*
Y173600D01*
X50191Y173000D02*
X51391D01*
X50791Y172400D02*
Y173600D01*
X55191Y173000D02*
X56391D01*
X55791Y172400D02*
Y173600D01*
X60191Y173000D02*
X61391D01*
X60791Y172400D02*
Y173600D01*
X65191Y173000D02*
X66391D01*
X65791Y172400D02*
Y173600D01*
X70191Y173000D02*
X71391D01*
X70791Y172400D02*
Y173600D01*
X75191Y173000D02*
X76391D01*
X75791Y172400D02*
Y173600D01*
X80191Y173000D02*
X81391D01*
X80791Y172400D02*
Y173600D01*
X85191Y163000D02*
X86391D01*
X85791Y162400D02*
Y163600D01*
X85191Y158000D02*
X86391D01*
X85791Y157400D02*
Y158600D01*
X85191Y138000D02*
X86391D01*
X85791Y137400D02*
Y138600D01*
X85191Y133000D02*
X86391D01*
X85791Y132400D02*
Y133600D01*
X85191Y128000D02*
X86391D01*
X85791Y127400D02*
Y128600D01*
X85191Y123000D02*
X86391D01*
X85791Y122400D02*
Y123600D01*
X85191Y118000D02*
X86391D01*
X85791Y117400D02*
Y118600D01*
X85191Y98000D02*
X86391D01*
X85791Y97400D02*
Y98600D01*
X85191Y93000D02*
X86391D01*
X85791Y92400D02*
Y93600D01*
X85191Y88000D02*
X86391D01*
X85791Y87400D02*
Y88600D01*
X2191Y13000D02*
X3391D01*
X2791Y12400D02*
Y13600D01*
X2191Y18000D02*
X3391D01*
X2791Y17400D02*
Y18600D01*
X2191Y23000D02*
X3391D01*
X2791Y22400D02*
Y23600D01*
X2191Y28000D02*
X3391D01*
X2791Y27400D02*
Y28600D01*
X2191Y33000D02*
X3391D01*
X2791Y32400D02*
Y33600D01*
X2191Y38000D02*
X3391D01*
X2791Y37400D02*
Y38600D01*
X2191Y58000D02*
X3391D01*
X2791Y57400D02*
Y58600D01*
X2191Y63000D02*
X3391D01*
X2791Y62400D02*
Y63600D01*
X2191Y68000D02*
X3391D01*
X2791Y67400D02*
Y68600D01*
X2191Y73000D02*
X3391D01*
X2791Y72400D02*
Y73600D01*
X2191Y78000D02*
X3391D01*
X2791Y77400D02*
Y78600D01*
X2191Y83000D02*
X3391D01*
X2791Y82400D02*
Y83600D01*
X2191Y163000D02*
X3391D01*
X2791Y162400D02*
Y163600D01*
X2191Y158000D02*
X3391D01*
X2791Y157400D02*
Y158600D01*
X2191Y153000D02*
X3391D01*
X2791Y152400D02*
Y153600D01*
X2191Y148000D02*
X3391D01*
X2791Y147400D02*
Y148600D01*
X2191Y143000D02*
X3391D01*
X2791Y142400D02*
Y143600D01*
X2191Y138000D02*
X3391D01*
X2791Y137400D02*
Y138600D01*
X2191Y118000D02*
X3391D01*
X2791Y117400D02*
Y118600D01*
X2191Y113000D02*
X3391D01*
X2791Y112400D02*
Y113600D01*
X2191Y108000D02*
X3391D01*
X2791Y107400D02*
Y108600D01*
X2191Y103000D02*
X3391D01*
X2791Y102400D02*
Y103600D01*
X2191Y98000D02*
X3391D01*
X2791Y97400D02*
Y98600D01*
X2191Y93000D02*
X3391D01*
X2791Y92400D02*
Y93600D01*
X2191Y88000D02*
X3391D01*
X2791Y87400D02*
Y88600D01*
M02*
