G04*
G04 #@! TF.GenerationSoftware,Altium Limited,Altium Designer,24.5.2 (23)*
G04*
G04 Layer_Color=10066329*
%FSLAX25Y25*%
%MOIN*%
G70*
G04*
G04 #@! TF.SameCoordinates,466BDFCD-25A3-4837-BAAA-452BE7E626CC*
G04*
G04*
G04 #@! TF.FilePolarity,Positive*
G04*
G01*
G75*
%ADD12C,0.01000*%
%ADD61C,0.00600*%
D12*
X-303Y-20957D02*
X5697Y-18957D01*
X-303Y-20957D02*
X5697Y-22957D01*
X269287D02*
X275287Y-20957D01*
X269287Y-18957D02*
X275287Y-20957D01*
X-303D02*
X120797D01*
X150988D02*
X275287D01*
X-303Y-21957D02*
Y500D01*
X275287Y-21957D02*
Y500D01*
X289067Y177665D02*
X291067Y171665D01*
X287067D02*
X289067Y177665D01*
X287067Y6500D02*
X289067Y500D01*
X291067Y6500D01*
X289067Y102578D02*
Y177665D01*
Y500D02*
Y72387D01*
X275287Y177665D02*
X290067D01*
X275287Y500D02*
X290067D01*
D61*
X122397Y-18558D02*
X126395D01*
Y-19557D01*
X122397Y-23556D01*
Y-24556D01*
X128395Y-19557D02*
X129394Y-18558D01*
X131394D01*
X132393Y-19557D01*
Y-23556D01*
X131394Y-24556D01*
X129394D01*
X128395Y-23556D01*
Y-19557D01*
X134393Y-24556D02*
Y-23556D01*
X135392D01*
Y-24556D01*
X134393D01*
X139391Y-19557D02*
X140391Y-18558D01*
X142390D01*
X143390Y-19557D01*
Y-23556D01*
X142390Y-24556D01*
X140391D01*
X139391Y-23556D01*
Y-19557D01*
X145389D02*
X146389Y-18558D01*
X148388D01*
X149388Y-19557D01*
Y-23556D01*
X148388Y-24556D01*
X146389D01*
X145389Y-23556D01*
Y-19557D01*
X292666Y76986D02*
X286668D01*
X289667Y73987D01*
Y77986D01*
X286668Y83984D02*
Y79985D01*
X289667D01*
X288667Y81985D01*
Y82984D01*
X289667Y83984D01*
X291666D01*
X292666Y82984D01*
Y80985D01*
X291666Y79985D01*
X292666Y85983D02*
X291666D01*
Y86983D01*
X292666D01*
Y85983D01*
X287668Y90982D02*
X286668Y91981D01*
Y93981D01*
X287668Y94980D01*
X291666D01*
X292666Y93981D01*
Y91981D01*
X291666Y90982D01*
X287668D01*
Y96980D02*
X286668Y97979D01*
Y99979D01*
X287668Y100978D01*
X291666D01*
X292666Y99979D01*
Y97979D01*
X291666Y96980D01*
X287668D01*
M02*
