G04*
G04 #@! TF.GenerationSoftware,Altium Limited,Altium Designer,24.4.1 (13)*
G04*
G04 Layer_Color=65535*
%FSLAX25Y25*%
%MOIN*%
G70*
G04*
G04 #@! TF.SameCoordinates,8584FE8A-8FE8-497F-BE15-97A27C2B3E29*
G04*
G04*
G04 #@! TF.FilePolarity,Positive*
G04*
G01*
G75*
%ADD10C,0.00500*%
%ADD11C,0.00600*%
G36*
X143354Y97622D02*
Y97616D01*
Y97594D01*
Y97566D01*
Y97527D01*
X143348Y97477D01*
Y97422D01*
X143343Y97355D01*
X143337Y97289D01*
X143321Y97139D01*
X143298Y96983D01*
X143265Y96833D01*
X143243Y96761D01*
X143221Y96695D01*
Y96689D01*
X143215Y96678D01*
X143204Y96662D01*
X143193Y96639D01*
X143159Y96578D01*
X143110Y96500D01*
X143043Y96412D01*
X142965Y96323D01*
X142865Y96228D01*
X142743Y96145D01*
X142738D01*
X142727Y96134D01*
X142710Y96129D01*
X142682Y96112D01*
X142649Y96095D01*
X142604Y96079D01*
X142560Y96062D01*
X142505Y96040D01*
X142444Y96018D01*
X142377Y96001D01*
X142305Y95984D01*
X142222Y95968D01*
X142138Y95957D01*
X142050Y95946D01*
X141850Y95934D01*
X141800D01*
X141761Y95940D01*
X141717D01*
X141661Y95946D01*
X141600Y95951D01*
X141539Y95957D01*
X141400Y95979D01*
X141250Y96012D01*
X141106Y96056D01*
X140967Y96118D01*
X140962D01*
X140951Y96129D01*
X140934Y96140D01*
X140912Y96151D01*
X140851Y96195D01*
X140779Y96256D01*
X140695Y96334D01*
X140618Y96423D01*
X140540Y96534D01*
X140479Y96656D01*
Y96662D01*
X140473Y96673D01*
X140468Y96695D01*
X140457Y96723D01*
X140446Y96756D01*
X140434Y96800D01*
X140418Y96850D01*
X140407Y96911D01*
X140396Y96978D01*
X140379Y97050D01*
X140368Y97128D01*
X140357Y97211D01*
X140346Y97305D01*
X140340Y97405D01*
X140334Y97511D01*
Y97622D01*
Y99842D01*
X140845D01*
Y97622D01*
Y97616D01*
Y97599D01*
Y97572D01*
Y97538D01*
X140851Y97500D01*
Y97449D01*
X140856Y97344D01*
X140867Y97222D01*
X140884Y97100D01*
X140906Y96983D01*
X140917Y96933D01*
X140934Y96883D01*
X140939Y96872D01*
X140951Y96845D01*
X140978Y96806D01*
X141012Y96750D01*
X141051Y96695D01*
X141106Y96634D01*
X141173Y96573D01*
X141250Y96523D01*
X141261Y96517D01*
X141289Y96500D01*
X141339Y96484D01*
X141406Y96462D01*
X141483Y96434D01*
X141583Y96417D01*
X141689Y96401D01*
X141805Y96395D01*
X141861D01*
X141894Y96401D01*
X141944D01*
X141994Y96406D01*
X142116Y96428D01*
X142249Y96456D01*
X142377Y96500D01*
X142499Y96561D01*
X142554Y96600D01*
X142604Y96645D01*
X142610Y96650D01*
X142616Y96656D01*
X142627Y96673D01*
X142643Y96695D01*
X142660Y96728D01*
X142682Y96761D01*
X142704Y96811D01*
X142727Y96861D01*
X142749Y96922D01*
X142765Y96994D01*
X142788Y97078D01*
X142804Y97167D01*
X142821Y97266D01*
X142832Y97372D01*
X142843Y97494D01*
Y97622D01*
Y99842D01*
X143354D01*
Y97622D01*
D02*
G37*
G36*
X146956Y99387D02*
X145690D01*
Y96001D01*
X145180D01*
Y99387D01*
X143914D01*
Y99842D01*
X146956D01*
Y99387D01*
D02*
G37*
G36*
X137926Y99903D02*
X137976D01*
X138026Y99897D01*
X138092Y99886D01*
X138159Y99875D01*
X138303Y99847D01*
X138470Y99803D01*
X138631Y99736D01*
X138714Y99697D01*
X138797Y99653D01*
X138803Y99647D01*
X138814Y99642D01*
X138836Y99625D01*
X138869Y99608D01*
X138903Y99581D01*
X138947Y99547D01*
X139041Y99470D01*
X139141Y99370D01*
X139252Y99248D01*
X139358Y99103D01*
X139447Y98943D01*
Y98937D01*
X139458Y98920D01*
X139469Y98898D01*
X139480Y98865D01*
X139502Y98820D01*
X139519Y98770D01*
X139541Y98709D01*
X139563Y98643D01*
X139580Y98571D01*
X139602Y98493D01*
X139624Y98404D01*
X139641Y98315D01*
X139663Y98121D01*
X139674Y97910D01*
Y97905D01*
Y97882D01*
Y97855D01*
X139669Y97810D01*
Y97760D01*
X139663Y97699D01*
X139652Y97633D01*
X139646Y97561D01*
X139619Y97400D01*
X139574Y97222D01*
X139513Y97044D01*
X139480Y96956D01*
X139435Y96867D01*
Y96861D01*
X139424Y96845D01*
X139413Y96822D01*
X139391Y96789D01*
X139369Y96750D01*
X139341Y96711D01*
X139263Y96606D01*
X139169Y96495D01*
X139058Y96378D01*
X138925Y96267D01*
X138769Y96167D01*
X138764D01*
X138753Y96156D01*
X138725Y96145D01*
X138692Y96129D01*
X138653Y96112D01*
X138609Y96095D01*
X138553Y96073D01*
X138492Y96051D01*
X138425Y96029D01*
X138353Y96007D01*
X138192Y95973D01*
X138020Y95946D01*
X137837Y95934D01*
X137782D01*
X137748Y95940D01*
X137698D01*
X137643Y95951D01*
X137582Y95957D01*
X137510Y95968D01*
X137360Y96001D01*
X137199Y96045D01*
X137032Y96112D01*
X136949Y96151D01*
X136866Y96195D01*
X136860Y96201D01*
X136849Y96206D01*
X136827Y96223D01*
X136794Y96245D01*
X136760Y96267D01*
X136722Y96301D01*
X136627Y96384D01*
X136522Y96484D01*
X136411Y96606D01*
X136311Y96745D01*
X136216Y96906D01*
Y96911D01*
X136205Y96928D01*
X136194Y96950D01*
X136183Y96983D01*
X136167Y97028D01*
X136150Y97078D01*
X136128Y97133D01*
X136111Y97194D01*
X136089Y97266D01*
X136067Y97338D01*
X136033Y97505D01*
X136011Y97677D01*
X136000Y97866D01*
Y97871D01*
Y97877D01*
Y97910D01*
X136005Y97960D01*
Y98027D01*
X136017Y98104D01*
X136028Y98199D01*
X136044Y98304D01*
X136067Y98415D01*
X136089Y98532D01*
X136122Y98654D01*
X136167Y98776D01*
X136216Y98904D01*
X136272Y99026D01*
X136344Y99148D01*
X136422Y99259D01*
X136511Y99364D01*
X136516Y99370D01*
X136533Y99387D01*
X136566Y99414D01*
X136605Y99448D01*
X136655Y99492D01*
X136716Y99536D01*
X136788Y99586D01*
X136871Y99636D01*
X136960Y99686D01*
X137060Y99736D01*
X137171Y99781D01*
X137288Y99825D01*
X137415Y99858D01*
X137548Y99886D01*
X137687Y99903D01*
X137837Y99908D01*
X137887D01*
X137926Y99903D01*
D02*
G37*
G36*
X24586Y27500D02*
X24059D01*
X22050Y30514D01*
Y27500D01*
X21561D01*
Y31341D01*
X22083D01*
X24098Y28321D01*
Y31341D01*
X24586D01*
Y27500D01*
D02*
G37*
G36*
X20668D02*
X20157D01*
Y31341D01*
X20668D01*
Y27500D01*
D02*
G37*
G36*
X15168Y31335D02*
X15262Y31330D01*
X15362Y31324D01*
X15456Y31313D01*
X15539Y31302D01*
X15551D01*
X15589Y31291D01*
X15639Y31280D01*
X15706Y31263D01*
X15778Y31235D01*
X15856Y31202D01*
X15939Y31163D01*
X16011Y31119D01*
X16022Y31113D01*
X16045Y31096D01*
X16078Y31063D01*
X16122Y31024D01*
X16172Y30974D01*
X16222Y30908D01*
X16277Y30836D01*
X16322Y30752D01*
X16328Y30741D01*
X16339Y30713D01*
X16361Y30663D01*
X16383Y30597D01*
X16400Y30519D01*
X16422Y30430D01*
X16433Y30331D01*
X16439Y30225D01*
Y30220D01*
Y30203D01*
Y30181D01*
X16433Y30142D01*
X16427Y30103D01*
X16422Y30053D01*
X16411Y29998D01*
X16400Y29937D01*
X16361Y29809D01*
X16339Y29742D01*
X16305Y29670D01*
X16266Y29598D01*
X16228Y29531D01*
X16178Y29465D01*
X16122Y29398D01*
X16117Y29392D01*
X16105Y29381D01*
X16089Y29365D01*
X16061Y29348D01*
X16028Y29320D01*
X15983Y29293D01*
X15928Y29259D01*
X15867Y29232D01*
X15795Y29198D01*
X15711Y29165D01*
X15623Y29137D01*
X15517Y29115D01*
X15406Y29093D01*
X15284Y29076D01*
X15145Y29065D01*
X15001Y29060D01*
X14019D01*
Y27500D01*
X13508D01*
Y31341D01*
X15084D01*
X15168Y31335D01*
D02*
G37*
G36*
X11011Y27955D02*
X12903D01*
Y27500D01*
X10500D01*
Y31341D01*
X11011D01*
Y27955D01*
D02*
G37*
G36*
X19713Y26434D02*
X16588D01*
Y26773D01*
X19713D01*
Y26434D01*
D02*
G37*
%LPC*%
G36*
X137837Y99470D02*
X137787D01*
X137748Y99464D01*
X137698Y99459D01*
X137648Y99448D01*
X137587Y99436D01*
X137521Y99425D01*
X137376Y99381D01*
X137299Y99348D01*
X137221Y99314D01*
X137138Y99270D01*
X137060Y99220D01*
X136982Y99164D01*
X136910Y99098D01*
X136905Y99092D01*
X136894Y99081D01*
X136877Y99059D01*
X136849Y99026D01*
X136821Y98987D01*
X136788Y98937D01*
X136755Y98876D01*
X136716Y98804D01*
X136683Y98726D01*
X136644Y98632D01*
X136610Y98532D01*
X136583Y98421D01*
X136555Y98299D01*
X136538Y98160D01*
X136527Y98016D01*
X136522Y97860D01*
Y97855D01*
Y97833D01*
Y97794D01*
X136527Y97744D01*
X136533Y97688D01*
X136544Y97622D01*
X136555Y97544D01*
X136566Y97466D01*
X136610Y97289D01*
X136644Y97200D01*
X136677Y97105D01*
X136722Y97017D01*
X136772Y96928D01*
X136827Y96845D01*
X136894Y96767D01*
X136899Y96761D01*
X136910Y96750D01*
X136932Y96728D01*
X136960Y96706D01*
X136999Y96673D01*
X137043Y96639D01*
X137093Y96606D01*
X137149Y96567D01*
X137215Y96528D01*
X137288Y96495D01*
X137365Y96462D01*
X137449Y96428D01*
X137537Y96406D01*
X137626Y96384D01*
X137726Y96373D01*
X137831Y96367D01*
X137859D01*
X137887Y96373D01*
X137926D01*
X137976Y96378D01*
X138031Y96390D01*
X138098Y96401D01*
X138164Y96417D01*
X138242Y96439D01*
X138314Y96467D01*
X138398Y96495D01*
X138475Y96534D01*
X138553Y96584D01*
X138631Y96634D01*
X138708Y96695D01*
X138780Y96767D01*
X138786Y96772D01*
X138797Y96784D01*
X138814Y96811D01*
X138842Y96845D01*
X138869Y96883D01*
X138897Y96933D01*
X138930Y96994D01*
X138969Y97061D01*
X139003Y97139D01*
X139036Y97228D01*
X139064Y97322D01*
X139097Y97422D01*
X139119Y97533D01*
X139136Y97655D01*
X139147Y97783D01*
X139152Y97916D01*
Y97921D01*
Y97938D01*
Y97960D01*
Y97993D01*
X139147Y98032D01*
Y98082D01*
X139141Y98132D01*
X139130Y98193D01*
X139114Y98321D01*
X139086Y98454D01*
X139047Y98598D01*
X138991Y98732D01*
Y98737D01*
X138986Y98748D01*
X138975Y98765D01*
X138964Y98787D01*
X138925Y98854D01*
X138875Y98931D01*
X138808Y99020D01*
X138725Y99109D01*
X138631Y99198D01*
X138525Y99275D01*
X138520D01*
X138514Y99287D01*
X138497Y99292D01*
X138470Y99309D01*
X138442Y99320D01*
X138409Y99336D01*
X138326Y99375D01*
X138225Y99409D01*
X138109Y99442D01*
X137976Y99464D01*
X137837Y99470D01*
D02*
G37*
G36*
X15118Y30885D02*
X14019D01*
Y29515D01*
X15051D01*
X15090Y29520D01*
X15129D01*
X15173Y29526D01*
X15279Y29537D01*
X15395Y29559D01*
X15512Y29592D01*
X15617Y29637D01*
X15667Y29664D01*
X15706Y29698D01*
X15717Y29709D01*
X15739Y29731D01*
X15773Y29776D01*
X15811Y29831D01*
X15850Y29903D01*
X15883Y29992D01*
X15906Y30092D01*
X15917Y30208D01*
Y30214D01*
Y30220D01*
Y30247D01*
X15911Y30297D01*
X15900Y30353D01*
X15889Y30414D01*
X15867Y30486D01*
X15834Y30553D01*
X15795Y30619D01*
X15789Y30625D01*
X15773Y30647D01*
X15745Y30675D01*
X15711Y30713D01*
X15662Y30752D01*
X15606Y30786D01*
X15545Y30819D01*
X15473Y30847D01*
X15467D01*
X15445Y30852D01*
X15412Y30858D01*
X15367Y30869D01*
X15301Y30874D01*
X15217Y30880D01*
X15118Y30885D01*
D02*
G37*
%LPD*%
D10*
X85031Y51437D02*
G03*
X85031Y51437I-787J0D01*
G01*
X48543Y108563D02*
G03*
X48543Y108563I-787J0D01*
G01*
X85031Y116437D02*
G03*
X85031Y116437I-787J0D01*
G01*
X48543Y43563D02*
G03*
X48543Y43563I-787J0D01*
G01*
X116000Y68500D02*
X118000D01*
X117000Y69500D02*
X118000Y68500D01*
X116000D02*
X117000Y69500D01*
X116000Y75000D02*
X126000D01*
X116000Y85000D02*
X126000D01*
X116000Y75000D02*
Y85000D01*
X126000Y75000D02*
Y85000D01*
X34250Y75000D02*
X36750Y72500D01*
Y77500D01*
X34250Y75000D02*
X36750Y77500D01*
X32500Y70000D02*
Y90000D01*
X12500D02*
X32500D01*
X12500Y70000D02*
X32500D01*
X12500D02*
Y90000D01*
X10500Y62000D02*
X28000D01*
X10500Y33000D02*
X28000D01*
Y62000D01*
X73000Y18000D02*
Y26000D01*
X79000Y18000D02*
Y26000D01*
X53000Y18000D02*
Y26000D01*
X59000Y18000D02*
Y26000D01*
X86606Y52618D02*
Y53405D01*
X94087D01*
Y52618D02*
Y53405D01*
Y41594D02*
Y42382D01*
X86606Y41594D02*
X94087D01*
X86606D02*
Y42382D01*
X53000Y69000D02*
Y77000D01*
X59000Y69000D02*
Y77000D01*
X62000Y66500D02*
X70000D01*
X62000Y73500D02*
X70000D01*
X73000Y69000D02*
Y77000D01*
X79000Y69000D02*
Y77000D01*
X45394Y106595D02*
Y107382D01*
X37913Y106595D02*
X45394D01*
X37913D02*
Y107382D01*
Y117618D02*
Y118405D01*
X45394D01*
Y117618D02*
Y118405D01*
X62000Y94500D02*
X70000D01*
X62000Y88500D02*
X70000D01*
X86606Y117618D02*
Y118405D01*
X94087D01*
Y117618D02*
Y118405D01*
Y106595D02*
Y107382D01*
X86606Y106595D02*
X94087D01*
X86606D02*
Y107382D01*
X128500Y106500D02*
X148500D01*
Y136500D01*
X128500Y106500D02*
Y136500D01*
X148500D01*
X141000Y140370D02*
X143500Y137870D01*
X141000Y140370D02*
X146000D01*
X143500Y137870D02*
X146000Y140370D01*
X71500Y133000D02*
Y141000D01*
X80500Y133000D02*
Y141000D01*
X62000Y124500D02*
X70000D01*
X62000Y118500D02*
X70000D01*
X62000Y136500D02*
X70000D01*
X62000Y130500D02*
X70000D01*
X60500Y133000D02*
Y141000D01*
X51500Y133000D02*
Y141000D01*
X10610Y127000D02*
X28110D01*
X10610Y98000D02*
X28110D01*
Y127000D01*
X112500Y63500D02*
Y71500D01*
X106500Y63500D02*
Y71500D01*
X100500Y72500D02*
Y80500D01*
X106500Y72500D02*
Y80500D01*
Y85500D02*
Y93500D01*
X100500Y85500D02*
Y93500D01*
X62000Y21500D02*
X70000D01*
X62000Y28500D02*
X70000D01*
X53000Y30563D02*
Y38563D01*
X59000Y30563D02*
Y38563D01*
X73000Y30563D02*
Y38563D01*
X79000Y30563D02*
Y38563D01*
X62000Y106500D02*
X70000D01*
X62000Y100500D02*
X70000D01*
X72500Y96663D02*
Y104663D01*
X79500Y96663D02*
Y104663D01*
X52500Y96937D02*
Y104937D01*
X59500Y96937D02*
Y104937D01*
X52500Y85000D02*
Y93000D01*
X59500Y85000D02*
Y93000D01*
X72500Y85000D02*
Y93000D01*
X79500Y85000D02*
Y93000D01*
X72500Y119937D02*
Y127937D01*
X79500Y119937D02*
Y127937D01*
X59500Y119937D02*
Y127937D01*
X52500Y119937D02*
Y127937D01*
X131000Y19630D02*
X133500Y22130D01*
X131000Y19630D02*
X136000D01*
X133500Y22130D02*
X136000Y19630D01*
X128500Y23500D02*
X148500D01*
Y53500D01*
X128500Y23500D02*
Y53500D01*
X148500D01*
X45394Y52618D02*
Y53405D01*
X37913D02*
X45394D01*
X37913Y52618D02*
Y53405D01*
Y41594D02*
Y42382D01*
Y41594D02*
X45394D01*
Y42382D01*
X135980Y65500D02*
Y94500D01*
X153480D01*
X135980Y65500D02*
X153480D01*
X62000Y41500D02*
X70000D01*
X62000Y34500D02*
X70000D01*
X79000Y56063D02*
Y64063D01*
X73000Y56063D02*
Y64063D01*
X59000Y56063D02*
Y64063D01*
X53000Y56063D02*
Y64063D01*
X62000Y60500D02*
X70000D01*
X62000Y53500D02*
X70000D01*
D11*
X143266Y22099D02*
X140600D01*
Y18100D01*
X143266D01*
X140600Y20099D02*
X141933D01*
X144599Y21432D02*
X145265Y22099D01*
X146598D01*
X147265Y21432D01*
Y20766D01*
X146598Y20099D01*
X145932D01*
X146598D01*
X147265Y19433D01*
Y18767D01*
X146598Y18100D01*
X145265D01*
X144599Y18767D01*
X131266Y142099D02*
X128600D01*
Y138100D01*
X131266D01*
X128600Y140099D02*
X129933D01*
X135265Y138100D02*
X132599D01*
X135265Y140766D01*
Y141432D01*
X134598Y142099D01*
X133265D01*
X132599Y141432D01*
X7266Y74599D02*
X4600D01*
Y70600D01*
X7266D01*
X4600Y72599D02*
X5933D01*
X8599Y70600D02*
X9932D01*
X9265D01*
Y74599D01*
X8599Y73932D01*
X25652Y153338D02*
Y149339D01*
Y151339D01*
X28318D01*
Y153338D01*
Y149339D01*
X29651D02*
Y153338D01*
X31650D01*
X32317Y152671D01*
Y151339D01*
X31650Y150672D01*
X29651D01*
X33650Y148673D02*
X36316D01*
X40314Y152671D02*
X39648Y153338D01*
X38315D01*
X37648Y152671D01*
Y152005D01*
X38315Y151339D01*
X39648D01*
X40314Y150672D01*
Y150006D01*
X39648Y149339D01*
X38315D01*
X37648Y150006D01*
X43646Y149339D02*
X42314D01*
X41647Y150006D01*
Y151339D01*
X42314Y152005D01*
X43646D01*
X44313Y151339D01*
Y150672D01*
X41647D01*
X48312Y152005D02*
X46312D01*
X45646Y151339D01*
Y150006D01*
X46312Y149339D01*
X48312D01*
X50311Y152671D02*
Y152005D01*
X49645D01*
X50977D01*
X50311D01*
Y150006D01*
X50977Y149339D01*
X52977D02*
X54310D01*
X53643D01*
Y152005D01*
X52977D01*
X56976Y149339D02*
X58308D01*
X58975Y150006D01*
Y151339D01*
X58308Y152005D01*
X56976D01*
X56309Y151339D01*
Y150006D01*
X56976Y149339D01*
X60308D02*
Y152005D01*
X62307D01*
X62974Y151339D01*
Y149339D01*
X10100Y133265D02*
Y129267D01*
Y131266D01*
X12766D01*
Y133265D01*
Y129267D01*
X14099D02*
Y133265D01*
X16098D01*
X16765Y132599D01*
Y131266D01*
X16098Y130599D01*
X14099D01*
X18097Y128600D02*
X20763D01*
X22096Y133265D02*
X23429D01*
X22763D01*
Y129267D01*
X22096D01*
X23429D01*
X25428D02*
Y133265D01*
X28094Y129267D01*
Y133265D01*
X80710Y5266D02*
Y9265D01*
X82710D01*
X83376Y8599D01*
Y7266D01*
X82710Y6599D01*
X80710D01*
X84709Y9265D02*
Y5266D01*
Y7266D01*
X87375D01*
Y9265D01*
Y5266D01*
X88708Y4600D02*
X91373D01*
X95372Y8599D02*
X94706Y9265D01*
X93373D01*
X92706Y8599D01*
Y7932D01*
X93373Y7266D01*
X94706D01*
X95372Y6599D01*
Y5933D01*
X94706Y5266D01*
X93373D01*
X92706Y5933D01*
X96705Y9265D02*
Y5266D01*
Y7266D01*
X97372Y7932D01*
X98704D01*
X99371Y7266D01*
Y5266D01*
X100704D02*
X102037D01*
X101370D01*
Y7932D01*
X100704D01*
X104702Y5266D02*
Y8599D01*
Y7266D01*
X104036D01*
X105369D01*
X104702D01*
Y8599D01*
X105369Y9265D01*
X108035Y8599D02*
Y7932D01*
X107368D01*
X108701D01*
X108035D01*
Y5933D01*
X108701Y5266D01*
X112700D02*
X111367D01*
X110701Y5933D01*
Y7266D01*
X111367Y7932D01*
X112700D01*
X113366Y7266D01*
Y6599D01*
X110701D01*
X114699Y7932D02*
Y5266D01*
Y6599D01*
X115366Y7266D01*
X116032Y7932D01*
X116699D01*
X118698Y4600D02*
X121364D01*
X122697Y5266D02*
Y9265D01*
X124696D01*
X125363Y8599D01*
Y7266D01*
X124696Y6599D01*
X122697D01*
X124030D02*
X125363Y5266D01*
X126695Y8599D02*
X127362Y9265D01*
X128695D01*
X129361Y8599D01*
Y5933D01*
X128695Y5266D01*
X127362D01*
X126695Y5933D01*
Y8599D01*
X130694D02*
X131361Y9265D01*
X132694D01*
X133360Y8599D01*
Y5933D01*
X132694Y5266D01*
X131361D01*
X130694Y5933D01*
Y8599D01*
X23100Y12265D02*
Y8266D01*
X25766D01*
X27099D02*
Y12265D01*
X29098D01*
X29765Y11599D01*
Y10266D01*
X29098Y9599D01*
X27099D01*
X31097Y7600D02*
X33763D01*
X37762Y11599D02*
X37095Y12265D01*
X35763D01*
X35096Y11599D01*
Y10932D01*
X35763Y10266D01*
X37095D01*
X37762Y9599D01*
Y8933D01*
X37095Y8266D01*
X35763D01*
X35096Y8933D01*
X41094Y8266D02*
X39761D01*
X39095Y8933D01*
Y10266D01*
X39761Y10932D01*
X41094D01*
X41761Y10266D01*
Y9599D01*
X39095D01*
X45759Y10932D02*
X43760D01*
X43093Y10266D01*
Y8933D01*
X43760Y8266D01*
X45759D01*
X47759Y11599D02*
Y10932D01*
X47092D01*
X48425D01*
X47759D01*
Y8933D01*
X48425Y8266D01*
X50424D02*
X51757D01*
X51091D01*
Y10932D01*
X50424D01*
X54423Y8266D02*
X55756D01*
X56423Y8933D01*
Y10266D01*
X55756Y10932D01*
X54423D01*
X53757Y10266D01*
Y8933D01*
X54423Y8266D01*
X57756D02*
Y10932D01*
X59755D01*
X60421Y10266D01*
Y8266D01*
X125168Y94999D02*
Y91667D01*
X125834Y91001D01*
X127167D01*
X127833Y91667D01*
Y94999D01*
X131832D02*
X129166D01*
Y93000D01*
X130499Y93666D01*
X131166D01*
X131832Y93000D01*
Y91667D01*
X131166Y91001D01*
X129833D01*
X129166Y91667D01*
X61112Y79499D02*
Y75501D01*
X63778D01*
X65111D02*
X66444D01*
X65777D01*
Y79499D01*
X65111Y78833D01*
X71109Y75501D02*
X68443D01*
X71109Y78166D01*
Y78833D01*
X70442Y79499D01*
X69109D01*
X68443Y78833D01*
X61668Y20499D02*
Y16501D01*
X64334D01*
X65667D02*
X67000D01*
X66333D01*
Y20499D01*
X65667Y19833D01*
X68999Y16501D02*
X70332D01*
X69665D01*
Y20499D01*
X68999Y19833D01*
X83278Y78333D02*
X82611Y78999D01*
X81278D01*
X80612Y78333D01*
Y75667D01*
X81278Y75001D01*
X82611D01*
X83278Y75667D01*
X84611Y75001D02*
X85944D01*
X85277D01*
Y78999D01*
X84611Y78333D01*
X87943Y78999D02*
X90609D01*
Y78333D01*
X87943Y75667D01*
Y75001D01*
X43778Y78833D02*
X43111Y79499D01*
X41778D01*
X41112Y78833D01*
Y76167D01*
X41778Y75501D01*
X43111D01*
X43778Y76167D01*
X45111Y75501D02*
X46444D01*
X45777D01*
Y79499D01*
X45111Y78833D01*
X51109Y79499D02*
X49776Y78833D01*
X48443Y77500D01*
Y76167D01*
X49109Y75501D01*
X50442D01*
X51109Y76167D01*
Y76833D01*
X50442Y77500D01*
X48443D01*
X84278Y24833D02*
X83611Y25499D01*
X82278D01*
X81612Y24833D01*
Y22167D01*
X82278Y21501D01*
X83611D01*
X84278Y22167D01*
X85611Y21501D02*
X86944D01*
X86277D01*
Y25499D01*
X85611Y24833D01*
X91609Y25499D02*
X88943D01*
Y23500D01*
X90276Y24166D01*
X90942D01*
X91609Y23500D01*
Y22167D01*
X90942Y21501D01*
X89609D01*
X88943Y22167D01*
X43778Y26833D02*
X43111Y27499D01*
X41778D01*
X41112Y26833D01*
Y24167D01*
X41778Y23501D01*
X43111D01*
X43778Y24167D01*
X45111Y23501D02*
X46444D01*
X45777D01*
Y27499D01*
X45111Y26833D01*
X50442Y23501D02*
Y27499D01*
X48443Y25500D01*
X51109D01*
X113444Y60833D02*
X112777Y61499D01*
X111444D01*
X110778Y60833D01*
Y58167D01*
X111444Y57501D01*
X112777D01*
X113444Y58167D01*
X114777Y60833D02*
X115443Y61499D01*
X116776D01*
X117443Y60833D01*
Y60166D01*
X116776Y59500D01*
X117443Y58833D01*
Y58167D01*
X116776Y57501D01*
X115443D01*
X114777Y58167D01*
Y58833D01*
X115443Y59500D01*
X114777Y60166D01*
Y60833D01*
X115443Y59500D02*
X116776D01*
X94944Y95833D02*
X94277Y96499D01*
X92944D01*
X92278Y95833D01*
Y93167D01*
X92944Y92501D01*
X94277D01*
X94944Y93167D01*
X98943Y96499D02*
X97610Y95833D01*
X96277Y94500D01*
Y93167D01*
X96943Y92501D01*
X98276D01*
X98943Y93167D01*
Y93834D01*
X98276Y94500D01*
X96277D01*
X94444Y71833D02*
X93777Y72499D01*
X92444D01*
X91778Y71833D01*
Y69167D01*
X92444Y68501D01*
X93777D01*
X94444Y69167D01*
X98443Y72499D02*
X95777D01*
Y70500D01*
X97110Y71166D01*
X97776D01*
X98443Y70500D01*
Y69167D01*
X97776Y68501D01*
X96443D01*
X95777Y69167D01*
X92278Y59999D02*
Y56667D01*
X92944Y56001D01*
X94277D01*
X94944Y56667D01*
Y59999D01*
X96277Y59333D02*
X96943Y59999D01*
X98276D01*
X98943Y59333D01*
Y58666D01*
X98276Y58000D01*
X97610D01*
X98276D01*
X98943Y57333D01*
Y56667D01*
X98276Y56001D01*
X96943D01*
X96277Y56667D01*
X34778Y58999D02*
Y55667D01*
X35444Y55001D01*
X36777D01*
X37444Y55667D01*
Y58999D01*
X40776Y55001D02*
Y58999D01*
X38777Y57000D01*
X41442D01*
X91944Y123499D02*
Y120167D01*
X92611Y119501D01*
X93944D01*
X94610Y120167D01*
Y123499D01*
X95943Y119501D02*
X97276D01*
X96610D01*
Y123499D01*
X95943Y122833D01*
X35278Y123999D02*
Y120667D01*
X35944Y120001D01*
X37277D01*
X37944Y120667D01*
Y123999D01*
X41943Y120001D02*
X39277D01*
X41943Y122666D01*
Y123333D01*
X41276Y123999D01*
X39943D01*
X39277Y123333D01*
X67112Y51499D02*
Y47501D01*
X69778D01*
X71111D02*
X72443D01*
X71777D01*
Y51499D01*
X71111Y50833D01*
X74443D02*
X75109Y51499D01*
X76442D01*
X77109Y50833D01*
Y48167D01*
X76442Y47501D01*
X75109D01*
X74443Y48167D01*
Y50833D01*
X55778Y47499D02*
Y43501D01*
X58444D01*
X59777Y44167D02*
X60443Y43501D01*
X61776D01*
X62442Y44167D01*
Y46833D01*
X61776Y47499D01*
X60443D01*
X59777Y46833D01*
Y46166D01*
X60443Y45500D01*
X62442D01*
X83168Y141999D02*
Y138001D01*
X85834D01*
X87167Y141333D02*
X87833Y141999D01*
X89166D01*
X89832Y141333D01*
Y140666D01*
X89166Y140000D01*
X89832Y139333D01*
Y138667D01*
X89166Y138001D01*
X87833D01*
X87167Y138667D01*
Y139333D01*
X87833Y140000D01*
X87167Y140666D01*
Y141333D01*
X87833Y140000D02*
X89166D01*
X42168Y141499D02*
Y137501D01*
X44834D01*
X46167Y141499D02*
X48832D01*
Y140833D01*
X46167Y138167D01*
Y137501D01*
X44278Y93499D02*
Y89501D01*
X46944D01*
X50942Y93499D02*
X49610Y92833D01*
X48277Y91500D01*
Y90167D01*
X48943Y89501D01*
X50276D01*
X50942Y90167D01*
Y90833D01*
X50276Y91500D01*
X48277D01*
X81278Y92499D02*
Y88501D01*
X83944D01*
X87942Y92499D02*
X85277D01*
Y90500D01*
X86610Y91166D01*
X87276D01*
X87942Y90500D01*
Y89167D01*
X87276Y88501D01*
X85943D01*
X85277Y89167D01*
X82278Y128999D02*
Y125001D01*
X84944D01*
X88276D02*
Y128999D01*
X86277Y127000D01*
X88942D01*
X43668Y129999D02*
Y126001D01*
X46334D01*
X47666Y129333D02*
X48333Y129999D01*
X49666D01*
X50332Y129333D01*
Y128666D01*
X49666Y128000D01*
X48999D01*
X49666D01*
X50332Y127333D01*
Y126667D01*
X49666Y126001D01*
X48333D01*
X47666Y126667D01*
X81278Y102999D02*
Y99001D01*
X83944D01*
X87942D02*
X85277D01*
X87942Y101666D01*
Y102333D01*
X87276Y102999D01*
X85943D01*
X85277Y102333D01*
X43944Y103499D02*
Y99501D01*
X46610D01*
X47943D02*
X49276D01*
X48610D01*
Y103499D01*
X47943Y102833D01*
X83278Y65333D02*
X82611Y65999D01*
X81278D01*
X80612Y65333D01*
Y62667D01*
X81278Y62001D01*
X82611D01*
X83278Y62667D01*
X84611Y62001D02*
X85944D01*
X85277D01*
Y65999D01*
X84611Y65333D01*
X87943D02*
X88609Y65999D01*
X89942D01*
X90609Y65333D01*
Y64666D01*
X89942Y64000D01*
X89276D01*
X89942D01*
X90609Y63333D01*
Y62667D01*
X89942Y62001D01*
X88609D01*
X87943Y62667D01*
X43278Y65333D02*
X42611Y65999D01*
X41278D01*
X40612Y65333D01*
Y62667D01*
X41278Y62001D01*
X42611D01*
X43278Y62667D01*
X44611Y62001D02*
X45943D01*
X45277D01*
Y65999D01*
X44611Y65333D01*
X50609Y62001D02*
X47943D01*
X50609Y64666D01*
Y65333D01*
X49942Y65999D01*
X48609D01*
X47943Y65333D01*
X84944Y36833D02*
X84278Y37499D01*
X82945D01*
X82278Y36833D01*
Y34167D01*
X82945Y33501D01*
X84278D01*
X84944Y34167D01*
X86277Y33501D02*
X87610D01*
X86944D01*
Y37499D01*
X86277Y36833D01*
X89609Y33501D02*
X90942D01*
X90276D01*
Y37499D01*
X89609Y36833D01*
X43778Y37833D02*
X43111Y38499D01*
X41778D01*
X41112Y37833D01*
Y35167D01*
X41778Y34501D01*
X43111D01*
X43778Y35167D01*
X45111Y34501D02*
X46444D01*
X45777D01*
Y38499D01*
X45111Y37833D01*
X48443D02*
X49109Y38499D01*
X50442D01*
X51109Y37833D01*
Y35167D01*
X50442Y34501D01*
X49109D01*
X48443Y35167D01*
Y37833D01*
X65944Y141833D02*
X65277Y142499D01*
X63944D01*
X63278Y141833D01*
Y139167D01*
X63944Y138501D01*
X65277D01*
X65944Y139167D01*
X67277Y142499D02*
X69942D01*
Y141833D01*
X67277Y139167D01*
Y138501D01*
X65444Y85833D02*
X64777Y86499D01*
X63444D01*
X62778Y85833D01*
Y83167D01*
X63444Y82501D01*
X64777D01*
X65444Y83167D01*
X66777Y85833D02*
X67443Y86499D01*
X68776D01*
X69442Y85833D01*
Y85166D01*
X68776Y84500D01*
X68110D01*
X68776D01*
X69442Y83833D01*
Y83167D01*
X68776Y82501D01*
X67443D01*
X66777Y83167D01*
X69944Y115833D02*
X69277Y116499D01*
X67944D01*
X67278Y115833D01*
Y113167D01*
X67944Y112501D01*
X69277D01*
X69944Y113167D01*
X73943Y112501D02*
X71277D01*
X73943Y115166D01*
Y115833D01*
X73276Y116499D01*
X71943D01*
X71277Y115833D01*
X60110Y111833D02*
X59444Y112499D01*
X58111D01*
X57444Y111833D01*
Y109167D01*
X58111Y108501D01*
X59444D01*
X60110Y109167D01*
X61443Y108501D02*
X62776D01*
X62110D01*
Y112499D01*
X61443Y111833D01*
M02*
