G04*
G04 #@! TF.GenerationSoftware,Altium Limited,Altium Designer,24.5.2 (23)*
G04*
G04 Layer_Color=16711935*
%FSLAX25Y25*%
%MOIN*%
G70*
G04*
G04 #@! TF.SameCoordinates,E566BAFE-53A3-49A5-9EFE-4B06B608819B*
G04*
G04*
G04 #@! TF.FilePolarity,Negative*
G04*
G01*
G75*
%ADD22R,0.16800X0.07800*%
%ADD27C,0.13398*%
%ADD28C,0.07887*%
%ADD29R,0.07887X0.07887*%
%ADD30C,0.03200*%
%ADD38C,0.03202*%
D22*
X213538Y185016D02*
D03*
Y205016D02*
D03*
X213096Y74309D02*
D03*
Y94310D02*
D03*
X21915Y204646D02*
D03*
Y184646D02*
D03*
X21654Y74016D02*
D03*
Y94016D02*
D03*
D27*
X211328Y246552D02*
D03*
X22828Y25852D02*
D03*
D28*
X87109Y16595D02*
D03*
X127109D02*
D03*
X117109D02*
D03*
X107109D02*
D03*
X97109D02*
D03*
X97338Y258816D02*
D03*
X107338D02*
D03*
X117338D02*
D03*
X127338D02*
D03*
X87338D02*
D03*
D29*
X137109Y16595D02*
D03*
X137338Y258816D02*
D03*
D30*
X196327Y252752D02*
D03*
X205764Y141068D02*
D03*
X200764D02*
D03*
X135268Y189354D02*
D03*
X140269D02*
D03*
X145268D02*
D03*
X150268D02*
D03*
X82113Y189291D02*
D03*
X87113D02*
D03*
X92113D02*
D03*
Y199765D02*
D03*
X87113D02*
D03*
X82113D02*
D03*
X150268Y199828D02*
D03*
X145268D02*
D03*
X140269D02*
D03*
X135268D02*
D03*
X150328Y78652D02*
D03*
X145327D02*
D03*
X140328D02*
D03*
X135327D02*
D03*
X125328Y77678D02*
D03*
X130327Y78652D02*
D03*
Y89252D02*
D03*
X125328Y90952D02*
D03*
X135327Y89552D02*
D03*
X140328D02*
D03*
X145327D02*
D03*
X150328D02*
D03*
X87827Y89252D02*
D03*
X80827D02*
D03*
X179138Y252816D02*
D03*
X145764Y269868D02*
D03*
X185764D02*
D03*
X105764D02*
D03*
X115764D02*
D03*
X155764D02*
D03*
X195764D02*
D03*
X135764D02*
D03*
X175764D02*
D03*
X150764D02*
D03*
X110764D02*
D03*
X190764D02*
D03*
X200764D02*
D03*
X160764D02*
D03*
X120764D02*
D03*
X180764D02*
D03*
X140764D02*
D03*
X100764D02*
D03*
X170764D02*
D03*
X130764D02*
D03*
X165764D02*
D03*
X125764D02*
D03*
X185921Y181028D02*
D03*
X191138Y56016D02*
D03*
X205638Y26216D02*
D03*
X220096Y90810D02*
D03*
Y77810D02*
D03*
X184580Y53552D02*
D03*
X214938Y56016D02*
D03*
X216538Y117716D02*
D03*
X189638Y111816D02*
D03*
X213338Y224416D02*
D03*
X215764Y269868D02*
D03*
X210764D02*
D03*
X205764D02*
D03*
X220764D02*
D03*
X10764D02*
D03*
X15764D02*
D03*
X105764Y6068D02*
D03*
X116575Y39252D02*
D03*
X156921Y200528D02*
D03*
X127638Y200316D02*
D03*
X230264Y99944D02*
D03*
X217338Y104616D02*
D03*
X191396Y80352D02*
D03*
X184480Y97752D02*
D03*
Y102752D02*
D03*
X156980Y90752D02*
D03*
X119238Y78016D02*
D03*
X159480Y79252D02*
D03*
X119711Y90916D02*
D03*
X17115Y214146D02*
D03*
X192038Y190616D02*
D03*
X177921Y206028D02*
D03*
X127838Y189316D02*
D03*
X156921Y188528D02*
D03*
X196838Y190816D02*
D03*
X210096Y77810D02*
D03*
X201396Y79610D02*
D03*
X196396Y80110D02*
D03*
X201838Y190316D02*
D03*
X191838Y198816D02*
D03*
X220538Y201516D02*
D03*
X201838Y199716D02*
D03*
X210538Y201516D02*
D03*
X196838Y199216D02*
D03*
X215538Y201516D02*
D03*
X205538D02*
D03*
X210538Y188516D02*
D03*
X215538D02*
D03*
X220538D02*
D03*
X205538D02*
D03*
X43215Y103701D02*
D03*
X14515Y169546D02*
D03*
X33615Y199346D02*
D03*
X38615Y190446D02*
D03*
X43615D02*
D03*
X13654Y90516D02*
D03*
X200764Y6068D02*
D03*
X201396Y89009D02*
D03*
X191396Y88510D02*
D03*
X196396D02*
D03*
X205096Y77810D02*
D03*
Y90810D02*
D03*
X210096D02*
D03*
X215096D02*
D03*
Y77810D02*
D03*
X230264Y74944D02*
D03*
Y84944D02*
D03*
Y89944D02*
D03*
Y104944D02*
D03*
Y64944D02*
D03*
Y94944D02*
D03*
Y69944D02*
D03*
Y109944D02*
D03*
Y79944D02*
D03*
X15515Y103646D02*
D03*
X18715Y65246D02*
D03*
X35215Y65046D02*
D03*
X14415Y60746D02*
D03*
X5764Y81068D02*
D03*
Y86068D02*
D03*
Y106068D02*
D03*
Y101068D02*
D03*
Y96068D02*
D03*
Y91068D02*
D03*
Y76068D02*
D03*
Y111068D02*
D03*
X15415Y109446D02*
D03*
X50316Y209028D02*
D03*
X49213Y191732D02*
D03*
X5764Y66068D02*
D03*
X74016Y199528D02*
D03*
X43615Y198846D02*
D03*
X129480Y97752D02*
D03*
X124480D02*
D03*
X104516Y216028D02*
D03*
X116243Y229004D02*
D03*
Y241941D02*
D03*
X225764Y141068D02*
D03*
X220764D02*
D03*
X215764D02*
D03*
X210764D02*
D03*
X185764D02*
D03*
X180764D02*
D03*
X175764D02*
D03*
X170764D02*
D03*
X165764D02*
D03*
X160764D02*
D03*
X155764D02*
D03*
X150764D02*
D03*
X145764D02*
D03*
X140764D02*
D03*
X135764D02*
D03*
X130764D02*
D03*
X125764D02*
D03*
X120764D02*
D03*
X115764D02*
D03*
X110764D02*
D03*
X105764D02*
D03*
X100764D02*
D03*
X95764D02*
D03*
X90764D02*
D03*
X85764D02*
D03*
X80764D02*
D03*
X75764D02*
D03*
X70764D02*
D03*
X65764D02*
D03*
X60764D02*
D03*
X55764D02*
D03*
X50764D02*
D03*
X35764D02*
D03*
X30764D02*
D03*
X25764D02*
D03*
X20764D02*
D03*
X15764D02*
D03*
X10764D02*
D03*
X230264Y6068D02*
D03*
X225764D02*
D03*
X220764D02*
D03*
X230264Y9944D02*
D03*
Y14944D02*
D03*
Y19944D02*
D03*
Y24944D02*
D03*
Y29944D02*
D03*
Y34944D02*
D03*
Y39944D02*
D03*
Y44944D02*
D03*
Y49944D02*
D03*
Y54944D02*
D03*
Y59944D02*
D03*
Y114944D02*
D03*
Y119944D02*
D03*
Y124944D02*
D03*
Y129944D02*
D03*
Y134944D02*
D03*
Y139944D02*
D03*
Y144944D02*
D03*
Y149944D02*
D03*
Y154944D02*
D03*
Y159944D02*
D03*
Y164944D02*
D03*
Y169944D02*
D03*
Y174944D02*
D03*
Y179944D02*
D03*
Y184944D02*
D03*
Y189944D02*
D03*
Y194944D02*
D03*
Y199944D02*
D03*
Y204944D02*
D03*
Y209944D02*
D03*
Y214944D02*
D03*
Y219944D02*
D03*
Y224944D02*
D03*
Y229944D02*
D03*
Y234944D02*
D03*
Y239944D02*
D03*
Y244944D02*
D03*
Y249944D02*
D03*
Y254944D02*
D03*
Y259944D02*
D03*
Y264944D02*
D03*
Y269868D02*
D03*
X225764D02*
D03*
X95764D02*
D03*
X90764D02*
D03*
X85764D02*
D03*
X215764Y6068D02*
D03*
X210764D02*
D03*
X205764D02*
D03*
X195764D02*
D03*
X190764D02*
D03*
X185764D02*
D03*
X180764D02*
D03*
X175764D02*
D03*
X170764D02*
D03*
X165764D02*
D03*
X160764D02*
D03*
X155764D02*
D03*
X150764D02*
D03*
X145764D02*
D03*
X140764D02*
D03*
X135764D02*
D03*
X130764D02*
D03*
X125764D02*
D03*
X120764D02*
D03*
X115764D02*
D03*
X110764D02*
D03*
X100764D02*
D03*
X95764D02*
D03*
X90764D02*
D03*
X85764D02*
D03*
X80764D02*
D03*
Y269868D02*
D03*
X75764D02*
D03*
X70764D02*
D03*
X65764D02*
D03*
X60764D02*
D03*
X55764D02*
D03*
X50764D02*
D03*
X45764D02*
D03*
X40764D02*
D03*
X35764D02*
D03*
X30764D02*
D03*
X25764D02*
D03*
X20764D02*
D03*
X5764D02*
D03*
X10764Y6068D02*
D03*
X15764D02*
D03*
X20764D02*
D03*
X25764D02*
D03*
X30764D02*
D03*
X35764D02*
D03*
X40764D02*
D03*
X45764D02*
D03*
X50764D02*
D03*
X55764D02*
D03*
X60764D02*
D03*
X65764D02*
D03*
X70764D02*
D03*
X75764D02*
D03*
X5764Y221068D02*
D03*
Y226068D02*
D03*
Y231068D02*
D03*
Y236068D02*
D03*
Y241068D02*
D03*
Y246068D02*
D03*
Y251068D02*
D03*
Y256068D02*
D03*
Y261068D02*
D03*
Y266068D02*
D03*
Y151068D02*
D03*
Y156068D02*
D03*
Y161068D02*
D03*
Y166068D02*
D03*
Y171068D02*
D03*
Y176068D02*
D03*
Y181068D02*
D03*
Y186068D02*
D03*
Y191068D02*
D03*
Y196068D02*
D03*
Y201068D02*
D03*
Y206068D02*
D03*
Y211068D02*
D03*
Y216068D02*
D03*
Y116068D02*
D03*
Y121068D02*
D03*
Y126068D02*
D03*
Y131068D02*
D03*
Y136068D02*
D03*
Y141068D02*
D03*
Y146068D02*
D03*
Y71068D02*
D03*
Y61068D02*
D03*
Y56068D02*
D03*
Y51068D02*
D03*
Y46068D02*
D03*
Y41068D02*
D03*
Y36068D02*
D03*
Y31068D02*
D03*
Y26068D02*
D03*
Y21068D02*
D03*
Y16068D02*
D03*
Y11068D02*
D03*
Y6068D02*
D03*
X38615Y198846D02*
D03*
X33615Y189946D02*
D03*
X33354Y79316D02*
D03*
X38354Y79816D02*
D03*
X43354D02*
D03*
Y88216D02*
D03*
X38354D02*
D03*
X33354Y88716D02*
D03*
X59173Y91496D02*
D03*
X53075Y90852D02*
D03*
X59775Y110852D02*
D03*
Y105852D02*
D03*
Y100852D02*
D03*
Y95852D02*
D03*
X52075D02*
D03*
Y100852D02*
D03*
Y105852D02*
D03*
Y110852D02*
D03*
Y115852D02*
D03*
X59775D02*
D03*
X177280Y92752D02*
D03*
X183480D02*
D03*
X176680Y97752D02*
D03*
X184480Y107752D02*
D03*
X176680Y102752D02*
D03*
Y107752D02*
D03*
X184480Y116252D02*
D03*
Y112752D02*
D03*
X176680D02*
D03*
X183580Y119852D02*
D03*
X176180Y117752D02*
D03*
X180980Y124252D02*
D03*
X177280Y127552D02*
D03*
X172480Y121252D02*
D03*
Y129052D02*
D03*
X183980Y73552D02*
D03*
X184580Y58552D02*
D03*
Y63552D02*
D03*
Y68552D02*
D03*
X177280Y73552D02*
D03*
X176980Y68552D02*
D03*
Y63552D02*
D03*
Y58552D02*
D03*
Y53552D02*
D03*
X183880Y48552D02*
D03*
X181180Y44252D02*
D03*
X177280Y41052D02*
D03*
X175980Y49752D02*
D03*
X172480Y39752D02*
D03*
Y47252D02*
D03*
X59112Y77525D02*
D03*
X53575Y78252D02*
D03*
X52375Y53652D02*
D03*
X60075D02*
D03*
X163680Y74952D02*
D03*
X160480Y71252D02*
D03*
X155980Y77252D02*
D03*
X156980Y67752D02*
D03*
X153480Y64752D02*
D03*
X152480Y73752D02*
D03*
X148980Y63252D02*
D03*
Y70752D02*
D03*
X143980Y62752D02*
D03*
Y70752D02*
D03*
X74075Y79452D02*
D03*
X77075Y76252D02*
D03*
X68575Y73752D02*
D03*
X72075Y70252D02*
D03*
X75575Y66752D02*
D03*
X80575Y73252D02*
D03*
X80075Y63952D02*
D03*
X85075Y62752D02*
D03*
Y70752D02*
D03*
X161480Y97252D02*
D03*
X157980Y100752D02*
D03*
X153480Y94252D02*
D03*
X153980Y103752D02*
D03*
X149480Y105252D02*
D03*
Y97252D02*
D03*
X144480Y97752D02*
D03*
Y105752D02*
D03*
X69075Y93752D02*
D03*
X77575Y92252D02*
D03*
X72075Y97752D02*
D03*
X75575Y101252D02*
D03*
X80980Y95752D02*
D03*
X79575Y104252D02*
D03*
X84980Y97752D02*
D03*
X84575Y105752D02*
D03*
X161921Y183028D02*
D03*
X157921Y179028D02*
D03*
X153421Y185028D02*
D03*
X153921Y175528D02*
D03*
X149421Y181528D02*
D03*
Y173528D02*
D03*
X144421Y173028D02*
D03*
Y181028D02*
D03*
X161421Y207028D02*
D03*
X157921Y210528D02*
D03*
X153421Y204028D02*
D03*
X153921Y214028D02*
D03*
X149421Y215528D02*
D03*
Y207528D02*
D03*
X144421Y208028D02*
D03*
Y216028D02*
D03*
X73516Y189528D02*
D03*
X69016Y185528D02*
D03*
X77016Y187028D02*
D03*
X81016Y183528D02*
D03*
X84516Y173028D02*
D03*
X79516Y174528D02*
D03*
X85016Y181028D02*
D03*
X75516Y177528D02*
D03*
X72016Y181028D02*
D03*
X68516Y204528D02*
D03*
X72016Y208028D02*
D03*
X77516Y202528D02*
D03*
X75516Y211528D02*
D03*
X81016Y206028D02*
D03*
X85016Y208028D02*
D03*
X79516Y214528D02*
D03*
X84516Y216028D02*
D03*
X124480Y105752D02*
D03*
X139480Y106752D02*
D03*
X134480D02*
D03*
X129480Y105752D02*
D03*
X124480Y70752D02*
D03*
X139480Y71752D02*
D03*
X134480D02*
D03*
X129480Y70752D02*
D03*
X124480Y62752D02*
D03*
X139480Y61752D02*
D03*
X134480D02*
D03*
X129480Y62752D02*
D03*
X139480Y96752D02*
D03*
X134480D02*
D03*
X104575Y62752D02*
D03*
X89575Y61752D02*
D03*
X94575D02*
D03*
X99575Y62752D02*
D03*
X104575Y97752D02*
D03*
X89575Y96752D02*
D03*
X94575D02*
D03*
X99575Y97752D02*
D03*
X104575Y105752D02*
D03*
X89575Y106752D02*
D03*
X94575D02*
D03*
X99575Y105752D02*
D03*
X104575Y70752D02*
D03*
X89575Y71752D02*
D03*
X94575D02*
D03*
X99575Y70752D02*
D03*
X104516Y181028D02*
D03*
X89516Y182028D02*
D03*
X94516D02*
D03*
X99516Y181028D02*
D03*
X104516Y173028D02*
D03*
X89516Y172028D02*
D03*
X94516D02*
D03*
X99516Y173028D02*
D03*
X124421D02*
D03*
X139421Y172028D02*
D03*
X134421D02*
D03*
X129421Y173028D02*
D03*
X124421Y181028D02*
D03*
X139421Y182028D02*
D03*
X134421D02*
D03*
X129421Y181028D02*
D03*
X124421Y216028D02*
D03*
X139421Y217028D02*
D03*
X134421D02*
D03*
X129421Y216028D02*
D03*
X124421Y208028D02*
D03*
X139421Y207028D02*
D03*
X134421D02*
D03*
X129421Y208028D02*
D03*
X104516D02*
D03*
X89516Y207028D02*
D03*
X94516D02*
D03*
X99516Y208028D02*
D03*
X89516Y217028D02*
D03*
X94516D02*
D03*
X99516Y216028D02*
D03*
X184638Y185916D02*
D03*
X178538D02*
D03*
X177921Y181028D02*
D03*
X185921Y176028D02*
D03*
X177921D02*
D03*
X185921Y171028D02*
D03*
X177921D02*
D03*
X185921Y166028D02*
D03*
X185621Y161028D02*
D03*
X177921Y166028D02*
D03*
X176921Y160528D02*
D03*
X183921Y156528D02*
D03*
X180921Y153028D02*
D03*
X176921Y150728D02*
D03*
X172421Y149528D02*
D03*
Y157528D02*
D03*
X157480Y47252D02*
D03*
X162480D02*
D03*
X167480D02*
D03*
X157480Y39252D02*
D03*
X162480D02*
D03*
X167480D02*
D03*
X156421Y149528D02*
D03*
X161421D02*
D03*
X167421D02*
D03*
Y157528D02*
D03*
X161421D02*
D03*
X156421D02*
D03*
X50716Y163528D02*
D03*
X53516Y155028D02*
D03*
X57016Y152028D02*
D03*
X61516Y150028D02*
D03*
X66516Y149528D02*
D03*
X71516D02*
D03*
X58516Y162528D02*
D03*
X61516Y158528D02*
D03*
X66516Y157528D02*
D03*
X71516D02*
D03*
X86575Y39252D02*
D03*
X81575Y38252D02*
D03*
X76575D02*
D03*
X91575Y39252D02*
D03*
X96575D02*
D03*
X101575D02*
D03*
X141575D02*
D03*
X146575Y38252D02*
D03*
X151575D02*
D03*
X136575Y39252D02*
D03*
X131575D02*
D03*
X126575D02*
D03*
X106575D02*
D03*
X111575D02*
D03*
X121575D02*
D03*
X86575Y47252D02*
D03*
X81575Y48252D02*
D03*
X76575D02*
D03*
X91575Y47252D02*
D03*
X96575D02*
D03*
X101575D02*
D03*
X141575D02*
D03*
X146575Y48252D02*
D03*
X151575D02*
D03*
X136575Y47252D02*
D03*
X131575D02*
D03*
X126575D02*
D03*
X106575D02*
D03*
X111575D02*
D03*
X116575D02*
D03*
X121575D02*
D03*
X141516Y149528D02*
D03*
X136516D02*
D03*
X131516D02*
D03*
X126516D02*
D03*
X106516D02*
D03*
X111516D02*
D03*
X116516D02*
D03*
X121516D02*
D03*
Y157528D02*
D03*
X116516D02*
D03*
X111516D02*
D03*
X106516D02*
D03*
X151516Y148528D02*
D03*
X146516D02*
D03*
X126516Y157528D02*
D03*
X131516D02*
D03*
X136516D02*
D03*
X151516Y158528D02*
D03*
X146516D02*
D03*
X141516Y157528D02*
D03*
X101516Y149528D02*
D03*
X96516D02*
D03*
X91516D02*
D03*
X76516Y148528D02*
D03*
X81516D02*
D03*
X86516Y149528D02*
D03*
X101516Y157528D02*
D03*
X96516D02*
D03*
X91516D02*
D03*
X76516Y158528D02*
D03*
X81516D02*
D03*
X86516Y157528D02*
D03*
X185921Y205528D02*
D03*
X185721Y211528D02*
D03*
Y216528D02*
D03*
Y221528D02*
D03*
X177921Y211528D02*
D03*
Y216528D02*
D03*
Y221528D02*
D03*
Y226528D02*
D03*
X185921D02*
D03*
X184921Y231528D02*
D03*
X181921Y235528D02*
D03*
X177421Y238528D02*
D03*
X175921Y230028D02*
D03*
X172421Y231528D02*
D03*
Y239528D02*
D03*
X50616Y229028D02*
D03*
X50316Y224028D02*
D03*
Y219028D02*
D03*
X52516Y233528D02*
D03*
X50316Y214028D02*
D03*
X71575Y39252D02*
D03*
X66575D02*
D03*
X71575Y47252D02*
D03*
X66575D02*
D03*
X53875Y46652D02*
D03*
X57075Y42752D02*
D03*
X61775Y48952D02*
D03*
X61575Y40252D02*
D03*
X157480Y129252D02*
D03*
X162480D02*
D03*
X156980Y121252D02*
D03*
X161980D02*
D03*
X167480D02*
D03*
Y129252D02*
D03*
X157421Y239528D02*
D03*
X162421D02*
D03*
X156921Y231528D02*
D03*
X161921D02*
D03*
X167421D02*
D03*
Y239528D02*
D03*
X71575Y129252D02*
D03*
X66575D02*
D03*
X72075Y121252D02*
D03*
X67075D02*
D03*
X53575Y122152D02*
D03*
X56575Y126252D02*
D03*
X62075Y120252D02*
D03*
X61575Y128752D02*
D03*
X61516Y239028D02*
D03*
Y231028D02*
D03*
X58116Y219028D02*
D03*
X58716Y228328D02*
D03*
X58116Y224028D02*
D03*
X56516Y237028D02*
D03*
X127480Y129252D02*
D03*
X132480D02*
D03*
X137480D02*
D03*
X152480Y130252D02*
D03*
X147480D02*
D03*
X142480Y129252D02*
D03*
X122480D02*
D03*
X127480Y121252D02*
D03*
X132480D02*
D03*
X137480D02*
D03*
X152480Y120252D02*
D03*
X147480D02*
D03*
X142480Y121252D02*
D03*
X122480D02*
D03*
X127421Y231528D02*
D03*
X132421D02*
D03*
X137421D02*
D03*
X152421Y230528D02*
D03*
X147421D02*
D03*
X142421Y231528D02*
D03*
X122421Y232528D02*
D03*
X127421Y239528D02*
D03*
X132421D02*
D03*
X137421D02*
D03*
X152421Y240528D02*
D03*
X147421D02*
D03*
X142421Y239528D02*
D03*
X122421Y238528D02*
D03*
X101575Y121252D02*
D03*
X96575D02*
D03*
X91575D02*
D03*
X76575Y120252D02*
D03*
X81575D02*
D03*
X86575Y121252D02*
D03*
X106575D02*
D03*
X101575Y129252D02*
D03*
X96575D02*
D03*
X91575D02*
D03*
X76575Y130252D02*
D03*
X81575D02*
D03*
X86575Y129252D02*
D03*
X106480D02*
D03*
X67016Y231528D02*
D03*
X72016D02*
D03*
X66516Y239528D02*
D03*
X71516D02*
D03*
X101516Y231528D02*
D03*
X96516D02*
D03*
X91516D02*
D03*
X76516Y230528D02*
D03*
X81516D02*
D03*
X86516Y231528D02*
D03*
X106516Y232528D02*
D03*
Y238528D02*
D03*
X86516Y239528D02*
D03*
X81516Y240528D02*
D03*
X76516D02*
D03*
X51516Y187728D02*
D03*
X57716D02*
D03*
X51116Y182728D02*
D03*
X48228Y78843D02*
D03*
X51516Y159028D02*
D03*
X28915Y188146D02*
D03*
X58116Y182728D02*
D03*
X58516Y177728D02*
D03*
Y172728D02*
D03*
X91516Y239528D02*
D03*
X96516D02*
D03*
X101516D02*
D03*
X58516Y167728D02*
D03*
X23915Y201146D02*
D03*
X50706Y177728D02*
D03*
X50716Y167728D02*
D03*
Y172728D02*
D03*
X57516Y203928D02*
D03*
X58116Y209028D02*
D03*
Y214028D02*
D03*
X28915Y201146D02*
D03*
X13915Y188146D02*
D03*
X18915D02*
D03*
X13915Y201146D02*
D03*
X51316Y203928D02*
D03*
X23915Y188146D02*
D03*
X18915Y201146D02*
D03*
X60075Y58652D02*
D03*
X60275Y73652D02*
D03*
X52375Y68652D02*
D03*
Y73652D02*
D03*
Y63652D02*
D03*
Y58652D02*
D03*
X60075Y63652D02*
D03*
X60275Y68652D02*
D03*
X112753Y118783D02*
D03*
X116302Y131720D02*
D03*
X73575Y89252D02*
D03*
X23654Y90516D02*
D03*
X18654D02*
D03*
Y77516D02*
D03*
X28654D02*
D03*
X23654D02*
D03*
X13654D02*
D03*
X28654Y90516D02*
D03*
D38*
X112694Y229004D02*
D03*
Y241941D02*
D03*
X116302Y118783D02*
D03*
X112753Y131720D02*
D03*
M02*
