G04*
G04 #@! TF.GenerationSoftware,Altium Limited,Altium Designer,24.5.2 (23)*
G04*
G04 Layer_Color=128*
%FSLAX25Y25*%
%MOIN*%
G70*
G04*
G04 #@! TF.SameCoordinates,E566BAFE-53A3-49A5-9EFE-4B06B608819B*
G04*
G04*
G04 #@! TF.FilePolarity,Positive*
G04*
G01*
G75*
%ADD10C,0.00500*%
D10*
X205028Y246552D02*
X217627D01*
X211328Y240253D02*
Y252851D01*
X16528Y25852D02*
X29127D01*
X22828Y19553D02*
Y32151D01*
X85140Y16595D02*
X89077D01*
X87109Y14627D02*
Y18564D01*
X125140Y16595D02*
X129077D01*
X127109Y14627D02*
Y18564D01*
X115140Y16595D02*
X119077D01*
X117109Y14627D02*
Y18564D01*
X105140Y16595D02*
X109077D01*
X107109Y14627D02*
Y18564D01*
X95140Y16595D02*
X99077D01*
X97109Y14627D02*
Y18564D01*
X135140Y16595D02*
X139077D01*
X137109Y14627D02*
Y18564D01*
X135370Y258816D02*
X139307D01*
X137338Y256848D02*
Y260785D01*
X95370Y258816D02*
X99307D01*
X97338Y256848D02*
Y260785D01*
X105370Y258816D02*
X109307D01*
X107338Y256848D02*
Y260785D01*
X115370Y258816D02*
X119307D01*
X117338Y256848D02*
Y260785D01*
X125370Y258816D02*
X129307D01*
X127338Y256848D02*
Y260785D01*
X85370Y258816D02*
X89307D01*
X87338Y256848D02*
Y260785D01*
X195728Y252752D02*
X196927D01*
X196327Y252152D02*
Y253352D01*
X205164Y141068D02*
X206364D01*
X205764Y140468D02*
Y141668D01*
X200164Y141068D02*
X201364D01*
X200764Y140468D02*
Y141668D01*
X134669Y189354D02*
X135869D01*
X135268Y188753D02*
Y189953D01*
X139669Y189354D02*
X140868D01*
X140269Y188753D02*
Y189953D01*
X144668Y189354D02*
X145869D01*
X145268Y188753D02*
Y189953D01*
X149669Y189354D02*
X150868D01*
X150268Y188753D02*
Y189953D01*
X81513Y189291D02*
X82713D01*
X82113Y188691D02*
Y189891D01*
X86513Y189291D02*
X87713D01*
X87113Y188691D02*
Y189891D01*
X91513Y189291D02*
X92713D01*
X92113Y188691D02*
Y189891D01*
X91513Y199765D02*
X92713D01*
X92113Y199165D02*
Y200365D01*
X86513Y199765D02*
X87713D01*
X87113Y199165D02*
Y200365D01*
X81513Y199765D02*
X82713D01*
X82113Y199165D02*
Y200365D01*
X149669Y199828D02*
X150868D01*
X150268Y199228D02*
Y200428D01*
X144668Y199828D02*
X145869D01*
X145268Y199228D02*
Y200428D01*
X139669Y199828D02*
X140868D01*
X140269Y199228D02*
Y200428D01*
X134669Y199828D02*
X135869D01*
X135268Y199228D02*
Y200428D01*
X149727Y78652D02*
X150927D01*
X150328Y78052D02*
Y79252D01*
X144728Y78652D02*
X145928D01*
X145327Y78052D02*
Y79252D01*
X139727Y78652D02*
X140928D01*
X140328Y78052D02*
Y79252D01*
X134728Y78652D02*
X135927D01*
X135327Y78052D02*
Y79252D01*
X124727Y77678D02*
X125927D01*
X125328Y77078D02*
Y78278D01*
X129727Y78652D02*
X130928D01*
X130327Y78052D02*
Y79252D01*
X129727Y89252D02*
X130928D01*
X130327Y88652D02*
Y89852D01*
X124727Y90952D02*
X125927D01*
X125328Y90352D02*
Y91552D01*
X134728Y89552D02*
X135927D01*
X135327Y88952D02*
Y90152D01*
X139727Y89552D02*
X140928D01*
X140328Y88952D02*
Y90152D01*
X144728Y89552D02*
X145928D01*
X145327Y88952D02*
Y90152D01*
X149727Y89552D02*
X150927D01*
X150328Y88952D02*
Y90152D01*
X87227Y89252D02*
X88428D01*
X87827Y88652D02*
Y89852D01*
X80228Y89252D02*
X81428D01*
X80827Y88652D02*
Y89852D01*
X178538Y252816D02*
X179738D01*
X179138Y252216D02*
Y253416D01*
X145164Y269868D02*
X146364D01*
X145764Y269268D02*
Y270468D01*
X185164Y269868D02*
X186364D01*
X185764Y269268D02*
Y270468D01*
X105164Y269868D02*
X106364D01*
X105764Y269268D02*
Y270468D01*
X115164Y269868D02*
X116364D01*
X115764Y269268D02*
Y270468D01*
X155164Y269868D02*
X156364D01*
X155764Y269268D02*
Y270468D01*
X195164Y269868D02*
X196364D01*
X195764Y269268D02*
Y270468D01*
X135164Y269868D02*
X136364D01*
X135764Y269268D02*
Y270468D01*
X175164Y269868D02*
X176364D01*
X175764Y269268D02*
Y270468D01*
X150164Y269868D02*
X151364D01*
X150764Y269268D02*
Y270468D01*
X110164Y269868D02*
X111364D01*
X110764Y269268D02*
Y270468D01*
X190164Y269868D02*
X191364D01*
X190764Y269268D02*
Y270468D01*
X200164Y269868D02*
X201364D01*
X200764Y269268D02*
Y270468D01*
X160164Y269868D02*
X161364D01*
X160764Y269268D02*
Y270468D01*
X120164Y269868D02*
X121364D01*
X120764Y269268D02*
Y270468D01*
X180164Y269868D02*
X181364D01*
X180764Y269268D02*
Y270468D01*
X140164Y269868D02*
X141364D01*
X140764Y269268D02*
Y270468D01*
X100164Y269868D02*
X101364D01*
X100764Y269268D02*
Y270468D01*
X170164Y269868D02*
X171364D01*
X170764Y269268D02*
Y270468D01*
X130164Y269868D02*
X131364D01*
X130764Y269268D02*
Y270468D01*
X165164Y269868D02*
X166364D01*
X165764Y269268D02*
Y270468D01*
X125164Y269868D02*
X126364D01*
X125764Y269268D02*
Y270468D01*
X185321Y181028D02*
X186521D01*
X185921Y180428D02*
Y181628D01*
X190538Y56016D02*
X191738D01*
X191138Y55416D02*
Y56616D01*
X205038Y26216D02*
X206238D01*
X205638Y25616D02*
Y26816D01*
X219496Y90810D02*
X220696D01*
X220096Y90210D02*
Y91409D01*
X219496Y77810D02*
X220696D01*
X220096Y77210D02*
Y78409D01*
X183980Y53552D02*
X185180D01*
X184580Y52952D02*
Y54152D01*
X214338Y56016D02*
X215538D01*
X214938Y55416D02*
Y56616D01*
X215938Y117716D02*
X217138D01*
X216538Y117116D02*
Y118316D01*
X189038Y111816D02*
X190238D01*
X189638Y111216D02*
Y112416D01*
X212738Y224416D02*
X213938D01*
X213338Y223816D02*
Y225016D01*
X215164Y269868D02*
X216364D01*
X215764Y269268D02*
Y270468D01*
X210164Y269868D02*
X211364D01*
X210764Y269268D02*
Y270468D01*
X205164Y269868D02*
X206364D01*
X205764Y269268D02*
Y270468D01*
X220164Y269868D02*
X221364D01*
X220764Y269268D02*
Y270468D01*
X10164Y269868D02*
X11364D01*
X10764Y269268D02*
Y270468D01*
X15164Y269868D02*
X16364D01*
X15764Y269268D02*
Y270468D01*
X105164Y6068D02*
X106364D01*
X105764Y5468D02*
Y6668D01*
X115975Y39252D02*
X117175D01*
X116575Y38652D02*
Y39852D01*
X156321Y200528D02*
X157521D01*
X156921Y199928D02*
Y201128D01*
X127038Y200316D02*
X128238D01*
X127638Y199716D02*
Y200916D01*
X229664Y99944D02*
X230864D01*
X230264Y99344D02*
Y100544D01*
X216738Y104616D02*
X217938D01*
X217338Y104016D02*
Y105216D01*
X190796Y80352D02*
X191996D01*
X191396Y79752D02*
Y80952D01*
X183880Y97752D02*
X185080D01*
X184480Y97152D02*
Y98352D01*
X183880Y102752D02*
X185080D01*
X184480Y102152D02*
Y103352D01*
X156380Y90752D02*
X157580D01*
X156980Y90152D02*
Y91352D01*
X118638Y78016D02*
X119838D01*
X119238Y77416D02*
Y78616D01*
X158880Y79252D02*
X160080D01*
X159480Y78652D02*
Y79852D01*
X119111Y90916D02*
X120311D01*
X119711Y90316D02*
Y91516D01*
X16515Y214146D02*
X17715D01*
X17115Y213546D02*
Y214746D01*
X191438Y190616D02*
X192638D01*
X192038Y190016D02*
Y191216D01*
X177321Y206028D02*
X178521D01*
X177921Y205428D02*
Y206628D01*
X127238Y189316D02*
X128438D01*
X127838Y188716D02*
Y189916D01*
X156321Y188528D02*
X157521D01*
X156921Y187928D02*
Y189128D01*
X196238Y190816D02*
X197438D01*
X196838Y190216D02*
Y191416D01*
X209496Y77810D02*
X210696D01*
X210096Y77210D02*
Y78409D01*
X200796Y79610D02*
X201996D01*
X201396Y79009D02*
Y80209D01*
X195796Y80110D02*
X196996D01*
X196396Y79510D02*
Y80709D01*
X201238Y190316D02*
X202438D01*
X201838Y189716D02*
Y190916D01*
X191238Y198816D02*
X192438D01*
X191838Y198216D02*
Y199416D01*
X219938Y201516D02*
X221138D01*
X220538Y200916D02*
Y202116D01*
X201238Y199716D02*
X202438D01*
X201838Y199116D02*
Y200316D01*
X209938Y201516D02*
X211138D01*
X210538Y200916D02*
Y202116D01*
X196238Y199216D02*
X197438D01*
X196838Y198616D02*
Y199816D01*
X214938Y201516D02*
X216138D01*
X215538Y200916D02*
Y202116D01*
X204938Y201516D02*
X206138D01*
X205538Y200916D02*
Y202116D01*
X209938Y188516D02*
X211138D01*
X210538Y187916D02*
Y189116D01*
X214938Y188516D02*
X216138D01*
X215538Y187916D02*
Y189116D01*
X219938Y188516D02*
X221138D01*
X220538Y187916D02*
Y189116D01*
X204938Y188516D02*
X206138D01*
X205538Y187916D02*
Y189116D01*
X42615Y103701D02*
X43815D01*
X43215Y103102D02*
Y104302D01*
X13915Y169546D02*
X15115D01*
X14515Y168946D02*
Y170146D01*
X33015Y199346D02*
X34215D01*
X33615Y198746D02*
Y199946D01*
X38015Y190446D02*
X39215D01*
X38615Y189846D02*
Y191046D01*
X43015Y190446D02*
X44215D01*
X43615Y189846D02*
Y191046D01*
X13054Y90516D02*
X14254D01*
X13654Y89916D02*
Y91116D01*
X200164Y6068D02*
X201364D01*
X200764Y5468D02*
Y6668D01*
X200796Y89009D02*
X201996D01*
X201396Y88410D02*
Y89609D01*
X190796Y88510D02*
X191996D01*
X191396Y87910D02*
Y89109D01*
X195796Y88510D02*
X196996D01*
X196396Y87910D02*
Y89109D01*
X204496Y77810D02*
X205696D01*
X205096Y77210D02*
Y78409D01*
X204496Y90810D02*
X205696D01*
X205096Y90210D02*
Y91409D01*
X209496Y90810D02*
X210696D01*
X210096Y90210D02*
Y91409D01*
X214496Y90810D02*
X215696D01*
X215096Y90210D02*
Y91409D01*
X214496Y77810D02*
X215696D01*
X215096Y77210D02*
Y78409D01*
X229664Y74944D02*
X230864D01*
X230264Y74344D02*
Y75544D01*
X229664Y84944D02*
X230864D01*
X230264Y84344D02*
Y85544D01*
X229664Y89944D02*
X230864D01*
X230264Y89344D02*
Y90544D01*
X229664Y104944D02*
X230864D01*
X230264Y104344D02*
Y105544D01*
X229664Y64944D02*
X230864D01*
X230264Y64344D02*
Y65544D01*
X229664Y94944D02*
X230864D01*
X230264Y94344D02*
Y95544D01*
X229664Y69944D02*
X230864D01*
X230264Y69344D02*
Y70544D01*
X229664Y109944D02*
X230864D01*
X230264Y109344D02*
Y110544D01*
X229664Y79944D02*
X230864D01*
X230264Y79344D02*
Y80544D01*
X14915Y103646D02*
X16115D01*
X15515Y103046D02*
Y104246D01*
X18115Y65246D02*
X19315D01*
X18715Y64646D02*
Y65846D01*
X34615Y65046D02*
X35815D01*
X35215Y64446D02*
Y65646D01*
X13815Y60746D02*
X15015D01*
X14415Y60146D02*
Y61346D01*
X5164Y81068D02*
X6364D01*
X5764Y80468D02*
Y81668D01*
X5164Y86068D02*
X6364D01*
X5764Y85468D02*
Y86668D01*
X5164Y106068D02*
X6364D01*
X5764Y105468D02*
Y106668D01*
X5164Y101068D02*
X6364D01*
X5764Y100468D02*
Y101668D01*
X5164Y96068D02*
X6364D01*
X5764Y95468D02*
Y96668D01*
X5164Y91068D02*
X6364D01*
X5764Y90468D02*
Y91668D01*
X5164Y76068D02*
X6364D01*
X5764Y75468D02*
Y76668D01*
X5164Y111068D02*
X6364D01*
X5764Y110468D02*
Y111668D01*
X14815Y109446D02*
X16015D01*
X15415Y108846D02*
Y110046D01*
X49716Y209028D02*
X50916D01*
X50316Y208428D02*
Y209628D01*
X48613Y191732D02*
X49813D01*
X49213Y191132D02*
Y192332D01*
X5164Y66068D02*
X6364D01*
X5764Y65468D02*
Y66668D01*
X73416Y199528D02*
X74616D01*
X74016Y198928D02*
Y200128D01*
X43015Y198846D02*
X44215D01*
X43615Y198246D02*
Y199446D01*
X128880Y97752D02*
X130080D01*
X129480Y97152D02*
Y98352D01*
X123880Y97752D02*
X125080D01*
X124480Y97152D02*
Y98352D01*
X103916Y216028D02*
X105116D01*
X104516Y215428D02*
Y216628D01*
X115554Y229004D02*
X116932D01*
X116243Y228315D02*
Y229693D01*
X112005Y229004D02*
X113383D01*
X112694Y228315D02*
Y229693D01*
X115554Y241941D02*
X116932D01*
X116243Y241252D02*
Y242630D01*
X112005Y241941D02*
X113383D01*
X112694Y241252D02*
Y242630D01*
X225164Y141068D02*
X226364D01*
X225764Y140468D02*
Y141668D01*
X220164Y141068D02*
X221364D01*
X220764Y140468D02*
Y141668D01*
X215164Y141068D02*
X216364D01*
X215764Y140468D02*
Y141668D01*
X210164Y141068D02*
X211364D01*
X210764Y140468D02*
Y141668D01*
X185164Y141068D02*
X186364D01*
X185764Y140468D02*
Y141668D01*
X180164Y141068D02*
X181364D01*
X180764Y140468D02*
Y141668D01*
X175164Y141068D02*
X176364D01*
X175764Y140468D02*
Y141668D01*
X170164Y141068D02*
X171364D01*
X170764Y140468D02*
Y141668D01*
X165164Y141068D02*
X166364D01*
X165764Y140468D02*
Y141668D01*
X160164Y141068D02*
X161364D01*
X160764Y140468D02*
Y141668D01*
X155164Y141068D02*
X156364D01*
X155764Y140468D02*
Y141668D01*
X150164Y141068D02*
X151364D01*
X150764Y140468D02*
Y141668D01*
X145164Y141068D02*
X146364D01*
X145764Y140468D02*
Y141668D01*
X140164Y141068D02*
X141364D01*
X140764Y140468D02*
Y141668D01*
X135164Y141068D02*
X136364D01*
X135764Y140468D02*
Y141668D01*
X130164Y141068D02*
X131364D01*
X130764Y140468D02*
Y141668D01*
X125164Y141068D02*
X126364D01*
X125764Y140468D02*
Y141668D01*
X120164Y141068D02*
X121364D01*
X120764Y140468D02*
Y141668D01*
X115164Y141068D02*
X116364D01*
X115764Y140468D02*
Y141668D01*
X110164Y141068D02*
X111364D01*
X110764Y140468D02*
Y141668D01*
X105164Y141068D02*
X106364D01*
X105764Y140468D02*
Y141668D01*
X100164Y141068D02*
X101364D01*
X100764Y140468D02*
Y141668D01*
X95164Y141068D02*
X96364D01*
X95764Y140468D02*
Y141668D01*
X90164Y141068D02*
X91364D01*
X90764Y140468D02*
Y141668D01*
X85164Y141068D02*
X86364D01*
X85764Y140468D02*
Y141668D01*
X80164Y141068D02*
X81364D01*
X80764Y140468D02*
Y141668D01*
X75164Y141068D02*
X76364D01*
X75764Y140468D02*
Y141668D01*
X70164Y141068D02*
X71364D01*
X70764Y140468D02*
Y141668D01*
X65164Y141068D02*
X66364D01*
X65764Y140468D02*
Y141668D01*
X60164Y141068D02*
X61364D01*
X60764Y140468D02*
Y141668D01*
X55164Y141068D02*
X56364D01*
X55764Y140468D02*
Y141668D01*
X50164Y141068D02*
X51364D01*
X50764Y140468D02*
Y141668D01*
X35164Y141068D02*
X36364D01*
X35764Y140468D02*
Y141668D01*
X30164Y141068D02*
X31364D01*
X30764Y140468D02*
Y141668D01*
X25164Y141068D02*
X26364D01*
X25764Y140468D02*
Y141668D01*
X20164Y141068D02*
X21364D01*
X20764Y140468D02*
Y141668D01*
X15164Y141068D02*
X16364D01*
X15764Y140468D02*
Y141668D01*
X10164Y141068D02*
X11364D01*
X10764Y140468D02*
Y141668D01*
X229664Y6068D02*
X230864D01*
X230264Y5468D02*
Y6668D01*
X225164Y6068D02*
X226364D01*
X225764Y5468D02*
Y6668D01*
X220164Y6068D02*
X221364D01*
X220764Y5468D02*
Y6668D01*
X229664Y9944D02*
X230864D01*
X230264Y9344D02*
Y10544D01*
X229664Y14944D02*
X230864D01*
X230264Y14344D02*
Y15544D01*
X229664Y19944D02*
X230864D01*
X230264Y19344D02*
Y20544D01*
X229664Y24944D02*
X230864D01*
X230264Y24344D02*
Y25544D01*
X229664Y29944D02*
X230864D01*
X230264Y29344D02*
Y30544D01*
X229664Y34944D02*
X230864D01*
X230264Y34344D02*
Y35544D01*
X229664Y39944D02*
X230864D01*
X230264Y39344D02*
Y40544D01*
X229664Y44944D02*
X230864D01*
X230264Y44344D02*
Y45544D01*
X229664Y49944D02*
X230864D01*
X230264Y49344D02*
Y50544D01*
X229664Y54944D02*
X230864D01*
X230264Y54344D02*
Y55544D01*
X229664Y59944D02*
X230864D01*
X230264Y59344D02*
Y60544D01*
X229664Y114944D02*
X230864D01*
X230264Y114344D02*
Y115544D01*
X229664Y119944D02*
X230864D01*
X230264Y119344D02*
Y120544D01*
X229664Y124944D02*
X230864D01*
X230264Y124344D02*
Y125544D01*
X229664Y129944D02*
X230864D01*
X230264Y129344D02*
Y130544D01*
X229664Y134944D02*
X230864D01*
X230264Y134344D02*
Y135544D01*
X229664Y139944D02*
X230864D01*
X230264Y139344D02*
Y140544D01*
X229664Y144944D02*
X230864D01*
X230264Y144344D02*
Y145544D01*
X229664Y149944D02*
X230864D01*
X230264Y149344D02*
Y150544D01*
X229664Y154944D02*
X230864D01*
X230264Y154344D02*
Y155544D01*
X229664Y159944D02*
X230864D01*
X230264Y159344D02*
Y160544D01*
X229664Y164944D02*
X230864D01*
X230264Y164344D02*
Y165544D01*
X229664Y169944D02*
X230864D01*
X230264Y169344D02*
Y170544D01*
X229664Y174944D02*
X230864D01*
X230264Y174344D02*
Y175544D01*
X229664Y179944D02*
X230864D01*
X230264Y179344D02*
Y180544D01*
X229664Y184944D02*
X230864D01*
X230264Y184344D02*
Y185544D01*
X229664Y189944D02*
X230864D01*
X230264Y189344D02*
Y190544D01*
X229664Y194944D02*
X230864D01*
X230264Y194344D02*
Y195544D01*
X229664Y199944D02*
X230864D01*
X230264Y199344D02*
Y200544D01*
X229664Y204944D02*
X230864D01*
X230264Y204344D02*
Y205544D01*
X229664Y209944D02*
X230864D01*
X230264Y209344D02*
Y210544D01*
X229664Y214944D02*
X230864D01*
X230264Y214344D02*
Y215544D01*
X229664Y219944D02*
X230864D01*
X230264Y219344D02*
Y220544D01*
X229664Y224944D02*
X230864D01*
X230264Y224344D02*
Y225544D01*
X229664Y229944D02*
X230864D01*
X230264Y229344D02*
Y230544D01*
X229664Y234944D02*
X230864D01*
X230264Y234344D02*
Y235544D01*
X229664Y239944D02*
X230864D01*
X230264Y239344D02*
Y240544D01*
X229664Y244944D02*
X230864D01*
X230264Y244344D02*
Y245544D01*
X229664Y249944D02*
X230864D01*
X230264Y249344D02*
Y250544D01*
X229664Y254944D02*
X230864D01*
X230264Y254344D02*
Y255544D01*
X229664Y259944D02*
X230864D01*
X230264Y259344D02*
Y260544D01*
X229664Y264944D02*
X230864D01*
X230264Y264344D02*
Y265544D01*
X229664Y269868D02*
X230864D01*
X230264Y269268D02*
Y270468D01*
X225164Y269868D02*
X226364D01*
X225764Y269268D02*
Y270468D01*
X95164Y269868D02*
X96364D01*
X95764Y269268D02*
Y270468D01*
X90164Y269868D02*
X91364D01*
X90764Y269268D02*
Y270468D01*
X85164Y269868D02*
X86364D01*
X85764Y269268D02*
Y270468D01*
X215164Y6068D02*
X216364D01*
X215764Y5468D02*
Y6668D01*
X210164Y6068D02*
X211364D01*
X210764Y5468D02*
Y6668D01*
X205164Y6068D02*
X206364D01*
X205764Y5468D02*
Y6668D01*
X195164Y6068D02*
X196364D01*
X195764Y5468D02*
Y6668D01*
X190164Y6068D02*
X191364D01*
X190764Y5468D02*
Y6668D01*
X185164Y6068D02*
X186364D01*
X185764Y5468D02*
Y6668D01*
X180164Y6068D02*
X181364D01*
X180764Y5468D02*
Y6668D01*
X175164Y6068D02*
X176364D01*
X175764Y5468D02*
Y6668D01*
X170164Y6068D02*
X171364D01*
X170764Y5468D02*
Y6668D01*
X165164Y6068D02*
X166364D01*
X165764Y5468D02*
Y6668D01*
X160164Y6068D02*
X161364D01*
X160764Y5468D02*
Y6668D01*
X155164Y6068D02*
X156364D01*
X155764Y5468D02*
Y6668D01*
X150164Y6068D02*
X151364D01*
X150764Y5468D02*
Y6668D01*
X145164Y6068D02*
X146364D01*
X145764Y5468D02*
Y6668D01*
X140164Y6068D02*
X141364D01*
X140764Y5468D02*
Y6668D01*
X135164Y6068D02*
X136364D01*
X135764Y5468D02*
Y6668D01*
X130164Y6068D02*
X131364D01*
X130764Y5468D02*
Y6668D01*
X125164Y6068D02*
X126364D01*
X125764Y5468D02*
Y6668D01*
X120164Y6068D02*
X121364D01*
X120764Y5468D02*
Y6668D01*
X115164Y6068D02*
X116364D01*
X115764Y5468D02*
Y6668D01*
X110164Y6068D02*
X111364D01*
X110764Y5468D02*
Y6668D01*
X100164Y6068D02*
X101364D01*
X100764Y5468D02*
Y6668D01*
X95164Y6068D02*
X96364D01*
X95764Y5468D02*
Y6668D01*
X90164Y6068D02*
X91364D01*
X90764Y5468D02*
Y6668D01*
X85164Y6068D02*
X86364D01*
X85764Y5468D02*
Y6668D01*
X80164Y6068D02*
X81364D01*
X80764Y5468D02*
Y6668D01*
X80164Y269868D02*
X81364D01*
X80764Y269268D02*
Y270468D01*
X75164Y269868D02*
X76364D01*
X75764Y269268D02*
Y270468D01*
X70164Y269868D02*
X71364D01*
X70764Y269268D02*
Y270468D01*
X65164Y269868D02*
X66364D01*
X65764Y269268D02*
Y270468D01*
X60164Y269868D02*
X61364D01*
X60764Y269268D02*
Y270468D01*
X55164Y269868D02*
X56364D01*
X55764Y269268D02*
Y270468D01*
X50164Y269868D02*
X51364D01*
X50764Y269268D02*
Y270468D01*
X45164Y269868D02*
X46364D01*
X45764Y269268D02*
Y270468D01*
X40164Y269868D02*
X41364D01*
X40764Y269268D02*
Y270468D01*
X35164Y269868D02*
X36364D01*
X35764Y269268D02*
Y270468D01*
X30164Y269868D02*
X31364D01*
X30764Y269268D02*
Y270468D01*
X25164Y269868D02*
X26364D01*
X25764Y269268D02*
Y270468D01*
X20164Y269868D02*
X21364D01*
X20764Y269268D02*
Y270468D01*
X5164Y269868D02*
X6364D01*
X5764Y269268D02*
Y270468D01*
X10164Y6068D02*
X11364D01*
X10764Y5468D02*
Y6668D01*
X15164Y6068D02*
X16364D01*
X15764Y5468D02*
Y6668D01*
X20164Y6068D02*
X21364D01*
X20764Y5468D02*
Y6668D01*
X25164Y6068D02*
X26364D01*
X25764Y5468D02*
Y6668D01*
X30164Y6068D02*
X31364D01*
X30764Y5468D02*
Y6668D01*
X35164Y6068D02*
X36364D01*
X35764Y5468D02*
Y6668D01*
X40164Y6068D02*
X41364D01*
X40764Y5468D02*
Y6668D01*
X45164Y6068D02*
X46364D01*
X45764Y5468D02*
Y6668D01*
X50164Y6068D02*
X51364D01*
X50764Y5468D02*
Y6668D01*
X55164Y6068D02*
X56364D01*
X55764Y5468D02*
Y6668D01*
X60164Y6068D02*
X61364D01*
X60764Y5468D02*
Y6668D01*
X65164Y6068D02*
X66364D01*
X65764Y5468D02*
Y6668D01*
X70164Y6068D02*
X71364D01*
X70764Y5468D02*
Y6668D01*
X75164Y6068D02*
X76364D01*
X75764Y5468D02*
Y6668D01*
X5164Y221068D02*
X6364D01*
X5764Y220468D02*
Y221668D01*
X5164Y226068D02*
X6364D01*
X5764Y225468D02*
Y226668D01*
X5164Y231068D02*
X6364D01*
X5764Y230468D02*
Y231668D01*
X5164Y236068D02*
X6364D01*
X5764Y235468D02*
Y236668D01*
X5164Y241068D02*
X6364D01*
X5764Y240468D02*
Y241668D01*
X5164Y246068D02*
X6364D01*
X5764Y245468D02*
Y246668D01*
X5164Y251068D02*
X6364D01*
X5764Y250468D02*
Y251668D01*
X5164Y256068D02*
X6364D01*
X5764Y255468D02*
Y256668D01*
X5164Y261068D02*
X6364D01*
X5764Y260468D02*
Y261668D01*
X5164Y266068D02*
X6364D01*
X5764Y265468D02*
Y266668D01*
X5164Y151068D02*
X6364D01*
X5764Y150468D02*
Y151668D01*
X5164Y156068D02*
X6364D01*
X5764Y155468D02*
Y156668D01*
X5164Y161068D02*
X6364D01*
X5764Y160468D02*
Y161668D01*
X5164Y166068D02*
X6364D01*
X5764Y165468D02*
Y166668D01*
X5164Y171068D02*
X6364D01*
X5764Y170468D02*
Y171668D01*
X5164Y176068D02*
X6364D01*
X5764Y175468D02*
Y176668D01*
X5164Y181068D02*
X6364D01*
X5764Y180468D02*
Y181668D01*
X5164Y186068D02*
X6364D01*
X5764Y185468D02*
Y186668D01*
X5164Y191068D02*
X6364D01*
X5764Y190468D02*
Y191668D01*
X5164Y196068D02*
X6364D01*
X5764Y195468D02*
Y196668D01*
X5164Y201068D02*
X6364D01*
X5764Y200468D02*
Y201668D01*
X5164Y206068D02*
X6364D01*
X5764Y205468D02*
Y206668D01*
X5164Y211068D02*
X6364D01*
X5764Y210468D02*
Y211668D01*
X5164Y216068D02*
X6364D01*
X5764Y215468D02*
Y216668D01*
X5164Y116068D02*
X6364D01*
X5764Y115468D02*
Y116668D01*
X5164Y121068D02*
X6364D01*
X5764Y120468D02*
Y121668D01*
X5164Y126068D02*
X6364D01*
X5764Y125468D02*
Y126668D01*
X5164Y131068D02*
X6364D01*
X5764Y130468D02*
Y131668D01*
X5164Y136068D02*
X6364D01*
X5764Y135468D02*
Y136668D01*
X5164Y141068D02*
X6364D01*
X5764Y140468D02*
Y141668D01*
X5164Y146068D02*
X6364D01*
X5764Y145468D02*
Y146668D01*
X5164Y71068D02*
X6364D01*
X5764Y70468D02*
Y71668D01*
X5164Y61068D02*
X6364D01*
X5764Y60468D02*
Y61668D01*
X5164Y56068D02*
X6364D01*
X5764Y55468D02*
Y56668D01*
X5164Y51068D02*
X6364D01*
X5764Y50468D02*
Y51668D01*
X5164Y46068D02*
X6364D01*
X5764Y45468D02*
Y46668D01*
X5164Y41068D02*
X6364D01*
X5764Y40468D02*
Y41668D01*
X5164Y36068D02*
X6364D01*
X5764Y35468D02*
Y36668D01*
X5164Y31068D02*
X6364D01*
X5764Y30468D02*
Y31668D01*
X5164Y26068D02*
X6364D01*
X5764Y25468D02*
Y26668D01*
X5164Y21068D02*
X6364D01*
X5764Y20468D02*
Y21668D01*
X5164Y16068D02*
X6364D01*
X5764Y15468D02*
Y16668D01*
X5164Y11068D02*
X6364D01*
X5764Y10468D02*
Y11668D01*
X5164Y6068D02*
X6364D01*
X5764Y5468D02*
Y6668D01*
X38015Y198846D02*
X39215D01*
X38615Y198246D02*
Y199446D01*
X33015Y189946D02*
X34215D01*
X33615Y189346D02*
Y190546D01*
X32754Y79316D02*
X33954D01*
X33354Y78716D02*
Y79916D01*
X37754Y79816D02*
X38954D01*
X38354Y79216D02*
Y80416D01*
X42754Y79816D02*
X43954D01*
X43354Y79216D02*
Y80416D01*
X42754Y88216D02*
X43954D01*
X43354Y87616D02*
Y88816D01*
X37754Y88216D02*
X38954D01*
X38354Y87616D02*
Y88816D01*
X32754Y88716D02*
X33954D01*
X33354Y88116D02*
Y89316D01*
X58573Y91496D02*
X59773D01*
X59173Y90896D02*
Y92096D01*
X52475Y90852D02*
X53675D01*
X53075Y90252D02*
Y91452D01*
X59175Y110852D02*
X60375D01*
X59775Y110252D02*
Y111452D01*
X59175Y105852D02*
X60375D01*
X59775Y105252D02*
Y106452D01*
X59175Y100852D02*
X60375D01*
X59775Y100252D02*
Y101452D01*
X59175Y95852D02*
X60375D01*
X59775Y95252D02*
Y96452D01*
X51475Y95852D02*
X52675D01*
X52075Y95252D02*
Y96452D01*
X51475Y100852D02*
X52675D01*
X52075Y100252D02*
Y101452D01*
X51475Y105852D02*
X52675D01*
X52075Y105252D02*
Y106452D01*
X51475Y110852D02*
X52675D01*
X52075Y110252D02*
Y111452D01*
X51475Y115852D02*
X52675D01*
X52075Y115252D02*
Y116452D01*
X59175Y115852D02*
X60375D01*
X59775Y115252D02*
Y116452D01*
X176680Y92752D02*
X177880D01*
X177280Y92152D02*
Y93352D01*
X182880Y92752D02*
X184080D01*
X183480Y92152D02*
Y93352D01*
X176080Y97752D02*
X177280D01*
X176680Y97152D02*
Y98352D01*
X183880Y107752D02*
X185080D01*
X184480Y107152D02*
Y108352D01*
X176080Y102752D02*
X177280D01*
X176680Y102152D02*
Y103352D01*
X176080Y107752D02*
X177280D01*
X176680Y107152D02*
Y108352D01*
X183880Y116252D02*
X185080D01*
X184480Y115652D02*
Y116852D01*
X183880Y112752D02*
X185080D01*
X184480Y112152D02*
Y113352D01*
X176080Y112752D02*
X177280D01*
X176680Y112152D02*
Y113352D01*
X182980Y119852D02*
X184180D01*
X183580Y119252D02*
Y120452D01*
X175580Y117752D02*
X176780D01*
X176180Y117152D02*
Y118352D01*
X180380Y124252D02*
X181580D01*
X180980Y123652D02*
Y124852D01*
X176680Y127552D02*
X177880D01*
X177280Y126952D02*
Y128152D01*
X171880Y121252D02*
X173080D01*
X172480Y120652D02*
Y121852D01*
X171880Y129052D02*
X173080D01*
X172480Y128452D02*
Y129652D01*
X183380Y73552D02*
X184580D01*
X183980Y72952D02*
Y74152D01*
Y58552D02*
X185180D01*
X184580Y57952D02*
Y59152D01*
X183980Y63552D02*
X185180D01*
X184580Y62952D02*
Y64152D01*
X183980Y68552D02*
X185180D01*
X184580Y67952D02*
Y69152D01*
X176680Y73552D02*
X177880D01*
X177280Y72952D02*
Y74152D01*
X176380Y68552D02*
X177580D01*
X176980Y67952D02*
Y69152D01*
X176380Y63552D02*
X177580D01*
X176980Y62952D02*
Y64152D01*
X176380Y58552D02*
X177580D01*
X176980Y57952D02*
Y59152D01*
X176380Y53552D02*
X177580D01*
X176980Y52952D02*
Y54152D01*
X183280Y48552D02*
X184480D01*
X183880Y47952D02*
Y49152D01*
X180580Y44252D02*
X181780D01*
X181180Y43652D02*
Y44852D01*
X176680Y41052D02*
X177880D01*
X177280Y40452D02*
Y41652D01*
X175380Y49752D02*
X176580D01*
X175980Y49152D02*
Y50352D01*
X171880Y39752D02*
X173080D01*
X172480Y39152D02*
Y40352D01*
X171880Y47252D02*
X173080D01*
X172480Y46652D02*
Y47852D01*
X58512Y77525D02*
X59712D01*
X59112Y76925D02*
Y78125D01*
X52975Y78252D02*
X54175D01*
X53575Y77652D02*
Y78852D01*
X51775Y53652D02*
X52975D01*
X52375Y53052D02*
Y54252D01*
X59475Y53652D02*
X60675D01*
X60075Y53052D02*
Y54252D01*
X163080Y74952D02*
X164280D01*
X163680Y74352D02*
Y75552D01*
X159880Y71252D02*
X161080D01*
X160480Y70652D02*
Y71852D01*
X155380Y77252D02*
X156580D01*
X155980Y76652D02*
Y77852D01*
X156380Y67752D02*
X157580D01*
X156980Y67152D02*
Y68352D01*
X152880Y64752D02*
X154080D01*
X153480Y64152D02*
Y65352D01*
X151880Y73752D02*
X153080D01*
X152480Y73152D02*
Y74352D01*
X148380Y63252D02*
X149580D01*
X148980Y62652D02*
Y63852D01*
X148380Y70752D02*
X149580D01*
X148980Y70152D02*
Y71352D01*
X143380Y62752D02*
X144580D01*
X143980Y62152D02*
Y63352D01*
X143380Y70752D02*
X144580D01*
X143980Y70152D02*
Y71352D01*
X73475Y79452D02*
X74675D01*
X74075Y78852D02*
Y80052D01*
X76475Y76252D02*
X77675D01*
X77075Y75652D02*
Y76852D01*
X67975Y73752D02*
X69175D01*
X68575Y73152D02*
Y74352D01*
X71475Y70252D02*
X72675D01*
X72075Y69652D02*
Y70852D01*
X74975Y66752D02*
X76175D01*
X75575Y66152D02*
Y67352D01*
X79975Y73252D02*
X81175D01*
X80575Y72652D02*
Y73852D01*
X79475Y63952D02*
X80675D01*
X80075Y63352D02*
Y64552D01*
X84475Y62752D02*
X85675D01*
X85075Y62152D02*
Y63352D01*
X84475Y70752D02*
X85675D01*
X85075Y70152D02*
Y71352D01*
X160880Y97252D02*
X162080D01*
X161480Y96652D02*
Y97852D01*
X157380Y100752D02*
X158580D01*
X157980Y100152D02*
Y101352D01*
X152880Y94252D02*
X154080D01*
X153480Y93652D02*
Y94852D01*
X153380Y103752D02*
X154580D01*
X153980Y103152D02*
Y104352D01*
X148880Y105252D02*
X150080D01*
X149480Y104652D02*
Y105852D01*
X148880Y97252D02*
X150080D01*
X149480Y96652D02*
Y97852D01*
X143880Y97752D02*
X145080D01*
X144480Y97152D02*
Y98352D01*
X143880Y105752D02*
X145080D01*
X144480Y105152D02*
Y106352D01*
X68475Y93752D02*
X69675D01*
X69075Y93152D02*
Y94352D01*
X76975Y92252D02*
X78175D01*
X77575Y91652D02*
Y92852D01*
X71475Y97752D02*
X72675D01*
X72075Y97152D02*
Y98352D01*
X74975Y101252D02*
X76175D01*
X75575Y100652D02*
Y101852D01*
X80380Y95752D02*
X81580D01*
X80980Y95152D02*
Y96352D01*
X78975Y104252D02*
X80175D01*
X79575Y103652D02*
Y104852D01*
X84380Y97752D02*
X85580D01*
X84980Y97152D02*
Y98352D01*
X83975Y105752D02*
X85175D01*
X84575Y105152D02*
Y106352D01*
X161321Y183028D02*
X162521D01*
X161921Y182428D02*
Y183628D01*
X157321Y179028D02*
X158521D01*
X157921Y178428D02*
Y179628D01*
X152821Y185028D02*
X154021D01*
X153421Y184428D02*
Y185628D01*
X153321Y175528D02*
X154521D01*
X153921Y174928D02*
Y176128D01*
X148821Y181528D02*
X150021D01*
X149421Y180928D02*
Y182128D01*
X148821Y173528D02*
X150021D01*
X149421Y172928D02*
Y174128D01*
X143821Y173028D02*
X145021D01*
X144421Y172428D02*
Y173628D01*
X143821Y181028D02*
X145021D01*
X144421Y180428D02*
Y181628D01*
X160821Y207028D02*
X162021D01*
X161421Y206428D02*
Y207628D01*
X157321Y210528D02*
X158521D01*
X157921Y209928D02*
Y211128D01*
X152821Y204028D02*
X154021D01*
X153421Y203428D02*
Y204628D01*
X153321Y214028D02*
X154521D01*
X153921Y213428D02*
Y214628D01*
X148821Y215528D02*
X150021D01*
X149421Y214928D02*
Y216128D01*
X148821Y207528D02*
X150021D01*
X149421Y206928D02*
Y208128D01*
X143821Y208028D02*
X145021D01*
X144421Y207428D02*
Y208628D01*
X143821Y216028D02*
X145021D01*
X144421Y215428D02*
Y216628D01*
X72916Y189528D02*
X74116D01*
X73516Y188928D02*
Y190128D01*
X68416Y185528D02*
X69616D01*
X69016Y184928D02*
Y186128D01*
X76416Y187028D02*
X77616D01*
X77016Y186428D02*
Y187628D01*
X80416Y183528D02*
X81616D01*
X81016Y182928D02*
Y184128D01*
X83916Y173028D02*
X85116D01*
X84516Y172428D02*
Y173628D01*
X78916Y174528D02*
X80116D01*
X79516Y173928D02*
Y175128D01*
X84416Y181028D02*
X85616D01*
X85016Y180428D02*
Y181628D01*
X74916Y177528D02*
X76116D01*
X75516Y176928D02*
Y178128D01*
X71416Y181028D02*
X72616D01*
X72016Y180428D02*
Y181628D01*
X67916Y204528D02*
X69116D01*
X68516Y203928D02*
Y205128D01*
X71416Y208028D02*
X72616D01*
X72016Y207428D02*
Y208628D01*
X76916Y202528D02*
X78116D01*
X77516Y201928D02*
Y203128D01*
X74916Y211528D02*
X76116D01*
X75516Y210928D02*
Y212128D01*
X80416Y206028D02*
X81616D01*
X81016Y205428D02*
Y206628D01*
X84416Y208028D02*
X85616D01*
X85016Y207428D02*
Y208628D01*
X78916Y214528D02*
X80116D01*
X79516Y213928D02*
Y215128D01*
X83916Y216028D02*
X85116D01*
X84516Y215428D02*
Y216628D01*
X123880Y105752D02*
X125080D01*
X124480Y105152D02*
Y106352D01*
X138880Y106752D02*
X140080D01*
X139480Y106152D02*
Y107352D01*
X133880Y106752D02*
X135080D01*
X134480Y106152D02*
Y107352D01*
X128880Y105752D02*
X130080D01*
X129480Y105152D02*
Y106352D01*
X123880Y70752D02*
X125080D01*
X124480Y70152D02*
Y71352D01*
X138880Y71752D02*
X140080D01*
X139480Y71152D02*
Y72352D01*
X133880Y71752D02*
X135080D01*
X134480Y71152D02*
Y72352D01*
X128880Y70752D02*
X130080D01*
X129480Y70152D02*
Y71352D01*
X123880Y62752D02*
X125080D01*
X124480Y62152D02*
Y63352D01*
X138880Y61752D02*
X140080D01*
X139480Y61152D02*
Y62352D01*
X133880Y61752D02*
X135080D01*
X134480Y61152D02*
Y62352D01*
X128880Y62752D02*
X130080D01*
X129480Y62152D02*
Y63352D01*
X138880Y96752D02*
X140080D01*
X139480Y96152D02*
Y97352D01*
X133880Y96752D02*
X135080D01*
X134480Y96152D02*
Y97352D01*
X103975Y62752D02*
X105175D01*
X104575Y62152D02*
Y63352D01*
X88975Y61752D02*
X90175D01*
X89575Y61152D02*
Y62352D01*
X93975Y61752D02*
X95175D01*
X94575Y61152D02*
Y62352D01*
X98975Y62752D02*
X100175D01*
X99575Y62152D02*
Y63352D01*
X103975Y97752D02*
X105175D01*
X104575Y97152D02*
Y98352D01*
X88975Y96752D02*
X90175D01*
X89575Y96152D02*
Y97352D01*
X93975Y96752D02*
X95175D01*
X94575Y96152D02*
Y97352D01*
X98975Y97752D02*
X100175D01*
X99575Y97152D02*
Y98352D01*
X103975Y105752D02*
X105175D01*
X104575Y105152D02*
Y106352D01*
X88975Y106752D02*
X90175D01*
X89575Y106152D02*
Y107352D01*
X93975Y106752D02*
X95175D01*
X94575Y106152D02*
Y107352D01*
X98975Y105752D02*
X100175D01*
X99575Y105152D02*
Y106352D01*
X103975Y70752D02*
X105175D01*
X104575Y70152D02*
Y71352D01*
X88975Y71752D02*
X90175D01*
X89575Y71152D02*
Y72352D01*
X93975Y71752D02*
X95175D01*
X94575Y71152D02*
Y72352D01*
X98975Y70752D02*
X100175D01*
X99575Y70152D02*
Y71352D01*
X103916Y181028D02*
X105116D01*
X104516Y180428D02*
Y181628D01*
X88916Y182028D02*
X90116D01*
X89516Y181428D02*
Y182628D01*
X93916Y182028D02*
X95116D01*
X94516Y181428D02*
Y182628D01*
X98916Y181028D02*
X100116D01*
X99516Y180428D02*
Y181628D01*
X103916Y173028D02*
X105116D01*
X104516Y172428D02*
Y173628D01*
X88916Y172028D02*
X90116D01*
X89516Y171428D02*
Y172628D01*
X93916Y172028D02*
X95116D01*
X94516Y171428D02*
Y172628D01*
X98916Y173028D02*
X100116D01*
X99516Y172428D02*
Y173628D01*
X123821Y173028D02*
X125021D01*
X124421Y172428D02*
Y173628D01*
X138821Y172028D02*
X140021D01*
X139421Y171428D02*
Y172628D01*
X133821Y172028D02*
X135021D01*
X134421Y171428D02*
Y172628D01*
X128821Y173028D02*
X130021D01*
X129421Y172428D02*
Y173628D01*
X123821Y181028D02*
X125021D01*
X124421Y180428D02*
Y181628D01*
X138821Y182028D02*
X140021D01*
X139421Y181428D02*
Y182628D01*
X133821Y182028D02*
X135021D01*
X134421Y181428D02*
Y182628D01*
X128821Y181028D02*
X130021D01*
X129421Y180428D02*
Y181628D01*
X123821Y216028D02*
X125021D01*
X124421Y215428D02*
Y216628D01*
X138821Y217028D02*
X140021D01*
X139421Y216428D02*
Y217628D01*
X133821Y217028D02*
X135021D01*
X134421Y216428D02*
Y217628D01*
X128821Y216028D02*
X130021D01*
X129421Y215428D02*
Y216628D01*
X123821Y208028D02*
X125021D01*
X124421Y207428D02*
Y208628D01*
X138821Y207028D02*
X140021D01*
X139421Y206428D02*
Y207628D01*
X133821Y207028D02*
X135021D01*
X134421Y206428D02*
Y207628D01*
X128821Y208028D02*
X130021D01*
X129421Y207428D02*
Y208628D01*
X103916Y208028D02*
X105116D01*
X104516Y207428D02*
Y208628D01*
X88916Y207028D02*
X90116D01*
X89516Y206428D02*
Y207628D01*
X93916Y207028D02*
X95116D01*
X94516Y206428D02*
Y207628D01*
X98916Y208028D02*
X100116D01*
X99516Y207428D02*
Y208628D01*
X88916Y217028D02*
X90116D01*
X89516Y216428D02*
Y217628D01*
X93916Y217028D02*
X95116D01*
X94516Y216428D02*
Y217628D01*
X98916Y216028D02*
X100116D01*
X99516Y215428D02*
Y216628D01*
X184038Y185916D02*
X185238D01*
X184638Y185316D02*
Y186516D01*
X177938Y185916D02*
X179138D01*
X178538Y185316D02*
Y186516D01*
X177321Y181028D02*
X178521D01*
X177921Y180428D02*
Y181628D01*
X185321Y176028D02*
X186521D01*
X185921Y175428D02*
Y176628D01*
X177321Y176028D02*
X178521D01*
X177921Y175428D02*
Y176628D01*
X185321Y171028D02*
X186521D01*
X185921Y170428D02*
Y171628D01*
X177321Y171028D02*
X178521D01*
X177921Y170428D02*
Y171628D01*
X185321Y166028D02*
X186521D01*
X185921Y165428D02*
Y166628D01*
X185021Y161028D02*
X186221D01*
X185621Y160428D02*
Y161628D01*
X177321Y166028D02*
X178521D01*
X177921Y165428D02*
Y166628D01*
X176321Y160528D02*
X177521D01*
X176921Y159928D02*
Y161128D01*
X183321Y156528D02*
X184521D01*
X183921Y155928D02*
Y157128D01*
X180321Y153028D02*
X181521D01*
X180921Y152428D02*
Y153628D01*
X176321Y150728D02*
X177521D01*
X176921Y150128D02*
Y151328D01*
X171821Y149528D02*
X173021D01*
X172421Y148928D02*
Y150128D01*
X171821Y157528D02*
X173021D01*
X172421Y156928D02*
Y158128D01*
X156880Y47252D02*
X158080D01*
X157480Y46652D02*
Y47852D01*
X161880Y47252D02*
X163080D01*
X162480Y46652D02*
Y47852D01*
X166880Y47252D02*
X168080D01*
X167480Y46652D02*
Y47852D01*
X156880Y39252D02*
X158080D01*
X157480Y38652D02*
Y39852D01*
X161880Y39252D02*
X163080D01*
X162480Y38652D02*
Y39852D01*
X166880Y39252D02*
X168080D01*
X167480Y38652D02*
Y39852D01*
X155821Y149528D02*
X157021D01*
X156421Y148928D02*
Y150128D01*
X160821Y149528D02*
X162021D01*
X161421Y148928D02*
Y150128D01*
X166821Y149528D02*
X168021D01*
X167421Y148928D02*
Y150128D01*
X166821Y157528D02*
X168021D01*
X167421Y156928D02*
Y158128D01*
X160821Y157528D02*
X162021D01*
X161421Y156928D02*
Y158128D01*
X155821Y157528D02*
X157021D01*
X156421Y156928D02*
Y158128D01*
X50116Y163528D02*
X51316D01*
X50716Y162928D02*
Y164128D01*
X52916Y155028D02*
X54116D01*
X53516Y154428D02*
Y155628D01*
X56416Y152028D02*
X57616D01*
X57016Y151428D02*
Y152628D01*
X60916Y150028D02*
X62116D01*
X61516Y149428D02*
Y150628D01*
X65916Y149528D02*
X67116D01*
X66516Y148928D02*
Y150128D01*
X70916Y149528D02*
X72116D01*
X71516Y148928D02*
Y150128D01*
X57916Y162528D02*
X59116D01*
X58516Y161928D02*
Y163128D01*
X60916Y158528D02*
X62116D01*
X61516Y157928D02*
Y159128D01*
X65916Y157528D02*
X67116D01*
X66516Y156928D02*
Y158128D01*
X70916Y157528D02*
X72116D01*
X71516Y156928D02*
Y158128D01*
X85975Y39252D02*
X87175D01*
X86575Y38652D02*
Y39852D01*
X80975Y38252D02*
X82175D01*
X81575Y37652D02*
Y38852D01*
X75975Y38252D02*
X77175D01*
X76575Y37652D02*
Y38852D01*
X90975Y39252D02*
X92175D01*
X91575Y38652D02*
Y39852D01*
X95975Y39252D02*
X97175D01*
X96575Y38652D02*
Y39852D01*
X100975Y39252D02*
X102175D01*
X101575Y38652D02*
Y39852D01*
X140975Y39252D02*
X142175D01*
X141575Y38652D02*
Y39852D01*
X145975Y38252D02*
X147175D01*
X146575Y37652D02*
Y38852D01*
X150975Y38252D02*
X152175D01*
X151575Y37652D02*
Y38852D01*
X135975Y39252D02*
X137175D01*
X136575Y38652D02*
Y39852D01*
X130975Y39252D02*
X132175D01*
X131575Y38652D02*
Y39852D01*
X125975Y39252D02*
X127175D01*
X126575Y38652D02*
Y39852D01*
X105975Y39252D02*
X107175D01*
X106575Y38652D02*
Y39852D01*
X110975Y39252D02*
X112175D01*
X111575Y38652D02*
Y39852D01*
X120975Y39252D02*
X122175D01*
X121575Y38652D02*
Y39852D01*
X85975Y47252D02*
X87175D01*
X86575Y46652D02*
Y47852D01*
X80975Y48252D02*
X82175D01*
X81575Y47652D02*
Y48852D01*
X75975Y48252D02*
X77175D01*
X76575Y47652D02*
Y48852D01*
X90975Y47252D02*
X92175D01*
X91575Y46652D02*
Y47852D01*
X95975Y47252D02*
X97175D01*
X96575Y46652D02*
Y47852D01*
X100975Y47252D02*
X102175D01*
X101575Y46652D02*
Y47852D01*
X140975Y47252D02*
X142175D01*
X141575Y46652D02*
Y47852D01*
X145975Y48252D02*
X147175D01*
X146575Y47652D02*
Y48852D01*
X150975Y48252D02*
X152175D01*
X151575Y47652D02*
Y48852D01*
X135975Y47252D02*
X137175D01*
X136575Y46652D02*
Y47852D01*
X130975Y47252D02*
X132175D01*
X131575Y46652D02*
Y47852D01*
X125975Y47252D02*
X127175D01*
X126575Y46652D02*
Y47852D01*
X105975Y47252D02*
X107175D01*
X106575Y46652D02*
Y47852D01*
X110975Y47252D02*
X112175D01*
X111575Y46652D02*
Y47852D01*
X115975Y47252D02*
X117175D01*
X116575Y46652D02*
Y47852D01*
X120975Y47252D02*
X122175D01*
X121575Y46652D02*
Y47852D01*
X140916Y149528D02*
X142116D01*
X141516Y148928D02*
Y150128D01*
X135916Y149528D02*
X137116D01*
X136516Y148928D02*
Y150128D01*
X130916Y149528D02*
X132116D01*
X131516Y148928D02*
Y150128D01*
X125916Y149528D02*
X127116D01*
X126516Y148928D02*
Y150128D01*
X105916Y149528D02*
X107116D01*
X106516Y148928D02*
Y150128D01*
X110916Y149528D02*
X112116D01*
X111516Y148928D02*
Y150128D01*
X115916Y149528D02*
X117116D01*
X116516Y148928D02*
Y150128D01*
X120916Y149528D02*
X122116D01*
X121516Y148928D02*
Y150128D01*
X120916Y157528D02*
X122116D01*
X121516Y156928D02*
Y158128D01*
X115916Y157528D02*
X117116D01*
X116516Y156928D02*
Y158128D01*
X110916Y157528D02*
X112116D01*
X111516Y156928D02*
Y158128D01*
X105916Y157528D02*
X107116D01*
X106516Y156928D02*
Y158128D01*
X150916Y148528D02*
X152116D01*
X151516Y147928D02*
Y149128D01*
X145916Y148528D02*
X147116D01*
X146516Y147928D02*
Y149128D01*
X125916Y157528D02*
X127116D01*
X126516Y156928D02*
Y158128D01*
X130916Y157528D02*
X132116D01*
X131516Y156928D02*
Y158128D01*
X135916Y157528D02*
X137116D01*
X136516Y156928D02*
Y158128D01*
X150916Y158528D02*
X152116D01*
X151516Y157928D02*
Y159128D01*
X145916Y158528D02*
X147116D01*
X146516Y157928D02*
Y159128D01*
X140916Y157528D02*
X142116D01*
X141516Y156928D02*
Y158128D01*
X100916Y149528D02*
X102116D01*
X101516Y148928D02*
Y150128D01*
X95916Y149528D02*
X97116D01*
X96516Y148928D02*
Y150128D01*
X90916Y149528D02*
X92116D01*
X91516Y148928D02*
Y150128D01*
X75916Y148528D02*
X77116D01*
X76516Y147928D02*
Y149128D01*
X80916Y148528D02*
X82116D01*
X81516Y147928D02*
Y149128D01*
X85916Y149528D02*
X87116D01*
X86516Y148928D02*
Y150128D01*
X100916Y157528D02*
X102116D01*
X101516Y156928D02*
Y158128D01*
X95916Y157528D02*
X97116D01*
X96516Y156928D02*
Y158128D01*
X90916Y157528D02*
X92116D01*
X91516Y156928D02*
Y158128D01*
X75916Y158528D02*
X77116D01*
X76516Y157928D02*
Y159128D01*
X80916Y158528D02*
X82116D01*
X81516Y157928D02*
Y159128D01*
X85916Y157528D02*
X87116D01*
X86516Y156928D02*
Y158128D01*
X185321Y205528D02*
X186521D01*
X185921Y204928D02*
Y206128D01*
X185121Y211528D02*
X186321D01*
X185721Y210928D02*
Y212128D01*
X185121Y216528D02*
X186321D01*
X185721Y215928D02*
Y217128D01*
X185121Y221528D02*
X186321D01*
X185721Y220928D02*
Y222128D01*
X177321Y211528D02*
X178521D01*
X177921Y210928D02*
Y212128D01*
X177321Y216528D02*
X178521D01*
X177921Y215928D02*
Y217128D01*
X177321Y221528D02*
X178521D01*
X177921Y220928D02*
Y222128D01*
X177321Y226528D02*
X178521D01*
X177921Y225928D02*
Y227128D01*
X185321Y226528D02*
X186521D01*
X185921Y225928D02*
Y227128D01*
X184321Y231528D02*
X185521D01*
X184921Y230928D02*
Y232128D01*
X181321Y235528D02*
X182521D01*
X181921Y234928D02*
Y236128D01*
X176821Y238528D02*
X178021D01*
X177421Y237928D02*
Y239128D01*
X175321Y230028D02*
X176521D01*
X175921Y229428D02*
Y230628D01*
X171821Y231528D02*
X173021D01*
X172421Y230928D02*
Y232128D01*
X171821Y239528D02*
X173021D01*
X172421Y238928D02*
Y240128D01*
X50016Y229028D02*
X51216D01*
X50616Y228428D02*
Y229628D01*
X49716Y224028D02*
X50916D01*
X50316Y223428D02*
Y224628D01*
X49716Y219028D02*
X50916D01*
X50316Y218428D02*
Y219628D01*
X51916Y233528D02*
X53116D01*
X52516Y232928D02*
Y234128D01*
X49716Y214028D02*
X50916D01*
X50316Y213428D02*
Y214628D01*
X70975Y39252D02*
X72175D01*
X71575Y38652D02*
Y39852D01*
X65975Y39252D02*
X67175D01*
X66575Y38652D02*
Y39852D01*
X70975Y47252D02*
X72175D01*
X71575Y46652D02*
Y47852D01*
X65975Y47252D02*
X67175D01*
X66575Y46652D02*
Y47852D01*
X53275Y46652D02*
X54475D01*
X53875Y46052D02*
Y47252D01*
X56475Y42752D02*
X57675D01*
X57075Y42152D02*
Y43352D01*
X61175Y48952D02*
X62375D01*
X61775Y48352D02*
Y49552D01*
X60975Y40252D02*
X62175D01*
X61575Y39652D02*
Y40852D01*
X156880Y129252D02*
X158080D01*
X157480Y128652D02*
Y129852D01*
X161880Y129252D02*
X163080D01*
X162480Y128652D02*
Y129852D01*
X156380Y121252D02*
X157580D01*
X156980Y120652D02*
Y121852D01*
X161380Y121252D02*
X162580D01*
X161980Y120652D02*
Y121852D01*
X166880Y121252D02*
X168080D01*
X167480Y120652D02*
Y121852D01*
X166880Y129252D02*
X168080D01*
X167480Y128652D02*
Y129852D01*
X156821Y239528D02*
X158021D01*
X157421Y238928D02*
Y240128D01*
X161821Y239528D02*
X163021D01*
X162421Y238928D02*
Y240128D01*
X156321Y231528D02*
X157521D01*
X156921Y230928D02*
Y232128D01*
X161321Y231528D02*
X162521D01*
X161921Y230928D02*
Y232128D01*
X166821Y231528D02*
X168021D01*
X167421Y230928D02*
Y232128D01*
X166821Y239528D02*
X168021D01*
X167421Y238928D02*
Y240128D01*
X70975Y129252D02*
X72175D01*
X71575Y128652D02*
Y129852D01*
X65975Y129252D02*
X67175D01*
X66575Y128652D02*
Y129852D01*
X71475Y121252D02*
X72675D01*
X72075Y120652D02*
Y121852D01*
X66475Y121252D02*
X67675D01*
X67075Y120652D02*
Y121852D01*
X52975Y122152D02*
X54175D01*
X53575Y121552D02*
Y122752D01*
X55975Y126252D02*
X57175D01*
X56575Y125652D02*
Y126852D01*
X61475Y120252D02*
X62675D01*
X62075Y119652D02*
Y120852D01*
X60975Y128752D02*
X62175D01*
X61575Y128152D02*
Y129352D01*
X60916Y239028D02*
X62116D01*
X61516Y238428D02*
Y239628D01*
X60916Y231028D02*
X62116D01*
X61516Y230428D02*
Y231628D01*
X57516Y219028D02*
X58716D01*
X58116Y218428D02*
Y219628D01*
Y228328D02*
X59316D01*
X58716Y227728D02*
Y228928D01*
X57516Y224028D02*
X58716D01*
X58116Y223428D02*
Y224628D01*
X55916Y237028D02*
X57116D01*
X56516Y236428D02*
Y237628D01*
X126880Y129252D02*
X128080D01*
X127480Y128652D02*
Y129852D01*
X131880Y129252D02*
X133080D01*
X132480Y128652D02*
Y129852D01*
X136880Y129252D02*
X138080D01*
X137480Y128652D02*
Y129852D01*
X151880Y130252D02*
X153080D01*
X152480Y129652D02*
Y130852D01*
X146880Y130252D02*
X148080D01*
X147480Y129652D02*
Y130852D01*
X141880Y129252D02*
X143080D01*
X142480Y128652D02*
Y129852D01*
X121880Y129252D02*
X123080D01*
X122480Y128652D02*
Y129852D01*
X126880Y121252D02*
X128080D01*
X127480Y120652D02*
Y121852D01*
X131880Y121252D02*
X133080D01*
X132480Y120652D02*
Y121852D01*
X136880Y121252D02*
X138080D01*
X137480Y120652D02*
Y121852D01*
X151880Y120252D02*
X153080D01*
X152480Y119652D02*
Y120852D01*
X146880Y120252D02*
X148080D01*
X147480Y119652D02*
Y120852D01*
X141880Y121252D02*
X143080D01*
X142480Y120652D02*
Y121852D01*
X121880Y121252D02*
X123080D01*
X122480Y120652D02*
Y121852D01*
X126821Y231528D02*
X128021D01*
X127421Y230928D02*
Y232128D01*
X131821Y231528D02*
X133021D01*
X132421Y230928D02*
Y232128D01*
X136821Y231528D02*
X138021D01*
X137421Y230928D02*
Y232128D01*
X151821Y230528D02*
X153021D01*
X152421Y229928D02*
Y231128D01*
X146821Y230528D02*
X148021D01*
X147421Y229928D02*
Y231128D01*
X141821Y231528D02*
X143021D01*
X142421Y230928D02*
Y232128D01*
X121821Y232528D02*
X123021D01*
X122421Y231928D02*
Y233128D01*
X126821Y239528D02*
X128021D01*
X127421Y238928D02*
Y240128D01*
X131821Y239528D02*
X133021D01*
X132421Y238928D02*
Y240128D01*
X136821Y239528D02*
X138021D01*
X137421Y238928D02*
Y240128D01*
X151821Y240528D02*
X153021D01*
X152421Y239928D02*
Y241128D01*
X146821Y240528D02*
X148021D01*
X147421Y239928D02*
Y241128D01*
X141821Y239528D02*
X143021D01*
X142421Y238928D02*
Y240128D01*
X121821Y238528D02*
X123021D01*
X122421Y237928D02*
Y239128D01*
X100975Y121252D02*
X102175D01*
X101575Y120652D02*
Y121852D01*
X95975Y121252D02*
X97175D01*
X96575Y120652D02*
Y121852D01*
X90975Y121252D02*
X92175D01*
X91575Y120652D02*
Y121852D01*
X75975Y120252D02*
X77175D01*
X76575Y119652D02*
Y120852D01*
X80975Y120252D02*
X82175D01*
X81575Y119652D02*
Y120852D01*
X85975Y121252D02*
X87175D01*
X86575Y120652D02*
Y121852D01*
X105975Y121252D02*
X107175D01*
X106575Y120652D02*
Y121852D01*
X100975Y129252D02*
X102175D01*
X101575Y128652D02*
Y129852D01*
X95975Y129252D02*
X97175D01*
X96575Y128652D02*
Y129852D01*
X90975Y129252D02*
X92175D01*
X91575Y128652D02*
Y129852D01*
X75975Y130252D02*
X77175D01*
X76575Y129652D02*
Y130852D01*
X80975Y130252D02*
X82175D01*
X81575Y129652D02*
Y130852D01*
X85975Y129252D02*
X87175D01*
X86575Y128652D02*
Y129852D01*
X105880Y129252D02*
X107080D01*
X106480Y128652D02*
Y129852D01*
X66416Y231528D02*
X67616D01*
X67016Y230928D02*
Y232128D01*
X71416Y231528D02*
X72616D01*
X72016Y230928D02*
Y232128D01*
X65916Y239528D02*
X67116D01*
X66516Y238928D02*
Y240128D01*
X70916Y239528D02*
X72116D01*
X71516Y238928D02*
Y240128D01*
X100916Y231528D02*
X102116D01*
X101516Y230928D02*
Y232128D01*
X95916Y231528D02*
X97116D01*
X96516Y230928D02*
Y232128D01*
X90916Y231528D02*
X92116D01*
X91516Y230928D02*
Y232128D01*
X75916Y230528D02*
X77116D01*
X76516Y229928D02*
Y231128D01*
X80916Y230528D02*
X82116D01*
X81516Y229928D02*
Y231128D01*
X85916Y231528D02*
X87116D01*
X86516Y230928D02*
Y232128D01*
X105916Y232528D02*
X107116D01*
X106516Y231928D02*
Y233128D01*
X105916Y238528D02*
X107116D01*
X106516Y237928D02*
Y239128D01*
X85916Y239528D02*
X87116D01*
X86516Y238928D02*
Y240128D01*
X80916Y240528D02*
X82116D01*
X81516Y239928D02*
Y241128D01*
X75916Y240528D02*
X77116D01*
X76516Y239928D02*
Y241128D01*
X50916Y187728D02*
X52116D01*
X51516Y187128D02*
Y188328D01*
X57116Y187728D02*
X58316D01*
X57716Y187128D02*
Y188328D01*
X50516Y182728D02*
X51716D01*
X51116Y182128D02*
Y183328D01*
X47628Y78843D02*
X48828D01*
X48228Y78242D02*
Y79443D01*
X50916Y159028D02*
X52116D01*
X51516Y158428D02*
Y159628D01*
X28315Y188146D02*
X29515D01*
X28915Y187546D02*
Y188746D01*
X57516Y182728D02*
X58716D01*
X58116Y182128D02*
Y183328D01*
X57916Y177728D02*
X59116D01*
X58516Y177128D02*
Y178328D01*
X57916Y172728D02*
X59116D01*
X58516Y172128D02*
Y173328D01*
X90916Y239528D02*
X92116D01*
X91516Y238928D02*
Y240128D01*
X95916Y239528D02*
X97116D01*
X96516Y238928D02*
Y240128D01*
X100916Y239528D02*
X102116D01*
X101516Y238928D02*
Y240128D01*
X57916Y167728D02*
X59116D01*
X58516Y167128D02*
Y168328D01*
X23315Y201146D02*
X24515D01*
X23915Y200546D02*
Y201746D01*
X50106Y177728D02*
X51306D01*
X50706Y177128D02*
Y178328D01*
X50116Y167728D02*
X51316D01*
X50716Y167128D02*
Y168328D01*
X50116Y172728D02*
X51316D01*
X50716Y172128D02*
Y173328D01*
X56916Y203928D02*
X58116D01*
X57516Y203328D02*
Y204528D01*
Y209028D02*
X58716D01*
X58116Y208428D02*
Y209628D01*
X57516Y214028D02*
X58716D01*
X58116Y213428D02*
Y214628D01*
X28315Y201146D02*
X29515D01*
X28915Y200546D02*
Y201746D01*
X13315Y188146D02*
X14515D01*
X13915Y187546D02*
Y188746D01*
X18315Y188146D02*
X19515D01*
X18915Y187546D02*
Y188746D01*
X13315Y201146D02*
X14515D01*
X13915Y200546D02*
Y201746D01*
X50716Y203928D02*
X51916D01*
X51316Y203328D02*
Y204528D01*
X23315Y188146D02*
X24515D01*
X23915Y187546D02*
Y188746D01*
X18315Y201146D02*
X19515D01*
X18915Y200546D02*
Y201746D01*
X59475Y58652D02*
X60675D01*
X60075Y58052D02*
Y59252D01*
X59675Y73652D02*
X60875D01*
X60275Y73052D02*
Y74252D01*
X51775Y68652D02*
X52975D01*
X52375Y68052D02*
Y69252D01*
X51775Y73652D02*
X52975D01*
X52375Y73052D02*
Y74252D01*
X51775Y63652D02*
X52975D01*
X52375Y63052D02*
Y64252D01*
X51775Y58652D02*
X52975D01*
X52375Y58052D02*
Y59252D01*
X59475Y63652D02*
X60675D01*
X60075Y63052D02*
Y64252D01*
X59675Y68652D02*
X60875D01*
X60275Y68052D02*
Y69252D01*
X115613Y118783D02*
X116991D01*
X116302Y118095D02*
Y119472D01*
X112064Y131720D02*
X113442D01*
X112753Y131032D02*
Y132409D01*
X112064Y118783D02*
X113442D01*
X112753Y118095D02*
Y119472D01*
X115613Y131720D02*
X116991D01*
X116302Y131032D02*
Y132409D01*
X72975Y89252D02*
X74175D01*
X73575Y88652D02*
Y89852D01*
X23054Y90516D02*
X24254D01*
X23654Y89916D02*
Y91116D01*
X18054Y90516D02*
X19254D01*
X18654Y89916D02*
Y91116D01*
X18054Y77516D02*
X19254D01*
X18654Y76916D02*
Y78116D01*
X28054Y77516D02*
X29254D01*
X28654Y76916D02*
Y78116D01*
X23054Y77516D02*
X24254D01*
X23654Y76916D02*
Y78116D01*
X13054Y77516D02*
X14254D01*
X13654Y76916D02*
Y78116D01*
X28054Y90516D02*
X29254D01*
X28654Y89916D02*
Y91116D01*
M02*
