M48
;Layer_Color=9474304
;FILE_FORMAT=2:5
INCH,TZ
;TYPE=PLATED
T01F00S00C0.01200
T02F00S00C0.01378
T03F00S00C0.03937
T04F00S00C0.12598
%
T01
X5764Y6068
X10764
X15764
X20764
X25764
X30764
X35764
X40764
X45764
X50764
X55764
X53875Y46652
X52375Y53652
X5764Y56068
Y51068
Y46068
Y41068
Y36068
Y31068
Y26068
Y21068
Y16068
Y11068
X60764Y6068
X65764
X70764
X75764
X80764
X85764
X90764
X95764
X100764
X105764
X110764
X115764
X120764
X125764
X130764
X135764
X140764
X145764
X150764
X155764
X160764
X165764
X170764
X175764
X180764
X185764
X190764
X195764
X200764
X205764
X210764
X205638Y26216
X181180Y44252
X183880Y48552
X184580Y53552
X176980
X175980Y49752
X172480Y47252
X167480
X162480
X157480
X151575Y48252
X146575
X141575Y47252
X136575
X131575
X126575
X121575
X116575
X111575
X106575
X101575
X96575
X91575
X86575
X81575Y48252
X76575
X71575Y47252
X66575
X61775Y48952
X60075Y53652
X57075Y42752
X61575Y40252
X66575Y39252
X71575
X76575Y38252
X81575
X86575Y39252
X91575
X96575
X101575
X106575
X111575
X116575
X121575
X126575
X131575
X136575
X141575
X146575Y38252
X151575
X157480Y39252
X162480
X167480
X172480Y39752
X177280Y41052
X191138Y56016
X214938
X230264Y54944
Y49944
Y44944
Y39944
Y34944
Y29944
Y24944
Y19944
Y14944
Y9944
Y6068
X225764
X220764
X215764
X230264Y59944
Y64944
Y69944
Y74944
Y79944
Y84944
Y89944
Y94944
Y99944
Y104944
Y109944
Y114944
Y119944
Y124944
Y129944
Y134944
Y139944
Y144944
Y149944
Y154944
Y159944
Y164944
Y169944
Y174944
Y179944
Y184944
Y189944
Y194944
Y199944
Y204944
Y209944
X220538Y201516
X215538
Y188516
X220538
X220764Y141068
X225764
X215764
X216538Y117716
X217338Y104616
X215096Y90810
X220096
Y77810
X215096
X210096
X205096
X201396Y79610
X196396Y80110
X191396Y80352
Y88510
X196396
X201396Y89009
X205096Y90810
X210096
X183480Y92752
X184480Y97752
Y102752
Y107752
Y112752
Y116252
X183580Y119852
X180980Y124252
X177280Y127552
X172480Y129052
X167480Y129252
X162480
X157480
X152480Y130252
X147480
X142480Y129252
X137480
X132480
X127480
X122480
Y121252
X127480
X132480
X137480
X142480
X147480Y120252
X152480
X156980Y121252
X161980
X167480
X172480
X176180Y117752
X176680Y112752
Y107752
Y102752
Y97752
X177280Y92752
Y73552
X176980Y68552
Y63552
Y58552
X184580
Y63552
Y68552
X183980Y73552
X163680Y74952
X160480Y71252
X156980Y67752
X153480Y64752
X148980Y63252
X143980Y62752
X139480Y61752
X134480
X129480Y62752
X124480
Y70752
X129480
X134480Y71752
X139480
X143980Y70752
X148980
X152480Y73752
X155980Y77252
X159480Y79252
X150328Y78652
X145327
X140328
X135327
X130327
X125328Y77678
X119238Y78016
X119711Y90916
X125328Y90952
X130327Y89252
X135327Y89552
X140328
X145327
X150328
X156980Y90752
X153480Y94252
X149480Y97252
X144480Y97752
X139480Y96752
X134480
X129480Y97752
X124480
Y105752
X129480
X134480Y106752
X139480
X144480Y105752
X149480Y105252
X153980Y103752
X157980Y100752
X161480Y97252
X189638Y111816
X185764Y141068
X180764
X175764
X170764
X165764
X160764
X155764
X150764
X145764
X140764
X135764
X130764
X125764
X120764
X115764
X110764
X105764
X100764
X95764
X90764
X85764
X80764
X75764
X70764
X65764
X60764
X61516Y150028
X66516Y149528
X71516
X76516Y148528
X81516
X86516Y149528
X91516
X96516
X101516
X106516
X111516
X116516
X121516
X126516
X131516
X136516
X141516
X146516Y148528
X151516
X156421Y149528
X161421
X167421
X172421
X176921Y150728
X180921Y153028
X183921Y156528
X185621Y161028
X185921Y166028
Y171028
Y176028
Y181028
X184638Y185916
X178538
X177921Y181028
Y176028
Y171028
Y166028
X176921Y160528
X172421Y157528
X167421
X161421
X156421
X151516Y158528
X146516
X141516Y157528
X136516
X131516
X126516
X121516
X116516
X111516
X106516
X101516
X96516
X91516
X86516
X81516Y158528
X76516
X71516Y157528
X66516
X61516Y158528
X58516Y162528
Y167728
Y172728
Y177728
X58116Y182728
X57716Y187728
X69016Y185528
X72016Y181028
X75516Y177528
X79516Y174528
X84516Y173028
X89516Y172028
X94516
X99516Y173028
X104516
Y181028
X99516
X94516Y182028
X89516
X85016Y181028
X81016Y183528
X82113Y189291
X87113
X92113
Y199765
X87113
X82113
X77516Y202528
X74016Y199528
X73516Y189528
X77016Y187028
X81016Y206028
X85016Y208028
X89516Y207028
X94516
X99516Y208028
X104516
X124421
X129421
X134421Y207028
X139421
X144421Y208028
X149421Y207528
X153421Y204028
X156921Y200528
X150268Y199828
X145268
X140269
X135268
X127638Y200316
X127838Y189316
X135268Y189354
X140269
X145268
X150268
X156921Y188528
X153421Y185028
X149421Y181528
X144421Y181028
X139421Y182028
X134421
X129421Y181028
X124421
Y173028
X129421
X134421Y172028
X139421
X144421Y173028
X149421Y173528
X153921Y175528
X157921Y179028
X161921Y183028
X161421Y207028
X157921Y210528
X177921Y211528
Y206028
X185921Y205528
X185721Y211528
X191838Y198816
X196838Y199216
X201838Y199716
X205538Y201516
X210538
Y188516
X205538
X201838Y190316
X196838Y190816
X192038Y190616
X200764Y141068
X205764
X210764
X106480Y129252
X101575
X96575
X91575
X86575
X81575Y130252
X76575
X71575Y129252
X66575
X61575Y128752
X56575Y126252
X62075Y120252
X67075Y121252
X72075
X76575Y120252
X81575
X86575Y121252
X91575
X96575
X101575
X106575
X104575Y105752
X99575
X94575Y106752
X89575
X84575Y105752
X79575Y104252
X75575Y101252
X72075Y97752
X69075Y93752
X73575Y89252
X77575Y92252
X80827Y89252
X80980Y95752
X84980Y97752
X89575Y96752
X94575
X99575Y97752
X104575
X87827Y89252
X89575Y71752
X94575
X99575Y70752
X104575
Y62752
X99575
X94575Y61752
X89575
X85075Y62752
X80075Y63952
X75575Y66752
X72075Y70252
X68575Y73752
X60275Y73652
Y68652
X60075Y63652
Y58652
X59112Y77525
X59173Y91496
X59775Y95852
Y100852
Y105852
Y110852
Y115852
X57016Y152028
X57516Y203928
X58116Y209028
X68516Y204528
X72016Y208028
X75516Y211528
X74075Y79452
X77075Y76252
X80575Y73252
X85075Y70752
X52375Y68652
Y73652
X53575Y78252
X48228Y78843
X43354Y79816
X38354
X33354Y79316
X28654Y77516
X23654
X18654
X13654
X5764Y76068
Y81068
Y86068
Y91068
Y96068
Y101068
Y106068
Y111068
Y116068
Y121068
Y126068
Y131068
Y136068
Y141068
X10764
X15764
X20764
X25764
X30764
X35764
X50764
X55764
X53516Y155028
X51516Y159028
X50716Y163528
Y167728
Y172728
X50706Y177728
X51116Y182728
X51516Y187728
X49213Y191732
X43615Y190446
X38615
X33615Y189946
X28915Y188146
X23915
X18915
X13915
X5764Y186068
Y181068
Y176068
Y171068
Y166068
Y161068
Y156068
Y151068
Y146068
X14515Y169546
X5764Y191068
Y196068
Y201068
Y206068
Y211068
X13915Y201146
X18915
X23915
X28915
X33615Y199346
X38615Y198846
X43615
X51316Y203928
X50316Y209028
X53575Y122152
X52075Y115852
Y110852
Y105852
Y100852
Y95852
X53075Y90852
X43354Y88216
X38354
X33354Y88716
X28654Y90516
X23654
X18654
X13654
X15515Y103646
X15415Y109446
X43215Y103701
X35215Y65046
X18715Y65246
X14415Y60746
X5764Y61068
Y66068
Y71068
X52375Y63652
Y58652
X50316Y214028
Y219028
Y224028
X50616Y229028
X52516Y233528
X50764Y269868
X55764
X45764
X40764
X35764
X30764
X25764
X20764
X15764
X10764
X5764
Y266068
Y261068
Y256068
Y251068
Y246068
Y241068
Y236068
Y231068
Y226068
Y221068
Y216068
X17115Y214146
X58116Y214028
Y219028
Y224028
X58716Y228328
X61516Y231028
X67016Y231528
X72016
X76516Y230528
X81516
X86516Y231528
X91516
X96516
X101516
X106516Y232528
Y238528
X101516Y239528
X96516
X91516
X86516
X81516Y240528
X76516
X71516Y239528
X66516
X61516Y239028
X56516Y237028
X60764Y269868
X65764
X70764
X75764
X80764
X85764
X90764
X95764
X100764
X105764
X110764
X115764
X120764
X125764
X130764
X135764
X140764
X145764
X150764
X155764
X160764
X165764
X170764
X175764
X180764
X185764
X190764
X195764
X200764
X205764
X210764
X196327Y252752
X179138Y252816
X177421Y238528
X172421Y239528
X167421
X162421
X157421
X152421Y240528
X147421
X142421Y239528
X137421
X132421
X127421
X122421Y238528
Y232528
X127421Y231528
X132421
X137421
X142421
X147421Y230528
X152421
X156921Y231528
X161921
X167421
X172421
X175921Y230028
X177921Y226528
Y221528
Y216528
X185721
Y221528
X185921Y226528
X184921Y231528
X181921Y235528
X153921Y214028
X149421Y215528
X144421Y216028
X139421Y217028
X134421
X129421Y216028
X124421
X104516
X99516
X94516Y217028
X89516
X84516Y216028
X79516Y214528
X213338Y224416
X230264Y224944
Y219944
Y214944
Y229944
Y234944
Y239944
Y244944
Y249944
Y254944
Y259944
Y264944
Y269868
X225764
X220764
X215764
T02
X112753Y118783
X116302
Y131720
X112753
X112694Y229004
X116243
Y241941
X112694
T03
X87109Y16595
X97109
X107109
X117109
X127109
X137109
X137338Y258816
X127338
X117338
X107338
X97338
X87338
T04
X22828Y25852
X211328Y246552
M30
