G04*
G04 #@! TF.GenerationSoftware,Altium Limited,Altium Designer,24.5.2 (23)*
G04*
G04 Layer_Color=16711935*
%FSLAX25Y25*%
%MOIN*%
G70*
G04*
G04 #@! TF.SameCoordinates,D8E2250F-7F27-460B-B064-3203462A9BAC*
G04*
G04*
G04 #@! TF.FilePolarity,Negative*
G04*
G01*
G75*
%ADD37R,0.05131X0.03950*%
%ADD39R,0.07800X0.16800*%
%ADD41C,0.13398*%
%ADD42R,0.07887X0.07887*%
%ADD43C,0.07887*%
%ADD44C,0.03200*%
%ADD45C,0.03202*%
%ADD46C,0.04000*%
D37*
X166532Y60343D02*
D03*
Y66248D02*
D03*
X182283Y66142D02*
D03*
Y60236D02*
D03*
D39*
X208032Y12795D02*
D03*
X188031D02*
D03*
X140787Y12598D02*
D03*
X160787D02*
D03*
D41*
X250787Y157677D02*
D03*
X26772Y150984D02*
D03*
X20866Y20079D02*
D03*
X251772Y20472D02*
D03*
D42*
X34252Y127126D02*
D03*
D43*
Y87126D02*
D03*
Y97126D02*
D03*
Y107126D02*
D03*
Y117126D02*
D03*
X24252Y87126D02*
D03*
Y97126D02*
D03*
Y107126D02*
D03*
Y117126D02*
D03*
Y127126D02*
D03*
X34252Y77126D02*
D03*
X24252D02*
D03*
D44*
X153543Y87598D02*
D03*
X168504Y80481D02*
D03*
X261221Y43307D02*
D03*
Y52559D02*
D03*
Y63583D02*
D03*
X219882Y33661D02*
D03*
Y43701D02*
D03*
Y53543D02*
D03*
X184031Y149295D02*
D03*
Y158795D02*
D03*
X73032Y62795D02*
D03*
Y71795D02*
D03*
Y80295D02*
D03*
Y90795D02*
D03*
X75532Y127295D02*
D03*
X228031Y94295D02*
D03*
Y105295D02*
D03*
Y114795D02*
D03*
Y125295D02*
D03*
Y134295D02*
D03*
Y143795D02*
D03*
X241142Y63583D02*
D03*
X201378Y86806D02*
D03*
X95669Y62795D02*
D03*
X96457Y71904D02*
D03*
X96653Y80512D02*
D03*
X130905Y87205D02*
D03*
X127032Y141795D02*
D03*
X126532Y157295D02*
D03*
X217323Y76181D02*
D03*
D45*
X219882Y63386D02*
D03*
D46*
X143898Y84252D02*
D03*
X115551Y90158D02*
D03*
X71850Y130315D02*
D03*
X203543Y121653D02*
D03*
X186024Y120866D02*
D03*
X56496Y121850D02*
D03*
X157677Y121260D02*
D03*
X186811Y112205D02*
D03*
X101378Y91339D02*
D03*
X149884Y125724D02*
D03*
X62205Y94882D02*
D03*
M02*
