G04*
G04 #@! TF.GenerationSoftware,Altium Limited,Altium Designer,24.5.2 (23)*
G04*
G04 Layer_Color=8388736*
%FSLAX25Y25*%
%MOIN*%
G70*
G04*
G04 #@! TF.SameCoordinates,D8E2250F-7F27-460B-B064-3203462A9BAC*
G04*
G04*
G04 #@! TF.FilePolarity,Negative*
G04*
G01*
G75*
G04:AMPARAMS|DCode=21|XSize=9.55mil|YSize=39.75mil|CornerRadius=4.77mil|HoleSize=0mil|Usage=FLASHONLY|Rotation=0.000|XOffset=0mil|YOffset=0mil|HoleType=Round|Shape=RoundedRectangle|*
%AMROUNDEDRECTD21*
21,1,0.00955,0.03020,0,0,0.0*
21,1,0.00000,0.03975,0,0,0.0*
1,1,0.00955,0.00000,-0.01510*
1,1,0.00955,0.00000,-0.01510*
1,1,0.00955,0.00000,0.01510*
1,1,0.00955,0.00000,0.01510*
%
%ADD21ROUNDEDRECTD21*%
G04:AMPARAMS|DCode=22|XSize=39.75mil|YSize=9.55mil|CornerRadius=4.77mil|HoleSize=0mil|Usage=FLASHONLY|Rotation=0.000|XOffset=0mil|YOffset=0mil|HoleType=Round|Shape=RoundedRectangle|*
%AMROUNDEDRECTD22*
21,1,0.03975,0.00000,0,0,0.0*
21,1,0.03020,0.00955,0,0,0.0*
1,1,0.00955,0.01510,0.00000*
1,1,0.00955,-0.01510,0.00000*
1,1,0.00955,-0.01510,0.00000*
1,1,0.00955,0.01510,0.00000*
%
%ADD22ROUNDEDRECTD22*%
%ADD23R,0.03975X0.00955*%
%ADD29R,0.04409X0.03228*%
%ADD30R,0.04737X0.03556*%
%ADD31R,0.06706X0.05918*%
%ADD32R,0.03950X0.05131*%
%ADD33R,0.03858X0.03780*%
%ADD34R,0.05918X0.06706*%
%ADD35R,0.12598X0.12598*%
%ADD36R,0.06115X0.06706*%
%ADD37R,0.05131X0.03950*%
%ADD38R,0.06800X0.16800*%
%ADD39R,0.07800X0.16800*%
%ADD40R,0.06312X0.05524*%
%ADD41C,0.13398*%
%ADD42R,0.07887X0.07887*%
%ADD43C,0.07887*%
%ADD44C,0.03200*%
%ADD45C,0.03202*%
%ADD46C,0.04000*%
D21*
X179331Y103347D02*
D03*
X173425D02*
D03*
X175394D02*
D03*
X169488D02*
D03*
X171457D02*
D03*
X177362D02*
D03*
X173425Y84045D02*
D03*
X169488D02*
D03*
X171457D02*
D03*
X177362D02*
D03*
X179331D02*
D03*
X175394D02*
D03*
X165551Y103347D02*
D03*
X167520D02*
D03*
Y84045D02*
D03*
X165551D02*
D03*
D22*
X182091Y100586D02*
D03*
Y94680D02*
D03*
Y92712D02*
D03*
Y98617D02*
D03*
Y96649D02*
D03*
Y90743D02*
D03*
Y88775D02*
D03*
Y86806D02*
D03*
X162790Y92712D02*
D03*
Y90743D02*
D03*
Y96649D02*
D03*
Y94680D02*
D03*
Y98617D02*
D03*
Y88775D02*
D03*
Y86806D02*
D03*
D23*
Y100586D02*
D03*
D29*
X64079Y20866D02*
D03*
Y24606D02*
D03*
Y28346D02*
D03*
D30*
X73528Y20866D02*
D03*
Y28346D02*
D03*
D31*
X43607D02*
D03*
Y20866D02*
D03*
D32*
X144291Y70276D02*
D03*
X150197D02*
D03*
X203937Y71063D02*
D03*
X198031D02*
D03*
D33*
X92126Y34646D02*
D03*
X96662D02*
D03*
X92126Y44094D02*
D03*
X96662D02*
D03*
D34*
X249213Y63386D02*
D03*
X256693D02*
D03*
X226378Y43898D02*
D03*
X233858D02*
D03*
X133268Y158071D02*
D03*
X140748D02*
D03*
X132283Y141929D02*
D03*
X139764D02*
D03*
X249606Y53543D02*
D03*
X257087D02*
D03*
X168701Y158268D02*
D03*
X176181D02*
D03*
X89370Y80905D02*
D03*
X81890D02*
D03*
X214567Y143538D02*
D03*
X222047D02*
D03*
X234055Y63583D02*
D03*
X226575D02*
D03*
X249606Y43701D02*
D03*
X257087D02*
D03*
X214764Y94882D02*
D03*
X222244D02*
D03*
X234055Y34055D02*
D03*
X226575D02*
D03*
X226772Y53740D02*
D03*
X234252D02*
D03*
X89567Y71904D02*
D03*
X82087D02*
D03*
X89567Y62795D02*
D03*
X82087D02*
D03*
X90457Y25394D02*
D03*
X97937D02*
D03*
X89173Y91142D02*
D03*
X81693D02*
D03*
Y109252D02*
D03*
X89173D02*
D03*
X214567Y114961D02*
D03*
X222047D02*
D03*
X214567Y105512D02*
D03*
X222047D02*
D03*
X214567Y134537D02*
D03*
X222047D02*
D03*
X176181Y133465D02*
D03*
X168701D02*
D03*
D35*
X172441Y93696D02*
D03*
D36*
X88976Y157874D02*
D03*
X81496D02*
D03*
X89173Y127756D02*
D03*
X81693D02*
D03*
X222047Y125536D02*
D03*
X214567D02*
D03*
X89173Y148819D02*
D03*
X81693D02*
D03*
X89173Y139764D02*
D03*
X81693D02*
D03*
X89173Y100143D02*
D03*
X81693D02*
D03*
X81890Y118504D02*
D03*
X89370D02*
D03*
D37*
X166732Y50000D02*
D03*
Y44094D02*
D03*
X182283Y49606D02*
D03*
Y43701D02*
D03*
Y66142D02*
D03*
Y60236D02*
D03*
X198031Y50197D02*
D03*
Y44291D02*
D03*
X166535Y66142D02*
D03*
Y60236D02*
D03*
X150984Y51575D02*
D03*
Y45669D02*
D03*
D38*
X198031Y12795D02*
D03*
X150787Y12598D02*
D03*
D39*
X208032Y12795D02*
D03*
X188031D02*
D03*
X140787Y12598D02*
D03*
X160787D02*
D03*
D40*
X176772Y148622D02*
D03*
Y141929D02*
D03*
X168110Y148622D02*
D03*
Y141929D02*
D03*
D41*
X250787Y157677D02*
D03*
X26772Y150984D02*
D03*
X20866Y20079D02*
D03*
X251772Y20472D02*
D03*
D42*
X34252Y127126D02*
D03*
D43*
Y87126D02*
D03*
Y97126D02*
D03*
Y107126D02*
D03*
Y117126D02*
D03*
X24252Y87126D02*
D03*
Y97126D02*
D03*
Y107126D02*
D03*
Y117126D02*
D03*
Y127126D02*
D03*
X34252Y77126D02*
D03*
X24252D02*
D03*
D44*
X153543Y87598D02*
D03*
X168504Y80481D02*
D03*
X261221Y43307D02*
D03*
Y52559D02*
D03*
Y63583D02*
D03*
X219882Y33661D02*
D03*
Y43701D02*
D03*
Y53543D02*
D03*
X184031Y149295D02*
D03*
Y158795D02*
D03*
X73032Y62795D02*
D03*
Y71795D02*
D03*
Y80295D02*
D03*
Y90795D02*
D03*
X75532Y127295D02*
D03*
X228031Y94295D02*
D03*
Y105295D02*
D03*
Y114795D02*
D03*
Y125295D02*
D03*
Y134295D02*
D03*
Y143795D02*
D03*
X241142Y63583D02*
D03*
X201378Y86806D02*
D03*
X95669Y62795D02*
D03*
X96457Y71904D02*
D03*
X96653Y80512D02*
D03*
X130905Y87205D02*
D03*
X127032Y141795D02*
D03*
X126532Y157295D02*
D03*
X217323Y76181D02*
D03*
D45*
X219882Y63386D02*
D03*
D46*
X143898Y84252D02*
D03*
X115551Y90158D02*
D03*
X71850Y130315D02*
D03*
X203543Y121653D02*
D03*
X186024Y120866D02*
D03*
X56496Y121850D02*
D03*
X157677Y121260D02*
D03*
X186811Y112205D02*
D03*
X101378Y91339D02*
D03*
X149884Y125724D02*
D03*
X62205Y94882D02*
D03*
M02*
