G04*
G04 #@! TF.GenerationSoftware,Altium Limited,Altium Designer,24.5.2 (23)*
G04*
G04 Layer_Physical_Order=2*
G04 Layer_Color=16711680*
%FSLAX25Y25*%
%MOIN*%
G70*
G04*
G04 #@! TF.SameCoordinates,D8E2250F-7F27-460B-B064-3203462A9BAC*
G04*
G04*
G04 #@! TF.FilePolarity,Positive*
G04*
G01*
G75*
%ADD12C,0.01000*%
%ADD14C,0.02000*%
%ADD25R,0.04331X0.03150*%
%ADD27R,0.07000X0.16000*%
%ADD44C,0.03200*%
%ADD48C,0.01500*%
%ADD49C,0.03000*%
%ADD51C,0.12598*%
%ADD52R,0.07087X0.07087*%
%ADD53C,0.07087*%
%ADD54C,0.02400*%
%ADD55C,0.02402*%
G36*
X271654Y3937D02*
X3937D01*
Y173228D01*
X271654D01*
Y3937D01*
D02*
G37*
%LPC*%
G36*
X27451Y157884D02*
X26092D01*
X24759Y157618D01*
X23504Y157098D01*
X22374Y156343D01*
X21413Y155382D01*
X20658Y154252D01*
X20138Y152997D01*
X19872Y151664D01*
Y150305D01*
X20138Y148972D01*
X20658Y147716D01*
X21413Y146586D01*
X22374Y145625D01*
X23504Y144870D01*
X24759Y144350D01*
X26092Y144085D01*
X27451D01*
X28784Y144350D01*
X30040Y144870D01*
X31170Y145625D01*
X32131Y146586D01*
X32886Y147716D01*
X33406Y148972D01*
X33671Y150305D01*
Y151664D01*
X33406Y152997D01*
X32886Y154252D01*
X32131Y155382D01*
X31170Y156343D01*
X30040Y157098D01*
X28784Y157618D01*
X27451Y157884D01*
D02*
G37*
G36*
X38395Y131269D02*
X30109D01*
Y122983D01*
X38395D01*
Y131269D01*
D02*
G37*
G36*
X24798D02*
X23707D01*
X22653Y130987D01*
X21708Y130441D01*
X20936Y129670D01*
X20391Y128725D01*
X20109Y127672D01*
Y126581D01*
X20391Y125527D01*
X20936Y124582D01*
X21708Y123811D01*
X22653Y123265D01*
X23707Y122983D01*
X24798D01*
X25851Y123265D01*
X26796Y123811D01*
X27567Y124582D01*
X28113Y125527D01*
X28395Y126581D01*
Y127672D01*
X28113Y128725D01*
X27567Y129670D01*
X26796Y130441D01*
X25851Y130987D01*
X24798Y131269D01*
D02*
G37*
G36*
X150321Y127924D02*
X149446D01*
X148637Y127589D01*
X148019Y126970D01*
X147684Y126162D01*
Y125286D01*
X148019Y124478D01*
X148637Y123859D01*
X149096Y123669D01*
X149181Y123612D01*
X149281Y123592D01*
X149446Y123524D01*
X149625D01*
X150000Y123449D01*
X155900D01*
X156110Y122975D01*
X155875Y122677D01*
X58535D01*
X58361Y123097D01*
X57742Y123715D01*
X56934Y124050D01*
X56059D01*
X55250Y123715D01*
X54631Y123097D01*
X54296Y122288D01*
Y121413D01*
X54631Y120604D01*
X55250Y119985D01*
X56059Y119650D01*
X56934D01*
X57742Y119985D01*
X58191Y120434D01*
X155638D01*
X155812Y120014D01*
X156431Y119395D01*
X157240Y119060D01*
X158115D01*
X158923Y119395D01*
X159542Y120014D01*
X159877Y120822D01*
Y121697D01*
X159542Y122506D01*
X159099Y122949D01*
X159306Y123449D01*
X172845D01*
X172988Y123391D01*
X173863D01*
X174671Y123725D01*
X175290Y124344D01*
X175625Y125153D01*
Y126028D01*
X175290Y126837D01*
X174671Y127456D01*
X173863Y127791D01*
X172988D01*
X172845Y127732D01*
X150786D01*
X150321Y127924D01*
D02*
G37*
G36*
X72288Y132515D02*
X71413D01*
X70604Y132180D01*
X69985Y131561D01*
X69650Y130753D01*
Y129877D01*
X69985Y129069D01*
X70604Y128450D01*
X71413Y128115D01*
X72288D01*
X73097Y128450D01*
X73716Y129069D01*
X73767Y129193D01*
X202422D01*
Y123570D01*
X202297Y123519D01*
X201678Y122900D01*
X201343Y122091D01*
Y121216D01*
X201678Y120407D01*
X202297Y119789D01*
X203106Y119454D01*
X203981D01*
X204789Y119789D01*
X205408Y120407D01*
X205743Y121216D01*
Y122091D01*
X205408Y122900D01*
X204789Y123519D01*
X204665Y123570D01*
Y130315D01*
X204579Y130744D01*
X204336Y131108D01*
X203973Y131351D01*
X203543Y131437D01*
X73767D01*
X73716Y131561D01*
X73097Y132180D01*
X72288Y132515D01*
D02*
G37*
G36*
X24850Y121669D02*
X24752D01*
Y117626D01*
X28795D01*
Y117724D01*
X28486Y118880D01*
X27887Y119916D01*
X27042Y120762D01*
X26006Y121360D01*
X24850Y121669D01*
D02*
G37*
G36*
X23752D02*
X23654D01*
X22498Y121360D01*
X21462Y120762D01*
X20616Y119916D01*
X20018Y118880D01*
X19709Y117724D01*
Y117626D01*
X23752D01*
Y121669D01*
D02*
G37*
G36*
X186461Y123066D02*
X185586D01*
X184777Y122731D01*
X184159Y122112D01*
X183824Y121304D01*
Y120429D01*
X184159Y119620D01*
X184777Y119001D01*
X184902Y118949D01*
Y117460D01*
X140748D01*
X140319Y117375D01*
X139955Y117132D01*
X139712Y116768D01*
X139627Y116339D01*
Y113326D01*
X36923D01*
X36816Y113725D01*
X36812Y113826D01*
X37567Y114582D01*
X38113Y115527D01*
X38395Y116580D01*
Y117672D01*
X38113Y118725D01*
X37567Y119670D01*
X36796Y120441D01*
X35851Y120987D01*
X34797Y121269D01*
X33707D01*
X32653Y120987D01*
X31708Y120441D01*
X30937Y119670D01*
X30391Y118725D01*
X30109Y117672D01*
Y116580D01*
X30391Y115527D01*
X30937Y114582D01*
X31692Y113826D01*
X31688Y113725D01*
X31581Y113326D01*
X27585D01*
X27377Y113826D01*
X27887Y114336D01*
X28486Y115372D01*
X28795Y116528D01*
Y116626D01*
X19709D01*
Y116528D01*
X20018Y115372D01*
X20616Y114336D01*
X21462Y113490D01*
X22498Y112892D01*
X23188Y112707D01*
X23216Y112634D01*
X23130Y112205D01*
Y111115D01*
X22653Y110987D01*
X21708Y110442D01*
X20936Y109670D01*
X20391Y108725D01*
X20109Y107671D01*
Y106580D01*
X20391Y105527D01*
X20936Y104582D01*
X21708Y103811D01*
X22653Y103265D01*
X23137Y103135D01*
X23152Y103120D01*
X23315Y102570D01*
X23216Y102421D01*
X23130Y101992D01*
Y101115D01*
X22653Y100987D01*
X21708Y100441D01*
X20936Y99670D01*
X20391Y98725D01*
X20109Y97672D01*
Y96580D01*
X20391Y95527D01*
X20936Y94582D01*
X21708Y93810D01*
X22653Y93265D01*
X23707Y92983D01*
X24798D01*
X25851Y93265D01*
X26796Y93810D01*
X27567Y94582D01*
X28113Y95527D01*
X28395Y96580D01*
Y97672D01*
X28113Y98725D01*
X27567Y99670D01*
X26867Y100370D01*
X26968Y100870D01*
X31536D01*
X31637Y100370D01*
X30937Y99670D01*
X30391Y98725D01*
X30109Y97672D01*
Y96580D01*
X30391Y95527D01*
X30937Y94582D01*
X31708Y93810D01*
X32653Y93265D01*
X33707Y92983D01*
X34797D01*
X35851Y93265D01*
X36796Y93810D01*
X37567Y94582D01*
X38113Y95527D01*
X38395Y96580D01*
Y97672D01*
X38113Y98725D01*
X37567Y99670D01*
X36867Y100370D01*
X36968Y100870D01*
X147441D01*
X147870Y100955D01*
X148234Y101199D01*
X148477Y101562D01*
X148563Y101992D01*
Y111083D01*
X184894D01*
X184946Y110959D01*
X185565Y110340D01*
X186373Y110005D01*
X187249D01*
X188057Y110340D01*
X188676Y110959D01*
X189011Y111767D01*
Y112642D01*
X188676Y113451D01*
X188057Y114070D01*
X187249Y114405D01*
X186373D01*
X185565Y114070D01*
X184946Y113451D01*
X184894Y113326D01*
X147441D01*
X147012Y113241D01*
X146648Y112998D01*
X146405Y112634D01*
X146319Y112205D01*
Y103113D01*
X36588D01*
X36454Y103613D01*
X36796Y103811D01*
X37567Y104582D01*
X38113Y105527D01*
X38395Y106580D01*
Y107671D01*
X38113Y108725D01*
X37567Y109670D01*
X36796Y110442D01*
X36551Y110583D01*
X36685Y111083D01*
X140748D01*
X141177Y111169D01*
X141541Y111412D01*
X141784Y111776D01*
X141870Y112205D01*
Y115217D01*
X186024D01*
X186453Y115302D01*
X186817Y115545D01*
X187060Y115909D01*
X187145Y116339D01*
Y118949D01*
X187270Y119001D01*
X187889Y119620D01*
X188224Y120429D01*
Y121304D01*
X187889Y122112D01*
X187270Y122731D01*
X186461Y123066D01*
D02*
G37*
G36*
X62642Y97082D02*
X61767D01*
X60958Y96747D01*
X60340Y96128D01*
X60005Y95319D01*
Y94444D01*
X60340Y93636D01*
X60958Y93017D01*
X61767Y92682D01*
X62642D01*
X63451Y93017D01*
X64070Y93636D01*
X64121Y93760D01*
X100169D01*
X100269Y93260D01*
X100132Y93204D01*
X99513Y92585D01*
X99178Y91776D01*
Y90901D01*
X99513Y90092D01*
X100132Y89473D01*
X100256Y89422D01*
Y84524D01*
X100256Y84524D01*
X100342Y84095D01*
X100585Y83731D01*
X101054Y83262D01*
X101054Y83262D01*
X101217Y83153D01*
X101065Y82653D01*
X96653D01*
X95834Y82490D01*
X95139Y82026D01*
X94675Y81331D01*
X94512Y80512D01*
X94675Y79692D01*
X95139Y78998D01*
X95834Y78534D01*
X96653Y78371D01*
X100615D01*
Y74046D01*
X96457D01*
X95637Y73883D01*
X94943Y73418D01*
X94478Y72724D01*
X94315Y71904D01*
X94478Y71085D01*
X94943Y70390D01*
X95637Y69926D01*
X96457Y69763D01*
X100615D01*
Y64936D01*
X95669D01*
X94850Y64773D01*
X94155Y64309D01*
X93691Y63615D01*
X93528Y62795D01*
X93691Y61976D01*
X94155Y61281D01*
X94850Y60817D01*
X95669Y60654D01*
X100615D01*
Y46163D01*
X100454Y46002D01*
X99990Y45308D01*
X99827Y44488D01*
X99990Y43669D01*
X100454Y42974D01*
X101149Y42510D01*
X101969Y42347D01*
X102788Y42510D01*
X103482Y42974D01*
X104270Y43762D01*
X104734Y44456D01*
X104897Y45276D01*
Y62598D01*
Y71850D01*
Y77780D01*
X125197D01*
X126016Y77943D01*
X126711Y78407D01*
X127175Y79102D01*
X127193Y79193D01*
X146457D01*
X146457Y79193D01*
X146886Y79279D01*
X147250Y79522D01*
X147391Y79663D01*
X147391Y79663D01*
X147634Y80027D01*
X147719Y80456D01*
Y86398D01*
X147634Y86827D01*
X147391Y87191D01*
X147391Y87191D01*
X146584Y87998D01*
X146220Y88241D01*
X145791Y88326D01*
X145791Y88326D01*
X132329D01*
X131925Y88731D01*
X131264Y89005D01*
X130547D01*
X129886Y88731D01*
X129379Y88224D01*
X129105Y87563D01*
Y86847D01*
X129379Y86185D01*
X129886Y85679D01*
X129891Y85677D01*
X129791Y85177D01*
X102499D01*
Y89422D01*
X102624Y89473D01*
X103243Y90092D01*
X103578Y90901D01*
Y91776D01*
X103243Y92585D01*
X102624Y93204D01*
X102487Y93260D01*
X102587Y93760D01*
X105768D01*
Y90158D01*
X105854Y89728D01*
X106097Y89364D01*
X106461Y89121D01*
X106890Y89036D01*
X113635D01*
X113686Y88911D01*
X114305Y88292D01*
X115114Y87958D01*
X115989D01*
X116797Y88292D01*
X117416Y88911D01*
X117751Y89720D01*
Y90595D01*
X117416Y91404D01*
X116797Y92023D01*
X115989Y92357D01*
X115114D01*
X114305Y92023D01*
X113686Y91404D01*
X113635Y91279D01*
X108011D01*
Y94882D01*
X107926Y95311D01*
X107683Y95675D01*
X107319Y95918D01*
X106890Y96003D01*
X64121D01*
X64070Y96128D01*
X63451Y96747D01*
X62642Y97082D01*
D02*
G37*
G36*
X34797Y91269D02*
X33707D01*
X32653Y90987D01*
X31708Y90441D01*
X30937Y89670D01*
X30391Y88725D01*
X30109Y87672D01*
Y86580D01*
X30391Y85527D01*
X30937Y84582D01*
X31708Y83811D01*
X32653Y83265D01*
X33707Y82983D01*
X34797D01*
X35851Y83265D01*
X36796Y83811D01*
X37567Y84582D01*
X38113Y85527D01*
X38395Y86580D01*
Y87672D01*
X38113Y88725D01*
X37567Y89670D01*
X36796Y90441D01*
X35851Y90987D01*
X34797Y91269D01*
D02*
G37*
G36*
X24798D02*
X23707D01*
X22653Y90987D01*
X21708Y90441D01*
X20936Y89670D01*
X20391Y88725D01*
X20109Y87672D01*
Y86580D01*
X20391Y85527D01*
X20936Y84582D01*
X21708Y83811D01*
X22653Y83265D01*
X23707Y82983D01*
X24798D01*
X25851Y83265D01*
X26796Y83811D01*
X27567Y84582D01*
X28113Y85527D01*
X28395Y86580D01*
Y87672D01*
X28113Y88725D01*
X27567Y89670D01*
X26796Y90441D01*
X25851Y90987D01*
X24798Y91269D01*
D02*
G37*
G36*
X34797Y81269D02*
X33707D01*
X32653Y80987D01*
X31708Y80441D01*
X30937Y79670D01*
X30391Y78725D01*
X30109Y77671D01*
Y76581D01*
X30391Y75527D01*
X30937Y74582D01*
X31708Y73810D01*
X32653Y73265D01*
X33707Y72983D01*
X34797D01*
X35851Y73265D01*
X36796Y73810D01*
X37567Y74582D01*
X38113Y75527D01*
X38395Y76581D01*
Y77671D01*
X38113Y78725D01*
X37567Y79670D01*
X36796Y80441D01*
X35851Y80987D01*
X34797Y81269D01*
D02*
G37*
G36*
X24798D02*
X23707D01*
X22653Y80987D01*
X21708Y80441D01*
X20936Y79670D01*
X20391Y78725D01*
X20109Y77671D01*
Y76581D01*
X20391Y75527D01*
X20936Y74582D01*
X21708Y73810D01*
X22653Y73265D01*
X23707Y72983D01*
X24798D01*
X25851Y73265D01*
X26796Y73810D01*
X27567Y74582D01*
X28113Y75527D01*
X28395Y76581D01*
Y77671D01*
X28113Y78725D01*
X27567Y79670D01*
X26796Y80441D01*
X25851Y80987D01*
X24798Y81269D01*
D02*
G37*
G36*
X185049Y68317D02*
X179518D01*
Y63967D01*
X185049D01*
Y68317D01*
D02*
G37*
G36*
X201575Y109054D02*
X150787D01*
X150261Y108949D01*
X149814Y108651D01*
X149516Y108204D01*
X149411Y107677D01*
Y77558D01*
X140354D01*
X139828Y77453D01*
X139381Y77154D01*
X134302Y72076D01*
X134091D01*
X133429Y71802D01*
X132923Y71295D01*
X132649Y70634D01*
Y69918D01*
X132923Y69256D01*
X133429Y68750D01*
X134091Y68476D01*
X134807D01*
X135468Y68750D01*
X135975Y69256D01*
X136249Y69918D01*
Y70129D01*
X140925Y74805D01*
X149626D01*
X149814Y74523D01*
X163766Y60571D01*
Y58168D01*
X169297D01*
Y62517D01*
X165713D01*
X164619Y63611D01*
X164810Y64073D01*
X169297D01*
Y68423D01*
X163766D01*
Y65117D01*
X163304Y64926D01*
X152164Y76066D01*
Y85779D01*
X152664Y86014D01*
X153185Y85798D01*
X153901D01*
X154563Y86072D01*
X154967Y86477D01*
X160922D01*
X166704Y80695D01*
Y80124D01*
X166978Y79462D01*
X167484Y78956D01*
X168146Y78681D01*
X168862D01*
X169524Y78956D01*
X170030Y79462D01*
X170304Y80124D01*
Y80840D01*
X170030Y81501D01*
X169524Y82007D01*
X168862Y82282D01*
X168290D01*
X162180Y88392D01*
X161816Y88635D01*
X161387Y88720D01*
X161387Y88720D01*
X154967D01*
X154563Y89124D01*
X153901Y89398D01*
X153185D01*
X152664Y89182D01*
X152164Y89418D01*
Y106301D01*
X200198D01*
Y88172D01*
X199852Y87826D01*
X199578Y87164D01*
Y86448D01*
X199852Y85786D01*
X200198Y85440D01*
Y76751D01*
X185549Y62102D01*
X185049Y62309D01*
Y62411D01*
X179518D01*
Y58061D01*
X185049D01*
Y58860D01*
X185630D01*
X186157Y58965D01*
X186603Y59263D01*
X202145Y74805D01*
X216154D01*
X216303Y74655D01*
X216965Y74381D01*
X217681D01*
X218088Y74550D01*
X238891D01*
X239510Y73931D01*
Y64348D01*
X239342Y63941D01*
Y63225D01*
X239616Y62563D01*
X240122Y62057D01*
X240784Y61783D01*
X241500D01*
X242161Y62057D01*
X242668Y62563D01*
X242942Y63225D01*
Y63941D01*
X242773Y64348D01*
Y74606D01*
X242649Y75231D01*
X242295Y75760D01*
X240721Y77335D01*
X240191Y77688D01*
X239567Y77812D01*
X218088D01*
X217681Y77981D01*
X216965D01*
X216303Y77707D01*
X216154Y77558D01*
X202951D01*
Y85901D01*
X203178Y86448D01*
Y87164D01*
X202951Y87712D01*
Y107677D01*
X202847Y108204D01*
X202548Y108651D01*
X202101Y108949D01*
X201575Y109054D01*
D02*
G37*
%LPD*%
G36*
X142651Y82387D02*
X143460Y82052D01*
X144335D01*
X144976Y82317D01*
X145476Y82066D01*
Y81437D01*
X126709D01*
X126016Y81899D01*
X125197Y82062D01*
X103161D01*
X102605Y82434D01*
X102647Y82823D01*
X102688Y82934D01*
X142105D01*
X142651Y82387D01*
D02*
G37*
D12*
X153543Y87598D02*
X161387D01*
X168504Y80481D01*
X125197Y79921D02*
X125591Y80315D01*
X146598Y80456D02*
Y86398D01*
X125591Y80315D02*
X146457D01*
X146598Y80456D01*
X101847Y84055D02*
X143701D01*
X145791Y87205D02*
X146598Y86398D01*
X101378Y84524D02*
Y91339D01*
Y84524D02*
X101847Y84055D01*
X130905Y87205D02*
X145791D01*
X106890Y90158D02*
Y94882D01*
Y90158D02*
X115551D01*
X62205Y94882D02*
Y95079D01*
Y94882D02*
X106890D01*
X71850Y130315D02*
X203543D01*
Y121653D02*
Y130315D01*
X186024Y116339D02*
Y120866D01*
X140748Y116339D02*
X186024D01*
X140748Y112205D02*
Y116339D01*
X24252Y112205D02*
X140748D01*
X147441D02*
X186811D01*
X147441Y101992D02*
Y112205D01*
X186811D02*
Y112283D01*
X24252Y107126D02*
Y112205D01*
Y101992D02*
X147441D01*
X24252Y97126D02*
Y101992D01*
X56496Y121850D02*
X56791Y121555D01*
X157382D01*
X157677Y121260D01*
D14*
X241142Y63583D02*
Y74606D01*
X239567Y76181D02*
X241142Y74606D01*
X217323Y76181D02*
X239567D01*
D25*
X166532Y60343D02*
D03*
Y66248D02*
D03*
X182283Y66142D02*
D03*
Y60236D02*
D03*
D27*
X208032Y12795D02*
D03*
X188031D02*
D03*
X140787Y12598D02*
D03*
X160787D02*
D03*
D44*
X143898Y84252D02*
D03*
X115551Y90158D02*
D03*
X71850Y130315D02*
D03*
X203543Y121653D02*
D03*
X186024Y120866D02*
D03*
X56496Y121850D02*
D03*
X157677Y121260D02*
D03*
X186811Y112205D02*
D03*
X101378Y91339D02*
D03*
X149884Y125724D02*
D03*
X173425Y125591D02*
D03*
X62205Y94882D02*
D03*
D48*
X185630Y60236D02*
X201575Y76181D01*
X182283Y60236D02*
X185630D01*
X201575Y76181D02*
X217323D01*
X201575D02*
Y86806D01*
Y107677D01*
X165941Y60343D02*
X166532D01*
X150787Y75496D02*
X165941Y60343D01*
X150787Y75496D02*
Y76181D01*
X140354D02*
X150787D01*
Y107677D01*
X201575D01*
X134449Y70276D02*
X140354Y76181D01*
D49*
X102756Y45276D02*
Y62598D01*
X101969Y44488D02*
X102756Y45276D01*
X102292Y79921D02*
X102756Y79457D01*
X102292Y79921D02*
X125197D01*
X101701Y80512D02*
X102292Y79921D01*
X102756Y71850D02*
Y79457D01*
X96653Y80512D02*
X101701D01*
X102756Y62598D02*
Y71850D01*
X95669Y62795D02*
X102559D01*
X102756Y62598D01*
X102702Y71904D02*
X102756Y71850D01*
X96457Y71904D02*
X102702D01*
X150000Y125591D02*
X173425D01*
D51*
X250787Y157677D02*
D03*
X26772Y150984D02*
D03*
X20866Y20079D02*
D03*
X251772Y20472D02*
D03*
D52*
X34252Y127126D02*
D03*
D53*
Y87126D02*
D03*
Y97126D02*
D03*
Y107126D02*
D03*
Y117126D02*
D03*
X24252Y87126D02*
D03*
Y97126D02*
D03*
Y107126D02*
D03*
Y117126D02*
D03*
Y127126D02*
D03*
X34252Y77126D02*
D03*
X24252D02*
D03*
D54*
X157984Y80512D02*
D03*
X162992Y81102D02*
D03*
X153543Y78347D02*
D03*
Y87598D02*
D03*
X168504Y80481D02*
D03*
X168307Y74410D02*
D03*
X261221Y43307D02*
D03*
Y52559D02*
D03*
Y63583D02*
D03*
X219882Y33661D02*
D03*
Y43701D02*
D03*
Y53543D02*
D03*
X167409Y93555D02*
D03*
X172409D02*
D03*
X167409Y89055D02*
D03*
X172409D02*
D03*
X177409D02*
D03*
Y98055D02*
D03*
X172409D02*
D03*
X177409Y93555D02*
D03*
X167409Y98055D02*
D03*
X174409Y9055D02*
D03*
Y14055D02*
D03*
Y19055D02*
D03*
Y24055D02*
D03*
Y29055D02*
D03*
Y34055D02*
D03*
Y39055D02*
D03*
Y44055D02*
D03*
Y49055D02*
D03*
Y54055D02*
D03*
Y59055D02*
D03*
Y64055D02*
D03*
Y69055D02*
D03*
X184031Y149295D02*
D03*
Y158795D02*
D03*
X44032Y15295D02*
D03*
X106032Y25295D02*
D03*
X73032Y62795D02*
D03*
Y71795D02*
D03*
Y80295D02*
D03*
Y90795D02*
D03*
X75532Y127295D02*
D03*
X228031Y94295D02*
D03*
Y105295D02*
D03*
Y114795D02*
D03*
Y125295D02*
D03*
Y134295D02*
D03*
Y143795D02*
D03*
X193032Y71795D02*
D03*
X189032Y74295D02*
D03*
X184031D02*
D03*
X179032Y74795D02*
D03*
X183031Y80795D02*
D03*
X188031D02*
D03*
X193032Y79795D02*
D03*
X197031Y77295D02*
D03*
X194532Y62795D02*
D03*
X154484Y67598D02*
D03*
X166535Y66142D02*
D03*
X204031Y12795D02*
D03*
Y17795D02*
D03*
Y22795D02*
D03*
X202031Y27795D02*
D03*
X201532Y32795D02*
D03*
X203031Y47795D02*
D03*
X201532Y37795D02*
D03*
X203031Y52795D02*
D03*
X201532Y57795D02*
D03*
X204031Y7795D02*
D03*
X202031Y42795D02*
D03*
X201532Y62795D02*
D03*
X194032Y42795D02*
D03*
X192032Y7795D02*
D03*
X194532Y57795D02*
D03*
X193032Y52795D02*
D03*
X194532Y37795D02*
D03*
X192835Y47795D02*
D03*
X194532Y32795D02*
D03*
X194032Y27795D02*
D03*
X192032Y22795D02*
D03*
Y17795D02*
D03*
Y12795D02*
D03*
X162795Y74016D02*
D03*
X158071Y73032D02*
D03*
X156984Y12598D02*
D03*
Y17598D02*
D03*
Y22598D02*
D03*
X154984Y27598D02*
D03*
X154784Y32598D02*
D03*
X155984Y47598D02*
D03*
X154784Y37598D02*
D03*
X155984Y52598D02*
D03*
X154484Y57598D02*
D03*
X156984Y7598D02*
D03*
X154984Y42598D02*
D03*
X154484Y62598D02*
D03*
X147484D02*
D03*
X146787Y42598D02*
D03*
X165484Y6098D02*
D03*
X144984Y7598D02*
D03*
X147484Y57598D02*
D03*
X145984Y52598D02*
D03*
X147184Y37598D02*
D03*
X145984Y47598D02*
D03*
X147184Y32598D02*
D03*
X146984Y27598D02*
D03*
X144984Y22598D02*
D03*
Y17598D02*
D03*
Y12598D02*
D03*
X265905Y10905D02*
D03*
Y15905D02*
D03*
Y20906D02*
D03*
Y25905D02*
D03*
Y30906D02*
D03*
Y35906D02*
D03*
Y40905D02*
D03*
Y45906D02*
D03*
Y50906D02*
D03*
Y55905D02*
D03*
Y60905D02*
D03*
Y65905D02*
D03*
Y70906D02*
D03*
Y75906D02*
D03*
Y80905D02*
D03*
Y85905D02*
D03*
Y90905D02*
D03*
Y95906D02*
D03*
Y105905D02*
D03*
Y100906D02*
D03*
Y110906D02*
D03*
Y115905D02*
D03*
Y120905D02*
D03*
Y125906D02*
D03*
Y130905D02*
D03*
Y135906D02*
D03*
Y140905D02*
D03*
Y145905D02*
D03*
Y150906D02*
D03*
Y155905D02*
D03*
Y160906D02*
D03*
Y165905D02*
D03*
X210906Y5906D02*
D03*
X180905D02*
D03*
X185906D02*
D03*
X160906D02*
D03*
X140905D02*
D03*
X135906D02*
D03*
X265905Y170905D02*
D03*
X260906D02*
D03*
X255906D02*
D03*
X250905D02*
D03*
X245905D02*
D03*
X240905D02*
D03*
X235906D02*
D03*
X230906D02*
D03*
X225905D02*
D03*
X220905D02*
D03*
X215905D02*
D03*
X210906D02*
D03*
X205906D02*
D03*
X200905D02*
D03*
X190905D02*
D03*
X195905D02*
D03*
X185906D02*
D03*
X180905D02*
D03*
X170905D02*
D03*
X175906D02*
D03*
X165905D02*
D03*
X160906D02*
D03*
X155905D02*
D03*
X145905D02*
D03*
X150906D02*
D03*
X140905D02*
D03*
X135906D02*
D03*
X130905D02*
D03*
X125906D02*
D03*
X115905D02*
D03*
X120905D02*
D03*
X110906D02*
D03*
X105905D02*
D03*
X100906D02*
D03*
X95906D02*
D03*
X90905D02*
D03*
X85905D02*
D03*
X80905D02*
D03*
X75906D02*
D03*
X70906D02*
D03*
X65905D02*
D03*
X60905D02*
D03*
X55905D02*
D03*
X50906D02*
D03*
X40905D02*
D03*
X45906D02*
D03*
X35906D02*
D03*
X30906D02*
D03*
X25905D02*
D03*
X20906D02*
D03*
X15905D02*
D03*
X10905D02*
D03*
X5906D02*
D03*
Y165905D02*
D03*
Y160906D02*
D03*
Y155905D02*
D03*
Y150906D02*
D03*
Y145905D02*
D03*
Y140905D02*
D03*
Y135906D02*
D03*
Y130905D02*
D03*
Y125906D02*
D03*
Y120905D02*
D03*
Y115905D02*
D03*
Y110906D02*
D03*
Y105905D02*
D03*
Y100906D02*
D03*
Y95906D02*
D03*
Y90905D02*
D03*
Y85905D02*
D03*
Y80905D02*
D03*
Y75906D02*
D03*
Y70906D02*
D03*
Y65905D02*
D03*
Y60905D02*
D03*
Y55905D02*
D03*
Y50906D02*
D03*
Y45906D02*
D03*
Y40905D02*
D03*
Y35906D02*
D03*
Y30906D02*
D03*
Y25905D02*
D03*
Y20906D02*
D03*
Y15905D02*
D03*
Y10905D02*
D03*
X265905Y5906D02*
D03*
X260906D02*
D03*
X255906D02*
D03*
X250905D02*
D03*
X245905D02*
D03*
X240905D02*
D03*
X235906D02*
D03*
X230906D02*
D03*
X225905D02*
D03*
X220905D02*
D03*
X215905D02*
D03*
X175906D02*
D03*
X170905D02*
D03*
X130905D02*
D03*
X125906D02*
D03*
X120905D02*
D03*
X115905D02*
D03*
X110906D02*
D03*
X105905D02*
D03*
X100906D02*
D03*
X95906D02*
D03*
X90905D02*
D03*
X85905D02*
D03*
X80905D02*
D03*
X75906D02*
D03*
X70906D02*
D03*
X65905D02*
D03*
X60905D02*
D03*
X55905D02*
D03*
X45906D02*
D03*
X50906D02*
D03*
X40905D02*
D03*
X35906D02*
D03*
X30906D02*
D03*
X25905D02*
D03*
X20906D02*
D03*
X15905D02*
D03*
X10905D02*
D03*
X5906D02*
D03*
X134449Y70276D02*
D03*
X241142Y63583D02*
D03*
X201378Y86806D02*
D03*
X101969Y44488D02*
D03*
X95669Y62795D02*
D03*
X96457Y71904D02*
D03*
X96653Y80512D02*
D03*
X130905Y87205D02*
D03*
X127032Y141795D02*
D03*
X126532Y157295D02*
D03*
X217323Y76181D02*
D03*
X182283Y66142D02*
D03*
D55*
X219882Y63386D02*
D03*
M02*
