G04*
G04 #@! TF.GenerationSoftware,Altium Limited,Altium Designer,24.5.2 (23)*
G04*
G04 Layer_Physical_Order=1*
G04 Layer_Color=255*
%FSLAX25Y25*%
%MOIN*%
G70*
G04*
G04 #@! TF.SameCoordinates,466BDFCD-25A3-4837-BAAA-452BE7E626CC*
G04*
G04*
G04 #@! TF.FilePolarity,Positive*
G04*
G01*
G75*
%ADD12C,0.01000*%
%ADD14C,0.02000*%
%ADD16R,0.07000X0.16000*%
%ADD17R,0.06000X0.16000*%
%ADD18R,0.01968X0.02362*%
%ADD19R,0.01968X0.06299*%
%ADD20R,0.04331X0.03150*%
%ADD21R,0.05118X0.05906*%
%ADD22R,0.05906X0.05118*%
%ADD23R,0.03465X0.03386*%
%ADD24R,0.03150X0.04331*%
%ADD25R,0.05315X0.05906*%
%ADD26R,0.05512X0.04724*%
%ADD27R,0.03937X0.02756*%
G04:AMPARAMS|DCode=28|XSize=39.75mil|YSize=9.55mil|CornerRadius=4.77mil|HoleSize=0mil|Usage=FLASHONLY|Rotation=0.000|XOffset=0mil|YOffset=0mil|HoleType=Round|Shape=RoundedRectangle|*
%AMROUNDEDRECTD28*
21,1,0.03975,0.00000,0,0,0.0*
21,1,0.03020,0.00955,0,0,0.0*
1,1,0.00955,0.01510,0.00000*
1,1,0.00955,-0.01510,0.00000*
1,1,0.00955,-0.01510,0.00000*
1,1,0.00955,0.01510,0.00000*
%
%ADD28ROUNDEDRECTD28*%
G04:AMPARAMS|DCode=29|XSize=9.55mil|YSize=39.75mil|CornerRadius=4.77mil|HoleSize=0mil|Usage=FLASHONLY|Rotation=0.000|XOffset=0mil|YOffset=0mil|HoleType=Round|Shape=RoundedRectangle|*
%AMROUNDEDRECTD29*
21,1,0.00955,0.03020,0,0,0.0*
21,1,0.00000,0.03975,0,0,0.0*
1,1,0.00955,0.00000,-0.01510*
1,1,0.00955,0.00000,-0.01510*
1,1,0.00955,0.00000,0.01510*
1,1,0.00955,0.00000,0.01510*
%
%ADD29ROUNDEDRECTD29*%
%ADD30R,0.03975X0.00955*%
%ADD44R,0.12598X0.12598*%
%ADD48C,0.03200*%
%ADD51C,0.02700*%
%ADD52C,0.01900*%
%ADD53C,0.03000*%
%ADD54C,0.00800*%
%ADD55C,0.01500*%
%ADD56C,0.07087*%
%ADD57R,0.07087X0.07087*%
%ADD58C,0.12598*%
%ADD59C,0.02400*%
%ADD60C,0.02402*%
G36*
X136705Y145982D02*
X136302D01*
Y139295D01*
X124728D01*
X125031Y138993D01*
Y136622D01*
X122622D01*
Y158571D01*
X122536Y159000D01*
X122449Y159130D01*
X122717Y160146D01*
X123250Y161130D01*
X125031D01*
Y163320D01*
X136705D01*
Y145982D01*
D02*
G37*
G36*
X271350Y4437D02*
X203221D01*
X201328Y4695D01*
X201328Y6437D01*
Y21128D01*
X201356Y21172D01*
X201353Y21253D01*
X201366Y21283D01*
X201328Y21895D01*
X201328Y21895D01*
X200968Y22293D01*
X200373Y23183D01*
X199963Y24173D01*
X199794Y25022D01*
X199744Y25687D01*
X199728Y26694D01*
X199717Y26719D01*
Y42617D01*
X200494D01*
Y46522D01*
X200494Y46966D01*
Y48522D01*
X200494Y48966D01*
Y52872D01*
X199717D01*
Y68176D01*
X201459Y68798D01*
X201903Y68798D01*
X205809D01*
Y69422D01*
X217216D01*
X218036Y69585D01*
X218730Y70049D01*
X219195Y70744D01*
X219358Y71563D01*
Y76681D01*
X219195Y77500D01*
X218730Y78195D01*
X218036Y78659D01*
X217216Y78822D01*
X216397Y78659D01*
X215703Y78195D01*
X215238Y77500D01*
X215075Y76681D01*
Y73704D01*
X205809D01*
Y74328D01*
X201903D01*
X201459Y74328D01*
X199903D01*
X199459Y74328D01*
X197639D01*
X196448Y75806D01*
X196277Y75948D01*
X195741Y76576D01*
X194327Y77783D01*
X192743Y78754D01*
X191025Y79466D01*
X189217Y79900D01*
X187369Y80045D01*
Y80047D01*
X187368Y80047D01*
X187367Y80047D01*
X187355Y80047D01*
X185369Y80047D01*
X183358D01*
X182597Y79896D01*
X181952Y79465D01*
X179933Y79455D01*
X179648Y79724D01*
X179116Y80544D01*
X179804Y82258D01*
X180042Y82615D01*
X181320Y83424D01*
X181320Y83424D01*
X181320Y83424D01*
X181749Y83509D01*
X182113Y83752D01*
X182581Y84221D01*
X182581Y84221D01*
X182825Y84585D01*
X182825Y84585D01*
X182829Y84608D01*
X182910Y85014D01*
Y86185D01*
X199651D01*
X200055Y85780D01*
X200717Y85506D01*
X201433D01*
X202094Y85780D01*
X202601Y86286D01*
X202875Y86948D01*
Y87664D01*
X202685Y88122D01*
X203040Y89090D01*
X203633Y90122D01*
X207177D01*
X207606Y90207D01*
X207970Y90450D01*
X208213Y90814D01*
X208299Y91243D01*
Y94260D01*
X211302D01*
Y91829D01*
X217620D01*
Y98935D01*
X211302D01*
Y96503D01*
X207177D01*
X206748Y96418D01*
X206384Y96175D01*
X206362Y96141D01*
X204859Y96289D01*
X204362Y96474D01*
Y105087D01*
X211105D01*
Y102459D01*
X217423D01*
Y109565D01*
X211105D01*
Y107330D01*
X204362D01*
Y114930D01*
X211105D01*
Y111908D01*
X217423D01*
Y119013D01*
X211105D01*
Y117173D01*
X204362D01*
Y120237D01*
X204486Y120289D01*
X205105Y120907D01*
X205440Y121716D01*
Y122591D01*
X205224Y123112D01*
X205684Y124287D01*
X206222Y125112D01*
X211006D01*
Y122484D01*
X217521D01*
Y129589D01*
X217521D01*
X217423Y131485D01*
X217423D01*
Y138590D01*
X217423D01*
Y140486D01*
X217423D01*
Y147591D01*
X211105D01*
Y145357D01*
X192020D01*
Y145382D01*
X179824Y145391D01*
X173113D01*
Y145391D01*
X172845D01*
X171163Y147391D01*
Y151091D01*
X171547D01*
Y155215D01*
X171557D01*
Y162320D01*
X165239D01*
Y160909D01*
X151722D01*
Y164406D01*
X151559Y165226D01*
X151094Y165920D01*
X150040Y166975D01*
X149345Y167439D01*
X148526Y167602D01*
X13940D01*
X13121Y167439D01*
X12426Y166975D01*
X11372Y165920D01*
X10908Y165226D01*
X10745Y164406D01*
Y127626D01*
Y42429D01*
X10908Y41610D01*
X11372Y40915D01*
X12066Y40451D01*
X12886Y40288D01*
X41162D01*
Y32006D01*
X39751D01*
Y25687D01*
X46856D01*
Y32006D01*
X45445D01*
Y40288D01*
X53264D01*
Y28846D01*
Y21366D01*
X53427Y20547D01*
X53891Y19852D01*
X54586Y19388D01*
X55405Y19225D01*
X63776D01*
X64595Y19388D01*
X64596Y19388D01*
X66344D01*
Y23344D01*
X64596D01*
X64595Y23344D01*
X63776Y23507D01*
X57547D01*
Y26705D01*
X63776D01*
X64595Y26868D01*
X64596Y26869D01*
X66344D01*
Y30824D01*
X64596D01*
X64595Y30825D01*
X63776Y30988D01*
X57547D01*
Y42429D01*
X57384Y43249D01*
X56919Y43943D01*
X56225Y44407D01*
X55405Y44570D01*
X15027D01*
Y125485D01*
X20401D01*
X20633Y125082D01*
X21405Y124311D01*
X22105Y123906D01*
X22237Y122826D01*
X22049Y121775D01*
X21159Y121262D01*
X20313Y120416D01*
X19715Y119380D01*
X19406Y118224D01*
Y118126D01*
X23949D01*
Y117126D01*
X19406D01*
Y117028D01*
X19715Y115872D01*
X20313Y114836D01*
X21159Y113990D01*
X22049Y113477D01*
X22237Y112426D01*
X22105Y111346D01*
X21405Y110942D01*
X20633Y110170D01*
X20088Y109225D01*
X19805Y108171D01*
Y107080D01*
X20088Y106027D01*
X20633Y105082D01*
X21405Y104311D01*
X22350Y103765D01*
X22737Y103661D01*
Y101591D01*
X22350Y101487D01*
X21405Y100941D01*
X20633Y100170D01*
X20088Y99225D01*
X19805Y98172D01*
Y97080D01*
X20088Y96027D01*
X20633Y95082D01*
X21405Y94310D01*
X22350Y93765D01*
X22737Y93661D01*
Y91591D01*
X22350Y91487D01*
X21405Y90941D01*
X20633Y90170D01*
X20088Y89225D01*
X19805Y88171D01*
Y87081D01*
X20088Y86027D01*
X20633Y85082D01*
X21405Y84311D01*
X22350Y83765D01*
X22737Y83661D01*
Y81591D01*
X22350Y81487D01*
X21405Y80941D01*
X20633Y80170D01*
X20088Y79225D01*
X19805Y78171D01*
Y77081D01*
X20088Y76027D01*
X20633Y75082D01*
X21405Y74310D01*
X22350Y73765D01*
X23403Y73483D01*
X24494D01*
X25548Y73765D01*
X26493Y74310D01*
X27264Y75082D01*
X27810Y76027D01*
X27913Y76414D01*
X29984D01*
X30088Y76027D01*
X30633Y75082D01*
X31405Y74310D01*
X32350Y73765D01*
X33403Y73483D01*
X34494D01*
X35548Y73765D01*
X36493Y74310D01*
X37264Y75082D01*
X37810Y76027D01*
X38092Y77081D01*
Y78171D01*
X37810Y79225D01*
X37264Y80170D01*
X36493Y80941D01*
X35548Y81487D01*
X35161Y81591D01*
Y83661D01*
X35548Y83765D01*
X36493Y84311D01*
X37264Y85082D01*
X37810Y86027D01*
X37853Y86190D01*
X61902D01*
X62331Y86275D01*
X62695Y86518D01*
X62938Y86882D01*
X63023Y87311D01*
Y93465D01*
X63148Y93517D01*
X63767Y94136D01*
X64102Y94944D01*
Y95819D01*
X63767Y96628D01*
X63148Y97247D01*
X62339Y97582D01*
X61464D01*
X60655Y97247D01*
X60036Y96628D01*
X59702Y95819D01*
Y94944D01*
X60036Y94136D01*
X60655Y93517D01*
X60780Y93465D01*
Y88433D01*
X38022D01*
X37810Y89225D01*
X37264Y90170D01*
X36493Y90941D01*
X35548Y91487D01*
X35161Y91591D01*
Y93661D01*
X35548Y93765D01*
X36493Y94310D01*
X37264Y95082D01*
X37810Y96027D01*
X37969Y96623D01*
X55272D01*
X55272Y96623D01*
X55701Y96708D01*
X56065Y96951D01*
X56986Y97872D01*
X56986Y97872D01*
X57229Y98236D01*
X57314Y98665D01*
Y120434D01*
X57439Y120485D01*
X58058Y121104D01*
X58393Y121913D01*
Y122788D01*
X58058Y123597D01*
X57439Y124215D01*
X56630Y124550D01*
X55755D01*
X54947Y124215D01*
X54328Y123597D01*
X53993Y122788D01*
Y121913D01*
X54328Y121104D01*
X54947Y120485D01*
X55071Y120434D01*
Y99130D01*
X54807Y98866D01*
X37906D01*
X37810Y99225D01*
X37264Y100170D01*
X36493Y100941D01*
X35548Y101487D01*
X35161Y101591D01*
Y103661D01*
X35548Y103765D01*
X36493Y104311D01*
X37264Y105082D01*
X37791Y105995D01*
X48516D01*
X49140Y106119D01*
X49669Y106473D01*
X50023Y107002D01*
X50147Y107626D01*
Y138632D01*
X78132D01*
Y136711D01*
X83613D01*
X84647Y136711D01*
X85613Y135111D01*
Y131809D01*
Y124703D01*
X84844D01*
Y122557D01*
X78329D01*
Y115451D01*
X78132D01*
Y104195D01*
Y101764D01*
X72669D01*
Y128898D01*
X72793Y128950D01*
X73412Y129569D01*
X73747Y130377D01*
Y131253D01*
X73412Y132061D01*
X72793Y132680D01*
X71985Y133015D01*
X71110D01*
X70301Y132680D01*
X69682Y132061D01*
X69347Y131253D01*
Y130377D01*
X69682Y129569D01*
X70301Y128950D01*
X70426Y128898D01*
Y100643D01*
X70511Y100214D01*
X70754Y99850D01*
X71118Y99607D01*
X71547Y99521D01*
X78132D01*
Y97090D01*
X84647D01*
Y97090D01*
X85459D01*
X85711Y95131D01*
Y88089D01*
X92029D01*
Y90717D01*
X99158D01*
X99210Y90592D01*
X99829Y89973D01*
X100637Y89639D01*
X101512D01*
X102321Y89973D01*
X102940Y90592D01*
X103275Y91401D01*
Y92276D01*
X102940Y93085D01*
X102321Y93704D01*
X102147Y93776D01*
X102545Y95776D01*
X108013D01*
X108024Y93780D01*
Y86130D01*
X108109Y85701D01*
X108353Y85337D01*
X108716Y85094D01*
X109146Y85008D01*
X125016D01*
X125016Y85008D01*
X125016Y85008D01*
X125445Y85094D01*
X125809Y85337D01*
X126277Y85805D01*
X126277Y85805D01*
X126520Y86169D01*
X126521Y86169D01*
X126522Y86177D01*
X126530Y86219D01*
X126606Y86599D01*
Y92090D01*
X151871D01*
X153664Y90090D01*
X153642Y89800D01*
X152980Y89526D01*
X152576Y89122D01*
X131731D01*
X131622Y89231D01*
X130960Y89505D01*
X130244D01*
X129583Y89231D01*
X129076Y88724D01*
X128802Y88063D01*
Y87347D01*
X129076Y86685D01*
X129583Y86179D01*
X130244Y85905D01*
X130960D01*
X131622Y86179D01*
X132128Y86685D01*
X132208Y86878D01*
X139997D01*
X141394Y85190D01*
Y84314D01*
X141729Y83506D01*
X142348Y82887D01*
X143157Y82552D01*
X144032D01*
X144255Y82403D01*
Y81272D01*
X153177D01*
X153240Y81209D01*
X153240Y81471D01*
X153740Y83039D01*
X154005Y83630D01*
X154434Y83716D01*
X154798Y83959D01*
X158992Y88153D01*
X162487D01*
X162603Y88176D01*
X163997Y88176D01*
X164418Y88260D01*
X164418Y88260D01*
X164774Y88498D01*
X164774Y88498D01*
X165012Y88854D01*
X165012Y88854D01*
X165012Y88854D01*
X165096Y89275D01*
X165096Y89275D01*
X165012Y89695D01*
X165012Y89695D01*
X165012Y89695D01*
X164838Y90259D01*
X165012Y90823D01*
X165096Y91243D01*
X165012Y91663D01*
X165012Y91663D01*
X164774Y92020D01*
Y92435D01*
X165012Y92791D01*
X165012Y92791D01*
X165096Y93212D01*
X165012Y93632D01*
X164838Y94196D01*
X165012Y94760D01*
X165096Y95180D01*
X165012Y95600D01*
X165012Y95600D01*
X164774Y95957D01*
Y96372D01*
X165012Y96728D01*
X165012Y96728D01*
X165096Y97149D01*
X165012Y97569D01*
X164838Y98133D01*
X165012Y98697D01*
X165012Y98697D01*
X165012Y98697D01*
X165096Y99117D01*
X165084Y99598D01*
X165103Y99784D01*
X165344Y100440D01*
X166083Y100888D01*
X167075Y101266D01*
X167217Y101238D01*
X167637Y101321D01*
X167637Y101321D01*
X167637Y101321D01*
X168201Y101496D01*
X168765Y101321D01*
X169185Y101238D01*
X169605Y101321D01*
X169605Y101321D01*
X169962Y101560D01*
X170377D01*
X170733Y101321D01*
X170733Y101321D01*
X171153Y101238D01*
X171574Y101321D01*
X172138Y101496D01*
X172702Y101321D01*
X172702Y101321D01*
X173122Y101238D01*
X173122Y101238D01*
X173542Y101321D01*
X173542Y101321D01*
X173899Y101560D01*
X173899D01*
X174035Y101764D01*
X175091Y101875D01*
X176146Y101764D01*
X176282Y101560D01*
X176282D01*
X176639Y101321D01*
X176639Y101321D01*
X177059Y101238D01*
X177059Y101238D01*
X177258Y101277D01*
X177726Y101231D01*
X178784Y100842D01*
X179173Y99784D01*
X179219Y99316D01*
X179180Y99117D01*
X179263Y98697D01*
X179263Y98697D01*
X179263Y98697D01*
X179437Y98133D01*
X179263Y97569D01*
X179263Y97569D01*
X179180Y97149D01*
X179180Y97149D01*
X179263Y96728D01*
X179263Y96728D01*
X179501Y96372D01*
Y96372D01*
X179706Y96235D01*
X179817Y95180D01*
X179706Y94125D01*
X179501Y93988D01*
X179501Y93988D01*
X179263Y93632D01*
X179180Y93212D01*
X179180Y93212D01*
X179263Y92791D01*
X179263Y92791D01*
X179501Y92435D01*
X179501Y92020D01*
X179263Y91663D01*
X179263Y91663D01*
X179180Y91243D01*
X179180Y91243D01*
X179263Y90823D01*
X179501Y90466D01*
X179501Y90466D01*
X179706Y90330D01*
X179817Y89275D01*
X179706Y88219D01*
X179501Y88083D01*
X179436Y87985D01*
X178883Y87586D01*
X177726Y87161D01*
X177258Y87114D01*
X177059Y87154D01*
X176639Y87070D01*
X176639Y87070D01*
X176639Y87070D01*
X176075Y86896D01*
X175511Y87070D01*
X175091Y87154D01*
X174670Y87070D01*
X174670Y87070D01*
X174314Y86832D01*
X173899D01*
X173542Y87070D01*
X173542Y87070D01*
X173122Y87154D01*
X172702Y87070D01*
X172138Y86896D01*
X171574Y87070D01*
X171574Y87070D01*
X171153Y87154D01*
X171153Y87154D01*
X170733Y87070D01*
X170733Y87070D01*
X170377Y86832D01*
X170377D01*
X170240Y86628D01*
X169185Y86516D01*
X168130Y86628D01*
X167993Y86832D01*
X167637Y87070D01*
X167217Y87154D01*
X167217Y87154D01*
X166796Y87070D01*
X166796Y87070D01*
X166440Y86832D01*
X166440Y86832D01*
X166202Y86476D01*
X166202Y86476D01*
X166118Y86055D01*
X166118Y86055D01*
X166118Y85666D01*
X166118Y85666D01*
X166118Y85351D01*
Y84662D01*
X166095Y84545D01*
X166118Y84431D01*
Y82322D01*
X166118Y82322D01*
X166203Y81893D01*
X165381Y80196D01*
X164556Y79850D01*
X161123D01*
X161112Y79848D01*
X159247Y79702D01*
X157418Y79263D01*
X155681Y78543D01*
X154077Y77560D01*
X152654Y76345D01*
X152646Y76339D01*
X149849Y73542D01*
X148163D01*
X147719Y73542D01*
X146163D01*
X145719Y73542D01*
X141813D01*
Y72917D01*
X111902D01*
X111082Y72754D01*
X110388Y72290D01*
X109923Y71595D01*
X109760Y70776D01*
Y37287D01*
X98691D01*
Y37439D01*
X89490D01*
Y36777D01*
X82336D01*
Y42373D01*
X89490D01*
Y42302D01*
X98691D01*
Y42847D01*
X101665D01*
X102485Y43010D01*
X103179Y43474D01*
X103644Y44169D01*
X103806Y44988D01*
X103644Y45808D01*
X103179Y46502D01*
X102485Y46966D01*
X101665Y47129D01*
X96359D01*
X95539Y46966D01*
X95421Y46887D01*
X89490D01*
Y45635D01*
X80705D01*
X80081Y45511D01*
X79552Y45158D01*
X79198Y44628D01*
X79074Y44004D01*
Y35146D01*
Y30478D01*
X75793D01*
Y30824D01*
X70656D01*
Y26869D01*
X75793D01*
Y27215D01*
X79074D01*
Y25500D01*
X79198Y24876D01*
X79552Y24347D01*
X80081Y23993D01*
X80705Y23869D01*
X86995D01*
Y22341D01*
X93313D01*
Y29446D01*
X86995D01*
Y27131D01*
X82336D01*
Y28846D01*
Y33514D01*
X89490D01*
Y32853D01*
X98691D01*
Y33005D01*
X111902D01*
X112721Y33167D01*
X113416Y33632D01*
X113880Y34326D01*
X114043Y35146D01*
Y68634D01*
X141813D01*
Y68012D01*
X145751D01*
X146760Y67128D01*
X147219Y66449D01*
Y62821D01*
X147219Y62376D01*
Y60821D01*
X147219Y60376D01*
Y56471D01*
X148404D01*
Y53816D01*
X148400D01*
X148400Y50254D01*
X148400Y48317D01*
X148400Y46317D01*
Y45348D01*
X148400D01*
X148400Y41786D01*
X148400Y39849D01*
X148400Y37849D01*
Y36848D01*
X148400D01*
X148400Y33286D01*
X148400Y31349D01*
X148400Y29349D01*
Y29349D01*
X148385Y28760D01*
X148385Y28759D01*
X148380Y26383D01*
X148324Y26123D01*
X148147Y25859D01*
X148147Y25859D01*
X148078Y25508D01*
X147531Y24516D01*
X146284Y22298D01*
X146347Y21087D01*
Y21086D01*
X146348Y21084D01*
X146352Y21003D01*
Y21003D01*
X146384Y20947D01*
X146384Y20575D01*
Y6437D01*
X146384Y4498D01*
X144410Y4437D01*
X3634D01*
Y173728D01*
X271350D01*
Y4437D01*
D02*
G37*
G36*
X178961Y77064D02*
X180021Y76924D01*
X181926Y76693D01*
X181952Y76653D01*
X182597Y76222D01*
X183358Y76071D01*
X187355D01*
X187362Y76072D01*
X187367Y76071D01*
X187367Y76071D01*
X189270Y75835D01*
X190387Y75496D01*
X191752Y74766D01*
X191931Y74619D01*
X193372Y73269D01*
X194591Y71773D01*
X194941Y71339D01*
X195536Y70842D01*
X195554Y70836D01*
Y68798D01*
X195740D01*
Y52872D01*
X194963D01*
Y48966D01*
X194963Y48522D01*
Y46966D01*
X194963Y46522D01*
Y42617D01*
X195740D01*
Y26729D01*
X195729Y26705D01*
X195675Y25082D01*
X195494Y24174D01*
X195262Y23615D01*
X195084Y23184D01*
X194128Y21895D01*
X194128Y21895D01*
X194091Y21283D01*
X194104Y21253D01*
X194100Y21172D01*
X194128Y21128D01*
Y6437D01*
X194128Y4695D01*
X192235Y4437D01*
X155559D01*
X153584Y4498D01*
X153584Y6437D01*
Y20935D01*
X153584Y20947D01*
X153616Y21003D01*
X153613Y21067D01*
X153622Y21086D01*
X153584Y21698D01*
X153423Y22478D01*
X152560Y24498D01*
X151588Y26435D01*
X151584Y28759D01*
X151584Y28760D01*
X151568Y29349D01*
X151568Y29349D01*
X151568Y29349D01*
X151568Y32911D01*
X151568Y34848D01*
X151568Y36848D01*
Y37849D01*
X151568D01*
X151568Y41411D01*
X151568Y43348D01*
X151568Y45348D01*
Y46317D01*
X151568D01*
X151568Y49880D01*
X151568Y51880D01*
Y53816D01*
X151565D01*
Y56471D01*
X152750D01*
Y60376D01*
X152750Y60821D01*
Y62376D01*
X152750Y62821D01*
Y66726D01*
X152750D01*
X152068Y68012D01*
Y70139D01*
X155457Y73527D01*
X155508Y73604D01*
X156656Y74546D01*
X158046Y75289D01*
X159554Y75747D01*
X161032Y75892D01*
X161123Y75874D01*
X166232D01*
X166895Y76006D01*
X166993Y76025D01*
X166995Y76026D01*
X168595Y76731D01*
X169550Y76856D01*
X169941Y77018D01*
X171417Y76251D01*
X171782Y75734D01*
X171338Y74270D01*
X170604Y72897D01*
X169400Y71396D01*
X167986Y69981D01*
X166821Y68817D01*
X163467D01*
Y64911D01*
X163467Y64467D01*
Y62911D01*
X163467Y62467D01*
Y58561D01*
X165111D01*
Y52675D01*
X163664D01*
Y48325D01*
X169194D01*
Y52675D01*
X167354D01*
Y58561D01*
X168998D01*
Y62467D01*
X168998Y62911D01*
Y64467D01*
X168998Y64911D01*
Y67821D01*
X169572Y68395D01*
X170995Y69801D01*
X172130Y71129D01*
X172231Y71294D01*
X173020Y72582D01*
X173170Y72619D01*
X175043D01*
X175192Y72582D01*
X175982Y71294D01*
X176083Y71129D01*
X177217Y69801D01*
X177226Y69810D01*
X179215Y67821D01*
Y64911D01*
X179215Y64467D01*
Y62911D01*
X179215Y62467D01*
Y58561D01*
X180859D01*
Y52281D01*
X179215D01*
Y47932D01*
X184746D01*
Y52281D01*
X183102D01*
Y58561D01*
X184746D01*
Y62467D01*
X184746Y62911D01*
Y64467D01*
X184746Y64911D01*
Y68817D01*
X181392D01*
X178813Y71396D01*
X178772Y71423D01*
X177697Y72733D01*
X176875Y74270D01*
X176369Y75939D01*
X176343Y76203D01*
X177313Y76959D01*
X178238Y77363D01*
X178961Y77064D01*
D02*
G37*
G36*
X150939Y26052D02*
X149029D01*
X149034Y28758D01*
X150934D01*
X150939Y26052D01*
D02*
G37*
G36*
X199095Y25657D02*
X199226Y23929D01*
X199340Y23227D01*
X199488Y22633D01*
X199668Y22147D01*
X199881Y21769D01*
X200127Y21499D01*
X200405Y21337D01*
X200716Y21283D01*
X194740D01*
X195052Y21337D01*
X195330Y21499D01*
X195576Y21769D01*
X195789Y22147D01*
X195969Y22633D01*
X196116Y23227D01*
X196231Y23929D01*
X196313Y24739D01*
X196378Y26683D01*
X199078D01*
X199095Y25657D01*
D02*
G37*
G36*
X151351Y24336D02*
X151482Y23052D01*
X151596Y22531D01*
X151744Y22089D01*
X151924Y21728D01*
X152137Y21448D01*
X152383Y21247D01*
X152661Y21127D01*
X152972Y21086D01*
X146996D01*
X147308Y21127D01*
X147586Y21247D01*
X147832Y21448D01*
X148045Y21728D01*
X148225Y22089D01*
X148372Y22531D01*
X148487Y23052D01*
X148569Y23654D01*
X148618Y24336D01*
X148634Y25098D01*
X151334D01*
X151351Y24336D01*
D02*
G37*
%LPC*%
G36*
X251164Y165076D02*
X249805D01*
X248472Y164811D01*
X247216Y164291D01*
X246086Y163536D01*
X245125Y162575D01*
X244370Y161445D01*
X243850Y160190D01*
X243585Y158857D01*
Y157498D01*
X243850Y156165D01*
X244370Y154909D01*
X245125Y153779D01*
X246086Y152818D01*
X247216Y152063D01*
X248472Y151543D01*
X249805Y151278D01*
X251164D01*
X252497Y151543D01*
X253752Y152063D01*
X254882Y152818D01*
X255843Y153779D01*
X256598Y154909D01*
X257118Y156165D01*
X257383Y157498D01*
Y158857D01*
X257118Y160190D01*
X256598Y161445D01*
X255843Y162575D01*
X254882Y163536D01*
X253752Y164291D01*
X252497Y164811D01*
X251164Y165076D01*
D02*
G37*
G36*
X91126Y84980D02*
X91018Y84958D01*
X90760Y84958D01*
X85908D01*
Y77876D01*
X85908Y77853D01*
X86105Y75934D01*
X86105Y75853D01*
Y68852D01*
X92423D01*
Y70263D01*
X96153D01*
X96973Y70426D01*
X97668Y70890D01*
X98132Y71585D01*
X98295Y72404D01*
X98132Y73224D01*
X97668Y73918D01*
X96973Y74383D01*
X96153Y74546D01*
X93847D01*
X92423Y75957D01*
X92329Y76871D01*
X93741Y78805D01*
X93848Y78871D01*
X96350D01*
X97170Y79034D01*
X97864Y79498D01*
X98329Y80192D01*
X98492Y81012D01*
X98329Y81831D01*
X97864Y82526D01*
X97170Y82990D01*
X96350Y83153D01*
X94050D01*
X92248Y83858D01*
X92226Y84958D01*
X91126Y84980D01*
D02*
G37*
G36*
X92423Y66848D02*
X86105D01*
Y59742D01*
X92423D01*
Y61154D01*
X95366D01*
X96185Y61317D01*
X96880Y61781D01*
X97344Y62476D01*
X97507Y63295D01*
X97344Y64115D01*
X96880Y64809D01*
X96185Y65273D01*
X95366Y65436D01*
X92423D01*
Y66848D01*
D02*
G37*
G36*
X248909Y70185D02*
X229815D01*
X229618Y68610D01*
Y38098D01*
X230593D01*
Y31002D01*
X236911D01*
Y33201D01*
X240839D01*
X241658Y33364D01*
X242353Y33828D01*
X242817Y34523D01*
X242980Y35342D01*
Y38098D01*
X248909D01*
Y40648D01*
X252462D01*
Y47754D01*
X248909D01*
Y50491D01*
X252462D01*
Y57596D01*
X248909D01*
Y60333D01*
X252068D01*
Y67439D01*
X248909D01*
Y70185D01*
D02*
G37*
G36*
X75793Y23344D02*
X70656D01*
Y19388D01*
X75793D01*
Y23344D01*
D02*
G37*
G36*
X252148Y27872D02*
X250789D01*
X249456Y27606D01*
X248200Y27086D01*
X247071Y26331D01*
X246110Y25370D01*
X245355Y24240D01*
X244834Y22985D01*
X244569Y21652D01*
Y20293D01*
X244834Y18960D01*
X245355Y17704D01*
X246110Y16574D01*
X247071Y15613D01*
X248200Y14858D01*
X249456Y14338D01*
X250789Y14073D01*
X252148D01*
X253481Y14338D01*
X254736Y14858D01*
X255867Y15613D01*
X256827Y16574D01*
X257582Y17704D01*
X258103Y18960D01*
X258368Y20293D01*
Y21652D01*
X258103Y22985D01*
X257582Y24240D01*
X256827Y25370D01*
X255867Y26331D01*
X254736Y27086D01*
X253481Y27606D01*
X252148Y27872D01*
D02*
G37*
G36*
X21242Y27478D02*
X19884D01*
X18551Y27213D01*
X17295Y26693D01*
X16165Y25938D01*
X15204Y24977D01*
X14449Y23847D01*
X13929Y22591D01*
X13664Y21258D01*
Y19899D01*
X13929Y18566D01*
X14449Y17311D01*
X15204Y16181D01*
X16165Y15220D01*
X17295Y14465D01*
X18551Y13945D01*
X19884Y13679D01*
X21242D01*
X22575Y13945D01*
X23831Y14465D01*
X24961Y15220D01*
X25922Y16181D01*
X26677Y17311D01*
X27197Y18566D01*
X27462Y19899D01*
Y21258D01*
X27197Y22591D01*
X26677Y23847D01*
X25922Y24977D01*
X24961Y25938D01*
X23831Y26693D01*
X22575Y27213D01*
X21242Y27478D01*
D02*
G37*
%LPD*%
D12*
X168595Y77862D02*
G03*
X171153Y80421I0J2559D01*
G01*
X170193Y70603D02*
G03*
X173122Y77674I-7071J7071D01*
G01*
X175091Y77674D02*
G03*
X178019Y70603I10000J0D01*
G01*
X177059Y81021D02*
G03*
X180021Y78059I2962J0D01*
G01*
X166232Y77862D02*
X168595D01*
X125484Y93212D02*
X162487D01*
X154000Y88000D02*
X157243Y91243D01*
X162487D01*
X115248Y95180D02*
X162487D01*
X137000Y97149D02*
X162487D01*
X137000D02*
Y113000D01*
X112886D02*
X137000D01*
X141000Y99117D02*
Y127500D01*
Y99117D02*
X162487D01*
X117610Y127500D02*
X141000D01*
X115248Y90658D02*
Y95180D01*
X117610Y127500D02*
Y150303D01*
X89809D02*
X117610D01*
X121500Y135500D02*
Y158571D01*
Y135500D02*
X145000D01*
Y106000D02*
Y135500D01*
X130602Y88000D02*
X154000D01*
X130602Y87705D02*
Y88000D01*
X143595Y84752D02*
X154005D01*
X158527Y89275D01*
X162487D01*
X145000Y106000D02*
X159000D01*
Y101086D02*
Y106000D01*
Y101086D02*
X162487D01*
X87635Y158571D02*
X121500D01*
X125484Y86599D02*
Y93212D01*
X214264Y134161D02*
Y134501D01*
X81390Y119004D02*
X81390D01*
X81390Y109752D02*
Y119004D01*
X88870Y109752D02*
X88870D01*
X88870Y100643D02*
X88870D01*
X88870D02*
Y109752D01*
X90154Y25500D02*
Y25894D01*
X91823Y44004D02*
Y44594D01*
X173122Y77674D02*
Y84545D01*
X175091Y77674D02*
Y84545D01*
X178019Y70603D02*
X181980Y66642D01*
Y50894D02*
Y60736D01*
X166232Y51878D02*
Y60736D01*
X192020Y101086D02*
Y144235D01*
X181788Y101086D02*
X192020D01*
X181788Y99117D02*
X195760D01*
Y134949D01*
X199303Y97617D02*
Y125765D01*
X181788Y97149D02*
X198835D01*
X199303Y97617D01*
Y125765D02*
X199772Y126233D01*
X181788Y93212D02*
X203240D01*
X214264Y115461D02*
Y115854D01*
X203240Y93212D02*
Y106209D01*
Y116051D01*
X192020Y144235D02*
X214264D01*
X195760Y134949D02*
X214264D01*
X199772Y126233D02*
X214264D01*
X203240Y106209D02*
X214264D01*
X181788Y91243D02*
X207177D01*
Y95382D01*
X214461D01*
X88870Y140264D02*
X112886D01*
X88870Y128256D02*
Y129240D01*
Y119004D02*
X109146D01*
Y129240D01*
X89067Y81406D02*
Y81799D01*
X91126Y83858D01*
X88870Y129240D02*
X109146D01*
X88870Y118413D02*
Y119004D01*
X109146Y86130D02*
Y119004D01*
X88870Y91642D02*
Y91839D01*
Y100643D01*
X61902Y87311D02*
Y95382D01*
X33949Y87311D02*
Y87626D01*
Y87311D02*
X61902D01*
X165248Y103847D02*
Y108496D01*
X154224Y108965D02*
X164779D01*
X165248Y108496D01*
X33949Y97626D02*
Y97744D01*
X169185Y103847D02*
Y111130D01*
X163083Y113492D02*
X170626D01*
X171153Y112965D01*
Y103847D02*
Y112965D01*
X163083Y133965D02*
X168398D01*
X163083Y113492D02*
Y133965D01*
X176469Y142429D02*
X182768D01*
X175878Y133965D02*
X182768D01*
Y142429D01*
X63776Y28650D02*
Y28846D01*
X179028Y103847D02*
Y112705D01*
X186508D01*
X159146Y111130D02*
X169185D01*
X157374Y112902D02*
Y121760D01*
Y112902D02*
X159146Y111130D01*
X56193Y98665D02*
Y122350D01*
X55272Y97744D02*
X56193Y98665D01*
X33949Y97744D02*
X55272D01*
X177059Y103847D02*
Y121366D01*
X185721D01*
X173122Y103847D02*
Y116839D01*
X181788Y85014D02*
Y87306D01*
X179028Y84545D02*
X181320D01*
X181788Y85014D01*
Y87306D02*
X201075D01*
X203240Y116051D02*
X214264D01*
X203240D02*
Y122153D01*
X71547Y100643D02*
Y130815D01*
Y100643D02*
X81390D01*
X112886Y113000D02*
Y140264D01*
X125016Y86130D02*
X125484Y86599D01*
X109146Y86130D02*
X125016D01*
X88870Y91839D02*
X101075D01*
X171153Y80421D02*
Y84545D01*
X167217D02*
X167239Y84523D01*
Y82322D02*
Y84523D01*
Y82322D02*
X168201Y81360D01*
Y80981D02*
Y81360D01*
X165248Y83115D02*
Y84545D01*
X166232Y66642D02*
X170193Y70603D01*
X177059Y81021D02*
Y84545D01*
X180021Y78059D02*
X183358D01*
X169185Y84545D02*
Y89083D01*
X175091Y101595D02*
Y103847D01*
X175091Y103847D01*
D14*
X196564Y72511D02*
X196565Y72511D01*
X197135Y71941D01*
X197728D01*
X187355Y78059D02*
X187368Y78059D01*
X196489Y72587D02*
X196564Y72511D01*
X80705Y25500D02*
X90154D01*
X80705D02*
Y28846D01*
X73225D02*
X80705D01*
Y44004D02*
X91823D01*
X80705Y35146D02*
X91823D01*
X80705Y28846D02*
Y35146D01*
Y44004D01*
X48516Y140264D02*
X81390D01*
X48516Y107626D02*
Y140264D01*
X33949Y107626D02*
X48516D01*
X44972Y118387D02*
Y148557D01*
X33949Y117626D02*
X44211D01*
X44972Y118387D01*
Y148557D02*
X45734Y149319D01*
X81390D01*
X41626Y157809D02*
X42388Y158571D01*
X41626Y135303D02*
Y157809D01*
X42388Y158571D02*
X81251D01*
X33949Y127626D02*
Y135303D01*
X41626D01*
D16*
X187728Y13295D02*
D03*
X207728D02*
D03*
X159984Y13098D02*
D03*
X139984D02*
D03*
D17*
X197728Y13295D02*
D03*
X149984Y13098D02*
D03*
D18*
Y31130D02*
D03*
Y35067D02*
D03*
Y39630D02*
D03*
Y43567D02*
D03*
Y48098D02*
D03*
Y52035D02*
D03*
D19*
X146835Y33098D02*
D03*
Y41598D02*
D03*
Y50067D02*
D03*
D20*
X149984Y58646D02*
D03*
Y64551D02*
D03*
X166232Y60736D02*
D03*
Y66642D02*
D03*
X181980Y44201D02*
D03*
Y50106D02*
D03*
X166429Y44594D02*
D03*
Y50500D02*
D03*
X197728Y44791D02*
D03*
Y50697D02*
D03*
X181980Y60736D02*
D03*
Y66642D02*
D03*
D21*
X88870Y109752D02*
D03*
X81390D02*
D03*
Y91642D02*
D03*
X88870D02*
D03*
X221744Y115461D02*
D03*
X214264D02*
D03*
X175878Y158768D02*
D03*
X168398D02*
D03*
X233949Y54240D02*
D03*
X226468D02*
D03*
X256784Y54043D02*
D03*
X249303D02*
D03*
X139461Y142429D02*
D03*
X131980D02*
D03*
X140445Y158571D02*
D03*
X132965D02*
D03*
X81783Y72404D02*
D03*
X89264D02*
D03*
X81783Y63295D02*
D03*
X89264D02*
D03*
X221744Y135037D02*
D03*
X214264D02*
D03*
X221941Y95382D02*
D03*
X214461D02*
D03*
X221744Y144038D02*
D03*
X214264D02*
D03*
X97634Y25894D02*
D03*
X90154D02*
D03*
X256784Y44201D02*
D03*
X249303D02*
D03*
X226272Y34555D02*
D03*
X233752D02*
D03*
X233555Y44398D02*
D03*
X226075D02*
D03*
X221744Y106012D02*
D03*
X214264D02*
D03*
X168398Y133965D02*
D03*
X175878D02*
D03*
X256390Y63886D02*
D03*
X248909D02*
D03*
X226272Y64083D02*
D03*
X233752D02*
D03*
X81587Y81406D02*
D03*
X89067D02*
D03*
D22*
X43303Y21366D02*
D03*
Y28846D02*
D03*
D23*
X96359Y44594D02*
D03*
X91823D02*
D03*
X96359Y35146D02*
D03*
X91823D02*
D03*
D24*
X197728Y71563D02*
D03*
X203634D02*
D03*
X149894Y70777D02*
D03*
X143988D02*
D03*
D25*
X89067Y119004D02*
D03*
X81587D02*
D03*
X81390Y100643D02*
D03*
X88870D02*
D03*
X81390Y128256D02*
D03*
X88870D02*
D03*
X81193Y158374D02*
D03*
X88673D02*
D03*
X81390Y149319D02*
D03*
X88870D02*
D03*
X81390Y140264D02*
D03*
X88870D02*
D03*
X214264Y126036D02*
D03*
X221744D02*
D03*
D26*
X167807Y142429D02*
D03*
Y149122D02*
D03*
X176469Y142429D02*
D03*
Y149122D02*
D03*
D27*
X73225Y28846D02*
D03*
Y21366D02*
D03*
X63776Y28846D02*
D03*
Y25106D02*
D03*
Y21366D02*
D03*
D28*
X162487Y87306D02*
D03*
Y89275D02*
D03*
Y99117D02*
D03*
Y95180D02*
D03*
Y97149D02*
D03*
Y91243D02*
D03*
Y93212D02*
D03*
X181788Y87306D02*
D03*
Y89275D02*
D03*
Y91243D02*
D03*
Y97149D02*
D03*
Y99117D02*
D03*
Y93212D02*
D03*
Y95180D02*
D03*
Y101086D02*
D03*
D29*
X165248Y84545D02*
D03*
X167217D02*
D03*
Y103847D02*
D03*
X165248D02*
D03*
X175091Y84545D02*
D03*
X179028D02*
D03*
X177059D02*
D03*
X171153D02*
D03*
X169185D02*
D03*
X173122D02*
D03*
X177059Y103847D02*
D03*
X171153D02*
D03*
X169185D02*
D03*
X175091D02*
D03*
X173122D02*
D03*
X179028D02*
D03*
D30*
X162487Y101086D02*
D03*
D44*
X172138Y94196D02*
D03*
D48*
X61902Y95382D02*
D03*
X173122Y126091D02*
D03*
X149580Y126224D02*
D03*
X101075Y91839D02*
D03*
X186508Y112705D02*
D03*
X157374Y121760D02*
D03*
X56193Y122350D02*
D03*
X185721Y121366D02*
D03*
X203240Y122153D02*
D03*
X71547Y130815D02*
D03*
X115248Y90658D02*
D03*
X143595Y84752D02*
D03*
D51*
X149894Y64770D02*
G03*
X149984Y64551I309J0D01*
G01*
X194900Y74558D02*
G03*
X187368Y78059I-7536J-6359D01*
G01*
X161123Y77862D02*
G03*
X154051Y74933I0J-10000D01*
G01*
X197728Y13295D02*
Y44791D01*
X149984Y13098D02*
Y25098D01*
X150484Y71366D02*
X154051Y74933D01*
X149894Y64770D02*
Y70777D01*
X183358Y78059D02*
X187355D01*
X194900Y74558D02*
X196489Y72587D01*
X161123Y77862D02*
X166232D01*
X197728Y50697D02*
Y71941D01*
D52*
X149984Y25098D02*
Y31130D01*
Y43567D02*
Y48098D01*
Y35067D02*
Y39630D01*
Y52035D02*
Y58646D01*
D53*
X96359Y44988D02*
X101665D01*
X233752Y64083D02*
X240839D01*
X248909Y63886D02*
Y64083D01*
X240839Y54240D02*
Y64083D01*
X233949Y54240D02*
X240839D01*
X249303Y54043D02*
Y54240D01*
X240839Y44398D02*
Y54240D01*
X233555Y44398D02*
X240839D01*
X249303Y44201D02*
Y44398D01*
X240839Y35342D02*
Y44398D01*
X233752Y34555D02*
Y35342D01*
X149580Y149122D02*
X167807D01*
X89264Y72404D02*
X96153D01*
X89264Y63295D02*
X95366D01*
X89067Y81406D02*
X89461Y81012D01*
X96359Y44594D02*
Y44988D01*
Y35146D02*
X111902D01*
X149580Y142429D02*
X167807D01*
X139461D02*
X149580D01*
Y149122D01*
X150635Y108965D02*
X154224D01*
X149580Y110019D02*
X150635Y108965D01*
X12886Y127626D02*
X23949D01*
X43303Y28846D02*
Y42429D01*
X55405D01*
Y28846D02*
Y42429D01*
Y28846D02*
X63776D01*
X55405Y21366D02*
X63776D01*
X55405D02*
Y28846D01*
X150484Y158768D02*
X168398D01*
X140642D02*
X149580D01*
Y149122D02*
Y158768D01*
X12886Y42429D02*
X43303D01*
X167217Y141839D02*
X167807Y142429D01*
X149580Y110019D02*
Y142429D01*
X12886Y42429D02*
Y127626D01*
X173122Y116839D02*
Y126091D01*
X203634Y71563D02*
X217216D01*
X89461Y81012D02*
X96350D01*
X233752Y35342D02*
X240839D01*
Y44398D02*
X249303D01*
X240839Y54240D02*
X249303D01*
X217216Y71563D02*
Y76681D01*
X240839Y64083D02*
X248909D01*
X111902Y35146D02*
Y70776D01*
X134146D02*
X143988D01*
X111902D02*
X134146D01*
X148526Y165461D02*
X149580Y164406D01*
X12886D02*
X13940Y165461D01*
X148526D01*
X149580Y158768D02*
Y164406D01*
X12886Y127626D02*
Y164406D01*
D54*
X176469Y142429D02*
X176665Y142232D01*
D55*
X179817Y95180D02*
X181788D01*
X176272Y89275D02*
X181788D01*
D56*
X23949Y77626D02*
D03*
X33949D02*
D03*
X23949Y127626D02*
D03*
Y117626D02*
D03*
Y107626D02*
D03*
Y97626D02*
D03*
Y87626D02*
D03*
X33949Y117626D02*
D03*
Y107626D02*
D03*
Y97626D02*
D03*
Y87626D02*
D03*
D57*
Y127626D02*
D03*
D58*
X251468Y20972D02*
D03*
X20563Y20579D02*
D03*
X26469Y151484D02*
D03*
X250484Y158177D02*
D03*
D59*
X194228Y38295D02*
D03*
X154484Y68098D02*
D03*
X154984Y62598D02*
D03*
Y57598D02*
D03*
X153984Y27598D02*
D03*
X153484Y42098D02*
D03*
Y52098D02*
D03*
Y37098D02*
D03*
Y47098D02*
D03*
Y32098D02*
D03*
X154984Y23098D02*
D03*
Y18098D02*
D03*
X143484Y32598D02*
D03*
X144984Y23098D02*
D03*
X145984Y27598D02*
D03*
X164000Y86000D02*
D03*
X158500Y81000D02*
D03*
X153500Y79500D02*
D03*
X158000Y73500D02*
D03*
X163000Y74500D02*
D03*
X168000Y75000D02*
D03*
X154000Y88000D02*
D03*
X181980Y66642D02*
D03*
X217020Y76681D02*
D03*
X126228Y157795D02*
D03*
X126728Y142295D02*
D03*
X130602Y87705D02*
D03*
X96350Y81012D02*
D03*
X96153Y72404D02*
D03*
X95366Y63295D02*
D03*
X101665Y44988D02*
D03*
X201075Y87306D02*
D03*
X240839Y64083D02*
D03*
X168201Y80981D02*
D03*
X134146Y70776D02*
D03*
X5602Y6406D02*
D03*
X10602D02*
D03*
X15602D02*
D03*
X20602D02*
D03*
X25602D02*
D03*
X30602D02*
D03*
X35602D02*
D03*
X40602D02*
D03*
X50602D02*
D03*
X45602D02*
D03*
X55602D02*
D03*
X60602D02*
D03*
X65602D02*
D03*
X70602D02*
D03*
X75602D02*
D03*
X80602D02*
D03*
X85602D02*
D03*
X90602D02*
D03*
X95602D02*
D03*
X100602D02*
D03*
X105602D02*
D03*
X110602D02*
D03*
X115602D02*
D03*
X120602D02*
D03*
X125602D02*
D03*
X130602D02*
D03*
X170602D02*
D03*
X175602D02*
D03*
X215602D02*
D03*
X220602D02*
D03*
X225602D02*
D03*
X230602D02*
D03*
X235602D02*
D03*
X240602D02*
D03*
X245602D02*
D03*
X250602D02*
D03*
X255602D02*
D03*
X260602D02*
D03*
X265602D02*
D03*
X5602Y11406D02*
D03*
Y16406D02*
D03*
Y21406D02*
D03*
Y26406D02*
D03*
Y31405D02*
D03*
Y36406D02*
D03*
Y41405D02*
D03*
Y46406D02*
D03*
Y51406D02*
D03*
Y56406D02*
D03*
Y61405D02*
D03*
Y66405D02*
D03*
Y71406D02*
D03*
Y76406D02*
D03*
Y81406D02*
D03*
Y86405D02*
D03*
Y91405D02*
D03*
Y96406D02*
D03*
Y101406D02*
D03*
Y106405D02*
D03*
Y111406D02*
D03*
Y116405D02*
D03*
Y121405D02*
D03*
Y126406D02*
D03*
Y131405D02*
D03*
Y136406D02*
D03*
Y141405D02*
D03*
Y146405D02*
D03*
Y151406D02*
D03*
Y156405D02*
D03*
Y161406D02*
D03*
Y166405D02*
D03*
Y171405D02*
D03*
X10602D02*
D03*
X15602D02*
D03*
X20602D02*
D03*
X25602D02*
D03*
X30602D02*
D03*
X35602D02*
D03*
X45602D02*
D03*
X40602D02*
D03*
X50602D02*
D03*
X55602D02*
D03*
X60602D02*
D03*
X65602D02*
D03*
X70602D02*
D03*
X75602D02*
D03*
X80602D02*
D03*
X85602D02*
D03*
X90602D02*
D03*
X95602D02*
D03*
X100602D02*
D03*
X105602D02*
D03*
X110602D02*
D03*
X120602D02*
D03*
X115602D02*
D03*
X125602D02*
D03*
X130602D02*
D03*
X135602D02*
D03*
X140602D02*
D03*
X150602D02*
D03*
X145602D02*
D03*
X155602D02*
D03*
X160602D02*
D03*
X165602D02*
D03*
X175602D02*
D03*
X170602D02*
D03*
X180602D02*
D03*
X185602D02*
D03*
X195602D02*
D03*
X190602D02*
D03*
X200602D02*
D03*
X205602D02*
D03*
X210602D02*
D03*
X215602D02*
D03*
X220602D02*
D03*
X225602D02*
D03*
X230602D02*
D03*
X235602D02*
D03*
X240602D02*
D03*
X245602D02*
D03*
X250602D02*
D03*
X255602D02*
D03*
X260602D02*
D03*
X265602D02*
D03*
X135602Y6406D02*
D03*
X140602D02*
D03*
X160602D02*
D03*
X185602D02*
D03*
X180602D02*
D03*
X210602D02*
D03*
X265602Y166405D02*
D03*
Y161406D02*
D03*
Y156405D02*
D03*
Y151406D02*
D03*
Y146405D02*
D03*
Y141405D02*
D03*
Y136406D02*
D03*
Y131405D02*
D03*
Y126406D02*
D03*
Y121405D02*
D03*
Y116405D02*
D03*
Y111406D02*
D03*
Y101406D02*
D03*
Y106405D02*
D03*
Y96406D02*
D03*
Y91405D02*
D03*
Y86405D02*
D03*
Y81406D02*
D03*
Y76406D02*
D03*
Y71406D02*
D03*
Y66405D02*
D03*
Y61405D02*
D03*
Y56406D02*
D03*
Y51406D02*
D03*
Y46406D02*
D03*
Y41405D02*
D03*
Y36406D02*
D03*
Y31405D02*
D03*
Y26406D02*
D03*
Y21406D02*
D03*
Y16406D02*
D03*
Y11406D02*
D03*
X144984Y13098D02*
D03*
Y18098D02*
D03*
X143484Y47598D02*
D03*
Y37598D02*
D03*
Y52598D02*
D03*
X144984Y57598D02*
D03*
Y8098D02*
D03*
X165181Y6598D02*
D03*
X143484Y42598D02*
D03*
X144984Y62598D02*
D03*
X154984Y8098D02*
D03*
Y13098D02*
D03*
X191728Y13295D02*
D03*
Y18295D02*
D03*
Y23295D02*
D03*
X193728Y28295D02*
D03*
X194228Y33295D02*
D03*
X192532Y48295D02*
D03*
X192728Y53295D02*
D03*
X194228Y58295D02*
D03*
X191728Y8295D02*
D03*
X193728Y43295D02*
D03*
X201228Y63295D02*
D03*
X201728Y43295D02*
D03*
X203728Y8295D02*
D03*
X201228Y58295D02*
D03*
X202728Y53295D02*
D03*
X201228Y38295D02*
D03*
X202728Y48295D02*
D03*
X201228Y33295D02*
D03*
X201728Y28295D02*
D03*
X203728Y23295D02*
D03*
Y18295D02*
D03*
Y13295D02*
D03*
X166232Y66642D02*
D03*
X194228Y63295D02*
D03*
X196728Y77795D02*
D03*
X192728Y80295D02*
D03*
X187500Y81500D02*
D03*
X182500D02*
D03*
X178728Y75295D02*
D03*
X183728Y74795D02*
D03*
X188000Y74000D02*
D03*
X192000Y72000D02*
D03*
X227728Y144295D02*
D03*
Y134795D02*
D03*
Y125795D02*
D03*
Y115295D02*
D03*
Y105795D02*
D03*
Y94795D02*
D03*
X75228Y127795D02*
D03*
X72728Y91295D02*
D03*
Y80795D02*
D03*
Y72295D02*
D03*
Y63295D02*
D03*
X105728Y25795D02*
D03*
X43728Y15795D02*
D03*
X183728Y159295D02*
D03*
Y149795D02*
D03*
X174106Y69555D02*
D03*
Y64555D02*
D03*
Y59555D02*
D03*
Y54555D02*
D03*
Y49555D02*
D03*
Y44555D02*
D03*
Y39555D02*
D03*
Y34555D02*
D03*
Y29555D02*
D03*
Y24555D02*
D03*
Y19555D02*
D03*
Y14555D02*
D03*
Y9555D02*
D03*
X167106Y98555D02*
D03*
X177106Y94055D02*
D03*
X172106Y98555D02*
D03*
X177106D02*
D03*
Y89555D02*
D03*
X172106D02*
D03*
X167106D02*
D03*
X172106Y94055D02*
D03*
X167106D02*
D03*
X219579Y54043D02*
D03*
Y44201D02*
D03*
Y34161D02*
D03*
X260917Y64083D02*
D03*
Y53059D02*
D03*
Y43807D02*
D03*
D60*
X219579Y63886D02*
D03*
M02*
