G04*
G04 #@! TF.GenerationSoftware,Altium Limited,Altium Designer,24.5.2 (23)*
G04*
G04 Layer_Color=65535*
%FSLAX25Y25*%
%MOIN*%
G70*
G04*
G04 #@! TF.SameCoordinates,466BDFCD-25A3-4837-BAAA-452BE7E626CC*
G04*
G04*
G04 #@! TF.FilePolarity,Positive*
G04*
G01*
G75*
%ADD10C,0.00500*%
%ADD11C,0.00984*%
%ADD12C,0.01000*%
%ADD13C,0.00787*%
%ADD14C,0.02000*%
D10*
X163639Y150894D02*
G03*
X163639Y150894I-557J0D01*
G01*
X64170Y32193D02*
G03*
X64170Y32193I-787J0D01*
G01*
X183228Y22795D02*
X212228D01*
Y5295D02*
Y22795D01*
X183228Y5295D02*
Y22795D01*
X145484Y38098D02*
Y53098D01*
Y38098D02*
Y43598D01*
Y29598D02*
Y38098D01*
X135484Y5098D02*
Y22598D01*
X164484Y5098D02*
Y22598D01*
X135484D02*
X164484D01*
X150181Y32902D02*
Y33295D01*
Y41402D02*
Y41795D01*
Y49870D02*
Y50264D01*
X146984Y57598D02*
Y65598D01*
X152984Y57598D02*
Y65598D01*
X81130Y106002D02*
X89130D01*
X81130Y113502D02*
X89130D01*
X81130Y95392D02*
X89130D01*
X81130Y87892D02*
X89130D01*
X214004Y111711D02*
X222004D01*
X214004Y119211D02*
X222004D01*
X168138Y155018D02*
X176138D01*
X168138Y162518D02*
X176138D01*
X226209Y50490D02*
X234209D01*
X226209Y57990D02*
X234209D01*
X163232Y59689D02*
Y67689D01*
X169232Y59689D02*
Y67689D01*
X249043Y50293D02*
X257043D01*
X249043Y57793D02*
X257043D01*
X131720Y138679D02*
X139720D01*
X131720Y146179D02*
X139720D01*
X132705Y154821D02*
X140705D01*
X132705Y162321D02*
X140705D01*
X81524Y76155D02*
X89524D01*
X81524Y68655D02*
X89524D01*
X81524Y67045D02*
X89524D01*
X81524Y59545D02*
X89524D01*
X39553Y21106D02*
Y29106D01*
X47054Y21106D02*
Y29106D01*
X214004Y131287D02*
X222004D01*
X214004Y138787D02*
X222004D01*
X214201Y91632D02*
X222201D01*
X214201Y99132D02*
X222201D01*
X214004Y140288D02*
X222004D01*
X214004Y147788D02*
X222004D01*
X89894Y22144D02*
X97894D01*
X89894Y29644D02*
X97894D01*
X249043Y40451D02*
X257043D01*
X249043Y47951D02*
X257043D01*
X226012Y38305D02*
X234012D01*
X226012Y30805D02*
X234012D01*
X225815Y40648D02*
X233815D01*
X225815Y48148D02*
X233815D01*
X214004Y102262D02*
X222004D01*
X214004Y109762D02*
X222004D01*
X196681Y74563D02*
X204681D01*
X196681Y68563D02*
X204681D01*
X81327Y122754D02*
X89327D01*
X81327Y115254D02*
X89327D01*
X81130Y96893D02*
X89130D01*
X81130Y104393D02*
X89130D01*
X142941Y67777D02*
X150941D01*
X142941Y73777D02*
X150941D01*
X178980Y43154D02*
Y51154D01*
X184980Y43154D02*
Y51154D01*
X81130Y124506D02*
X89130D01*
X81130Y132006D02*
X89130D01*
X163429Y43547D02*
Y51547D01*
X169429Y43547D02*
Y51547D01*
X80933Y162124D02*
X88933D01*
X80933Y154624D02*
X88933D01*
X81130Y145569D02*
X89130D01*
X81130Y153069D02*
X89130D01*
X81130Y136514D02*
X89130D01*
X81130Y144014D02*
X89130D01*
X214004Y122286D02*
X222004D01*
X214004Y129786D02*
X222004D01*
X165051Y145382D02*
Y146169D01*
X170957Y140264D02*
X173319D01*
X170957Y151287D02*
X173319D01*
X179224Y145382D02*
Y146169D01*
X65351Y31799D02*
X65744D01*
X65351Y31012D02*
Y31799D01*
X71650D02*
X72437D01*
Y31012D02*
Y31799D01*
X65744D02*
X71650D01*
X72437Y18413D02*
Y19201D01*
X65351Y18413D02*
Y19201D01*
Y18413D02*
X72437D01*
Y23531D02*
Y26681D01*
X168138Y137715D02*
X176138D01*
X168138Y130215D02*
X176138D01*
X194728Y43744D02*
Y51744D01*
X200728Y43744D02*
Y51744D01*
X248650Y60136D02*
X256650D01*
X248650Y67636D02*
X256650D01*
X178980Y59689D02*
Y67689D01*
X184980Y59689D02*
Y67689D01*
X226012Y67833D02*
X234012D01*
X226012Y60333D02*
X234012D01*
X18949Y72705D02*
X38949D01*
X33949Y136376D02*
X36449Y138876D01*
X31449D02*
X36449D01*
X31449D02*
X33949Y136376D01*
X18949Y132626D02*
X38949D01*
X18949Y72705D02*
Y132626D01*
X38949Y72705D02*
Y132626D01*
X81327Y85155D02*
X89327D01*
X81327Y77656D02*
X89327D01*
D11*
X157350Y101381D02*
G03*
X157350Y101381I-492J0D01*
G01*
D12*
X10917Y44398D02*
X77650D01*
X10917Y57193D02*
X77650D01*
Y44398D02*
Y57193D01*
X10917Y44398D02*
Y57193D01*
X14264Y117429D02*
X16232D01*
X10327Y116445D02*
Y118413D01*
X12295Y114476D02*
Y120382D01*
X14264Y113492D02*
Y121366D01*
X217369Y15248D02*
X215703D01*
X214870Y14415D01*
Y11083D01*
X215703Y10250D01*
X217369D01*
X218202Y11083D01*
Y14415D01*
X217369Y15248D01*
X219868D02*
Y11083D01*
X220702Y10250D01*
X222368D01*
X223201Y11083D01*
Y15248D01*
X224867D02*
X228199D01*
X226533D01*
Y10250D01*
X229865Y9417D02*
X233197D01*
X234864Y15248D02*
Y10250D01*
X237363D01*
X238196Y11083D01*
Y11916D01*
X237363Y12749D01*
X234864D01*
X237363D01*
X238196Y13582D01*
Y14415D01*
X237363Y15248D01*
X234864D01*
X8374Y100091D02*
Y96092D01*
X11040D01*
X12373Y100091D02*
Y96092D01*
X14372D01*
X15039Y96758D01*
Y99424D01*
X14372Y100091D01*
X12373D01*
X5815Y106131D02*
Y110130D01*
X7814D01*
X8481Y109464D01*
Y108131D01*
X7814Y107464D01*
X5815D01*
X7148D02*
X8481Y106131D01*
X12479Y110130D02*
X9814D01*
Y106131D01*
X12479D01*
X9814Y108131D02*
X11147D01*
X16478Y110130D02*
X13812D01*
Y108131D01*
X15145D01*
X13812D01*
Y106131D01*
X5618Y128361D02*
X6285Y129028D01*
X7617D01*
X8284Y128361D01*
Y127695D01*
X7617Y127028D01*
X6951D01*
X7617D01*
X8284Y126362D01*
Y125695D01*
X7617Y125029D01*
X6285D01*
X5618Y125695D01*
X9617Y127695D02*
X10950Y125029D01*
X12283Y127695D01*
X13615Y128361D02*
X14282Y129028D01*
X15615D01*
X16281Y128361D01*
Y127695D01*
X15615Y127028D01*
X14948D01*
X15615D01*
X16281Y126362D01*
Y125695D01*
X15615Y125029D01*
X14282D01*
X13615Y125695D01*
X40854Y96289D02*
Y100287D01*
X42187Y98954D01*
X43520Y100287D01*
Y96289D01*
X44853Y100287D02*
Y96955D01*
X45520Y96289D01*
X46852D01*
X47519Y96955D01*
Y100287D01*
X48852D02*
X51518Y96289D01*
Y100287D02*
X48852Y96289D01*
X43520Y129148D02*
X42854Y129815D01*
X41521D01*
X40854Y129148D01*
Y126483D01*
X41521Y125816D01*
X42854D01*
X43520Y126483D01*
X44853Y129815D02*
Y125816D01*
X47519D01*
X48852Y129815D02*
Y125816D01*
Y127149D01*
X51518Y129815D01*
X49518Y127816D01*
X51518Y125816D01*
X40854Y120563D02*
Y116564D01*
X42854D01*
X43520Y117231D01*
Y119896D01*
X42854Y120563D01*
X40854D01*
X44853Y116564D02*
Y119230D01*
X46186Y120563D01*
X47519Y119230D01*
Y116564D01*
Y118564D01*
X44853D01*
X48852Y120563D02*
X51518D01*
X50185D01*
Y116564D01*
X52851D02*
Y119230D01*
X54183Y120563D01*
X55516Y119230D01*
Y116564D01*
Y118564D01*
X52851D01*
X41248Y109539D02*
Y105541D01*
X43914D01*
X47912Y109539D02*
X45247D01*
Y105541D01*
X47912D01*
X45247Y107540D02*
X46580D01*
X44308Y88794D02*
X43641Y89461D01*
X42308D01*
X41642Y88794D01*
Y86128D01*
X42308Y85462D01*
X43641D01*
X44308Y86128D01*
X48306Y89461D02*
X45640D01*
Y85462D01*
X48306D01*
X45640Y87461D02*
X46973D01*
X112251Y16232D02*
X110585D01*
X109752Y15399D01*
Y12067D01*
X110585Y11234D01*
X112251D01*
X113084Y12067D01*
Y15399D01*
X112251Y16232D01*
X114750D02*
Y12067D01*
X115583Y11234D01*
X117250D01*
X118083Y12067D01*
Y16232D01*
X119749D02*
X123081D01*
X121415D01*
Y11234D01*
X124747Y10401D02*
X128079D01*
X129745Y11234D02*
Y14566D01*
X131412Y16232D01*
X133078Y14566D01*
Y11234D01*
Y13733D01*
X129745D01*
X125320Y31099D02*
Y34431D01*
X126986Y36098D01*
X128652Y34431D01*
Y31099D01*
Y33598D01*
X125320D01*
X130318Y36098D02*
X133650D01*
X131984D01*
Y31099D01*
X135317Y35265D02*
X136150Y36098D01*
X137816D01*
X138649Y35265D01*
Y34431D01*
X137816Y33598D01*
X136983D01*
X137816D01*
X138649Y32765D01*
Y31932D01*
X137816Y31099D01*
X136150D01*
X135317Y31932D01*
X124820Y41599D02*
Y44932D01*
X126486Y46598D01*
X128152Y44932D01*
Y41599D01*
Y44098D01*
X124820D01*
X129818Y46598D02*
X133150D01*
X131484D01*
Y41599D01*
X138149D02*
X134817D01*
X138149Y44932D01*
Y45765D01*
X137316Y46598D01*
X135650D01*
X134817Y45765D01*
X122653Y51599D02*
Y54931D01*
X124319Y56598D01*
X125985Y54931D01*
Y51599D01*
Y54098D01*
X122653D01*
X127651Y56598D02*
X130983D01*
X129317D01*
Y51599D01*
X132650D02*
X134316D01*
X133483D01*
Y56598D01*
X132650Y55765D01*
X137294Y61992D02*
X136461Y61159D01*
Y59493D01*
X137294Y58660D01*
X140627D01*
X141460Y59493D01*
Y61159D01*
X140627Y61992D01*
X141460Y63658D02*
Y65324D01*
Y64491D01*
X136461D01*
X137294Y63658D01*
X70320Y111812D02*
X69487Y112645D01*
X67821D01*
X66988Y111812D01*
Y108479D01*
X67821Y107647D01*
X69487D01*
X70320Y108479D01*
X75319Y107647D02*
X71987D01*
X75319Y110979D01*
Y111812D01*
X74486Y112645D01*
X72820D01*
X71987Y111812D01*
X69730Y93111D02*
X68897Y93944D01*
X67231D01*
X66398Y93111D01*
Y89779D01*
X67231Y88946D01*
X68897D01*
X69730Y89779D01*
X71396Y93111D02*
X72229Y93944D01*
X73895D01*
X74728Y93111D01*
Y92278D01*
X73895Y91445D01*
X73062D01*
X73895D01*
X74728Y90612D01*
Y89779D01*
X73895Y88946D01*
X72229D01*
X71396Y89779D01*
X232132Y117520D02*
X231298Y118353D01*
X229632D01*
X228799Y117520D01*
Y114188D01*
X229632Y113355D01*
X231298D01*
X232132Y114188D01*
X236297Y113355D02*
Y118353D01*
X233798Y115854D01*
X237130D01*
X169723Y169914D02*
X168890Y170747D01*
X167224D01*
X166391Y169914D01*
Y166582D01*
X167224Y165749D01*
X168890D01*
X169723Y166582D01*
X174721Y170747D02*
X171389D01*
Y168248D01*
X173055Y169081D01*
X173888D01*
X174721Y168248D01*
Y166582D01*
X173888Y165749D01*
X172222D01*
X171389Y166582D01*
X214021Y55906D02*
X213188Y56739D01*
X211522D01*
X210689Y55906D01*
Y52574D01*
X211522Y51741D01*
X213188D01*
X214021Y52574D01*
X219020Y56739D02*
X217354Y55906D01*
X215687Y54240D01*
Y52574D01*
X216520Y51741D01*
X218187D01*
X219020Y52574D01*
Y53407D01*
X218187Y54240D01*
X215687D01*
X156889Y61281D02*
X156056Y60448D01*
Y58782D01*
X156889Y57949D01*
X160221D01*
X161054Y58782D01*
Y60448D01*
X160221Y61281D01*
X156056Y62947D02*
Y66280D01*
X156889D01*
X160221Y62947D01*
X161054D01*
X262598Y53013D02*
X261765Y52180D01*
Y50514D01*
X262598Y49681D01*
X265930D01*
X266763Y50514D01*
Y52180D01*
X265930Y53013D01*
X262598Y54680D02*
X261765Y55513D01*
Y57179D01*
X262598Y58012D01*
X263431D01*
X264264Y57179D01*
X265097Y58012D01*
X265930D01*
X266763Y57179D01*
Y55513D01*
X265930Y54680D01*
X265097D01*
X264264Y55513D01*
X263431Y54680D01*
X262598D01*
X264264Y55513D02*
Y57179D01*
X134494Y135631D02*
X133661Y136464D01*
X131994D01*
X131161Y135631D01*
Y132298D01*
X131994Y131465D01*
X133661D01*
X134494Y132298D01*
X136160D02*
X136993Y131465D01*
X138659D01*
X139492Y132298D01*
Y135631D01*
X138659Y136464D01*
X136993D01*
X136160Y135631D01*
Y134798D01*
X136993Y133965D01*
X139492D01*
X133789Y169095D02*
X132956Y169928D01*
X131290D01*
X130457Y169095D01*
Y165763D01*
X131290Y164930D01*
X132956D01*
X133789Y165763D01*
X135455Y164930D02*
X137121D01*
X136288D01*
Y169928D01*
X135455Y169095D01*
X139620D02*
X140454Y169928D01*
X142120D01*
X142953Y169095D01*
Y165763D01*
X142120Y164930D01*
X140454D01*
X139620Y165763D01*
Y169095D01*
X99583Y74071D02*
X98750Y74904D01*
X97083D01*
X96250Y74071D01*
Y70738D01*
X97083Y69905D01*
X98750D01*
X99583Y70738D01*
X101249Y69905D02*
X102915D01*
X102082D01*
Y74904D01*
X101249Y74071D01*
X105414Y69905D02*
X107080D01*
X106247D01*
Y74904D01*
X105414Y74071D01*
X99734Y64764D02*
X98901Y65598D01*
X97235D01*
X96402Y64764D01*
Y61432D01*
X97235Y60599D01*
X98901D01*
X99734Y61432D01*
X101400Y60599D02*
X103066D01*
X102233D01*
Y65598D01*
X101400Y64764D01*
X108898Y60599D02*
X105565D01*
X108898Y63932D01*
Y64764D01*
X108064Y65598D01*
X106398D01*
X105565Y64764D01*
X40876Y15158D02*
X40042Y15991D01*
X38376D01*
X37543Y15158D01*
Y11826D01*
X38376Y10993D01*
X40042D01*
X40876Y11826D01*
X42542Y10993D02*
X44208D01*
X43375D01*
Y15991D01*
X42542Y15158D01*
X49206Y10993D02*
Y15991D01*
X46707Y13492D01*
X50039D01*
X231427Y136758D02*
X230594Y137591D01*
X228928D01*
X228095Y136758D01*
Y133425D01*
X228928Y132592D01*
X230594D01*
X231427Y133425D01*
X233093Y132592D02*
X234759D01*
X233926D01*
Y137591D01*
X233093Y136758D01*
X240591Y137591D02*
X237258D01*
Y135092D01*
X238924Y135925D01*
X239757D01*
X240591Y135092D01*
Y133425D01*
X239757Y132592D01*
X238091D01*
X237258Y133425D01*
X232608Y96457D02*
X231775Y97290D01*
X230109D01*
X229276Y96457D01*
Y93125D01*
X230109Y92292D01*
X231775D01*
X232608Y93125D01*
X234274Y92292D02*
X235940D01*
X235107D01*
Y97290D01*
X234274Y96457D01*
X241772Y97290D02*
X240106Y96457D01*
X238439Y94791D01*
Y93125D01*
X239272Y92292D01*
X240938D01*
X241772Y93125D01*
Y93958D01*
X240938Y94791D01*
X238439D01*
X231230Y146206D02*
X230397Y147040D01*
X228731D01*
X227898Y146206D01*
Y142874D01*
X228731Y142041D01*
X230397D01*
X231230Y142874D01*
X232896Y142041D02*
X234562D01*
X233729D01*
Y147040D01*
X232896Y146206D01*
X237061Y147040D02*
X240394D01*
Y146206D01*
X237061Y142874D01*
Y142041D01*
X92553Y17717D02*
X91720Y18550D01*
X90054D01*
X89221Y17717D01*
Y14385D01*
X90054Y13552D01*
X91720D01*
X92553Y14385D01*
X94219Y13552D02*
X95885D01*
X95052D01*
Y18550D01*
X94219Y17717D01*
X98384D02*
X99218Y18550D01*
X100884D01*
X101717Y17717D01*
Y16884D01*
X100884Y16051D01*
X101717Y15218D01*
Y14385D01*
X100884Y13552D01*
X99218D01*
X98384Y14385D01*
Y15218D01*
X99218Y16051D01*
X98384Y16884D01*
Y17717D01*
X99218Y16051D02*
X100884D01*
X262991Y35380D02*
X262158Y34547D01*
Y32880D01*
X262991Y32047D01*
X266324D01*
X267157Y32880D01*
Y34547D01*
X266324Y35380D01*
X267157Y37046D02*
Y38712D01*
Y37879D01*
X262158D01*
X262991Y37046D01*
X266324Y41211D02*
X267157Y42044D01*
Y43710D01*
X266324Y44543D01*
X262991D01*
X262158Y43710D01*
Y42044D01*
X262991Y41211D01*
X263824D01*
X264657Y42044D01*
Y44543D01*
X210735Y36221D02*
X209902Y37054D01*
X208236D01*
X207402Y36221D01*
Y32889D01*
X208236Y32056D01*
X209902D01*
X210735Y32889D01*
X215733Y32056D02*
X212401D01*
X215733Y35388D01*
Y36221D01*
X214900Y37054D01*
X213234D01*
X212401Y36221D01*
X217399D02*
X218232Y37054D01*
X219898D01*
X220731Y36221D01*
Y32889D01*
X219898Y32056D01*
X218232D01*
X217399Y32889D01*
Y36221D01*
X211568Y46457D02*
X210735Y47291D01*
X209069D01*
X208236Y46457D01*
Y43125D01*
X209069Y42292D01*
X210735D01*
X211568Y43125D01*
X216566Y42292D02*
X213234D01*
X216566Y45624D01*
Y46457D01*
X215733Y47291D01*
X214067D01*
X213234Y46457D01*
X218232Y42292D02*
X219898D01*
X219065D01*
Y47291D01*
X218232Y46457D01*
X231010Y108268D02*
X230177Y109102D01*
X228511D01*
X227678Y108268D01*
Y104936D01*
X228511Y104103D01*
X230177D01*
X231010Y104936D01*
X236009Y104103D02*
X232676D01*
X236009Y107435D01*
Y108268D01*
X235176Y109102D01*
X233509D01*
X232676Y108268D01*
X241007Y104103D02*
X237675D01*
X241007Y107435D01*
Y108268D01*
X240174Y109102D01*
X238508D01*
X237675Y108268D01*
X107143Y46503D02*
X103811D01*
Y44004D01*
X105477D01*
X103811D01*
Y41505D01*
X108809Y46503D02*
Y41505D01*
X111308D01*
X112141Y42338D01*
Y43171D01*
X111308Y44004D01*
X108809D01*
X111308D01*
X112141Y44837D01*
Y45670D01*
X111308Y46503D01*
X108809D01*
X113807Y41505D02*
X115473D01*
X114640D01*
Y46503D01*
X113807Y45670D01*
X106507Y38629D02*
X103174D01*
Y36130D01*
X104841D01*
X103174D01*
Y33631D01*
X108173Y38629D02*
Y33631D01*
X110672D01*
X111505Y34464D01*
Y35297D01*
X110672Y36130D01*
X108173D01*
X110672D01*
X111505Y36963D01*
Y37796D01*
X110672Y38629D01*
X108173D01*
X116503Y33631D02*
X113171D01*
X116503Y36963D01*
Y37796D01*
X115670Y38629D01*
X114004D01*
X113171Y37796D01*
X118820Y20599D02*
Y25598D01*
X121319D01*
X122152Y24765D01*
Y23098D01*
X121319Y22265D01*
X118820D01*
X120486D02*
X122152Y20599D01*
X127150Y25598D02*
X123818D01*
Y23098D01*
X125484D01*
X123818D01*
Y20599D01*
X132149D02*
X128816D01*
X132149Y23932D01*
Y24765D01*
X131316Y25598D01*
X129650D01*
X128816Y24765D01*
X197349Y77135D02*
Y82133D01*
X199848D01*
X200681Y81300D01*
Y79634D01*
X199848Y78801D01*
X197349D01*
X199015D02*
X200681Y77135D01*
X202347D02*
X204013D01*
X203180D01*
Y82133D01*
X202347Y81300D01*
X67185Y116899D02*
Y121897D01*
X69684D01*
X70517Y121064D01*
Y119398D01*
X69684Y118565D01*
X67185D01*
X68851D02*
X70517Y116899D01*
X75516D02*
X72184D01*
X75516Y120231D01*
Y121064D01*
X74683Y121897D01*
X73017D01*
X72184Y121064D01*
X66594Y98340D02*
Y103339D01*
X69094D01*
X69927Y102506D01*
Y100840D01*
X69094Y100006D01*
X66594D01*
X68261D02*
X69927Y98340D01*
X71593Y102506D02*
X72426Y103339D01*
X74092D01*
X74925Y102506D01*
Y101673D01*
X74092Y100840D01*
X73259D01*
X74092D01*
X74925Y100006D01*
Y99173D01*
X74092Y98340D01*
X72426D01*
X71593Y99173D01*
X122835Y60502D02*
Y65501D01*
X125334D01*
X126167Y64667D01*
Y63001D01*
X125334Y62168D01*
X122835D01*
X124501D02*
X126167Y60502D01*
X130332D02*
Y65501D01*
X127833Y63001D01*
X131165D01*
X178602Y35993D02*
Y40991D01*
X181102D01*
X181935Y40158D01*
Y38492D01*
X181102Y37659D01*
X178602D01*
X180269D02*
X181935Y35993D01*
X186933Y40991D02*
X185267Y40158D01*
X183601Y38492D01*
Y36826D01*
X184434Y35993D01*
X186100D01*
X186933Y36826D01*
Y37659D01*
X186100Y38492D01*
X183601D01*
X66201Y126544D02*
Y131543D01*
X68700D01*
X69533Y130709D01*
Y129043D01*
X68700Y128210D01*
X66201D01*
X67867D02*
X69533Y126544D01*
X71199Y131543D02*
X74532D01*
Y130709D01*
X71199Y127377D01*
Y126544D01*
X162264Y36190D02*
Y41188D01*
X164763D01*
X165596Y40355D01*
Y38689D01*
X164763Y37856D01*
X162264D01*
X163930D02*
X165596Y36190D01*
X167262Y37023D02*
X168095Y36190D01*
X169761D01*
X170595Y37023D01*
Y40355D01*
X169761Y41188D01*
X168095D01*
X167262Y40355D01*
Y39522D01*
X168095Y38689D01*
X170595D01*
X63134Y155284D02*
Y160283D01*
X65633D01*
X66466Y159450D01*
Y157783D01*
X65633Y156950D01*
X63134D01*
X64800D02*
X66466Y155284D01*
X68132D02*
X69798D01*
X68965D01*
Y160283D01*
X68132Y159450D01*
X72298D02*
X73131Y160283D01*
X74797D01*
X75630Y159450D01*
Y156117D01*
X74797Y155284D01*
X73131D01*
X72298Y156117D01*
Y159450D01*
X64754Y147017D02*
Y152015D01*
X67254D01*
X68087Y151182D01*
Y149516D01*
X67254Y148683D01*
X64754D01*
X66421D02*
X68087Y147017D01*
X69753D02*
X71419D01*
X70586D01*
Y152015D01*
X69753Y151182D01*
X73918Y147017D02*
X75584D01*
X74751D01*
Y152015D01*
X73918Y151182D01*
X62937Y138158D02*
Y143157D01*
X65436D01*
X66269Y142324D01*
Y140657D01*
X65436Y139824D01*
X62937D01*
X64603D02*
X66269Y138158D01*
X67935D02*
X69602D01*
X68769D01*
Y143157D01*
X67935Y142324D01*
X75433Y138158D02*
X72101D01*
X75433Y141491D01*
Y142324D01*
X74600Y143157D01*
X72934D01*
X72101Y142324D01*
X229276Y123734D02*
Y128733D01*
X231775D01*
X232608Y127899D01*
Y126233D01*
X231775Y125400D01*
X229276D01*
X230942D02*
X232608Y123734D01*
X234274D02*
X235940D01*
X235107D01*
Y128733D01*
X234274Y127899D01*
X240938Y123734D02*
Y128733D01*
X238439Y126233D01*
X241772D01*
X151483Y147881D02*
Y143716D01*
X152316Y142883D01*
X153982D01*
X154815Y143716D01*
Y147881D01*
X156481Y142883D02*
X158147D01*
X157314D01*
Y147881D01*
X156481Y147048D01*
X64429Y15598D02*
Y11432D01*
X65262Y10599D01*
X66928D01*
X67761Y11432D01*
Y15598D01*
X69428Y14765D02*
X70261Y15598D01*
X71927D01*
X72760Y14765D01*
Y13931D01*
X71927Y13098D01*
X71094D01*
X71927D01*
X72760Y12265D01*
Y11432D01*
X71927Y10599D01*
X70261D01*
X69428Y11432D01*
X189626Y109889D02*
Y105724D01*
X190459Y104891D01*
X192125D01*
X192958Y105724D01*
Y109889D01*
X197957Y104891D02*
X194624D01*
X197957Y108223D01*
Y109056D01*
X197124Y109889D01*
X195457D01*
X194624Y109056D01*
X168609Y126969D02*
X167776Y127802D01*
X166110D01*
X165276Y126969D01*
Y123637D01*
X166110Y122804D01*
X167776D01*
X168609Y123637D01*
X173607Y122804D02*
X170275D01*
X173607Y126136D01*
Y126969D01*
X172774Y127802D01*
X171108D01*
X170275Y126969D01*
X175273D02*
X176106Y127802D01*
X177772D01*
X178605Y126969D01*
Y126136D01*
X177772Y125303D01*
X176939D01*
X177772D01*
X178605Y124470D01*
Y123637D01*
X177772Y122804D01*
X176106D01*
X175273Y123637D01*
X198727Y62599D02*
X197894Y63432D01*
X196228D01*
X195395Y62599D01*
Y59267D01*
X196228Y58434D01*
X197894D01*
X198727Y59267D01*
X203725Y58434D02*
X200393D01*
X203725Y61766D01*
Y62599D01*
X202892Y63432D01*
X201226D01*
X200393Y62599D01*
X207891Y58434D02*
Y63432D01*
X205391Y60933D01*
X208724D01*
X261613Y66065D02*
X260780Y65232D01*
Y63566D01*
X261613Y62733D01*
X264946D01*
X265779Y63566D01*
Y65232D01*
X264946Y66065D01*
X265779Y71064D02*
Y67731D01*
X262446Y71064D01*
X261613D01*
X260780Y70231D01*
Y68565D01*
X261613Y67731D01*
X260780Y76062D02*
Y72730D01*
X263280D01*
X262446Y74396D01*
Y75229D01*
X263280Y76062D01*
X264946D01*
X265779Y75229D01*
Y73563D01*
X264946Y72730D01*
X191127Y64856D02*
X191960Y65689D01*
Y67355D01*
X191127Y68188D01*
X187794D01*
X186961Y67355D01*
Y65689D01*
X187794Y64856D01*
X186961Y59857D02*
Y63190D01*
X190294Y59857D01*
X191127D01*
X191960Y60690D01*
Y62357D01*
X191127Y63190D01*
X191960Y54859D02*
X191127Y56525D01*
X189461Y58191D01*
X187794D01*
X186961Y57358D01*
Y55692D01*
X187794Y54859D01*
X188628D01*
X189461Y55692D01*
Y58191D01*
X226483Y75001D02*
X225650Y75834D01*
X223984D01*
X223150Y75001D01*
Y71668D01*
X223984Y70836D01*
X225650D01*
X226483Y71668D01*
X231481Y70836D02*
X228149D01*
X231481Y74168D01*
Y75001D01*
X230648Y75834D01*
X228982D01*
X228149Y75001D01*
X233147Y75834D02*
X236479D01*
Y75001D01*
X233147Y71668D01*
Y70836D01*
X206267Y24969D02*
Y29968D01*
X208766D01*
X209599Y29135D01*
Y27468D01*
X208766Y26635D01*
X206267D01*
X207933D02*
X209599Y24969D01*
X214598Y29968D02*
X211265D01*
Y27468D01*
X212931D01*
X211265D01*
Y24969D01*
X216264D02*
X217930D01*
X217097D01*
Y29968D01*
X216264Y29135D01*
X42821Y77409D02*
Y72410D01*
X45320D01*
X46154Y73243D01*
Y74076D01*
X45320Y74910D01*
X42821D01*
X45320D01*
X46154Y75743D01*
Y76576D01*
X45320Y77409D01*
X42821D01*
X47820Y72410D02*
X49486D01*
X48653D01*
Y77409D01*
X47820Y76576D01*
X99734Y84056D02*
X98901Y84889D01*
X97235D01*
X96402Y84056D01*
Y80724D01*
X97235Y79891D01*
X98901D01*
X99734Y80724D01*
X101400Y79891D02*
X103066D01*
X102233D01*
Y84889D01*
X101400Y84056D01*
X105565D02*
X106398Y84889D01*
X108064D01*
X108898Y84056D01*
Y83223D01*
X108064Y82390D01*
X107231D01*
X108064D01*
X108898Y81557D01*
Y80724D01*
X108064Y79891D01*
X106398D01*
X105565Y80724D01*
D13*
X90039Y48039D02*
X98142D01*
X90039Y41150D02*
X98142D01*
X90039Y38591D02*
X98142D01*
X90039Y31701D02*
X98142D01*
X162295Y84353D02*
X163279D01*
X162295D02*
Y85338D01*
Y103054D02*
Y104038D01*
X163279D01*
X181980Y84353D02*
Y85338D01*
X180996Y84353D02*
X181980D01*
Y103054D02*
Y104038D01*
X180996D02*
X181980D01*
D14*
X18960Y53239D02*
X17794Y54405D01*
X15462D01*
X14295Y53239D01*
Y48574D01*
X15462Y47408D01*
X17794D01*
X18960Y48574D01*
Y50907D01*
X16628D01*
X25958Y54405D02*
X21293D01*
Y47408D01*
X25958D01*
X21293Y50907D02*
X23626D01*
X28291Y47408D02*
Y54405D01*
X32956Y47408D01*
Y54405D01*
X39954D02*
X35289D01*
Y47408D01*
X39954D01*
X35289Y50907D02*
X37621D01*
X42286Y47408D02*
Y54405D01*
X45785D01*
X46951Y53239D01*
Y50907D01*
X45785Y49740D01*
X42286D01*
X44619D02*
X46951Y47408D01*
X49284D02*
Y52073D01*
X51617Y54405D01*
X53949Y52073D01*
Y47408D01*
Y50907D01*
X49284D01*
X56282Y54405D02*
Y47408D01*
X59781D01*
X60947Y48574D01*
Y53239D01*
X59781Y54405D01*
X56282D01*
X66778D02*
X64446D01*
X63279Y53239D01*
Y48574D01*
X64446Y47408D01*
X66778D01*
X67945Y48574D01*
Y53239D01*
X66778Y54405D01*
X70277Y47408D02*
Y54405D01*
X73776D01*
X74942Y53239D01*
Y50907D01*
X73776Y49740D01*
X70277D01*
X72610D02*
X74942Y47408D01*
M02*
