G04*
G04 #@! TF.GenerationSoftware,Altium Limited,Altium Designer,24.5.2 (23)*
G04*
G04 Layer_Physical_Order=1*
G04 Layer_Color=255*
%FSLAX25Y25*%
%MOIN*%
G70*
G04*
G04 #@! TF.SameCoordinates,01A352D6-3B51-4183-BB44-945251ACD641*
G04*
G04*
G04 #@! TF.FilePolarity,Positive*
G04*
G01*
G75*
%ADD16O,0.08661X0.02362*%
%ADD17R,0.05118X0.05906*%
%ADD18R,0.05906X0.05118*%
%ADD27C,0.02500*%
%ADD28C,0.03000*%
%ADD29C,0.02000*%
%ADD30R,0.07087X0.07087*%
%ADD31C,0.07087*%
%ADD32R,0.07087X0.07087*%
%ADD33C,0.02800*%
%ADD34C,0.02400*%
D16*
X46063Y55118D02*
D03*
Y50118D02*
D03*
Y45118D02*
D03*
Y40118D02*
D03*
Y35118D02*
D03*
Y30118D02*
D03*
Y25118D02*
D03*
X64961Y55118D02*
D03*
Y50118D02*
D03*
Y45118D02*
D03*
Y40118D02*
D03*
Y35118D02*
D03*
Y30118D02*
D03*
Y25118D02*
D03*
D17*
X66732Y64961D02*
D03*
X59252D02*
D03*
D18*
X82677Y57284D02*
D03*
Y64764D02*
D03*
X92520Y57284D02*
D03*
Y64764D02*
D03*
D27*
X84000Y78740D02*
X100394D01*
X84000D02*
Y89000D01*
X92520Y64764D02*
Y72835D01*
X82677Y64764D02*
Y72835D01*
X49213Y64961D02*
X59252D01*
X100394Y50118D02*
Y78740D01*
X92520Y50118D02*
X100394D01*
X92520D02*
Y57284D01*
X82677Y50118D02*
X92520D01*
X82677D02*
Y57284D01*
X64961Y50118D02*
X82677D01*
D28*
X73740Y64961D02*
Y89000D01*
X74000D01*
X73740Y55118D02*
Y64961D01*
X66732D02*
X73740D01*
X64961Y55118D02*
X73740D01*
D29*
X64961Y45118D02*
X78740D01*
X37402Y17717D02*
Y25118D01*
X46063D01*
X108268Y55590D02*
X129921D01*
X108268Y40118D02*
Y55590D01*
X64961Y40118D02*
X108268D01*
X112205Y45591D02*
X129921D01*
X112205Y35118D02*
Y45591D01*
X64961Y35118D02*
X112205D01*
X118110Y30118D02*
Y35591D01*
X129921D01*
X64961Y30118D02*
X118110D01*
X64961Y25118D02*
X129921D01*
Y25591D01*
X31496Y40118D02*
X46063D01*
X31496Y25000D02*
Y40118D01*
X14000Y25000D02*
X31496D01*
X27559Y45118D02*
X46063D01*
X27559Y35000D02*
Y45118D01*
X14000Y35000D02*
X27559D01*
X23622Y50118D02*
X46063D01*
X23622Y45000D02*
Y50118D01*
X14000Y45000D02*
X23622D01*
X14000D02*
Y45276D01*
X14118Y55118D02*
X46063D01*
X14000Y55000D02*
X14118Y55118D01*
D30*
X74000Y89000D02*
D03*
D31*
X94000D02*
D03*
X84000D02*
D03*
X129921Y45591D02*
D03*
Y35591D02*
D03*
Y25591D02*
D03*
X14000Y45000D02*
D03*
Y35000D02*
D03*
Y25000D02*
D03*
D32*
X129921Y55590D02*
D03*
X14000Y55000D02*
D03*
D33*
X49213Y64961D02*
D03*
X92520Y72835D02*
D03*
X82677D02*
D03*
D34*
X78740Y45118D02*
D03*
X37402Y17717D02*
D03*
M02*
