G04*
G04 #@! TF.GenerationSoftware,Altium Limited,Altium Designer,24.5.2 (23)*
G04*
G04 Layer_Color=2752767*
%FSLAX25Y25*%
%MOIN*%
G70*
G04*
G04 #@! TF.SameCoordinates,01A352D6-3B51-4183-BB44-945251ACD641*
G04*
G04*
G04 #@! TF.FilePolarity,Positive*
G04*
G01*
G75*
%ADD13C,0.00500*%
%ADD35C,0.00667*%
D13*
X72000Y87000D02*
Y91000D01*
X76000D01*
Y87000D01*
X72000D01*
X92000D02*
Y91000D01*
X96000D01*
Y87000D01*
X92000D01*
X82000D02*
Y91000D01*
X86000D01*
Y87000D01*
X82000D01*
X127921Y43591D02*
Y47591D01*
X131921D01*
Y43591D01*
X127921D01*
Y33591D02*
Y37591D01*
X131921D01*
Y33591D01*
X127921D01*
Y23591D02*
Y27591D01*
X131921D01*
Y23591D01*
X127921D01*
Y53591D02*
Y57591D01*
X131921D01*
Y53591D01*
X127921D01*
X12000Y43000D02*
Y47000D01*
X16000D01*
Y43000D01*
X12000D01*
Y33000D02*
Y37000D01*
X16000D01*
Y33000D01*
X12000D01*
Y23000D02*
Y27000D01*
X16000D01*
Y23000D01*
X12000D01*
Y53000D02*
Y57000D01*
X16000D01*
Y53000D01*
X12000D01*
D35*
X51213Y64961D02*
G03*
X51213Y64961I-2000J0D01*
G01*
X94520Y72835D02*
G03*
X94520Y72835I-2000J0D01*
G01*
X84677D02*
G03*
X84677Y72835I-2000J0D01*
G01*
X80740Y45118D02*
G03*
X80740Y45118I-2000J0D01*
G01*
X39402Y17717D02*
G03*
X39402Y17717I-2000J0D01*
G01*
M02*
