G04*
G04 #@! TF.GenerationSoftware,Altium Limited,Altium Designer,24.5.2 (23)*
G04*
G04 Layer_Color=8388736*
%FSLAX25Y25*%
%MOIN*%
G70*
G04*
G04 #@! TF.SameCoordinates,01A352D6-3B51-4183-BB44-945251ACD641*
G04*
G04*
G04 #@! TF.FilePolarity,Negative*
G04*
G01*
G75*
%ADD19O,0.09461X0.03162*%
%ADD20R,0.05918X0.06706*%
%ADD21R,0.06706X0.05918*%
%ADD22R,0.07887X0.07887*%
%ADD23C,0.07887*%
%ADD24R,0.07887X0.07887*%
%ADD25C,0.03600*%
%ADD26C,0.03200*%
D19*
X46063Y55118D02*
D03*
Y50118D02*
D03*
Y45118D02*
D03*
Y40118D02*
D03*
Y35118D02*
D03*
Y30118D02*
D03*
Y25118D02*
D03*
X64961Y55118D02*
D03*
Y50118D02*
D03*
Y45118D02*
D03*
Y40118D02*
D03*
Y35118D02*
D03*
Y30118D02*
D03*
Y25118D02*
D03*
D20*
X66732Y64961D02*
D03*
X59252D02*
D03*
D21*
X82677Y57284D02*
D03*
Y64764D02*
D03*
X92520Y57284D02*
D03*
Y64764D02*
D03*
D22*
X74000Y89000D02*
D03*
D23*
X94000D02*
D03*
X84000D02*
D03*
X129921Y45591D02*
D03*
Y35591D02*
D03*
Y25591D02*
D03*
X14000Y45000D02*
D03*
Y35000D02*
D03*
Y25000D02*
D03*
D24*
X129921Y55590D02*
D03*
X14000Y55000D02*
D03*
D25*
X49213Y64961D02*
D03*
X92520Y72835D02*
D03*
X82677D02*
D03*
D26*
X78740Y45118D02*
D03*
X37402Y17717D02*
D03*
M02*
