G04*
G04 #@! TF.GenerationSoftware,Altium Limited,Altium Designer,24.4.1 (13)*
G04*
G04 Layer_Physical_Order=1*
G04 Layer_Color=255*
%FSLAX25Y25*%
%MOIN*%
G70*
G04*
G04 #@! TF.SameCoordinates,DFA012FA-E2B2-4B6A-99E0-2456AF4758C4*
G04*
G04*
G04 #@! TF.FilePolarity,Positive*
G04*
G01*
G75*
%ADD14C,0.01000*%
%ADD39R,0.05315X0.05906*%
%ADD40R,0.05906X0.01772*%
%ADD41R,0.13504X0.05315*%
%ADD42R,0.04921X0.02362*%
%ADD43R,0.05906X0.05315*%
%ADD44R,0.03150X0.03150*%
%ADD45R,0.04409X0.06772*%
%ADD46R,0.02323X0.01772*%
%ADD47R,0.05118X0.05906*%
%ADD48R,0.11614X0.07284*%
%ADD49R,0.04331X0.02362*%
%ADD50R,0.03543X0.03740*%
%ADD51R,0.04134X0.02165*%
%ADD52R,0.06693X0.22441*%
%ADD53R,0.06299X0.07087*%
%ADD54C,0.02000*%
%ADD55C,0.03000*%
%ADD56C,0.01500*%
%ADD57C,0.05000*%
%ADD58C,0.06000*%
%ADD59C,0.04000*%
%ADD60C,0.08000*%
%ADD61C,0.06000*%
%ADD62R,0.06000X0.06000*%
%ADD63C,0.06319*%
%ADD64R,0.06319X0.06319*%
%ADD65O,0.08858X0.17717*%
%ADD66O,0.17717X0.08858*%
%ADD67O,0.19685X0.09843*%
%ADD68C,0.12598*%
%ADD69C,0.03200*%
%ADD70C,0.03600*%
%ADD71C,0.05800*%
%ADD72C,0.05000*%
%ADD73C,0.05200*%
%ADD74C,0.05600*%
G36*
X33445Y230622D02*
X33879Y230461D01*
X34395Y230319D01*
X34994Y230195D01*
X36441Y230006D01*
X38220Y229892D01*
X40329Y229854D01*
Y223854D01*
X39233Y223845D01*
X35676Y223617D01*
X34994Y223513D01*
X33879Y223248D01*
X33445Y223087D01*
X33094Y222906D01*
Y230802D01*
X33445Y230622D01*
D02*
G37*
G36*
X32080Y222672D02*
X31571Y222482D01*
X31121Y222167D01*
X30732Y221725D01*
X30402Y221157D01*
X30133Y220463D01*
X29923Y219642D01*
X29773Y218696D01*
X29684Y217623D01*
X29653Y216424D01*
X23653D01*
X23624Y217623D01*
X23534Y218696D01*
X23384Y219642D01*
X23174Y220463D01*
X22905Y221157D01*
X22575Y221725D01*
X22186Y222167D01*
X21736Y222482D01*
X21227Y222672D01*
X20658Y222735D01*
X32649D01*
X32080Y222672D01*
D02*
G37*
G36*
X11902Y221374D02*
X12130Y220865D01*
X12487Y220416D01*
X12972Y220026D01*
X13586Y219697D01*
X14328Y219428D01*
X15198Y219218D01*
X16197Y219069D01*
X17325Y218979D01*
X18580Y218949D01*
Y212949D01*
X17396Y212919D01*
X16340Y212829D01*
X15413Y212679D01*
X14614Y212469D01*
X13943Y212199D01*
X13401Y211869D01*
X12987Y211479D01*
X12701Y211029D01*
X12545Y210520D01*
X12516Y209950D01*
X11802Y221942D01*
X11902Y221374D01*
D02*
G37*
G36*
X11917Y208252D02*
X11756Y207818D01*
X11614Y207302D01*
X11491Y206702D01*
X11301Y205256D01*
X11187Y203477D01*
X11150Y201367D01*
X5150D01*
X5140Y202464D01*
X4913Y206020D01*
X4808Y206702D01*
X4543Y207818D01*
X4382Y208252D01*
X4202Y208603D01*
X12098D01*
X11917Y208252D01*
D02*
G37*
G36*
X31178Y198276D02*
X30753Y198125D01*
X30378Y197874D01*
X30053Y197523D01*
X29778Y197071D01*
X29553Y196519D01*
X29379Y195867D01*
X29254Y195114D01*
X29179Y194261D01*
X29153Y193308D01*
X24153D01*
X24129Y194261D01*
X24054Y195114D01*
X23929Y195867D01*
X23754Y196519D01*
X23529Y197071D01*
X23254Y197523D01*
X22929Y197874D01*
X22554Y198125D01*
X22129Y198276D01*
X21655Y198326D01*
X31653D01*
X31178Y198276D01*
D02*
G37*
G36*
X104616Y134878D02*
X104183Y134875D01*
X103406Y134823D01*
X103063Y134774D01*
X102750Y134710D01*
X102467Y134630D01*
X102214Y134536D01*
X101991Y134426D01*
X101798Y134300D01*
X101635Y134160D01*
X100928Y134867D01*
X101068Y135030D01*
X101193Y135223D01*
X101303Y135446D01*
X101398Y135699D01*
X101478Y135983D01*
X101542Y136296D01*
X101591Y136639D01*
X101643Y137415D01*
X101646Y137848D01*
X104616Y134878D01*
D02*
G37*
G36*
X86442Y135427D02*
X85930Y134841D01*
X85722Y134564D01*
X85546Y134298D01*
X85402Y134041D01*
X85290Y133795D01*
X85210Y133560D01*
X85162Y133335D01*
X85146Y133120D01*
X84146D01*
X84130Y133335D01*
X84082Y133560D01*
X84002Y133795D01*
X83890Y134041D01*
X83746Y134298D01*
X83570Y134564D01*
X83362Y134841D01*
X82850Y135427D01*
X82546Y135735D01*
X86746D01*
X86442Y135427D01*
D02*
G37*
G36*
X136475Y135452D02*
X135967Y134856D01*
X135761Y134575D01*
X135586Y134306D01*
X135444Y134048D01*
X135332Y133801D01*
X135253Y133565D01*
X135205Y133341D01*
X135190Y133128D01*
X134190Y133113D01*
X134174Y133329D01*
X134125Y133555D01*
X134045Y133790D01*
X133932Y134035D01*
X133786Y134290D01*
X133609Y134554D01*
X133399Y134827D01*
X133158Y135110D01*
X132577Y135705D01*
X136777Y135766D01*
X136475Y135452D01*
D02*
G37*
G36*
X116639Y135636D02*
X116328Y135348D01*
X115803Y134796D01*
X115590Y134530D01*
X115410Y134273D01*
X115262Y134023D01*
X115147Y133781D01*
X115066Y133546D01*
X115016Y133319D01*
X115000Y133099D01*
X114000Y133148D01*
X113984Y133357D01*
X113938Y133579D01*
X113860Y133815D01*
X113751Y134064D01*
X113611Y134327D01*
X113440Y134602D01*
X113238Y134892D01*
X112740Y135511D01*
X112444Y135840D01*
X116639Y135636D01*
D02*
G37*
G36*
X96639D02*
X96328Y135348D01*
X95803Y134796D01*
X95590Y134530D01*
X95410Y134273D01*
X95262Y134023D01*
X95148Y133781D01*
X95066Y133546D01*
X95016Y133319D01*
X95000Y133099D01*
X94000Y133148D01*
X93984Y133357D01*
X93938Y133579D01*
X93860Y133815D01*
X93751Y134064D01*
X93611Y134327D01*
X93440Y134602D01*
X93238Y134892D01*
X92740Y135511D01*
X92444Y135840D01*
X96639Y135636D01*
D02*
G37*
G36*
X76639D02*
X76328Y135348D01*
X75803Y134796D01*
X75590Y134530D01*
X75410Y134273D01*
X75262Y134023D01*
X75147Y133781D01*
X75066Y133546D01*
X75016Y133319D01*
X75000Y133099D01*
X74000Y133148D01*
X73984Y133357D01*
X73938Y133579D01*
X73860Y133815D01*
X73751Y134064D01*
X73611Y134327D01*
X73440Y134602D01*
X73238Y134892D01*
X72740Y135511D01*
X72444Y135840D01*
X76639Y135636D01*
D02*
G37*
G36*
X145160Y52268D02*
X145201Y52036D01*
X145271Y51805D01*
X145369Y51575D01*
X145494Y51345D01*
X145647Y51116D01*
X145828Y50888D01*
X146037Y50660D01*
X146274Y50432D01*
X146538Y50206D01*
X142753D01*
X143018Y50432D01*
X143254Y50660D01*
X143463Y50888D01*
X143644Y51116D01*
X143798Y51345D01*
X143923Y51575D01*
X144020Y51805D01*
X144090Y52036D01*
X144132Y52268D01*
X144146Y52500D01*
X145146D01*
X145160Y52268D01*
D02*
G37*
G36*
X166152Y51953D02*
X166200Y51373D01*
X166242Y51115D01*
X166296Y50878D01*
X166362Y50664D01*
X166440Y50470D01*
X166530Y50299D01*
X166632Y50149D01*
X166746Y50020D01*
X162546D01*
X162660Y50149D01*
X162762Y50299D01*
X162852Y50470D01*
X162930Y50664D01*
X162996Y50878D01*
X163050Y51115D01*
X163092Y51373D01*
X163122Y51652D01*
X163146Y52276D01*
X166146D01*
X166152Y51953D01*
D02*
G37*
G36*
X107649Y47415D02*
X107701Y46639D01*
X107750Y46296D01*
X107814Y45983D01*
X107893Y45700D01*
X107988Y45446D01*
X108098Y45223D01*
X108223Y45030D01*
X108364Y44867D01*
X107657Y44160D01*
X107493Y44300D01*
X107300Y44426D01*
X107077Y44536D01*
X106824Y44630D01*
X106541Y44710D01*
X106228Y44774D01*
X105885Y44823D01*
X105109Y44875D01*
X104676Y44878D01*
X107645Y47848D01*
X107649Y47415D01*
D02*
G37*
G36*
X97573Y47070D02*
X97546Y46332D01*
X97565Y46003D01*
X97605Y45700D01*
X97667Y45423D01*
X97750Y45172D01*
X97855Y44948D01*
X97982Y44750D01*
X98129Y44578D01*
X97333Y43960D01*
X97183Y44089D01*
X96998Y44211D01*
X96780Y44325D01*
X96528Y44430D01*
X96242Y44528D01*
X95922Y44618D01*
X95182Y44774D01*
X94305Y44897D01*
X97619Y47478D01*
X97573Y47070D01*
D02*
G37*
G36*
X66639Y45636D02*
X66328Y45348D01*
X65803Y44796D01*
X65590Y44530D01*
X65410Y44273D01*
X65262Y44023D01*
X65148Y43781D01*
X65066Y43546D01*
X65016Y43319D01*
X65000Y43099D01*
X64000Y43148D01*
X63984Y43357D01*
X63938Y43579D01*
X63860Y43815D01*
X63751Y44064D01*
X63611Y44327D01*
X63440Y44603D01*
X63238Y44892D01*
X62740Y45511D01*
X62444Y45840D01*
X66639Y45636D01*
D02*
G37*
G36*
X56639D02*
X56328Y45348D01*
X55803Y44796D01*
X55590Y44530D01*
X55410Y44273D01*
X55262Y44023D01*
X55147Y43781D01*
X55066Y43546D01*
X55016Y43319D01*
X55000Y43099D01*
X54000Y43148D01*
X53984Y43357D01*
X53938Y43579D01*
X53860Y43815D01*
X53751Y44064D01*
X53611Y44327D01*
X53440Y44603D01*
X53238Y44892D01*
X52740Y45511D01*
X52444Y45840D01*
X56639Y45636D01*
D02*
G37*
G36*
X119284Y33970D02*
X119477Y33844D01*
X119706Y33727D01*
X119972Y33618D01*
X120275Y33518D01*
X120615Y33426D01*
X121404Y33267D01*
X122339Y33141D01*
X118866Y30402D01*
X118913Y30839D01*
X118940Y31628D01*
X118920Y31979D01*
X118878Y32301D01*
X118814Y32595D01*
X118728Y32859D01*
X118619Y33095D01*
X118489Y33303D01*
X118336Y33481D01*
X119127Y34103D01*
X119284Y33970D01*
D02*
G37*
G36*
X108976Y33755D02*
X109178Y33626D01*
X109413Y33512D01*
X109680Y33414D01*
X109980Y33332D01*
X110312Y33266D01*
X110677Y33216D01*
X111505Y33162D01*
X111968Y33159D01*
X108841Y30032D01*
X108838Y30495D01*
X108784Y31323D01*
X108734Y31688D01*
X108668Y32020D01*
X108586Y32320D01*
X108488Y32587D01*
X108374Y32822D01*
X108245Y33024D01*
X108100Y33193D01*
X108807Y33900D01*
X108976Y33755D01*
D02*
G37*
G36*
X162499Y19891D02*
X162550Y19657D01*
X162636Y19411D01*
X162755Y19153D01*
X162909Y18883D01*
X163098Y18601D01*
X163320Y18307D01*
X163868Y17684D01*
X164193Y17354D01*
X159770D01*
X160095Y17684D01*
X160643Y18307D01*
X160865Y18601D01*
X161054Y18883D01*
X161208Y19153D01*
X161327Y19411D01*
X161413Y19657D01*
X161464Y19891D01*
X161481Y20113D01*
X162481D01*
X162499Y19891D01*
D02*
G37*
G36*
X93436Y12269D02*
X93236Y12108D01*
X93059Y11938D01*
X92906Y11759D01*
X92776Y11571D01*
X92670Y11375D01*
X92588Y11169D01*
X92529Y10955D01*
X92493Y10732D01*
X92481Y10500D01*
X91481D01*
X91470Y10732D01*
X91434Y10955D01*
X91375Y11169D01*
X91293Y11375D01*
X91187Y11571D01*
X91057Y11759D01*
X90904Y11938D01*
X90727Y12108D01*
X90527Y12269D01*
X90303Y12421D01*
X93660D01*
X93436Y12269D01*
D02*
G37*
G36*
X163868Y12512D02*
X163320Y11889D01*
X163098Y11595D01*
X162909Y11313D01*
X162755Y11043D01*
X162636Y10785D01*
X162550Y10539D01*
X162499Y10305D01*
X162481Y10083D01*
X161481D01*
X161464Y10305D01*
X161413Y10539D01*
X161327Y10785D01*
X161208Y11043D01*
X161054Y11313D01*
X160865Y11595D01*
X160643Y11889D01*
X160095Y12512D01*
X159770Y12842D01*
X164193D01*
X163868Y12512D01*
D02*
G37*
G36*
X153868D02*
X153320Y11889D01*
X153098Y11595D01*
X152909Y11313D01*
X152755Y11043D01*
X152636Y10785D01*
X152550Y10539D01*
X152499Y10305D01*
X152481Y10083D01*
X151481D01*
X151464Y10305D01*
X151413Y10539D01*
X151327Y10785D01*
X151208Y11043D01*
X151054Y11313D01*
X150865Y11595D01*
X150643Y11889D01*
X150095Y12512D01*
X149770Y12842D01*
X154193D01*
X153868Y12512D01*
D02*
G37*
G36*
X174113Y12766D02*
X173782Y12452D01*
X173225Y11854D01*
X172998Y11570D01*
X172807Y11295D01*
X172650Y11030D01*
X172528Y10775D01*
X172441Y10529D01*
X172389Y10293D01*
X172371Y10067D01*
X171371Y10102D01*
X171354Y10320D01*
X171304Y10552D01*
X171220Y10798D01*
X171103Y11059D01*
X170951Y11334D01*
X170767Y11622D01*
X170549Y11926D01*
X170011Y12574D01*
X169693Y12920D01*
X174113Y12766D01*
D02*
G37*
G36*
X212000Y35055D02*
X212018Y34817D01*
X212073Y34578D01*
X212164Y34335D01*
X212292Y34091D01*
X212457Y33844D01*
X212658Y33595D01*
X212895Y33345D01*
X213169Y33091D01*
X213480Y32836D01*
X213827Y32578D01*
X209459Y31878D01*
X209752Y32283D01*
X210445Y33361D01*
X210615Y33674D01*
X210861Y34231D01*
X210938Y34475D01*
X210985Y34695D01*
X211000Y34893D01*
X212000Y35055D01*
D02*
G37*
G36*
X218807Y33900D02*
X218976Y33755D01*
X219178Y33626D01*
X219413Y33512D01*
X219680Y33414D01*
X219980Y33332D01*
X220312Y33266D01*
X220677Y33216D01*
X221505Y33162D01*
X221968Y33159D01*
X218841Y30032D01*
X218838Y30495D01*
X218784Y31323D01*
X218734Y31688D01*
X218668Y32020D01*
X218586Y32320D01*
X218488Y32587D01*
X218374Y32822D01*
X218245Y33024D01*
X218100Y33193D01*
X218807Y33900D01*
D02*
G37*
G36*
X228807D02*
X228976Y33755D01*
X229178Y33626D01*
X229413Y33512D01*
X229680Y33414D01*
X229980Y33332D01*
X230312Y33266D01*
X230677Y33216D01*
X231505Y33162D01*
X231968Y33159D01*
X228841Y30032D01*
X228838Y30495D01*
X228784Y31323D01*
X228734Y31688D01*
X228667Y32020D01*
X228586Y32320D01*
X228488Y32587D01*
X228374Y32822D01*
X228245Y33024D01*
X228100Y33193D01*
X228807Y33900D01*
D02*
G37*
G36*
X238807D02*
X238976Y33755D01*
X239178Y33626D01*
X239413Y33512D01*
X239680Y33414D01*
X239980Y33332D01*
X240312Y33266D01*
X240677Y33216D01*
X241505Y33162D01*
X241968Y33159D01*
X238841Y30032D01*
X238838Y30495D01*
X238784Y31323D01*
X238734Y31688D01*
X238667Y32020D01*
X238586Y32320D01*
X238488Y32587D01*
X238374Y32822D01*
X238245Y33024D01*
X238100Y33193D01*
X238807Y33900D01*
D02*
G37*
G36*
X248807D02*
X248976Y33755D01*
X249178Y33626D01*
X249413Y33512D01*
X249680Y33414D01*
X249980Y33332D01*
X250312Y33266D01*
X250677Y33216D01*
X251505Y33162D01*
X251968Y33159D01*
X248841Y30032D01*
X248838Y30495D01*
X248784Y31323D01*
X248734Y31688D01*
X248668Y32020D01*
X248586Y32320D01*
X248488Y32587D01*
X248374Y32822D01*
X248245Y33024D01*
X248100Y33193D01*
X248807Y33900D01*
D02*
G37*
G36*
X258807D02*
X258976Y33755D01*
X259178Y33626D01*
X259413Y33512D01*
X259680Y33414D01*
X259980Y33332D01*
X260312Y33266D01*
X260677Y33216D01*
X261505Y33162D01*
X261968Y33159D01*
X258841Y30032D01*
X258838Y30495D01*
X258784Y31323D01*
X258734Y31688D01*
X258667Y32020D01*
X258586Y32320D01*
X258488Y32587D01*
X258374Y32822D01*
X258245Y33024D01*
X258100Y33193D01*
X258807Y33900D01*
D02*
G37*
G36*
X310504Y30768D02*
X310798Y30781D01*
X311080Y30821D01*
X311352Y30887D01*
X311612Y30980D01*
X311861Y31100D01*
X312098Y31246D01*
X312325Y31419D01*
X312540Y31618D01*
X312743Y31844D01*
X312936Y32096D01*
X313652Y27732D01*
X313370Y27929D01*
X312807Y28260D01*
X312526Y28395D01*
X312245Y28509D01*
X311965Y28602D01*
X311686Y28675D01*
X311407Y28726D01*
X311129Y28757D01*
X310851Y28768D01*
X310504Y30768D01*
D02*
G37*
G36*
X320413Y29280D02*
X320126Y29267D01*
X319844Y29231D01*
X319568Y29171D01*
X319296Y29086D01*
X319030Y28977D01*
X318769Y28843D01*
X318513Y28686D01*
X318262Y28504D01*
X318017Y28298D01*
X317777Y28068D01*
Y32491D01*
X318017Y32261D01*
X318262Y32055D01*
X318513Y31873D01*
X318769Y31716D01*
X319030Y31582D01*
X319296Y31473D01*
X319568Y31389D01*
X319844Y31328D01*
X320126Y31292D01*
X320413Y31280D01*
Y29280D01*
D02*
G37*
G36*
X320628Y31280D02*
X320915Y31292D01*
X321197Y31328D01*
X321474Y31389D01*
X321745Y31473D01*
X322011Y31582D01*
X322272Y31716D01*
X322528Y31873D01*
X322779Y32055D01*
X323024Y32261D01*
X323264Y32491D01*
Y28068D01*
X323024Y28298D01*
X322779Y28504D01*
X322528Y28686D01*
X322272Y28843D01*
X322011Y28977D01*
X321745Y29086D01*
X321474Y29171D01*
X321197Y29231D01*
X320915Y29267D01*
X320628Y29280D01*
Y31280D01*
D02*
G37*
G36*
X316521Y45172D02*
X316533Y44885D01*
X316569Y44603D01*
X316630Y44326D01*
X316715Y44055D01*
X316824Y43789D01*
X316957Y43528D01*
X317114Y43272D01*
X317296Y43021D01*
X317502Y42776D01*
X317732Y42536D01*
X313309D01*
X313539Y42776D01*
X313745Y43021D01*
X313927Y43272D01*
X314085Y43528D01*
X314218Y43789D01*
X314327Y44055D01*
X314412Y44326D01*
X314472Y44603D01*
X314509Y44885D01*
X314521Y45172D01*
X316521D01*
D02*
G37*
G36*
X326590Y45427D02*
X326601Y45045D01*
X326630Y44703D01*
X326680Y44401D01*
X326751Y44139D01*
X326840Y43918D01*
X326951Y43737D01*
X327080Y43596D01*
X327231Y43496D01*
X327401Y43435D01*
X327590Y43415D01*
X323590D01*
X323780Y43435D01*
X323951Y43496D01*
X324101Y43596D01*
X324231Y43737D01*
X324341Y43918D01*
X324430Y44139D01*
X324501Y44401D01*
X324551Y44703D01*
X324581Y45045D01*
X324590Y45427D01*
X326590D01*
D02*
G37*
G36*
X346000Y84608D02*
X346016Y84291D01*
X346065Y83964D01*
X346147Y83627D01*
X346262Y83279D01*
X346409Y82922D01*
X346589Y82555D01*
X346801Y82177D01*
X347324Y81392D01*
X347635Y80984D01*
X342079Y81684D01*
X342444Y81979D01*
X342771Y82279D01*
X343059Y82584D01*
X343308Y82895D01*
X343520Y83211D01*
X343693Y83532D01*
X343827Y83858D01*
X343923Y84190D01*
X343981Y84526D01*
X344000Y84869D01*
X346000Y84608D01*
D02*
G37*
G36*
X370655Y30768D02*
X370949Y30781D01*
X371232Y30821D01*
X371503Y30887D01*
X371763Y30980D01*
X372012Y31100D01*
X372250Y31246D01*
X372476Y31419D01*
X372691Y31618D01*
X372895Y31844D01*
X373088Y32096D01*
X373804Y27732D01*
X373522Y27929D01*
X372958Y28260D01*
X372677Y28395D01*
X372397Y28509D01*
X372117Y28602D01*
X371838Y28675D01*
X371559Y28726D01*
X371280Y28757D01*
X371002Y28768D01*
X370655Y30768D01*
D02*
G37*
G36*
X380565Y29280D02*
X380278Y29267D01*
X379996Y29231D01*
X379719Y29171D01*
X379448Y29086D01*
X379181Y28977D01*
X378920Y28843D01*
X378665Y28686D01*
X378414Y28504D01*
X378169Y28298D01*
X377928Y28068D01*
Y32491D01*
X378169Y32261D01*
X378414Y32055D01*
X378665Y31873D01*
X378920Y31716D01*
X379181Y31582D01*
X379448Y31473D01*
X379719Y31389D01*
X379996Y31328D01*
X380278Y31292D01*
X380565Y31280D01*
Y29280D01*
D02*
G37*
G36*
X380780Y31280D02*
X381067Y31292D01*
X381349Y31328D01*
X381625Y31389D01*
X381897Y31473D01*
X382163Y31582D01*
X382424Y31716D01*
X382680Y31873D01*
X382930Y32055D01*
X383176Y32261D01*
X383416Y32491D01*
Y28068D01*
X383176Y28298D01*
X382930Y28504D01*
X382680Y28686D01*
X382424Y28843D01*
X382163Y28977D01*
X381897Y29086D01*
X381625Y29171D01*
X381349Y29231D01*
X381067Y29267D01*
X380780Y29280D01*
Y31280D01*
D02*
G37*
G36*
X376984Y45049D02*
X376995Y44767D01*
X377029Y44487D01*
X377084Y44209D01*
X377162Y43932D01*
X377262Y43657D01*
X377384Y43383D01*
X377529Y43112D01*
X377696Y42841D01*
X377885Y42573D01*
X378096Y42306D01*
X373694Y42743D01*
X373939Y42955D01*
X374159Y43175D01*
X374352Y43405D01*
X374520Y43643D01*
X374662Y43890D01*
X374778Y44146D01*
X374868Y44411D01*
X374933Y44685D01*
X374971Y44967D01*
X374984Y45259D01*
X376984Y45049D01*
D02*
G37*
G36*
X355500Y72227D02*
X355482Y72559D01*
X355428Y72892D01*
X355338Y73228D01*
X355212Y73567D01*
X355050Y73907D01*
X354852Y74250D01*
X354618Y74595D01*
X354348Y74942D01*
X354042Y75292D01*
X353700Y75643D01*
X359300D01*
X358958Y75292D01*
X358382Y74595D01*
X358148Y74250D01*
X357950Y73907D01*
X357788Y73567D01*
X357662Y73228D01*
X357572Y72892D01*
X357518Y72559D01*
X357500Y72227D01*
X355500D01*
D02*
G37*
G36*
X370996Y84025D02*
X371008Y83761D01*
X371043Y83469D01*
X371102Y83148D01*
X371289Y82420D01*
X371417Y82013D01*
X371943Y80622D01*
X372165Y80102D01*
X366972Y82197D01*
X367357Y82374D01*
X367701Y82571D01*
X368004Y82789D01*
X368268Y83026D01*
X368490Y83283D01*
X368672Y83560D01*
X368814Y83858D01*
X368916Y84175D01*
X368976Y84512D01*
X368997Y84869D01*
X370996Y84025D01*
D02*
G37*
G36*
X390565Y29280D02*
X390278Y29267D01*
X389996Y29231D01*
X389719Y29171D01*
X389448Y29086D01*
X389181Y28977D01*
X388920Y28843D01*
X388665Y28686D01*
X388414Y28504D01*
X388169Y28298D01*
X387929Y28068D01*
Y32491D01*
X388169Y32261D01*
X388414Y32055D01*
X388665Y31873D01*
X388920Y31716D01*
X389181Y31582D01*
X389448Y31473D01*
X389719Y31389D01*
X389996Y31328D01*
X390278Y31292D01*
X390565Y31280D01*
Y29280D01*
D02*
G37*
G36*
X390779Y31280D02*
X391067Y31292D01*
X391349Y31328D01*
X391625Y31389D01*
X391897Y31473D01*
X392163Y31582D01*
X392424Y31716D01*
X392680Y31873D01*
X392930Y32055D01*
X393176Y32261D01*
X393416Y32491D01*
Y28068D01*
X393176Y28298D01*
X392930Y28504D01*
X392680Y28686D01*
X392424Y28843D01*
X392163Y28977D01*
X391897Y29086D01*
X391625Y29171D01*
X391349Y29231D01*
X391067Y29267D01*
X390779Y29280D01*
Y31280D01*
D02*
G37*
G36*
X386672Y45172D02*
X386684Y44885D01*
X386721Y44603D01*
X386781Y44326D01*
X386866Y44055D01*
X386975Y43789D01*
X387108Y43528D01*
X387266Y43272D01*
X387448Y43021D01*
X387654Y42776D01*
X387884Y42536D01*
X383461D01*
X383691Y42776D01*
X383897Y43021D01*
X384079Y43272D01*
X384236Y43528D01*
X384369Y43789D01*
X384478Y44055D01*
X384563Y44326D01*
X384624Y44603D01*
X384660Y44885D01*
X384672Y45172D01*
X386672D01*
D02*
G37*
G36*
X396669Y45427D02*
X396679Y45045D01*
X396709Y44703D01*
X396759Y44401D01*
X396829Y44139D01*
X396919Y43918D01*
X397029Y43737D01*
X397159Y43596D01*
X397309Y43496D01*
X397479Y43435D01*
X397669Y43415D01*
X393669D01*
X393859Y43435D01*
X394029Y43496D01*
X394179Y43596D01*
X394309Y43737D01*
X394419Y43918D01*
X394509Y44139D01*
X394579Y44401D01*
X394629Y44703D01*
X394659Y45045D01*
X394669Y45427D01*
X396669D01*
D02*
G37*
G36*
X412248Y34838D02*
X412255Y34503D01*
X412312Y33896D01*
X412362Y33624D01*
X412426Y33371D01*
X412504Y33140D01*
X412597Y32928D01*
X412704Y32738D01*
X412824Y32568D01*
X412960Y32418D01*
X408536D01*
X408672Y32568D01*
X408793Y32738D01*
X408899Y32928D01*
X408992Y33140D01*
X409070Y33371D01*
X409134Y33624D01*
X409184Y33896D01*
X409220Y34190D01*
X409241Y34503D01*
X409248Y34838D01*
X412248D01*
D02*
G37*
G36*
X422366Y36309D02*
X422381Y35737D01*
X422426Y35225D01*
X422501Y34773D01*
X422606Y34381D01*
X422741Y34050D01*
X422906Y33779D01*
X423101Y33568D01*
X423326Y33417D01*
X423581Y33327D01*
X423866Y33297D01*
X417866D01*
X418151Y33327D01*
X418406Y33417D01*
X418631Y33568D01*
X418826Y33779D01*
X418991Y34050D01*
X419126Y34381D01*
X419231Y34773D01*
X419306Y35225D01*
X419351Y35737D01*
X419366Y36309D01*
X422366D01*
D02*
G37*
D14*
X210003Y98583D02*
X210043Y98543D01*
X209843Y94122D02*
Y94286D01*
X210003Y98583D02*
Y98583D01*
X239256Y30000D02*
X242000D01*
X267500Y37000D02*
Y41350D01*
X279000Y37000D02*
Y41350D01*
X293500Y4295D02*
Y67000D01*
X290500Y37000D02*
Y41350D01*
X253500Y57000D02*
Y72760D01*
Y57000D02*
X279000D01*
X253500Y84500D02*
X259500D01*
X253500Y80240D02*
Y84500D01*
X265000Y64000D02*
X290500D01*
X265000D02*
Y72760D01*
X290500Y56500D02*
Y64000D01*
X259500Y61500D02*
X285500D01*
Y22500D02*
Y61500D01*
X239300Y52700D02*
X241200Y50800D01*
X267500Y47650D02*
Y54000D01*
X241000D02*
Y72760D01*
Y54000D02*
X267500D01*
X279000Y47650D02*
Y57000D01*
X229500Y62500D02*
X239300Y52700D01*
X241200Y50800D02*
X262000Y30000D01*
X259500Y61500D02*
Y84500D01*
X272000Y67000D02*
X293500D01*
X161981Y22500D02*
X285500D01*
X161981Y15098D02*
Y22500D01*
X264500Y80240D02*
Y84500D01*
X171871Y4295D02*
Y15098D01*
X264500Y80240D02*
X265000D01*
X264500Y84500D02*
X272000D01*
Y67000D02*
Y84500D01*
X171871Y4295D02*
X293500D01*
X290500Y47650D02*
Y56500D01*
X211000Y98500D02*
X229500D01*
Y62500D02*
Y98500D01*
X219500Y42500D02*
Y85500D01*
Y42500D02*
X232000Y30000D01*
X209500Y85500D02*
X219500D01*
X222500Y49500D02*
X242000Y30000D01*
X209500Y90000D02*
X222500D01*
Y49500D02*
Y90000D01*
X226000Y56000D02*
Y94122D01*
Y56000D02*
X252000Y30000D01*
X209843Y94122D02*
X226000D01*
X216000Y36000D02*
X222000Y30000D01*
X216000Y36000D02*
Y81000D01*
X211998D02*
X216000D01*
X50000Y8800D02*
X53796D01*
X50000D02*
Y123500D01*
X92686Y8800D02*
X151981D01*
Y15098D01*
X53796Y8800D02*
X92686D01*
X54500Y10500D02*
Y47732D01*
Y10500D02*
X91981D01*
Y17098D01*
X40000Y6795D02*
X161981D01*
X211500Y30000D02*
X212000D01*
X74500Y129000D02*
Y137878D01*
X29000Y4295D02*
X171871D01*
X161981Y6795D02*
Y15098D01*
X141841Y21340D02*
X142000Y21500D01*
X64500Y24340D02*
Y47732D01*
Y24340D02*
X102000D01*
X59500Y21340D02*
Y120000D01*
X104646Y47878D02*
X122000Y30524D01*
Y30000D02*
Y30524D01*
X94646Y47354D02*
X112000Y30000D01*
X94646Y47354D02*
Y47878D01*
X59500Y21340D02*
X141841D01*
X188000Y59000D02*
Y60000D01*
X106500Y59000D02*
X188000D01*
X119500Y43000D02*
X171000D01*
X171500Y42500D01*
X211500Y30000D02*
Y75500D01*
X209500Y77500D02*
X211500Y75500D01*
X109000Y87000D02*
X110067Y88067D01*
X109000Y85500D02*
Y87000D01*
X110067Y88067D02*
Y94433D01*
X118307D01*
X112500Y83000D02*
Y89500D01*
X114874Y91874D01*
X106500Y89500D02*
Y95500D01*
X107992Y96992D01*
X75000Y80000D02*
X120000D01*
X54500Y47732D02*
X54646Y47878D01*
X64500Y47732D02*
X64646Y47878D01*
X97000Y130232D02*
X104646Y137878D01*
X97000Y120000D02*
Y130232D01*
X40000Y6795D02*
Y54000D01*
X29000Y4295D02*
Y56000D01*
X45500D01*
X40000Y54000D02*
X48000D01*
X45500Y56000D02*
Y129000D01*
X74500D01*
X48000Y126000D02*
X84500D01*
X48000Y54000D02*
Y126000D01*
X50000Y123500D02*
X94500D01*
X59500Y120000D02*
X97000D01*
X74500Y137878D02*
X74646D01*
X84500Y126000D02*
X84646Y126146D01*
Y137878D01*
X94500Y137732D02*
X94646Y137878D01*
X94500Y123500D02*
Y137732D01*
X118110Y89118D02*
X118307Y89315D01*
X118000Y84000D02*
X118307Y84307D01*
X137000Y110500D02*
Y133000D01*
X138000D01*
X134690Y123260D02*
Y137834D01*
X134153Y137386D02*
X134646Y137878D01*
X134690Y137834D01*
X124000Y115000D02*
Y123000D01*
X121346Y112346D02*
X124000Y115000D01*
X133179Y123007D02*
X134437D01*
X133172Y123000D02*
X133179Y123007D01*
X134437D02*
X134690Y123260D01*
X124000Y123000D02*
X133172D01*
X104500Y129500D02*
X124500D01*
X104500Y115500D02*
X106465Y117465D01*
X103500Y110000D02*
X108405Y114906D01*
X118307D01*
X103459Y62041D02*
X103500Y62000D01*
X103500D01*
X154500D01*
X194500Y81000D02*
X196502D01*
X192500Y77500D02*
X199000D01*
Y85500D02*
Y86000D01*
X180685Y89315D02*
X192500Y77500D01*
X141535Y89315D02*
X180685D01*
X125650Y85650D02*
X149850D01*
X120000Y80000D02*
X125650Y85650D01*
X149850D02*
X150000Y85800D01*
X136059Y81500D02*
X150000D01*
X183626Y91874D02*
X194500Y81000D01*
X198700Y90200D02*
X199000Y89900D01*
X141535Y91874D02*
X183626D01*
X185067Y94433D02*
X193500Y86000D01*
X199000D01*
X141535Y94433D02*
X185067D01*
X186008Y96992D02*
X193000Y90000D01*
X198500D01*
X198700Y90200D01*
X210043Y98543D02*
X210500Y99000D01*
X141535Y96992D02*
X186008D01*
X187449Y99551D02*
X192800Y94200D01*
X199000D01*
X188000Y102000D02*
X191500Y98500D01*
X199000D01*
X112500Y71500D02*
X199500D01*
X141646Y102000D02*
X188000D01*
X141535Y99551D02*
X187449D01*
X141535Y107228D02*
X150228D01*
X141535Y104669D02*
X152669D01*
X155500Y107500D01*
X150228Y107228D02*
X154500Y111500D01*
X210500Y99000D02*
X211000Y98500D01*
X141535Y102110D02*
X141646Y102000D01*
X155543Y74800D02*
X155743Y75000D01*
X82543Y74800D02*
X155543D01*
X80000Y77000D02*
X152000D01*
X153000Y78000D01*
X156984Y75000D02*
X157017Y74967D01*
X156932Y75052D02*
X156984Y75000D01*
X156932Y75052D02*
X157053D01*
X156984Y75000D02*
X157000D01*
X155743D02*
X156984D01*
X157000D02*
X157053Y75052D01*
X81243Y73500D02*
X82543Y74800D01*
X70000Y73500D02*
X81243D01*
X109000Y68500D02*
X191695D01*
X103459Y62041D02*
X103500Y62000D01*
X103500D01*
X127000Y65000D02*
X160000D01*
X103500Y62000D02*
X154500D01*
X118307Y99500D02*
Y99551D01*
X133000Y54700D02*
Y56000D01*
X139500Y55500D02*
Y56000D01*
X93445Y53055D02*
X93500Y53000D01*
X133700Y54700D02*
X134500Y55500D01*
X133000Y54700D02*
X133700D01*
X144146Y53000D02*
X144646Y52500D01*
X93500Y53000D02*
X144146D01*
X93445Y53055D02*
Y53245D01*
X156500Y107500D02*
X157000Y108000D01*
X155500Y107500D02*
X156500D01*
X149346Y112346D02*
X151000Y114000D01*
X114500Y137732D02*
X114646Y137878D01*
X114500Y133000D02*
Y137732D01*
Y133000D02*
X131500D01*
X137565Y109935D02*
X141683D01*
X137000Y110500D02*
X137565Y109935D01*
X141535Y112346D02*
X149346D01*
X145905Y114906D02*
X147000Y116000D01*
X141535Y114906D02*
X145905D01*
X144646Y47878D02*
Y52500D01*
X134500Y55500D02*
X139500D01*
X124000Y98000D02*
Y98500D01*
X126500Y101500D02*
X126750Y101750D01*
X118307Y104669D02*
X135331D01*
X126291Y102209D02*
X126750Y101750D01*
X122949Y99551D02*
X124000Y98500D01*
X118307Y99551D02*
X122949D01*
X107992Y96992D02*
X118307D01*
X114874Y91874D02*
X118307D01*
X118405Y102209D02*
X126291D01*
X133059Y108877D02*
Y108941D01*
X133000Y109000D02*
X133059Y108941D01*
X132500Y109000D02*
X133000D01*
X130728Y107228D02*
X132500Y109000D01*
X131197Y112753D02*
X131475Y112475D01*
X128787Y109787D02*
X131475Y112475D01*
X131197Y112753D02*
Y112753D01*
X118307Y109787D02*
X128787D01*
X135331Y104669D02*
X135500Y104500D01*
X136059D01*
X118307Y112346D02*
X121346D01*
X118307Y107228D02*
X130728D01*
X85000Y110000D02*
X103500D01*
X106465Y117465D02*
X118307D01*
X141535Y109787D02*
X141683Y109935D01*
X299524Y127602D02*
X299606Y127685D01*
X118307Y102110D02*
X118405Y102209D01*
D39*
X409251Y171231D02*
D03*
X416732D02*
D03*
X220158Y179231D02*
D03*
X212677D02*
D03*
X212677Y163589D02*
D03*
X220158D02*
D03*
X409251Y159589D02*
D03*
X416732D02*
D03*
X312567Y163998D02*
D03*
X320047D02*
D03*
X320047Y179231D02*
D03*
X312567D02*
D03*
D40*
X118307Y117465D02*
D03*
Y114906D02*
D03*
Y112346D02*
D03*
Y109787D02*
D03*
Y107228D02*
D03*
Y104669D02*
D03*
Y102110D02*
D03*
Y99551D02*
D03*
Y96992D02*
D03*
Y94433D02*
D03*
Y91874D02*
D03*
Y89315D02*
D03*
X141535D02*
D03*
Y91874D02*
D03*
Y94433D02*
D03*
Y96992D02*
D03*
Y99551D02*
D03*
Y102110D02*
D03*
Y104669D02*
D03*
Y107228D02*
D03*
Y109787D02*
D03*
Y112346D02*
D03*
Y114906D02*
D03*
Y117465D02*
D03*
D41*
X93000Y212268D02*
D03*
Y195732D02*
D03*
D42*
X283319Y107917D02*
D03*
Y104177D02*
D03*
Y100437D02*
D03*
X293162D02*
D03*
Y107917D02*
D03*
X283319Y127602D02*
D03*
Y123862D02*
D03*
Y120122D02*
D03*
X293162D02*
D03*
Y127602D02*
D03*
D43*
X253500Y80240D02*
D03*
Y72760D02*
D03*
X265000Y80240D02*
D03*
Y72760D02*
D03*
X241000Y80240D02*
D03*
Y72760D02*
D03*
D44*
X290500Y47650D02*
D03*
Y41350D02*
D03*
X279000Y47650D02*
D03*
Y41350D02*
D03*
X267500Y47650D02*
D03*
Y41350D02*
D03*
D45*
X67831Y185500D02*
D03*
X84169D02*
D03*
D46*
X187418Y164583D02*
D03*
X178560D02*
D03*
X352772Y207062D02*
D03*
X343914D02*
D03*
X149032D02*
D03*
X157890D02*
D03*
X378264Y164489D02*
D03*
X387122D02*
D03*
X278280Y164489D02*
D03*
X287138D02*
D03*
X257932Y207062D02*
D03*
X249074D02*
D03*
D47*
X186020Y209422D02*
D03*
X178540D02*
D03*
X352083Y167436D02*
D03*
X344603D02*
D03*
X256456D02*
D03*
X248976D02*
D03*
X385351Y209295D02*
D03*
X377870D02*
D03*
X312468Y209422D02*
D03*
X319949D02*
D03*
X287158Y209295D02*
D03*
X279678D02*
D03*
X156804Y167436D02*
D03*
X149323D02*
D03*
X212579Y209422D02*
D03*
X220059D02*
D03*
X212579Y194567D02*
D03*
X220059D02*
D03*
X409653Y197422D02*
D03*
X417133D02*
D03*
X265272Y123862D02*
D03*
X257792D02*
D03*
X265272Y104177D02*
D03*
X257792D02*
D03*
X409350Y123862D02*
D03*
X416830D02*
D03*
X409153Y104177D02*
D03*
X416633D02*
D03*
X364353D02*
D03*
X356873D02*
D03*
X364353Y123862D02*
D03*
X356873D02*
D03*
X311926D02*
D03*
X319406D02*
D03*
X311926Y103783D02*
D03*
X319406D02*
D03*
X312468Y194187D02*
D03*
X319949D02*
D03*
X409653Y182187D02*
D03*
X417133D02*
D03*
D48*
X75520Y164000D02*
D03*
X90480D02*
D03*
X27520D02*
D03*
X42480D02*
D03*
D49*
X158973Y190594D02*
D03*
Y186854D02*
D03*
Y183114D02*
D03*
X147949D02*
D03*
Y186854D02*
D03*
Y190594D02*
D03*
X258228Y191511D02*
D03*
Y187771D02*
D03*
Y184031D02*
D03*
X247204D02*
D03*
Y187771D02*
D03*
Y191511D02*
D03*
X353855D02*
D03*
Y187771D02*
D03*
Y184031D02*
D03*
X342831D02*
D03*
Y187771D02*
D03*
Y191511D02*
D03*
D50*
X126197Y212445D02*
D03*
X113796D02*
D03*
D51*
X382595Y107917D02*
D03*
Y104177D02*
D03*
Y100437D02*
D03*
X392831D02*
D03*
Y107917D02*
D03*
X382595Y127602D02*
D03*
Y123862D02*
D03*
Y120122D02*
D03*
X392831D02*
D03*
Y127602D02*
D03*
D52*
X373835Y185673D02*
D03*
X391552D02*
D03*
X274559D02*
D03*
X292276D02*
D03*
X174130D02*
D03*
X191847D02*
D03*
D53*
X114878Y194728D02*
D03*
X125902D02*
D03*
D54*
X345000Y78500D02*
Y86500D01*
X344500Y78500D02*
X345000D01*
X317000Y86500D02*
X345000D01*
X317000Y78000D02*
Y86500D01*
X241000Y89000D02*
Y104000D01*
Y80240D02*
Y89000D01*
X271500D01*
X204000Y104000D02*
X241000D01*
X356500Y55500D02*
Y78500D01*
X369997D02*
Y95122D01*
X368500Y78500D02*
X369997D01*
X369291Y29768D02*
Y59098D01*
X369488Y59295D02*
X388380D01*
X385672Y52602D02*
X395669D01*
X369291Y59098D02*
X369488Y59295D01*
X375984Y52602D02*
X385672D01*
X375984Y40592D02*
Y52602D01*
X385672Y40398D02*
Y52602D01*
X395669D02*
Y89610D01*
Y40282D02*
Y52602D01*
X311024Y49847D02*
Y86461D01*
X388380Y59295D02*
Y95106D01*
X334000Y188035D02*
Y226500D01*
X337229Y187771D02*
X342831D01*
X334000D02*
X336771D01*
X133382Y186854D02*
X147949D01*
X298622Y29768D02*
X315009D01*
X298622D02*
Y103898D01*
X325521Y30279D02*
X325984Y30743D01*
X142737Y167436D02*
X149323D01*
X278311Y100437D02*
X283319D01*
X278311Y100287D02*
Y100437D01*
Y107917D02*
X283319D01*
X278311Y107720D02*
Y107917D01*
Y120122D02*
X283319D01*
X278311Y119925D02*
Y120122D01*
X262910Y167436D02*
Y183876D01*
Y167169D02*
Y167436D01*
X162516Y174650D02*
Y182933D01*
Y186854D01*
X134000Y183114D02*
X147949D01*
X134000Y181000D02*
Y183114D01*
Y159000D02*
Y167500D01*
Y159000D02*
X134123Y158877D01*
X197500D01*
X234957Y187642D02*
Y226854D01*
X133382Y186854D02*
Y194728D01*
X337000Y160500D02*
Y184031D01*
X342831D01*
X268000Y209295D02*
X279678D01*
X268000Y191511D02*
Y209295D01*
X241256Y198000D02*
X252500D01*
X241256Y191511D02*
Y198000D01*
Y191511D02*
X247204D01*
X268000Y185500D02*
X274559D01*
Y185673D01*
X268000Y185500D02*
Y191511D01*
X258228D02*
X268000D01*
X167500Y209422D02*
X178540D01*
X167500Y190594D02*
Y209422D01*
Y186000D02*
X174130D01*
Y185673D02*
Y186000D01*
X167500D02*
Y190594D01*
X158973D02*
X167500D01*
X311024Y49847D02*
X315354D01*
X385672Y30279D02*
X395672D01*
X375672D02*
X385672D01*
X375160Y29768D02*
X375672Y30279D01*
X369291Y29768D02*
X375160D01*
X388380Y95106D02*
X388511Y95237D01*
X400115D01*
Y103980D01*
X375672Y40279D02*
X375984Y40592D01*
X410236Y42366D02*
X410748Y41854D01*
X420748Y30161D02*
X420866Y30279D01*
X395669Y40282D02*
X395672Y40279D01*
X315521Y30279D02*
X325521D01*
X315009Y29768D02*
X315521Y30279D01*
X315354Y49847D02*
X325590D01*
X315354D02*
X315521Y49680D01*
Y40279D02*
Y49680D01*
X325521Y40279D02*
X325590Y40350D01*
Y49847D01*
X307004Y164020D02*
X307026Y163998D01*
X288107Y114020D02*
Y123862D01*
X283319D02*
X288107D01*
Y93547D02*
Y104177D01*
X283319D02*
X288107D01*
X248849Y167563D02*
X248976Y167436D01*
X369997Y95122D02*
Y103390D01*
X369603Y103783D02*
X369997Y103390D01*
Y95122D02*
X382595D01*
Y100437D01*
X375508Y101815D02*
Y104177D01*
X382595D01*
X371178Y107917D02*
X382595D01*
X235086Y187771D02*
X247204D01*
X376689Y120713D02*
Y123862D01*
X371571Y114020D02*
X382595D01*
X371178Y114413D02*
X371571Y114020D01*
X382595D02*
Y120122D01*
X376689Y123862D02*
X382595D01*
X326296Y171894D02*
X326689Y171500D01*
X364417Y191511D02*
X364485Y191579D01*
X353855Y191511D02*
X364417D01*
X342763Y191579D02*
X342831Y191511D01*
X262755Y184031D02*
X262910Y183876D01*
X141256Y190791D02*
X147752D01*
X141256D02*
Y197484D01*
X157004D01*
X186020Y209422D02*
X186147Y209295D01*
X192831D01*
X400311Y115201D02*
Y123862D01*
X400115Y103980D02*
X408956D01*
X409153Y104177D01*
X400115Y103980D02*
Y107917D01*
X392831D02*
X400115D01*
X400311Y123862D02*
X409350D01*
X400311D02*
Y127406D01*
X400115Y127602D02*
X400311Y127406D01*
X392831Y127602D02*
X400115D01*
X371178Y127799D02*
X371374Y127602D01*
X382595D01*
X352083Y167436D02*
X352350Y167169D01*
X358579D02*
Y184098D01*
X299524Y112839D02*
Y123468D01*
X311811Y103898D02*
X311926Y103783D01*
X298622Y103898D02*
X311811D01*
X298622D02*
Y108000D01*
X293162Y107917D02*
X293245Y108000D01*
X298622D01*
X311532Y123468D02*
X311926Y123862D01*
X299524Y123468D02*
X311532D01*
X299524D02*
Y127602D01*
X293162D02*
X299524D01*
X353855Y187771D02*
X353984Y187642D01*
X358579D01*
Y184098D02*
Y187642D01*
X353855Y184031D02*
X353922Y184098D01*
X358579D01*
X326689Y179374D02*
X327151Y179835D01*
X278311Y127602D02*
X283319D01*
X159154Y182933D02*
X162516D01*
X158973Y183114D02*
X159154Y182933D01*
X158973Y186854D02*
X162516D01*
X262952Y184228D02*
Y187771D01*
X258228Y184031D02*
X262755D01*
X262952Y184228D01*
X258228Y187771D02*
X262952D01*
D55*
X204000Y55500D02*
Y104000D01*
X356500Y55500D02*
X364500D01*
X317500D02*
X356500D01*
X402500Y42366D02*
Y55500D01*
X317500D02*
Y71000D01*
X278264Y70906D02*
Y100240D01*
X337500Y145000D02*
X396271D01*
X402674Y185280D02*
Y197422D01*
Y136067D02*
Y171231D01*
X423540Y163626D02*
Y171000D01*
Y159626D02*
Y163626D01*
Y146697D02*
Y159626D01*
X204000Y104000D02*
Y179231D01*
X402674Y171231D02*
X409251D01*
X403174Y197422D02*
X409653D01*
X403174Y182187D02*
X409653D01*
X402500Y42366D02*
X410236D01*
X164646Y55500D02*
X204000D01*
X105429Y212445D02*
X113796D01*
X278311Y100437D02*
Y107720D01*
Y107917D02*
Y113823D01*
Y120122D02*
Y127602D01*
X299918Y158000D02*
Y185280D01*
X278311Y127602D02*
Y158000D01*
X299918D01*
X336500Y144000D02*
X337500Y145000D01*
X412500Y145000D02*
X421843D01*
X423540Y146697D01*
X127500Y174650D02*
X162516D01*
Y167436D02*
Y174650D01*
X156804Y167436D02*
X162516D01*
X126197Y212445D02*
X133000D01*
X164646Y47878D02*
Y55500D01*
X212838Y171106D02*
X218422D01*
X212677Y170945D02*
X212838Y171106D01*
X227477Y163626D02*
Y171000D01*
X204000Y209422D02*
X212579D01*
X204000Y194567D02*
Y209422D01*
Y179231D02*
Y185673D01*
Y179231D02*
X212677D01*
X191847Y185673D02*
X204000D01*
Y194567D01*
X212579D01*
X241650Y158902D02*
X248343D01*
X410236Y42366D02*
X420866D01*
X410748Y30161D02*
Y41854D01*
X420866Y30279D02*
Y42366D01*
X7402Y215949D02*
X8150Y215201D01*
Y215043D02*
Y215201D01*
X307026Y163998D02*
X312567D01*
X299524Y185673D02*
X305430D01*
X292276D02*
X299524D01*
X299918Y185280D01*
X241650Y158902D02*
Y167563D01*
X248849D01*
X369603Y103783D02*
X371178D01*
X364747D02*
X369603D01*
X371178D02*
Y107917D01*
Y114413D01*
X349524Y104177D02*
X356873D01*
X349524D02*
Y123862D01*
X356873D01*
X319406Y103783D02*
X327083D01*
Y123862D01*
X319406D02*
X327083D01*
X133382Y194728D02*
Y212445D01*
X212677Y163589D02*
Y170945D01*
X371178Y114413D02*
Y123862D01*
X414993Y150686D02*
X415272Y150964D01*
X409251Y150686D02*
X414993D01*
X409251D02*
Y159589D01*
X416633Y104177D02*
X422752D01*
Y123862D01*
X416830D02*
X422752D01*
X248343Y104177D02*
X257792D01*
X248343D02*
Y123862D01*
X257792D01*
X349721Y159492D02*
X349918Y159295D01*
X344603Y159492D02*
X349721D01*
X344603D02*
Y167436D01*
X125902Y194728D02*
X133382D01*
X364485Y202996D02*
Y209295D01*
Y191579D02*
Y202996D01*
X326689Y171500D02*
Y179374D01*
Y163626D02*
Y171500D01*
X315666Y171894D02*
X326296D01*
X227477Y171000D02*
Y179374D01*
X364485Y186854D02*
Y191579D01*
X364485Y209295D02*
X377870D01*
X364485Y209295D02*
X364485Y209295D01*
X371178Y127799D02*
Y136067D01*
Y123862D02*
Y127799D01*
Y136067D02*
X402674D01*
X271571Y114020D02*
Y123862D01*
Y104177D02*
Y114020D01*
X278311Y113823D02*
Y119925D01*
X278114Y114020D02*
X278311Y113823D01*
X271571Y114020D02*
X278114D01*
X278264Y100240D02*
X278311Y100287D01*
X364485Y186854D02*
X372654D01*
X373835Y185673D01*
X305430Y194728D02*
Y209295D01*
X364353Y104177D02*
X364747Y103783D01*
X364353Y123862D02*
X371178D01*
X265272Y104177D02*
X271571D01*
X265272Y123862D02*
X271571D01*
X402674Y171231D02*
Y185280D01*
X402280Y185673D02*
X402674Y185280D01*
X391552Y185673D02*
X402280D01*
X416769Y159626D02*
X423540D01*
X416732Y159589D02*
X416769Y159626D01*
X416874Y171374D02*
X423540D01*
X320420Y163626D02*
X326689D01*
X320047Y163998D02*
X320420Y163626D01*
X320047Y179231D02*
X320190Y179374D01*
X326689D01*
X305430Y185673D02*
Y194728D01*
X305971Y194187D02*
X312468D01*
X305430Y194728D02*
X305971Y194187D01*
X305430Y178980D02*
Y185673D01*
X305430Y185673D02*
X305430Y185673D01*
Y178980D02*
X312316D01*
X312567Y179231D01*
X305430Y209295D02*
X305557Y209422D01*
X312468D01*
X220158Y163589D02*
X220195Y163626D01*
X227477D01*
X220300Y179374D02*
X227477D01*
X220158Y179231D02*
X220300Y179374D01*
D56*
X403174Y197422D02*
Y200000D01*
X394500D02*
X403174D01*
X394500D02*
Y221500D01*
X338107D02*
X394500D01*
X390863Y209295D02*
Y217169D01*
X358973D02*
X390863D01*
X337713Y191579D02*
X342763D01*
X337713D02*
Y197090D01*
X334000Y187771D02*
Y188035D01*
X338107Y207327D02*
Y221500D01*
X162000Y207062D02*
Y216000D01*
X204000D01*
X118307Y84307D02*
Y89315D01*
X141535Y117465D02*
X143868D01*
X145654Y119250D01*
X148346D01*
X150132Y117465D01*
X196850D01*
Y117563D01*
X283500Y139049D02*
X299524D01*
X210000Y117500D02*
Y139000D01*
X273000D01*
X283500D02*
Y139049D01*
X299524Y127602D02*
Y139049D01*
X187418Y164583D02*
X192541D01*
Y169428D01*
X192437Y169532D02*
X192541Y169428D01*
X236000Y172500D02*
Y172681D01*
X235745D02*
Y184031D01*
X247204D01*
X241256Y207062D02*
X249074D01*
X241256Y198000D02*
Y207062D01*
X204000Y209422D02*
Y216000D01*
X157890Y207062D02*
X162000D01*
X305430Y209295D02*
Y216500D01*
X261500D02*
X305430D01*
X261500Y207062D02*
Y216500D01*
X257932Y207062D02*
X261500D01*
X268000Y164489D02*
Y185500D01*
Y164489D02*
X278280D01*
X167500Y164583D02*
Y186000D01*
Y164583D02*
X178560D01*
X287138Y164489D02*
X292756D01*
X234957Y187642D02*
X235086Y187771D01*
X391181Y164489D02*
X391256Y164413D01*
X387122Y164489D02*
X391181D01*
X287158Y209295D02*
X297555D01*
X338371Y207062D02*
X343914D01*
X338107Y207327D02*
X338371Y207062D01*
X337713Y197090D02*
X358973D01*
Y206933D01*
X141385Y197613D02*
Y207062D01*
X149032D01*
X141256Y197484D02*
X141385Y197613D01*
X147752Y190791D02*
X147949Y190594D01*
X358973Y206933D02*
Y217169D01*
X385351Y209295D02*
X390863D01*
X352772Y207062D02*
X352901Y206933D01*
X358973D01*
X385351Y209295D02*
X385351Y209295D01*
X364091Y186461D02*
X364485Y186854D01*
X364091Y164413D02*
Y186461D01*
X364166Y164489D02*
X378264D01*
X364091Y164413D02*
X364166Y164489D01*
X248945Y206933D02*
X249074Y207062D01*
D57*
X423000Y182187D02*
Y193000D01*
X417133Y197422D02*
X423000D01*
X400000Y205500D02*
X423000D01*
Y197422D02*
Y205500D01*
X423108D01*
X400000D02*
Y226500D01*
X423000Y193000D02*
Y197422D01*
X417133Y182187D02*
X423000D01*
X334000Y226500D02*
Y226854D01*
X319949Y209422D02*
X325500D01*
X325508Y199008D02*
Y205500D01*
X325500Y209422D02*
Y226854D01*
Y205500D02*
Y209422D01*
X228000Y194824D02*
Y209166D01*
Y226854D01*
X227743Y209422D02*
X228000Y209166D01*
X8150Y164000D02*
X28707D01*
X57000D02*
Y174650D01*
X42205Y164000D02*
X57000D01*
X26654Y185500D02*
Y203232D01*
Y185500D02*
X67831D01*
X90611Y164000D02*
X105429D01*
Y174650D01*
X57000D02*
X105429D01*
X8150Y161000D02*
Y161500D01*
X105429Y195122D02*
Y212268D01*
X93000D02*
X105429D01*
X93000Y185500D02*
Y195732D01*
X86669Y185500D02*
X93000D01*
X105429Y174650D02*
Y195122D01*
X325500Y199000D02*
X325508Y199008D01*
X325500Y194187D02*
Y199000D01*
X227743Y194567D02*
X228000Y194824D01*
X319949Y194187D02*
X325500D01*
X220059Y194567D02*
X227743D01*
X133000Y212445D02*
Y226854D01*
X105823Y194728D02*
X114878D01*
X105429Y195122D02*
X105823Y194728D01*
X220059Y209422D02*
X227743D01*
D58*
X334000Y226854D02*
X400000D01*
Y226500D02*
Y226854D01*
X325500D02*
X334000D01*
X234957D02*
X325500D01*
X228000D02*
X234957D01*
X133000D02*
X228000D01*
X8150Y161500D02*
Y215043D01*
Y148665D02*
X74500D01*
Y162980D02*
X75520Y164000D01*
X74500Y148665D02*
Y162980D01*
X8150Y148665D02*
Y161000D01*
X7402Y215949D02*
X26654D01*
Y226854D02*
X133000D01*
X26654Y216146D02*
Y226854D01*
D59*
X127500Y150339D02*
X192984D01*
X256456Y167436D02*
X262910D01*
X212500Y150500D02*
X262910D01*
Y167169D01*
Y150500D02*
X271146D01*
X358579Y150579D02*
Y167169D01*
X358500Y150500D02*
X358579Y150579D01*
X286500Y150500D02*
X358500D01*
X127500Y150339D02*
Y173862D01*
X105429Y174650D02*
X127500D01*
X352350Y167169D02*
X358579D01*
D60*
X332000Y78500D02*
D03*
X344500D02*
D03*
X356500D02*
D03*
X368500D02*
D03*
D61*
X184646Y137878D02*
D03*
Y47878D02*
D03*
X174646Y137878D02*
D03*
Y47878D02*
D03*
X164646Y137878D02*
D03*
Y47878D02*
D03*
X154646Y137878D02*
D03*
Y47878D02*
D03*
X144646Y137878D02*
D03*
Y47878D02*
D03*
X134646Y137878D02*
D03*
Y47878D02*
D03*
X124646Y137878D02*
D03*
Y47878D02*
D03*
X114646Y137878D02*
D03*
Y47878D02*
D03*
X104646Y137878D02*
D03*
Y47878D02*
D03*
X94646Y137878D02*
D03*
Y47878D02*
D03*
X84646Y137878D02*
D03*
Y47878D02*
D03*
X74646Y137878D02*
D03*
Y47878D02*
D03*
X64646Y137878D02*
D03*
Y47878D02*
D03*
X54646Y137878D02*
D03*
Y47878D02*
D03*
X44646Y137878D02*
D03*
Y47878D02*
D03*
X34646Y137878D02*
D03*
D62*
Y47878D02*
D03*
D63*
X101981Y15098D02*
D03*
X81981D02*
D03*
X91981D02*
D03*
X111981D02*
D03*
X121981D02*
D03*
X131981D02*
D03*
X141981D02*
D03*
X151981D02*
D03*
X161981D02*
D03*
X171981D02*
D03*
X181981D02*
D03*
X191981D02*
D03*
X201981D02*
D03*
X211981D02*
D03*
X221981D02*
D03*
X231981D02*
D03*
X241981D02*
D03*
X251981D02*
D03*
X261981D02*
D03*
X102000Y30000D02*
D03*
X82000D02*
D03*
X92000D02*
D03*
X112000D02*
D03*
X122000D02*
D03*
X132000D02*
D03*
X142000D02*
D03*
X152000D02*
D03*
X162000D02*
D03*
X172000D02*
D03*
X182000D02*
D03*
X192000D02*
D03*
X202000D02*
D03*
X212000D02*
D03*
X222000D02*
D03*
X232000D02*
D03*
X242000D02*
D03*
X252000D02*
D03*
X262000D02*
D03*
X410748Y30161D02*
D03*
X375672Y30279D02*
D03*
Y40279D02*
D03*
X385672Y30279D02*
D03*
Y40279D02*
D03*
X395672Y30279D02*
D03*
X340596Y30398D02*
D03*
Y40398D02*
D03*
X350596Y30398D02*
D03*
Y40398D02*
D03*
X360596Y30398D02*
D03*
X325521Y30279D02*
D03*
X315521Y40279D02*
D03*
Y30279D02*
D03*
D64*
X71981Y15098D02*
D03*
X72000Y30000D02*
D03*
X420748Y30161D02*
D03*
X395672Y40279D02*
D03*
X360596Y40398D02*
D03*
X325521Y40279D02*
D03*
D65*
X8150Y215043D02*
D03*
D66*
X26654Y226854D02*
D03*
D67*
Y203232D02*
D03*
D68*
X416000Y220000D02*
D03*
X417000Y65000D02*
D03*
X15500Y33500D02*
D03*
X67500Y207500D02*
D03*
D69*
X317000Y78000D02*
D03*
X271500Y89000D02*
D03*
X142737Y167436D02*
D03*
X267500Y37000D02*
D03*
X279000D02*
D03*
X290500D02*
D03*
D70*
X210003Y98583D02*
D03*
X209843Y94286D02*
D03*
X209500Y90000D02*
D03*
X142000Y21500D02*
D03*
X102000Y24340D02*
D03*
X188000Y60000D02*
D03*
X171500Y42500D02*
D03*
X119500Y43000D02*
D03*
X106500Y89500D02*
D03*
X109000Y85500D02*
D03*
X112500Y83000D02*
D03*
X138000Y133000D02*
D03*
X104500Y129500D02*
D03*
Y115500D02*
D03*
X103459Y62041D02*
D03*
X124500Y129500D02*
D03*
X209500Y77500D02*
D03*
X211998Y81000D02*
D03*
X199000Y77500D02*
D03*
X196502Y81000D02*
D03*
X199000Y85500D02*
D03*
X150000Y85800D02*
D03*
Y81500D02*
D03*
X199000Y94200D02*
D03*
Y89900D02*
D03*
Y98500D02*
D03*
X209500Y85500D02*
D03*
X199500Y71500D02*
D03*
X153000Y78000D02*
D03*
X80000Y77000D02*
D03*
X157017Y74967D02*
D03*
X70000Y73500D02*
D03*
X154500Y111500D02*
D03*
X136059Y81500D02*
D03*
X127000Y65000D02*
D03*
X112500Y71500D02*
D03*
X191695Y68500D02*
D03*
X154500Y62000D02*
D03*
X106500Y59000D02*
D03*
X109000Y68500D02*
D03*
X160000Y65000D02*
D03*
X124000Y98000D02*
D03*
X133000Y56000D02*
D03*
X93445Y53245D02*
D03*
X139500Y56000D02*
D03*
X157000Y108000D02*
D03*
X151000Y114000D02*
D03*
X131500Y133000D02*
D03*
X75000Y80000D02*
D03*
X147000Y116000D02*
D03*
X126500Y101500D02*
D03*
X133059Y108877D02*
D03*
X136059Y104500D02*
D03*
X131197Y112753D02*
D03*
X85000Y110000D02*
D03*
D71*
X402500Y55500D02*
D03*
X364500D02*
D03*
X317500Y71000D02*
D03*
X197500Y158877D02*
D03*
D72*
X278264Y70906D02*
D03*
X349524Y114020D02*
D03*
X271146Y150500D02*
D03*
X286500D02*
D03*
X212500D02*
D03*
X192984Y150323D02*
D03*
X134000Y181000D02*
D03*
X118000Y84000D02*
D03*
X218422Y171106D02*
D03*
X192437Y169532D02*
D03*
X248343Y159295D02*
D03*
X311024Y86461D02*
D03*
X196850Y117563D02*
D03*
X395669Y89610D02*
D03*
X305430Y164020D02*
D03*
X288107Y114020D02*
D03*
Y93547D02*
D03*
X375508Y100240D02*
D03*
X292756Y164489D02*
D03*
X392831Y164413D02*
D03*
X327083Y113823D02*
D03*
X376689Y119138D02*
D03*
X416059Y150964D02*
D03*
X422752Y114020D02*
D03*
X248343D02*
D03*
X349918Y159295D02*
D03*
X297555Y209295D02*
D03*
X315666Y171894D02*
D03*
X157004Y197484D02*
D03*
X194012Y209295D02*
D03*
X400311Y115201D02*
D03*
X299524Y112839D02*
D03*
D73*
X228000Y199000D02*
D03*
Y206500D02*
D03*
X325500Y199000D02*
D03*
X325508Y205500D02*
D03*
X423087Y185502D02*
D03*
X423000Y193000D02*
D03*
D74*
X336500Y144000D02*
D03*
X412500Y145000D02*
D03*
X396271Y144803D02*
D03*
X134000Y167500D02*
D03*
X210000Y117500D02*
D03*
X273000Y139000D02*
D03*
X283500D02*
D03*
X227477Y171000D02*
D03*
X337000Y160500D02*
D03*
X235745Y172681D02*
D03*
X252500Y198000D02*
D03*
M02*
