M48
;Layer_Color=9474304
;FILE_FORMAT=2:5
INCH,TZ
;TYPE=PLATED
T01F00S00C0.01800
T02F00S00C0.02600
T03F00S00C0.02800
T05F00S00C0.04000
T06F00S00C0.04213
T07F00S00C0.12598
%
T01
X102000Y24340
X119500Y43000
X133000Y56000
X139500
X154500Y62000
X153000Y78000
X150000Y81500
Y85800
X136059Y81500
Y104500
X133059Y108877
X131197Y112753
X126500Y101500
X124000Y98000
X106500Y89500
X109000Y85500
X112500Y83000
Y71500
X109000Y68500
X106500Y59000
X103459Y62041
X93445Y53245
X80000Y77000
X75000Y80000
X70000Y73500
X85000Y110000
X104500Y115500
X147000Y116000
X151000Y114000
X154500Y111500
X127000Y65000
X142000Y21500
X171500Y42500
X188000Y60000
X191695Y68500
X199500Y71500
X199000Y77500
X196502Y81000
X199000Y85500
Y89900
Y94200
Y98500
X210003Y98583
X209843Y94286
X209500Y90000
Y85500
X211998Y81000
X209500Y77500
X157017Y74967
X160000Y65000
X157000Y108000
X271500Y89000
X267500Y37000
X279000
X290500
X317000Y78000
X138000Y133000
X131500
X124500Y129500
X104500
X142737Y167436
T02
X317500Y71000
X364500Y55500
X402500
X197500Y158877
T03
X118000Y84000
X248343Y114020
X288107
X299524Y112839
X288107Y93547
X311024Y86461
X278264Y70906
X327083Y113823
X349524Y114020
X375508Y100240
X395669Y89610
X400311Y115201
X422752Y114020
X412500Y145000
X416059Y150964
X396271Y144803
X392831Y164413
X349918Y159295
X337000Y160500
X336500Y144000
X315666Y171894
X325500Y199000
X325508Y205500
X423000Y193000
X423087Y185502
X376689Y119138
X283500Y139000
X273000
X271146Y150500
X286500
X292756Y164489
X305430Y164020
X297555Y209295
X252500Y198000
X228000Y199000
Y206500
X227477Y171000
X218422Y171106
X235745Y172681
X248343Y159295
X212500Y150500
X192984Y150323
X192437Y169532
X194012Y209295
X157004Y197484
X196850Y117563
X210000Y117500
X134000Y167500
Y181000
T05
X34646Y47878
X44646
X54646
X64646
X74646
X84646
X94646
X104646
X114646
X124646
X134646
X144646
X154646
X164646
X174646
X184646
X332000Y78500
X344500
X356500
X368500
X184646Y137878
X174646
X164646
X154646
X144646
X134646
X124646
X114646
X104646
X94646
X84646
X74646
X64646
X54646
X44646
X34646
T06
X71981Y15098
X81981
X91981
X101981
X111981
X121981
X131981
X141981
X151981
X152000Y30000
X142000
X132000
X122000
X112000
X102000
X92000
X82000
X72000
X162000
X172000
X182000
X192000
X202000
X212000
X222000
X232000
X242000
X252000
X262000
X261981Y15098
X251981
X241981
X231981
X221981
X211981
X201981
X191981
X181981
X171981
X161981
X315521Y30279
X325521
Y40279
X315521
X340596Y40398
Y30398
X350596
Y40398
X360596
Y30398
X375672Y30279
Y40279
X385672
Y30279
X395672
Y40279
X410748Y30161
X420748
T07
X15500Y33500
X417000Y65000
X416000Y220000
X67500Y207500
M30
