G04*
G04 #@! TF.GenerationSoftware,Altium Limited,Altium Designer,24.4.1 (13)*
G04*
G04 Layer_Color=8388736*
%FSLAX25Y25*%
%MOIN*%
G70*
G04*
G04 #@! TF.SameCoordinates,DFA012FA-E2B2-4B6A-99E0-2456AF4758C4*
G04*
G04*
G04 #@! TF.FilePolarity,Negative*
G04*
G01*
G75*
%ADD15R,0.06115X0.06706*%
%ADD16R,0.06706X0.02572*%
%ADD17R,0.14304X0.06115*%
%ADD18R,0.05721X0.03162*%
%ADD19R,0.06706X0.06115*%
%ADD20R,0.03950X0.03950*%
%ADD21R,0.05209X0.07572*%
%ADD22R,0.03123X0.02572*%
%ADD23R,0.05918X0.06706*%
%ADD24R,0.12414X0.08083*%
%ADD25R,0.05131X0.03162*%
%ADD26R,0.04343X0.04540*%
%ADD27R,0.04934X0.02965*%
%ADD28R,0.07493X0.23241*%
%ADD29R,0.07099X0.07887*%
%ADD30C,0.08800*%
%ADD31C,0.06800*%
%ADD32R,0.06800X0.06800*%
%ADD33C,0.07119*%
%ADD34R,0.07119X0.07119*%
%ADD35O,0.09658X0.18517*%
%ADD36O,0.18517X0.09658*%
%ADD37O,0.20485X0.10642*%
%ADD38C,0.13398*%
D15*
X409251Y171231D02*
D03*
X416732D02*
D03*
X220158Y179231D02*
D03*
X212677D02*
D03*
X212677Y163589D02*
D03*
X220158D02*
D03*
X409251Y159589D02*
D03*
X416732D02*
D03*
X312567Y163998D02*
D03*
X320047D02*
D03*
X320047Y179231D02*
D03*
X312567D02*
D03*
D16*
X118307Y117465D02*
D03*
Y114906D02*
D03*
Y112346D02*
D03*
Y109787D02*
D03*
Y107228D02*
D03*
Y104669D02*
D03*
Y102110D02*
D03*
Y99551D02*
D03*
Y96992D02*
D03*
Y94433D02*
D03*
Y91874D02*
D03*
Y89315D02*
D03*
X141535D02*
D03*
Y91874D02*
D03*
Y94433D02*
D03*
Y96992D02*
D03*
Y99551D02*
D03*
Y102110D02*
D03*
Y104669D02*
D03*
Y107228D02*
D03*
Y109787D02*
D03*
Y112346D02*
D03*
Y114906D02*
D03*
Y117465D02*
D03*
D17*
X93000Y212268D02*
D03*
Y195732D02*
D03*
D18*
X283319Y107917D02*
D03*
Y104177D02*
D03*
Y100437D02*
D03*
X293162D02*
D03*
Y107917D02*
D03*
X283319Y127602D02*
D03*
Y123862D02*
D03*
Y120122D02*
D03*
X293162D02*
D03*
Y127602D02*
D03*
D19*
X253500Y80240D02*
D03*
Y72760D02*
D03*
X265000Y80240D02*
D03*
Y72760D02*
D03*
X241000Y80240D02*
D03*
Y72760D02*
D03*
D20*
X290500Y47650D02*
D03*
Y41350D02*
D03*
X279000Y47650D02*
D03*
Y41350D02*
D03*
X267500Y47650D02*
D03*
Y41350D02*
D03*
D21*
X67831Y185500D02*
D03*
X84169D02*
D03*
D22*
X187418Y164583D02*
D03*
X178560D02*
D03*
X352772Y207062D02*
D03*
X343914D02*
D03*
X149032D02*
D03*
X157890D02*
D03*
X378264Y164489D02*
D03*
X387122D02*
D03*
X278280Y164489D02*
D03*
X287138D02*
D03*
X257932Y207062D02*
D03*
X249074D02*
D03*
D23*
X186020Y209422D02*
D03*
X178540D02*
D03*
X352083Y167436D02*
D03*
X344603D02*
D03*
X256456D02*
D03*
X248976D02*
D03*
X385351Y209295D02*
D03*
X377870D02*
D03*
X312468Y209422D02*
D03*
X319949D02*
D03*
X287158Y209295D02*
D03*
X279678D02*
D03*
X156804Y167436D02*
D03*
X149323D02*
D03*
X212579Y209422D02*
D03*
X220059D02*
D03*
X212579Y194567D02*
D03*
X220059D02*
D03*
X409653Y197422D02*
D03*
X417133D02*
D03*
X265272Y123862D02*
D03*
X257792D02*
D03*
X265272Y104177D02*
D03*
X257792D02*
D03*
X409350Y123862D02*
D03*
X416830D02*
D03*
X409153Y104177D02*
D03*
X416633D02*
D03*
X364353D02*
D03*
X356873D02*
D03*
X364353Y123862D02*
D03*
X356873D02*
D03*
X311926D02*
D03*
X319406D02*
D03*
X311926Y103783D02*
D03*
X319406D02*
D03*
X312468Y194187D02*
D03*
X319949D02*
D03*
X409653Y182187D02*
D03*
X417133D02*
D03*
D24*
X75520Y164000D02*
D03*
X90480D02*
D03*
X27520D02*
D03*
X42480D02*
D03*
D25*
X158973Y190594D02*
D03*
Y186854D02*
D03*
Y183114D02*
D03*
X147949D02*
D03*
Y186854D02*
D03*
Y190594D02*
D03*
X258228Y191511D02*
D03*
Y187771D02*
D03*
Y184031D02*
D03*
X247204D02*
D03*
Y187771D02*
D03*
Y191511D02*
D03*
X353855D02*
D03*
Y187771D02*
D03*
Y184031D02*
D03*
X342831D02*
D03*
Y187771D02*
D03*
Y191511D02*
D03*
D26*
X126197Y212445D02*
D03*
X113796D02*
D03*
D27*
X382595Y107917D02*
D03*
Y104177D02*
D03*
Y100437D02*
D03*
X392831D02*
D03*
Y107917D02*
D03*
X382595Y127602D02*
D03*
Y123862D02*
D03*
Y120122D02*
D03*
X392831D02*
D03*
Y127602D02*
D03*
D28*
X373835Y185673D02*
D03*
X391552D02*
D03*
X274559D02*
D03*
X292276D02*
D03*
X174130D02*
D03*
X191847D02*
D03*
D29*
X114878Y194728D02*
D03*
X125902D02*
D03*
D30*
X332000Y78500D02*
D03*
X344500D02*
D03*
X356500D02*
D03*
X368500D02*
D03*
D31*
X184646Y137878D02*
D03*
Y47878D02*
D03*
X174646Y137878D02*
D03*
Y47878D02*
D03*
X164646Y137878D02*
D03*
Y47878D02*
D03*
X154646Y137878D02*
D03*
Y47878D02*
D03*
X144646Y137878D02*
D03*
Y47878D02*
D03*
X134646Y137878D02*
D03*
Y47878D02*
D03*
X124646Y137878D02*
D03*
Y47878D02*
D03*
X114646Y137878D02*
D03*
Y47878D02*
D03*
X104646Y137878D02*
D03*
Y47878D02*
D03*
X94646Y137878D02*
D03*
Y47878D02*
D03*
X84646Y137878D02*
D03*
Y47878D02*
D03*
X74646Y137878D02*
D03*
Y47878D02*
D03*
X64646Y137878D02*
D03*
Y47878D02*
D03*
X54646Y137878D02*
D03*
Y47878D02*
D03*
X44646Y137878D02*
D03*
Y47878D02*
D03*
X34646Y137878D02*
D03*
D32*
Y47878D02*
D03*
D33*
X101981Y15098D02*
D03*
X81981D02*
D03*
X91981D02*
D03*
X111981D02*
D03*
X121981D02*
D03*
X131981D02*
D03*
X141981D02*
D03*
X151981D02*
D03*
X161981D02*
D03*
X171981D02*
D03*
X181981D02*
D03*
X191981D02*
D03*
X201981D02*
D03*
X211981D02*
D03*
X221981D02*
D03*
X231981D02*
D03*
X241981D02*
D03*
X251981D02*
D03*
X261981D02*
D03*
X102000Y30000D02*
D03*
X82000D02*
D03*
X92000D02*
D03*
X112000D02*
D03*
X122000D02*
D03*
X132000D02*
D03*
X142000D02*
D03*
X152000D02*
D03*
X162000D02*
D03*
X172000D02*
D03*
X182000D02*
D03*
X192000D02*
D03*
X202000D02*
D03*
X212000D02*
D03*
X222000D02*
D03*
X232000D02*
D03*
X242000D02*
D03*
X252000D02*
D03*
X262000D02*
D03*
X410748Y30161D02*
D03*
X375672Y30279D02*
D03*
Y40279D02*
D03*
X385672Y30279D02*
D03*
Y40279D02*
D03*
X395672Y30279D02*
D03*
X340596Y30398D02*
D03*
Y40398D02*
D03*
X350596Y30398D02*
D03*
Y40398D02*
D03*
X360596Y30398D02*
D03*
X325521Y30279D02*
D03*
X315521Y40279D02*
D03*
Y30279D02*
D03*
D34*
X71981Y15098D02*
D03*
X72000Y30000D02*
D03*
X420748Y30161D02*
D03*
X395672Y40279D02*
D03*
X360596Y40398D02*
D03*
X325521Y40279D02*
D03*
D35*
X8150Y215043D02*
D03*
D36*
X26654Y226854D02*
D03*
D37*
Y203232D02*
D03*
D38*
X416000Y220000D02*
D03*
X417000Y65000D02*
D03*
X15500Y33500D02*
D03*
X67500Y207500D02*
D03*
M02*
