G04*
G04 #@! TF.GenerationSoftware,Altium Limited,Altium Designer,24.4.1 (13)*
G04*
G04 Layer_Color=255*
%FSLAX25Y25*%
%MOIN*%
G70*
G04*
G04 #@! TF.SameCoordinates,DFA012FA-E2B2-4B6A-99E0-2456AF4758C4*
G04*
G04*
G04 #@! TF.FilePolarity,Positive*
G04*
G01*
G75*
%ADD60C,0.08000*%
%ADD61C,0.06000*%
%ADD62R,0.06000X0.06000*%
%ADD63C,0.06319*%
%ADD64R,0.06319X0.06319*%
%ADD65O,0.08858X0.17717*%
%ADD66O,0.17717X0.08858*%
%ADD67O,0.19685X0.09843*%
%ADD68C,0.12598*%
D60*
X332000Y78500D02*
D03*
X344500D02*
D03*
X356500D02*
D03*
X368500D02*
D03*
D61*
X184646Y137878D02*
D03*
Y47878D02*
D03*
X174646Y137878D02*
D03*
Y47878D02*
D03*
X164646Y137878D02*
D03*
Y47878D02*
D03*
X154646Y137878D02*
D03*
Y47878D02*
D03*
X144646Y137878D02*
D03*
Y47878D02*
D03*
X134646Y137878D02*
D03*
Y47878D02*
D03*
X124646Y137878D02*
D03*
Y47878D02*
D03*
X114646Y137878D02*
D03*
Y47878D02*
D03*
X104646Y137878D02*
D03*
Y47878D02*
D03*
X94646Y137878D02*
D03*
Y47878D02*
D03*
X84646Y137878D02*
D03*
Y47878D02*
D03*
X74646Y137878D02*
D03*
Y47878D02*
D03*
X64646Y137878D02*
D03*
Y47878D02*
D03*
X54646Y137878D02*
D03*
Y47878D02*
D03*
X44646Y137878D02*
D03*
Y47878D02*
D03*
X34646Y137878D02*
D03*
D62*
Y47878D02*
D03*
D63*
X101981Y15098D02*
D03*
X81981D02*
D03*
X91981D02*
D03*
X111981D02*
D03*
X121981D02*
D03*
X131981D02*
D03*
X141981D02*
D03*
X151981D02*
D03*
X161981D02*
D03*
X171981D02*
D03*
X181981D02*
D03*
X191981D02*
D03*
X201981D02*
D03*
X211981D02*
D03*
X221981D02*
D03*
X231981D02*
D03*
X241981D02*
D03*
X251981D02*
D03*
X261981D02*
D03*
X102000Y30000D02*
D03*
X82000D02*
D03*
X92000D02*
D03*
X112000D02*
D03*
X122000D02*
D03*
X132000D02*
D03*
X142000D02*
D03*
X152000D02*
D03*
X162000D02*
D03*
X172000D02*
D03*
X182000D02*
D03*
X192000D02*
D03*
X202000D02*
D03*
X212000D02*
D03*
X222000D02*
D03*
X232000D02*
D03*
X242000D02*
D03*
X252000D02*
D03*
X262000D02*
D03*
X410748Y30161D02*
D03*
X375672Y30279D02*
D03*
Y40279D02*
D03*
X385672Y30279D02*
D03*
Y40279D02*
D03*
X395672Y30279D02*
D03*
X340596Y30398D02*
D03*
Y40398D02*
D03*
X350596Y30398D02*
D03*
Y40398D02*
D03*
X360596Y30398D02*
D03*
X325521Y30279D02*
D03*
X315521Y40279D02*
D03*
Y30279D02*
D03*
D64*
X71981Y15098D02*
D03*
X72000Y30000D02*
D03*
X420748Y30161D02*
D03*
X395672Y40279D02*
D03*
X360596Y40398D02*
D03*
X325521Y40279D02*
D03*
D65*
X8150Y215043D02*
D03*
D66*
X26654Y226854D02*
D03*
D67*
Y203232D02*
D03*
D68*
X416000Y220000D02*
D03*
X417000Y65000D02*
D03*
X15500Y33500D02*
D03*
X67500Y207500D02*
D03*
M02*
