G04*
G04 #@! TF.GenerationSoftware,Altium Limited,Altium Designer,24.4.1 (13)*
G04*
G04 Layer_Color=32896*
%FSLAX25Y25*%
%MOIN*%
G70*
G04*
G04 #@! TF.SameCoordinates,DFA012FA-E2B2-4B6A-99E0-2456AF4758C4*
G04*
G04*
G04 #@! TF.FilePolarity,Positive*
G04*
G01*
G75*
%ADD14C,0.01000*%
D14*
X395500Y213166D02*
Y220164D01*
X392001D01*
X390835Y218998D01*
Y216665D01*
X392001Y215499D01*
X395500D01*
X388502Y213166D02*
Y217831D01*
X386170Y220164D01*
X383837Y217831D01*
Y213166D01*
Y216665D01*
X388502D01*
X381505Y212000D02*
X376839D01*
X374507Y213166D02*
Y220164D01*
X371008D01*
X369842Y218998D01*
Y216665D01*
X371008Y215499D01*
X374507D01*
X367509Y220164D02*
Y213166D01*
X365177Y215499D01*
X362844Y213166D01*
Y220164D01*
X360511Y213166D02*
Y220164D01*
X357012D01*
X355846Y218998D01*
Y216665D01*
X357012Y215499D01*
X360511D01*
X358179D02*
X355846Y213166D01*
X353514Y212000D02*
X348848D01*
X346516Y213166D02*
Y220164D01*
X343017D01*
X341851Y218998D01*
Y216665D01*
X343017Y215499D01*
X346516D01*
X344183D02*
X341851Y213166D01*
X339518Y218998D02*
X338352Y220164D01*
X336019D01*
X334853Y218998D01*
Y214333D01*
X336019Y213166D01*
X338352D01*
X339518Y214333D01*
Y218998D01*
X332520D02*
X331354Y220164D01*
X329022D01*
X327855Y218998D01*
Y214333D01*
X329022Y213166D01*
X331354D01*
X332520Y214333D01*
Y218998D01*
M02*
