G04*
G04 #@! TF.GenerationSoftware,Altium Limited,Altium Designer,24.4.1 (13)*
G04*
G04 Layer_Color=255*
%FSLAX25Y25*%
%MOIN*%
G70*
G04*
G04 #@! TF.SameCoordinates,DFA012FA-E2B2-4B6A-99E0-2456AF4758C4*
G04*
G04*
G04 #@! TF.FilePolarity,Positive*
G04*
G01*
G75*
%ADD39R,0.05315X0.05906*%
%ADD40R,0.05906X0.01772*%
%ADD41R,0.13504X0.05315*%
%ADD42R,0.04921X0.02362*%
%ADD43R,0.05906X0.05315*%
%ADD44R,0.03150X0.03150*%
%ADD45R,0.04409X0.06772*%
%ADD46R,0.02323X0.01772*%
%ADD47R,0.05118X0.05906*%
%ADD48R,0.11614X0.07284*%
%ADD49R,0.04331X0.02362*%
%ADD50R,0.03543X0.03740*%
%ADD51R,0.04134X0.02165*%
%ADD52R,0.06693X0.22441*%
%ADD53R,0.06299X0.07087*%
%ADD60C,0.08000*%
%ADD61C,0.06000*%
%ADD62R,0.06000X0.06000*%
%ADD63C,0.06319*%
%ADD64R,0.06319X0.06319*%
%ADD65O,0.08858X0.17717*%
%ADD66O,0.17717X0.08858*%
%ADD67O,0.19685X0.09843*%
%ADD68C,0.12598*%
D39*
X409251Y171231D02*
D03*
X416732D02*
D03*
X220158Y179231D02*
D03*
X212677D02*
D03*
X212677Y163589D02*
D03*
X220158D02*
D03*
X409251Y159589D02*
D03*
X416732D02*
D03*
X312567Y163998D02*
D03*
X320047D02*
D03*
X320047Y179231D02*
D03*
X312567D02*
D03*
D40*
X118307Y117465D02*
D03*
Y114906D02*
D03*
Y112346D02*
D03*
Y109787D02*
D03*
Y107228D02*
D03*
Y104669D02*
D03*
Y102110D02*
D03*
Y99551D02*
D03*
Y96992D02*
D03*
Y94433D02*
D03*
Y91874D02*
D03*
Y89315D02*
D03*
X141535D02*
D03*
Y91874D02*
D03*
Y94433D02*
D03*
Y96992D02*
D03*
Y99551D02*
D03*
Y102110D02*
D03*
Y104669D02*
D03*
Y107228D02*
D03*
Y109787D02*
D03*
Y112346D02*
D03*
Y114906D02*
D03*
Y117465D02*
D03*
D41*
X93000Y212268D02*
D03*
Y195732D02*
D03*
D42*
X283319Y107917D02*
D03*
Y104177D02*
D03*
Y100437D02*
D03*
X293162D02*
D03*
Y107917D02*
D03*
X283319Y127602D02*
D03*
Y123862D02*
D03*
Y120122D02*
D03*
X293162D02*
D03*
Y127602D02*
D03*
D43*
X253500Y80240D02*
D03*
Y72760D02*
D03*
X265000Y80240D02*
D03*
Y72760D02*
D03*
X241000Y80240D02*
D03*
Y72760D02*
D03*
D44*
X290500Y47650D02*
D03*
Y41350D02*
D03*
X279000Y47650D02*
D03*
Y41350D02*
D03*
X267500Y47650D02*
D03*
Y41350D02*
D03*
D45*
X67831Y185500D02*
D03*
X84169D02*
D03*
D46*
X187418Y164583D02*
D03*
X178560D02*
D03*
X352772Y207062D02*
D03*
X343914D02*
D03*
X149032D02*
D03*
X157890D02*
D03*
X378264Y164489D02*
D03*
X387122D02*
D03*
X278280Y164489D02*
D03*
X287138D02*
D03*
X257932Y207062D02*
D03*
X249074D02*
D03*
D47*
X186020Y209422D02*
D03*
X178540D02*
D03*
X352083Y167436D02*
D03*
X344603D02*
D03*
X256456D02*
D03*
X248976D02*
D03*
X385351Y209295D02*
D03*
X377870D02*
D03*
X312468Y209422D02*
D03*
X319949D02*
D03*
X287158Y209295D02*
D03*
X279678D02*
D03*
X156804Y167436D02*
D03*
X149323D02*
D03*
X212579Y209422D02*
D03*
X220059D02*
D03*
X212579Y194567D02*
D03*
X220059D02*
D03*
X409653Y197422D02*
D03*
X417133D02*
D03*
X265272Y123862D02*
D03*
X257792D02*
D03*
X265272Y104177D02*
D03*
X257792D02*
D03*
X409350Y123862D02*
D03*
X416830D02*
D03*
X409153Y104177D02*
D03*
X416633D02*
D03*
X364353D02*
D03*
X356873D02*
D03*
X364353Y123862D02*
D03*
X356873D02*
D03*
X311926D02*
D03*
X319406D02*
D03*
X311926Y103783D02*
D03*
X319406D02*
D03*
X312468Y194187D02*
D03*
X319949D02*
D03*
X409653Y182187D02*
D03*
X417133D02*
D03*
D48*
X75520Y164000D02*
D03*
X90480D02*
D03*
X27520D02*
D03*
X42480D02*
D03*
D49*
X158973Y190594D02*
D03*
Y186854D02*
D03*
Y183114D02*
D03*
X147949D02*
D03*
Y186854D02*
D03*
Y190594D02*
D03*
X258228Y191511D02*
D03*
Y187771D02*
D03*
Y184031D02*
D03*
X247204D02*
D03*
Y187771D02*
D03*
Y191511D02*
D03*
X353855D02*
D03*
Y187771D02*
D03*
Y184031D02*
D03*
X342831D02*
D03*
Y187771D02*
D03*
Y191511D02*
D03*
D50*
X126197Y212445D02*
D03*
X113796D02*
D03*
D51*
X382595Y107917D02*
D03*
Y104177D02*
D03*
Y100437D02*
D03*
X392831D02*
D03*
Y107917D02*
D03*
X382595Y127602D02*
D03*
Y123862D02*
D03*
Y120122D02*
D03*
X392831D02*
D03*
Y127602D02*
D03*
D52*
X373835Y185673D02*
D03*
X391552D02*
D03*
X274559D02*
D03*
X292276D02*
D03*
X174130D02*
D03*
X191847D02*
D03*
D53*
X114878Y194728D02*
D03*
X125902D02*
D03*
D60*
X332000Y78500D02*
D03*
X344500D02*
D03*
X356500D02*
D03*
X368500D02*
D03*
D61*
X184646Y137878D02*
D03*
Y47878D02*
D03*
X174646Y137878D02*
D03*
Y47878D02*
D03*
X164646Y137878D02*
D03*
Y47878D02*
D03*
X154646Y137878D02*
D03*
Y47878D02*
D03*
X144646Y137878D02*
D03*
Y47878D02*
D03*
X134646Y137878D02*
D03*
Y47878D02*
D03*
X124646Y137878D02*
D03*
Y47878D02*
D03*
X114646Y137878D02*
D03*
Y47878D02*
D03*
X104646Y137878D02*
D03*
Y47878D02*
D03*
X94646Y137878D02*
D03*
Y47878D02*
D03*
X84646Y137878D02*
D03*
Y47878D02*
D03*
X74646Y137878D02*
D03*
Y47878D02*
D03*
X64646Y137878D02*
D03*
Y47878D02*
D03*
X54646Y137878D02*
D03*
Y47878D02*
D03*
X44646Y137878D02*
D03*
Y47878D02*
D03*
X34646Y137878D02*
D03*
D62*
Y47878D02*
D03*
D63*
X101981Y15098D02*
D03*
X81981D02*
D03*
X91981D02*
D03*
X111981D02*
D03*
X121981D02*
D03*
X131981D02*
D03*
X141981D02*
D03*
X151981D02*
D03*
X161981D02*
D03*
X171981D02*
D03*
X181981D02*
D03*
X191981D02*
D03*
X201981D02*
D03*
X211981D02*
D03*
X221981D02*
D03*
X231981D02*
D03*
X241981D02*
D03*
X251981D02*
D03*
X261981D02*
D03*
X102000Y30000D02*
D03*
X82000D02*
D03*
X92000D02*
D03*
X112000D02*
D03*
X122000D02*
D03*
X132000D02*
D03*
X142000D02*
D03*
X152000D02*
D03*
X162000D02*
D03*
X172000D02*
D03*
X182000D02*
D03*
X192000D02*
D03*
X202000D02*
D03*
X212000D02*
D03*
X222000D02*
D03*
X232000D02*
D03*
X242000D02*
D03*
X252000D02*
D03*
X262000D02*
D03*
X410748Y30161D02*
D03*
X375672Y30279D02*
D03*
Y40279D02*
D03*
X385672Y30279D02*
D03*
Y40279D02*
D03*
X395672Y30279D02*
D03*
X340596Y30398D02*
D03*
Y40398D02*
D03*
X350596Y30398D02*
D03*
Y40398D02*
D03*
X360596Y30398D02*
D03*
X325521Y30279D02*
D03*
X315521Y40279D02*
D03*
Y30279D02*
D03*
D64*
X71981Y15098D02*
D03*
X72000Y30000D02*
D03*
X420748Y30161D02*
D03*
X395672Y40279D02*
D03*
X360596Y40398D02*
D03*
X325521Y40279D02*
D03*
D65*
X8150Y215043D02*
D03*
D66*
X26654Y226854D02*
D03*
D67*
Y203232D02*
D03*
D68*
X416000Y220000D02*
D03*
X417000Y65000D02*
D03*
X15500Y33500D02*
D03*
X67500Y207500D02*
D03*
M02*
