G04*
G04 #@! TF.GenerationSoftware,Altium Limited,Altium Designer,24.4.1 (13)*
G04*
G04 Layer_Color=65535*
%FSLAX25Y25*%
%MOIN*%
G70*
G04*
G04 #@! TF.SameCoordinates,DFA012FA-E2B2-4B6A-99E0-2456AF4758C4*
G04*
G04*
G04 #@! TF.FilePolarity,Positive*
G04*
G01*
G75*
%ADD10C,0.00787*%
%ADD11C,0.01575*%
%ADD12C,0.00500*%
%ADD13C,0.00600*%
%ADD14C,0.01000*%
D10*
X35039Y40713D02*
G03*
X35039Y40713I-394J0D01*
G01*
X65170Y15098D02*
G03*
X65170Y15098I-394J0D01*
G01*
X65189Y30000D02*
G03*
X65189Y30000I-394J0D01*
G01*
X428346Y30161D02*
G03*
X428346Y30161I-394J0D01*
G01*
X403271Y40279D02*
G03*
X403271Y40279I-394J0D01*
G01*
X368195Y40398D02*
G03*
X368195Y40398I-394J0D01*
G01*
X333119Y40279D02*
G03*
X333119Y40279I-394J0D01*
G01*
X144012Y190791D02*
G03*
X144012Y190791I-394J0D01*
G01*
X243267Y191708D02*
G03*
X243267Y191708I-394J0D01*
G01*
X338894D02*
G03*
X338894Y191708I-394J0D01*
G01*
X122638Y118744D02*
X137205D01*
Y88035D02*
Y118744D01*
X122638Y88035D02*
X137205D01*
X122638D02*
Y118744D01*
X115354Y119728D02*
X121260D01*
X87016Y204000D02*
X98984D01*
X287158Y110083D02*
X289323D01*
Y98272D02*
Y110083D01*
X287158Y98272D02*
X289323D01*
X287158D02*
Y110083D01*
X280859D02*
X285780D01*
X287158Y129768D02*
X289323D01*
Y117957D02*
Y129768D01*
X287158Y117957D02*
X289323D01*
X287158D02*
Y129768D01*
X280859D02*
X285780D01*
X65626Y190421D02*
X83284D01*
X68717Y180579D02*
X83284D01*
X74535Y172465D02*
X87232D01*
X74535Y155535D02*
X96287D01*
X26535Y172465D02*
X39232D01*
X26535Y155535D02*
X48287D01*
X386040Y109886D02*
X389386D01*
Y98469D02*
Y109886D01*
X386040Y98469D02*
X389386D01*
X386040D02*
Y109886D01*
X380528Y109984D02*
X384662D01*
X386040Y129571D02*
X389386D01*
Y118154D02*
Y129571D01*
X386040Y118154D02*
X389386D01*
X386040D02*
Y129571D01*
X380528Y129669D02*
X384662D01*
D11*
X27441Y195358D02*
G03*
X27441Y195358I-787J0D01*
G01*
D12*
X152477Y192563D02*
G03*
X154445Y192563I984J222D01*
G01*
X251732Y193480D02*
G03*
X253700Y193480I984J222D01*
G01*
X347359D02*
G03*
X349327Y193480I984J222D01*
G01*
X408992Y174981D02*
X416992D01*
X408992Y167481D02*
X416992D01*
X3445Y128311D02*
X28445D01*
X3445Y57445D02*
Y128311D01*
Y57445D02*
X28445D01*
X232382Y138252D02*
X233957D01*
Y104197D02*
Y138252D01*
X232382Y104197D02*
X233957D01*
X232382Y81559D02*
X233957D01*
Y47504D02*
Y81559D01*
X232382Y47504D02*
X233957D01*
X28445Y42878D02*
X232382D01*
Y47504D01*
Y81559D02*
Y104197D01*
Y138252D02*
Y142878D01*
X28445D02*
X232382D01*
X28445Y128311D02*
Y142878D01*
Y42878D02*
Y57445D01*
X66981Y20098D02*
X266981D01*
Y10098D02*
Y20098D01*
X66981Y10098D02*
X266981D01*
X66981D02*
Y20098D01*
X67000Y35000D02*
X267000D01*
Y25000D02*
Y35000D01*
X67000Y25000D02*
X267000D01*
X67000D02*
Y35000D01*
X425748Y25161D02*
Y35161D01*
X405748D02*
X425748D01*
X405748Y25161D02*
Y35161D01*
Y25161D02*
X425748D01*
X400672Y25280D02*
Y45279D01*
X370672D02*
X400672D01*
X370672Y25280D02*
Y45279D01*
Y25280D02*
X400672D01*
X365596Y25398D02*
Y45398D01*
X335596D02*
X365596D01*
X335596Y25398D02*
Y45398D01*
Y25398D02*
X365596D01*
X310521Y25280D02*
X330521D01*
X310521Y45279D02*
X330521D01*
Y25280D02*
Y45279D01*
X310521Y25280D02*
Y45279D01*
X8937Y200476D02*
X16614D01*
X8937Y225083D02*
Y232732D01*
X37087Y200476D02*
X44370D01*
X8937D02*
Y205004D01*
X44370Y200476D02*
Y232732D01*
X8937D02*
X44370D01*
X257250Y72500D02*
Y80500D01*
X249750Y72500D02*
Y80500D01*
X268750Y72500D02*
Y80500D01*
X261250Y72500D02*
Y80500D01*
X244750Y72500D02*
Y80500D01*
X237250Y72500D02*
Y80500D01*
X293500Y40500D02*
Y48500D01*
X287500Y40500D02*
Y48500D01*
X293500Y51000D02*
X296500D01*
X293500D02*
X295000Y49500D01*
X296500Y51000D01*
X294000Y49500D02*
X296000D01*
X282000Y40500D02*
Y48500D01*
X276000Y40500D02*
Y48500D01*
X282000Y51000D02*
X285000D01*
X282000D02*
X283500Y49500D01*
X285000Y51000D01*
X282500Y49500D02*
X284500D01*
X270500Y40500D02*
Y48500D01*
X264500Y40500D02*
Y48500D01*
X270500Y51000D02*
X273500D01*
X270500D02*
X272000Y49500D01*
X273500Y51000D01*
X271000Y49500D02*
X273000D01*
X181089Y161883D02*
Y167339D01*
X179445D02*
X186532D01*
X179445Y161827D02*
X186532D01*
X177539Y162233D02*
X178039Y161733D01*
X177039D02*
X178039D01*
X177039D02*
X177539Y162233D01*
X186532Y166583D02*
Y167339D01*
Y161827D02*
Y162683D01*
X179445Y161827D02*
Y162783D01*
Y166583D02*
Y167339D01*
X178280Y205672D02*
X186280D01*
X178280Y213172D02*
X186280D01*
X344343Y163686D02*
X352343D01*
X344343Y171186D02*
X352343D01*
X248716Y163686D02*
X256716D01*
X248716Y171186D02*
X256716D01*
X377611Y205545D02*
X385611D01*
X377611Y213045D02*
X385611D01*
X351886Y204306D02*
Y205062D01*
Y208862D02*
Y209818D01*
X344800Y208962D02*
Y209818D01*
Y204306D02*
Y205062D01*
X353793Y209412D02*
X354293Y209912D01*
X353293D02*
X354293D01*
X353293D02*
X353793Y209412D01*
X344800Y209818D02*
X351886D01*
X344800Y204306D02*
X351886D01*
X350243D02*
Y209762D01*
X312209Y213172D02*
X320209D01*
X312209Y205672D02*
X320209D01*
X279418Y205545D02*
X287418D01*
X279418Y213045D02*
X287418D01*
X149918Y209062D02*
Y209818D01*
Y204306D02*
Y205262D01*
X157004Y204306D02*
Y205162D01*
Y209062D02*
Y209818D01*
X147511Y204212D02*
X148011Y204712D01*
X147511Y204212D02*
X148511D01*
X148011Y204712D02*
X148511Y204212D01*
X149918Y204306D02*
X157004D01*
X149918Y209818D02*
X157004D01*
X151561Y204362D02*
Y209818D01*
X149063Y163686D02*
X157063D01*
X149063Y171186D02*
X157063D01*
X154445Y192563D02*
X156020D01*
X150902D02*
X152477D01*
X150902Y181146D02*
X156020D01*
Y192563D01*
X150902Y181146D02*
Y192563D01*
X212319Y213172D02*
X220319D01*
X212319Y205672D02*
X220319D01*
X212319Y198317D02*
X220319D01*
X212319Y190817D02*
X220319D01*
X212417Y175481D02*
X220417D01*
X212417Y182981D02*
X220417D01*
X212417Y167339D02*
X220417D01*
X212417Y159839D02*
X220417D01*
X253700Y193480D02*
X255275D01*
X250157D02*
X251732D01*
X250157Y182062D02*
X255275D01*
Y193480D01*
X250157Y182062D02*
Y193480D01*
X349327D02*
X350902D01*
X345784D02*
X347359D01*
X345784Y182062D02*
X350902D01*
Y193480D01*
X345784Y182062D02*
Y193480D01*
X408992Y163339D02*
X416992D01*
X408992Y155839D02*
X416992D01*
X409393Y201172D02*
X417393D01*
X409393Y193672D02*
X417393D01*
X312307Y167748D02*
X320307D01*
X312307Y160248D02*
X320307D01*
X257532Y120112D02*
X265532D01*
X257532Y127612D02*
X265532D01*
X257532Y100427D02*
X265532D01*
X257532Y107927D02*
X265532D01*
X114386Y209098D02*
X125607D01*
X114386Y215791D02*
X125607D01*
X117997Y209445D02*
Y215445D01*
X112496Y209445D02*
X112996Y208945D01*
X111996D02*
X112996D01*
X111996D02*
X112496Y209445D01*
X379150Y166489D02*
Y167245D01*
Y161733D02*
Y162689D01*
X386237Y161733D02*
Y162589D01*
Y166489D02*
Y167245D01*
X376743Y161639D02*
X377243Y162139D01*
X376743Y161639D02*
X377743D01*
X377243Y162139D02*
X377743Y161639D01*
X379150Y161733D02*
X386237D01*
X379150Y167245D02*
X386237D01*
X380793Y161789D02*
Y167245D01*
X409090Y127612D02*
X417090D01*
X409090Y120112D02*
X417090D01*
X408893Y107927D02*
X416893D01*
X408893Y100427D02*
X416893D01*
X356613D02*
X364613D01*
X356613Y107927D02*
X364613D01*
X356613Y120112D02*
X364613D01*
X356613Y127612D02*
X364613D01*
X311666D02*
X319666D01*
X311666Y120112D02*
X319666D01*
X311666Y107533D02*
X319666D01*
X311666Y100033D02*
X319666D01*
X312307Y175481D02*
X320307D01*
X312307Y182981D02*
X320307D01*
X312209Y197937D02*
X320209D01*
X312209Y190437D02*
X320209D01*
X279166Y166489D02*
Y167245D01*
Y161733D02*
Y162689D01*
X286252Y161733D02*
Y162589D01*
Y166489D02*
Y167245D01*
X276759Y161639D02*
X277259Y162139D01*
X276759Y161639D02*
X277759D01*
X277259Y162139D02*
X277759Y161639D01*
X279166Y161733D02*
X286252D01*
X279166Y167245D02*
X286252D01*
X280809Y161789D02*
Y167245D01*
X409393Y185937D02*
X417393D01*
X409393Y178437D02*
X417393D01*
X378441Y197484D02*
X386945D01*
X378441Y173862D02*
X386945D01*
X279166Y197484D02*
X287670D01*
X279166Y173862D02*
X287670D01*
X178737Y197484D02*
X187241D01*
X178737Y173862D02*
X187241D01*
X114390Y199228D02*
X126390D01*
X114390Y190228D02*
X126390D01*
X251603Y204362D02*
Y209818D01*
X249960D02*
X257047D01*
X249960Y204306D02*
X257047D01*
X248053Y204712D02*
X248553Y204212D01*
X247553D02*
X248553D01*
X247553D02*
X248053Y204712D01*
X257047Y209062D02*
Y209818D01*
Y204306D02*
Y205162D01*
X249960Y204306D02*
Y205262D01*
Y209062D02*
Y209818D01*
D13*
X363266Y88599D02*
X360600D01*
Y86599D01*
X361933Y87266D01*
X362599D01*
X363266Y86599D01*
Y85266D01*
X362599Y84600D01*
X361266D01*
X360600Y85266D01*
X364599Y88599D02*
Y85933D01*
X365932Y84600D01*
X367265Y85933D01*
Y88599D01*
X371263D02*
X368597D01*
Y86599D01*
X369930Y87266D01*
X370597D01*
X371263Y86599D01*
Y85266D01*
X370597Y84600D01*
X369264D01*
X368597Y85266D01*
X372596Y86599D02*
X375262D01*
X376595Y88599D02*
Y84600D01*
X378594D01*
X379261Y85266D01*
Y85933D01*
X378594Y86599D01*
X376595D01*
X378594D01*
X379261Y87266D01*
Y87932D01*
X378594Y88599D01*
X376595D01*
X351600Y71932D02*
X352266Y72599D01*
X353599D01*
X354266Y71932D01*
Y71266D01*
X353599Y70599D01*
X352933D01*
X353599D01*
X354266Y69933D01*
Y69266D01*
X353599Y68600D01*
X352266D01*
X351600Y69266D01*
X355599Y72599D02*
Y69933D01*
X356932Y68600D01*
X358264Y69933D01*
Y72599D01*
X362263D02*
X360930Y71932D01*
X359597Y70599D01*
Y69266D01*
X360264Y68600D01*
X361597D01*
X362263Y69266D01*
Y69933D01*
X361597Y70599D01*
X359597D01*
X337766Y89099D02*
X335100D01*
Y87099D01*
X336433Y87766D01*
X337099D01*
X337766Y87099D01*
Y85766D01*
X337099Y85100D01*
X335766D01*
X335100Y85766D01*
X339099Y89099D02*
Y86433D01*
X340432Y85100D01*
X341764Y86433D01*
Y89099D01*
X345763D02*
X343097D01*
Y87099D01*
X344430Y87766D01*
X345097D01*
X345763Y87099D01*
Y85766D01*
X345097Y85100D01*
X343764D01*
X343097Y85766D01*
X347096Y87099D02*
X349762D01*
X351095Y85100D02*
Y87766D01*
X352428Y89099D01*
X353761Y87766D01*
Y85100D01*
Y87099D01*
X351095D01*
X329266Y71432D02*
X328599Y72099D01*
X327266D01*
X326600Y71432D01*
Y68766D01*
X327266Y68100D01*
X328599D01*
X329266Y68766D01*
Y70099D01*
X327933D01*
X330599Y68100D02*
Y72099D01*
X333264Y68100D01*
Y72099D01*
X334597D02*
Y68100D01*
X336597D01*
X337263Y68766D01*
Y71432D01*
X336597Y72099D01*
X334597D01*
X397668Y170501D02*
Y174499D01*
X399667D01*
X400334Y173833D01*
Y172500D01*
X399667Y171834D01*
X397668D01*
X399001D02*
X400334Y170501D01*
X404332Y174499D02*
X401666D01*
Y172500D01*
X402999Y173167D01*
X403666D01*
X404332Y172500D01*
Y171167D01*
X403666Y170501D01*
X402333D01*
X401666Y171167D01*
X249668Y86001D02*
Y89999D01*
X251667D01*
X252334Y89333D01*
Y88000D01*
X251667Y87334D01*
X249668D01*
X251001D02*
X252334Y86001D01*
X253666Y86667D02*
X254333Y86001D01*
X255666D01*
X256332Y86667D01*
Y89333D01*
X255666Y89999D01*
X254333D01*
X253666Y89333D01*
Y88666D01*
X254333Y88000D01*
X256332D01*
X262168Y86001D02*
Y89999D01*
X264167D01*
X264834Y89333D01*
Y88000D01*
X264167Y87334D01*
X262168D01*
X263501D02*
X264834Y86001D01*
X266166Y89333D02*
X266833Y89999D01*
X268166D01*
X268832Y89333D01*
Y88666D01*
X268166Y88000D01*
X268832Y87334D01*
Y86667D01*
X268166Y86001D01*
X266833D01*
X266166Y86667D01*
Y87334D01*
X266833Y88000D01*
X266166Y88666D01*
Y89333D01*
X266833Y88000D02*
X268166D01*
X238668Y86001D02*
Y89999D01*
X240667D01*
X241334Y89333D01*
Y88000D01*
X240667Y87334D01*
X238668D01*
X240001D02*
X241334Y86001D01*
X242667Y89999D02*
X245332D01*
Y89333D01*
X242667Y86667D01*
Y86001D01*
X274668Y56999D02*
Y53001D01*
X276667D01*
X277334Y53667D01*
Y56333D01*
X276667Y56999D01*
X274668D01*
X278667Y53001D02*
X280000D01*
X279333D01*
Y56999D01*
X278667Y56333D01*
X281999Y53001D02*
X283332D01*
X282665D01*
Y56999D01*
X281999Y56333D01*
X295002Y46499D02*
Y42501D01*
X297001D01*
X297667Y43167D01*
Y45833D01*
X297001Y46499D01*
X295002D01*
X299000Y42501D02*
X300333D01*
X299667D01*
Y46499D01*
X299000Y45833D01*
X302333D02*
X302999Y46499D01*
X304332D01*
X304998Y45833D01*
Y43167D01*
X304332Y42501D01*
X302999D01*
X302333Y43167D01*
Y45833D01*
X255668Y46499D02*
Y42501D01*
X257667D01*
X258334Y43167D01*
Y45833D01*
X257667Y46499D01*
X255668D01*
X259666Y43167D02*
X260333Y42501D01*
X261666D01*
X262332Y43167D01*
Y45833D01*
X261666Y46499D01*
X260333D01*
X259666Y45833D01*
Y45166D01*
X260333Y44500D01*
X262332D01*
X123319Y84523D02*
X125984Y80524D01*
Y84523D02*
X123319Y80524D01*
X127317D02*
X128650D01*
X127984D01*
Y84523D01*
X127317Y83856D01*
X276609Y17432D02*
X275276D01*
X275943D01*
Y14100D01*
X275276Y13434D01*
X274610D01*
X273943Y14100D01*
X277942Y17432D02*
X280608D01*
Y16766D01*
X277942Y14100D01*
Y13434D01*
X12834Y132501D02*
Y136499D01*
X14167Y135167D01*
X15500Y136499D01*
Y132501D01*
X16833D02*
X18166D01*
X17499D01*
Y136499D01*
X16833Y135833D01*
X383192Y52633D02*
X381859D01*
X382525D01*
Y49301D01*
X381859Y48634D01*
X381192D01*
X380526Y49301D01*
X386524Y48634D02*
Y52633D01*
X384525Y50634D01*
X387191D01*
X347759Y53027D02*
X346426D01*
X347092D01*
Y49695D01*
X346426Y49028D01*
X345759D01*
X345093Y49695D01*
X349092Y52360D02*
X349758Y53027D01*
X351091D01*
X351758Y52360D01*
Y51694D01*
X351091Y51028D01*
X350425D01*
X351091D01*
X351758Y50361D01*
Y49695D01*
X351091Y49028D01*
X349758D01*
X349092Y49695D01*
X414688Y42791D02*
X413355D01*
X414021D01*
Y39458D01*
X413355Y38792D01*
X412688D01*
X412022Y39458D01*
X418687Y42791D02*
X416021D01*
Y40791D01*
X417354Y41458D01*
X418020D01*
X418687Y40791D01*
Y39458D01*
X418020Y38792D01*
X416687D01*
X416021Y39458D01*
X319019Y53027D02*
X317686D01*
X318352D01*
Y49695D01*
X317686Y49028D01*
X317019D01*
X316353Y49695D01*
X323017Y49028D02*
X320352D01*
X323017Y51694D01*
Y52360D01*
X322351Y53027D01*
X321018D01*
X320352Y52360D01*
X276609Y32787D02*
X275276D01*
X275943D01*
Y29454D01*
X275276Y28788D01*
X274610D01*
X273943Y29454D01*
X280608Y32787D02*
X279275Y32120D01*
X277942Y30787D01*
Y29454D01*
X278608Y28788D01*
X279941D01*
X280608Y29454D01*
Y30121D01*
X279941Y30787D01*
X277942D01*
X345093Y199877D02*
Y196545D01*
X345759Y195879D01*
X347092D01*
X347759Y196545D01*
Y199877D01*
X349092Y199211D02*
X349758Y199877D01*
X351091D01*
X351758Y199211D01*
Y198544D01*
X351091Y197878D01*
X350425D01*
X351091D01*
X351758Y197212D01*
Y196545D01*
X351091Y195879D01*
X349758D01*
X349092Y196545D01*
X250171Y201187D02*
Y197855D01*
X250838Y197189D01*
X252170D01*
X252837Y197855D01*
Y201187D01*
X256836Y197189D02*
X254170D01*
X256836Y199855D01*
Y200521D01*
X256169Y201187D01*
X254836D01*
X254170Y200521D01*
X144102Y199484D02*
Y196151D01*
X144769Y195485D01*
X146102D01*
X146768Y196151D01*
Y199484D01*
X148101Y195485D02*
X149434D01*
X148767D01*
Y199484D01*
X148101Y198817D01*
X397668Y157501D02*
Y161499D01*
X399667D01*
X400334Y160833D01*
Y159500D01*
X399667Y158834D01*
X397668D01*
X399001D02*
X400334Y157501D01*
X404332Y161499D02*
X402999Y160833D01*
X401666Y159500D01*
Y158167D01*
X402333Y157501D01*
X403666D01*
X404332Y158167D01*
Y158834D01*
X403666Y159500D01*
X401666D01*
X325802Y163201D02*
Y167200D01*
X327801D01*
X328467Y166534D01*
Y165201D01*
X327801Y164534D01*
X325802D01*
X327134D02*
X328467Y163201D01*
X331800D02*
Y167200D01*
X329800Y165201D01*
X332466D01*
X326589Y177375D02*
Y181373D01*
X328588D01*
X329255Y180707D01*
Y179374D01*
X328588Y178708D01*
X326589D01*
X327922D02*
X329255Y177375D01*
X330588Y180707D02*
X331254Y181373D01*
X332587D01*
X333254Y180707D01*
Y180041D01*
X332587Y179374D01*
X331921D01*
X332587D01*
X333254Y178708D01*
Y178041D01*
X332587Y177375D01*
X331254D01*
X330588Y178041D01*
X227652Y161589D02*
Y165588D01*
X229651D01*
X230318Y164921D01*
Y163589D01*
X229651Y162922D01*
X227652D01*
X228985D02*
X230318Y161589D01*
X234317D02*
X231651D01*
X234317Y164255D01*
Y164921D01*
X233650Y165588D01*
X232317D01*
X231651Y164921D01*
X227925Y178019D02*
Y182018D01*
X229924D01*
X230591Y181352D01*
Y180019D01*
X229924Y179352D01*
X227925D01*
X229258D02*
X230591Y178019D01*
X231924D02*
X233256D01*
X232590D01*
Y182018D01*
X231924Y181352D01*
X90334Y216501D02*
Y220499D01*
X92334D01*
X93000Y219833D01*
Y218500D01*
X92334Y217834D01*
X90334D01*
X94333Y216501D02*
X95666D01*
X94999D01*
Y220499D01*
X94333Y219833D01*
X384463Y203027D02*
Y199028D01*
X387129D01*
X388462Y202361D02*
X389128Y203027D01*
X390461D01*
X391127Y202361D01*
Y201694D01*
X390461Y201028D01*
X389795D01*
X390461D01*
X391127Y200361D01*
Y199695D01*
X390461Y199028D01*
X389128D01*
X388462Y199695D01*
X294699Y203421D02*
Y199422D01*
X297365D01*
X301364D02*
X298698D01*
X301364Y202088D01*
Y202754D01*
X300697Y203421D01*
X299364D01*
X298698Y202754D01*
X190248Y203421D02*
Y199422D01*
X192913D01*
X194246D02*
X195579D01*
X194913D01*
Y203421D01*
X194246Y202754D01*
X37000Y194499D02*
X35667D01*
X36334D01*
Y191167D01*
X35667Y190501D01*
X35001D01*
X34334Y191167D01*
X38333Y190501D02*
X39666D01*
X38999D01*
Y194499D01*
X38333Y193833D01*
X345404Y217200D02*
Y213201D01*
X347404D01*
X348070Y213868D01*
Y216534D01*
X347404Y217200D01*
X345404D01*
X349403Y216534D02*
X350069Y217200D01*
X351402D01*
X352069Y216534D01*
Y215867D01*
X351402Y215201D01*
X352069Y214534D01*
Y213868D01*
X351402Y213201D01*
X350069D01*
X349403Y213868D01*
Y214534D01*
X350069Y215201D01*
X349403Y215867D01*
Y216534D01*
X350069Y215201D02*
X351402D01*
X379656Y157358D02*
Y153359D01*
X381656D01*
X382322Y154025D01*
Y156691D01*
X381656Y157358D01*
X379656D01*
X383655D02*
X386321D01*
Y156691D01*
X383655Y154025D01*
Y153359D01*
X247900Y216696D02*
Y212698D01*
X249899D01*
X250566Y213364D01*
Y216030D01*
X249899Y216696D01*
X247900D01*
X254564D02*
X253232Y216030D01*
X251899Y214697D01*
Y213364D01*
X252565Y212698D01*
X253898D01*
X254564Y213364D01*
Y214031D01*
X253898Y214697D01*
X251899D01*
X278951Y158539D02*
Y154540D01*
X280951D01*
X281617Y155207D01*
Y157872D01*
X280951Y158539D01*
X278951D01*
X285616D02*
X282950D01*
Y156539D01*
X284283Y157206D01*
X284949D01*
X285616Y156539D01*
Y155207D01*
X284949Y154540D01*
X283616D01*
X282950Y155207D01*
X150129Y217987D02*
Y213989D01*
X152128D01*
X152795Y214655D01*
Y217321D01*
X152128Y217987D01*
X150129D01*
X156127Y213989D02*
Y217987D01*
X154128Y215988D01*
X156793D01*
X180050Y156570D02*
Y152571D01*
X182049D01*
X182716Y153238D01*
Y155904D01*
X182049Y156570D01*
X180050D01*
X184049Y155904D02*
X184715Y156570D01*
X186048D01*
X186714Y155904D01*
Y155237D01*
X186048Y154571D01*
X185382D01*
X186048D01*
X186714Y153904D01*
Y153238D01*
X186048Y152571D01*
X184715D01*
X184049Y153238D01*
X115877Y223499D02*
Y219501D01*
X117876D01*
X118543Y220167D01*
Y222833D01*
X117876Y223499D01*
X115877D01*
X122541Y219501D02*
X119876D01*
X122541Y222166D01*
Y222833D01*
X121875Y223499D01*
X120542D01*
X119876Y222833D01*
X56834Y192999D02*
Y189001D01*
X58834D01*
X59500Y189667D01*
Y192333D01*
X58834Y192999D01*
X56834D01*
X60833Y189001D02*
X62166D01*
X61499D01*
Y192999D01*
X60833Y192333D01*
X414834Y98333D02*
X414168Y98999D01*
X412835D01*
X412168Y98333D01*
Y95667D01*
X412835Y95001D01*
X414168D01*
X414834Y95667D01*
X418833Y95001D02*
X416167D01*
X418833Y97666D01*
Y98333D01*
X418166Y98999D01*
X416834D01*
X416167Y98333D01*
X420166D02*
X420832Y98999D01*
X422165D01*
X422832Y98333D01*
Y97666D01*
X422165Y97000D01*
X421499D01*
X422165D01*
X422832Y96334D01*
Y95667D01*
X422165Y95001D01*
X420832D01*
X420166Y95667D01*
X357834Y112333D02*
X357168Y112999D01*
X355835D01*
X355168Y112333D01*
Y109667D01*
X355835Y109001D01*
X357168D01*
X357834Y109667D01*
X361833Y109001D02*
X359167D01*
X361833Y111667D01*
Y112333D01*
X361166Y112999D01*
X359834D01*
X359167Y112333D01*
X365832Y109001D02*
X363166D01*
X365832Y111667D01*
Y112333D01*
X365165Y112999D01*
X363832D01*
X363166Y112333D01*
X410911Y134644D02*
X410244Y135310D01*
X408911D01*
X408245Y134644D01*
Y131978D01*
X408911Y131312D01*
X410244D01*
X410911Y131978D01*
X414909Y131312D02*
X412243D01*
X414909Y133977D01*
Y134644D01*
X414243Y135310D01*
X412910D01*
X412243Y134644D01*
X416242Y131312D02*
X417575D01*
X416909D01*
Y135310D01*
X416242Y134644D01*
X357834Y132333D02*
X357168Y132999D01*
X355835D01*
X355168Y132333D01*
Y129667D01*
X355835Y129001D01*
X357168D01*
X357834Y129667D01*
X361833Y129001D02*
X359167D01*
X361833Y131667D01*
Y132333D01*
X361166Y132999D01*
X359834D01*
X359167Y132333D01*
X363166D02*
X363832Y132999D01*
X365165D01*
X365832Y132333D01*
Y129667D01*
X365165Y129001D01*
X363832D01*
X363166Y129667D01*
Y132333D01*
X400923Y206108D02*
X400257Y206775D01*
X398924D01*
X398257Y206108D01*
Y203443D01*
X398924Y202776D01*
X400257D01*
X400923Y203443D01*
X402256Y202776D02*
X403589D01*
X402923D01*
Y206775D01*
X402256Y206108D01*
X405588Y203443D02*
X406255Y202776D01*
X407588D01*
X408254Y203443D01*
Y206108D01*
X407588Y206775D01*
X406255D01*
X405588Y206108D01*
Y205442D01*
X406255Y204776D01*
X408254D01*
X400530Y190360D02*
X399863Y191027D01*
X398530D01*
X397864Y190360D01*
Y187695D01*
X398530Y187028D01*
X399863D01*
X400530Y187695D01*
X401862Y187028D02*
X403195D01*
X402529D01*
Y191027D01*
X401862Y190360D01*
X405195D02*
X405861Y191027D01*
X407194D01*
X407861Y190360D01*
Y189694D01*
X407194Y189028D01*
X407861Y188361D01*
Y187695D01*
X407194Y187028D01*
X405861D01*
X405195Y187695D01*
Y188361D01*
X405861Y189028D01*
X405195Y189694D01*
Y190360D01*
X405861Y189028D02*
X407194D01*
X379951Y218109D02*
X379284Y218775D01*
X377952D01*
X377285Y218109D01*
Y215443D01*
X377952Y214776D01*
X379284D01*
X379951Y215443D01*
X381284Y214776D02*
X382617D01*
X381950D01*
Y218775D01*
X381284Y218109D01*
X384616Y218775D02*
X387282D01*
Y218109D01*
X384616Y215443D01*
Y214776D01*
X346486Y177164D02*
X345820Y177830D01*
X344487D01*
X343821Y177164D01*
Y174498D01*
X344487Y173831D01*
X345820D01*
X346486Y174498D01*
X347819Y173831D02*
X349152D01*
X348486D01*
Y177830D01*
X347819Y177164D01*
X353817Y177830D02*
X352484Y177164D01*
X351151Y175831D01*
Y174498D01*
X351818Y173831D01*
X353151D01*
X353817Y174498D01*
Y175164D01*
X353151Y175831D01*
X351151D01*
X312234Y96061D02*
X311568Y96728D01*
X310235D01*
X309569Y96061D01*
Y93396D01*
X310235Y92729D01*
X311568D01*
X312234Y93396D01*
X313567Y92729D02*
X314900D01*
X314234D01*
Y96728D01*
X313567Y96061D01*
X319565Y96728D02*
X316899D01*
Y94728D01*
X318232Y95395D01*
X318899D01*
X319565Y94728D01*
Y93396D01*
X318899Y92729D01*
X317566D01*
X316899Y93396D01*
X259667Y112833D02*
X259001Y113499D01*
X257668D01*
X257002Y112833D01*
Y110167D01*
X257668Y109501D01*
X259001D01*
X259667Y110167D01*
X261000Y109501D02*
X262333D01*
X261667D01*
Y113499D01*
X261000Y112833D01*
X266332Y109501D02*
Y113499D01*
X264333Y111500D01*
X266998D01*
X313022Y134250D02*
X312355Y134917D01*
X311022D01*
X310356Y134250D01*
Y131584D01*
X311022Y130918D01*
X312355D01*
X313022Y131584D01*
X314355Y130918D02*
X315688D01*
X315021D01*
Y134917D01*
X314355Y134250D01*
X317687D02*
X318353Y134917D01*
X319686D01*
X320353Y134250D01*
Y133584D01*
X319686Y132917D01*
X319020D01*
X319686D01*
X320353Y132251D01*
Y131584D01*
X319686Y130918D01*
X318353D01*
X317687Y131584D01*
X259667Y132333D02*
X259001Y132999D01*
X257668D01*
X257002Y132333D01*
Y129667D01*
X257668Y129001D01*
X259001D01*
X259667Y129667D01*
X261000Y129001D02*
X262333D01*
X261667D01*
Y132999D01*
X261000Y132333D01*
X266998Y129001D02*
X264333D01*
X266998Y131667D01*
Y132333D01*
X266332Y132999D01*
X264999D01*
X264333Y132333D01*
X327468Y210628D02*
X326801Y211295D01*
X325468D01*
X324802Y210628D01*
Y207962D01*
X325468Y207296D01*
X326801D01*
X327468Y207962D01*
X328801Y207296D02*
X330134D01*
X329467D01*
Y211295D01*
X328801Y210628D01*
X332133Y207296D02*
X333466D01*
X332799D01*
Y211295D01*
X332133Y210628D01*
X327589Y194880D02*
X326922Y195547D01*
X325589D01*
X324923Y194880D01*
Y192214D01*
X325589Y191548D01*
X326922D01*
X327589Y192214D01*
X328922Y191548D02*
X330255D01*
X329588D01*
Y195547D01*
X328922Y194880D01*
X332254D02*
X332920Y195547D01*
X334253D01*
X334920Y194880D01*
Y192214D01*
X334253Y191548D01*
X332920D01*
X332254Y192214D01*
Y194880D01*
X282322Y219290D02*
X281656Y219956D01*
X280323D01*
X279656Y219290D01*
Y216624D01*
X280323Y215957D01*
X281656D01*
X282322Y216624D01*
X283655D02*
X284321Y215957D01*
X285654D01*
X286321Y216624D01*
Y219290D01*
X285654Y219956D01*
X284321D01*
X283655Y219290D01*
Y218623D01*
X284321Y217957D01*
X286321D01*
X251696Y177164D02*
X251029Y177830D01*
X249696D01*
X249030Y177164D01*
Y174498D01*
X249696Y173831D01*
X251029D01*
X251696Y174498D01*
X253029Y177164D02*
X253695Y177830D01*
X255028D01*
X255695Y177164D01*
Y176497D01*
X255028Y175831D01*
X255695Y175164D01*
Y174498D01*
X255028Y173831D01*
X253695D01*
X253029Y174498D01*
Y175164D01*
X253695Y175831D01*
X253029Y176497D01*
Y177164D01*
X253695Y175831D02*
X255028D01*
X229432Y210755D02*
X228766Y211422D01*
X227433D01*
X226766Y210755D01*
Y208089D01*
X227433Y207423D01*
X228766D01*
X229432Y208089D01*
X230765Y211422D02*
X233431D01*
Y210755D01*
X230765Y208089D01*
Y207423D01*
X229255Y192912D02*
X228588Y193578D01*
X227256D01*
X226589Y192912D01*
Y190246D01*
X227256Y189579D01*
X228588D01*
X229255Y190246D01*
X233254Y193578D02*
X231921Y192912D01*
X230588Y191579D01*
Y190246D01*
X231254Y189579D01*
X232587D01*
X233254Y190246D01*
Y190912D01*
X232587Y191579D01*
X230588D01*
X181223Y218502D02*
X180557Y219169D01*
X179224D01*
X178558Y218502D01*
Y215836D01*
X179224Y215170D01*
X180557D01*
X181223Y215836D01*
X185222Y219169D02*
X182556D01*
Y217169D01*
X183889Y217836D01*
X184556D01*
X185222Y217169D01*
Y215836D01*
X184556Y215170D01*
X183223D01*
X182556Y215836D01*
X152090Y160628D02*
X151423Y161295D01*
X150090D01*
X149424Y160628D01*
Y157962D01*
X150090Y157296D01*
X151423D01*
X152090Y157962D01*
X155422Y157296D02*
Y161295D01*
X153422Y159295D01*
X156088D01*
X96334Y177833D02*
X95667Y178499D01*
X94334D01*
X93668Y177833D01*
Y175167D01*
X94334Y174501D01*
X95667D01*
X96334Y175167D01*
X97667Y177833D02*
X98333Y178499D01*
X99666D01*
X100332Y177833D01*
Y177166D01*
X99666Y176500D01*
X98999D01*
X99666D01*
X100332Y175833D01*
Y175167D01*
X99666Y174501D01*
X98333D01*
X97667Y175167D01*
X18334Y176333D02*
X17667Y176999D01*
X16334D01*
X15668Y176333D01*
Y173667D01*
X16334Y173001D01*
X17667D01*
X18334Y173667D01*
X22332Y173001D02*
X19667D01*
X22332Y175666D01*
Y176333D01*
X21666Y176999D01*
X20333D01*
X19667Y176333D01*
X115272Y185825D02*
X114606Y186492D01*
X113273D01*
X112606Y185825D01*
Y183159D01*
X113273Y182493D01*
X114606D01*
X115272Y183159D01*
X116605Y182493D02*
X117938D01*
X117271D01*
Y186492D01*
X116605Y185825D01*
X396668Y96499D02*
Y92501D01*
X398667D01*
X399334Y93167D01*
Y93834D01*
X398667Y94500D01*
X396668D01*
X398667D01*
X399334Y95166D01*
Y95833D01*
X398667Y96499D01*
X396668D01*
X402666Y92501D02*
Y96499D01*
X400667Y94500D01*
X403332D01*
X397668Y121999D02*
Y118001D01*
X399667D01*
X400334Y118667D01*
Y119334D01*
X399667Y120000D01*
X397668D01*
X399667D01*
X400334Y120667D01*
Y121333D01*
X399667Y121999D01*
X397668D01*
X401666Y121333D02*
X402333Y121999D01*
X403666D01*
X404332Y121333D01*
Y120667D01*
X403666Y120000D01*
X402999D01*
X403666D01*
X404332Y119334D01*
Y118667D01*
X403666Y118001D01*
X402333D01*
X401666Y118667D01*
X286825Y86885D02*
Y82886D01*
X288825D01*
X289491Y83553D01*
Y84219D01*
X288825Y84886D01*
X286825D01*
X288825D01*
X289491Y85552D01*
Y86219D01*
X288825Y86885D01*
X286825D01*
X293490Y82886D02*
X290824D01*
X293490Y85552D01*
Y86219D01*
X292823Y86885D01*
X291490D01*
X290824Y86219D01*
X285575Y137673D02*
Y133674D01*
X287574D01*
X288241Y134340D01*
Y135007D01*
X287574Y135673D01*
X285575D01*
X287574D01*
X288241Y136340D01*
Y137006D01*
X287574Y137673D01*
X285575D01*
X289574Y133674D02*
X290906D01*
X290240D01*
Y137673D01*
X289574Y137006D01*
D14*
X407500Y17498D02*
X408500Y18498D01*
X410499D01*
X411499Y17498D01*
Y16499D01*
X410499Y15499D01*
X409499D01*
X410499D01*
X411499Y14499D01*
Y13500D01*
X410499Y12500D01*
X408500D01*
X407500Y13500D01*
X413498Y18498D02*
Y14499D01*
X415497Y12500D01*
X417497Y14499D01*
Y18498D01*
X423495D02*
X421495Y17498D01*
X419496Y15499D01*
Y13500D01*
X420496Y12500D01*
X422495D01*
X423495Y13500D01*
Y14499D01*
X422495Y15499D01*
X419496D01*
X381999Y21498D02*
X378000D01*
Y18499D01*
X379999Y19499D01*
X380999D01*
X381999Y18499D01*
Y16500D01*
X380999Y15500D01*
X379000D01*
X378000Y16500D01*
X383998Y21498D02*
Y17499D01*
X385997Y15500D01*
X387997Y17499D01*
Y21498D01*
X389996D02*
Y15500D01*
X392995D01*
X393995Y16500D01*
Y17499D01*
Y18499D01*
X392995Y19499D01*
X389996D01*
X381999Y11498D02*
X378000D01*
Y8499D01*
X379999Y9499D01*
X380999D01*
X381999Y8499D01*
Y6500D01*
X380999Y5500D01*
X379000D01*
X378000Y6500D01*
X383998Y11498D02*
Y7499D01*
X385997Y5500D01*
X387997Y7499D01*
Y11498D01*
X393995Y9499D02*
X390996D01*
X389996Y8499D01*
Y6500D01*
X390996Y5500D01*
X393995D01*
X309000Y10498D02*
X310000Y11498D01*
X311999D01*
X312999Y10498D01*
Y9499D01*
X311999Y8499D01*
X310999D01*
X311999D01*
X312999Y7499D01*
Y6500D01*
X311999Y5500D01*
X310000D01*
X309000Y6500D01*
X314998Y11498D02*
Y7499D01*
X316997Y5500D01*
X318997Y7499D01*
Y11498D01*
X320996Y10498D02*
X321996Y11498D01*
X323995D01*
X324995Y10498D01*
Y9499D01*
X323995Y8499D01*
X322995D01*
X323995D01*
X324995Y7499D01*
Y6500D01*
X323995Y5500D01*
X321996D01*
X320996Y6500D01*
X330993Y9499D02*
X327994D01*
X326994Y8499D01*
Y6500D01*
X327994Y5500D01*
X330993D01*
X309000Y19998D02*
X310000Y20998D01*
X311999D01*
X312999Y19998D01*
Y18999D01*
X311999Y17999D01*
X310999D01*
X311999D01*
X312999Y16999D01*
Y16000D01*
X311999Y15000D01*
X310000D01*
X309000Y16000D01*
X314998Y20998D02*
Y16999D01*
X316997Y15000D01*
X318997Y16999D01*
Y20998D01*
X320996Y19998D02*
X321996Y20998D01*
X323995D01*
X324995Y19998D01*
Y18999D01*
X323995Y17999D01*
X322995D01*
X323995D01*
X324995Y16999D01*
Y16000D01*
X323995Y15000D01*
X321996D01*
X320996Y16000D01*
X326994Y20998D02*
Y15000D01*
X329993D01*
X330993Y16000D01*
Y16999D01*
Y17999D01*
X329993Y18999D01*
X326994D01*
X346999Y20998D02*
X345999Y21998D01*
X344000D01*
X343000Y20998D01*
Y17000D01*
X344000Y16000D01*
X345999D01*
X346999Y17000D01*
Y18999D01*
X344999D01*
X348998Y16000D02*
Y21998D01*
X352997Y16000D01*
Y21998D01*
X354996D02*
Y16000D01*
X357995D01*
X358995Y17000D01*
Y20998D01*
X357995Y21998D01*
X354996D01*
M02*
