G04*
G04 #@! TF.GenerationSoftware,Altium Limited,Altium Designer,24.4.1 (13)*
G04*
G04 Layer_Color=128*
%FSLAX25Y25*%
%MOIN*%
G70*
G04*
G04 #@! TF.SameCoordinates,DFA012FA-E2B2-4B6A-99E0-2456AF4758C4*
G04*
G04*
G04 #@! TF.FilePolarity,Positive*
G04*
G01*
G75*
%ADD12C,0.00500*%
D12*
X330000Y78500D02*
X334000D01*
X332000Y76500D02*
Y80500D01*
X342500Y78500D02*
X346500D01*
X344500Y76500D02*
Y80500D01*
X354500Y78500D02*
X358500D01*
X356500Y76500D02*
Y80500D01*
X366500Y78500D02*
X370500D01*
X368500Y76500D02*
Y80500D01*
X182646Y137878D02*
X186646D01*
X184646Y135878D02*
Y139878D01*
X182646Y47878D02*
X186646D01*
X184646Y45878D02*
Y49878D01*
X172646Y137878D02*
X176646D01*
X174646Y135878D02*
Y139878D01*
X172646Y47878D02*
X176646D01*
X174646Y45878D02*
Y49878D01*
X162646Y137878D02*
X166646D01*
X164646Y135878D02*
Y139878D01*
X162646Y47878D02*
X166646D01*
X164646Y45878D02*
Y49878D01*
X152646Y137878D02*
X156646D01*
X154646Y135878D02*
Y139878D01*
X152646Y47878D02*
X156646D01*
X154646Y45878D02*
Y49878D01*
X142646Y137878D02*
X146646D01*
X144646Y135878D02*
Y139878D01*
X142646Y47878D02*
X146646D01*
X144646Y45878D02*
Y49878D01*
X132646Y137878D02*
X136646D01*
X134646Y135878D02*
Y139878D01*
X132646Y47878D02*
X136646D01*
X134646Y45878D02*
Y49878D01*
X122646Y137878D02*
X126646D01*
X124646Y135878D02*
Y139878D01*
X122646Y47878D02*
X126646D01*
X124646Y45878D02*
Y49878D01*
X112646Y137878D02*
X116646D01*
X114646Y135878D02*
Y139878D01*
X112646Y47878D02*
X116646D01*
X114646Y45878D02*
Y49878D01*
X102646Y137878D02*
X106646D01*
X104646Y135878D02*
Y139878D01*
X102646Y47878D02*
X106646D01*
X104646Y45878D02*
Y49878D01*
X92646Y137878D02*
X96646D01*
X94646Y135878D02*
Y139878D01*
X92646Y47878D02*
X96646D01*
X94646Y45878D02*
Y49878D01*
X82646Y137878D02*
X86646D01*
X84646Y135878D02*
Y139878D01*
X82646Y47878D02*
X86646D01*
X84646Y45878D02*
Y49878D01*
X72646Y137878D02*
X76646D01*
X74646Y135878D02*
Y139878D01*
X72646Y47878D02*
X76646D01*
X74646Y45878D02*
Y49878D01*
X62646Y137878D02*
X66646D01*
X64646Y135878D02*
Y139878D01*
X62646Y47878D02*
X66646D01*
X64646Y45878D02*
Y49878D01*
X52646Y137878D02*
X56646D01*
X54646Y135878D02*
Y139878D01*
X52646Y47878D02*
X56646D01*
X54646Y45878D02*
Y49878D01*
X42646Y137878D02*
X46646D01*
X44646Y135878D02*
Y139878D01*
X42646Y47878D02*
X46646D01*
X44646Y45878D02*
Y49878D01*
X32646Y137878D02*
X36646D01*
X34646Y135878D02*
Y139878D01*
X32646Y47878D02*
X36646D01*
X34646Y45878D02*
Y49878D01*
X99875Y15098D02*
X104088D01*
X101981Y12992D02*
Y17204D01*
X69875Y15098D02*
X74088D01*
X71981Y12992D02*
Y17204D01*
X79875Y15098D02*
X84088D01*
X81981Y12992D02*
Y17204D01*
X89875Y15098D02*
X94088D01*
X91981Y12992D02*
Y17204D01*
X109875Y15098D02*
X114088D01*
X111981Y12992D02*
Y17204D01*
X119875Y15098D02*
X124088D01*
X121981Y12992D02*
Y17204D01*
X129875Y15098D02*
X134088D01*
X131981Y12992D02*
Y17204D01*
X139875Y15098D02*
X144088D01*
X141981Y12992D02*
Y17204D01*
X149875Y15098D02*
X154088D01*
X151981Y12992D02*
Y17204D01*
X159875Y15098D02*
X164088D01*
X161981Y12992D02*
Y17204D01*
X169875Y15098D02*
X174088D01*
X171981Y12992D02*
Y17204D01*
X179875Y15098D02*
X184088D01*
X181981Y12992D02*
Y17204D01*
X189875Y15098D02*
X194088D01*
X191981Y12992D02*
Y17204D01*
X199875Y15098D02*
X204088D01*
X201981Y12992D02*
Y17204D01*
X209875Y15098D02*
X214088D01*
X211981Y12992D02*
Y17204D01*
X219875Y15098D02*
X224088D01*
X221981Y12992D02*
Y17204D01*
X229875Y15098D02*
X234088D01*
X231981Y12992D02*
Y17204D01*
X239875Y15098D02*
X244088D01*
X241981Y12992D02*
Y17204D01*
X249875Y15098D02*
X254088D01*
X251981Y12992D02*
Y17204D01*
X259875Y15098D02*
X264088D01*
X261981Y12992D02*
Y17204D01*
X99894Y30000D02*
X104106D01*
X102000Y27894D02*
Y32106D01*
X69894Y30000D02*
X74106D01*
X72000Y27894D02*
Y32106D01*
X79894Y30000D02*
X84106D01*
X82000Y27894D02*
Y32106D01*
X89894Y30000D02*
X94106D01*
X92000Y27894D02*
Y32106D01*
X109894Y30000D02*
X114106D01*
X112000Y27894D02*
Y32106D01*
X119894Y30000D02*
X124106D01*
X122000Y27894D02*
Y32106D01*
X129894Y30000D02*
X134106D01*
X132000Y27894D02*
Y32106D01*
X139894Y30000D02*
X144106D01*
X142000Y27894D02*
Y32106D01*
X149894Y30000D02*
X154106D01*
X152000Y27894D02*
Y32106D01*
X159894Y30000D02*
X164106D01*
X162000Y27894D02*
Y32106D01*
X169894Y30000D02*
X174106D01*
X172000Y27894D02*
Y32106D01*
X179894Y30000D02*
X184106D01*
X182000Y27894D02*
Y32106D01*
X189894Y30000D02*
X194106D01*
X192000Y27894D02*
Y32106D01*
X199894Y30000D02*
X204106D01*
X202000Y27894D02*
Y32106D01*
X209894Y30000D02*
X214106D01*
X212000Y27894D02*
Y32106D01*
X219894Y30000D02*
X224106D01*
X222000Y27894D02*
Y32106D01*
X229894Y30000D02*
X234106D01*
X232000Y27894D02*
Y32106D01*
X239894Y30000D02*
X244106D01*
X242000Y27894D02*
Y32106D01*
X249894Y30000D02*
X254106D01*
X252000Y27894D02*
Y32106D01*
X259894Y30000D02*
X264106D01*
X262000Y27894D02*
Y32106D01*
X408642Y30161D02*
X412854D01*
X410748Y28055D02*
Y32268D01*
X418642Y30161D02*
X422854D01*
X420748Y28055D02*
Y32268D01*
X373566Y30279D02*
X377779D01*
X375672Y28173D02*
Y32386D01*
X373566Y40279D02*
X377779D01*
X375672Y38173D02*
Y42386D01*
X383566Y30279D02*
X387778D01*
X385672Y28173D02*
Y32386D01*
X383566Y40279D02*
X387778D01*
X385672Y38173D02*
Y42386D01*
X393566Y30279D02*
X397779D01*
X395672Y28173D02*
Y32386D01*
X393566Y40279D02*
X397779D01*
X395672Y38173D02*
Y42386D01*
X338490Y30398D02*
X342703D01*
X340596Y28291D02*
Y32504D01*
X338490Y40398D02*
X342703D01*
X340596Y38291D02*
Y42504D01*
X348490Y30398D02*
X352703D01*
X350596Y28291D02*
Y32504D01*
X348490Y40398D02*
X352703D01*
X350596Y38291D02*
Y42504D01*
X358490Y30398D02*
X362703D01*
X360596Y28291D02*
Y32504D01*
X358490Y40398D02*
X362703D01*
X360596Y38291D02*
Y42504D01*
X323414Y40279D02*
X327627D01*
X325521Y38173D02*
Y42386D01*
X323414Y30279D02*
X327627D01*
X325521Y28173D02*
Y32386D01*
X313414Y40279D02*
X317627D01*
X315521Y38173D02*
Y42386D01*
X313414Y30279D02*
X317627D01*
X315521Y28173D02*
Y32386D01*
X6181Y215043D02*
X10118D01*
X8150Y213075D02*
Y217012D01*
X24685Y226854D02*
X28622D01*
X26654Y224886D02*
Y228823D01*
X24685Y203232D02*
X28622D01*
X26654Y201264D02*
Y205201D01*
X409701Y220000D02*
X422299D01*
X416000Y213701D02*
Y226299D01*
X410701Y65000D02*
X423299D01*
X417000Y58701D02*
Y71299D01*
X9201Y33500D02*
X21799D01*
X15500Y27201D02*
Y39799D01*
X61201Y207500D02*
X73799D01*
X67500Y201201D02*
Y213799D01*
X316100Y78000D02*
X317900D01*
X317000Y77100D02*
Y78900D01*
X270600Y89000D02*
X272400D01*
X271500Y88100D02*
Y89900D01*
X209103Y98583D02*
X210903D01*
X210003Y97683D02*
Y99483D01*
X208943Y94286D02*
X210743D01*
X209843Y93386D02*
Y95186D01*
X208600Y90000D02*
X210400D01*
X209500Y89100D02*
Y90900D01*
X401200Y55500D02*
X403800D01*
X402500Y54200D02*
Y56800D01*
X363200Y55500D02*
X365800D01*
X364500Y54200D02*
Y56800D01*
X316200Y71000D02*
X318800D01*
X317500Y69700D02*
Y72300D01*
X276864Y70906D02*
X279664D01*
X278264Y69506D02*
Y72306D01*
X348124Y114020D02*
X350924D01*
X349524Y112620D02*
Y115420D01*
X226600Y199000D02*
X229400D01*
X228000Y197600D02*
Y200400D01*
X226600Y206500D02*
X229400D01*
X228000Y205100D02*
Y207900D01*
X324100Y199000D02*
X326900D01*
X325500Y197600D02*
Y200400D01*
X324108Y205500D02*
X326908D01*
X325508Y204100D02*
Y206900D01*
X421687Y185502D02*
X424487D01*
X423087Y184102D02*
Y186902D01*
X421600Y193000D02*
X424400D01*
X423000Y191600D02*
Y194400D01*
X141837Y167436D02*
X143637D01*
X142737Y166536D02*
Y168336D01*
X266600Y37000D02*
X268400D01*
X267500Y36100D02*
Y37900D01*
X278100Y37000D02*
X279900D01*
X279000Y36100D02*
Y37900D01*
X289600Y37000D02*
X291400D01*
X290500Y36100D02*
Y37900D01*
X141100Y21500D02*
X142900D01*
X142000Y20600D02*
Y22400D01*
X101100Y24340D02*
X102900D01*
X102000Y23440D02*
Y25240D01*
X187100Y60000D02*
X188900D01*
X188000Y59100D02*
Y60900D01*
X170600Y42500D02*
X172400D01*
X171500Y41600D02*
Y43400D01*
X118600Y43000D02*
X120400D01*
X119500Y42100D02*
Y43900D01*
X335100Y144000D02*
X337900D01*
X336500Y142600D02*
Y145400D01*
X411100Y145000D02*
X413900D01*
X412500Y143600D02*
Y146400D01*
X394871Y144803D02*
X397671D01*
X396271Y143403D02*
Y146203D01*
X269746Y150500D02*
X272546D01*
X271146Y149100D02*
Y151900D01*
X285100Y150500D02*
X287900D01*
X286500Y149100D02*
Y151900D01*
X211100Y150500D02*
X213900D01*
X212500Y149100D02*
Y151900D01*
X191584Y150323D02*
X194384D01*
X192984Y148923D02*
Y151723D01*
X132600Y181000D02*
X135400D01*
X134000Y179600D02*
Y182400D01*
X132600Y167500D02*
X135400D01*
X134000Y166100D02*
Y168900D01*
X105600Y89500D02*
X107400D01*
X106500Y88600D02*
Y90400D01*
X108100Y85500D02*
X109900D01*
X109000Y84600D02*
Y86400D01*
X111600Y83000D02*
X113400D01*
X112500Y82100D02*
Y83900D01*
X116600Y84000D02*
X119400D01*
X118000Y82600D02*
Y85400D01*
X137100Y133000D02*
X138900D01*
X138000Y132100D02*
Y133900D01*
X103600Y129500D02*
X105400D01*
X104500Y128600D02*
Y130400D01*
X103600Y115500D02*
X105400D01*
X104500Y114600D02*
Y116400D01*
X102559Y62041D02*
X104359D01*
X103459Y61141D02*
Y62941D01*
X123600Y129500D02*
X125400D01*
X124500Y128600D02*
Y130400D01*
X208600Y77500D02*
X210400D01*
X209500Y76600D02*
Y78400D01*
X211098Y81000D02*
X212898D01*
X211998Y80100D02*
Y81900D01*
X198100Y77500D02*
X199900D01*
X199000Y76600D02*
Y78400D01*
X195602Y81000D02*
X197402D01*
X196502Y80100D02*
Y81900D01*
X198100Y85500D02*
X199900D01*
X199000Y84600D02*
Y86400D01*
X149100Y85800D02*
X150900D01*
X150000Y84900D02*
Y86700D01*
X149100Y81500D02*
X150900D01*
X150000Y80600D02*
Y82400D01*
X198100Y94200D02*
X199900D01*
X199000Y93300D02*
Y95100D01*
X198100Y89900D02*
X199900D01*
X199000Y89000D02*
Y90800D01*
X198100Y98500D02*
X199900D01*
X199000Y97600D02*
Y99400D01*
X208600Y85500D02*
X210400D01*
X209500Y84600D02*
Y86400D01*
X198600Y71500D02*
X200400D01*
X199500Y70600D02*
Y72400D01*
X152100Y78000D02*
X153900D01*
X153000Y77100D02*
Y78900D01*
X79100Y77000D02*
X80900D01*
X80000Y76100D02*
Y77900D01*
X156117Y74967D02*
X157917D01*
X157017Y74067D02*
Y75867D01*
X69100Y73500D02*
X70900D01*
X70000Y72600D02*
Y74400D01*
X153600Y111500D02*
X155400D01*
X154500Y110600D02*
Y112400D01*
X135159Y81500D02*
X136959D01*
X136059Y80600D02*
Y82400D01*
X126100Y65000D02*
X127900D01*
X127000Y64100D02*
Y65900D01*
X111600Y71500D02*
X113400D01*
X112500Y70600D02*
Y72400D01*
X190795Y68500D02*
X192595D01*
X191695Y67600D02*
Y69400D01*
X153600Y62000D02*
X155400D01*
X154500Y61100D02*
Y62900D01*
X105600Y59000D02*
X107400D01*
X106500Y58100D02*
Y59900D01*
X108100Y68500D02*
X109900D01*
X109000Y67600D02*
Y69400D01*
X159100Y65000D02*
X160900D01*
X160000Y64100D02*
Y65900D01*
X123100Y98000D02*
X124900D01*
X124000Y97100D02*
Y98900D01*
X132100Y56000D02*
X133900D01*
X133000Y55100D02*
Y56900D01*
X92545Y53245D02*
X94345D01*
X93445Y52345D02*
Y54145D01*
X138600Y56000D02*
X140400D01*
X139500Y55100D02*
Y56900D01*
X156100Y108000D02*
X157900D01*
X157000Y107100D02*
Y108900D01*
X150100Y114000D02*
X151900D01*
X151000Y113100D02*
Y114900D01*
X130600Y133000D02*
X132400D01*
X131500Y132100D02*
Y133900D01*
X74100Y80000D02*
X75900D01*
X75000Y79100D02*
Y80900D01*
X146100Y116000D02*
X147900D01*
X147000Y115100D02*
Y116900D01*
X125600Y101500D02*
X127400D01*
X126500Y100600D02*
Y102400D01*
X132159Y108877D02*
X133959D01*
X133059Y107977D02*
Y109777D01*
X135159Y104500D02*
X136959D01*
X136059Y103600D02*
Y105400D01*
X130297Y112753D02*
X132097D01*
X131197Y111853D02*
Y113653D01*
X84100Y110000D02*
X85900D01*
X85000Y109100D02*
Y110900D01*
X208600Y117500D02*
X211400D01*
X210000Y116100D02*
Y118900D01*
X271600Y139000D02*
X274400D01*
X273000Y137600D02*
Y140400D01*
X282100Y139000D02*
X284900D01*
X283500Y137600D02*
Y140400D01*
X217022Y171106D02*
X219822D01*
X218422Y169706D02*
Y172506D01*
X191037Y169532D02*
X193837D01*
X192437Y168131D02*
Y170931D01*
X196200Y158877D02*
X198800D01*
X197500Y157577D02*
Y160177D01*
X226077Y171000D02*
X228877D01*
X227477Y169600D02*
Y172400D01*
X335600Y160500D02*
X338400D01*
X337000Y159100D02*
Y161900D01*
X234345Y172681D02*
X237144D01*
X235745Y171281D02*
Y174081D01*
X251100Y198000D02*
X253900D01*
X252500Y196600D02*
Y199400D01*
X246943Y159295D02*
X249743D01*
X248343Y157895D02*
Y160695D01*
X309624Y86461D02*
X312424D01*
X311024Y85061D02*
Y87861D01*
X195450Y117563D02*
X198250D01*
X196850Y116163D02*
Y118963D01*
X394269Y89610D02*
X397069D01*
X395669Y88210D02*
Y91010D01*
X304029Y164020D02*
X306830D01*
X305430Y162620D02*
Y165420D01*
X286707Y114020D02*
X289507D01*
X288107Y112620D02*
Y115420D01*
X286707Y93547D02*
X289507D01*
X288107Y92147D02*
Y94947D01*
X374108Y100240D02*
X376908D01*
X375508Y98840D02*
Y101640D01*
X291356Y164489D02*
X294156D01*
X292756Y163089D02*
Y165889D01*
X391431Y164413D02*
X394231D01*
X392831Y163013D02*
Y165813D01*
X325683Y113823D02*
X328483D01*
X327083Y112423D02*
Y115223D01*
X375289Y119138D02*
X378089D01*
X376689Y117738D02*
Y120538D01*
X414660Y150964D02*
X417459D01*
X416059Y149565D02*
Y152365D01*
X421352Y114020D02*
X424152D01*
X422752Y112620D02*
Y115420D01*
X246943Y114020D02*
X249743D01*
X248343Y112620D02*
Y115420D01*
X348518Y159295D02*
X351318D01*
X349918Y157895D02*
Y160695D01*
X296156Y209295D02*
X298955D01*
X297555Y207895D02*
Y210695D01*
X314266Y171894D02*
X317066D01*
X315666Y170494D02*
Y173294D01*
X155604Y197484D02*
X158404D01*
X157004Y196084D02*
Y198884D01*
X192612Y209295D02*
X195412D01*
X194012Y207895D02*
Y210695D01*
X398911Y115201D02*
X401711D01*
X400311Y113801D02*
Y116601D01*
X298124Y112839D02*
X300924D01*
X299524Y111439D02*
Y114239D01*
M02*
