G04*
G04 #@! TF.GenerationSoftware,Altium Limited,Altium Designer,24.5.2 (23)*
G04*
G04 Layer_Color=65535*
%FSLAX25Y25*%
%MOIN*%
G70*
G04*
G04 #@! TF.SameCoordinates,E566BAFE-53A3-49A5-9EFE-4B06B608819B*
G04*
G04*
G04 #@! TF.FilePolarity,Positive*
G04*
G01*
G75*
%ADD10C,0.00500*%
%ADD11C,0.01000*%
%ADD12C,0.02000*%
%ADD13C,0.01500*%
D10*
X71516Y80315D02*
G03*
X71516Y80315I-787J0D01*
G01*
X162500Y198528D02*
G03*
X162500Y198528I-787J0D01*
G01*
X71457Y190591D02*
G03*
X71457Y190591I-787J0D01*
G01*
X162559Y88252D02*
G03*
X162559Y88252I-787J0D01*
G01*
X68366Y78347D02*
Y79134D01*
X60886Y78347D02*
X68366D01*
X60886D02*
Y79134D01*
Y89370D02*
Y90158D01*
X68366D01*
Y89370D02*
Y90158D01*
X204038Y180516D02*
Y209516D01*
X221538D01*
X204038Y180516D02*
X221538D01*
X203596Y69810D02*
Y98809D01*
X221096D01*
X203596Y69810D02*
X221096D01*
X31415Y180146D02*
Y209146D01*
X13915Y180146D02*
X31415D01*
X13915Y209146D02*
X31415D01*
X82187Y11595D02*
Y21910D01*
X145859Y16595D02*
X148359Y14095D01*
Y19095D01*
X145859Y16595D02*
X148359Y19095D01*
X142109Y11595D02*
Y21910D01*
X82187Y11595D02*
X142109D01*
X82187Y21910D02*
X142109D01*
X13654Y98516D02*
X31154D01*
X13654Y69516D02*
X31154D01*
Y98516D01*
X110039Y175039D02*
X113779D01*
X118898Y178779D02*
Y181535D01*
X110039D02*
X118898D01*
X110039Y175039D02*
Y181535D01*
X108366Y179370D02*
Y180157D01*
Y179370D02*
Y180157D01*
X109350Y179764D01*
X108366Y179370D02*
X109350Y179764D01*
X164075Y199709D02*
Y200496D01*
X171555D01*
Y199709D02*
Y200496D01*
Y188685D02*
Y189472D01*
X164075Y188685D02*
X171555D01*
X164075D02*
Y189472D01*
X132468Y174028D02*
X140469D01*
X132468Y180028D02*
X140469D01*
X88468Y174028D02*
X96469D01*
X88468Y180028D02*
X96469D01*
X110039Y209961D02*
X113779D01*
X118898Y213701D02*
Y216457D01*
X110039D02*
X118898D01*
X110039Y209961D02*
Y216457D01*
X108366Y214291D02*
Y215079D01*
Y214291D02*
Y215079D01*
X109350Y214685D01*
X108366Y214291D02*
X109350Y214685D01*
X132468Y209028D02*
X140469D01*
X132468Y215028D02*
X140469D01*
X88468Y209028D02*
X96469D01*
X88468Y215028D02*
X96469D01*
X145468Y232528D02*
X153469D01*
X145468Y238528D02*
X153469D01*
X112106Y238622D02*
Y239409D01*
X116831D01*
Y238622D02*
Y239409D01*
X112106Y231535D02*
Y232323D01*
Y231535D02*
X116831D01*
Y232323D01*
X75468Y232528D02*
X83469D01*
X75468Y238528D02*
X83469D01*
X68307Y199646D02*
Y200433D01*
X60827D02*
X68307D01*
X60827Y199646D02*
Y200433D01*
Y188622D02*
Y189409D01*
Y188622D02*
X68307D01*
Y189409D01*
X75528Y40252D02*
X83527D01*
X75528Y46252D02*
X83527D01*
X164134Y78409D02*
Y79197D01*
Y78409D02*
X171614D01*
Y79197D01*
Y89433D02*
Y90220D01*
X164134D02*
X171614D01*
X164134Y89433D02*
Y90220D01*
X108425Y69095D02*
X109409Y69488D01*
X108425Y69882D02*
X109409Y69488D01*
X108425Y69095D02*
Y69882D01*
Y69095D02*
Y69882D01*
X110098Y64764D02*
Y71260D01*
X118957D01*
Y68504D02*
Y71260D01*
X110098Y64764D02*
X113839D01*
X132527Y63752D02*
X140527D01*
X132527Y69752D02*
X140527D01*
X145528Y40252D02*
X153527D01*
X145528Y46252D02*
X153527D01*
X112165Y128402D02*
Y129189D01*
X116890D01*
Y128402D02*
Y129189D01*
X112165Y121315D02*
Y122102D01*
Y121315D02*
X116890D01*
Y122102D01*
X88528Y63752D02*
X96527D01*
X88528Y69752D02*
X96527D01*
X108425Y104036D02*
X109409Y104430D01*
X108425Y104824D02*
X109409Y104430D01*
X108425Y104036D02*
Y104824D01*
Y104036D02*
Y104824D01*
X110098Y99705D02*
Y106202D01*
X118957D01*
Y103446D02*
Y106202D01*
X110098Y99705D02*
X113839D01*
X88528Y98752D02*
X96527D01*
X88528Y104752D02*
X96527D01*
X132527Y98752D02*
X140527D01*
X132527Y104752D02*
X140527D01*
X145528Y122252D02*
X153527D01*
X145528Y128252D02*
X153527D01*
X145468Y150528D02*
X153469D01*
X145468Y156528D02*
X153469D01*
X75468Y150528D02*
X83469D01*
X75468Y156528D02*
X83469D01*
X75528Y122252D02*
X83527D01*
X75528Y128252D02*
X83527D01*
X82417Y253816D02*
Y264131D01*
X146088Y258816D02*
X148588Y256316D01*
Y261316D01*
X146088Y258816D02*
X148588Y261316D01*
X142338Y253816D02*
Y264131D01*
X82417Y253816D02*
X142338D01*
X82417Y264131D02*
X142338D01*
D11*
X18927Y213952D02*
X36828D01*
X18927Y265352D02*
X36828D01*
Y213952D02*
Y265352D01*
X18927Y213952D02*
Y265352D01*
X122069Y28603D02*
X129943D01*
X123054Y26635D02*
X128959D01*
X125022Y24666D02*
X126991D01*
X126006Y28603D02*
Y30572D01*
X128337Y246609D02*
Y248577D01*
X127353Y252514D02*
X129321D01*
X125384Y250546D02*
X131290D01*
X124400Y248577D02*
X132274D01*
X64473Y20579D02*
Y14581D01*
X67471D01*
X68471Y15580D01*
Y16580D01*
X67471Y17580D01*
X64473D01*
X67471D01*
X68471Y18579D01*
Y19579D01*
X67471Y20579D01*
X64473D01*
X74469Y14581D02*
X70470D01*
X74469Y18579D01*
Y19579D01*
X73470Y20579D01*
X71470D01*
X70470Y19579D01*
X107790Y115216D02*
Y111050D01*
X108623Y110217D01*
X110290D01*
X111123Y111050D01*
Y115216D01*
X112789Y110217D02*
X114455D01*
X113622D01*
Y115216D01*
X112789Y114382D01*
X116954D02*
X117787Y115216D01*
X119453D01*
X120286Y114382D01*
Y111050D01*
X119453Y110217D01*
X117787D01*
X116954Y111050D01*
Y114382D01*
X110480Y60373D02*
Y56208D01*
X111313Y55375D01*
X112979D01*
X113813Y56208D01*
Y60373D01*
X115479Y56208D02*
X116312Y55375D01*
X117978D01*
X118811Y56208D01*
Y59540D01*
X117978Y60373D01*
X116312D01*
X115479Y59540D01*
Y58707D01*
X116312Y57874D01*
X118811D01*
X60795Y97578D02*
Y93413D01*
X61628Y92580D01*
X63295D01*
X64128Y93413D01*
Y97578D01*
X65794Y96745D02*
X66627Y97578D01*
X68293D01*
X69126Y96745D01*
Y95912D01*
X68293Y95079D01*
X69126Y94246D01*
Y93413D01*
X68293Y92580D01*
X66627D01*
X65794Y93413D01*
Y94246D01*
X66627Y95079D01*
X65794Y95912D01*
Y96745D01*
X66627Y95079D02*
X68293D01*
X164496Y97759D02*
Y93594D01*
X165329Y92761D01*
X166995D01*
X167828Y93594D01*
Y97759D01*
X169494D02*
X172827D01*
Y96926D01*
X169494Y93594D01*
Y92761D01*
X123748Y137594D02*
Y133428D01*
X124581Y132595D01*
X126247D01*
X127080Y133428D01*
Y137594D01*
X132079D02*
X130413Y136761D01*
X128746Y135094D01*
Y133428D01*
X129579Y132595D01*
X131246D01*
X132079Y133428D01*
Y134261D01*
X131246Y135094D01*
X128746D01*
X108965Y206830D02*
Y202665D01*
X109798Y201832D01*
X111464D01*
X112297Y202665D01*
Y206830D01*
X117295D02*
X113963D01*
Y204331D01*
X115629Y205164D01*
X116462D01*
X117295Y204331D01*
Y202665D01*
X116462Y201832D01*
X114796D01*
X113963Y202665D01*
X109870Y170176D02*
Y166011D01*
X110703Y165178D01*
X112369D01*
X113202Y166011D01*
Y170176D01*
X117368Y165178D02*
Y170176D01*
X114868Y167677D01*
X118201D01*
X60719Y208653D02*
Y204487D01*
X61552Y203654D01*
X63218D01*
X64051Y204487D01*
Y208653D01*
X65717Y207820D02*
X66550Y208653D01*
X68217D01*
X69050Y207820D01*
Y206987D01*
X68217Y206153D01*
X67383D01*
X68217D01*
X69050Y205321D01*
Y204487D01*
X68217Y203654D01*
X66550D01*
X65717Y204487D01*
X161719Y208753D02*
Y204587D01*
X162552Y203754D01*
X164218D01*
X165051Y204587D01*
Y208753D01*
X170050Y203754D02*
X166717D01*
X170050Y207087D01*
Y207920D01*
X169217Y208753D01*
X167550D01*
X166717Y207920D01*
X119502Y238483D02*
Y234318D01*
X120335Y233485D01*
X122002D01*
X122835Y234318D01*
Y238483D01*
X124501Y233485D02*
X126167D01*
X125334D01*
Y238483D01*
X124501Y237650D01*
X14300Y101800D02*
Y106798D01*
X16799D01*
X17632Y105965D01*
Y104299D01*
X16799Y103466D01*
X14300D01*
X15966D02*
X17632Y101800D01*
X22631Y106798D02*
X19298D01*
Y104299D01*
X20965D01*
X19298D01*
Y101800D01*
X26796D02*
Y106798D01*
X24297Y104299D01*
X27629D01*
X204300Y102100D02*
Y107098D01*
X206799D01*
X207632Y106265D01*
Y104599D01*
X206799Y103766D01*
X204300D01*
X205966D02*
X207632Y102100D01*
X212631Y107098D02*
X209298D01*
Y104599D01*
X210964D01*
X209298D01*
Y102100D01*
X214297Y106265D02*
X215130Y107098D01*
X216796D01*
X217629Y106265D01*
Y105432D01*
X216796Y104599D01*
X215963D01*
X216796D01*
X217629Y103766D01*
Y102933D01*
X216796Y102100D01*
X215130D01*
X214297Y102933D01*
X45927Y203487D02*
X40928D01*
Y205987D01*
X41761Y206820D01*
X43428D01*
X44261Y205987D01*
Y203487D01*
Y205154D02*
X45927Y206820D01*
X40928Y211818D02*
Y208486D01*
X43428D01*
Y210152D01*
Y208486D01*
X45927D01*
Y216816D02*
Y213484D01*
X42595Y216816D01*
X41761D01*
X40928Y215983D01*
Y214317D01*
X41761Y213484D01*
X204800Y212800D02*
Y217798D01*
X207299D01*
X208132Y216965D01*
Y215299D01*
X207299Y214466D01*
X204800D01*
X206466D02*
X208132Y212800D01*
X213131Y217798D02*
X209798D01*
Y215299D01*
X211465D01*
X209798D01*
Y212800D01*
X214797D02*
X216463D01*
X215630D01*
Y217798D01*
X214797Y216965D01*
X70195Y261951D02*
Y256953D01*
X72694D01*
X73528Y257786D01*
Y258619D01*
X72694Y259452D01*
X70195D01*
X72694D01*
X73528Y260285D01*
Y261118D01*
X72694Y261951D01*
X70195D01*
X75194Y256953D02*
X76860D01*
X76027D01*
Y261951D01*
X75194Y261118D01*
X135951Y112120D02*
X135118Y112953D01*
X133452D01*
X132619Y112120D01*
Y108787D01*
X133452Y107954D01*
X135118D01*
X135951Y108787D01*
X137617Y107954D02*
X139283D01*
X138450D01*
Y112953D01*
X137617Y112120D01*
X145115Y112953D02*
X143449Y112120D01*
X141783Y110453D01*
Y108787D01*
X142616Y107954D01*
X144282D01*
X145115Y108787D01*
Y109620D01*
X144282Y110453D01*
X141783D01*
X89447Y115323D02*
X88614Y116156D01*
X86948D01*
X86115Y115323D01*
Y111991D01*
X86948Y111158D01*
X88614D01*
X89447Y111991D01*
X91113Y111158D02*
X92779D01*
X91946D01*
Y116156D01*
X91113Y115323D01*
X98611Y116156D02*
X95279D01*
Y113657D01*
X96945Y114490D01*
X97778D01*
X98611Y113657D01*
Y111991D01*
X97778Y111158D01*
X96112D01*
X95279Y111991D01*
X133887Y81528D02*
X133054Y82361D01*
X131388D01*
X130555Y81528D01*
Y78196D01*
X131388Y77363D01*
X133054D01*
X133887Y78196D01*
X135554Y77363D02*
X137220D01*
X136387D01*
Y82361D01*
X135554Y81528D01*
X142218Y77363D02*
Y82361D01*
X139719Y79862D01*
X143051D01*
X89565Y58753D02*
X88731Y59586D01*
X87065D01*
X86232Y58753D01*
Y55421D01*
X87065Y54587D01*
X88731D01*
X89565Y55421D01*
X91231Y54587D02*
X92897D01*
X92064D01*
Y59586D01*
X91231Y58753D01*
X95396D02*
X96229Y59586D01*
X97895D01*
X98728Y58753D01*
Y57920D01*
X97895Y57087D01*
X97062D01*
X97895D01*
X98728Y56254D01*
Y55421D01*
X97895Y54587D01*
X96229D01*
X95396Y55421D01*
X147065Y137918D02*
X146231Y138751D01*
X144565D01*
X143732Y137918D01*
Y134586D01*
X144565Y133753D01*
X146231D01*
X147065Y134586D01*
X148731Y133753D02*
X150397D01*
X149564D01*
Y138751D01*
X148731Y137918D01*
X156228Y133753D02*
X152896D01*
X156228Y137085D01*
Y137918D01*
X155395Y138751D01*
X153729D01*
X152896Y137918D01*
X75437Y135918D02*
X74604Y136751D01*
X72938D01*
X72105Y135918D01*
Y132586D01*
X72938Y131753D01*
X74604D01*
X75437Y132586D01*
X77103Y131753D02*
X78769D01*
X77936D01*
Y136751D01*
X77103Y135918D01*
X81269Y131753D02*
X82935D01*
X82102D01*
Y136751D01*
X81269Y135918D01*
X145588Y55587D02*
X144755Y56420D01*
X143089D01*
X142256Y55587D01*
Y52255D01*
X143089Y51422D01*
X144755D01*
X145588Y52255D01*
X147254Y51422D02*
X148921D01*
X148087D01*
Y56420D01*
X147254Y55587D01*
X151420D02*
X152253Y56420D01*
X153919D01*
X154752Y55587D01*
Y52255D01*
X153919Y51422D01*
X152253D01*
X151420Y52255D01*
Y55587D01*
X79049Y36705D02*
X78216Y37539D01*
X76550D01*
X75717Y36705D01*
Y33373D01*
X76550Y32540D01*
X78216D01*
X79049Y33373D01*
X80715D02*
X81548Y32540D01*
X83214D01*
X84047Y33373D01*
Y36705D01*
X83214Y37539D01*
X81548D01*
X80715Y36705D01*
Y35872D01*
X81548Y35039D01*
X84047D01*
X135851Y222420D02*
X135018Y223253D01*
X133352D01*
X132519Y222420D01*
Y219087D01*
X133352Y218254D01*
X135018D01*
X135851Y219087D01*
X137517Y222420D02*
X138350Y223253D01*
X140016D01*
X140849Y222420D01*
Y221587D01*
X140016Y220754D01*
X140849Y219920D01*
Y219087D01*
X140016Y218254D01*
X138350D01*
X137517Y219087D01*
Y219920D01*
X138350Y220754D01*
X137517Y221587D01*
Y222420D01*
X138350Y220754D02*
X140016D01*
X91687Y221115D02*
X90854Y221948D01*
X89187D01*
X88354Y221115D01*
Y217783D01*
X89187Y216950D01*
X90854D01*
X91687Y217783D01*
X93353Y221948D02*
X96685D01*
Y221115D01*
X93353Y217783D01*
Y216950D01*
X136108Y169087D02*
X135275Y169921D01*
X133609D01*
X132776Y169087D01*
Y165755D01*
X133609Y164922D01*
X135275D01*
X136108Y165755D01*
X141106Y169921D02*
X139440Y169087D01*
X137774Y167421D01*
Y165755D01*
X138607Y164922D01*
X140273D01*
X141106Y165755D01*
Y166588D01*
X140273Y167421D01*
X137774D01*
X91242Y169954D02*
X90409Y170787D01*
X88743D01*
X87910Y169954D01*
Y166621D01*
X88743Y165788D01*
X90409D01*
X91242Y166621D01*
X96240Y170787D02*
X92908D01*
Y168287D01*
X94574Y169121D01*
X95407D01*
X96240Y168287D01*
Y166621D01*
X95407Y165788D01*
X93741D01*
X92908Y166621D01*
X148851Y245920D02*
X148018Y246753D01*
X146352D01*
X145519Y245920D01*
Y242587D01*
X146352Y241754D01*
X148018D01*
X148851Y242587D01*
X153016Y241754D02*
Y246753D01*
X150517Y244253D01*
X153849D01*
X79620Y229320D02*
X78787Y230153D01*
X77121D01*
X76287Y229320D01*
Y225987D01*
X77121Y225154D01*
X78787D01*
X79620Y225987D01*
X81286Y229320D02*
X82119Y230153D01*
X83785D01*
X84618Y229320D01*
Y228487D01*
X83785Y227654D01*
X82952D01*
X83785D01*
X84618Y226820D01*
Y225987D01*
X83785Y225154D01*
X82119D01*
X81286Y225987D01*
X149462Y166666D02*
X148629Y167499D01*
X146963D01*
X146130Y166666D01*
Y163334D01*
X146963Y162501D01*
X148629D01*
X149462Y163334D01*
X154461Y162501D02*
X151128D01*
X154461Y165833D01*
Y166666D01*
X153628Y167499D01*
X151961D01*
X151128Y166666D01*
X80728Y167107D02*
X79895Y167940D01*
X78229D01*
X77396Y167107D01*
Y163775D01*
X78229Y162942D01*
X79895D01*
X80728Y163775D01*
X82394Y162942D02*
X84061D01*
X83227D01*
Y167940D01*
X82394Y167107D01*
D12*
X24827Y221317D02*
Y216652D01*
X28326D01*
Y218985D01*
Y216652D01*
X31825D01*
X24827Y223650D02*
Y225982D01*
Y224816D01*
X31825D01*
Y223650D01*
Y225982D01*
X24827Y229481D02*
X31825D01*
Y234146D01*
X24827Y236479D02*
Y241144D01*
Y238811D01*
X31825D01*
Y243477D02*
X24827D01*
Y246975D01*
X25994Y248142D01*
X28326D01*
X29493Y246975D01*
Y243477D01*
Y245809D02*
X31825Y248142D01*
X24827Y253973D02*
Y251641D01*
X25994Y250474D01*
X30659D01*
X31825Y251641D01*
Y253973D01*
X30659Y255139D01*
X25994D01*
X24827Y253973D01*
X25994Y262137D02*
X24827Y260971D01*
Y258638D01*
X25994Y257472D01*
X27160D01*
X28326Y258638D01*
Y260971D01*
X29493Y262137D01*
X30659D01*
X31825Y260971D01*
Y258638D01*
X30659Y257472D01*
X22128Y148852D02*
Y151184D01*
Y150018D01*
X29125D01*
Y148852D01*
Y151184D01*
Y154683D02*
X22128D01*
X29125Y159349D01*
X22128D01*
X30292Y161681D02*
Y166346D01*
X29125Y168679D02*
X24460D01*
X22128Y171011D01*
X24460Y173344D01*
X29125D01*
X25626D01*
Y168679D01*
X18327Y41352D02*
Y43685D01*
Y42518D01*
X25325D01*
Y41352D01*
Y43685D01*
Y47183D02*
X18327D01*
X25325Y51849D01*
X18327D01*
X26492Y54181D02*
Y58846D01*
X18327Y61179D02*
X25325D01*
Y64678D01*
X24159Y65844D01*
X22993D01*
X21826Y64678D01*
Y61179D01*
Y64678D01*
X20660Y65844D01*
X19494D01*
X18327Y64678D01*
Y61179D01*
X216921Y146444D02*
Y144111D01*
X218088Y142945D01*
X222753D01*
X223919Y144111D01*
Y146444D01*
X222753Y147610D01*
X218088D01*
X216921Y146444D01*
Y149943D02*
X222753D01*
X223919Y151109D01*
Y153442D01*
X222753Y154608D01*
X216921D01*
Y156940D02*
Y161606D01*
Y159273D01*
X223919D01*
X225085Y163938D02*
Y168603D01*
X223919Y170936D02*
X219254D01*
X216921Y173268D01*
X219254Y175601D01*
X223919D01*
X220420D01*
Y170936D01*
X217628Y27351D02*
Y25018D01*
X218794Y23852D01*
X223459D01*
X224625Y25018D01*
Y27351D01*
X223459Y28517D01*
X218794D01*
X217628Y27351D01*
Y30850D02*
X223459D01*
X224625Y32016D01*
Y34349D01*
X223459Y35515D01*
X217628D01*
Y37848D02*
Y42513D01*
Y40180D01*
X224625D01*
X225792Y44845D02*
Y49510D01*
X217628Y51843D02*
X224625D01*
Y55342D01*
X223459Y56508D01*
X222293D01*
X221126Y55342D01*
Y51843D01*
Y55342D01*
X219960Y56508D01*
X218794D01*
X217628Y55342D01*
Y51843D01*
D13*
X87250Y24861D02*
Y29859D01*
X84750Y27360D01*
X88083D01*
X94987Y28632D02*
X95820Y29465D01*
X97486D01*
X98319Y28632D01*
Y27799D01*
X97486Y26966D01*
X96653D01*
X97486D01*
X98319Y26133D01*
Y25300D01*
X97486Y24467D01*
X95820D01*
X94987Y25300D01*
X108949Y24467D02*
X105616D01*
X108949Y27799D01*
Y28632D01*
X108116Y29465D01*
X106450D01*
X105616Y28632D01*
X115459Y24861D02*
X117125D01*
X116292D01*
Y29859D01*
X115459Y29026D01*
X87527Y252162D02*
Y247164D01*
X90026Y249663D01*
X86694D01*
X99869Y247209D02*
X99035Y246376D01*
X97369D01*
X96536Y247209D01*
Y248042D01*
X97369Y248876D01*
X98202D01*
X97369D01*
X96536Y249709D01*
Y250542D01*
X97369Y251375D01*
X99035D01*
X99869Y250542D01*
X106379Y251768D02*
X109711D01*
X106379Y248436D01*
Y247603D01*
X107212Y246770D01*
X108878D01*
X109711Y247603D01*
X119160Y251375D02*
X117494D01*
X118327D01*
Y246376D01*
X119160Y247209D01*
M02*
