G04*
G04 #@! TF.GenerationSoftware,Altium Limited,Altium Designer,24.5.2 (23)*
G04*
G04 Layer_Color=2752767*
%FSLAX25Y25*%
%MOIN*%
G70*
G04*
G04 #@! TF.SameCoordinates,E566BAFE-53A3-49A5-9EFE-4B06B608819B*
G04*
G04*
G04 #@! TF.FilePolarity,Positive*
G04*
G01*
G75*
%ADD10C,0.00500*%
%ADD40C,0.00667*%
D10*
X211328Y244552D02*
X212328Y245552D01*
X213328D01*
X212328Y246552D01*
X213328Y247552D01*
X212328D01*
X211328Y248552D01*
X210328Y247552D01*
X209328D01*
X210328Y246552D01*
X209328Y245552D01*
X210328D01*
X211328Y244552D01*
X22828Y23852D02*
X23828Y24852D01*
X24827D01*
X23828Y25852D01*
X24827Y26852D01*
X23828D01*
X22828Y27852D01*
X21827Y26852D01*
X20828D01*
X21827Y25852D01*
X20828Y24852D01*
X21827D01*
X22828Y23852D01*
X85109Y14595D02*
Y18595D01*
X89109D01*
Y14595D01*
X85109D01*
X125109D02*
Y18595D01*
X129109D01*
Y14595D01*
X125109D01*
X115109D02*
Y18595D01*
X119109D01*
Y14595D01*
X115109D01*
X105109D02*
Y18595D01*
X109109D01*
Y14595D01*
X105109D01*
X95109D02*
Y18595D01*
X99109D01*
Y14595D01*
X95109D01*
X135109D02*
Y18595D01*
X139109D01*
Y14595D01*
X135109D01*
X135338Y256816D02*
Y260816D01*
X139338D01*
Y256816D01*
X135338D01*
X95338D02*
Y260816D01*
X99338D01*
Y256816D01*
X95338D01*
X105338D02*
Y260816D01*
X109338D01*
Y256816D01*
X105338D01*
X115338D02*
Y260816D01*
X119338D01*
Y256816D01*
X115338D01*
X125338D02*
Y260816D01*
X129338D01*
Y256816D01*
X125338D01*
X85338D02*
Y260816D01*
X89338D01*
Y256816D01*
X85338D01*
X116243Y227004D02*
X114243Y231004D01*
X118243D01*
X116243Y227004D01*
X112694D02*
X110694Y231004D01*
X114694D01*
X112694Y227004D01*
X116243Y239941D02*
X114243Y243941D01*
X118243D01*
X116243Y239941D01*
X112694D02*
X110694Y243941D01*
X114694D01*
X112694Y239941D01*
X116302Y116783D02*
X114302Y120783D01*
X118302D01*
X116302Y116783D01*
X112753Y129720D02*
X110753Y133721D01*
X114753D01*
X112753Y129720D01*
Y116783D02*
X110753Y120783D01*
X114753D01*
X112753Y116783D01*
X116302Y129720D02*
X114302Y133721D01*
X118302D01*
X116302Y129720D01*
D40*
X198328Y252752D02*
G03*
X198328Y252752I-2000J0D01*
G01*
X207764Y141068D02*
G03*
X207764Y141068I-2000J0D01*
G01*
X202764D02*
G03*
X202764Y141068I-2000J0D01*
G01*
X137268Y189354D02*
G03*
X137268Y189354I-2000J0D01*
G01*
X142269D02*
G03*
X142269Y189354I-2000J0D01*
G01*
X147268D02*
G03*
X147268Y189354I-2000J0D01*
G01*
X152269D02*
G03*
X152269Y189354I-2000J0D01*
G01*
X84113Y189291D02*
G03*
X84113Y189291I-2000J0D01*
G01*
X89113D02*
G03*
X89113Y189291I-2000J0D01*
G01*
X94113D02*
G03*
X94113Y189291I-2000J0D01*
G01*
Y199765D02*
G03*
X94113Y199765I-2000J0D01*
G01*
X89113D02*
G03*
X89113Y199765I-2000J0D01*
G01*
X84113D02*
G03*
X84113Y199765I-2000J0D01*
G01*
X152269Y199828D02*
G03*
X152269Y199828I-2000J0D01*
G01*
X147268D02*
G03*
X147268Y199828I-2000J0D01*
G01*
X142269D02*
G03*
X142269Y199828I-2000J0D01*
G01*
X137268D02*
G03*
X137268Y199828I-2000J0D01*
G01*
X152328Y78652D02*
G03*
X152328Y78652I-2000J0D01*
G01*
X147327D02*
G03*
X147327Y78652I-2000J0D01*
G01*
X142327D02*
G03*
X142327Y78652I-2000J0D01*
G01*
X137328D02*
G03*
X137328Y78652I-2000J0D01*
G01*
X127328Y77678D02*
G03*
X127328Y77678I-2000J0D01*
G01*
X132327Y78652D02*
G03*
X132327Y78652I-2000J0D01*
G01*
Y89252D02*
G03*
X132327Y89252I-2000J0D01*
G01*
X127328Y90952D02*
G03*
X127328Y90952I-2000J0D01*
G01*
X137328Y89552D02*
G03*
X137328Y89552I-2000J0D01*
G01*
X142327D02*
G03*
X142327Y89552I-2000J0D01*
G01*
X147327D02*
G03*
X147327Y89552I-2000J0D01*
G01*
X152328D02*
G03*
X152328Y89552I-2000J0D01*
G01*
X89828Y89252D02*
G03*
X89828Y89252I-2000J0D01*
G01*
X82828D02*
G03*
X82828Y89252I-2000J0D01*
G01*
X181138Y252816D02*
G03*
X181138Y252816I-2000J0D01*
G01*
X147764Y269868D02*
G03*
X147764Y269868I-2000J0D01*
G01*
X187764D02*
G03*
X187764Y269868I-2000J0D01*
G01*
X107764D02*
G03*
X107764Y269868I-2000J0D01*
G01*
X117764D02*
G03*
X117764Y269868I-2000J0D01*
G01*
X157764D02*
G03*
X157764Y269868I-2000J0D01*
G01*
X197764D02*
G03*
X197764Y269868I-2000J0D01*
G01*
X137764D02*
G03*
X137764Y269868I-2000J0D01*
G01*
X177764D02*
G03*
X177764Y269868I-2000J0D01*
G01*
X152764D02*
G03*
X152764Y269868I-2000J0D01*
G01*
X112764D02*
G03*
X112764Y269868I-2000J0D01*
G01*
X192764D02*
G03*
X192764Y269868I-2000J0D01*
G01*
X202764D02*
G03*
X202764Y269868I-2000J0D01*
G01*
X162764D02*
G03*
X162764Y269868I-2000J0D01*
G01*
X122764D02*
G03*
X122764Y269868I-2000J0D01*
G01*
X182764D02*
G03*
X182764Y269868I-2000J0D01*
G01*
X142764D02*
G03*
X142764Y269868I-2000J0D01*
G01*
X102764D02*
G03*
X102764Y269868I-2000J0D01*
G01*
X172764D02*
G03*
X172764Y269868I-2000J0D01*
G01*
X132764D02*
G03*
X132764Y269868I-2000J0D01*
G01*
X167764D02*
G03*
X167764Y269868I-2000J0D01*
G01*
X127764D02*
G03*
X127764Y269868I-2000J0D01*
G01*
X187921Y181028D02*
G03*
X187921Y181028I-2000J0D01*
G01*
X193138Y56016D02*
G03*
X193138Y56016I-2000J0D01*
G01*
X207638Y26216D02*
G03*
X207638Y26216I-2000J0D01*
G01*
X222096Y90810D02*
G03*
X222096Y90810I-2000J0D01*
G01*
Y77810D02*
G03*
X222096Y77810I-2000J0D01*
G01*
X186580Y53552D02*
G03*
X186580Y53552I-2000J0D01*
G01*
X216938Y56016D02*
G03*
X216938Y56016I-2000J0D01*
G01*
X218538Y117716D02*
G03*
X218538Y117716I-2000J0D01*
G01*
X191638Y111816D02*
G03*
X191638Y111816I-2000J0D01*
G01*
X215338Y224416D02*
G03*
X215338Y224416I-2000J0D01*
G01*
X217764Y269868D02*
G03*
X217764Y269868I-2000J0D01*
G01*
X212764D02*
G03*
X212764Y269868I-2000J0D01*
G01*
X207764D02*
G03*
X207764Y269868I-2000J0D01*
G01*
X222764D02*
G03*
X222764Y269868I-2000J0D01*
G01*
X12764D02*
G03*
X12764Y269868I-2000J0D01*
G01*
X17764D02*
G03*
X17764Y269868I-2000J0D01*
G01*
X107764Y6068D02*
G03*
X107764Y6068I-2000J0D01*
G01*
X118575Y39252D02*
G03*
X118575Y39252I-2000J0D01*
G01*
X158921Y200528D02*
G03*
X158921Y200528I-2000J0D01*
G01*
X129638Y200316D02*
G03*
X129638Y200316I-2000J0D01*
G01*
X232264Y99944D02*
G03*
X232264Y99944I-2000J0D01*
G01*
X219338Y104616D02*
G03*
X219338Y104616I-2000J0D01*
G01*
X193396Y80352D02*
G03*
X193396Y80352I-2000J0D01*
G01*
X186480Y97752D02*
G03*
X186480Y97752I-2000J0D01*
G01*
Y102752D02*
G03*
X186480Y102752I-2000J0D01*
G01*
X158980Y90752D02*
G03*
X158980Y90752I-2000J0D01*
G01*
X121238Y78016D02*
G03*
X121238Y78016I-2000J0D01*
G01*
X161480Y79252D02*
G03*
X161480Y79252I-2000J0D01*
G01*
X121711Y90916D02*
G03*
X121711Y90916I-2000J0D01*
G01*
X19115Y214146D02*
G03*
X19115Y214146I-2000J0D01*
G01*
X194038Y190616D02*
G03*
X194038Y190616I-2000J0D01*
G01*
X179921Y206028D02*
G03*
X179921Y206028I-2000J0D01*
G01*
X129838Y189316D02*
G03*
X129838Y189316I-2000J0D01*
G01*
X158921Y188528D02*
G03*
X158921Y188528I-2000J0D01*
G01*
X198838Y190816D02*
G03*
X198838Y190816I-2000J0D01*
G01*
X212096Y77810D02*
G03*
X212096Y77810I-2000J0D01*
G01*
X203396Y79610D02*
G03*
X203396Y79610I-2000J0D01*
G01*
X198396Y80110D02*
G03*
X198396Y80110I-2000J0D01*
G01*
X203838Y190316D02*
G03*
X203838Y190316I-2000J0D01*
G01*
X193838Y198816D02*
G03*
X193838Y198816I-2000J0D01*
G01*
X222538Y201516D02*
G03*
X222538Y201516I-2000J0D01*
G01*
X203838Y199716D02*
G03*
X203838Y199716I-2000J0D01*
G01*
X212538Y201516D02*
G03*
X212538Y201516I-2000J0D01*
G01*
X198838Y199216D02*
G03*
X198838Y199216I-2000J0D01*
G01*
X217538Y201516D02*
G03*
X217538Y201516I-2000J0D01*
G01*
X207538D02*
G03*
X207538Y201516I-2000J0D01*
G01*
X212538Y188516D02*
G03*
X212538Y188516I-2000J0D01*
G01*
X217538D02*
G03*
X217538Y188516I-2000J0D01*
G01*
X222538D02*
G03*
X222538Y188516I-2000J0D01*
G01*
X207538D02*
G03*
X207538Y188516I-2000J0D01*
G01*
X45215Y103701D02*
G03*
X45215Y103701I-2000J0D01*
G01*
X16515Y169546D02*
G03*
X16515Y169546I-2000J0D01*
G01*
X35615Y199346D02*
G03*
X35615Y199346I-2000J0D01*
G01*
X40615Y190446D02*
G03*
X40615Y190446I-2000J0D01*
G01*
X45615D02*
G03*
X45615Y190446I-2000J0D01*
G01*
X15654Y90516D02*
G03*
X15654Y90516I-2000J0D01*
G01*
X202764Y6068D02*
G03*
X202764Y6068I-2000J0D01*
G01*
X203396Y89009D02*
G03*
X203396Y89009I-2000J0D01*
G01*
X193396Y88510D02*
G03*
X193396Y88510I-2000J0D01*
G01*
X198396D02*
G03*
X198396Y88510I-2000J0D01*
G01*
X207096Y77810D02*
G03*
X207096Y77810I-2000J0D01*
G01*
Y90810D02*
G03*
X207096Y90810I-2000J0D01*
G01*
X212096D02*
G03*
X212096Y90810I-2000J0D01*
G01*
X217096D02*
G03*
X217096Y90810I-2000J0D01*
G01*
Y77810D02*
G03*
X217096Y77810I-2000J0D01*
G01*
X232264Y74944D02*
G03*
X232264Y74944I-2000J0D01*
G01*
Y84944D02*
G03*
X232264Y84944I-2000J0D01*
G01*
Y89944D02*
G03*
X232264Y89944I-2000J0D01*
G01*
Y104944D02*
G03*
X232264Y104944I-2000J0D01*
G01*
Y64944D02*
G03*
X232264Y64944I-2000J0D01*
G01*
Y94944D02*
G03*
X232264Y94944I-2000J0D01*
G01*
Y69944D02*
G03*
X232264Y69944I-2000J0D01*
G01*
Y109944D02*
G03*
X232264Y109944I-2000J0D01*
G01*
Y79944D02*
G03*
X232264Y79944I-2000J0D01*
G01*
X17515Y103646D02*
G03*
X17515Y103646I-2000J0D01*
G01*
X20715Y65246D02*
G03*
X20715Y65246I-2000J0D01*
G01*
X37215Y65046D02*
G03*
X37215Y65046I-2000J0D01*
G01*
X16415Y60746D02*
G03*
X16415Y60746I-2000J0D01*
G01*
X7764Y81068D02*
G03*
X7764Y81068I-2000J0D01*
G01*
Y86068D02*
G03*
X7764Y86068I-2000J0D01*
G01*
Y106068D02*
G03*
X7764Y106068I-2000J0D01*
G01*
Y101068D02*
G03*
X7764Y101068I-2000J0D01*
G01*
Y96068D02*
G03*
X7764Y96068I-2000J0D01*
G01*
Y91068D02*
G03*
X7764Y91068I-2000J0D01*
G01*
Y76068D02*
G03*
X7764Y76068I-2000J0D01*
G01*
Y111068D02*
G03*
X7764Y111068I-2000J0D01*
G01*
X17415Y109446D02*
G03*
X17415Y109446I-2000J0D01*
G01*
X52316Y209028D02*
G03*
X52316Y209028I-2000J0D01*
G01*
X51213Y191732D02*
G03*
X51213Y191732I-2000J0D01*
G01*
X7764Y66068D02*
G03*
X7764Y66068I-2000J0D01*
G01*
X76016Y199528D02*
G03*
X76016Y199528I-2000J0D01*
G01*
X45615Y198846D02*
G03*
X45615Y198846I-2000J0D01*
G01*
X131480Y97752D02*
G03*
X131480Y97752I-2000J0D01*
G01*
X126480D02*
G03*
X126480Y97752I-2000J0D01*
G01*
X106516Y216028D02*
G03*
X106516Y216028I-2000J0D01*
G01*
X227764Y141068D02*
G03*
X227764Y141068I-2000J0D01*
G01*
X222764D02*
G03*
X222764Y141068I-2000J0D01*
G01*
X217764D02*
G03*
X217764Y141068I-2000J0D01*
G01*
X212764D02*
G03*
X212764Y141068I-2000J0D01*
G01*
X187764D02*
G03*
X187764Y141068I-2000J0D01*
G01*
X182764D02*
G03*
X182764Y141068I-2000J0D01*
G01*
X177764D02*
G03*
X177764Y141068I-2000J0D01*
G01*
X172764D02*
G03*
X172764Y141068I-2000J0D01*
G01*
X167764D02*
G03*
X167764Y141068I-2000J0D01*
G01*
X162764D02*
G03*
X162764Y141068I-2000J0D01*
G01*
X157764D02*
G03*
X157764Y141068I-2000J0D01*
G01*
X152764D02*
G03*
X152764Y141068I-2000J0D01*
G01*
X147764D02*
G03*
X147764Y141068I-2000J0D01*
G01*
X142764D02*
G03*
X142764Y141068I-2000J0D01*
G01*
X137764D02*
G03*
X137764Y141068I-2000J0D01*
G01*
X132764D02*
G03*
X132764Y141068I-2000J0D01*
G01*
X127764D02*
G03*
X127764Y141068I-2000J0D01*
G01*
X122764D02*
G03*
X122764Y141068I-2000J0D01*
G01*
X117764D02*
G03*
X117764Y141068I-2000J0D01*
G01*
X112764D02*
G03*
X112764Y141068I-2000J0D01*
G01*
X107764D02*
G03*
X107764Y141068I-2000J0D01*
G01*
X102764D02*
G03*
X102764Y141068I-2000J0D01*
G01*
X97764D02*
G03*
X97764Y141068I-2000J0D01*
G01*
X92764D02*
G03*
X92764Y141068I-2000J0D01*
G01*
X87764D02*
G03*
X87764Y141068I-2000J0D01*
G01*
X82764D02*
G03*
X82764Y141068I-2000J0D01*
G01*
X77764D02*
G03*
X77764Y141068I-2000J0D01*
G01*
X72764D02*
G03*
X72764Y141068I-2000J0D01*
G01*
X67764D02*
G03*
X67764Y141068I-2000J0D01*
G01*
X62764D02*
G03*
X62764Y141068I-2000J0D01*
G01*
X57764D02*
G03*
X57764Y141068I-2000J0D01*
G01*
X52764D02*
G03*
X52764Y141068I-2000J0D01*
G01*
X37764D02*
G03*
X37764Y141068I-2000J0D01*
G01*
X32764D02*
G03*
X32764Y141068I-2000J0D01*
G01*
X27764D02*
G03*
X27764Y141068I-2000J0D01*
G01*
X22764D02*
G03*
X22764Y141068I-2000J0D01*
G01*
X17764D02*
G03*
X17764Y141068I-2000J0D01*
G01*
X12764D02*
G03*
X12764Y141068I-2000J0D01*
G01*
X232264Y6068D02*
G03*
X232264Y6068I-2000J0D01*
G01*
X227764D02*
G03*
X227764Y6068I-2000J0D01*
G01*
X222764D02*
G03*
X222764Y6068I-2000J0D01*
G01*
X232264Y9944D02*
G03*
X232264Y9944I-2000J0D01*
G01*
Y14944D02*
G03*
X232264Y14944I-2000J0D01*
G01*
Y19944D02*
G03*
X232264Y19944I-2000J0D01*
G01*
Y24944D02*
G03*
X232264Y24944I-2000J0D01*
G01*
Y29944D02*
G03*
X232264Y29944I-2000J0D01*
G01*
Y34944D02*
G03*
X232264Y34944I-2000J0D01*
G01*
Y39944D02*
G03*
X232264Y39944I-2000J0D01*
G01*
Y44944D02*
G03*
X232264Y44944I-2000J0D01*
G01*
Y49944D02*
G03*
X232264Y49944I-2000J0D01*
G01*
Y54944D02*
G03*
X232264Y54944I-2000J0D01*
G01*
Y59944D02*
G03*
X232264Y59944I-2000J0D01*
G01*
Y114944D02*
G03*
X232264Y114944I-2000J0D01*
G01*
Y119944D02*
G03*
X232264Y119944I-2000J0D01*
G01*
Y124944D02*
G03*
X232264Y124944I-2000J0D01*
G01*
Y129944D02*
G03*
X232264Y129944I-2000J0D01*
G01*
Y134944D02*
G03*
X232264Y134944I-2000J0D01*
G01*
Y139944D02*
G03*
X232264Y139944I-2000J0D01*
G01*
Y144944D02*
G03*
X232264Y144944I-2000J0D01*
G01*
Y149944D02*
G03*
X232264Y149944I-2000J0D01*
G01*
Y154944D02*
G03*
X232264Y154944I-2000J0D01*
G01*
Y159944D02*
G03*
X232264Y159944I-2000J0D01*
G01*
Y164944D02*
G03*
X232264Y164944I-2000J0D01*
G01*
Y169944D02*
G03*
X232264Y169944I-2000J0D01*
G01*
Y174944D02*
G03*
X232264Y174944I-2000J0D01*
G01*
Y179944D02*
G03*
X232264Y179944I-2000J0D01*
G01*
Y184944D02*
G03*
X232264Y184944I-2000J0D01*
G01*
Y189944D02*
G03*
X232264Y189944I-2000J0D01*
G01*
Y194944D02*
G03*
X232264Y194944I-2000J0D01*
G01*
Y199944D02*
G03*
X232264Y199944I-2000J0D01*
G01*
Y204944D02*
G03*
X232264Y204944I-2000J0D01*
G01*
Y209944D02*
G03*
X232264Y209944I-2000J0D01*
G01*
Y214944D02*
G03*
X232264Y214944I-2000J0D01*
G01*
Y219944D02*
G03*
X232264Y219944I-2000J0D01*
G01*
Y224944D02*
G03*
X232264Y224944I-2000J0D01*
G01*
Y229944D02*
G03*
X232264Y229944I-2000J0D01*
G01*
Y234944D02*
G03*
X232264Y234944I-2000J0D01*
G01*
Y239944D02*
G03*
X232264Y239944I-2000J0D01*
G01*
Y244944D02*
G03*
X232264Y244944I-2000J0D01*
G01*
Y249944D02*
G03*
X232264Y249944I-2000J0D01*
G01*
Y254944D02*
G03*
X232264Y254944I-2000J0D01*
G01*
Y259944D02*
G03*
X232264Y259944I-2000J0D01*
G01*
Y264944D02*
G03*
X232264Y264944I-2000J0D01*
G01*
Y269868D02*
G03*
X232264Y269868I-2000J0D01*
G01*
X227764D02*
G03*
X227764Y269868I-2000J0D01*
G01*
X97764D02*
G03*
X97764Y269868I-2000J0D01*
G01*
X92764D02*
G03*
X92764Y269868I-2000J0D01*
G01*
X87764D02*
G03*
X87764Y269868I-2000J0D01*
G01*
X217764Y6068D02*
G03*
X217764Y6068I-2000J0D01*
G01*
X212764D02*
G03*
X212764Y6068I-2000J0D01*
G01*
X207764D02*
G03*
X207764Y6068I-2000J0D01*
G01*
X197764D02*
G03*
X197764Y6068I-2000J0D01*
G01*
X192764D02*
G03*
X192764Y6068I-2000J0D01*
G01*
X187764D02*
G03*
X187764Y6068I-2000J0D01*
G01*
X182764D02*
G03*
X182764Y6068I-2000J0D01*
G01*
X177764D02*
G03*
X177764Y6068I-2000J0D01*
G01*
X172764D02*
G03*
X172764Y6068I-2000J0D01*
G01*
X167764D02*
G03*
X167764Y6068I-2000J0D01*
G01*
X162764D02*
G03*
X162764Y6068I-2000J0D01*
G01*
X157764D02*
G03*
X157764Y6068I-2000J0D01*
G01*
X152764D02*
G03*
X152764Y6068I-2000J0D01*
G01*
X147764D02*
G03*
X147764Y6068I-2000J0D01*
G01*
X142764D02*
G03*
X142764Y6068I-2000J0D01*
G01*
X137764D02*
G03*
X137764Y6068I-2000J0D01*
G01*
X132764D02*
G03*
X132764Y6068I-2000J0D01*
G01*
X127764D02*
G03*
X127764Y6068I-2000J0D01*
G01*
X122764D02*
G03*
X122764Y6068I-2000J0D01*
G01*
X117764D02*
G03*
X117764Y6068I-2000J0D01*
G01*
X112764D02*
G03*
X112764Y6068I-2000J0D01*
G01*
X102764D02*
G03*
X102764Y6068I-2000J0D01*
G01*
X97764D02*
G03*
X97764Y6068I-2000J0D01*
G01*
X92764D02*
G03*
X92764Y6068I-2000J0D01*
G01*
X87764D02*
G03*
X87764Y6068I-2000J0D01*
G01*
X82764D02*
G03*
X82764Y6068I-2000J0D01*
G01*
Y269868D02*
G03*
X82764Y269868I-2000J0D01*
G01*
X77764D02*
G03*
X77764Y269868I-2000J0D01*
G01*
X72764D02*
G03*
X72764Y269868I-2000J0D01*
G01*
X67764D02*
G03*
X67764Y269868I-2000J0D01*
G01*
X62764D02*
G03*
X62764Y269868I-2000J0D01*
G01*
X57764D02*
G03*
X57764Y269868I-2000J0D01*
G01*
X52764D02*
G03*
X52764Y269868I-2000J0D01*
G01*
X47764D02*
G03*
X47764Y269868I-2000J0D01*
G01*
X42764D02*
G03*
X42764Y269868I-2000J0D01*
G01*
X37764D02*
G03*
X37764Y269868I-2000J0D01*
G01*
X32764D02*
G03*
X32764Y269868I-2000J0D01*
G01*
X27764D02*
G03*
X27764Y269868I-2000J0D01*
G01*
X22764D02*
G03*
X22764Y269868I-2000J0D01*
G01*
X7764D02*
G03*
X7764Y269868I-2000J0D01*
G01*
X12764Y6068D02*
G03*
X12764Y6068I-2000J0D01*
G01*
X17764D02*
G03*
X17764Y6068I-2000J0D01*
G01*
X22764D02*
G03*
X22764Y6068I-2000J0D01*
G01*
X27764D02*
G03*
X27764Y6068I-2000J0D01*
G01*
X32764D02*
G03*
X32764Y6068I-2000J0D01*
G01*
X37764D02*
G03*
X37764Y6068I-2000J0D01*
G01*
X42764D02*
G03*
X42764Y6068I-2000J0D01*
G01*
X47764D02*
G03*
X47764Y6068I-2000J0D01*
G01*
X52764D02*
G03*
X52764Y6068I-2000J0D01*
G01*
X57764D02*
G03*
X57764Y6068I-2000J0D01*
G01*
X62764D02*
G03*
X62764Y6068I-2000J0D01*
G01*
X67764D02*
G03*
X67764Y6068I-2000J0D01*
G01*
X72764D02*
G03*
X72764Y6068I-2000J0D01*
G01*
X77764D02*
G03*
X77764Y6068I-2000J0D01*
G01*
X7764Y221068D02*
G03*
X7764Y221068I-2000J0D01*
G01*
Y226068D02*
G03*
X7764Y226068I-2000J0D01*
G01*
Y231068D02*
G03*
X7764Y231068I-2000J0D01*
G01*
Y236068D02*
G03*
X7764Y236068I-2000J0D01*
G01*
Y241068D02*
G03*
X7764Y241068I-2000J0D01*
G01*
Y246068D02*
G03*
X7764Y246068I-2000J0D01*
G01*
Y251068D02*
G03*
X7764Y251068I-2000J0D01*
G01*
Y256068D02*
G03*
X7764Y256068I-2000J0D01*
G01*
Y261068D02*
G03*
X7764Y261068I-2000J0D01*
G01*
Y266068D02*
G03*
X7764Y266068I-2000J0D01*
G01*
Y151068D02*
G03*
X7764Y151068I-2000J0D01*
G01*
Y156068D02*
G03*
X7764Y156068I-2000J0D01*
G01*
Y161068D02*
G03*
X7764Y161068I-2000J0D01*
G01*
Y166068D02*
G03*
X7764Y166068I-2000J0D01*
G01*
Y171068D02*
G03*
X7764Y171068I-2000J0D01*
G01*
Y176068D02*
G03*
X7764Y176068I-2000J0D01*
G01*
Y181068D02*
G03*
X7764Y181068I-2000J0D01*
G01*
Y186068D02*
G03*
X7764Y186068I-2000J0D01*
G01*
Y191068D02*
G03*
X7764Y191068I-2000J0D01*
G01*
Y196068D02*
G03*
X7764Y196068I-2000J0D01*
G01*
Y201068D02*
G03*
X7764Y201068I-2000J0D01*
G01*
Y206068D02*
G03*
X7764Y206068I-2000J0D01*
G01*
Y211068D02*
G03*
X7764Y211068I-2000J0D01*
G01*
Y216068D02*
G03*
X7764Y216068I-2000J0D01*
G01*
Y116068D02*
G03*
X7764Y116068I-2000J0D01*
G01*
Y121068D02*
G03*
X7764Y121068I-2000J0D01*
G01*
Y126068D02*
G03*
X7764Y126068I-2000J0D01*
G01*
Y131068D02*
G03*
X7764Y131068I-2000J0D01*
G01*
Y136068D02*
G03*
X7764Y136068I-2000J0D01*
G01*
Y141068D02*
G03*
X7764Y141068I-2000J0D01*
G01*
Y146068D02*
G03*
X7764Y146068I-2000J0D01*
G01*
Y71068D02*
G03*
X7764Y71068I-2000J0D01*
G01*
Y61068D02*
G03*
X7764Y61068I-2000J0D01*
G01*
Y56068D02*
G03*
X7764Y56068I-2000J0D01*
G01*
Y51068D02*
G03*
X7764Y51068I-2000J0D01*
G01*
Y46068D02*
G03*
X7764Y46068I-2000J0D01*
G01*
Y41068D02*
G03*
X7764Y41068I-2000J0D01*
G01*
Y36068D02*
G03*
X7764Y36068I-2000J0D01*
G01*
Y31068D02*
G03*
X7764Y31068I-2000J0D01*
G01*
Y26068D02*
G03*
X7764Y26068I-2000J0D01*
G01*
Y21068D02*
G03*
X7764Y21068I-2000J0D01*
G01*
Y16068D02*
G03*
X7764Y16068I-2000J0D01*
G01*
Y11068D02*
G03*
X7764Y11068I-2000J0D01*
G01*
Y6068D02*
G03*
X7764Y6068I-2000J0D01*
G01*
X40615Y198846D02*
G03*
X40615Y198846I-2000J0D01*
G01*
X35615Y189946D02*
G03*
X35615Y189946I-2000J0D01*
G01*
X35354Y79316D02*
G03*
X35354Y79316I-2000J0D01*
G01*
X40354Y79816D02*
G03*
X40354Y79816I-2000J0D01*
G01*
X45354D02*
G03*
X45354Y79816I-2000J0D01*
G01*
Y88216D02*
G03*
X45354Y88216I-2000J0D01*
G01*
X40354D02*
G03*
X40354Y88216I-2000J0D01*
G01*
X35354Y88716D02*
G03*
X35354Y88716I-2000J0D01*
G01*
X61173Y91496D02*
G03*
X61173Y91496I-2000J0D01*
G01*
X55075Y90852D02*
G03*
X55075Y90852I-2000J0D01*
G01*
X61775Y110852D02*
G03*
X61775Y110852I-2000J0D01*
G01*
Y105852D02*
G03*
X61775Y105852I-2000J0D01*
G01*
Y100852D02*
G03*
X61775Y100852I-2000J0D01*
G01*
Y95852D02*
G03*
X61775Y95852I-2000J0D01*
G01*
X54075D02*
G03*
X54075Y95852I-2000J0D01*
G01*
Y100852D02*
G03*
X54075Y100852I-2000J0D01*
G01*
Y105852D02*
G03*
X54075Y105852I-2000J0D01*
G01*
Y110852D02*
G03*
X54075Y110852I-2000J0D01*
G01*
Y115852D02*
G03*
X54075Y115852I-2000J0D01*
G01*
X61775D02*
G03*
X61775Y115852I-2000J0D01*
G01*
X179280Y92752D02*
G03*
X179280Y92752I-2000J0D01*
G01*
X185480D02*
G03*
X185480Y92752I-2000J0D01*
G01*
X178680Y97752D02*
G03*
X178680Y97752I-2000J0D01*
G01*
X186480Y107752D02*
G03*
X186480Y107752I-2000J0D01*
G01*
X178680Y102752D02*
G03*
X178680Y102752I-2000J0D01*
G01*
Y107752D02*
G03*
X178680Y107752I-2000J0D01*
G01*
X186480Y116252D02*
G03*
X186480Y116252I-2000J0D01*
G01*
Y112752D02*
G03*
X186480Y112752I-2000J0D01*
G01*
X178680D02*
G03*
X178680Y112752I-2000J0D01*
G01*
X185580Y119852D02*
G03*
X185580Y119852I-2000J0D01*
G01*
X178180Y117752D02*
G03*
X178180Y117752I-2000J0D01*
G01*
X182980Y124252D02*
G03*
X182980Y124252I-2000J0D01*
G01*
X179280Y127552D02*
G03*
X179280Y127552I-2000J0D01*
G01*
X174480Y121252D02*
G03*
X174480Y121252I-2000J0D01*
G01*
Y129052D02*
G03*
X174480Y129052I-2000J0D01*
G01*
X185980Y73552D02*
G03*
X185980Y73552I-2000J0D01*
G01*
X186580Y58552D02*
G03*
X186580Y58552I-2000J0D01*
G01*
Y63552D02*
G03*
X186580Y63552I-2000J0D01*
G01*
Y68552D02*
G03*
X186580Y68552I-2000J0D01*
G01*
X179280Y73552D02*
G03*
X179280Y73552I-2000J0D01*
G01*
X178980Y68552D02*
G03*
X178980Y68552I-2000J0D01*
G01*
Y63552D02*
G03*
X178980Y63552I-2000J0D01*
G01*
Y58552D02*
G03*
X178980Y58552I-2000J0D01*
G01*
Y53552D02*
G03*
X178980Y53552I-2000J0D01*
G01*
X185880Y48552D02*
G03*
X185880Y48552I-2000J0D01*
G01*
X183180Y44252D02*
G03*
X183180Y44252I-2000J0D01*
G01*
X179280Y41052D02*
G03*
X179280Y41052I-2000J0D01*
G01*
X177980Y49752D02*
G03*
X177980Y49752I-2000J0D01*
G01*
X174480Y39752D02*
G03*
X174480Y39752I-2000J0D01*
G01*
Y47252D02*
G03*
X174480Y47252I-2000J0D01*
G01*
X61112Y77525D02*
G03*
X61112Y77525I-2000J0D01*
G01*
X55575Y78252D02*
G03*
X55575Y78252I-2000J0D01*
G01*
X54375Y53652D02*
G03*
X54375Y53652I-2000J0D01*
G01*
X62075D02*
G03*
X62075Y53652I-2000J0D01*
G01*
X165680Y74952D02*
G03*
X165680Y74952I-2000J0D01*
G01*
X162480Y71252D02*
G03*
X162480Y71252I-2000J0D01*
G01*
X157980Y77252D02*
G03*
X157980Y77252I-2000J0D01*
G01*
X158980Y67752D02*
G03*
X158980Y67752I-2000J0D01*
G01*
X155480Y64752D02*
G03*
X155480Y64752I-2000J0D01*
G01*
X154480Y73752D02*
G03*
X154480Y73752I-2000J0D01*
G01*
X150980Y63252D02*
G03*
X150980Y63252I-2000J0D01*
G01*
Y70752D02*
G03*
X150980Y70752I-2000J0D01*
G01*
X145980Y62752D02*
G03*
X145980Y62752I-2000J0D01*
G01*
Y70752D02*
G03*
X145980Y70752I-2000J0D01*
G01*
X76075Y79452D02*
G03*
X76075Y79452I-2000J0D01*
G01*
X79075Y76252D02*
G03*
X79075Y76252I-2000J0D01*
G01*
X70575Y73752D02*
G03*
X70575Y73752I-2000J0D01*
G01*
X74075Y70252D02*
G03*
X74075Y70252I-2000J0D01*
G01*
X77575Y66752D02*
G03*
X77575Y66752I-2000J0D01*
G01*
X82575Y73252D02*
G03*
X82575Y73252I-2000J0D01*
G01*
X82075Y63952D02*
G03*
X82075Y63952I-2000J0D01*
G01*
X87075Y62752D02*
G03*
X87075Y62752I-2000J0D01*
G01*
Y70752D02*
G03*
X87075Y70752I-2000J0D01*
G01*
X163480Y97252D02*
G03*
X163480Y97252I-2000J0D01*
G01*
X159980Y100752D02*
G03*
X159980Y100752I-2000J0D01*
G01*
X155480Y94252D02*
G03*
X155480Y94252I-2000J0D01*
G01*
X155980Y103752D02*
G03*
X155980Y103752I-2000J0D01*
G01*
X151480Y105252D02*
G03*
X151480Y105252I-2000J0D01*
G01*
Y97252D02*
G03*
X151480Y97252I-2000J0D01*
G01*
X146480Y97752D02*
G03*
X146480Y97752I-2000J0D01*
G01*
Y105752D02*
G03*
X146480Y105752I-2000J0D01*
G01*
X71075Y93752D02*
G03*
X71075Y93752I-2000J0D01*
G01*
X79575Y92252D02*
G03*
X79575Y92252I-2000J0D01*
G01*
X74075Y97752D02*
G03*
X74075Y97752I-2000J0D01*
G01*
X77575Y101252D02*
G03*
X77575Y101252I-2000J0D01*
G01*
X82980Y95752D02*
G03*
X82980Y95752I-2000J0D01*
G01*
X81575Y104252D02*
G03*
X81575Y104252I-2000J0D01*
G01*
X86980Y97752D02*
G03*
X86980Y97752I-2000J0D01*
G01*
X86575Y105752D02*
G03*
X86575Y105752I-2000J0D01*
G01*
X163921Y183028D02*
G03*
X163921Y183028I-2000J0D01*
G01*
X159921Y179028D02*
G03*
X159921Y179028I-2000J0D01*
G01*
X155421Y185028D02*
G03*
X155421Y185028I-2000J0D01*
G01*
X155921Y175528D02*
G03*
X155921Y175528I-2000J0D01*
G01*
X151421Y181528D02*
G03*
X151421Y181528I-2000J0D01*
G01*
Y173528D02*
G03*
X151421Y173528I-2000J0D01*
G01*
X146421Y173028D02*
G03*
X146421Y173028I-2000J0D01*
G01*
Y181028D02*
G03*
X146421Y181028I-2000J0D01*
G01*
X163421Y207028D02*
G03*
X163421Y207028I-2000J0D01*
G01*
X159921Y210528D02*
G03*
X159921Y210528I-2000J0D01*
G01*
X155421Y204028D02*
G03*
X155421Y204028I-2000J0D01*
G01*
X155921Y214028D02*
G03*
X155921Y214028I-2000J0D01*
G01*
X151421Y215528D02*
G03*
X151421Y215528I-2000J0D01*
G01*
Y207528D02*
G03*
X151421Y207528I-2000J0D01*
G01*
X146421Y208028D02*
G03*
X146421Y208028I-2000J0D01*
G01*
Y216028D02*
G03*
X146421Y216028I-2000J0D01*
G01*
X75516Y189528D02*
G03*
X75516Y189528I-2000J0D01*
G01*
X71016Y185528D02*
G03*
X71016Y185528I-2000J0D01*
G01*
X79016Y187028D02*
G03*
X79016Y187028I-2000J0D01*
G01*
X83016Y183528D02*
G03*
X83016Y183528I-2000J0D01*
G01*
X86516Y173028D02*
G03*
X86516Y173028I-2000J0D01*
G01*
X81516Y174528D02*
G03*
X81516Y174528I-2000J0D01*
G01*
X87016Y181028D02*
G03*
X87016Y181028I-2000J0D01*
G01*
X77516Y177528D02*
G03*
X77516Y177528I-2000J0D01*
G01*
X74016Y181028D02*
G03*
X74016Y181028I-2000J0D01*
G01*
X70516Y204528D02*
G03*
X70516Y204528I-2000J0D01*
G01*
X74016Y208028D02*
G03*
X74016Y208028I-2000J0D01*
G01*
X79516Y202528D02*
G03*
X79516Y202528I-2000J0D01*
G01*
X77516Y211528D02*
G03*
X77516Y211528I-2000J0D01*
G01*
X83016Y206028D02*
G03*
X83016Y206028I-2000J0D01*
G01*
X87016Y208028D02*
G03*
X87016Y208028I-2000J0D01*
G01*
X81516Y214528D02*
G03*
X81516Y214528I-2000J0D01*
G01*
X86516Y216028D02*
G03*
X86516Y216028I-2000J0D01*
G01*
X126480Y105752D02*
G03*
X126480Y105752I-2000J0D01*
G01*
X141480Y106752D02*
G03*
X141480Y106752I-2000J0D01*
G01*
X136480D02*
G03*
X136480Y106752I-2000J0D01*
G01*
X131480Y105752D02*
G03*
X131480Y105752I-2000J0D01*
G01*
X126480Y70752D02*
G03*
X126480Y70752I-2000J0D01*
G01*
X141480Y71752D02*
G03*
X141480Y71752I-2000J0D01*
G01*
X136480D02*
G03*
X136480Y71752I-2000J0D01*
G01*
X131480Y70752D02*
G03*
X131480Y70752I-2000J0D01*
G01*
X126480Y62752D02*
G03*
X126480Y62752I-2000J0D01*
G01*
X141480Y61752D02*
G03*
X141480Y61752I-2000J0D01*
G01*
X136480D02*
G03*
X136480Y61752I-2000J0D01*
G01*
X131480Y62752D02*
G03*
X131480Y62752I-2000J0D01*
G01*
X141480Y96752D02*
G03*
X141480Y96752I-2000J0D01*
G01*
X136480D02*
G03*
X136480Y96752I-2000J0D01*
G01*
X106575Y62752D02*
G03*
X106575Y62752I-2000J0D01*
G01*
X91575Y61752D02*
G03*
X91575Y61752I-2000J0D01*
G01*
X96575D02*
G03*
X96575Y61752I-2000J0D01*
G01*
X101575Y62752D02*
G03*
X101575Y62752I-2000J0D01*
G01*
X106575Y97752D02*
G03*
X106575Y97752I-2000J0D01*
G01*
X91575Y96752D02*
G03*
X91575Y96752I-2000J0D01*
G01*
X96575D02*
G03*
X96575Y96752I-2000J0D01*
G01*
X101575Y97752D02*
G03*
X101575Y97752I-2000J0D01*
G01*
X106575Y105752D02*
G03*
X106575Y105752I-2000J0D01*
G01*
X91575Y106752D02*
G03*
X91575Y106752I-2000J0D01*
G01*
X96575D02*
G03*
X96575Y106752I-2000J0D01*
G01*
X101575Y105752D02*
G03*
X101575Y105752I-2000J0D01*
G01*
X106575Y70752D02*
G03*
X106575Y70752I-2000J0D01*
G01*
X91575Y71752D02*
G03*
X91575Y71752I-2000J0D01*
G01*
X96575D02*
G03*
X96575Y71752I-2000J0D01*
G01*
X101575Y70752D02*
G03*
X101575Y70752I-2000J0D01*
G01*
X106516Y181028D02*
G03*
X106516Y181028I-2000J0D01*
G01*
X91516Y182028D02*
G03*
X91516Y182028I-2000J0D01*
G01*
X96516D02*
G03*
X96516Y182028I-2000J0D01*
G01*
X101516Y181028D02*
G03*
X101516Y181028I-2000J0D01*
G01*
X106516Y173028D02*
G03*
X106516Y173028I-2000J0D01*
G01*
X91516Y172028D02*
G03*
X91516Y172028I-2000J0D01*
G01*
X96516D02*
G03*
X96516Y172028I-2000J0D01*
G01*
X101516Y173028D02*
G03*
X101516Y173028I-2000J0D01*
G01*
X126421D02*
G03*
X126421Y173028I-2000J0D01*
G01*
X141421Y172028D02*
G03*
X141421Y172028I-2000J0D01*
G01*
X136421D02*
G03*
X136421Y172028I-2000J0D01*
G01*
X131421Y173028D02*
G03*
X131421Y173028I-2000J0D01*
G01*
X126421Y181028D02*
G03*
X126421Y181028I-2000J0D01*
G01*
X141421Y182028D02*
G03*
X141421Y182028I-2000J0D01*
G01*
X136421D02*
G03*
X136421Y182028I-2000J0D01*
G01*
X131421Y181028D02*
G03*
X131421Y181028I-2000J0D01*
G01*
X126421Y216028D02*
G03*
X126421Y216028I-2000J0D01*
G01*
X141421Y217028D02*
G03*
X141421Y217028I-2000J0D01*
G01*
X136421D02*
G03*
X136421Y217028I-2000J0D01*
G01*
X131421Y216028D02*
G03*
X131421Y216028I-2000J0D01*
G01*
X126421Y208028D02*
G03*
X126421Y208028I-2000J0D01*
G01*
X141421Y207028D02*
G03*
X141421Y207028I-2000J0D01*
G01*
X136421D02*
G03*
X136421Y207028I-2000J0D01*
G01*
X131421Y208028D02*
G03*
X131421Y208028I-2000J0D01*
G01*
X106516D02*
G03*
X106516Y208028I-2000J0D01*
G01*
X91516Y207028D02*
G03*
X91516Y207028I-2000J0D01*
G01*
X96516D02*
G03*
X96516Y207028I-2000J0D01*
G01*
X101516Y208028D02*
G03*
X101516Y208028I-2000J0D01*
G01*
X91516Y217028D02*
G03*
X91516Y217028I-2000J0D01*
G01*
X96516D02*
G03*
X96516Y217028I-2000J0D01*
G01*
X101516Y216028D02*
G03*
X101516Y216028I-2000J0D01*
G01*
X186638Y185916D02*
G03*
X186638Y185916I-2000J0D01*
G01*
X180538D02*
G03*
X180538Y185916I-2000J0D01*
G01*
X179921Y181028D02*
G03*
X179921Y181028I-2000J0D01*
G01*
X187921Y176028D02*
G03*
X187921Y176028I-2000J0D01*
G01*
X179921D02*
G03*
X179921Y176028I-2000J0D01*
G01*
X187921Y171028D02*
G03*
X187921Y171028I-2000J0D01*
G01*
X179921D02*
G03*
X179921Y171028I-2000J0D01*
G01*
X187921Y166028D02*
G03*
X187921Y166028I-2000J0D01*
G01*
X187621Y161028D02*
G03*
X187621Y161028I-2000J0D01*
G01*
X179921Y166028D02*
G03*
X179921Y166028I-2000J0D01*
G01*
X178921Y160528D02*
G03*
X178921Y160528I-2000J0D01*
G01*
X185921Y156528D02*
G03*
X185921Y156528I-2000J0D01*
G01*
X182921Y153028D02*
G03*
X182921Y153028I-2000J0D01*
G01*
X178921Y150728D02*
G03*
X178921Y150728I-2000J0D01*
G01*
X174421Y149528D02*
G03*
X174421Y149528I-2000J0D01*
G01*
Y157528D02*
G03*
X174421Y157528I-2000J0D01*
G01*
X159480Y47252D02*
G03*
X159480Y47252I-2000J0D01*
G01*
X164480D02*
G03*
X164480Y47252I-2000J0D01*
G01*
X169480D02*
G03*
X169480Y47252I-2000J0D01*
G01*
X159480Y39252D02*
G03*
X159480Y39252I-2000J0D01*
G01*
X164480D02*
G03*
X164480Y39252I-2000J0D01*
G01*
X169480D02*
G03*
X169480Y39252I-2000J0D01*
G01*
X158421Y149528D02*
G03*
X158421Y149528I-2000J0D01*
G01*
X163421D02*
G03*
X163421Y149528I-2000J0D01*
G01*
X169421D02*
G03*
X169421Y149528I-2000J0D01*
G01*
Y157528D02*
G03*
X169421Y157528I-2000J0D01*
G01*
X163421D02*
G03*
X163421Y157528I-2000J0D01*
G01*
X158421D02*
G03*
X158421Y157528I-2000J0D01*
G01*
X52716Y163528D02*
G03*
X52716Y163528I-2000J0D01*
G01*
X55516Y155028D02*
G03*
X55516Y155028I-2000J0D01*
G01*
X59016Y152028D02*
G03*
X59016Y152028I-2000J0D01*
G01*
X63516Y150028D02*
G03*
X63516Y150028I-2000J0D01*
G01*
X68516Y149528D02*
G03*
X68516Y149528I-2000J0D01*
G01*
X73516D02*
G03*
X73516Y149528I-2000J0D01*
G01*
X60516Y162528D02*
G03*
X60516Y162528I-2000J0D01*
G01*
X63516Y158528D02*
G03*
X63516Y158528I-2000J0D01*
G01*
X68516Y157528D02*
G03*
X68516Y157528I-2000J0D01*
G01*
X73516D02*
G03*
X73516Y157528I-2000J0D01*
G01*
X88575Y39252D02*
G03*
X88575Y39252I-2000J0D01*
G01*
X83575Y38252D02*
G03*
X83575Y38252I-2000J0D01*
G01*
X78575D02*
G03*
X78575Y38252I-2000J0D01*
G01*
X93575Y39252D02*
G03*
X93575Y39252I-2000J0D01*
G01*
X98575D02*
G03*
X98575Y39252I-2000J0D01*
G01*
X103575D02*
G03*
X103575Y39252I-2000J0D01*
G01*
X143575D02*
G03*
X143575Y39252I-2000J0D01*
G01*
X148575Y38252D02*
G03*
X148575Y38252I-2000J0D01*
G01*
X153575D02*
G03*
X153575Y38252I-2000J0D01*
G01*
X138575Y39252D02*
G03*
X138575Y39252I-2000J0D01*
G01*
X133575D02*
G03*
X133575Y39252I-2000J0D01*
G01*
X128575D02*
G03*
X128575Y39252I-2000J0D01*
G01*
X108575D02*
G03*
X108575Y39252I-2000J0D01*
G01*
X113575D02*
G03*
X113575Y39252I-2000J0D01*
G01*
X123575D02*
G03*
X123575Y39252I-2000J0D01*
G01*
X88575Y47252D02*
G03*
X88575Y47252I-2000J0D01*
G01*
X83575Y48252D02*
G03*
X83575Y48252I-2000J0D01*
G01*
X78575D02*
G03*
X78575Y48252I-2000J0D01*
G01*
X93575Y47252D02*
G03*
X93575Y47252I-2000J0D01*
G01*
X98575D02*
G03*
X98575Y47252I-2000J0D01*
G01*
X103575D02*
G03*
X103575Y47252I-2000J0D01*
G01*
X143575D02*
G03*
X143575Y47252I-2000J0D01*
G01*
X148575Y48252D02*
G03*
X148575Y48252I-2000J0D01*
G01*
X153575D02*
G03*
X153575Y48252I-2000J0D01*
G01*
X138575Y47252D02*
G03*
X138575Y47252I-2000J0D01*
G01*
X133575D02*
G03*
X133575Y47252I-2000J0D01*
G01*
X128575D02*
G03*
X128575Y47252I-2000J0D01*
G01*
X108575D02*
G03*
X108575Y47252I-2000J0D01*
G01*
X113575D02*
G03*
X113575Y47252I-2000J0D01*
G01*
X118575D02*
G03*
X118575Y47252I-2000J0D01*
G01*
X123575D02*
G03*
X123575Y47252I-2000J0D01*
G01*
X143516Y149528D02*
G03*
X143516Y149528I-2000J0D01*
G01*
X138516D02*
G03*
X138516Y149528I-2000J0D01*
G01*
X133516D02*
G03*
X133516Y149528I-2000J0D01*
G01*
X128516D02*
G03*
X128516Y149528I-2000J0D01*
G01*
X108516D02*
G03*
X108516Y149528I-2000J0D01*
G01*
X113516D02*
G03*
X113516Y149528I-2000J0D01*
G01*
X118516D02*
G03*
X118516Y149528I-2000J0D01*
G01*
X123516D02*
G03*
X123516Y149528I-2000J0D01*
G01*
Y157528D02*
G03*
X123516Y157528I-2000J0D01*
G01*
X118516D02*
G03*
X118516Y157528I-2000J0D01*
G01*
X113516D02*
G03*
X113516Y157528I-2000J0D01*
G01*
X108516D02*
G03*
X108516Y157528I-2000J0D01*
G01*
X153516Y148528D02*
G03*
X153516Y148528I-2000J0D01*
G01*
X148516D02*
G03*
X148516Y148528I-2000J0D01*
G01*
X128516Y157528D02*
G03*
X128516Y157528I-2000J0D01*
G01*
X133516D02*
G03*
X133516Y157528I-2000J0D01*
G01*
X138516D02*
G03*
X138516Y157528I-2000J0D01*
G01*
X153516Y158528D02*
G03*
X153516Y158528I-2000J0D01*
G01*
X148516D02*
G03*
X148516Y158528I-2000J0D01*
G01*
X143516Y157528D02*
G03*
X143516Y157528I-2000J0D01*
G01*
X103516Y149528D02*
G03*
X103516Y149528I-2000J0D01*
G01*
X98516D02*
G03*
X98516Y149528I-2000J0D01*
G01*
X93516D02*
G03*
X93516Y149528I-2000J0D01*
G01*
X78516Y148528D02*
G03*
X78516Y148528I-2000J0D01*
G01*
X83516D02*
G03*
X83516Y148528I-2000J0D01*
G01*
X88516Y149528D02*
G03*
X88516Y149528I-2000J0D01*
G01*
X103516Y157528D02*
G03*
X103516Y157528I-2000J0D01*
G01*
X98516D02*
G03*
X98516Y157528I-2000J0D01*
G01*
X93516D02*
G03*
X93516Y157528I-2000J0D01*
G01*
X78516Y158528D02*
G03*
X78516Y158528I-2000J0D01*
G01*
X83516D02*
G03*
X83516Y158528I-2000J0D01*
G01*
X88516Y157528D02*
G03*
X88516Y157528I-2000J0D01*
G01*
X187921Y205528D02*
G03*
X187921Y205528I-2000J0D01*
G01*
X187721Y211528D02*
G03*
X187721Y211528I-2000J0D01*
G01*
Y216528D02*
G03*
X187721Y216528I-2000J0D01*
G01*
Y221528D02*
G03*
X187721Y221528I-2000J0D01*
G01*
X179921Y211528D02*
G03*
X179921Y211528I-2000J0D01*
G01*
Y216528D02*
G03*
X179921Y216528I-2000J0D01*
G01*
Y221528D02*
G03*
X179921Y221528I-2000J0D01*
G01*
Y226528D02*
G03*
X179921Y226528I-2000J0D01*
G01*
X187921D02*
G03*
X187921Y226528I-2000J0D01*
G01*
X186921Y231528D02*
G03*
X186921Y231528I-2000J0D01*
G01*
X183921Y235528D02*
G03*
X183921Y235528I-2000J0D01*
G01*
X179421Y238528D02*
G03*
X179421Y238528I-2000J0D01*
G01*
X177921Y230028D02*
G03*
X177921Y230028I-2000J0D01*
G01*
X174421Y231528D02*
G03*
X174421Y231528I-2000J0D01*
G01*
Y239528D02*
G03*
X174421Y239528I-2000J0D01*
G01*
X52616Y229028D02*
G03*
X52616Y229028I-2000J0D01*
G01*
X52316Y224028D02*
G03*
X52316Y224028I-2000J0D01*
G01*
Y219028D02*
G03*
X52316Y219028I-2000J0D01*
G01*
X54516Y233528D02*
G03*
X54516Y233528I-2000J0D01*
G01*
X52316Y214028D02*
G03*
X52316Y214028I-2000J0D01*
G01*
X73575Y39252D02*
G03*
X73575Y39252I-2000J0D01*
G01*
X68575D02*
G03*
X68575Y39252I-2000J0D01*
G01*
X73575Y47252D02*
G03*
X73575Y47252I-2000J0D01*
G01*
X68575D02*
G03*
X68575Y47252I-2000J0D01*
G01*
X55875Y46652D02*
G03*
X55875Y46652I-2000J0D01*
G01*
X59075Y42752D02*
G03*
X59075Y42752I-2000J0D01*
G01*
X63775Y48952D02*
G03*
X63775Y48952I-2000J0D01*
G01*
X63575Y40252D02*
G03*
X63575Y40252I-2000J0D01*
G01*
X159480Y129252D02*
G03*
X159480Y129252I-2000J0D01*
G01*
X164480D02*
G03*
X164480Y129252I-2000J0D01*
G01*
X158980Y121252D02*
G03*
X158980Y121252I-2000J0D01*
G01*
X163980D02*
G03*
X163980Y121252I-2000J0D01*
G01*
X169480D02*
G03*
X169480Y121252I-2000J0D01*
G01*
Y129252D02*
G03*
X169480Y129252I-2000J0D01*
G01*
X159421Y239528D02*
G03*
X159421Y239528I-2000J0D01*
G01*
X164421D02*
G03*
X164421Y239528I-2000J0D01*
G01*
X158921Y231528D02*
G03*
X158921Y231528I-2000J0D01*
G01*
X163921D02*
G03*
X163921Y231528I-2000J0D01*
G01*
X169421D02*
G03*
X169421Y231528I-2000J0D01*
G01*
Y239528D02*
G03*
X169421Y239528I-2000J0D01*
G01*
X73575Y129252D02*
G03*
X73575Y129252I-2000J0D01*
G01*
X68575D02*
G03*
X68575Y129252I-2000J0D01*
G01*
X74075Y121252D02*
G03*
X74075Y121252I-2000J0D01*
G01*
X69075D02*
G03*
X69075Y121252I-2000J0D01*
G01*
X55575Y122152D02*
G03*
X55575Y122152I-2000J0D01*
G01*
X58575Y126252D02*
G03*
X58575Y126252I-2000J0D01*
G01*
X64075Y120252D02*
G03*
X64075Y120252I-2000J0D01*
G01*
X63575Y128752D02*
G03*
X63575Y128752I-2000J0D01*
G01*
X63516Y239028D02*
G03*
X63516Y239028I-2000J0D01*
G01*
Y231028D02*
G03*
X63516Y231028I-2000J0D01*
G01*
X60116Y219028D02*
G03*
X60116Y219028I-2000J0D01*
G01*
X60716Y228328D02*
G03*
X60716Y228328I-2000J0D01*
G01*
X60116Y224028D02*
G03*
X60116Y224028I-2000J0D01*
G01*
X58516Y237028D02*
G03*
X58516Y237028I-2000J0D01*
G01*
X129480Y129252D02*
G03*
X129480Y129252I-2000J0D01*
G01*
X134480D02*
G03*
X134480Y129252I-2000J0D01*
G01*
X139480D02*
G03*
X139480Y129252I-2000J0D01*
G01*
X154480Y130252D02*
G03*
X154480Y130252I-2000J0D01*
G01*
X149480D02*
G03*
X149480Y130252I-2000J0D01*
G01*
X144480Y129252D02*
G03*
X144480Y129252I-2000J0D01*
G01*
X124480D02*
G03*
X124480Y129252I-2000J0D01*
G01*
X129480Y121252D02*
G03*
X129480Y121252I-2000J0D01*
G01*
X134480D02*
G03*
X134480Y121252I-2000J0D01*
G01*
X139480D02*
G03*
X139480Y121252I-2000J0D01*
G01*
X154480Y120252D02*
G03*
X154480Y120252I-2000J0D01*
G01*
X149480D02*
G03*
X149480Y120252I-2000J0D01*
G01*
X144480Y121252D02*
G03*
X144480Y121252I-2000J0D01*
G01*
X124480D02*
G03*
X124480Y121252I-2000J0D01*
G01*
X129421Y231528D02*
G03*
X129421Y231528I-2000J0D01*
G01*
X134421D02*
G03*
X134421Y231528I-2000J0D01*
G01*
X139421D02*
G03*
X139421Y231528I-2000J0D01*
G01*
X154421Y230528D02*
G03*
X154421Y230528I-2000J0D01*
G01*
X149421D02*
G03*
X149421Y230528I-2000J0D01*
G01*
X144421Y231528D02*
G03*
X144421Y231528I-2000J0D01*
G01*
X124421Y232528D02*
G03*
X124421Y232528I-2000J0D01*
G01*
X129421Y239528D02*
G03*
X129421Y239528I-2000J0D01*
G01*
X134421D02*
G03*
X134421Y239528I-2000J0D01*
G01*
X139421D02*
G03*
X139421Y239528I-2000J0D01*
G01*
X154421Y240528D02*
G03*
X154421Y240528I-2000J0D01*
G01*
X149421D02*
G03*
X149421Y240528I-2000J0D01*
G01*
X144421Y239528D02*
G03*
X144421Y239528I-2000J0D01*
G01*
X124421Y238528D02*
G03*
X124421Y238528I-2000J0D01*
G01*
X103575Y121252D02*
G03*
X103575Y121252I-2000J0D01*
G01*
X98575D02*
G03*
X98575Y121252I-2000J0D01*
G01*
X93575D02*
G03*
X93575Y121252I-2000J0D01*
G01*
X78575Y120252D02*
G03*
X78575Y120252I-2000J0D01*
G01*
X83575D02*
G03*
X83575Y120252I-2000J0D01*
G01*
X88575Y121252D02*
G03*
X88575Y121252I-2000J0D01*
G01*
X108575D02*
G03*
X108575Y121252I-2000J0D01*
G01*
X103575Y129252D02*
G03*
X103575Y129252I-2000J0D01*
G01*
X98575D02*
G03*
X98575Y129252I-2000J0D01*
G01*
X93575D02*
G03*
X93575Y129252I-2000J0D01*
G01*
X78575Y130252D02*
G03*
X78575Y130252I-2000J0D01*
G01*
X83575D02*
G03*
X83575Y130252I-2000J0D01*
G01*
X88575Y129252D02*
G03*
X88575Y129252I-2000J0D01*
G01*
X108480D02*
G03*
X108480Y129252I-2000J0D01*
G01*
X69016Y231528D02*
G03*
X69016Y231528I-2000J0D01*
G01*
X74016D02*
G03*
X74016Y231528I-2000J0D01*
G01*
X68516Y239528D02*
G03*
X68516Y239528I-2000J0D01*
G01*
X73516D02*
G03*
X73516Y239528I-2000J0D01*
G01*
X103516Y231528D02*
G03*
X103516Y231528I-2000J0D01*
G01*
X98516D02*
G03*
X98516Y231528I-2000J0D01*
G01*
X93516D02*
G03*
X93516Y231528I-2000J0D01*
G01*
X78516Y230528D02*
G03*
X78516Y230528I-2000J0D01*
G01*
X83516D02*
G03*
X83516Y230528I-2000J0D01*
G01*
X88516Y231528D02*
G03*
X88516Y231528I-2000J0D01*
G01*
X108516Y232528D02*
G03*
X108516Y232528I-2000J0D01*
G01*
Y238528D02*
G03*
X108516Y238528I-2000J0D01*
G01*
X88516Y239528D02*
G03*
X88516Y239528I-2000J0D01*
G01*
X83516Y240528D02*
G03*
X83516Y240528I-2000J0D01*
G01*
X78516D02*
G03*
X78516Y240528I-2000J0D01*
G01*
X53516Y187728D02*
G03*
X53516Y187728I-2000J0D01*
G01*
X59716D02*
G03*
X59716Y187728I-2000J0D01*
G01*
X53116Y182728D02*
G03*
X53116Y182728I-2000J0D01*
G01*
X50228Y78843D02*
G03*
X50228Y78843I-2000J0D01*
G01*
X53516Y159028D02*
G03*
X53516Y159028I-2000J0D01*
G01*
X30915Y188146D02*
G03*
X30915Y188146I-2000J0D01*
G01*
X60116Y182728D02*
G03*
X60116Y182728I-2000J0D01*
G01*
X60516Y177728D02*
G03*
X60516Y177728I-2000J0D01*
G01*
Y172728D02*
G03*
X60516Y172728I-2000J0D01*
G01*
X93516Y239528D02*
G03*
X93516Y239528I-2000J0D01*
G01*
X98516D02*
G03*
X98516Y239528I-2000J0D01*
G01*
X103516D02*
G03*
X103516Y239528I-2000J0D01*
G01*
X60516Y167728D02*
G03*
X60516Y167728I-2000J0D01*
G01*
X25915Y201146D02*
G03*
X25915Y201146I-2000J0D01*
G01*
X52706Y177728D02*
G03*
X52706Y177728I-2000J0D01*
G01*
X52716Y167728D02*
G03*
X52716Y167728I-2000J0D01*
G01*
Y172728D02*
G03*
X52716Y172728I-2000J0D01*
G01*
X59516Y203928D02*
G03*
X59516Y203928I-2000J0D01*
G01*
X60116Y209028D02*
G03*
X60116Y209028I-2000J0D01*
G01*
Y214028D02*
G03*
X60116Y214028I-2000J0D01*
G01*
X30915Y201146D02*
G03*
X30915Y201146I-2000J0D01*
G01*
X15915Y188146D02*
G03*
X15915Y188146I-2000J0D01*
G01*
X20915D02*
G03*
X20915Y188146I-2000J0D01*
G01*
X15915Y201146D02*
G03*
X15915Y201146I-2000J0D01*
G01*
X53316Y203928D02*
G03*
X53316Y203928I-2000J0D01*
G01*
X25915Y188146D02*
G03*
X25915Y188146I-2000J0D01*
G01*
X20915Y201146D02*
G03*
X20915Y201146I-2000J0D01*
G01*
X62075Y58652D02*
G03*
X62075Y58652I-2000J0D01*
G01*
X62275Y73652D02*
G03*
X62275Y73652I-2000J0D01*
G01*
X54375Y68652D02*
G03*
X54375Y68652I-2000J0D01*
G01*
Y73652D02*
G03*
X54375Y73652I-2000J0D01*
G01*
Y63652D02*
G03*
X54375Y63652I-2000J0D01*
G01*
Y58652D02*
G03*
X54375Y58652I-2000J0D01*
G01*
X62075Y63652D02*
G03*
X62075Y63652I-2000J0D01*
G01*
X62275Y68652D02*
G03*
X62275Y68652I-2000J0D01*
G01*
X75575Y89252D02*
G03*
X75575Y89252I-2000J0D01*
G01*
X25654Y90516D02*
G03*
X25654Y90516I-2000J0D01*
G01*
X20654D02*
G03*
X20654Y90516I-2000J0D01*
G01*
Y77516D02*
G03*
X20654Y77516I-2000J0D01*
G01*
X30654D02*
G03*
X30654Y77516I-2000J0D01*
G01*
X25654D02*
G03*
X25654Y77516I-2000J0D01*
G01*
X15654D02*
G03*
X15654Y77516I-2000J0D01*
G01*
X30654Y90516D02*
G03*
X30654Y90516I-2000J0D01*
G01*
M02*
