G04*
G04 #@! TF.GenerationSoftware,Altium Limited,Altium Designer,24.5.2 (23)*
G04*
G04 Layer_Color=255*
%FSLAX25Y25*%
%MOIN*%
G70*
G04*
G04 #@! TF.SameCoordinates,E566BAFE-53A3-49A5-9EFE-4B06B608819B*
G04*
G04*
G04 #@! TF.FilePolarity,Positive*
G04*
G01*
G75*
G04:AMPARAMS|DCode=14|XSize=29.92mil|YSize=94.49mil|CornerRadius=7.48mil|HoleSize=0mil|Usage=FLASHONLY|Rotation=180.000|XOffset=0mil|YOffset=0mil|HoleType=Round|Shape=RoundedRectangle|*
%AMROUNDEDRECTD14*
21,1,0.02992,0.07953,0,0,180.0*
21,1,0.01496,0.09449,0,0,180.0*
1,1,0.01496,-0.00748,0.03976*
1,1,0.01496,0.00748,0.03976*
1,1,0.01496,0.00748,-0.03976*
1,1,0.01496,-0.00748,-0.03976*
%
%ADD14ROUNDEDRECTD14*%
%ADD15R,0.02165X0.00984*%
%ADD16R,0.16000X0.07000*%
%ADD17R,0.16000X0.06000*%
%ADD18R,0.01968X0.01575*%
%ADD19R,0.03150X0.04331*%
%ADD33C,0.12598*%
%ADD34C,0.07087*%
%ADD35R,0.07087X0.07087*%
D14*
X64527Y84252D02*
D03*
X167913Y194591D02*
D03*
X64468Y194528D02*
D03*
X167972Y84315D02*
D03*
D15*
X61083Y80315D02*
D03*
Y82284D02*
D03*
Y84252D02*
D03*
Y86221D02*
D03*
Y88189D02*
D03*
X67972Y80315D02*
D03*
Y82284D02*
D03*
Y84252D02*
D03*
Y86221D02*
D03*
Y88189D02*
D03*
X171358Y198528D02*
D03*
Y196559D02*
D03*
Y194591D02*
D03*
Y192622D02*
D03*
Y190654D02*
D03*
X164469Y198528D02*
D03*
Y196559D02*
D03*
Y194591D02*
D03*
Y192622D02*
D03*
Y190654D02*
D03*
X116043Y237441D02*
D03*
Y235472D02*
D03*
Y233504D02*
D03*
X112894Y237441D02*
D03*
Y235472D02*
D03*
Y233504D02*
D03*
X67913Y198465D02*
D03*
Y196496D02*
D03*
Y194528D02*
D03*
Y192559D02*
D03*
Y190591D02*
D03*
X61024Y198465D02*
D03*
Y196496D02*
D03*
Y194528D02*
D03*
Y192559D02*
D03*
Y190591D02*
D03*
X164527Y80378D02*
D03*
Y82346D02*
D03*
Y84315D02*
D03*
Y86283D02*
D03*
Y88252D02*
D03*
X171417Y80378D02*
D03*
Y82346D02*
D03*
Y84315D02*
D03*
Y86283D02*
D03*
Y88252D02*
D03*
X116102Y127220D02*
D03*
Y125252D02*
D03*
Y123284D02*
D03*
X112953Y127220D02*
D03*
Y125252D02*
D03*
Y123284D02*
D03*
D16*
X213538Y185016D02*
D03*
Y205016D02*
D03*
X213096Y74309D02*
D03*
Y94310D02*
D03*
X21915Y204646D02*
D03*
Y184646D02*
D03*
X21654Y74016D02*
D03*
Y94016D02*
D03*
D17*
X213538Y195016D02*
D03*
X213096Y84310D02*
D03*
X21915Y194646D02*
D03*
X21654Y84016D02*
D03*
D18*
X112008Y177008D02*
D03*
Y179764D02*
D03*
X116929D02*
D03*
Y177008D02*
D03*
X112008Y211929D02*
D03*
Y214685D02*
D03*
X116929D02*
D03*
Y211929D02*
D03*
X116988Y66732D02*
D03*
Y69488D02*
D03*
X112067D02*
D03*
Y66732D02*
D03*
X116988Y101674D02*
D03*
Y104430D02*
D03*
X112067D02*
D03*
Y101674D02*
D03*
D19*
X139421Y177028D02*
D03*
X133516D02*
D03*
X95421D02*
D03*
X89516D02*
D03*
X139421Y212028D02*
D03*
X133516D02*
D03*
X95421D02*
D03*
X89516D02*
D03*
X152421Y235528D02*
D03*
X146516D02*
D03*
X82421D02*
D03*
X76516D02*
D03*
X82480Y43252D02*
D03*
X76575D02*
D03*
X139480Y66752D02*
D03*
X133575D02*
D03*
X152480Y43252D02*
D03*
X146575D02*
D03*
X95480Y66752D02*
D03*
X89575D02*
D03*
X95480Y101752D02*
D03*
X89575D02*
D03*
X139480D02*
D03*
X133575D02*
D03*
X152480Y125252D02*
D03*
X146575D02*
D03*
X152421Y153528D02*
D03*
X146516D02*
D03*
X82421D02*
D03*
X76516D02*
D03*
X82480Y125252D02*
D03*
X76575D02*
D03*
D33*
X211328Y246552D02*
D03*
X22828Y25852D02*
D03*
D34*
X87109Y16595D02*
D03*
X127109D02*
D03*
X117109D02*
D03*
X107109D02*
D03*
X97109D02*
D03*
X97338Y258816D02*
D03*
X107338D02*
D03*
X117338D02*
D03*
X127338D02*
D03*
X87338D02*
D03*
D35*
X137109Y16595D02*
D03*
X137338Y258816D02*
D03*
M02*
