M48
;Layer_Color=9474304
;FILE_FORMAT=2:5
INCH,TZ
;TYPE=PLATED
T01F00S00C0.01200
T02F00S00C0.08661
%
T01
X6205Y-145000
X6341Y-140000
Y-135000
Y-130000
X5000Y-125800
Y-114200
X6341Y-110000
Y-105000
Y-100000
Y-95000
Y-95000
Y-90000
Y-90000
X5000Y-85800
Y-74200
X6341Y-70000
X5479Y-60000
X6341Y-55000
Y-50000
X5000Y-45800
Y-34200
X6341Y-30000
Y-30000
Y-25000
Y-25000
Y-20000
Y-15000
Y-10000
X5000Y-5800
Y5800
X6341Y10000
X-0Y5800
X-5000
X-10000Y4500
X-15000Y3500
X-20862Y3500
X-25862
X-30862
X-35862
X-40862
X-45862
X-50862
X-55862Y4000
X-60862
X-65862Y3000
X-69862Y1000
X-73362Y-2500
X-75362Y-6500
X-76362Y-11500
X-81362Y-10500
X-86362
X-91362Y-12000
X-96362Y-14200
X-101362
X-106362
X-111362Y-14200
X-112521Y-10000
Y-5000
Y0
Y5000
Y10000
X-111362Y-25800
X-106362Y-25800
X-101362
X-96362
X-91362Y-28000
X-86362Y-29500
X-81362
X-76362Y-28500
X-77362Y-33500
Y-38500
X-72362Y-41000
X-67362Y-38500
X-67362Y-33453
X-67862Y-28453
X-63295Y-28517
X-59362Y-28509
X-54362
X-49362
X-44362
X-39362
X-34047Y-28509
X-29047Y-28500
Y-23500
X-20047
Y-28500
Y-33500
X-15500Y-36500
X-10000Y-35000
X-5000Y-34200
X-0
Y-45800
X-5547
X-10000Y-45000
X-15547Y-43500
X-22547Y-41453
X-26047Y-37953
X-28047Y-33453
X-22047Y-19000
X-25047Y-15000
X-29047Y-12000
X-34047Y-11491
X-39362Y-11491
X-44362
X-49362
X-54362
X-59362
X-63362Y-13953
X-67362Y-14000
X-68362Y-9000
X-65862Y-5000
X-60862Y-4000
X-55862
X-50862Y-3500
X-45862
X-40862
X-35862
X-30862
X-25862
X-20862
X-15000Y-3500
X-10000Y-4500
X-5000Y-5800
X-0
X479Y-60000
X-4521
X-9521
X-14521
X-19521
X-24521
X-29521
X-34521
X-39521
X-44521
X-49521
X-54521
X-59521
X-64521
X-69521
X-74521
X-79521
X-84521
X-89521
X-94521
X-99521
X-104521
X-109521
X-112521
Y-65000
Y-70000
Y-75000
Y-80000
Y-85000
Y-90000
X-111362Y-94200
X-106362Y-94200
X-101362
X-96362
X-91362Y-92000
X-86362Y-90500
X-81362
X-76362Y-91500
X-77362Y-86500
Y-81500
X-72362Y-79000
X-67362Y-81500
X-67362Y-86547
X-67862Y-91547
X-63295Y-91500
X-59362Y-91491
X-54362
X-49362
X-44362
X-39362
X-34047Y-91491
X-29047Y-91500
Y-96500
X-20047
Y-91500
Y-86500
X-15500Y-83500
X-10000Y-85000
X-5000Y-85800
X-0
Y-74200
X-5547
X-10000Y-75000
X-15547Y-76500
X-22547Y-78547
X-26047Y-82047
X-28047Y-86547
X-22047Y-101000
X-25047Y-105000
X-29047Y-108000
X-34047Y-108509
X-39362Y-108509
X-44362
X-49362
X-54362
X-59362
X-63362Y-106047
X-67362Y-106000
X-68362Y-111000
X-65862Y-115000
X-60862Y-116000
X-55862
X-50862Y-116500
X-45862
X-40862
X-35862
X-30862
X-25862
X-20862
X-15000Y-116500
X-10000Y-115500
X-5000Y-114200
X-0
Y-125800
X-5000
X-10000Y-124500
X-15000Y-123500
X-20862Y-123500
X-25862
X-30862
X-35862
X-40862
X-45862
X-50862
X-55862Y-124000
X-60862
X-65862Y-123000
X-69862Y-121000
X-73362Y-117500
X-75362Y-113500
X-76659Y-110000
X-81362Y-109500
X-86362
X-91362Y-108000
X-96362Y-105800
X-101362
X-106362
X-111362Y-105800
X-112521Y-110000
Y-115000
Y-120000
Y-125000
Y-130000
Y-135000
Y-140000
Y-145000
X-107521
X-102021
X-97521
X-92521
X-87521
X-82521
X-77521
X-72521
X-67521
X-62521
X-57521
X-52521
X-47521
X-42521
X-37521
X-32521
X-27521
X-22521
X-17521
X-12521
X-7521
X-2521
X2479
X-42610Y-100000
X-47610
X-52610
X-64862Y-101547
X-69521Y-100000
X-74521
X-79521
X-84521
X-89521
X-66862Y-96547
X-66862Y-23453
X-69521Y-20000
X-74521
X-79521
X-84521
X-89521
X-64862Y-18453
X-52610Y-20000
X-47610
X-42610
X-112521Y-30000
Y-35000
Y-40000
Y-45000
Y-50000
Y-55000
Y15000
Y20000
Y25000
X-104521Y25000
X-99521
X-94521
X-89521
X-84521
X-79521
X-74521
X-69521
X-64521
X-59521
X-54521
X-49521
X-44521
X-39521
X-34521
X-29521Y25000
X-24521
X-19521
X-14521
X-9521
X-4521
X479
X6341
Y20000
Y15000
T02
X-52521Y-136500
X-52427Y16000
M30
