G04*
G04 #@! TF.GenerationSoftware,Altium Limited,Altium Designer,24.4.1 (13)*
G04*
G04 Layer_Physical_Order=1*
G04 Layer_Color=255*
%FSLAX25Y25*%
%MOIN*%
G70*
G04*
G04 #@! TF.SameCoordinates,70BA40AD-3E04-444A-AD5C-AF6B0887806A*
G04*
G04*
G04 #@! TF.FilePolarity,Positive*
G04*
G01*
G75*
%ADD22C,0.02700*%
%ADD23R,0.05512X0.02992*%
%ADD24R,0.16000X0.06000*%
%ADD25R,0.16000X0.07000*%
%ADD26R,0.04331X0.03150*%
%ADD27R,0.03150X0.04331*%
%ADD28R,0.04331X0.03150*%
%ADD29R,0.03150X0.04331*%
%ADD30C,0.08661*%
%ADD31C,0.02400*%
G36*
X7929Y4200D02*
X-9200D01*
Y3334D01*
X-14191Y1988D01*
X-53235D01*
Y2765D01*
X-57140D01*
X-57584Y2765D01*
X-59140D01*
X-59584Y2765D01*
X-63490D01*
Y1879D01*
X-63989Y1839D01*
X-65818Y1400D01*
X-67556Y680D01*
X-69160Y-302D01*
X-70590Y-1524D01*
X-71812Y-2954D01*
X-72795Y-4558D01*
X-73514Y-6296D01*
X-73953Y-8125D01*
X-74100Y-9990D01*
X-74102Y-10000D01*
Y-12904D01*
X-75470D01*
Y-13012D01*
X-78735D01*
Y-12235D01*
X-82640D01*
X-83084Y-12235D01*
X-84640D01*
X-85084Y-12235D01*
X-88990D01*
Y-13183D01*
X-91058Y-13680D01*
X-93049Y-14504D01*
X-94886Y-15630D01*
X-95162Y-15866D01*
X-97162Y-15800D01*
Y-15800D01*
X-114242D01*
Y26929D01*
X7929D01*
Y4200D01*
D02*
G37*
G36*
X-9200Y-3334D02*
Y-4200D01*
X7929D01*
Y-35800D01*
X-9200D01*
Y-36666D01*
X-14191Y-38012D01*
X-15000D01*
X-15083Y-38028D01*
X-16479Y-37891D01*
X-17902Y-37459D01*
X-19213Y-36758D01*
X-20362Y-35815D01*
X-21306Y-34666D01*
X-21409Y-34473D01*
X-21782Y-32628D01*
X-21782Y-32628D01*
Y-28722D01*
X-21782Y-28278D01*
Y-26722D01*
X-21782Y-26278D01*
Y-22372D01*
X-22699D01*
X-23099Y-20705D01*
X-23768Y-19090D01*
X-24682Y-17599D01*
X-25817Y-16270D01*
X-27147Y-15135D01*
X-28637Y-14221D01*
X-29939Y-13682D01*
Y-12904D01*
X-36651D01*
Y-17096D01*
X-32288D01*
X-30943Y-17504D01*
X-29700Y-18169D01*
X-28610Y-19063D01*
X-27716Y-20153D01*
X-27547Y-20469D01*
X-27313Y-22372D01*
X-27313Y-22373D01*
Y-26278D01*
X-27313Y-26722D01*
Y-28278D01*
X-27313Y-28722D01*
Y-32628D01*
X-26302D01*
X-25968Y-34017D01*
X-25276Y-35688D01*
X-24330Y-37232D01*
X-23155Y-38608D01*
X-21779Y-39783D01*
X-20236Y-40729D01*
X-18564Y-41421D01*
X-16804Y-41844D01*
X-15022Y-41984D01*
X-15000Y-41988D01*
X-14191D01*
X-9200Y-43334D01*
Y-44200D01*
X7929D01*
Y-75800D01*
X-9200D01*
Y-76666D01*
X-14191Y-78012D01*
X-15000D01*
X-15022Y-78016D01*
X-16804Y-78156D01*
X-18564Y-78579D01*
X-20236Y-79272D01*
X-21779Y-80217D01*
X-23155Y-81392D01*
X-24330Y-82768D01*
X-25276Y-84311D01*
X-25968Y-85983D01*
X-26302Y-87372D01*
X-27313D01*
Y-91278D01*
X-27313Y-91722D01*
Y-93278D01*
X-27313Y-93722D01*
Y-97628D01*
X-27313D01*
X-27547Y-99531D01*
X-27716Y-99848D01*
X-28610Y-100937D01*
X-29700Y-101831D01*
X-30943Y-102496D01*
X-32288Y-102904D01*
X-36651D01*
Y-107096D01*
X-29939D01*
Y-106318D01*
X-28637Y-105779D01*
X-27147Y-104865D01*
X-25817Y-103730D01*
X-24682Y-102401D01*
X-23768Y-100910D01*
X-23099Y-99295D01*
X-22699Y-97628D01*
X-21782D01*
Y-93722D01*
X-21782Y-93278D01*
Y-91722D01*
X-21782Y-91278D01*
Y-87372D01*
X-21782D01*
X-21409Y-85527D01*
X-21306Y-85334D01*
X-20362Y-84185D01*
X-19213Y-83242D01*
X-17902Y-82541D01*
X-16479Y-82109D01*
X-15083Y-81972D01*
X-15000Y-81988D01*
X-14191D01*
X-9200Y-83334D01*
Y-84200D01*
X7929D01*
Y-115800D01*
X-9200D01*
Y-116666D01*
X-14191Y-118012D01*
X-53235D01*
Y-117235D01*
X-57140D01*
X-57584Y-117235D01*
X-59140D01*
X-59584Y-117235D01*
X-63490D01*
X-63490Y-117235D01*
X-65490Y-117267D01*
X-66580Y-116684D01*
X-67798Y-115684D01*
X-68798Y-114466D01*
X-69541Y-113076D01*
X-69998Y-111568D01*
X-70144Y-110090D01*
X-70126Y-110000D01*
Y-107096D01*
X-68758D01*
Y-102904D01*
X-75470D01*
Y-103012D01*
X-78735D01*
Y-102235D01*
X-82640D01*
X-83084Y-102235D01*
X-84640D01*
X-85084Y-102235D01*
X-88990D01*
Y-102235D01*
X-90935Y-102102D01*
X-92252Y-101398D01*
X-92379Y-101294D01*
Y-98706D01*
X-92252Y-98602D01*
X-90935Y-97898D01*
X-88990Y-97765D01*
X-88990Y-97765D01*
X-85084D01*
X-84640Y-97765D01*
X-83084D01*
X-82640Y-97765D01*
X-78735D01*
Y-96988D01*
X-75470D01*
Y-97096D01*
X-68758D01*
Y-92904D01*
X-70374D01*
Y-90128D01*
X-69597D01*
Y-85778D01*
X-75128D01*
Y-90128D01*
X-74350D01*
Y-92904D01*
X-75470D01*
Y-93012D01*
X-78735D01*
Y-92235D01*
X-82640D01*
X-83084Y-92235D01*
X-84640D01*
X-85084Y-92235D01*
X-88990D01*
Y-93183D01*
X-91058Y-93680D01*
X-93049Y-94504D01*
X-94886Y-95630D01*
X-95162Y-95866D01*
X-97162Y-95800D01*
Y-95800D01*
X-114242D01*
X-114242Y-24200D01*
X-97162D01*
Y-24200D01*
X-95162Y-24134D01*
X-94886Y-24370D01*
X-93049Y-25496D01*
X-91058Y-26320D01*
X-88990Y-26817D01*
Y-27765D01*
X-85084D01*
X-84640Y-27765D01*
X-83084D01*
X-82640Y-27765D01*
X-78735D01*
Y-26988D01*
X-75470D01*
Y-27096D01*
X-74102D01*
Y-29872D01*
X-75128D01*
Y-34222D01*
X-69597D01*
Y-29872D01*
X-70126D01*
Y-27096D01*
X-68758D01*
Y-22904D01*
X-75470D01*
Y-23012D01*
X-78735D01*
Y-22235D01*
X-82640D01*
X-83084Y-22235D01*
X-84640D01*
X-85084Y-22235D01*
X-88990D01*
Y-22235D01*
X-90935Y-22102D01*
X-92252Y-21398D01*
X-92379Y-21294D01*
Y-18706D01*
X-92252Y-18602D01*
X-90935Y-17898D01*
X-88990Y-17765D01*
X-88990Y-17765D01*
X-85084D01*
X-84640Y-17765D01*
X-83084D01*
X-82640Y-17765D01*
X-78735D01*
Y-16988D01*
X-75470D01*
Y-17096D01*
X-68758D01*
Y-12904D01*
X-70126D01*
Y-10000D01*
X-70144Y-9910D01*
X-69998Y-8432D01*
X-69541Y-6924D01*
X-68798Y-5534D01*
X-67798Y-4316D01*
X-66580Y-3316D01*
X-65490Y-2733D01*
X-63490Y-2765D01*
Y-2765D01*
X-59584D01*
X-59140Y-2765D01*
X-57584D01*
X-57140Y-2765D01*
X-53235D01*
Y-1988D01*
X-14191D01*
X-9200Y-3334D01*
D02*
G37*
G36*
X-7988Y-2988D02*
X-14063Y-1350D01*
Y1350D01*
X-7988Y2988D01*
Y-2988D01*
D02*
G37*
G36*
Y-42988D02*
X-14063Y-41350D01*
Y-38650D01*
X-7988Y-37012D01*
Y-42988D01*
D02*
G37*
G36*
Y-82988D02*
X-14063Y-81350D01*
Y-78650D01*
X-7988Y-77012D01*
Y-82988D01*
D02*
G37*
G36*
X-94886Y-104370D02*
X-93049Y-105496D01*
X-91058Y-106320D01*
X-88990Y-106817D01*
Y-107765D01*
X-85084D01*
X-84640Y-107765D01*
X-83084D01*
X-82640Y-107765D01*
X-78735D01*
Y-106988D01*
X-75470D01*
Y-107096D01*
X-74102D01*
Y-110000D01*
X-74100Y-110010D01*
X-73953Y-111875D01*
X-73514Y-113704D01*
X-72795Y-115442D01*
X-71812Y-117046D01*
X-70590Y-118476D01*
X-69160Y-119698D01*
X-67556Y-120680D01*
X-65818Y-121400D01*
X-63989Y-121839D01*
X-63490Y-121879D01*
Y-122765D01*
X-59584D01*
X-59140Y-122765D01*
X-57584D01*
X-57140Y-122765D01*
X-53235D01*
Y-121988D01*
X-14191D01*
X-9200Y-123334D01*
Y-124200D01*
X7929D01*
Y-146929D01*
X-114242D01*
Y-104200D01*
X-97162D01*
Y-104200D01*
X-95162Y-104134D01*
X-94886Y-104370D01*
D02*
G37*
G36*
X-7988Y-122988D02*
X-14063Y-121350D01*
Y-118650D01*
X-7988Y-117012D01*
Y-122988D01*
D02*
G37*
%LPC*%
G36*
X-52521Y23190D02*
X-53924Y23052D01*
X-55272Y22643D01*
X-56515Y21978D01*
X-57605Y21084D01*
X-58499Y19995D01*
X-59164Y18752D01*
X-59573Y17403D01*
X-59711Y16000D01*
X-59573Y14597D01*
X-59164Y13249D01*
X-58499Y12005D01*
X-57605Y10916D01*
X-56515Y10022D01*
X-55272Y9357D01*
X-53924Y8948D01*
X-52521Y8810D01*
X-51118Y8948D01*
X-49769Y9357D01*
X-48526Y10022D01*
X-47437Y10916D01*
X-46543Y12005D01*
X-45878Y13249D01*
X-45469Y14597D01*
X-45331Y16000D01*
X-45469Y17403D01*
X-45878Y18752D01*
X-46543Y19995D01*
X-47437Y21084D01*
X-48526Y21978D01*
X-49769Y22643D01*
X-51118Y23052D01*
X-52521Y23190D01*
D02*
G37*
G36*
X-43443Y-12904D02*
X-50155D01*
Y-13012D01*
X-55254D01*
Y-12904D01*
X-61966D01*
Y-15904D01*
X-61966Y-17096D01*
X-61966Y-19096D01*
X-61966Y-22096D01*
X-61966Y-24096D01*
Y-27096D01*
X-55254D01*
Y-26988D01*
X-50155D01*
Y-27096D01*
X-43443D01*
Y-22904D01*
X-50155D01*
Y-23012D01*
X-53634D01*
X-55254Y-22096D01*
X-55254Y-20904D01*
X-55254Y-17904D01*
X-53634Y-16988D01*
X-50155D01*
Y-17096D01*
X-43443D01*
Y-12904D01*
D02*
G37*
G36*
X-43443Y-92904D02*
X-50155D01*
Y-93012D01*
X-55254D01*
Y-92904D01*
X-61966D01*
Y-95904D01*
X-61966Y-97096D01*
X-61966Y-99096D01*
X-61966Y-102096D01*
X-61966Y-104096D01*
Y-107096D01*
X-55254D01*
Y-106988D01*
X-50155D01*
Y-107096D01*
X-43443D01*
Y-102904D01*
X-50155D01*
Y-103012D01*
X-53634D01*
X-55254Y-102096D01*
X-55254Y-100904D01*
X-55254Y-97904D01*
X-53634Y-96988D01*
X-50155D01*
Y-97096D01*
X-43443D01*
Y-92904D01*
D02*
G37*
G36*
X-52521Y-129310D02*
X-53924Y-129448D01*
X-55272Y-129857D01*
X-56515Y-130522D01*
X-57605Y-131416D01*
X-58499Y-132505D01*
X-59164Y-133748D01*
X-59573Y-135097D01*
X-59711Y-136500D01*
X-59573Y-137903D01*
X-59164Y-139251D01*
X-58499Y-140495D01*
X-57605Y-141584D01*
X-56515Y-142478D01*
X-55272Y-143143D01*
X-53924Y-143552D01*
X-52521Y-143690D01*
X-51118Y-143552D01*
X-49769Y-143143D01*
X-48526Y-142478D01*
X-47437Y-141584D01*
X-46543Y-140495D01*
X-45878Y-139251D01*
X-45469Y-137903D01*
X-45331Y-136500D01*
X-45469Y-135097D01*
X-45878Y-133748D01*
X-46543Y-132505D01*
X-47437Y-131416D01*
X-48526Y-130522D01*
X-49769Y-129857D01*
X-51118Y-129448D01*
X-52521Y-129310D01*
D02*
G37*
%LPD*%
D22*
X-96427Y-20000D02*
G03*
X-86815Y-25000I9612J6739D01*
G01*
X-86815Y-15000D02*
G03*
X-96427Y-20000I0J-11739D01*
G01*
X-15000Y-80000D02*
G03*
X-24547Y-89547I0J-9547D01*
G01*
X-33695Y-105009D02*
G03*
X-24539Y-95852I0J9156D01*
G01*
X-24547Y-30453D02*
G03*
X-15000Y-40000I9547J0D01*
G01*
X-24539Y-24148D02*
G03*
X-33695Y-14991I-9156J0D01*
G01*
X-62114Y0D02*
G03*
X-72114Y-10000I0J-10000D01*
G01*
X-86815Y-95000D02*
G03*
X-96427Y-100000I0J-11739D01*
G01*
X-96427Y-100000D02*
G03*
X-86815Y-105000I9612J6739D01*
G01*
X-72114Y-110000D02*
G03*
X-62114Y-120000I10000J0D01*
G01*
X-72362Y-32047D02*
G03*
X-72114Y-31799I0J248D01*
G01*
X-72362Y-95000D02*
Y-87953D01*
X-106362Y-20000D02*
X-96427D01*
X-106362Y-20000D02*
X-106362Y-20000D01*
X-15000Y-80000D02*
X0D01*
X-58610Y-105000D02*
X-46799D01*
X-58610Y-95000D02*
X-46799D01*
X-55409Y-120000D02*
X0D01*
X-15000Y-40000D02*
X0D01*
X-58610Y-25000D02*
X-46799D01*
X-58610Y-15000D02*
X-46799D01*
X-55409Y0D02*
X-2110D01*
X-62114D02*
X-61315D01*
X-72114Y-15000D02*
Y-10000D01*
X-96427Y-100000D02*
X-96427Y-100000D01*
X-96427Y-100000D02*
X-96427D01*
X-106362D02*
X-96427D01*
X-55409Y0D02*
X-55366Y-44D01*
X-72114Y-110000D02*
Y-105000D01*
X-62114Y-120000D02*
X-61315D01*
X-80909Y-105000D02*
X-72114D01*
X-80909Y-95000D02*
X-72362D01*
X-80909Y-15000D02*
X-72114D01*
Y-31799D02*
Y-25000D01*
X-80909D02*
X-72114D01*
D23*
X-33295Y-15000D02*
D03*
Y-20000D02*
D03*
Y-25000D02*
D03*
X-46799D02*
D03*
Y-15000D02*
D03*
X-33295Y-95000D02*
D03*
Y-100000D02*
D03*
Y-105000D02*
D03*
X-46799D02*
D03*
Y-95000D02*
D03*
X-58610Y-15000D02*
D03*
Y-20000D02*
D03*
Y-25000D02*
D03*
X-72114D02*
D03*
Y-15000D02*
D03*
X-58610Y-95000D02*
D03*
Y-100000D02*
D03*
Y-105000D02*
D03*
X-72114D02*
D03*
Y-95000D02*
D03*
D24*
X-106362Y-20000D02*
D03*
Y-100000D02*
D03*
X0Y-40000D02*
D03*
Y-80000D02*
D03*
Y0D02*
D03*
Y-120000D02*
D03*
D25*
X-106362Y-30000D02*
D03*
Y-10000D02*
D03*
Y-110000D02*
D03*
Y-90000D02*
D03*
X0Y-50000D02*
D03*
Y-30000D02*
D03*
Y-90000D02*
D03*
Y-70000D02*
D03*
Y-10000D02*
D03*
Y10000D02*
D03*
Y-130000D02*
D03*
Y-110000D02*
D03*
D26*
X-24547Y-30453D02*
D03*
Y-24547D02*
D03*
X-24547Y-89547D02*
D03*
Y-95453D02*
D03*
D27*
X-61315Y0D02*
D03*
X-55409D02*
D03*
X-61315Y-120000D02*
D03*
X-55409D02*
D03*
D28*
X-72362Y-32047D02*
D03*
Y-37953D02*
D03*
Y-87953D02*
D03*
Y-82047D02*
D03*
D29*
X-86815Y-25000D02*
D03*
X-80909D02*
D03*
X-86815Y-15000D02*
D03*
X-80909D02*
D03*
X-86815Y-95000D02*
D03*
X-80909D02*
D03*
X-86815Y-105000D02*
D03*
X-80909D02*
D03*
D30*
X-52521Y-136500D02*
D03*
X-52427Y16000D02*
D03*
D31*
X-59362Y-108509D02*
D03*
X-63295Y-28517D02*
D03*
Y-91500D02*
D03*
X-59362Y-91491D02*
D03*
X2479Y-145000D02*
D03*
X-2521D02*
D03*
X-7521D02*
D03*
X-12521D02*
D03*
X-17521D02*
D03*
X-22521D02*
D03*
X-27521D02*
D03*
X-54362Y-108509D02*
D03*
X-22547Y-78547D02*
D03*
X-26047Y-82047D02*
D03*
X-28047Y-86547D02*
D03*
X-29047Y-91500D02*
D03*
X-20047Y-86500D02*
D03*
X-5547Y-74200D02*
D03*
X-15547Y-76500D02*
D03*
X-15500Y-83500D02*
D03*
X-20047Y-96500D02*
D03*
X-34047Y-108509D02*
D03*
X-29047Y-108000D02*
D03*
X-20047Y-91500D02*
D03*
X-22047Y-101000D02*
D03*
X-25047Y-105000D02*
D03*
X-29047Y-96500D02*
D03*
X-49362Y-108509D02*
D03*
X-44362D02*
D03*
X-39362D02*
D03*
X6341Y-110000D02*
D03*
Y-105000D02*
D03*
Y-100000D02*
D03*
Y-95000D02*
D03*
Y-90000D02*
D03*
X-5000Y-85800D02*
D03*
X-0D02*
D03*
X5000D02*
D03*
X-10000Y-85000D02*
D03*
X6341Y-90000D02*
D03*
Y-95000D02*
D03*
X-0Y-74200D02*
D03*
X5000D02*
D03*
X-10000Y-75000D02*
D03*
X6341Y-70000D02*
D03*
X-39362Y-91491D02*
D03*
X-44362D02*
D03*
X-49362D02*
D03*
X-34047Y-91491D02*
D03*
X-54362Y-91491D02*
D03*
X-52610Y-100000D02*
D03*
X-47610D02*
D03*
X-42610D02*
D03*
Y-20000D02*
D03*
X-47610D02*
D03*
X-52610D02*
D03*
X-30862Y-116500D02*
D03*
X-35862D02*
D03*
X-40862D02*
D03*
X-45862D02*
D03*
X-25862D02*
D03*
X-20862D02*
D03*
X5000Y-114200D02*
D03*
X-0D02*
D03*
X-5000D02*
D03*
X-10000Y-115500D02*
D03*
X-15000Y-116500D02*
D03*
X-25862Y-123500D02*
D03*
X-45862D02*
D03*
X-35862D02*
D03*
X-30862D02*
D03*
X-40862D02*
D03*
X-20862D02*
D03*
X6205Y-145000D02*
D03*
X5000Y-125800D02*
D03*
X-0D02*
D03*
X-5000D02*
D03*
X-10000Y-124500D02*
D03*
X-15000Y-123500D02*
D03*
X6341Y-130000D02*
D03*
Y-135000D02*
D03*
Y-140000D02*
D03*
X5479Y-60000D02*
D03*
X479D02*
D03*
X-4521D02*
D03*
X-9521D02*
D03*
X-14521D02*
D03*
X-19521D02*
D03*
X-24521D02*
D03*
X-59362Y-28509D02*
D03*
X-54362D02*
D03*
X-34047Y-28509D02*
D03*
X-49362Y-28509D02*
D03*
X-44362D02*
D03*
X-39362D02*
D03*
X6341Y-55000D02*
D03*
Y-50000D02*
D03*
X-10000Y-45000D02*
D03*
X5000Y-45800D02*
D03*
X-0D02*
D03*
X6341Y-25000D02*
D03*
Y-30000D02*
D03*
X-10000Y-35000D02*
D03*
X5000Y-34200D02*
D03*
X-0D02*
D03*
X-5000D02*
D03*
X-76659Y-110000D02*
D03*
X6341Y-30000D02*
D03*
Y-25000D02*
D03*
Y-20000D02*
D03*
Y-15000D02*
D03*
Y-10000D02*
D03*
X-15000Y-3500D02*
D03*
X-10000Y-4500D02*
D03*
X-5000Y-5800D02*
D03*
X-0D02*
D03*
X5000D02*
D03*
X6341Y25000D02*
D03*
Y20000D02*
D03*
Y15000D02*
D03*
Y10000D02*
D03*
X-15000Y3500D02*
D03*
X-10000Y4500D02*
D03*
X-5000Y5800D02*
D03*
X-0D02*
D03*
X5000D02*
D03*
X-39362Y-11491D02*
D03*
X-44362D02*
D03*
X-49362D02*
D03*
X479Y25000D02*
D03*
X-4521D02*
D03*
X-9521D02*
D03*
X-14521D02*
D03*
X-19521D02*
D03*
X-24521D02*
D03*
X-29047Y-23500D02*
D03*
X-25047Y-15000D02*
D03*
X-22047Y-19000D02*
D03*
X-20047Y-28500D02*
D03*
X-29047Y-12000D02*
D03*
X-34047Y-11491D02*
D03*
X-20047Y-23500D02*
D03*
X-15500Y-36500D02*
D03*
X-15547Y-43500D02*
D03*
X-5547Y-45800D02*
D03*
X-20047Y-33500D02*
D03*
X-29047Y-28500D02*
D03*
X-28047Y-33453D02*
D03*
X-26047Y-37953D02*
D03*
X-22547Y-41453D02*
D03*
X-20862Y-3500D02*
D03*
X-25862D02*
D03*
X-20862Y3500D02*
D03*
X-63362Y-106047D02*
D03*
X-64862Y-101547D02*
D03*
X-112521Y-145000D02*
D03*
X-32521D02*
D03*
X-112521Y-140000D02*
D03*
X-107521Y-145000D02*
D03*
X-102021D02*
D03*
X-97521D02*
D03*
X-92521D02*
D03*
X-87521D02*
D03*
X-82521D02*
D03*
X-77521D02*
D03*
X-72521D02*
D03*
X-67521D02*
D03*
X-62521D02*
D03*
X-57521D02*
D03*
X-52521D02*
D03*
X-47521D02*
D03*
X-42521D02*
D03*
X-37521D02*
D03*
X-112521Y25000D02*
D03*
X-29521D02*
D03*
X-112521Y20000D02*
D03*
X-89521Y-100000D02*
D03*
X-84521D02*
D03*
X-79521D02*
D03*
X-74521D02*
D03*
X-69521D02*
D03*
X-106362Y-105800D02*
D03*
X-101362D02*
D03*
X-96362D02*
D03*
X-91362Y-108000D02*
D03*
X-86362Y-109500D02*
D03*
X-81362D02*
D03*
X-75362Y-113500D02*
D03*
X-60862Y-124000D02*
D03*
X-55862D02*
D03*
X-50862Y-123500D02*
D03*
X-65862Y-123000D02*
D03*
X-69862Y-121000D02*
D03*
X-73362Y-117500D02*
D03*
X-50862Y-116500D02*
D03*
X-55862Y-116000D02*
D03*
X-60862D02*
D03*
X-111362Y-105800D02*
D03*
X-111362Y-94200D02*
D03*
X-76362Y-91500D02*
D03*
X-81362Y-90500D02*
D03*
X-86362D02*
D03*
X-91362Y-92000D02*
D03*
X-96362Y-94200D02*
D03*
X-101362D02*
D03*
X-106362D02*
D03*
X-65862Y-115000D02*
D03*
X-68362Y-111000D02*
D03*
X-67362Y-106000D02*
D03*
X-77362Y-86500D02*
D03*
X-67362Y-86547D02*
D03*
X-67862Y-91547D02*
D03*
X-66862Y-96547D02*
D03*
X-72362Y-79000D02*
D03*
X-77362Y-81500D02*
D03*
X-67362D02*
D03*
X-67362Y-38500D02*
D03*
X-77362D02*
D03*
X-72362Y-41000D02*
D03*
X-63362Y-13953D02*
D03*
X-64862Y-18453D02*
D03*
X-66862Y-23453D02*
D03*
X-67862Y-28453D02*
D03*
X-67362Y-33453D02*
D03*
X-77362Y-33500D02*
D03*
X-54362Y-11491D02*
D03*
X-59362D02*
D03*
X-67362Y-14000D02*
D03*
X-68362Y-9000D02*
D03*
X-65862Y-5000D02*
D03*
X-40862Y3500D02*
D03*
X-30862D02*
D03*
X-106362Y-25800D02*
D03*
X-101362D02*
D03*
X-96362D02*
D03*
X-91362Y-28000D02*
D03*
X-86362Y-29500D02*
D03*
X-81362D02*
D03*
X-76362Y-28500D02*
D03*
X-111362Y-25800D02*
D03*
X-111362Y-14200D02*
D03*
X-60862Y-4000D02*
D03*
X-55862D02*
D03*
X-50862Y-3500D02*
D03*
X-45862D02*
D03*
X-40862D02*
D03*
X-35862D02*
D03*
X-30862D02*
D03*
X-73362Y-2500D02*
D03*
X-69862Y1000D02*
D03*
X-65862Y3000D02*
D03*
X-35862Y3500D02*
D03*
X-45862D02*
D03*
X-50862D02*
D03*
X-55862Y4000D02*
D03*
X-60862D02*
D03*
X-75362Y-6500D02*
D03*
X-76362Y-11500D02*
D03*
X-81362Y-10500D02*
D03*
X-86362D02*
D03*
X-91362Y-12000D02*
D03*
X-96362Y-14200D02*
D03*
X-101362D02*
D03*
X-106362D02*
D03*
X-69521Y-20000D02*
D03*
X-74521D02*
D03*
X-79521D02*
D03*
X-84521D02*
D03*
X-89521D02*
D03*
X-109521Y-60000D02*
D03*
X-104521D02*
D03*
X-99521D02*
D03*
X-94521D02*
D03*
X-89521D02*
D03*
X-84521D02*
D03*
X-79521D02*
D03*
X-74521D02*
D03*
X-69521D02*
D03*
X-64521D02*
D03*
X-59521D02*
D03*
X-54521D02*
D03*
X-49521D02*
D03*
X-44521D02*
D03*
X-39521D02*
D03*
X-34521D02*
D03*
X-104521Y25000D02*
D03*
X-99521D02*
D03*
X-94521D02*
D03*
X-89521D02*
D03*
X-84521D02*
D03*
X-79521D02*
D03*
X-74521D02*
D03*
X-69521D02*
D03*
X-64521D02*
D03*
X-59521D02*
D03*
X-54521D02*
D03*
X-49521D02*
D03*
X-44521D02*
D03*
X-39521D02*
D03*
X-34521D02*
D03*
X-25862Y3500D02*
D03*
X-29521Y-60000D02*
D03*
X-112521Y-135000D02*
D03*
Y-130000D02*
D03*
Y-125000D02*
D03*
Y-120000D02*
D03*
Y-115000D02*
D03*
Y-110000D02*
D03*
Y-90000D02*
D03*
Y-85000D02*
D03*
Y-80000D02*
D03*
Y-75000D02*
D03*
Y-70000D02*
D03*
Y-65000D02*
D03*
Y15000D02*
D03*
Y10000D02*
D03*
Y5000D02*
D03*
Y0D02*
D03*
Y-5000D02*
D03*
Y-10000D02*
D03*
Y-30000D02*
D03*
Y-35000D02*
D03*
Y-40000D02*
D03*
Y-45000D02*
D03*
Y-50000D02*
D03*
Y-55000D02*
D03*
Y-60000D02*
D03*
M02*
