G04*
G04 #@! TF.GenerationSoftware,Altium Limited,Altium Designer,24.4.1 (13)*
G04*
G04 Layer_Color=2752767*
%FSLAX25Y25*%
%MOIN*%
G70*
G04*
G04 #@! TF.SameCoordinates,70BA40AD-3E04-444A-AD5C-AF6B0887806A*
G04*
G04*
G04 #@! TF.FilePolarity,Positive*
G04*
G01*
G75*
%ADD11C,0.00500*%
%ADD33C,0.00667*%
D11*
X-61362Y-110509D02*
Y-106509D01*
X-57362D01*
Y-110509D01*
X-61362D01*
X-65295Y-30517D02*
Y-26517D01*
X-61295D01*
Y-30517D01*
X-65295D01*
Y-93500D02*
Y-89500D01*
X-61295D01*
Y-93500D01*
X-65295D01*
X-61362Y-93491D02*
Y-89491D01*
X-57362D01*
Y-93491D01*
X-61362D01*
X479Y-147000D02*
Y-143000D01*
X4479D01*
Y-147000D01*
X479D01*
X-4521D02*
Y-143000D01*
X-521D01*
Y-147000D01*
X-4521D01*
X-9521D02*
Y-143000D01*
X-5521D01*
Y-147000D01*
X-9521D01*
X-14521D02*
Y-143000D01*
X-10521D01*
Y-147000D01*
X-14521D01*
X-19521D02*
Y-143000D01*
X-15521D01*
Y-147000D01*
X-19521D01*
X-24521D02*
Y-143000D01*
X-20521D01*
Y-147000D01*
X-24521D01*
X-29521D02*
Y-143000D01*
X-25521D01*
Y-147000D01*
X-29521D01*
X-56362Y-110509D02*
Y-106509D01*
X-52362D01*
Y-110509D01*
X-56362D01*
X-24547Y-80547D02*
Y-76547D01*
X-20547D01*
Y-80547D01*
X-24547D01*
X-28047Y-84047D02*
Y-80047D01*
X-24047D01*
Y-84047D01*
X-28047D01*
X-30047Y-88547D02*
Y-84547D01*
X-26047D01*
Y-88547D01*
X-30047D01*
X-31047Y-93500D02*
Y-89500D01*
X-27047D01*
Y-93500D01*
X-31047D01*
X-22047Y-88500D02*
Y-84500D01*
X-18047D01*
Y-88500D01*
X-22047D01*
X-7547Y-76200D02*
Y-72200D01*
X-3547D01*
Y-76200D01*
X-7547D01*
X-17547Y-78500D02*
Y-74500D01*
X-13547D01*
Y-78500D01*
X-17547D01*
X-17500Y-85500D02*
Y-81500D01*
X-13500D01*
Y-85500D01*
X-17500D01*
X-22047Y-98500D02*
Y-94500D01*
X-18047D01*
Y-98500D01*
X-22047D01*
X-36047Y-110509D02*
Y-106509D01*
X-32047D01*
Y-110509D01*
X-36047D01*
X-31047Y-110000D02*
Y-106000D01*
X-27047D01*
Y-110000D01*
X-31047D01*
X-22047Y-93500D02*
Y-89500D01*
X-18047D01*
Y-93500D01*
X-22047D01*
X-24047Y-103000D02*
Y-99000D01*
X-20047D01*
Y-103000D01*
X-24047D01*
X-27047Y-107000D02*
Y-103000D01*
X-23047D01*
Y-107000D01*
X-27047D01*
X-31047Y-98500D02*
Y-94500D01*
X-27047D01*
Y-98500D01*
X-31047D01*
X-51362Y-110509D02*
Y-106509D01*
X-47362D01*
Y-110509D01*
X-51362D01*
X-46362D02*
Y-106509D01*
X-42362D01*
Y-110509D01*
X-46362D01*
X-41362D02*
Y-106509D01*
X-37362D01*
Y-110509D01*
X-41362D01*
X4341Y-112000D02*
Y-108000D01*
X8341D01*
Y-112000D01*
X4341D01*
Y-107000D02*
Y-103000D01*
X8341D01*
Y-107000D01*
X4341D01*
Y-102000D02*
Y-98000D01*
X8341D01*
Y-102000D01*
X4341D01*
Y-97000D02*
Y-93000D01*
X8341D01*
Y-97000D01*
X4341D01*
Y-92000D02*
Y-88000D01*
X8341D01*
Y-92000D01*
X4341D01*
X-7000Y-87800D02*
Y-83800D01*
X-3000D01*
Y-87800D01*
X-7000D01*
X-2000D02*
Y-83800D01*
X2000D01*
Y-87800D01*
X-2000D01*
X3000D02*
Y-83800D01*
X7000D01*
Y-87800D01*
X3000D01*
X-12000Y-87000D02*
Y-83000D01*
X-8000D01*
Y-87000D01*
X-12000D01*
X4341Y-92000D02*
Y-88000D01*
X8341D01*
Y-92000D01*
X4341D01*
Y-97000D02*
Y-93000D01*
X8341D01*
Y-97000D01*
X4341D01*
X-2000Y-76200D02*
Y-72200D01*
X2000D01*
Y-76200D01*
X-2000D01*
X3000D02*
Y-72200D01*
X7000D01*
Y-76200D01*
X3000D01*
X-12000Y-77000D02*
Y-73000D01*
X-8000D01*
Y-77000D01*
X-12000D01*
X4341Y-72000D02*
Y-68000D01*
X8341D01*
Y-72000D01*
X4341D01*
X-41362Y-93491D02*
Y-89491D01*
X-37362D01*
Y-93491D01*
X-41362D01*
X-46362D02*
Y-89491D01*
X-42362D01*
Y-93491D01*
X-46362D01*
X-51362D02*
Y-89491D01*
X-47362D01*
Y-93491D01*
X-51362D01*
X-36047Y-93491D02*
Y-89491D01*
X-32047D01*
Y-93491D01*
X-36047D01*
X-56362Y-93491D02*
Y-89491D01*
X-52362D01*
Y-93491D01*
X-56362D01*
X-54610Y-102000D02*
Y-98000D01*
X-50610D01*
Y-102000D01*
X-54610D01*
X-49610D02*
Y-98000D01*
X-45610D01*
Y-102000D01*
X-49610D01*
X-44610D02*
Y-98000D01*
X-40610D01*
Y-102000D01*
X-44610D01*
Y-22000D02*
Y-18000D01*
X-40610D01*
Y-22000D01*
X-44610D01*
X-49610D02*
Y-18000D01*
X-45610D01*
Y-22000D01*
X-49610D01*
X-54610D02*
Y-18000D01*
X-50610D01*
Y-22000D01*
X-54610D01*
X-32862Y-118500D02*
Y-114500D01*
X-28862D01*
Y-118500D01*
X-32862D01*
X-37862D02*
Y-114500D01*
X-33862D01*
Y-118500D01*
X-37862D01*
X-42862D02*
Y-114500D01*
X-38862D01*
Y-118500D01*
X-42862D01*
X-47862D02*
Y-114500D01*
X-43862D01*
Y-118500D01*
X-47862D01*
X-27862D02*
Y-114500D01*
X-23862D01*
Y-118500D01*
X-27862D01*
X-22862D02*
Y-114500D01*
X-18862D01*
Y-118500D01*
X-22862D01*
X3000Y-116200D02*
Y-112200D01*
X7000D01*
Y-116200D01*
X3000D01*
X-2000D02*
Y-112200D01*
X2000D01*
Y-116200D01*
X-2000D01*
X-7000D02*
Y-112200D01*
X-3000D01*
Y-116200D01*
X-7000D01*
X-12000Y-117500D02*
Y-113500D01*
X-8000D01*
Y-117500D01*
X-12000D01*
X-17000Y-118500D02*
Y-114500D01*
X-13000D01*
Y-118500D01*
X-17000D01*
X-27862Y-125500D02*
Y-121500D01*
X-23862D01*
Y-125500D01*
X-27862D01*
X-47862D02*
Y-121500D01*
X-43862D01*
Y-125500D01*
X-47862D01*
X-37862D02*
Y-121500D01*
X-33862D01*
Y-125500D01*
X-37862D01*
X-32862D02*
Y-121500D01*
X-28862D01*
Y-125500D01*
X-32862D01*
X-42862D02*
Y-121500D01*
X-38862D01*
Y-125500D01*
X-42862D01*
X-22862D02*
Y-121500D01*
X-18862D01*
Y-125500D01*
X-22862D01*
X4205Y-147000D02*
Y-143000D01*
X8205D01*
Y-147000D01*
X4205D01*
X3000Y-127800D02*
Y-123800D01*
X7000D01*
Y-127800D01*
X3000D01*
X-2000D02*
Y-123800D01*
X2000D01*
Y-127800D01*
X-2000D01*
X-7000D02*
Y-123800D01*
X-3000D01*
Y-127800D01*
X-7000D01*
X-12000Y-126500D02*
Y-122500D01*
X-8000D01*
Y-126500D01*
X-12000D01*
X-17000Y-125500D02*
Y-121500D01*
X-13000D01*
Y-125500D01*
X-17000D01*
X4341Y-132000D02*
Y-128000D01*
X8341D01*
Y-132000D01*
X4341D01*
Y-137000D02*
Y-133000D01*
X8341D01*
Y-137000D01*
X4341D01*
Y-142000D02*
Y-138000D01*
X8341D01*
Y-142000D01*
X4341D01*
X3479Y-62000D02*
Y-58000D01*
X7479D01*
Y-62000D01*
X3479D01*
X-1521D02*
Y-58000D01*
X2479D01*
Y-62000D01*
X-1521D01*
X-6521D02*
Y-58000D01*
X-2521D01*
Y-62000D01*
X-6521D01*
X-11521D02*
Y-58000D01*
X-7521D01*
Y-62000D01*
X-11521D01*
X-16521D02*
Y-58000D01*
X-12521D01*
Y-62000D01*
X-16521D01*
X-21521D02*
Y-58000D01*
X-17521D01*
Y-62000D01*
X-21521D01*
X-26521D02*
Y-58000D01*
X-22521D01*
Y-62000D01*
X-26521D01*
X-61362Y-30509D02*
Y-26509D01*
X-57362D01*
Y-30509D01*
X-61362D01*
X-56362D02*
Y-26509D01*
X-52362D01*
Y-30509D01*
X-56362D01*
X-36047Y-30509D02*
Y-26509D01*
X-32047D01*
Y-30509D01*
X-36047D01*
X-51362Y-30509D02*
Y-26509D01*
X-47362D01*
Y-30509D01*
X-51362D01*
X-46362D02*
Y-26509D01*
X-42362D01*
Y-30509D01*
X-46362D01*
X-41362D02*
Y-26509D01*
X-37362D01*
Y-30509D01*
X-41362D01*
X4341Y-57000D02*
Y-53000D01*
X8341D01*
Y-57000D01*
X4341D01*
Y-52000D02*
Y-48000D01*
X8341D01*
Y-52000D01*
X4341D01*
X-12000Y-47000D02*
Y-43000D01*
X-8000D01*
Y-47000D01*
X-12000D01*
X3000Y-47800D02*
Y-43800D01*
X7000D01*
Y-47800D01*
X3000D01*
X-2000D02*
Y-43800D01*
X2000D01*
Y-47800D01*
X-2000D01*
X4341Y-27000D02*
Y-23000D01*
X8341D01*
Y-27000D01*
X4341D01*
Y-32000D02*
Y-28000D01*
X8341D01*
Y-32000D01*
X4341D01*
X-12000Y-37000D02*
Y-33000D01*
X-8000D01*
Y-37000D01*
X-12000D01*
X3000Y-36200D02*
Y-32200D01*
X7000D01*
Y-36200D01*
X3000D01*
X-2000D02*
Y-32200D01*
X2000D01*
Y-36200D01*
X-2000D01*
X-7000D02*
Y-32200D01*
X-3000D01*
Y-36200D01*
X-7000D01*
X-78659Y-112000D02*
Y-108000D01*
X-74659D01*
Y-112000D01*
X-78659D01*
X4341Y-32000D02*
Y-28000D01*
X8341D01*
Y-32000D01*
X4341D01*
Y-27000D02*
Y-23000D01*
X8341D01*
Y-27000D01*
X4341D01*
Y-22000D02*
Y-18000D01*
X8341D01*
Y-22000D01*
X4341D01*
Y-17000D02*
Y-13000D01*
X8341D01*
Y-17000D01*
X4341D01*
Y-12000D02*
Y-8000D01*
X8341D01*
Y-12000D01*
X4341D01*
X-17000Y-5500D02*
Y-1500D01*
X-13000D01*
Y-5500D01*
X-17000D01*
X-12000Y-6500D02*
Y-2500D01*
X-8000D01*
Y-6500D01*
X-12000D01*
X-7000Y-7800D02*
Y-3800D01*
X-3000D01*
Y-7800D01*
X-7000D01*
X-2000D02*
Y-3800D01*
X2000D01*
Y-7800D01*
X-2000D01*
X3000D02*
Y-3800D01*
X7000D01*
Y-7800D01*
X3000D01*
X4341Y23000D02*
Y27000D01*
X8341D01*
Y23000D01*
X4341D01*
Y18000D02*
Y22000D01*
X8341D01*
Y18000D01*
X4341D01*
Y13000D02*
Y17000D01*
X8341D01*
Y13000D01*
X4341D01*
Y8000D02*
Y12000D01*
X8341D01*
Y8000D01*
X4341D01*
X-17000Y1500D02*
Y5500D01*
X-13000D01*
Y1500D01*
X-17000D01*
X-12000Y2500D02*
Y6500D01*
X-8000D01*
Y2500D01*
X-12000D01*
X-7000Y3800D02*
Y7800D01*
X-3000D01*
Y3800D01*
X-7000D01*
X-2000D02*
Y7800D01*
X2000D01*
Y3800D01*
X-2000D01*
X3000D02*
Y7800D01*
X7000D01*
Y3800D01*
X3000D01*
X-41362Y-13491D02*
Y-9491D01*
X-37362D01*
Y-13491D01*
X-41362D01*
X-46362D02*
Y-9491D01*
X-42362D01*
Y-13491D01*
X-46362D01*
X-51362D02*
Y-9491D01*
X-47362D01*
Y-13491D01*
X-51362D01*
X-1521Y23000D02*
Y27000D01*
X2479D01*
Y23000D01*
X-1521D01*
X-6521D02*
Y27000D01*
X-2521D01*
Y23000D01*
X-6521D01*
X-11521D02*
Y27000D01*
X-7521D01*
Y23000D01*
X-11521D01*
X-16521D02*
Y27000D01*
X-12521D01*
Y23000D01*
X-16521D01*
X-21521D02*
Y27000D01*
X-17521D01*
Y23000D01*
X-21521D01*
X-26521D02*
Y27000D01*
X-22521D01*
Y23000D01*
X-26521D01*
X-31047Y-25500D02*
Y-21500D01*
X-27047D01*
Y-25500D01*
X-31047D01*
X-27047Y-17000D02*
Y-13000D01*
X-23047D01*
Y-17000D01*
X-27047D01*
X-24047Y-21000D02*
Y-17000D01*
X-20047D01*
Y-21000D01*
X-24047D01*
X-22047Y-30500D02*
Y-26500D01*
X-18047D01*
Y-30500D01*
X-22047D01*
X-31047Y-14000D02*
Y-10000D01*
X-27047D01*
Y-14000D01*
X-31047D01*
X-36047Y-13491D02*
Y-9491D01*
X-32047D01*
Y-13491D01*
X-36047D01*
X-22047Y-25500D02*
Y-21500D01*
X-18047D01*
Y-25500D01*
X-22047D01*
X-17500Y-38500D02*
Y-34500D01*
X-13500D01*
Y-38500D01*
X-17500D01*
X-17547Y-45500D02*
Y-41500D01*
X-13547D01*
Y-45500D01*
X-17547D01*
X-7547Y-47800D02*
Y-43800D01*
X-3547D01*
Y-47800D01*
X-7547D01*
X-22047Y-35500D02*
Y-31500D01*
X-18047D01*
Y-35500D01*
X-22047D01*
X-31047Y-30500D02*
Y-26500D01*
X-27047D01*
Y-30500D01*
X-31047D01*
X-30047Y-35453D02*
Y-31453D01*
X-26047D01*
Y-35453D01*
X-30047D01*
X-28047Y-39953D02*
Y-35953D01*
X-24047D01*
Y-39953D01*
X-28047D01*
X-24547Y-43453D02*
Y-39453D01*
X-20547D01*
Y-43453D01*
X-24547D01*
X-22862Y-5500D02*
Y-1500D01*
X-18862D01*
Y-5500D01*
X-22862D01*
X-27862D02*
Y-1500D01*
X-23862D01*
Y-5500D01*
X-27862D01*
X-22862Y1500D02*
Y5500D01*
X-18862D01*
Y1500D01*
X-22862D01*
X-65362Y-108047D02*
Y-104047D01*
X-61362D01*
Y-108047D01*
X-65362D01*
X-66862Y-103547D02*
Y-99547D01*
X-62862D01*
Y-103547D01*
X-66862D01*
X-114521Y-147000D02*
Y-143000D01*
X-110521D01*
Y-147000D01*
X-114521D01*
X-34521D02*
Y-143000D01*
X-30521D01*
Y-147000D01*
X-34521D01*
X-114521Y-142000D02*
Y-138000D01*
X-110521D01*
Y-142000D01*
X-114521D01*
X-109521Y-147000D02*
Y-143000D01*
X-105521D01*
Y-147000D01*
X-109521D01*
X-104021D02*
Y-143000D01*
X-100021D01*
Y-147000D01*
X-104021D01*
X-99521D02*
Y-143000D01*
X-95521D01*
Y-147000D01*
X-99521D01*
X-94521D02*
Y-143000D01*
X-90521D01*
Y-147000D01*
X-94521D01*
X-89521D02*
Y-143000D01*
X-85521D01*
Y-147000D01*
X-89521D01*
X-84521D02*
Y-143000D01*
X-80521D01*
Y-147000D01*
X-84521D01*
X-79521D02*
Y-143000D01*
X-75521D01*
Y-147000D01*
X-79521D01*
X-74521D02*
Y-143000D01*
X-70521D01*
Y-147000D01*
X-74521D01*
X-69521D02*
Y-143000D01*
X-65521D01*
Y-147000D01*
X-69521D01*
X-64521D02*
Y-143000D01*
X-60521D01*
Y-147000D01*
X-64521D01*
X-59521D02*
Y-143000D01*
X-55521D01*
Y-147000D01*
X-59521D01*
X-54521D02*
Y-143000D01*
X-50521D01*
Y-147000D01*
X-54521D01*
X-49521D02*
Y-143000D01*
X-45521D01*
Y-147000D01*
X-49521D01*
X-44521D02*
Y-143000D01*
X-40521D01*
Y-147000D01*
X-44521D01*
X-39521D02*
Y-143000D01*
X-35521D01*
Y-147000D01*
X-39521D01*
X-114521Y23000D02*
Y27000D01*
X-110521D01*
Y23000D01*
X-114521D01*
X-31521D02*
Y27000D01*
X-27521D01*
Y23000D01*
X-31521D01*
X-114521Y18000D02*
Y22000D01*
X-110521D01*
Y18000D01*
X-114521D01*
X-91521Y-102000D02*
Y-98000D01*
X-87521D01*
Y-102000D01*
X-91521D01*
X-86521D02*
Y-98000D01*
X-82521D01*
Y-102000D01*
X-86521D01*
X-81521D02*
Y-98000D01*
X-77521D01*
Y-102000D01*
X-81521D01*
X-76521D02*
Y-98000D01*
X-72521D01*
Y-102000D01*
X-76521D01*
X-71521D02*
Y-98000D01*
X-67521D01*
Y-102000D01*
X-71521D01*
X-108362Y-107800D02*
Y-103800D01*
X-104362D01*
Y-107800D01*
X-108362D01*
X-103362D02*
Y-103800D01*
X-99362D01*
Y-107800D01*
X-103362D01*
X-98362D02*
Y-103800D01*
X-94362D01*
Y-107800D01*
X-98362D01*
X-93362Y-110000D02*
Y-106000D01*
X-89362D01*
Y-110000D01*
X-93362D01*
X-88362Y-111500D02*
Y-107500D01*
X-84362D01*
Y-111500D01*
X-88362D01*
X-83362D02*
Y-107500D01*
X-79362D01*
Y-111500D01*
X-83362D01*
X-77362Y-115500D02*
Y-111500D01*
X-73362D01*
Y-115500D01*
X-77362D01*
X-62862Y-126000D02*
Y-122000D01*
X-58862D01*
Y-126000D01*
X-62862D01*
X-57862D02*
Y-122000D01*
X-53862D01*
Y-126000D01*
X-57862D01*
X-52862Y-125500D02*
Y-121500D01*
X-48862D01*
Y-125500D01*
X-52862D01*
X-67862Y-125000D02*
Y-121000D01*
X-63862D01*
Y-125000D01*
X-67862D01*
X-71862Y-123000D02*
Y-119000D01*
X-67862D01*
Y-123000D01*
X-71862D01*
X-75362Y-119500D02*
Y-115500D01*
X-71362D01*
Y-119500D01*
X-75362D01*
X-52862Y-118500D02*
Y-114500D01*
X-48862D01*
Y-118500D01*
X-52862D01*
X-57862Y-118000D02*
Y-114000D01*
X-53862D01*
Y-118000D01*
X-57862D01*
X-62862D02*
Y-114000D01*
X-58862D01*
Y-118000D01*
X-62862D01*
X-113362Y-107800D02*
Y-103800D01*
X-109362D01*
Y-107800D01*
X-113362D01*
X-113362Y-96200D02*
Y-92200D01*
X-109362D01*
Y-96200D01*
X-113362D01*
X-78362Y-93500D02*
Y-89500D01*
X-74362D01*
Y-93500D01*
X-78362D01*
X-83362Y-92500D02*
Y-88500D01*
X-79362D01*
Y-92500D01*
X-83362D01*
X-88362D02*
Y-88500D01*
X-84362D01*
Y-92500D01*
X-88362D01*
X-93362Y-94000D02*
Y-90000D01*
X-89362D01*
Y-94000D01*
X-93362D01*
X-98362Y-96200D02*
Y-92200D01*
X-94362D01*
Y-96200D01*
X-98362D01*
X-103362D02*
Y-92200D01*
X-99362D01*
Y-96200D01*
X-103362D01*
X-108362D02*
Y-92200D01*
X-104362D01*
Y-96200D01*
X-108362D01*
X-67862Y-117000D02*
Y-113000D01*
X-63862D01*
Y-117000D01*
X-67862D01*
X-70362Y-113000D02*
Y-109000D01*
X-66362D01*
Y-113000D01*
X-70362D01*
X-69362Y-108000D02*
Y-104000D01*
X-65362D01*
Y-108000D01*
X-69362D01*
X-79362Y-88500D02*
Y-84500D01*
X-75362D01*
Y-88500D01*
X-79362D01*
X-69362Y-88547D02*
Y-84547D01*
X-65362D01*
Y-88547D01*
X-69362D01*
X-69862Y-93547D02*
Y-89547D01*
X-65862D01*
Y-93547D01*
X-69862D01*
X-68862Y-98547D02*
Y-94547D01*
X-64862D01*
Y-98547D01*
X-68862D01*
X-74362Y-81000D02*
Y-77000D01*
X-70362D01*
Y-81000D01*
X-74362D01*
X-79362Y-83500D02*
Y-79500D01*
X-75362D01*
Y-83500D01*
X-79362D01*
X-69362D02*
Y-79500D01*
X-65362D01*
Y-83500D01*
X-69362D01*
X-69362Y-40500D02*
Y-36500D01*
X-65362D01*
Y-40500D01*
X-69362D01*
X-79362D02*
Y-36500D01*
X-75362D01*
Y-40500D01*
X-79362D01*
X-74362Y-43000D02*
Y-39000D01*
X-70362D01*
Y-43000D01*
X-74362D01*
X-65362Y-15953D02*
Y-11953D01*
X-61362D01*
Y-15953D01*
X-65362D01*
X-66862Y-20453D02*
Y-16453D01*
X-62862D01*
Y-20453D01*
X-66862D01*
X-68862Y-25453D02*
Y-21453D01*
X-64862D01*
Y-25453D01*
X-68862D01*
X-69862Y-30453D02*
Y-26453D01*
X-65862D01*
Y-30453D01*
X-69862D01*
X-69362Y-35453D02*
Y-31453D01*
X-65362D01*
Y-35453D01*
X-69362D01*
X-79362Y-35500D02*
Y-31500D01*
X-75362D01*
Y-35500D01*
X-79362D01*
X-56362Y-13491D02*
Y-9491D01*
X-52362D01*
Y-13491D01*
X-56362D01*
X-61362D02*
Y-9491D01*
X-57362D01*
Y-13491D01*
X-61362D01*
X-69362Y-16000D02*
Y-12000D01*
X-65362D01*
Y-16000D01*
X-69362D01*
X-70362Y-11000D02*
Y-7000D01*
X-66362D01*
Y-11000D01*
X-70362D01*
X-67862Y-7000D02*
Y-3000D01*
X-63862D01*
Y-7000D01*
X-67862D01*
X-42862Y1500D02*
Y5500D01*
X-38862D01*
Y1500D01*
X-42862D01*
X-32862D02*
Y5500D01*
X-28862D01*
Y1500D01*
X-32862D01*
X-108362Y-27800D02*
Y-23800D01*
X-104362D01*
Y-27800D01*
X-108362D01*
X-103362D02*
Y-23800D01*
X-99362D01*
Y-27800D01*
X-103362D01*
X-98362D02*
Y-23800D01*
X-94362D01*
Y-27800D01*
X-98362D01*
X-93362Y-30000D02*
Y-26000D01*
X-89362D01*
Y-30000D01*
X-93362D01*
X-88362Y-31500D02*
Y-27500D01*
X-84362D01*
Y-31500D01*
X-88362D01*
X-83362D02*
Y-27500D01*
X-79362D01*
Y-31500D01*
X-83362D01*
X-78362Y-30500D02*
Y-26500D01*
X-74362D01*
Y-30500D01*
X-78362D01*
X-113362Y-27800D02*
Y-23800D01*
X-109362D01*
Y-27800D01*
X-113362D01*
X-113362Y-16200D02*
Y-12200D01*
X-109362D01*
Y-16200D01*
X-113362D01*
X-62862Y-6000D02*
Y-2000D01*
X-58862D01*
Y-6000D01*
X-62862D01*
X-57862D02*
Y-2000D01*
X-53862D01*
Y-6000D01*
X-57862D01*
X-52862Y-5500D02*
Y-1500D01*
X-48862D01*
Y-5500D01*
X-52862D01*
X-47862D02*
Y-1500D01*
X-43862D01*
Y-5500D01*
X-47862D01*
X-42862D02*
Y-1500D01*
X-38862D01*
Y-5500D01*
X-42862D01*
X-37862D02*
Y-1500D01*
X-33862D01*
Y-5500D01*
X-37862D01*
X-32862D02*
Y-1500D01*
X-28862D01*
Y-5500D01*
X-32862D01*
X-75362Y-4500D02*
Y-500D01*
X-71362D01*
Y-4500D01*
X-75362D01*
X-71862Y-1000D02*
Y3000D01*
X-67862D01*
Y-1000D01*
X-71862D01*
X-67862Y1000D02*
Y5000D01*
X-63862D01*
Y1000D01*
X-67862D01*
X-37862Y1500D02*
Y5500D01*
X-33862D01*
Y1500D01*
X-37862D01*
X-47862D02*
Y5500D01*
X-43862D01*
Y1500D01*
X-47862D01*
X-52862D02*
Y5500D01*
X-48862D01*
Y1500D01*
X-52862D01*
X-57862Y2000D02*
Y6000D01*
X-53862D01*
Y2000D01*
X-57862D01*
X-62862D02*
Y6000D01*
X-58862D01*
Y2000D01*
X-62862D01*
X-77362Y-8500D02*
Y-4500D01*
X-73362D01*
Y-8500D01*
X-77362D01*
X-78362Y-13500D02*
Y-9500D01*
X-74362D01*
Y-13500D01*
X-78362D01*
X-83362Y-12500D02*
Y-8500D01*
X-79362D01*
Y-12500D01*
X-83362D01*
X-88362D02*
Y-8500D01*
X-84362D01*
Y-12500D01*
X-88362D01*
X-93362Y-14000D02*
Y-10000D01*
X-89362D01*
Y-14000D01*
X-93362D01*
X-98362Y-16200D02*
Y-12200D01*
X-94362D01*
Y-16200D01*
X-98362D01*
X-103362D02*
Y-12200D01*
X-99362D01*
Y-16200D01*
X-103362D01*
X-108362D02*
Y-12200D01*
X-104362D01*
Y-16200D01*
X-108362D01*
X-71521Y-22000D02*
Y-18000D01*
X-67521D01*
Y-22000D01*
X-71521D01*
X-76521D02*
Y-18000D01*
X-72521D01*
Y-22000D01*
X-76521D01*
X-81521D02*
Y-18000D01*
X-77521D01*
Y-22000D01*
X-81521D01*
X-86521D02*
Y-18000D01*
X-82521D01*
Y-22000D01*
X-86521D01*
X-91521D02*
Y-18000D01*
X-87521D01*
Y-22000D01*
X-91521D01*
X-111521Y-62000D02*
Y-58000D01*
X-107521D01*
Y-62000D01*
X-111521D01*
X-106521D02*
Y-58000D01*
X-102521D01*
Y-62000D01*
X-106521D01*
X-101521D02*
Y-58000D01*
X-97521D01*
Y-62000D01*
X-101521D01*
X-96521D02*
Y-58000D01*
X-92521D01*
Y-62000D01*
X-96521D01*
X-91521D02*
Y-58000D01*
X-87521D01*
Y-62000D01*
X-91521D01*
X-86521D02*
Y-58000D01*
X-82521D01*
Y-62000D01*
X-86521D01*
X-81521D02*
Y-58000D01*
X-77521D01*
Y-62000D01*
X-81521D01*
X-76521D02*
Y-58000D01*
X-72521D01*
Y-62000D01*
X-76521D01*
X-71521D02*
Y-58000D01*
X-67521D01*
Y-62000D01*
X-71521D01*
X-66521D02*
Y-58000D01*
X-62521D01*
Y-62000D01*
X-66521D01*
X-61521D02*
Y-58000D01*
X-57521D01*
Y-62000D01*
X-61521D01*
X-56521D02*
Y-58000D01*
X-52521D01*
Y-62000D01*
X-56521D01*
X-51521D02*
Y-58000D01*
X-47521D01*
Y-62000D01*
X-51521D01*
X-46521D02*
Y-58000D01*
X-42521D01*
Y-62000D01*
X-46521D01*
X-41521D02*
Y-58000D01*
X-37521D01*
Y-62000D01*
X-41521D01*
X-36521D02*
Y-58000D01*
X-32521D01*
Y-62000D01*
X-36521D01*
X-106521Y23000D02*
Y27000D01*
X-102521D01*
Y23000D01*
X-106521D01*
X-101521D02*
Y27000D01*
X-97521D01*
Y23000D01*
X-101521D01*
X-96521D02*
Y27000D01*
X-92521D01*
Y23000D01*
X-96521D01*
X-91521D02*
Y27000D01*
X-87521D01*
Y23000D01*
X-91521D01*
X-86521D02*
Y27000D01*
X-82521D01*
Y23000D01*
X-86521D01*
X-81521D02*
Y27000D01*
X-77521D01*
Y23000D01*
X-81521D01*
X-76521D02*
Y27000D01*
X-72521D01*
Y23000D01*
X-76521D01*
X-71521D02*
Y27000D01*
X-67521D01*
Y23000D01*
X-71521D01*
X-66521D02*
Y27000D01*
X-62521D01*
Y23000D01*
X-66521D01*
X-61521D02*
Y27000D01*
X-57521D01*
Y23000D01*
X-61521D01*
X-56521D02*
Y27000D01*
X-52521D01*
Y23000D01*
X-56521D01*
X-51521D02*
Y27000D01*
X-47521D01*
Y23000D01*
X-51521D01*
X-46521D02*
Y27000D01*
X-42521D01*
Y23000D01*
X-46521D01*
X-41521D02*
Y27000D01*
X-37521D01*
Y23000D01*
X-41521D01*
X-36521D02*
Y27000D01*
X-32521D01*
Y23000D01*
X-36521D01*
X-27862Y1500D02*
Y5500D01*
X-23862D01*
Y1500D01*
X-27862D01*
X-31521Y-62000D02*
Y-58000D01*
X-27521D01*
Y-62000D01*
X-31521D01*
X-114521Y-137000D02*
Y-133000D01*
X-110521D01*
Y-137000D01*
X-114521D01*
Y-132000D02*
Y-128000D01*
X-110521D01*
Y-132000D01*
X-114521D01*
Y-127000D02*
Y-123000D01*
X-110521D01*
Y-127000D01*
X-114521D01*
Y-122000D02*
Y-118000D01*
X-110521D01*
Y-122000D01*
X-114521D01*
Y-117000D02*
Y-113000D01*
X-110521D01*
Y-117000D01*
X-114521D01*
Y-112000D02*
Y-108000D01*
X-110521D01*
Y-112000D01*
X-114521D01*
Y-92000D02*
Y-88000D01*
X-110521D01*
Y-92000D01*
X-114521D01*
Y-87000D02*
Y-83000D01*
X-110521D01*
Y-87000D01*
X-114521D01*
Y-82000D02*
Y-78000D01*
X-110521D01*
Y-82000D01*
X-114521D01*
Y-77000D02*
Y-73000D01*
X-110521D01*
Y-77000D01*
X-114521D01*
Y-72000D02*
Y-68000D01*
X-110521D01*
Y-72000D01*
X-114521D01*
Y-67000D02*
Y-63000D01*
X-110521D01*
Y-67000D01*
X-114521D01*
Y13000D02*
Y17000D01*
X-110521D01*
Y13000D01*
X-114521D01*
Y8000D02*
Y12000D01*
X-110521D01*
Y8000D01*
X-114521D01*
Y3000D02*
Y7000D01*
X-110521D01*
Y3000D01*
X-114521D01*
Y-2000D02*
Y2000D01*
X-110521D01*
Y-2000D01*
X-114521D01*
Y-7000D02*
Y-3000D01*
X-110521D01*
Y-7000D01*
X-114521D01*
Y-12000D02*
Y-8000D01*
X-110521D01*
Y-12000D01*
X-114521D01*
Y-32000D02*
Y-28000D01*
X-110521D01*
Y-32000D01*
X-114521D01*
Y-37000D02*
Y-33000D01*
X-110521D01*
Y-37000D01*
X-114521D01*
Y-42000D02*
Y-38000D01*
X-110521D01*
Y-42000D01*
X-114521D01*
Y-47000D02*
Y-43000D01*
X-110521D01*
Y-47000D01*
X-114521D01*
Y-52000D02*
Y-48000D01*
X-110521D01*
Y-52000D01*
X-114521D01*
Y-57000D02*
Y-53000D01*
X-110521D01*
Y-57000D01*
X-114521D01*
Y-62000D02*
Y-58000D01*
X-110521D01*
Y-62000D01*
X-114521D01*
D33*
X-50521Y-136500D02*
G03*
X-50521Y-136500I-2000J0D01*
G01*
X-50427Y16000D02*
G03*
X-50427Y16000I-2000J0D01*
G01*
M02*
