G04*
G04 #@! TF.GenerationSoftware,Altium Limited,Altium Designer,24.5.2 (23)*
G04*
G04 Layer_Color=128*
%FSLAX25Y25*%
%MOIN*%
G70*
G04*
G04 #@! TF.SameCoordinates,1BA70C70-AC76-4000-BBC4-16FF1EE58307*
G04*
G04*
G04 #@! TF.FilePolarity,Positive*
G04*
G01*
G75*
%ADD10C,0.00500*%
D10*
X64022Y23685D02*
X65222D01*
X64622Y23085D02*
Y24285D01*
X64022Y15685D02*
X65222D01*
X64622Y15085D02*
Y16285D01*
X59022Y23685D02*
X60222D01*
X59622Y23085D02*
Y24285D01*
X59022Y15685D02*
X60222D01*
X59622Y15085D02*
Y16285D01*
X54022Y23685D02*
X55222D01*
X54622Y23085D02*
Y24285D01*
X54022Y15685D02*
X55222D01*
X54622Y15085D02*
Y16285D01*
X49022Y23685D02*
X50222D01*
X49622Y23085D02*
Y24285D01*
X49022Y15685D02*
X50222D01*
X49622Y15085D02*
Y16285D01*
X44022Y23685D02*
X45222D01*
X44622Y23085D02*
Y24285D01*
X44022Y15685D02*
X45222D01*
X44622Y15085D02*
Y16285D01*
X39022Y23685D02*
X40222D01*
X39622Y23085D02*
Y24285D01*
X39022Y15685D02*
X40222D01*
X39622Y15085D02*
Y16285D01*
X34022Y15685D02*
X35222D01*
X34622Y15085D02*
Y16285D01*
X34022Y23685D02*
X35222D01*
X34622Y23085D02*
Y24285D01*
X158605Y23087D02*
X159805D01*
X159205Y22487D02*
Y23687D01*
X158605Y15087D02*
X159805D01*
X159205Y14487D02*
Y15687D01*
X153605Y23087D02*
X154805D01*
X154205Y22487D02*
Y23687D01*
X153605Y15087D02*
X154805D01*
X154205Y14487D02*
Y15687D01*
X148605Y23087D02*
X149805D01*
X149205Y22487D02*
Y23687D01*
X148605Y15087D02*
X149805D01*
X149205Y14487D02*
Y15687D01*
X143605Y23087D02*
X144805D01*
X144205Y22487D02*
Y23687D01*
X143605Y15087D02*
X144805D01*
X144205Y14487D02*
Y15687D01*
X138605Y23087D02*
X139805D01*
X139205Y22487D02*
Y23687D01*
X138605Y15087D02*
X139805D01*
X139205Y14487D02*
Y15687D01*
X133605Y23087D02*
X134805D01*
X134205Y22487D02*
Y23687D01*
X133605Y15087D02*
X134805D01*
X134205Y14487D02*
Y15687D01*
X128605Y23087D02*
X129805D01*
X129205Y22487D02*
Y23687D01*
X128605Y15087D02*
X129805D01*
X129205Y14487D02*
Y15687D01*
X123605Y15087D02*
X124805D01*
X124205Y14487D02*
Y15687D01*
X123605Y23087D02*
X124805D01*
X124205Y22487D02*
Y23687D01*
X183085Y190228D02*
X184285D01*
X183685Y189628D02*
Y190828D01*
X177085Y190228D02*
X178285D01*
X177685Y189628D02*
Y190828D01*
X171085Y190228D02*
X172285D01*
X171685Y189628D02*
Y190828D01*
X185085Y6228D02*
X186285D01*
X185685Y5628D02*
Y6828D01*
X180085Y6228D02*
X181285D01*
X180685Y5628D02*
Y6828D01*
X175085Y6228D02*
X176285D01*
X175685Y5628D02*
Y6828D01*
X189400Y10000D02*
X190600D01*
X190000Y9400D02*
Y10600D01*
X189400Y45000D02*
X190600D01*
X190000Y44400D02*
Y45600D01*
X189400Y40000D02*
X190600D01*
X190000Y39400D02*
Y40600D01*
X189400Y35000D02*
X190600D01*
X190000Y34400D02*
Y35600D01*
X189400Y30000D02*
X190600D01*
X190000Y29400D02*
Y30600D01*
X189400Y25000D02*
X190600D01*
X190000Y24400D02*
Y25600D01*
X189400Y20000D02*
X190600D01*
X190000Y19400D02*
Y20600D01*
X189400Y15000D02*
X190600D01*
X190000Y14400D02*
Y15600D01*
X5085Y25228D02*
X6285D01*
X5685Y24628D02*
Y25828D01*
X5085Y20228D02*
X6285D01*
X5685Y19628D02*
Y20828D01*
X5085Y15228D02*
X6285D01*
X5685Y14628D02*
Y15828D01*
X5085Y10228D02*
X6285D01*
X5685Y9628D02*
Y10828D01*
X189400Y185000D02*
X190600D01*
X190000Y184400D02*
Y185600D01*
X189400Y180000D02*
X190600D01*
X190000Y179400D02*
Y180600D01*
X189400Y175000D02*
X190600D01*
X190000Y174400D02*
Y175600D01*
X189400Y170000D02*
X190600D01*
X190000Y169400D02*
Y170600D01*
X189400Y165000D02*
X190600D01*
X190000Y164400D02*
Y165600D01*
X189400Y160000D02*
X190600D01*
X190000Y159400D02*
Y160600D01*
X189400Y155000D02*
X190600D01*
X190000Y154400D02*
Y155600D01*
X189400Y150000D02*
X190600D01*
X190000Y149400D02*
Y150600D01*
X189400Y145000D02*
X190600D01*
X190000Y144400D02*
Y145600D01*
X189400Y140000D02*
X190600D01*
X190000Y139400D02*
Y140600D01*
X189400Y135000D02*
X190600D01*
X190000Y134400D02*
Y135600D01*
X189400Y130000D02*
X190600D01*
X190000Y129400D02*
Y130600D01*
X189400Y125000D02*
X190600D01*
X190000Y124400D02*
Y125600D01*
X189400Y120000D02*
X190600D01*
X190000Y119400D02*
Y120600D01*
X189400Y115000D02*
X190600D01*
X190000Y114400D02*
Y115600D01*
X189400Y110000D02*
X190600D01*
X190000Y109400D02*
Y110600D01*
X189400Y105000D02*
X190600D01*
X190000Y104400D02*
Y105600D01*
X189400Y100000D02*
X190600D01*
X190000Y99400D02*
Y100600D01*
X189400Y95000D02*
X190600D01*
X190000Y94400D02*
Y95600D01*
X189400Y90000D02*
X190600D01*
X190000Y89400D02*
Y90600D01*
X189400Y85000D02*
X190600D01*
X190000Y84400D02*
Y85600D01*
X189400Y80000D02*
X190600D01*
X190000Y79400D02*
Y80600D01*
X189400Y75000D02*
X190600D01*
X190000Y74400D02*
Y75600D01*
X189400Y70000D02*
X190600D01*
X190000Y69400D02*
Y70600D01*
X189400Y65000D02*
X190600D01*
X190000Y64400D02*
Y65600D01*
X189400Y60000D02*
X190600D01*
X190000Y59400D02*
Y60600D01*
X189400Y55000D02*
X190600D01*
X190000Y54400D02*
Y55600D01*
X189400Y50000D02*
X190600D01*
X190000Y49400D02*
Y50600D01*
X189400Y45000D02*
X190600D01*
X190000Y44400D02*
Y45600D01*
X5085Y190228D02*
X6285D01*
X5685Y189628D02*
Y190828D01*
X5085Y185228D02*
X6285D01*
X5685Y184628D02*
Y185828D01*
X5085Y180228D02*
X6285D01*
X5685Y179628D02*
Y180828D01*
X5085Y175228D02*
X6285D01*
X5685Y174628D02*
Y175828D01*
X5085Y170228D02*
X6285D01*
X5685Y169628D02*
Y170828D01*
X5085Y165228D02*
X6285D01*
X5685Y164628D02*
Y165828D01*
X5085Y160228D02*
X6285D01*
X5685Y159628D02*
Y160828D01*
X5085Y155228D02*
X6285D01*
X5685Y154628D02*
Y155828D01*
X5085Y150228D02*
X6285D01*
X5685Y149628D02*
Y150828D01*
X5085Y145228D02*
X6285D01*
X5685Y144628D02*
Y145828D01*
X5085Y140228D02*
X6285D01*
X5685Y139628D02*
Y140828D01*
X5085Y135228D02*
X6285D01*
X5685Y134628D02*
Y135828D01*
X5085Y130228D02*
X6285D01*
X5685Y129628D02*
Y130828D01*
X5085Y125228D02*
X6285D01*
X5685Y124628D02*
Y125828D01*
X5085Y120228D02*
X6285D01*
X5685Y119628D02*
Y120828D01*
X5085Y115228D02*
X6285D01*
X5685Y114628D02*
Y115828D01*
X5085Y110228D02*
X6285D01*
X5685Y109628D02*
Y110828D01*
X5085Y105228D02*
X6285D01*
X5685Y104628D02*
Y105828D01*
X5085Y100228D02*
X6285D01*
X5685Y99628D02*
Y100828D01*
X5085Y95228D02*
X6285D01*
X5685Y94628D02*
Y95828D01*
X5085Y90228D02*
X6285D01*
X5685Y89628D02*
Y90828D01*
X5085Y85228D02*
X6285D01*
X5685Y84628D02*
Y85828D01*
X5085Y80228D02*
X6285D01*
X5685Y79628D02*
Y80828D01*
X5085Y75228D02*
X6285D01*
X5685Y74628D02*
Y75828D01*
X5085Y70228D02*
X6285D01*
X5685Y69628D02*
Y70828D01*
X5085Y65228D02*
X6285D01*
X5685Y64628D02*
Y65828D01*
X5085Y60228D02*
X6285D01*
X5685Y59628D02*
Y60828D01*
X5085Y55228D02*
X6285D01*
X5685Y54628D02*
Y55828D01*
X5085Y50228D02*
X6285D01*
X5685Y49628D02*
Y50828D01*
X5085Y45228D02*
X6285D01*
X5685Y44628D02*
Y45828D01*
X5085Y40228D02*
X6285D01*
X5685Y39628D02*
Y40828D01*
X5085Y35228D02*
X6285D01*
X5685Y34628D02*
Y35828D01*
X5085Y30228D02*
X6285D01*
X5685Y29628D02*
Y30828D01*
X189400Y190000D02*
X190600D01*
X190000Y189400D02*
Y190600D01*
X165085Y190228D02*
X166285D01*
X165685Y189628D02*
Y190828D01*
X160085Y190228D02*
X161285D01*
X160685Y189628D02*
Y190828D01*
X155085Y190228D02*
X156285D01*
X155685Y189628D02*
Y190828D01*
X150085Y190228D02*
X151285D01*
X150685Y189628D02*
Y190828D01*
X145085Y190228D02*
X146285D01*
X145685Y189628D02*
Y190828D01*
X140085Y190228D02*
X141285D01*
X140685Y189628D02*
Y190828D01*
X135085Y190228D02*
X136285D01*
X135685Y189628D02*
Y190828D01*
X130085Y190228D02*
X131285D01*
X130685Y189628D02*
Y190828D01*
X125085Y190228D02*
X126285D01*
X125685Y189628D02*
Y190828D01*
X120085Y190228D02*
X121285D01*
X120685Y189628D02*
Y190828D01*
X115085Y190228D02*
X116285D01*
X115685Y189628D02*
Y190828D01*
X110085Y190228D02*
X111285D01*
X110685Y189628D02*
Y190828D01*
X105085Y190228D02*
X106285D01*
X105685Y189628D02*
Y190828D01*
X100085Y190228D02*
X101285D01*
X100685Y189628D02*
Y190828D01*
X95085Y190228D02*
X96285D01*
X95685Y189628D02*
Y190828D01*
X90085Y190228D02*
X91285D01*
X90685Y189628D02*
Y190828D01*
X85085Y190228D02*
X86285D01*
X85685Y189628D02*
Y190828D01*
X80085Y190228D02*
X81285D01*
X80685Y189628D02*
Y190828D01*
X75085Y190228D02*
X76285D01*
X75685Y189628D02*
Y190828D01*
X70085Y190228D02*
X71285D01*
X70685Y189628D02*
Y190828D01*
X65085Y190228D02*
X66285D01*
X65685Y189628D02*
Y190828D01*
X60085Y190228D02*
X61285D01*
X60685Y189628D02*
Y190828D01*
X55085Y190228D02*
X56285D01*
X55685Y189628D02*
Y190828D01*
X50085Y190228D02*
X51285D01*
X50685Y189628D02*
Y190828D01*
X45085Y190228D02*
X46285D01*
X45685Y189628D02*
Y190828D01*
X40085Y190228D02*
X41285D01*
X40685Y189628D02*
Y190828D01*
X35085Y190228D02*
X36285D01*
X35685Y189628D02*
Y190828D01*
X30085Y190228D02*
X31285D01*
X30685Y189628D02*
Y190828D01*
X25085Y190228D02*
X26285D01*
X25685Y189628D02*
Y190828D01*
X20085Y190228D02*
X21285D01*
X20685Y189628D02*
Y190828D01*
X15085Y190228D02*
X16285D01*
X15685Y189628D02*
Y190828D01*
X10085Y190228D02*
X11285D01*
X10685Y189628D02*
Y190828D01*
X170085Y6228D02*
X171285D01*
X170685Y5628D02*
Y6828D01*
X165085Y6228D02*
X166285D01*
X165685Y5628D02*
Y6828D01*
X160085Y6228D02*
X161285D01*
X160685Y5628D02*
Y6828D01*
X155085Y6228D02*
X156285D01*
X155685Y5628D02*
Y6828D01*
X150085Y6228D02*
X151285D01*
X150685Y5628D02*
Y6828D01*
X145085Y6228D02*
X146285D01*
X145685Y5628D02*
Y6828D01*
X140085Y6228D02*
X141285D01*
X140685Y5628D02*
Y6828D01*
X135085Y6228D02*
X136285D01*
X135685Y5628D02*
Y6828D01*
X130085Y6228D02*
X131285D01*
X130685Y5628D02*
Y6828D01*
X125085Y6228D02*
X126285D01*
X125685Y5628D02*
Y6828D01*
X120085Y6228D02*
X121285D01*
X120685Y5628D02*
Y6828D01*
X115085Y6228D02*
X116285D01*
X115685Y5628D02*
Y6828D01*
X110085Y6228D02*
X111285D01*
X110685Y5628D02*
Y6828D01*
X105085Y6228D02*
X106285D01*
X105685Y5628D02*
Y6828D01*
X100085Y6228D02*
X101285D01*
X100685Y5628D02*
Y6828D01*
X95085Y6228D02*
X96285D01*
X95685Y5628D02*
Y6828D01*
X90085Y6228D02*
X91285D01*
X90685Y5628D02*
Y6828D01*
X85085Y6228D02*
X86285D01*
X85685Y5628D02*
Y6828D01*
X80085Y6228D02*
X81285D01*
X80685Y5628D02*
Y6828D01*
X75085Y6228D02*
X76285D01*
X75685Y5628D02*
Y6828D01*
X70085Y6228D02*
X71285D01*
X70685Y5628D02*
Y6828D01*
X65085Y6228D02*
X66285D01*
X65685Y5628D02*
Y6828D01*
X60085Y6228D02*
X61285D01*
X60685Y5628D02*
Y6828D01*
X55085Y6228D02*
X56285D01*
X55685Y5628D02*
Y6828D01*
X50085Y6228D02*
X51285D01*
X50685Y5628D02*
Y6828D01*
X45085Y6228D02*
X46285D01*
X45685Y5628D02*
Y6828D01*
X40085Y6228D02*
X41285D01*
X40685Y5628D02*
Y6828D01*
X35085Y6228D02*
X36285D01*
X35685Y5628D02*
Y6828D01*
X30085Y6228D02*
X31285D01*
X30685Y5628D02*
Y6828D01*
X25085Y6228D02*
X26285D01*
X25685Y5628D02*
Y6828D01*
X20085Y6228D02*
X21285D01*
X20685Y5628D02*
Y6828D01*
X15085Y6228D02*
X16285D01*
X15685Y5628D02*
Y6828D01*
X10085Y6228D02*
X11285D01*
X10685Y5628D02*
Y6828D01*
X5085Y6228D02*
X6285D01*
X5685Y5628D02*
Y6828D01*
X34022Y59118D02*
X35222D01*
X34622Y58518D02*
Y59718D01*
X34022Y51118D02*
X35222D01*
X34622Y50518D02*
Y51718D01*
X39022Y51118D02*
X40222D01*
X39622Y50518D02*
Y51718D01*
X39022Y59118D02*
X40222D01*
X39622Y58518D02*
Y59718D01*
X44022Y51118D02*
X45222D01*
X44622Y50518D02*
Y51718D01*
X44022Y59118D02*
X45222D01*
X44622Y58518D02*
Y59718D01*
X49022Y51118D02*
X50222D01*
X49622Y50518D02*
Y51718D01*
X49022Y59118D02*
X50222D01*
X49622Y58518D02*
Y59718D01*
X54022Y51118D02*
X55222D01*
X54622Y50518D02*
Y51718D01*
X54022Y59118D02*
X55222D01*
X54622Y58518D02*
Y59718D01*
X59022Y51118D02*
X60222D01*
X59622Y50518D02*
Y51718D01*
X59022Y59118D02*
X60222D01*
X59622Y58518D02*
Y59718D01*
X64022Y51118D02*
X65222D01*
X64622Y50518D02*
Y51718D01*
X64022Y59118D02*
X65222D01*
X64622Y58518D02*
Y59718D01*
X69022Y51118D02*
X70222D01*
X69622Y50518D02*
Y51718D01*
X69022Y59118D02*
X70222D01*
X69622Y58518D02*
Y59718D01*
X74022Y51118D02*
X75222D01*
X74622Y50518D02*
Y51718D01*
X74022Y59118D02*
X75222D01*
X74622Y58518D02*
Y59718D01*
X79022Y51118D02*
X80222D01*
X79622Y50518D02*
Y51718D01*
X79022Y59118D02*
X80222D01*
X79622Y58518D02*
Y59718D01*
X84022Y51118D02*
X85222D01*
X84622Y50518D02*
Y51718D01*
X84022Y59118D02*
X85222D01*
X84622Y58518D02*
Y59718D01*
X89022Y51118D02*
X90222D01*
X89622Y50518D02*
Y51718D01*
X89022Y59118D02*
X90222D01*
X89622Y58518D02*
Y59718D01*
X94022Y51118D02*
X95222D01*
X94622Y50518D02*
Y51718D01*
X94022Y59118D02*
X95222D01*
X94622Y58518D02*
Y59718D01*
X99022Y51118D02*
X100222D01*
X99622Y50518D02*
Y51718D01*
X99022Y59118D02*
X100222D01*
X99622Y58518D02*
Y59718D01*
X104022Y51118D02*
X105222D01*
X104622Y50518D02*
Y51718D01*
X104022Y59118D02*
X105222D01*
X104622Y58518D02*
Y59718D01*
X109022Y51118D02*
X110222D01*
X109622Y50518D02*
Y51718D01*
X109022Y59118D02*
X110222D01*
X109622Y58518D02*
Y59718D01*
X114022Y51118D02*
X115222D01*
X114622Y50518D02*
Y51718D01*
X114022Y59118D02*
X115222D01*
X114622Y58518D02*
Y59718D01*
X119022Y51118D02*
X120222D01*
X119622Y50518D02*
Y51718D01*
X119022Y59118D02*
X120222D01*
X119622Y58518D02*
Y59718D01*
X124022Y51118D02*
X125222D01*
X124622Y50518D02*
Y51718D01*
X124022Y59118D02*
X125222D01*
X124622Y58518D02*
Y59718D01*
X129022Y51118D02*
X130222D01*
X129622Y50518D02*
Y51718D01*
X129022Y59118D02*
X130222D01*
X129622Y58518D02*
Y59718D01*
X134022Y51118D02*
X135222D01*
X134622Y50518D02*
Y51718D01*
X134022Y59118D02*
X135222D01*
X134622Y58518D02*
Y59718D01*
X139022Y51118D02*
X140222D01*
X139622Y50518D02*
Y51718D01*
X139022Y59118D02*
X140222D01*
X139622Y58518D02*
Y59718D01*
X144022Y51118D02*
X145222D01*
X144622Y50518D02*
Y51718D01*
X144022Y59118D02*
X145222D01*
X144622Y58518D02*
Y59718D01*
X34416Y137071D02*
X35616D01*
X35016Y136471D02*
Y137671D01*
X34416Y129071D02*
X35616D01*
X35016Y128471D02*
Y129671D01*
X39416Y129071D02*
X40616D01*
X40016Y128471D02*
Y129671D01*
X39416Y137071D02*
X40616D01*
X40016Y136471D02*
Y137671D01*
X44416Y129071D02*
X45616D01*
X45016Y128471D02*
Y129671D01*
X44416Y137071D02*
X45616D01*
X45016Y136471D02*
Y137671D01*
X49416Y129071D02*
X50616D01*
X50016Y128471D02*
Y129671D01*
X49416Y137071D02*
X50616D01*
X50016Y136471D02*
Y137671D01*
X54416Y129071D02*
X55616D01*
X55016Y128471D02*
Y129671D01*
X54416Y137071D02*
X55616D01*
X55016Y136471D02*
Y137671D01*
X59416Y129071D02*
X60616D01*
X60016Y128471D02*
Y129671D01*
X59416Y137071D02*
X60616D01*
X60016Y136471D02*
Y137671D01*
X64416Y129071D02*
X65616D01*
X65016Y128471D02*
Y129671D01*
X64416Y137071D02*
X65616D01*
X65016Y136471D02*
Y137671D01*
X69416Y129071D02*
X70616D01*
X70016Y128471D02*
Y129671D01*
X69416Y137071D02*
X70616D01*
X70016Y136471D02*
Y137671D01*
X74416Y129071D02*
X75616D01*
X75016Y128471D02*
Y129671D01*
X74416Y137071D02*
X75616D01*
X75016Y136471D02*
Y137671D01*
X79416Y129071D02*
X80616D01*
X80016Y128471D02*
Y129671D01*
X79416Y137071D02*
X80616D01*
X80016Y136471D02*
Y137671D01*
X84416Y129071D02*
X85616D01*
X85016Y128471D02*
Y129671D01*
X84416Y137071D02*
X85616D01*
X85016Y136471D02*
Y137671D01*
X89416Y129071D02*
X90616D01*
X90016Y128471D02*
Y129671D01*
X89416Y137071D02*
X90616D01*
X90016Y136471D02*
Y137671D01*
X94416Y129071D02*
X95616D01*
X95016Y128471D02*
Y129671D01*
X94416Y137071D02*
X95616D01*
X95016Y136471D02*
Y137671D01*
X99416Y129071D02*
X100616D01*
X100016Y128471D02*
Y129671D01*
X99416Y137071D02*
X100616D01*
X100016Y136471D02*
Y137671D01*
X104416Y129071D02*
X105616D01*
X105016Y128471D02*
Y129671D01*
X104416Y137071D02*
X105616D01*
X105016Y136471D02*
Y137671D01*
X109416Y129071D02*
X110616D01*
X110016Y128471D02*
Y129671D01*
X109416Y137071D02*
X110616D01*
X110016Y136471D02*
Y137671D01*
X114416Y129071D02*
X115616D01*
X115016Y128471D02*
Y129671D01*
X114416Y137071D02*
X115616D01*
X115016Y136471D02*
Y137671D01*
X119416Y129071D02*
X120616D01*
X120016Y128471D02*
Y129671D01*
X119416Y137071D02*
X120616D01*
X120016Y136471D02*
Y137671D01*
X124416Y129071D02*
X125616D01*
X125016Y128471D02*
Y129671D01*
X124416Y137071D02*
X125616D01*
X125016Y136471D02*
Y137671D01*
X129416Y129071D02*
X130616D01*
X130016Y128471D02*
Y129671D01*
X129416Y137071D02*
X130616D01*
X130016Y136471D02*
Y137671D01*
X134416Y129071D02*
X135616D01*
X135016Y128471D02*
Y129671D01*
X134416Y137071D02*
X135616D01*
X135016Y136471D02*
Y137671D01*
X139416Y129071D02*
X140616D01*
X140016Y128471D02*
Y129671D01*
X139416Y137071D02*
X140616D01*
X140016Y136471D02*
Y137671D01*
X144416Y129071D02*
X145616D01*
X145016Y128471D02*
Y129671D01*
X144416Y137071D02*
X145616D01*
X145016Y136471D02*
Y137671D01*
X30085Y98488D02*
X31285D01*
X30685Y97888D02*
Y99088D01*
X30085Y90488D02*
X31285D01*
X30685Y89888D02*
Y91088D01*
X35085Y90488D02*
X36285D01*
X35685Y89888D02*
Y91088D01*
X35085Y98488D02*
X36285D01*
X35685Y97888D02*
Y99088D01*
X40085Y90488D02*
X41285D01*
X40685Y89888D02*
Y91088D01*
X40085Y98488D02*
X41285D01*
X40685Y97888D02*
Y99088D01*
X45085Y90488D02*
X46285D01*
X45685Y89888D02*
Y91088D01*
X45085Y98488D02*
X46285D01*
X45685Y97888D02*
Y99088D01*
X50085Y90488D02*
X51285D01*
X50685Y89888D02*
Y91088D01*
X50085Y98488D02*
X51285D01*
X50685Y97888D02*
Y99088D01*
X55085Y90488D02*
X56285D01*
X55685Y89888D02*
Y91088D01*
X55085Y98488D02*
X56285D01*
X55685Y97888D02*
Y99088D01*
X60085Y90488D02*
X61285D01*
X60685Y89888D02*
Y91088D01*
X60085Y98488D02*
X61285D01*
X60685Y97888D02*
Y99088D01*
X65085Y90488D02*
X66285D01*
X65685Y89888D02*
Y91088D01*
X65085Y98488D02*
X66285D01*
X65685Y97888D02*
Y99088D01*
X70085Y90488D02*
X71285D01*
X70685Y89888D02*
Y91088D01*
X70085Y98488D02*
X71285D01*
X70685Y97888D02*
Y99088D01*
X75085Y90488D02*
X76285D01*
X75685Y89888D02*
Y91088D01*
X75085Y98488D02*
X76285D01*
X75685Y97888D02*
Y99088D01*
X80085Y90488D02*
X81285D01*
X80685Y89888D02*
Y91088D01*
X80085Y98488D02*
X81285D01*
X80685Y97888D02*
Y99088D01*
X85085Y90488D02*
X86285D01*
X85685Y89888D02*
Y91088D01*
X85085Y98488D02*
X86285D01*
X85685Y97888D02*
Y99088D01*
X90085Y90488D02*
X91285D01*
X90685Y89888D02*
Y91088D01*
X90085Y98488D02*
X91285D01*
X90685Y97888D02*
Y99088D01*
X95085Y90488D02*
X96285D01*
X95685Y89888D02*
Y91088D01*
X95085Y98488D02*
X96285D01*
X95685Y97888D02*
Y99088D01*
X100085Y90488D02*
X101285D01*
X100685Y89888D02*
Y91088D01*
X100085Y98488D02*
X101285D01*
X100685Y97888D02*
Y99088D01*
X105085Y90488D02*
X106285D01*
X105685Y89888D02*
Y91088D01*
X105085Y98488D02*
X106285D01*
X105685Y97888D02*
Y99088D01*
X110085Y90488D02*
X111285D01*
X110685Y89888D02*
Y91088D01*
X110085Y98488D02*
X111285D01*
X110685Y97888D02*
Y99088D01*
X115085Y90488D02*
X116285D01*
X115685Y89888D02*
Y91088D01*
X115085Y98488D02*
X116285D01*
X115685Y97888D02*
Y99088D01*
X120085Y90488D02*
X121285D01*
X120685Y89888D02*
Y91088D01*
X120085Y98488D02*
X121285D01*
X120685Y97888D02*
Y99088D01*
X125085Y90488D02*
X126285D01*
X125685Y89888D02*
Y91088D01*
X125085Y98488D02*
X126285D01*
X125685Y97888D02*
Y99088D01*
X130085Y90488D02*
X131285D01*
X130685Y89888D02*
Y91088D01*
X130085Y98488D02*
X131285D01*
X130685Y97888D02*
Y99088D01*
X135085Y90488D02*
X136285D01*
X135685Y89888D02*
Y91088D01*
X135085Y98488D02*
X136285D01*
X135685Y97888D02*
Y99088D01*
X140085Y90488D02*
X141285D01*
X140685Y89888D02*
Y91088D01*
X140085Y98488D02*
X141285D01*
X140685Y97888D02*
Y99088D01*
X145085Y177228D02*
X146285D01*
X145685Y176628D02*
Y177828D01*
X145085Y169228D02*
X146285D01*
X145685Y168628D02*
Y169828D01*
X140085Y177228D02*
X141285D01*
X140685Y176628D02*
Y177828D01*
X140085Y169228D02*
X141285D01*
X140685Y168628D02*
Y169828D01*
X135085Y177228D02*
X136285D01*
X135685Y176628D02*
Y177828D01*
X135085Y169228D02*
X136285D01*
X135685Y168628D02*
Y169828D01*
X130085Y177228D02*
X131285D01*
X130685Y176628D02*
Y177828D01*
X130085Y169228D02*
X131285D01*
X130685Y168628D02*
Y169828D01*
X125085Y177228D02*
X126285D01*
X125685Y176628D02*
Y177828D01*
X125085Y169228D02*
X126285D01*
X125685Y168628D02*
Y169828D01*
X120085Y177228D02*
X121285D01*
X120685Y176628D02*
Y177828D01*
X120085Y169228D02*
X121285D01*
X120685Y168628D02*
Y169828D01*
X115085Y177228D02*
X116285D01*
X115685Y176628D02*
Y177828D01*
X115085Y169228D02*
X116285D01*
X115685Y168628D02*
Y169828D01*
X110085Y177228D02*
X111285D01*
X110685Y176628D02*
Y177828D01*
X110085Y169228D02*
X111285D01*
X110685Y168628D02*
Y169828D01*
X105085Y177228D02*
X106285D01*
X105685Y176628D02*
Y177828D01*
X105085Y169228D02*
X106285D01*
X105685Y168628D02*
Y169828D01*
X100085Y177228D02*
X101285D01*
X100685Y176628D02*
Y177828D01*
X100085Y169228D02*
X101285D01*
X100685Y168628D02*
Y169828D01*
X95085Y177228D02*
X96285D01*
X95685Y176628D02*
Y177828D01*
X95085Y169228D02*
X96285D01*
X95685Y168628D02*
Y169828D01*
X90085Y177228D02*
X91285D01*
X90685Y176628D02*
Y177828D01*
X90085Y169228D02*
X91285D01*
X90685Y168628D02*
Y169828D01*
X85085Y177228D02*
X86285D01*
X85685Y176628D02*
Y177828D01*
X85085Y169228D02*
X86285D01*
X85685Y168628D02*
Y169828D01*
X80085Y177228D02*
X81285D01*
X80685Y176628D02*
Y177828D01*
X80085Y169228D02*
X81285D01*
X80685Y168628D02*
Y169828D01*
X75085Y177228D02*
X76285D01*
X75685Y176628D02*
Y177828D01*
X75085Y169228D02*
X76285D01*
X75685Y168628D02*
Y169828D01*
X70085Y177228D02*
X71285D01*
X70685Y176628D02*
Y177828D01*
X70085Y169228D02*
X71285D01*
X70685Y168628D02*
Y169828D01*
X65085Y177228D02*
X66285D01*
X65685Y176628D02*
Y177828D01*
X65085Y169228D02*
X66285D01*
X65685Y168628D02*
Y169828D01*
X60085Y177228D02*
X61285D01*
X60685Y176628D02*
Y177828D01*
X60085Y169228D02*
X61285D01*
X60685Y168628D02*
Y169828D01*
X55085Y177228D02*
X56285D01*
X55685Y176628D02*
Y177828D01*
X55085Y169228D02*
X56285D01*
X55685Y168628D02*
Y169828D01*
X50085Y177228D02*
X51285D01*
X50685Y176628D02*
Y177828D01*
X50085Y169228D02*
X51285D01*
X50685Y168628D02*
Y169828D01*
X45085Y177228D02*
X46285D01*
X45685Y176628D02*
Y177828D01*
X45085Y169228D02*
X46285D01*
X45685Y168628D02*
Y169828D01*
X40085Y177228D02*
X41285D01*
X40685Y176628D02*
Y177828D01*
X40085Y169228D02*
X41285D01*
X40685Y168628D02*
Y169828D01*
X35085Y177228D02*
X36285D01*
X35685Y176628D02*
Y177828D01*
X35085Y169228D02*
X36285D01*
X35685Y168628D02*
Y169828D01*
X30085Y169228D02*
X31285D01*
X30685Y168628D02*
Y169828D01*
X30085Y177228D02*
X31285D01*
X30685Y176628D02*
Y177828D01*
M02*
