G04*
G04 #@! TF.GenerationSoftware,Altium Limited,Altium Designer,24.5.2 (23)*
G04*
G04 Layer_Physical_Order=2*
G04 Layer_Color=16711680*
%FSLAX25Y25*%
%MOIN*%
G70*
G04*
G04 #@! TF.SameCoordinates,1BA70C70-AC76-4000-BBC4-16FF1EE58307*
G04*
G04*
G04 #@! TF.FilePolarity,Positive*
G04*
G01*
G75*
%ADD15R,0.16000X0.07000*%
%ADD24C,0.02400*%
G36*
X192913Y3937D02*
X3937D01*
Y192913D01*
X192913D01*
Y3937D01*
D02*
G37*
D15*
X157480Y183228D02*
D03*
Y163228D02*
D03*
X19685D02*
D03*
Y183228D02*
D03*
Y84488D02*
D03*
Y104488D02*
D03*
X153543D02*
D03*
Y84488D02*
D03*
D24*
X64622Y23685D02*
D03*
Y15685D02*
D03*
X59622Y23685D02*
D03*
Y15685D02*
D03*
X54622Y23685D02*
D03*
Y15685D02*
D03*
X49622Y23685D02*
D03*
Y15685D02*
D03*
X44622Y23685D02*
D03*
Y15685D02*
D03*
X39622Y23685D02*
D03*
Y15685D02*
D03*
X34622D02*
D03*
Y23685D02*
D03*
X159205Y23087D02*
D03*
Y15087D02*
D03*
X154205Y23087D02*
D03*
Y15087D02*
D03*
X149205Y23087D02*
D03*
Y15087D02*
D03*
X144205Y23087D02*
D03*
Y15087D02*
D03*
X139205Y23087D02*
D03*
Y15087D02*
D03*
X134205Y23087D02*
D03*
Y15087D02*
D03*
X129205Y23087D02*
D03*
Y15087D02*
D03*
X124205D02*
D03*
Y23087D02*
D03*
X183685Y190228D02*
D03*
X177685D02*
D03*
X171685D02*
D03*
X185685Y6228D02*
D03*
X180685D02*
D03*
X175685D02*
D03*
X190000Y10000D02*
D03*
Y45000D02*
D03*
Y40000D02*
D03*
Y35000D02*
D03*
Y30000D02*
D03*
Y25000D02*
D03*
Y20000D02*
D03*
Y15000D02*
D03*
X5685Y25228D02*
D03*
Y20228D02*
D03*
Y15228D02*
D03*
Y10228D02*
D03*
X190000Y185000D02*
D03*
Y180000D02*
D03*
Y175000D02*
D03*
Y170000D02*
D03*
Y165000D02*
D03*
Y160000D02*
D03*
Y155000D02*
D03*
Y150000D02*
D03*
Y145000D02*
D03*
Y140000D02*
D03*
Y135000D02*
D03*
Y130000D02*
D03*
Y125000D02*
D03*
Y120000D02*
D03*
Y115000D02*
D03*
Y110000D02*
D03*
Y105000D02*
D03*
Y100000D02*
D03*
Y95000D02*
D03*
Y90000D02*
D03*
Y85000D02*
D03*
Y80000D02*
D03*
Y75000D02*
D03*
Y70000D02*
D03*
Y65000D02*
D03*
Y60000D02*
D03*
Y55000D02*
D03*
Y50000D02*
D03*
Y45000D02*
D03*
X5685Y190228D02*
D03*
Y185228D02*
D03*
Y180228D02*
D03*
Y175228D02*
D03*
Y170228D02*
D03*
Y165228D02*
D03*
Y160228D02*
D03*
Y155228D02*
D03*
Y150228D02*
D03*
Y145228D02*
D03*
Y140228D02*
D03*
Y135228D02*
D03*
Y130228D02*
D03*
Y125228D02*
D03*
Y120228D02*
D03*
Y115228D02*
D03*
Y110228D02*
D03*
Y105228D02*
D03*
Y100228D02*
D03*
Y95228D02*
D03*
Y90228D02*
D03*
Y85228D02*
D03*
Y80228D02*
D03*
Y75228D02*
D03*
Y70228D02*
D03*
Y65228D02*
D03*
Y60228D02*
D03*
Y55228D02*
D03*
Y50228D02*
D03*
Y45228D02*
D03*
Y40228D02*
D03*
Y35228D02*
D03*
Y30228D02*
D03*
X190000Y190000D02*
D03*
X165685Y190228D02*
D03*
X160685D02*
D03*
X155685D02*
D03*
X150685D02*
D03*
X145685D02*
D03*
X140685D02*
D03*
X135685D02*
D03*
X130685D02*
D03*
X125685D02*
D03*
X120685D02*
D03*
X115685D02*
D03*
X110685D02*
D03*
X105685D02*
D03*
X100685D02*
D03*
X95685D02*
D03*
X90685D02*
D03*
X85685D02*
D03*
X80685D02*
D03*
X75685D02*
D03*
X70685D02*
D03*
X65685D02*
D03*
X60685D02*
D03*
X55685D02*
D03*
X50685D02*
D03*
X45685D02*
D03*
X40685D02*
D03*
X35685D02*
D03*
X30685D02*
D03*
X25685D02*
D03*
X20685D02*
D03*
X15685D02*
D03*
X10685D02*
D03*
X170685Y6228D02*
D03*
X165685D02*
D03*
X160685D02*
D03*
X155685D02*
D03*
X150685D02*
D03*
X145685D02*
D03*
X140685D02*
D03*
X135685D02*
D03*
X130685D02*
D03*
X125685D02*
D03*
X120685D02*
D03*
X115685D02*
D03*
X110685D02*
D03*
X105685D02*
D03*
X100685D02*
D03*
X95685D02*
D03*
X90685D02*
D03*
X85685D02*
D03*
X80685D02*
D03*
X75685D02*
D03*
X70685D02*
D03*
X65685D02*
D03*
X60685D02*
D03*
X55685D02*
D03*
X50685D02*
D03*
X45685D02*
D03*
X40685D02*
D03*
X35685D02*
D03*
X30685D02*
D03*
X25685D02*
D03*
X20685D02*
D03*
X15685D02*
D03*
X10685D02*
D03*
X5685D02*
D03*
X34622Y59118D02*
D03*
Y51118D02*
D03*
X39622D02*
D03*
Y59118D02*
D03*
X44622Y51118D02*
D03*
Y59118D02*
D03*
X49622Y51118D02*
D03*
Y59118D02*
D03*
X54622Y51118D02*
D03*
Y59118D02*
D03*
X59622Y51118D02*
D03*
Y59118D02*
D03*
X64622Y51118D02*
D03*
Y59118D02*
D03*
X69622Y51118D02*
D03*
Y59118D02*
D03*
X74622Y51118D02*
D03*
Y59118D02*
D03*
X79622Y51118D02*
D03*
Y59118D02*
D03*
X84622Y51118D02*
D03*
Y59118D02*
D03*
X89622Y51118D02*
D03*
Y59118D02*
D03*
X94622Y51118D02*
D03*
Y59118D02*
D03*
X99622Y51118D02*
D03*
Y59118D02*
D03*
X104622Y51118D02*
D03*
Y59118D02*
D03*
X109622Y51118D02*
D03*
Y59118D02*
D03*
X114622Y51118D02*
D03*
Y59118D02*
D03*
X119622Y51118D02*
D03*
Y59118D02*
D03*
X124622Y51118D02*
D03*
Y59118D02*
D03*
X129622Y51118D02*
D03*
Y59118D02*
D03*
X134622Y51118D02*
D03*
Y59118D02*
D03*
X139622Y51118D02*
D03*
Y59118D02*
D03*
X144622Y51118D02*
D03*
Y59118D02*
D03*
X35016Y137071D02*
D03*
Y129071D02*
D03*
X40016D02*
D03*
Y137071D02*
D03*
X45016Y129071D02*
D03*
Y137071D02*
D03*
X50016Y129071D02*
D03*
Y137071D02*
D03*
X55016Y129071D02*
D03*
Y137071D02*
D03*
X60016Y129071D02*
D03*
Y137071D02*
D03*
X65016Y129071D02*
D03*
Y137071D02*
D03*
X70016Y129071D02*
D03*
Y137071D02*
D03*
X75016Y129071D02*
D03*
Y137071D02*
D03*
X80016Y129071D02*
D03*
Y137071D02*
D03*
X85016Y129071D02*
D03*
Y137071D02*
D03*
X90016Y129071D02*
D03*
Y137071D02*
D03*
X95016Y129071D02*
D03*
Y137071D02*
D03*
X100016Y129071D02*
D03*
Y137071D02*
D03*
X105016Y129071D02*
D03*
Y137071D02*
D03*
X110016Y129071D02*
D03*
Y137071D02*
D03*
X115016Y129071D02*
D03*
Y137071D02*
D03*
X120016Y129071D02*
D03*
Y137071D02*
D03*
X125016Y129071D02*
D03*
Y137071D02*
D03*
X130016Y129071D02*
D03*
Y137071D02*
D03*
X135016Y129071D02*
D03*
Y137071D02*
D03*
X140016Y129071D02*
D03*
Y137071D02*
D03*
X145016Y129071D02*
D03*
Y137071D02*
D03*
X30685Y98488D02*
D03*
Y90488D02*
D03*
X35685D02*
D03*
Y98488D02*
D03*
X40685Y90488D02*
D03*
Y98488D02*
D03*
X45685Y90488D02*
D03*
Y98488D02*
D03*
X50685Y90488D02*
D03*
Y98488D02*
D03*
X55685Y90488D02*
D03*
Y98488D02*
D03*
X60685Y90488D02*
D03*
Y98488D02*
D03*
X65685Y90488D02*
D03*
Y98488D02*
D03*
X70685Y90488D02*
D03*
Y98488D02*
D03*
X75685Y90488D02*
D03*
Y98488D02*
D03*
X80685Y90488D02*
D03*
Y98488D02*
D03*
X85685Y90488D02*
D03*
Y98488D02*
D03*
X90685Y90488D02*
D03*
Y98488D02*
D03*
X95685Y90488D02*
D03*
Y98488D02*
D03*
X100685Y90488D02*
D03*
Y98488D02*
D03*
X105685Y90488D02*
D03*
Y98488D02*
D03*
X110685Y90488D02*
D03*
Y98488D02*
D03*
X115685Y90488D02*
D03*
Y98488D02*
D03*
X120685Y90488D02*
D03*
Y98488D02*
D03*
X125685Y90488D02*
D03*
Y98488D02*
D03*
X130685Y90488D02*
D03*
Y98488D02*
D03*
X135685Y90488D02*
D03*
Y98488D02*
D03*
X140685Y90488D02*
D03*
Y98488D02*
D03*
X145685Y177228D02*
D03*
Y169228D02*
D03*
X140685Y177228D02*
D03*
Y169228D02*
D03*
X135685Y177228D02*
D03*
Y169228D02*
D03*
X130685Y177228D02*
D03*
Y169228D02*
D03*
X125685Y177228D02*
D03*
Y169228D02*
D03*
X120685Y177228D02*
D03*
Y169228D02*
D03*
X115685Y177228D02*
D03*
Y169228D02*
D03*
X110685Y177228D02*
D03*
Y169228D02*
D03*
X105685Y177228D02*
D03*
Y169228D02*
D03*
X100685Y177228D02*
D03*
Y169228D02*
D03*
X95685Y177228D02*
D03*
Y169228D02*
D03*
X90685Y177228D02*
D03*
Y169228D02*
D03*
X85685Y177228D02*
D03*
Y169228D02*
D03*
X80685Y177228D02*
D03*
Y169228D02*
D03*
X75685Y177228D02*
D03*
Y169228D02*
D03*
X70685Y177228D02*
D03*
Y169228D02*
D03*
X65685Y177228D02*
D03*
Y169228D02*
D03*
X60685Y177228D02*
D03*
Y169228D02*
D03*
X55685Y177228D02*
D03*
Y169228D02*
D03*
X50685Y177228D02*
D03*
Y169228D02*
D03*
X45685Y177228D02*
D03*
Y169228D02*
D03*
X40685Y177228D02*
D03*
Y169228D02*
D03*
X35685Y177228D02*
D03*
Y169228D02*
D03*
X30685D02*
D03*
Y177228D02*
D03*
M02*
