M48
;Layer_Color=9474304
;FILE_FORMAT=2:5
INCH,TZ
;TYPE=PLATED
T01F00S00C0.01200
%
T01
X5685Y6228
Y10228
Y15228
Y20228
Y25228
Y30228
Y35228
Y40228
Y45228
Y50228
X34622Y51118
X39622
X44622
X49622
X54622
Y23685
X49622
X44622
X39622
X34622
Y15685
X39622
X44622
X49622
X54622
X55685Y6228
X50685
X45685
X40685
X35685
X30685
X25685
X20685
X15685
X10685
X60685
X65685
X70685
X75685
X80685
X85685
X90685
X95685
X100685
X105685
X110685
X115685
X120685
X125685
X130685
X135685
X140685
X145685
X150685
X155685
X160685
X165685
X170685
X175685
X180685
X185685
X190000Y10000
Y15000
Y20000
Y25000
Y30000
Y35000
Y40000
Y45000
Y50000
X144622Y51118
X139622
X134622
X129622
X124622
X119622
X114622
X109622
X104622
X99622
X94622
X89622
X84622
X79622
X74622
X69622
X64622
X59622
Y23685
X64622
Y15685
X59622
X124205Y15087
X129205
X134205
X139205
X144205
X149205
X154205
X159205
Y23087
X154205
X149205
X144205
X139205
X134205
X129205
X124205
X124622Y59118
X119622
X114622
X109622
X104622
X99622
X94622
X89622
X84622
X79622
X74622
X69622
X64622
X59622
X60685Y90488
X65685
X70685
X75685
X80685
X85685
X90685
X95685
X100685
X105685
X110685
X115685
X120685
X125685
X130685
X135685
X140685
Y98488
X135685
X130685
X125685
X120685
X115685
X110685
X105685
X100685
X95685
X90685
X85685
X80685
X75685
X70685
X65685
X60685
X60016Y129071
X65016
X70016
X75016
X80016
X85016
X90016
X95016
X100016
X105016
X110016
X115016
X120016
X125016
X130016
X135016
X140016
X145016
Y137071
X140016
X135016
X130016
X125016
X120016
X115016
X110016
X105016
X100016
X95016
X90016
X85016
X80016
X75016
X70016
X65016
X60016
X60685Y169228
X65685
X70685
X75685
X80685
X85685
X90685
X95685
X100685
X105685
X110685
X115685
X120685
X125685
X130685
X135685
X140685
X145685
Y177228
X140685
X135685
X130685
X125685
X120685
X115685
X110685
X105685
X100685
X95685
X90685
X85685
X80685
X75685
X70685
X65685
X60685
Y190228
X65685
X70685
X75685
X80685
X85685
X90685
X95685
X100685
X105685
X110685
X115685
X120685
X125685
X130685
X135685
X140685
X145685
X150685
X155685
X160685
X165685
X171685
X177685
X183685
X190000Y190000
Y185000
Y180000
Y175000
Y170000
Y165000
Y160000
Y155000
Y150000
Y145000
Y140000
Y135000
Y130000
Y125000
Y120000
Y115000
Y110000
Y105000
Y100000
Y95000
Y90000
Y85000
Y80000
Y75000
Y70000
Y65000
Y60000
Y55000
X144622Y59118
X139622
X134622
X129622
X54622
X49622
X44622
X39622
X34622
X5685Y60228
Y65228
Y70228
Y75228
Y80228
Y85228
Y90228
Y95228
Y100228
Y105228
Y110228
Y115228
Y120228
Y125228
Y130228
Y135228
Y140228
Y145228
Y150228
Y155228
Y160228
Y165228
Y170228
Y175228
Y180228
Y185228
Y190228
X10685
X15685
X20685
X25685
X30685
X35685
X40685
X45685
X50685
X55685
Y177228
X50685
X45685
X40685
X35685
X30685
Y169228
X35685
X40685
X45685
X50685
X55685
X55016Y137071
X50016
X45016
X40016
X35016
Y129071
X40016
X45016
X50016
X55016
X55685Y98488
X50685
X45685
X40685
X35685
X30685
Y90488
X35685
X40685
X45685
X50685
X55685
X5685Y55228
M30
