G04*
G04 #@! TF.GenerationSoftware,Altium Limited,Altium Designer,24.5.2 (23)*
G04*
G04 Layer_Color=2752767*
%FSLAX25Y25*%
%MOIN*%
G70*
G04*
G04 #@! TF.SameCoordinates,1BA70C70-AC76-4000-BBC4-16FF1EE58307*
G04*
G04*
G04 #@! TF.FilePolarity,Positive*
G04*
G01*
G75*
%ADD10C,0.00500*%
D10*
X62622Y21685D02*
Y25685D01*
X66622D01*
Y21685D01*
X62622D01*
Y13685D02*
Y17685D01*
X66622D01*
Y13685D01*
X62622D01*
X57622Y21685D02*
Y25685D01*
X61622D01*
Y21685D01*
X57622D01*
Y13685D02*
Y17685D01*
X61622D01*
Y13685D01*
X57622D01*
X52622Y21685D02*
Y25685D01*
X56622D01*
Y21685D01*
X52622D01*
Y13685D02*
Y17685D01*
X56622D01*
Y13685D01*
X52622D01*
X47622Y21685D02*
Y25685D01*
X51622D01*
Y21685D01*
X47622D01*
Y13685D02*
Y17685D01*
X51622D01*
Y13685D01*
X47622D01*
X42622Y21685D02*
Y25685D01*
X46622D01*
Y21685D01*
X42622D01*
Y13685D02*
Y17685D01*
X46622D01*
Y13685D01*
X42622D01*
X37622Y21685D02*
Y25685D01*
X41622D01*
Y21685D01*
X37622D01*
Y13685D02*
Y17685D01*
X41622D01*
Y13685D01*
X37622D01*
X32622D02*
Y17685D01*
X36622D01*
Y13685D01*
X32622D01*
Y21685D02*
Y25685D01*
X36622D01*
Y21685D01*
X32622D01*
X157205Y21087D02*
Y25087D01*
X161205D01*
Y21087D01*
X157205D01*
Y13087D02*
Y17087D01*
X161205D01*
Y13087D01*
X157205D01*
X152205Y21087D02*
Y25087D01*
X156205D01*
Y21087D01*
X152205D01*
Y13087D02*
Y17087D01*
X156205D01*
Y13087D01*
X152205D01*
X147205Y21087D02*
Y25087D01*
X151205D01*
Y21087D01*
X147205D01*
Y13087D02*
Y17087D01*
X151205D01*
Y13087D01*
X147205D01*
X142205Y21087D02*
Y25087D01*
X146205D01*
Y21087D01*
X142205D01*
Y13087D02*
Y17087D01*
X146205D01*
Y13087D01*
X142205D01*
X137205Y21087D02*
Y25087D01*
X141205D01*
Y21087D01*
X137205D01*
Y13087D02*
Y17087D01*
X141205D01*
Y13087D01*
X137205D01*
X132205Y21087D02*
Y25087D01*
X136205D01*
Y21087D01*
X132205D01*
Y13087D02*
Y17087D01*
X136205D01*
Y13087D01*
X132205D01*
X127205Y21087D02*
Y25087D01*
X131205D01*
Y21087D01*
X127205D01*
Y13087D02*
Y17087D01*
X131205D01*
Y13087D01*
X127205D01*
X122205D02*
Y17087D01*
X126205D01*
Y13087D01*
X122205D01*
Y21087D02*
Y25087D01*
X126205D01*
Y21087D01*
X122205D01*
X181685Y188228D02*
Y192228D01*
X185685D01*
Y188228D01*
X181685D01*
X175685D02*
Y192228D01*
X179685D01*
Y188228D01*
X175685D01*
X169685D02*
Y192228D01*
X173685D01*
Y188228D01*
X169685D01*
X183685Y4228D02*
Y8228D01*
X187685D01*
Y4228D01*
X183685D01*
X178685D02*
Y8228D01*
X182685D01*
Y4228D01*
X178685D01*
X173685D02*
Y8228D01*
X177685D01*
Y4228D01*
X173685D01*
X188000Y8000D02*
Y12000D01*
X192000D01*
Y8000D01*
X188000D01*
Y43000D02*
Y47000D01*
X192000D01*
Y43000D01*
X188000D01*
Y38000D02*
Y42000D01*
X192000D01*
Y38000D01*
X188000D01*
Y33000D02*
Y37000D01*
X192000D01*
Y33000D01*
X188000D01*
Y28000D02*
Y32000D01*
X192000D01*
Y28000D01*
X188000D01*
Y23000D02*
Y27000D01*
X192000D01*
Y23000D01*
X188000D01*
Y18000D02*
Y22000D01*
X192000D01*
Y18000D01*
X188000D01*
Y13000D02*
Y17000D01*
X192000D01*
Y13000D01*
X188000D01*
X3685Y23228D02*
Y27228D01*
X7685D01*
Y23228D01*
X3685D01*
Y18228D02*
Y22228D01*
X7685D01*
Y18228D01*
X3685D01*
Y13228D02*
Y17228D01*
X7685D01*
Y13228D01*
X3685D01*
Y8228D02*
Y12228D01*
X7685D01*
Y8228D01*
X3685D01*
X188000Y183000D02*
Y187000D01*
X192000D01*
Y183000D01*
X188000D01*
Y178000D02*
Y182000D01*
X192000D01*
Y178000D01*
X188000D01*
Y173000D02*
Y177000D01*
X192000D01*
Y173000D01*
X188000D01*
Y168000D02*
Y172000D01*
X192000D01*
Y168000D01*
X188000D01*
Y163000D02*
Y167000D01*
X192000D01*
Y163000D01*
X188000D01*
Y158000D02*
Y162000D01*
X192000D01*
Y158000D01*
X188000D01*
Y153000D02*
Y157000D01*
X192000D01*
Y153000D01*
X188000D01*
Y148000D02*
Y152000D01*
X192000D01*
Y148000D01*
X188000D01*
Y143000D02*
Y147000D01*
X192000D01*
Y143000D01*
X188000D01*
Y138000D02*
Y142000D01*
X192000D01*
Y138000D01*
X188000D01*
Y133000D02*
Y137000D01*
X192000D01*
Y133000D01*
X188000D01*
Y128000D02*
Y132000D01*
X192000D01*
Y128000D01*
X188000D01*
Y123000D02*
Y127000D01*
X192000D01*
Y123000D01*
X188000D01*
Y118000D02*
Y122000D01*
X192000D01*
Y118000D01*
X188000D01*
Y113000D02*
Y117000D01*
X192000D01*
Y113000D01*
X188000D01*
Y108000D02*
Y112000D01*
X192000D01*
Y108000D01*
X188000D01*
Y103000D02*
Y107000D01*
X192000D01*
Y103000D01*
X188000D01*
Y98000D02*
Y102000D01*
X192000D01*
Y98000D01*
X188000D01*
Y93000D02*
Y97000D01*
X192000D01*
Y93000D01*
X188000D01*
Y88000D02*
Y92000D01*
X192000D01*
Y88000D01*
X188000D01*
Y83000D02*
Y87000D01*
X192000D01*
Y83000D01*
X188000D01*
Y78000D02*
Y82000D01*
X192000D01*
Y78000D01*
X188000D01*
Y73000D02*
Y77000D01*
X192000D01*
Y73000D01*
X188000D01*
Y68000D02*
Y72000D01*
X192000D01*
Y68000D01*
X188000D01*
Y63000D02*
Y67000D01*
X192000D01*
Y63000D01*
X188000D01*
Y58000D02*
Y62000D01*
X192000D01*
Y58000D01*
X188000D01*
Y53000D02*
Y57000D01*
X192000D01*
Y53000D01*
X188000D01*
Y48000D02*
Y52000D01*
X192000D01*
Y48000D01*
X188000D01*
X3685Y188228D02*
Y192228D01*
X7685D01*
Y188228D01*
X3685D01*
Y183228D02*
Y187228D01*
X7685D01*
Y183228D01*
X3685D01*
Y178228D02*
Y182228D01*
X7685D01*
Y178228D01*
X3685D01*
Y173228D02*
Y177228D01*
X7685D01*
Y173228D01*
X3685D01*
Y168228D02*
Y172228D01*
X7685D01*
Y168228D01*
X3685D01*
Y163228D02*
Y167228D01*
X7685D01*
Y163228D01*
X3685D01*
Y158228D02*
Y162228D01*
X7685D01*
Y158228D01*
X3685D01*
Y153228D02*
Y157228D01*
X7685D01*
Y153228D01*
X3685D01*
Y148228D02*
Y152228D01*
X7685D01*
Y148228D01*
X3685D01*
Y143228D02*
Y147228D01*
X7685D01*
Y143228D01*
X3685D01*
Y138228D02*
Y142228D01*
X7685D01*
Y138228D01*
X3685D01*
Y133228D02*
Y137228D01*
X7685D01*
Y133228D01*
X3685D01*
Y128228D02*
Y132228D01*
X7685D01*
Y128228D01*
X3685D01*
Y123228D02*
Y127228D01*
X7685D01*
Y123228D01*
X3685D01*
Y118228D02*
Y122228D01*
X7685D01*
Y118228D01*
X3685D01*
Y113228D02*
Y117228D01*
X7685D01*
Y113228D01*
X3685D01*
Y108228D02*
Y112228D01*
X7685D01*
Y108228D01*
X3685D01*
Y103228D02*
Y107228D01*
X7685D01*
Y103228D01*
X3685D01*
Y98228D02*
Y102228D01*
X7685D01*
Y98228D01*
X3685D01*
Y93228D02*
Y97228D01*
X7685D01*
Y93228D01*
X3685D01*
Y88228D02*
Y92228D01*
X7685D01*
Y88228D01*
X3685D01*
Y83228D02*
Y87228D01*
X7685D01*
Y83228D01*
X3685D01*
Y78228D02*
Y82228D01*
X7685D01*
Y78228D01*
X3685D01*
Y73228D02*
Y77228D01*
X7685D01*
Y73228D01*
X3685D01*
Y68228D02*
Y72228D01*
X7685D01*
Y68228D01*
X3685D01*
Y63228D02*
Y67228D01*
X7685D01*
Y63228D01*
X3685D01*
Y58228D02*
Y62228D01*
X7685D01*
Y58228D01*
X3685D01*
Y53228D02*
Y57228D01*
X7685D01*
Y53228D01*
X3685D01*
Y48228D02*
Y52228D01*
X7685D01*
Y48228D01*
X3685D01*
Y43228D02*
Y47228D01*
X7685D01*
Y43228D01*
X3685D01*
Y38228D02*
Y42228D01*
X7685D01*
Y38228D01*
X3685D01*
Y33228D02*
Y37228D01*
X7685D01*
Y33228D01*
X3685D01*
Y28228D02*
Y32228D01*
X7685D01*
Y28228D01*
X3685D01*
X188000Y188000D02*
Y192000D01*
X192000D01*
Y188000D01*
X188000D01*
X163685Y188228D02*
Y192228D01*
X167685D01*
Y188228D01*
X163685D01*
X158685D02*
Y192228D01*
X162685D01*
Y188228D01*
X158685D01*
X153685D02*
Y192228D01*
X157685D01*
Y188228D01*
X153685D01*
X148685D02*
Y192228D01*
X152685D01*
Y188228D01*
X148685D01*
X143685D02*
Y192228D01*
X147685D01*
Y188228D01*
X143685D01*
X138685D02*
Y192228D01*
X142685D01*
Y188228D01*
X138685D01*
X133685D02*
Y192228D01*
X137685D01*
Y188228D01*
X133685D01*
X128685D02*
Y192228D01*
X132685D01*
Y188228D01*
X128685D01*
X123685D02*
Y192228D01*
X127685D01*
Y188228D01*
X123685D01*
X118685D02*
Y192228D01*
X122685D01*
Y188228D01*
X118685D01*
X113685D02*
Y192228D01*
X117685D01*
Y188228D01*
X113685D01*
X108685D02*
Y192228D01*
X112685D01*
Y188228D01*
X108685D01*
X103685D02*
Y192228D01*
X107685D01*
Y188228D01*
X103685D01*
X98685D02*
Y192228D01*
X102685D01*
Y188228D01*
X98685D01*
X93685D02*
Y192228D01*
X97685D01*
Y188228D01*
X93685D01*
X88685D02*
Y192228D01*
X92685D01*
Y188228D01*
X88685D01*
X83685D02*
Y192228D01*
X87685D01*
Y188228D01*
X83685D01*
X78685D02*
Y192228D01*
X82685D01*
Y188228D01*
X78685D01*
X73685D02*
Y192228D01*
X77685D01*
Y188228D01*
X73685D01*
X68685D02*
Y192228D01*
X72685D01*
Y188228D01*
X68685D01*
X63685D02*
Y192228D01*
X67685D01*
Y188228D01*
X63685D01*
X58685D02*
Y192228D01*
X62685D01*
Y188228D01*
X58685D01*
X53685D02*
Y192228D01*
X57685D01*
Y188228D01*
X53685D01*
X48685D02*
Y192228D01*
X52685D01*
Y188228D01*
X48685D01*
X43685D02*
Y192228D01*
X47685D01*
Y188228D01*
X43685D01*
X38685D02*
Y192228D01*
X42685D01*
Y188228D01*
X38685D01*
X33685D02*
Y192228D01*
X37685D01*
Y188228D01*
X33685D01*
X28685D02*
Y192228D01*
X32685D01*
Y188228D01*
X28685D01*
X23685D02*
Y192228D01*
X27685D01*
Y188228D01*
X23685D01*
X18685D02*
Y192228D01*
X22685D01*
Y188228D01*
X18685D01*
X13685D02*
Y192228D01*
X17685D01*
Y188228D01*
X13685D01*
X8685D02*
Y192228D01*
X12685D01*
Y188228D01*
X8685D01*
X168685Y4228D02*
Y8228D01*
X172685D01*
Y4228D01*
X168685D01*
X163685D02*
Y8228D01*
X167685D01*
Y4228D01*
X163685D01*
X158685D02*
Y8228D01*
X162685D01*
Y4228D01*
X158685D01*
X153685D02*
Y8228D01*
X157685D01*
Y4228D01*
X153685D01*
X148685D02*
Y8228D01*
X152685D01*
Y4228D01*
X148685D01*
X143685D02*
Y8228D01*
X147685D01*
Y4228D01*
X143685D01*
X138685D02*
Y8228D01*
X142685D01*
Y4228D01*
X138685D01*
X133685D02*
Y8228D01*
X137685D01*
Y4228D01*
X133685D01*
X128685D02*
Y8228D01*
X132685D01*
Y4228D01*
X128685D01*
X123685D02*
Y8228D01*
X127685D01*
Y4228D01*
X123685D01*
X118685D02*
Y8228D01*
X122685D01*
Y4228D01*
X118685D01*
X113685D02*
Y8228D01*
X117685D01*
Y4228D01*
X113685D01*
X108685D02*
Y8228D01*
X112685D01*
Y4228D01*
X108685D01*
X103685D02*
Y8228D01*
X107685D01*
Y4228D01*
X103685D01*
X98685D02*
Y8228D01*
X102685D01*
Y4228D01*
X98685D01*
X93685D02*
Y8228D01*
X97685D01*
Y4228D01*
X93685D01*
X88685D02*
Y8228D01*
X92685D01*
Y4228D01*
X88685D01*
X83685D02*
Y8228D01*
X87685D01*
Y4228D01*
X83685D01*
X78685D02*
Y8228D01*
X82685D01*
Y4228D01*
X78685D01*
X73685D02*
Y8228D01*
X77685D01*
Y4228D01*
X73685D01*
X68685D02*
Y8228D01*
X72685D01*
Y4228D01*
X68685D01*
X63685D02*
Y8228D01*
X67685D01*
Y4228D01*
X63685D01*
X58685D02*
Y8228D01*
X62685D01*
Y4228D01*
X58685D01*
X53685D02*
Y8228D01*
X57685D01*
Y4228D01*
X53685D01*
X48685D02*
Y8228D01*
X52685D01*
Y4228D01*
X48685D01*
X43685D02*
Y8228D01*
X47685D01*
Y4228D01*
X43685D01*
X38685D02*
Y8228D01*
X42685D01*
Y4228D01*
X38685D01*
X33685D02*
Y8228D01*
X37685D01*
Y4228D01*
X33685D01*
X28685D02*
Y8228D01*
X32685D01*
Y4228D01*
X28685D01*
X23685D02*
Y8228D01*
X27685D01*
Y4228D01*
X23685D01*
X18685D02*
Y8228D01*
X22685D01*
Y4228D01*
X18685D01*
X13685D02*
Y8228D01*
X17685D01*
Y4228D01*
X13685D01*
X8685D02*
Y8228D01*
X12685D01*
Y4228D01*
X8685D01*
X3685D02*
Y8228D01*
X7685D01*
Y4228D01*
X3685D01*
X32622Y57118D02*
Y61118D01*
X36622D01*
Y57118D01*
X32622D01*
Y49118D02*
Y53118D01*
X36622D01*
Y49118D01*
X32622D01*
X37622D02*
Y53118D01*
X41622D01*
Y49118D01*
X37622D01*
Y57118D02*
Y61118D01*
X41622D01*
Y57118D01*
X37622D01*
X42622Y49118D02*
Y53118D01*
X46622D01*
Y49118D01*
X42622D01*
Y57118D02*
Y61118D01*
X46622D01*
Y57118D01*
X42622D01*
X47622Y49118D02*
Y53118D01*
X51622D01*
Y49118D01*
X47622D01*
Y57118D02*
Y61118D01*
X51622D01*
Y57118D01*
X47622D01*
X52622Y49118D02*
Y53118D01*
X56622D01*
Y49118D01*
X52622D01*
Y57118D02*
Y61118D01*
X56622D01*
Y57118D01*
X52622D01*
X57622Y49118D02*
Y53118D01*
X61622D01*
Y49118D01*
X57622D01*
Y57118D02*
Y61118D01*
X61622D01*
Y57118D01*
X57622D01*
X62622Y49118D02*
Y53118D01*
X66622D01*
Y49118D01*
X62622D01*
Y57118D02*
Y61118D01*
X66622D01*
Y57118D01*
X62622D01*
X67622Y49118D02*
Y53118D01*
X71622D01*
Y49118D01*
X67622D01*
Y57118D02*
Y61118D01*
X71622D01*
Y57118D01*
X67622D01*
X72622Y49118D02*
Y53118D01*
X76622D01*
Y49118D01*
X72622D01*
Y57118D02*
Y61118D01*
X76622D01*
Y57118D01*
X72622D01*
X77622Y49118D02*
Y53118D01*
X81622D01*
Y49118D01*
X77622D01*
Y57118D02*
Y61118D01*
X81622D01*
Y57118D01*
X77622D01*
X82622Y49118D02*
Y53118D01*
X86622D01*
Y49118D01*
X82622D01*
Y57118D02*
Y61118D01*
X86622D01*
Y57118D01*
X82622D01*
X87622Y49118D02*
Y53118D01*
X91622D01*
Y49118D01*
X87622D01*
Y57118D02*
Y61118D01*
X91622D01*
Y57118D01*
X87622D01*
X92622Y49118D02*
Y53118D01*
X96622D01*
Y49118D01*
X92622D01*
Y57118D02*
Y61118D01*
X96622D01*
Y57118D01*
X92622D01*
X97622Y49118D02*
Y53118D01*
X101622D01*
Y49118D01*
X97622D01*
Y57118D02*
Y61118D01*
X101622D01*
Y57118D01*
X97622D01*
X102622Y49118D02*
Y53118D01*
X106622D01*
Y49118D01*
X102622D01*
Y57118D02*
Y61118D01*
X106622D01*
Y57118D01*
X102622D01*
X107622Y49118D02*
Y53118D01*
X111622D01*
Y49118D01*
X107622D01*
Y57118D02*
Y61118D01*
X111622D01*
Y57118D01*
X107622D01*
X112622Y49118D02*
Y53118D01*
X116622D01*
Y49118D01*
X112622D01*
Y57118D02*
Y61118D01*
X116622D01*
Y57118D01*
X112622D01*
X117622Y49118D02*
Y53118D01*
X121622D01*
Y49118D01*
X117622D01*
Y57118D02*
Y61118D01*
X121622D01*
Y57118D01*
X117622D01*
X122622Y49118D02*
Y53118D01*
X126622D01*
Y49118D01*
X122622D01*
Y57118D02*
Y61118D01*
X126622D01*
Y57118D01*
X122622D01*
X127622Y49118D02*
Y53118D01*
X131622D01*
Y49118D01*
X127622D01*
Y57118D02*
Y61118D01*
X131622D01*
Y57118D01*
X127622D01*
X132622Y49118D02*
Y53118D01*
X136622D01*
Y49118D01*
X132622D01*
Y57118D02*
Y61118D01*
X136622D01*
Y57118D01*
X132622D01*
X137622Y49118D02*
Y53118D01*
X141622D01*
Y49118D01*
X137622D01*
Y57118D02*
Y61118D01*
X141622D01*
Y57118D01*
X137622D01*
X142622Y49118D02*
Y53118D01*
X146622D01*
Y49118D01*
X142622D01*
Y57118D02*
Y61118D01*
X146622D01*
Y57118D01*
X142622D01*
X33016Y135071D02*
Y139071D01*
X37016D01*
Y135071D01*
X33016D01*
Y127071D02*
Y131071D01*
X37016D01*
Y127071D01*
X33016D01*
X38016D02*
Y131071D01*
X42016D01*
Y127071D01*
X38016D01*
Y135071D02*
Y139071D01*
X42016D01*
Y135071D01*
X38016D01*
X43016Y127071D02*
Y131071D01*
X47016D01*
Y127071D01*
X43016D01*
Y135071D02*
Y139071D01*
X47016D01*
Y135071D01*
X43016D01*
X48016Y127071D02*
Y131071D01*
X52016D01*
Y127071D01*
X48016D01*
Y135071D02*
Y139071D01*
X52016D01*
Y135071D01*
X48016D01*
X53016Y127071D02*
Y131071D01*
X57016D01*
Y127071D01*
X53016D01*
Y135071D02*
Y139071D01*
X57016D01*
Y135071D01*
X53016D01*
X58016Y127071D02*
Y131071D01*
X62016D01*
Y127071D01*
X58016D01*
Y135071D02*
Y139071D01*
X62016D01*
Y135071D01*
X58016D01*
X63016Y127071D02*
Y131071D01*
X67016D01*
Y127071D01*
X63016D01*
Y135071D02*
Y139071D01*
X67016D01*
Y135071D01*
X63016D01*
X68016Y127071D02*
Y131071D01*
X72016D01*
Y127071D01*
X68016D01*
Y135071D02*
Y139071D01*
X72016D01*
Y135071D01*
X68016D01*
X73016Y127071D02*
Y131071D01*
X77016D01*
Y127071D01*
X73016D01*
Y135071D02*
Y139071D01*
X77016D01*
Y135071D01*
X73016D01*
X78016Y127071D02*
Y131071D01*
X82016D01*
Y127071D01*
X78016D01*
Y135071D02*
Y139071D01*
X82016D01*
Y135071D01*
X78016D01*
X83016Y127071D02*
Y131071D01*
X87016D01*
Y127071D01*
X83016D01*
Y135071D02*
Y139071D01*
X87016D01*
Y135071D01*
X83016D01*
X88016Y127071D02*
Y131071D01*
X92016D01*
Y127071D01*
X88016D01*
Y135071D02*
Y139071D01*
X92016D01*
Y135071D01*
X88016D01*
X93016Y127071D02*
Y131071D01*
X97016D01*
Y127071D01*
X93016D01*
Y135071D02*
Y139071D01*
X97016D01*
Y135071D01*
X93016D01*
X98016Y127071D02*
Y131071D01*
X102016D01*
Y127071D01*
X98016D01*
Y135071D02*
Y139071D01*
X102016D01*
Y135071D01*
X98016D01*
X103016Y127071D02*
Y131071D01*
X107016D01*
Y127071D01*
X103016D01*
Y135071D02*
Y139071D01*
X107016D01*
Y135071D01*
X103016D01*
X108016Y127071D02*
Y131071D01*
X112016D01*
Y127071D01*
X108016D01*
Y135071D02*
Y139071D01*
X112016D01*
Y135071D01*
X108016D01*
X113016Y127071D02*
Y131071D01*
X117016D01*
Y127071D01*
X113016D01*
Y135071D02*
Y139071D01*
X117016D01*
Y135071D01*
X113016D01*
X118016Y127071D02*
Y131071D01*
X122016D01*
Y127071D01*
X118016D01*
Y135071D02*
Y139071D01*
X122016D01*
Y135071D01*
X118016D01*
X123016Y127071D02*
Y131071D01*
X127016D01*
Y127071D01*
X123016D01*
Y135071D02*
Y139071D01*
X127016D01*
Y135071D01*
X123016D01*
X128016Y127071D02*
Y131071D01*
X132016D01*
Y127071D01*
X128016D01*
Y135071D02*
Y139071D01*
X132016D01*
Y135071D01*
X128016D01*
X133016Y127071D02*
Y131071D01*
X137016D01*
Y127071D01*
X133016D01*
Y135071D02*
Y139071D01*
X137016D01*
Y135071D01*
X133016D01*
X138016Y127071D02*
Y131071D01*
X142016D01*
Y127071D01*
X138016D01*
Y135071D02*
Y139071D01*
X142016D01*
Y135071D01*
X138016D01*
X143016Y127071D02*
Y131071D01*
X147016D01*
Y127071D01*
X143016D01*
Y135071D02*
Y139071D01*
X147016D01*
Y135071D01*
X143016D01*
X28685Y96488D02*
Y100488D01*
X32685D01*
Y96488D01*
X28685D01*
Y88488D02*
Y92488D01*
X32685D01*
Y88488D01*
X28685D01*
X33685D02*
Y92488D01*
X37685D01*
Y88488D01*
X33685D01*
Y96488D02*
Y100488D01*
X37685D01*
Y96488D01*
X33685D01*
X38685Y88488D02*
Y92488D01*
X42685D01*
Y88488D01*
X38685D01*
Y96488D02*
Y100488D01*
X42685D01*
Y96488D01*
X38685D01*
X43685Y88488D02*
Y92488D01*
X47685D01*
Y88488D01*
X43685D01*
Y96488D02*
Y100488D01*
X47685D01*
Y96488D01*
X43685D01*
X48685Y88488D02*
Y92488D01*
X52685D01*
Y88488D01*
X48685D01*
Y96488D02*
Y100488D01*
X52685D01*
Y96488D01*
X48685D01*
X53685Y88488D02*
Y92488D01*
X57685D01*
Y88488D01*
X53685D01*
Y96488D02*
Y100488D01*
X57685D01*
Y96488D01*
X53685D01*
X58685Y88488D02*
Y92488D01*
X62685D01*
Y88488D01*
X58685D01*
Y96488D02*
Y100488D01*
X62685D01*
Y96488D01*
X58685D01*
X63685Y88488D02*
Y92488D01*
X67685D01*
Y88488D01*
X63685D01*
Y96488D02*
Y100488D01*
X67685D01*
Y96488D01*
X63685D01*
X68685Y88488D02*
Y92488D01*
X72685D01*
Y88488D01*
X68685D01*
Y96488D02*
Y100488D01*
X72685D01*
Y96488D01*
X68685D01*
X73685Y88488D02*
Y92488D01*
X77685D01*
Y88488D01*
X73685D01*
Y96488D02*
Y100488D01*
X77685D01*
Y96488D01*
X73685D01*
X78685Y88488D02*
Y92488D01*
X82685D01*
Y88488D01*
X78685D01*
Y96488D02*
Y100488D01*
X82685D01*
Y96488D01*
X78685D01*
X83685Y88488D02*
Y92488D01*
X87685D01*
Y88488D01*
X83685D01*
Y96488D02*
Y100488D01*
X87685D01*
Y96488D01*
X83685D01*
X88685Y88488D02*
Y92488D01*
X92685D01*
Y88488D01*
X88685D01*
Y96488D02*
Y100488D01*
X92685D01*
Y96488D01*
X88685D01*
X93685Y88488D02*
Y92488D01*
X97685D01*
Y88488D01*
X93685D01*
Y96488D02*
Y100488D01*
X97685D01*
Y96488D01*
X93685D01*
X98685Y88488D02*
Y92488D01*
X102685D01*
Y88488D01*
X98685D01*
Y96488D02*
Y100488D01*
X102685D01*
Y96488D01*
X98685D01*
X103685Y88488D02*
Y92488D01*
X107685D01*
Y88488D01*
X103685D01*
Y96488D02*
Y100488D01*
X107685D01*
Y96488D01*
X103685D01*
X108685Y88488D02*
Y92488D01*
X112685D01*
Y88488D01*
X108685D01*
Y96488D02*
Y100488D01*
X112685D01*
Y96488D01*
X108685D01*
X113685Y88488D02*
Y92488D01*
X117685D01*
Y88488D01*
X113685D01*
Y96488D02*
Y100488D01*
X117685D01*
Y96488D01*
X113685D01*
X118685Y88488D02*
Y92488D01*
X122685D01*
Y88488D01*
X118685D01*
Y96488D02*
Y100488D01*
X122685D01*
Y96488D01*
X118685D01*
X123685Y88488D02*
Y92488D01*
X127685D01*
Y88488D01*
X123685D01*
Y96488D02*
Y100488D01*
X127685D01*
Y96488D01*
X123685D01*
X128685Y88488D02*
Y92488D01*
X132685D01*
Y88488D01*
X128685D01*
Y96488D02*
Y100488D01*
X132685D01*
Y96488D01*
X128685D01*
X133685Y88488D02*
Y92488D01*
X137685D01*
Y88488D01*
X133685D01*
Y96488D02*
Y100488D01*
X137685D01*
Y96488D01*
X133685D01*
X138685Y88488D02*
Y92488D01*
X142685D01*
Y88488D01*
X138685D01*
Y96488D02*
Y100488D01*
X142685D01*
Y96488D01*
X138685D01*
X143685Y175228D02*
Y179228D01*
X147685D01*
Y175228D01*
X143685D01*
Y167228D02*
Y171228D01*
X147685D01*
Y167228D01*
X143685D01*
X138685Y175228D02*
Y179228D01*
X142685D01*
Y175228D01*
X138685D01*
Y167228D02*
Y171228D01*
X142685D01*
Y167228D01*
X138685D01*
X133685Y175228D02*
Y179228D01*
X137685D01*
Y175228D01*
X133685D01*
Y167228D02*
Y171228D01*
X137685D01*
Y167228D01*
X133685D01*
X128685Y175228D02*
Y179228D01*
X132685D01*
Y175228D01*
X128685D01*
Y167228D02*
Y171228D01*
X132685D01*
Y167228D01*
X128685D01*
X123685Y175228D02*
Y179228D01*
X127685D01*
Y175228D01*
X123685D01*
Y167228D02*
Y171228D01*
X127685D01*
Y167228D01*
X123685D01*
X118685Y175228D02*
Y179228D01*
X122685D01*
Y175228D01*
X118685D01*
Y167228D02*
Y171228D01*
X122685D01*
Y167228D01*
X118685D01*
X113685Y175228D02*
Y179228D01*
X117685D01*
Y175228D01*
X113685D01*
Y167228D02*
Y171228D01*
X117685D01*
Y167228D01*
X113685D01*
X108685Y175228D02*
Y179228D01*
X112685D01*
Y175228D01*
X108685D01*
Y167228D02*
Y171228D01*
X112685D01*
Y167228D01*
X108685D01*
X103685Y175228D02*
Y179228D01*
X107685D01*
Y175228D01*
X103685D01*
Y167228D02*
Y171228D01*
X107685D01*
Y167228D01*
X103685D01*
X98685Y175228D02*
Y179228D01*
X102685D01*
Y175228D01*
X98685D01*
Y167228D02*
Y171228D01*
X102685D01*
Y167228D01*
X98685D01*
X93685Y175228D02*
Y179228D01*
X97685D01*
Y175228D01*
X93685D01*
Y167228D02*
Y171228D01*
X97685D01*
Y167228D01*
X93685D01*
X88685Y175228D02*
Y179228D01*
X92685D01*
Y175228D01*
X88685D01*
Y167228D02*
Y171228D01*
X92685D01*
Y167228D01*
X88685D01*
X83685Y175228D02*
Y179228D01*
X87685D01*
Y175228D01*
X83685D01*
Y167228D02*
Y171228D01*
X87685D01*
Y167228D01*
X83685D01*
X78685Y175228D02*
Y179228D01*
X82685D01*
Y175228D01*
X78685D01*
Y167228D02*
Y171228D01*
X82685D01*
Y167228D01*
X78685D01*
X73685Y175228D02*
Y179228D01*
X77685D01*
Y175228D01*
X73685D01*
Y167228D02*
Y171228D01*
X77685D01*
Y167228D01*
X73685D01*
X68685Y175228D02*
Y179228D01*
X72685D01*
Y175228D01*
X68685D01*
Y167228D02*
Y171228D01*
X72685D01*
Y167228D01*
X68685D01*
X63685Y175228D02*
Y179228D01*
X67685D01*
Y175228D01*
X63685D01*
Y167228D02*
Y171228D01*
X67685D01*
Y167228D01*
X63685D01*
X58685Y175228D02*
Y179228D01*
X62685D01*
Y175228D01*
X58685D01*
Y167228D02*
Y171228D01*
X62685D01*
Y167228D01*
X58685D01*
X53685Y175228D02*
Y179228D01*
X57685D01*
Y175228D01*
X53685D01*
Y167228D02*
Y171228D01*
X57685D01*
Y167228D01*
X53685D01*
X48685Y175228D02*
Y179228D01*
X52685D01*
Y175228D01*
X48685D01*
Y167228D02*
Y171228D01*
X52685D01*
Y167228D01*
X48685D01*
X43685Y175228D02*
Y179228D01*
X47685D01*
Y175228D01*
X43685D01*
Y167228D02*
Y171228D01*
X47685D01*
Y167228D01*
X43685D01*
X38685Y175228D02*
Y179228D01*
X42685D01*
Y175228D01*
X38685D01*
Y167228D02*
Y171228D01*
X42685D01*
Y167228D01*
X38685D01*
X33685Y175228D02*
Y179228D01*
X37685D01*
Y175228D01*
X33685D01*
Y167228D02*
Y171228D01*
X37685D01*
Y167228D01*
X33685D01*
X28685D02*
Y171228D01*
X32685D01*
Y167228D01*
X28685D01*
Y175228D02*
Y179228D01*
X32685D01*
Y175228D01*
X28685D01*
M02*
