G04*
G04 #@! TF.GenerationSoftware,Altium Limited,Altium Designer,24.5.2 (23)*
G04*
G04 Layer_Color=65280*
%FSLAX25Y25*%
%MOIN*%
G70*
G04*
G04 #@! TF.SameCoordinates,466BDFCD-25A3-4837-BAAA-452BE7E626CC*
G04*
G04*
G04 #@! TF.FilePolarity,Positive*
G04*
G01*
G75*
%ADD10C,0.00500*%
%ADD12C,0.01000*%
D10*
X184980Y59689D02*
Y67689D01*
X178980Y59689D02*
Y67689D01*
X163228Y59795D02*
Y67795D01*
X169228Y59795D02*
Y67795D01*
D12*
X185176Y55695D02*
X179178D01*
Y52696D01*
X180178Y51696D01*
X182177D01*
X183177Y52696D01*
Y55695D01*
Y53696D02*
X185176Y51696D01*
X179178Y45698D02*
Y49697D01*
X182177D01*
X181177Y47698D01*
Y46698D01*
X182177Y45698D01*
X184177D01*
X185176Y46698D01*
Y48698D01*
X184177Y49697D01*
X162643Y47076D02*
X168641D01*
Y50076D01*
X167641Y51075D01*
X165642D01*
X164642Y50076D01*
Y47076D01*
Y49076D02*
X162643Y51075D01*
X167641Y53075D02*
X168641Y54074D01*
Y56073D01*
X167641Y57073D01*
X166641D01*
X165642Y56073D01*
X164642Y57073D01*
X163642D01*
X162643Y56073D01*
Y54074D01*
X163642Y53075D01*
X164642D01*
X165642Y54074D01*
X166641Y53075D01*
X167641D01*
X165642Y54074D02*
Y56073D01*
M02*
