M48
;Layer_Color=9474304
;FILE_FORMAT=2:5
INCH,TZ
;TYPE=PLATED
T01F00S00C0.01200
T02F00S00C0.01600
T03F00S00C0.03937
T04F00S00C0.12598
%
T01
X5602Y6406
X10602
X15602
X20602
X25602
X30602
X35602
X40602
X45602
X50602
X55602
X43728Y15795
X5602Y16406
Y11406
Y21406
Y26406
Y31405
Y36406
Y41405
Y46406
Y51406
X60602Y6406
X65602
X70602
X75602
X80602
X85602
X90602
X95602
X100602
X105602
X110602
X115602
X120602
X125602
X130602
X135602
X140602
X144984Y8098
Y13098
Y18098
Y23098
X145984Y27598
X143484Y32598
Y37598
Y42598
Y47598
Y52598
X153484Y52098
Y47098
Y42098
Y37098
Y32098
X153984Y27598
X154984Y23098
Y18098
Y13098
Y8098
X160602Y6406
X165181Y6598
X170602Y6406
X175602
X174106Y9555
Y14555
Y19555
Y24555
Y29555
Y34555
Y39555
Y44555
Y49555
Y54555
X192728Y53295
X192532Y48295
X193728Y43295
X194228Y38295
Y33295
X193728Y28295
X191728Y23295
Y18295
Y13295
Y8295
X185602Y6406
X180602
X203728Y8295
Y13295
Y18295
Y23295
X201728Y28295
X201228Y33295
Y38295
X201728Y43295
X202728Y48295
Y53295
X210602Y6406
X105728Y25795
X101665Y44988
X219579Y44201
Y54043
Y34161
X220602Y6406
X215602
X225602
X230602
X235602
X240602
X245602
X250602
X255602
X260602
X265602
Y11406
Y16406
Y21406
Y26406
Y31405
Y36406
Y41405
Y46406
Y51406
X260917Y53059
Y43807
X265602Y56406
Y61405
Y66405
Y71406
Y76406
Y81406
Y86405
Y91405
Y96406
Y101406
Y106405
Y111406
Y116405
Y121405
Y126406
Y131405
Y136406
Y141405
Y146405
Y151406
Y156405
Y161406
Y166405
Y171405
X260602
X255602
X250602
X245602
X240602
X235602
X230602
X225602
X220602
X215602
X227728Y144295
Y134795
Y125795
Y115295
Y105795
Y94795
X217020Y76681
X219579Y63886
X240839Y64083
X260917
X201228Y63295
Y58295
X194228
Y63295
X192000Y72000
X188000Y74000
X183728Y74795
X178728Y75295
X182500Y81500
X187500
X192728Y80295
X196728Y77795
X201075Y87306
X177106Y89555
Y94055
Y98555
X172106
Y94055
Y89555
X167106
Y94055
Y98555
X164000Y86000
X168201Y80981
X168000Y75000
X163000Y74500
X158000Y73500
X158500Y81000
X153500Y79500
X154000Y88000
X154484Y68098
X154984Y62598
Y57598
X144984
Y62598
X134146Y70776
X130602Y87705
X96350Y81012
X96153Y72404
X95366Y63295
X72728
Y72295
Y80795
Y91295
X75228Y127795
X75602Y171405
X70602
X65602
X60602
X80602
X85602
X90602
X95602
X100602
X105602
X110602
X115602
X120602
X125602
X130602
X135602
X140602
X145602
X150602
X155602
X160602
X165602
X170602
X175602
X180602
X185602
X190602
X195602
X200602
X205602
X210602
X183728Y159295
Y149795
X126728Y142295
X126228Y157795
X166232Y66642
X174106Y64555
Y69555
Y59555
X181980Y66642
X5602Y66405
Y61405
Y56406
Y71406
Y76406
Y81406
Y86405
Y91405
Y96406
Y101406
Y106405
Y111406
Y116405
Y121405
Y126406
Y131405
Y136406
Y141405
Y146405
Y151406
Y156405
Y161406
Y166405
Y171405
X10602
X15602
X20602
X25602
X30602
X35602
X40602
X45602
X50602
X55602
T02
X61902Y95382
X101075Y91839
X115248Y90658
X143595Y84752
X149580Y126224
X157374Y121760
X173122Y126091
X185721Y121366
X186508Y112705
X203240Y122153
X71547Y130815
X56193Y122350
T03
X23949Y77626
X33949
Y87626
X23949
Y97626
Y107626
Y117626
Y127626
X33949
Y117626
Y107626
Y97626
T04
X20563Y20579
X251468Y20972
X250484Y158177
X26469Y151484
M30
