G04*
G04 #@! TF.GenerationSoftware,Altium Limited,Altium Designer,24.5.2 (23)*
G04*
G04 Layer_Physical_Order=2*
G04 Layer_Color=16711680*
%FSLAX25Y25*%
%MOIN*%
G70*
G04*
G04 #@! TF.SameCoordinates,466BDFCD-25A3-4837-BAAA-452BE7E626CC*
G04*
G04*
G04 #@! TF.FilePolarity,Positive*
G04*
G01*
G75*
%ADD12C,0.01000*%
%ADD14C,0.02000*%
%ADD16R,0.07000X0.16000*%
%ADD20R,0.04331X0.03150*%
%ADD48C,0.03200*%
%ADD53C,0.03000*%
%ADD55C,0.01500*%
%ADD56C,0.07087*%
%ADD57R,0.07087X0.07087*%
%ADD58C,0.12598*%
%ADD59C,0.02400*%
%ADD60C,0.02402*%
G36*
X271350Y4437D02*
X3634D01*
Y173728D01*
X271350D01*
Y4437D01*
D02*
G37*
%LPC*%
G36*
X251164Y165076D02*
X249805D01*
X248472Y164811D01*
X247216Y164291D01*
X246086Y163536D01*
X245125Y162575D01*
X244370Y161445D01*
X243850Y160190D01*
X243585Y158857D01*
Y157498D01*
X243850Y156165D01*
X244370Y154909D01*
X245125Y153779D01*
X246086Y152818D01*
X247216Y152063D01*
X248472Y151543D01*
X249805Y151278D01*
X251164D01*
X252497Y151543D01*
X253752Y152063D01*
X254882Y152818D01*
X255843Y153779D01*
X256598Y154909D01*
X257118Y156165D01*
X257383Y157498D01*
Y158857D01*
X257118Y160190D01*
X256598Y161445D01*
X255843Y162575D01*
X254882Y163536D01*
X253752Y164291D01*
X252497Y164811D01*
X251164Y165076D01*
D02*
G37*
G36*
X27148Y158384D02*
X25789D01*
X24456Y158118D01*
X23201Y157598D01*
X22071Y156843D01*
X21110Y155882D01*
X20355Y154752D01*
X19834Y153497D01*
X19569Y152164D01*
Y150805D01*
X19834Y149472D01*
X20355Y148216D01*
X21110Y147086D01*
X22071Y146125D01*
X23201Y145370D01*
X24456Y144850D01*
X25789Y144585D01*
X27148D01*
X28481Y144850D01*
X29737Y145370D01*
X30867Y146125D01*
X31828Y147086D01*
X32583Y148216D01*
X33103Y149472D01*
X33368Y150805D01*
Y152164D01*
X33103Y153497D01*
X32583Y154752D01*
X31828Y155882D01*
X30867Y156843D01*
X29737Y157598D01*
X28481Y158118D01*
X27148Y158384D01*
D02*
G37*
G36*
X38092Y131769D02*
X29805D01*
Y123483D01*
X38092D01*
Y131769D01*
D02*
G37*
G36*
X24494D02*
X23403D01*
X22350Y131487D01*
X21405Y130941D01*
X20633Y130170D01*
X20088Y129225D01*
X19805Y128172D01*
Y127081D01*
X20088Y126027D01*
X20633Y125082D01*
X21405Y124311D01*
X22350Y123765D01*
X23403Y123483D01*
X24494D01*
X25548Y123765D01*
X26493Y124311D01*
X27264Y125082D01*
X27810Y126027D01*
X28092Y127081D01*
Y128172D01*
X27810Y129225D01*
X27264Y130170D01*
X26493Y130941D01*
X25548Y131487D01*
X24494Y131769D01*
D02*
G37*
G36*
X150018Y128424D02*
X149143D01*
X148334Y128089D01*
X147715Y127470D01*
X147380Y126662D01*
Y125786D01*
X147715Y124978D01*
X148334Y124359D01*
X148793Y124169D01*
X148878Y124112D01*
X148978Y124092D01*
X149143Y124024D01*
X149321D01*
X149697Y123949D01*
X155596D01*
X155807Y123475D01*
X155572Y123177D01*
X58232D01*
X58058Y123597D01*
X57439Y124215D01*
X56630Y124550D01*
X55755D01*
X54947Y124215D01*
X54328Y123597D01*
X53993Y122788D01*
Y121913D01*
X54328Y121104D01*
X54947Y120485D01*
X55755Y120150D01*
X56630D01*
X57439Y120485D01*
X57887Y120934D01*
X155335D01*
X155509Y120514D01*
X156128Y119895D01*
X156936Y119560D01*
X157812D01*
X158620Y119895D01*
X159239Y120514D01*
X159574Y121322D01*
Y122197D01*
X159239Y123006D01*
X158796Y123449D01*
X159003Y123949D01*
X172542D01*
X172684Y123891D01*
X173560D01*
X174368Y124225D01*
X174987Y124844D01*
X175322Y125653D01*
Y126528D01*
X174987Y127337D01*
X174368Y127956D01*
X173560Y128291D01*
X172684D01*
X172542Y128232D01*
X150482D01*
X150018Y128424D01*
D02*
G37*
G36*
X71985Y133015D02*
X71110D01*
X70301Y132680D01*
X69682Y132061D01*
X69347Y131253D01*
Y130377D01*
X69682Y129569D01*
X70301Y128950D01*
X71110Y128615D01*
X71985D01*
X72793Y128950D01*
X73412Y129569D01*
X73464Y129693D01*
X202119D01*
Y124070D01*
X201994Y124019D01*
X201375Y123400D01*
X201040Y122591D01*
Y121716D01*
X201375Y120907D01*
X201994Y120289D01*
X202802Y119954D01*
X203678D01*
X204486Y120289D01*
X205105Y120907D01*
X205440Y121716D01*
Y122591D01*
X205105Y123400D01*
X204486Y124019D01*
X204362Y124070D01*
Y130815D01*
X204276Y131244D01*
X204033Y131608D01*
X203669Y131851D01*
X203240Y131937D01*
X73464D01*
X73412Y132061D01*
X72793Y132680D01*
X71985Y133015D01*
D02*
G37*
G36*
X24547Y122169D02*
X24449D01*
Y118126D01*
X28492D01*
Y118224D01*
X28183Y119380D01*
X27584Y120416D01*
X26739Y121262D01*
X25703Y121860D01*
X24547Y122169D01*
D02*
G37*
G36*
X23449D02*
X23351D01*
X22195Y121860D01*
X21159Y121262D01*
X20313Y120416D01*
X19715Y119380D01*
X19406Y118224D01*
Y118126D01*
X23449D01*
Y122169D01*
D02*
G37*
G36*
X186158Y123566D02*
X185283D01*
X184474Y123231D01*
X183855Y122612D01*
X183520Y121804D01*
Y120929D01*
X183855Y120120D01*
X184474Y119501D01*
X184599Y119449D01*
Y117960D01*
X140445D01*
X140016Y117875D01*
X139652Y117632D01*
X139409Y117268D01*
X139323Y116839D01*
Y113826D01*
X36620D01*
X36513Y114225D01*
X36509Y114326D01*
X37264Y115082D01*
X37810Y116027D01*
X38092Y117080D01*
Y118172D01*
X37810Y119225D01*
X37264Y120170D01*
X36493Y120941D01*
X35548Y121487D01*
X34494Y121769D01*
X33403D01*
X32350Y121487D01*
X31405Y120941D01*
X30633Y120170D01*
X30088Y119225D01*
X29805Y118172D01*
Y117080D01*
X30088Y116027D01*
X30633Y115082D01*
X31389Y114326D01*
X31385Y114225D01*
X31278Y113826D01*
X27281D01*
X27074Y114326D01*
X27584Y114836D01*
X28183Y115872D01*
X28492Y117028D01*
Y117126D01*
X19406D01*
Y117028D01*
X19715Y115872D01*
X20313Y114836D01*
X21159Y113990D01*
X22195Y113392D01*
X22885Y113207D01*
X22913Y113134D01*
X22827Y112705D01*
Y111615D01*
X22350Y111487D01*
X21405Y110942D01*
X20633Y110170D01*
X20088Y109225D01*
X19805Y108171D01*
Y107080D01*
X20088Y106027D01*
X20633Y105082D01*
X21405Y104311D01*
X22350Y103765D01*
X22834Y103635D01*
X22848Y103620D01*
X23012Y103070D01*
X22913Y102921D01*
X22827Y102492D01*
Y101615D01*
X22350Y101487D01*
X21405Y100941D01*
X20633Y100170D01*
X20088Y99225D01*
X19805Y98172D01*
Y97080D01*
X20088Y96027D01*
X20633Y95082D01*
X21405Y94310D01*
X22350Y93765D01*
X23403Y93483D01*
X24494D01*
X25548Y93765D01*
X26493Y94310D01*
X27264Y95082D01*
X27810Y96027D01*
X28092Y97080D01*
Y98172D01*
X27810Y99225D01*
X27264Y100170D01*
X26564Y100870D01*
X26665Y101370D01*
X31233D01*
X31333Y100870D01*
X30633Y100170D01*
X30088Y99225D01*
X29805Y98172D01*
Y97080D01*
X30088Y96027D01*
X30633Y95082D01*
X31405Y94310D01*
X32350Y93765D01*
X33403Y93483D01*
X34494D01*
X35548Y93765D01*
X36493Y94310D01*
X37264Y95082D01*
X37810Y96027D01*
X38092Y97080D01*
Y98172D01*
X37810Y99225D01*
X37264Y100170D01*
X36564Y100870D01*
X36665Y101370D01*
X147138D01*
X147567Y101455D01*
X147931Y101699D01*
X148174Y102062D01*
X148259Y102492D01*
Y111583D01*
X184591D01*
X184643Y111459D01*
X185262Y110840D01*
X186070Y110505D01*
X186945D01*
X187754Y110840D01*
X188373Y111459D01*
X188708Y112267D01*
Y113142D01*
X188373Y113951D01*
X187754Y114570D01*
X186945Y114905D01*
X186070D01*
X185262Y114570D01*
X184643Y113951D01*
X184591Y113826D01*
X147138D01*
X146709Y113741D01*
X146345Y113498D01*
X146102Y113134D01*
X146016Y112705D01*
Y103613D01*
X36285D01*
X36151Y104113D01*
X36493Y104311D01*
X37264Y105082D01*
X37810Y106027D01*
X38092Y107080D01*
Y108171D01*
X37810Y109225D01*
X37264Y110170D01*
X36493Y110942D01*
X36247Y111083D01*
X36381Y111583D01*
X140445D01*
X140874Y111669D01*
X141238Y111912D01*
X141481Y112276D01*
X141566Y112705D01*
Y115717D01*
X185721D01*
X186150Y115802D01*
X186513Y116045D01*
X186757Y116409D01*
X186842Y116839D01*
Y119449D01*
X186967Y119501D01*
X187585Y120120D01*
X187920Y120929D01*
Y121804D01*
X187585Y122612D01*
X186967Y123231D01*
X186158Y123566D01*
D02*
G37*
G36*
X62339Y97582D02*
X61464D01*
X60655Y97247D01*
X60036Y96628D01*
X59702Y95819D01*
Y94944D01*
X60036Y94136D01*
X60655Y93517D01*
X61464Y93182D01*
X62339D01*
X63148Y93517D01*
X63767Y94136D01*
X63818Y94260D01*
X99866D01*
X99966Y93760D01*
X99829Y93704D01*
X99210Y93085D01*
X98875Y92276D01*
Y91401D01*
X99210Y90592D01*
X99829Y89973D01*
X99953Y89922D01*
Y85024D01*
X99953Y85024D01*
X100039Y84595D01*
X100282Y84231D01*
X100750Y83762D01*
X100750Y83762D01*
X100914Y83653D01*
X100762Y83153D01*
X96350D01*
X95531Y82990D01*
X94836Y82526D01*
X94372Y81831D01*
X94209Y81012D01*
X94372Y80192D01*
X94836Y79498D01*
X95531Y79034D01*
X96350Y78871D01*
X100312D01*
Y74546D01*
X96153D01*
X95334Y74383D01*
X94639Y73918D01*
X94175Y73224D01*
X94012Y72404D01*
X94175Y71585D01*
X94639Y70890D01*
X95334Y70426D01*
X96153Y70263D01*
X100312D01*
Y65436D01*
X95366D01*
X94547Y65273D01*
X93852Y64809D01*
X93388Y64115D01*
X93225Y63295D01*
X93388Y62476D01*
X93852Y61781D01*
X94547Y61317D01*
X95366Y61154D01*
X100312D01*
Y46663D01*
X100151Y46502D01*
X99687Y45808D01*
X99524Y44988D01*
X99687Y44169D01*
X100151Y43474D01*
X100846Y43010D01*
X101665Y42847D01*
X102485Y43010D01*
X103179Y43474D01*
X103967Y44262D01*
X104431Y44956D01*
X104594Y45776D01*
Y63098D01*
Y72350D01*
Y78280D01*
X124894D01*
X125713Y78443D01*
X126408Y78907D01*
X126872Y79602D01*
X126890Y79693D01*
X146153D01*
X146153Y79693D01*
X146583Y79779D01*
X146947Y80022D01*
X147088Y80163D01*
X147088Y80163D01*
X147331Y80527D01*
X147416Y80956D01*
Y86898D01*
X147331Y87327D01*
X147088Y87691D01*
X147088Y87691D01*
X146281Y88498D01*
X145917Y88741D01*
X145488Y88826D01*
X145488Y88826D01*
X132026D01*
X131622Y89231D01*
X130960Y89505D01*
X130244D01*
X129583Y89231D01*
X129076Y88724D01*
X128802Y88063D01*
Y87347D01*
X129076Y86685D01*
X129583Y86179D01*
X129588Y86177D01*
X129488Y85677D01*
X102196D01*
Y89922D01*
X102321Y89973D01*
X102940Y90592D01*
X103275Y91401D01*
Y92276D01*
X102940Y93085D01*
X102321Y93704D01*
X102184Y93760D01*
X102284Y94260D01*
X105465D01*
Y90658D01*
X105550Y90228D01*
X105794Y89864D01*
X106157Y89621D01*
X106587Y89536D01*
X113331D01*
X113383Y89411D01*
X114002Y88792D01*
X114810Y88458D01*
X115686D01*
X116494Y88792D01*
X117113Y89411D01*
X117448Y90220D01*
Y91095D01*
X117113Y91904D01*
X116494Y92523D01*
X115686Y92857D01*
X114810D01*
X114002Y92523D01*
X113383Y91904D01*
X113331Y91779D01*
X107708D01*
Y95382D01*
X107623Y95811D01*
X107380Y96175D01*
X107016Y96418D01*
X106587Y96503D01*
X63818D01*
X63767Y96628D01*
X63148Y97247D01*
X62339Y97582D01*
D02*
G37*
G36*
X34494Y91769D02*
X33403D01*
X32350Y91487D01*
X31405Y90941D01*
X30633Y90170D01*
X30088Y89225D01*
X29805Y88171D01*
Y87081D01*
X30088Y86027D01*
X30633Y85082D01*
X31405Y84311D01*
X32350Y83765D01*
X33403Y83483D01*
X34494D01*
X35548Y83765D01*
X36493Y84311D01*
X37264Y85082D01*
X37810Y86027D01*
X38092Y87081D01*
Y88171D01*
X37810Y89225D01*
X37264Y90170D01*
X36493Y90941D01*
X35548Y91487D01*
X34494Y91769D01*
D02*
G37*
G36*
X24494D02*
X23403D01*
X22350Y91487D01*
X21405Y90941D01*
X20633Y90170D01*
X20088Y89225D01*
X19805Y88171D01*
Y87081D01*
X20088Y86027D01*
X20633Y85082D01*
X21405Y84311D01*
X22350Y83765D01*
X23403Y83483D01*
X24494D01*
X25548Y83765D01*
X26493Y84311D01*
X27264Y85082D01*
X27810Y86027D01*
X28092Y87081D01*
Y88171D01*
X27810Y89225D01*
X27264Y90170D01*
X26493Y90941D01*
X25548Y91487D01*
X24494Y91769D01*
D02*
G37*
G36*
X34494Y81769D02*
X33403D01*
X32350Y81487D01*
X31405Y80941D01*
X30633Y80170D01*
X30088Y79225D01*
X29805Y78171D01*
Y77081D01*
X30088Y76027D01*
X30633Y75082D01*
X31405Y74310D01*
X32350Y73765D01*
X33403Y73483D01*
X34494D01*
X35548Y73765D01*
X36493Y74310D01*
X37264Y75082D01*
X37810Y76027D01*
X38092Y77081D01*
Y78171D01*
X37810Y79225D01*
X37264Y80170D01*
X36493Y80941D01*
X35548Y81487D01*
X34494Y81769D01*
D02*
G37*
G36*
X24494D02*
X23403D01*
X22350Y81487D01*
X21405Y80941D01*
X20633Y80170D01*
X20088Y79225D01*
X19805Y78171D01*
Y77081D01*
X20088Y76027D01*
X20633Y75082D01*
X21405Y74310D01*
X22350Y73765D01*
X23403Y73483D01*
X24494D01*
X25548Y73765D01*
X26493Y74310D01*
X27264Y75082D01*
X27810Y76027D01*
X28092Y77081D01*
Y78171D01*
X27810Y79225D01*
X27264Y80170D01*
X26493Y80941D01*
X25548Y81487D01*
X24494Y81769D01*
D02*
G37*
G36*
X184746Y68817D02*
X179215D01*
Y64467D01*
X184746D01*
Y68817D01*
D02*
G37*
G36*
X201272Y109554D02*
X150484D01*
X149958Y109449D01*
X149511Y109151D01*
X149213Y108704D01*
X149108Y108177D01*
Y78058D01*
X140051D01*
X139524Y77953D01*
X139078Y77654D01*
X133999Y72576D01*
X133788D01*
X133126Y72302D01*
X132620Y71795D01*
X132346Y71134D01*
Y70418D01*
X132620Y69756D01*
X133126Y69250D01*
X133788Y68976D01*
X134504D01*
X135165Y69250D01*
X135672Y69756D01*
X135946Y70418D01*
Y70629D01*
X140621Y75305D01*
X149323D01*
X149511Y75023D01*
X163463Y61071D01*
Y58668D01*
X168994D01*
Y63017D01*
X165410D01*
X164316Y64111D01*
X164507Y64573D01*
X168994D01*
Y68923D01*
X163463D01*
Y65617D01*
X163001Y65426D01*
X151861Y76566D01*
Y87155D01*
X152361Y87254D01*
X152474Y86980D01*
X152980Y86474D01*
X153642Y86200D01*
X154358D01*
X155020Y86474D01*
X155424Y86878D01*
X156535D01*
X163225Y80189D01*
X163225Y80188D01*
X163589Y79945D01*
X164018Y79860D01*
X164019Y79860D01*
X166777D01*
X167181Y79456D01*
X167843Y79181D01*
X168559D01*
X169220Y79456D01*
X169727Y79962D01*
X170001Y80624D01*
Y81340D01*
X169727Y82001D01*
X169220Y82507D01*
X168559Y82781D01*
X167843D01*
X167181Y82507D01*
X166777Y82103D01*
X164483D01*
X157793Y88793D01*
X157429Y89036D01*
X157000Y89122D01*
X157000Y89122D01*
X155424D01*
X155020Y89526D01*
X154358Y89800D01*
X153642D01*
X152980Y89526D01*
X152474Y89020D01*
X152361Y88746D01*
X151861Y88845D01*
Y106801D01*
X199895D01*
Y88672D01*
X199549Y88326D01*
X199275Y87664D01*
Y86948D01*
X199549Y86286D01*
X199895Y85940D01*
Y77251D01*
X185246Y62602D01*
X184746Y62809D01*
Y62911D01*
X179215D01*
Y58561D01*
X184746D01*
Y59360D01*
X185327D01*
X185854Y59465D01*
X186300Y59763D01*
X201842Y75305D01*
X215851D01*
X216000Y75155D01*
X216662Y74881D01*
X217378D01*
X217785Y75050D01*
X238588D01*
X239207Y74431D01*
Y64848D01*
X239039Y64441D01*
Y63725D01*
X239313Y63063D01*
X239819Y62557D01*
X240480Y62283D01*
X241197D01*
X241858Y62557D01*
X242365Y63063D01*
X242639Y63725D01*
Y64441D01*
X242470Y64848D01*
Y75106D01*
X242346Y75731D01*
X241992Y76260D01*
X240417Y77835D01*
X239888Y78188D01*
X239264Y78312D01*
X217785D01*
X217378Y78481D01*
X216662D01*
X216000Y78207D01*
X215851Y78058D01*
X202648D01*
Y86401D01*
X202875Y86948D01*
Y87664D01*
X202648Y88212D01*
Y108177D01*
X202543Y108704D01*
X202245Y109151D01*
X201798Y109449D01*
X201272Y109554D01*
D02*
G37*
G36*
X252148Y27872D02*
X250789D01*
X249456Y27606D01*
X248200Y27086D01*
X247071Y26331D01*
X246110Y25370D01*
X245355Y24240D01*
X244834Y22985D01*
X244569Y21652D01*
Y20293D01*
X244834Y18960D01*
X245355Y17704D01*
X246110Y16574D01*
X247071Y15613D01*
X248200Y14858D01*
X249456Y14338D01*
X250789Y14073D01*
X252148D01*
X253481Y14338D01*
X254736Y14858D01*
X255867Y15613D01*
X256827Y16574D01*
X257582Y17704D01*
X258103Y18960D01*
X258368Y20293D01*
Y21652D01*
X258103Y22985D01*
X257582Y24240D01*
X256827Y25370D01*
X255867Y26331D01*
X254736Y27086D01*
X253481Y27606D01*
X252148Y27872D01*
D02*
G37*
G36*
X21242Y27478D02*
X19884D01*
X18551Y27213D01*
X17295Y26693D01*
X16165Y25938D01*
X15204Y24977D01*
X14449Y23847D01*
X13929Y22591D01*
X13664Y21258D01*
Y19899D01*
X13929Y18566D01*
X14449Y17311D01*
X15204Y16181D01*
X16165Y15220D01*
X17295Y14465D01*
X18551Y13945D01*
X19884Y13679D01*
X21242D01*
X22575Y13945D01*
X23831Y14465D01*
X24961Y15220D01*
X25922Y16181D01*
X26677Y17311D01*
X27197Y18566D01*
X27462Y19899D01*
Y21258D01*
X27197Y22591D01*
X26677Y23847D01*
X25922Y24977D01*
X24961Y25938D01*
X23831Y26693D01*
X22575Y27213D01*
X21242Y27478D01*
D02*
G37*
%LPD*%
G36*
X142348Y82887D02*
X143157Y82552D01*
X144032D01*
X144673Y82817D01*
X145173Y82566D01*
Y81937D01*
X126406D01*
X125713Y82399D01*
X124894Y82562D01*
X102858D01*
X102302Y82934D01*
X102344Y83323D01*
X102385Y83434D01*
X141802D01*
X142348Y82887D01*
D02*
G37*
D12*
X157000Y88000D02*
X164018Y80981D01*
X154000Y88000D02*
X157000D01*
X164018Y80981D02*
X168201D01*
X157079Y122055D02*
X157374Y121760D01*
X56488Y122055D02*
X157079D01*
X56193Y122350D02*
X56488Y122055D01*
X23949Y97626D02*
Y102492D01*
X147138D01*
X23949Y107626D02*
Y112705D01*
X186508D02*
Y112783D01*
X147138Y102492D02*
Y112705D01*
X186508D01*
X23949D02*
X140445D01*
Y116839D01*
X185721D01*
Y121366D01*
X203240Y122153D02*
Y130815D01*
X71547D02*
X203240D01*
X61902Y95382D02*
X106587D01*
X61902D02*
Y95579D01*
X106587Y90658D02*
X115248D01*
X106587D02*
Y95382D01*
X130602Y87705D02*
X145488D01*
X101075Y85024D02*
X101543Y84555D01*
X101075Y85024D02*
Y91839D01*
X145488Y87705D02*
X146294Y86898D01*
X101543Y84555D02*
X143398D01*
X143595Y84752D01*
X146153Y80815D02*
X146294Y80956D01*
X125287Y80815D02*
X146153D01*
X146294Y80956D02*
Y86898D01*
X124894Y80421D02*
X125287Y80815D01*
D14*
X217020Y76681D02*
X239264D01*
X240839Y75106D01*
Y64083D02*
Y75106D01*
D16*
X187728Y13295D02*
D03*
X207728D02*
D03*
X159984Y13098D02*
D03*
X139984D02*
D03*
D20*
X181980Y60736D02*
D03*
Y66642D02*
D03*
X166228Y66748D02*
D03*
Y60843D02*
D03*
D48*
X61902Y95382D02*
D03*
X173122Y126091D02*
D03*
X149580Y126224D02*
D03*
X101075Y91839D02*
D03*
X186508Y112705D02*
D03*
X157374Y121760D02*
D03*
X56193Y122350D02*
D03*
X185721Y121366D02*
D03*
X203240Y122153D02*
D03*
X71547Y130815D02*
D03*
X115248Y90658D02*
D03*
X143595Y84752D02*
D03*
D53*
X149697Y126091D02*
X173122D01*
X96153Y72404D02*
X102399D01*
X102453Y72350D01*
X102256Y63295D02*
X102453Y63098D01*
X95366Y63295D02*
X102256D01*
X102453Y63098D02*
Y72350D01*
X96350Y81012D02*
X101398D01*
X102453Y72350D02*
Y79957D01*
X101398Y81012D02*
X101989Y80421D01*
X124894D01*
X101989D02*
X102453Y79957D01*
X101665Y44988D02*
X102453Y45776D01*
Y63098D01*
D55*
X134146Y70776D02*
X140051Y76681D01*
X150484Y108177D02*
X201272D01*
X150484Y76681D02*
Y108177D01*
X140051Y76681D02*
X150484D01*
Y75996D02*
Y76681D01*
Y75996D02*
X165638Y60843D01*
X166228D01*
X201272Y87306D02*
Y108177D01*
Y76681D02*
Y87306D01*
Y76681D02*
X217020D01*
X181980Y60736D02*
X185327D01*
X201272Y76681D01*
D56*
X23949Y77626D02*
D03*
X33949D02*
D03*
X23949Y127626D02*
D03*
Y117626D02*
D03*
Y107626D02*
D03*
Y97626D02*
D03*
Y87626D02*
D03*
X33949Y117626D02*
D03*
Y107626D02*
D03*
Y97626D02*
D03*
Y87626D02*
D03*
D57*
Y127626D02*
D03*
D58*
X251468Y20972D02*
D03*
X20563Y20579D02*
D03*
X26469Y151484D02*
D03*
X250484Y158177D02*
D03*
D59*
X194228Y38295D02*
D03*
X154484Y68098D02*
D03*
X154984Y62598D02*
D03*
Y57598D02*
D03*
X153984Y27598D02*
D03*
X153484Y42098D02*
D03*
Y52098D02*
D03*
Y37098D02*
D03*
Y47098D02*
D03*
Y32098D02*
D03*
X154984Y23098D02*
D03*
Y18098D02*
D03*
X143484Y32598D02*
D03*
X144984Y23098D02*
D03*
X145984Y27598D02*
D03*
X164000Y86000D02*
D03*
X158500Y81000D02*
D03*
X153500Y79500D02*
D03*
X158000Y73500D02*
D03*
X163000Y74500D02*
D03*
X168000Y75000D02*
D03*
X154000Y88000D02*
D03*
X181980Y66642D02*
D03*
X217020Y76681D02*
D03*
X126228Y157795D02*
D03*
X126728Y142295D02*
D03*
X130602Y87705D02*
D03*
X96350Y81012D02*
D03*
X96153Y72404D02*
D03*
X95366Y63295D02*
D03*
X101665Y44988D02*
D03*
X201075Y87306D02*
D03*
X240839Y64083D02*
D03*
X168201Y80981D02*
D03*
X134146Y70776D02*
D03*
X5602Y6406D02*
D03*
X10602D02*
D03*
X15602D02*
D03*
X20602D02*
D03*
X25602D02*
D03*
X30602D02*
D03*
X35602D02*
D03*
X40602D02*
D03*
X50602D02*
D03*
X45602D02*
D03*
X55602D02*
D03*
X60602D02*
D03*
X65602D02*
D03*
X70602D02*
D03*
X75602D02*
D03*
X80602D02*
D03*
X85602D02*
D03*
X90602D02*
D03*
X95602D02*
D03*
X100602D02*
D03*
X105602D02*
D03*
X110602D02*
D03*
X115602D02*
D03*
X120602D02*
D03*
X125602D02*
D03*
X130602D02*
D03*
X170602D02*
D03*
X175602D02*
D03*
X215602D02*
D03*
X220602D02*
D03*
X225602D02*
D03*
X230602D02*
D03*
X235602D02*
D03*
X240602D02*
D03*
X245602D02*
D03*
X250602D02*
D03*
X255602D02*
D03*
X260602D02*
D03*
X265602D02*
D03*
X5602Y11406D02*
D03*
Y16406D02*
D03*
Y21406D02*
D03*
Y26406D02*
D03*
Y31405D02*
D03*
Y36406D02*
D03*
Y41405D02*
D03*
Y46406D02*
D03*
Y51406D02*
D03*
Y56406D02*
D03*
Y61405D02*
D03*
Y66405D02*
D03*
Y71406D02*
D03*
Y76406D02*
D03*
Y81406D02*
D03*
Y86405D02*
D03*
Y91405D02*
D03*
Y96406D02*
D03*
Y101406D02*
D03*
Y106405D02*
D03*
Y111406D02*
D03*
Y116405D02*
D03*
Y121405D02*
D03*
Y126406D02*
D03*
Y131405D02*
D03*
Y136406D02*
D03*
Y141405D02*
D03*
Y146405D02*
D03*
Y151406D02*
D03*
Y156405D02*
D03*
Y161406D02*
D03*
Y166405D02*
D03*
Y171405D02*
D03*
X10602D02*
D03*
X15602D02*
D03*
X20602D02*
D03*
X25602D02*
D03*
X30602D02*
D03*
X35602D02*
D03*
X45602D02*
D03*
X40602D02*
D03*
X50602D02*
D03*
X55602D02*
D03*
X60602D02*
D03*
X65602D02*
D03*
X70602D02*
D03*
X75602D02*
D03*
X80602D02*
D03*
X85602D02*
D03*
X90602D02*
D03*
X95602D02*
D03*
X100602D02*
D03*
X105602D02*
D03*
X110602D02*
D03*
X120602D02*
D03*
X115602D02*
D03*
X125602D02*
D03*
X130602D02*
D03*
X135602D02*
D03*
X140602D02*
D03*
X150602D02*
D03*
X145602D02*
D03*
X155602D02*
D03*
X160602D02*
D03*
X165602D02*
D03*
X175602D02*
D03*
X170602D02*
D03*
X180602D02*
D03*
X185602D02*
D03*
X195602D02*
D03*
X190602D02*
D03*
X200602D02*
D03*
X205602D02*
D03*
X210602D02*
D03*
X215602D02*
D03*
X220602D02*
D03*
X225602D02*
D03*
X230602D02*
D03*
X235602D02*
D03*
X240602D02*
D03*
X245602D02*
D03*
X250602D02*
D03*
X255602D02*
D03*
X260602D02*
D03*
X265602D02*
D03*
X135602Y6406D02*
D03*
X140602D02*
D03*
X160602D02*
D03*
X185602D02*
D03*
X180602D02*
D03*
X210602D02*
D03*
X265602Y166405D02*
D03*
Y161406D02*
D03*
Y156405D02*
D03*
Y151406D02*
D03*
Y146405D02*
D03*
Y141405D02*
D03*
Y136406D02*
D03*
Y131405D02*
D03*
Y126406D02*
D03*
Y121405D02*
D03*
Y116405D02*
D03*
Y111406D02*
D03*
Y101406D02*
D03*
Y106405D02*
D03*
Y96406D02*
D03*
Y91405D02*
D03*
Y86405D02*
D03*
Y81406D02*
D03*
Y76406D02*
D03*
Y71406D02*
D03*
Y66405D02*
D03*
Y61405D02*
D03*
Y56406D02*
D03*
Y51406D02*
D03*
Y46406D02*
D03*
Y41405D02*
D03*
Y36406D02*
D03*
Y31405D02*
D03*
Y26406D02*
D03*
Y21406D02*
D03*
Y16406D02*
D03*
Y11406D02*
D03*
X144984Y13098D02*
D03*
Y18098D02*
D03*
X143484Y47598D02*
D03*
Y37598D02*
D03*
Y52598D02*
D03*
X144984Y57598D02*
D03*
Y8098D02*
D03*
X165181Y6598D02*
D03*
X143484Y42598D02*
D03*
X144984Y62598D02*
D03*
X154984Y8098D02*
D03*
Y13098D02*
D03*
X191728Y13295D02*
D03*
Y18295D02*
D03*
Y23295D02*
D03*
X193728Y28295D02*
D03*
X194228Y33295D02*
D03*
X192532Y48295D02*
D03*
X192728Y53295D02*
D03*
X194228Y58295D02*
D03*
X191728Y8295D02*
D03*
X193728Y43295D02*
D03*
X201228Y63295D02*
D03*
X201728Y43295D02*
D03*
X203728Y8295D02*
D03*
X201228Y58295D02*
D03*
X202728Y53295D02*
D03*
X201228Y38295D02*
D03*
X202728Y48295D02*
D03*
X201228Y33295D02*
D03*
X201728Y28295D02*
D03*
X203728Y23295D02*
D03*
Y18295D02*
D03*
Y13295D02*
D03*
X166232Y66642D02*
D03*
X194228Y63295D02*
D03*
X196728Y77795D02*
D03*
X192728Y80295D02*
D03*
X187500Y81500D02*
D03*
X182500D02*
D03*
X178728Y75295D02*
D03*
X183728Y74795D02*
D03*
X188000Y74000D02*
D03*
X192000Y72000D02*
D03*
X227728Y144295D02*
D03*
Y134795D02*
D03*
Y125795D02*
D03*
Y115295D02*
D03*
Y105795D02*
D03*
Y94795D02*
D03*
X75228Y127795D02*
D03*
X72728Y91295D02*
D03*
Y80795D02*
D03*
Y72295D02*
D03*
Y63295D02*
D03*
X105728Y25795D02*
D03*
X43728Y15795D02*
D03*
X183728Y159295D02*
D03*
Y149795D02*
D03*
X174106Y69555D02*
D03*
Y64555D02*
D03*
Y59555D02*
D03*
Y54555D02*
D03*
Y49555D02*
D03*
Y44555D02*
D03*
Y39555D02*
D03*
Y34555D02*
D03*
Y29555D02*
D03*
Y24555D02*
D03*
Y19555D02*
D03*
Y14555D02*
D03*
Y9555D02*
D03*
X167106Y98555D02*
D03*
X177106Y94055D02*
D03*
X172106Y98555D02*
D03*
X177106D02*
D03*
Y89555D02*
D03*
X172106D02*
D03*
X167106D02*
D03*
X172106Y94055D02*
D03*
X167106D02*
D03*
X219579Y54043D02*
D03*
Y44201D02*
D03*
Y34161D02*
D03*
X260917Y64083D02*
D03*
Y53059D02*
D03*
Y43807D02*
D03*
D60*
X219579Y63886D02*
D03*
M02*
