G04*
G04 #@! TF.GenerationSoftware,Altium Limited,Altium Designer,24.4.1 (13)*
G04*
G04 Layer_Physical_Order=1*
G04 Layer_Color=255*
%FSLAX25Y25*%
%MOIN*%
G70*
G04*
G04 #@! TF.SameCoordinates,8584FE8A-8FE8-497F-BE15-97A27C2B3E29*
G04*
G04*
G04 #@! TF.FilePolarity,Positive*
G04*
G01*
G75*
%ADD28C,0.02700*%
%ADD29R,0.01181X0.03937*%
%ADD30R,0.03937X0.01181*%
%ADD31R,0.08268X0.08268*%
%ADD32R,0.05000X0.02520*%
%ADD33R,0.16000X0.06000*%
%ADD34R,0.16000X0.07000*%
%ADD35R,0.04331X0.03150*%
G04:AMPARAMS|DCode=36|XSize=29.92mil|YSize=94.49mil|CornerRadius=7.48mil|HoleSize=0mil|Usage=FLASHONLY|Rotation=0.000|XOffset=0mil|YOffset=0mil|HoleType=Round|Shape=RoundedRectangle|*
%AMROUNDEDRECTD36*
21,1,0.02992,0.07953,0,0,0.0*
21,1,0.01496,0.09449,0,0,0.0*
1,1,0.01496,0.00748,-0.03976*
1,1,0.01496,-0.00748,-0.03976*
1,1,0.01496,-0.00748,0.03976*
1,1,0.01496,0.00748,0.03976*
%
%ADD36ROUNDEDRECTD36*%
%ADD37R,0.02165X0.00984*%
%ADD38R,0.02520X0.05000*%
%ADD39R,0.03150X0.04331*%
%ADD40R,0.07008X0.04016*%
%ADD41C,0.01000*%
%ADD42C,0.00800*%
%ADD43C,0.08661*%
%ADD44C,0.07087*%
%ADD45R,0.07087X0.07087*%
%ADD46R,0.07087X0.07087*%
%ADD47C,0.02400*%
G36*
X156000Y85360D02*
X154680Y84200D01*
X154200Y84200D01*
X136280D01*
Y82890D01*
X132682Y81593D01*
X131049Y81191D01*
X131049Y81191D01*
Y81191D01*
X131049Y81191D01*
X125912D01*
Y78809D01*
X131049D01*
X131049Y78809D01*
Y78809D01*
X131049Y78809D01*
X132683Y78408D01*
X136280Y77110D01*
Y75800D01*
X154200D01*
X154680Y75800D01*
X156000Y74640D01*
Y1071D01*
X1071D01*
Y158429D01*
X156000D01*
Y85360D01*
D02*
G37*
G36*
X138500Y82478D02*
Y77522D01*
X138009Y77177D01*
X131309Y79594D01*
Y80407D01*
X138009Y82823D01*
X138500Y82478D01*
D02*
G37*
%LPC*%
G36*
X143358Y156300D02*
X142642D01*
X141980Y156026D01*
X141474Y155520D01*
X141474Y155520D01*
X8026D01*
X8026Y155520D01*
X7520Y156026D01*
X6858Y156300D01*
X6142D01*
X5480Y156026D01*
X4974Y155520D01*
X4700Y154858D01*
Y154142D01*
X4974Y153480D01*
X5480Y152974D01*
X6142Y152700D01*
X6942Y152442D01*
X7200Y151642D01*
X7474Y150980D01*
X7980Y150474D01*
X8642Y150200D01*
X9358D01*
X10020Y150474D01*
X10526Y150980D01*
X10526Y150980D01*
X28572D01*
X28593Y150966D01*
X29700Y149358D01*
X29510Y148490D01*
X28642Y147800D01*
X27980Y147526D01*
X27474Y147020D01*
X27200Y146358D01*
Y145642D01*
X27474Y144980D01*
X27980Y144474D01*
X28642Y144200D01*
X29358D01*
X30020Y144474D01*
X30526Y144980D01*
X30733Y145480D01*
X132480D01*
Y135516D01*
X131901Y135361D01*
X130956Y134816D01*
X130184Y134044D01*
X129639Y133099D01*
X129618Y133020D01*
X117026D01*
X117026Y133020D01*
X116520Y133526D01*
X115858Y133800D01*
X115142D01*
X114480Y133526D01*
X113974Y133020D01*
X113700Y132358D01*
Y131642D01*
X113974Y130980D01*
X114480Y130474D01*
X114507Y130463D01*
Y128537D01*
X114480Y128526D01*
X113974Y128020D01*
X113700Y127358D01*
Y126642D01*
X113974Y125980D01*
X114480Y125474D01*
X115142Y125200D01*
X115858D01*
X116520Y125474D01*
X116983Y125937D01*
X129532D01*
X130278Y124137D01*
X130184Y124044D01*
X129639Y123099D01*
X129357Y122046D01*
Y120955D01*
X129639Y119901D01*
X130184Y118956D01*
X130956Y118184D01*
X131901Y117639D01*
X132955Y117357D01*
X134046D01*
X135099Y117639D01*
X136044Y118184D01*
X136816Y118956D01*
X137361Y119901D01*
X137643Y120955D01*
X139357D01*
X139639Y119901D01*
X140184Y118956D01*
X140956Y118184D01*
X141901Y117639D01*
X142955Y117357D01*
X144045D01*
X145099Y117639D01*
X146044Y118184D01*
X146816Y118956D01*
X147361Y119901D01*
X147516Y120480D01*
X150000D01*
X150390Y120558D01*
X150721Y120779D01*
X150942Y121110D01*
X151020Y121500D01*
Y152000D01*
X150942Y152390D01*
X150721Y152721D01*
X150390Y152942D01*
X150000Y153020D01*
X146283D01*
X144800Y154142D01*
Y154858D01*
X144526Y155520D01*
X144020Y156026D01*
X143358Y156300D01*
D02*
G37*
G36*
X17110Y148788D02*
X15786Y148658D01*
X14513Y148272D01*
X13339Y147644D01*
X12310Y146800D01*
X11466Y145771D01*
X10839Y144598D01*
X10452Y143324D01*
X10322Y142000D01*
X10452Y140676D01*
X10839Y139402D01*
X11466Y138229D01*
X12310Y137200D01*
X13339Y136356D01*
X14513Y135729D01*
X15786Y135342D01*
X17110Y135212D01*
X18435Y135342D01*
X19708Y135729D01*
X20882Y136356D01*
X21910Y137200D01*
X22754Y138229D01*
X23382Y139402D01*
X23768Y140676D01*
X23898Y142000D01*
X23768Y143324D01*
X23382Y144598D01*
X22754Y145771D01*
X21910Y146800D01*
X20882Y147644D01*
X19708Y148272D01*
X18435Y148658D01*
X17110Y148788D01*
D02*
G37*
G36*
X60873Y136265D02*
X60104Y136108D01*
Y136108D01*
X51896D01*
Y135488D01*
X48000D01*
X47990Y135486D01*
X46125Y135339D01*
X44296Y134900D01*
X42558Y134180D01*
X40954Y133198D01*
X39524Y131976D01*
X38302Y130546D01*
X37319Y128942D01*
X36600Y127204D01*
X36161Y125375D01*
X36014Y123510D01*
X36012Y123500D01*
Y118976D01*
X34212Y118230D01*
X32695Y119747D01*
X32649Y121604D01*
X33026Y121980D01*
X33300Y122642D01*
Y123358D01*
X33026Y124020D01*
X32520Y124526D01*
X31858Y124800D01*
X31142D01*
X30480Y124526D01*
X29974Y124020D01*
X29700Y123358D01*
Y122642D01*
X29974Y121980D01*
X30480Y121474D01*
X30480Y121474D01*
Y119500D01*
X30558Y119110D01*
X30779Y118779D01*
X33688Y115870D01*
X32756Y114257D01*
X27810Y115583D01*
Y116700D01*
X9410D01*
Y108300D01*
X27810D01*
Y109418D01*
X32757Y110744D01*
X33689Y109130D01*
X32358Y107800D01*
X32358Y107800D01*
X31642D01*
X30980Y107526D01*
X30474Y107020D01*
X30200Y106358D01*
Y105642D01*
X30474Y104980D01*
X30980Y104474D01*
X31642Y104200D01*
X32358D01*
X33020Y104474D01*
X33526Y104980D01*
X33800Y105642D01*
X34212Y105768D01*
X36012Y104438D01*
Y101504D01*
X36014Y101494D01*
X36161Y99629D01*
X36600Y97800D01*
X37319Y96062D01*
X38302Y94458D01*
X39524Y93028D01*
X40954Y91806D01*
X42558Y90824D01*
X44296Y90104D01*
X46125Y89665D01*
X47990Y89518D01*
X48000Y89516D01*
X55980D01*
X56000Y89512D01*
X60872D01*
Y88735D01*
X64978D01*
X65222Y88735D01*
X66778D01*
X67022Y88735D01*
X71128D01*
Y89512D01*
X76000D01*
X76020Y89516D01*
X84000D01*
X84010Y89518D01*
X85875Y89665D01*
X87704Y90104D01*
X89442Y90824D01*
X91046Y91806D01*
X92476Y93028D01*
X93698Y94458D01*
X94680Y96062D01*
X95400Y97800D01*
X95839Y99629D01*
X95986Y101494D01*
X95988Y101504D01*
Y105665D01*
X96633Y106183D01*
X97781Y106543D01*
X98700Y105830D01*
Y105642D01*
X98974Y104980D01*
X99480Y104474D01*
X100142Y104200D01*
X100858D01*
X101520Y104474D01*
X102026Y104980D01*
X102300Y105642D01*
Y106358D01*
X102026Y107020D01*
X101520Y107526D01*
X100858Y107800D01*
X100670D01*
X99957Y108719D01*
X100317Y109867D01*
X100836Y110512D01*
X111000D01*
X111091Y110530D01*
X112568Y110384D01*
X114076Y109927D01*
X115466Y109184D01*
X116684Y108184D01*
X117684Y106966D01*
X118427Y105576D01*
X118884Y104068D01*
X119030Y102591D01*
X119012Y102500D01*
Y93500D01*
X119163Y92739D01*
X119416Y92361D01*
X119809Y89768D01*
Y84912D01*
X122191D01*
Y89768D01*
X122584Y92361D01*
X122837Y92739D01*
X122988Y93500D01*
Y102500D01*
X122986Y102510D01*
X122839Y104375D01*
X122400Y106204D01*
X121680Y107942D01*
X120698Y109546D01*
X119476Y110976D01*
X118046Y112198D01*
X116442Y113180D01*
X114704Y113900D01*
X112875Y114339D01*
X111010Y114486D01*
X111000Y114488D01*
X99476D01*
X98730Y116288D01*
X102142Y119700D01*
X102142Y119700D01*
X102858D01*
X103520Y119974D01*
X104026Y120480D01*
X104300Y121142D01*
Y121858D01*
X104026Y122520D01*
X103520Y123026D01*
X102858Y123300D01*
X102142D01*
X101480Y123026D01*
X100974Y122520D01*
X100700Y121858D01*
Y121142D01*
X100700Y121142D01*
X97788Y118230D01*
X95988Y118976D01*
Y123496D01*
X95986Y123506D01*
X95839Y125371D01*
X95400Y127200D01*
X94680Y128938D01*
X93698Y130542D01*
X92476Y131972D01*
X91046Y133194D01*
X89442Y134177D01*
X87704Y134896D01*
X85875Y135335D01*
X84010Y135482D01*
X84000Y135484D01*
X80104D01*
Y136104D01*
X71896D01*
Y136104D01*
X71127Y136265D01*
Y136265D01*
X70163Y136265D01*
X67022D01*
X66778Y136265D01*
X65222D01*
X64978Y136265D01*
X61839D01*
X60873Y136265D01*
X60873Y136265D01*
D02*
G37*
G36*
X32805Y98306D02*
X32089D01*
X31427Y98032D01*
X30921Y97526D01*
X30711Y97020D01*
X10026D01*
X10026Y97020D01*
X9520Y97526D01*
X8858Y97800D01*
X8142D01*
X7480Y97526D01*
X6974Y97020D01*
X6700Y96358D01*
X6442Y95558D01*
X5642Y95300D01*
X4980Y95026D01*
X4474Y94520D01*
X4200Y93858D01*
Y93142D01*
X4474Y92480D01*
X4980Y91974D01*
X5642Y91700D01*
X6358D01*
X7020Y91974D01*
X7526Y92480D01*
X7526Y92480D01*
X27974D01*
X27974Y92480D01*
X28480Y91974D01*
X29142Y91700D01*
X29858D01*
X30520Y91974D01*
X31026Y92480D01*
X31300Y93142D01*
X31805Y94142D01*
X32805Y94706D01*
X33467Y94980D01*
X33973Y95487D01*
X34247Y96148D01*
Y96864D01*
X33973Y97526D01*
X33467Y98032D01*
X32805Y98306D01*
D02*
G37*
G36*
X106265Y88722D02*
X100735D01*
Y87622D01*
X98924D01*
X98520Y88026D01*
X97858Y88300D01*
X97142D01*
X96480Y88026D01*
X95974Y87520D01*
X95700Y86858D01*
Y86142D01*
X95974Y85480D01*
X96480Y84974D01*
X97142Y84700D01*
X97858D01*
X98520Y84974D01*
X98924Y85378D01*
X100735D01*
Y84372D01*
X101361D01*
X102044Y83300D01*
X101121Y81628D01*
X100735D01*
Y81122D01*
X98924D01*
X98520Y81526D01*
X97858Y81800D01*
X97142D01*
X96480Y81526D01*
X95974Y81020D01*
X95700Y80358D01*
Y79642D01*
X95974Y78980D01*
X96480Y78474D01*
X97142Y78200D01*
X97858D01*
X98520Y78474D01*
X98924Y78878D01*
X100735D01*
Y77278D01*
X106265D01*
Y80847D01*
X110951D01*
Y80778D01*
X116088D01*
Y85128D01*
X110951D01*
Y85059D01*
X106265D01*
Y88722D01*
D02*
G37*
G36*
X28045Y89143D02*
X26954D01*
X25901Y88861D01*
X24956Y88315D01*
X24184Y87544D01*
X23639Y86599D01*
X23357Y85545D01*
Y84455D01*
X23639Y83401D01*
X24184Y82456D01*
X24956Y81684D01*
X25901Y81139D01*
X26616Y80828D01*
X26592Y80646D01*
X25875Y79143D01*
X23357D01*
Y76625D01*
X21854Y75908D01*
X21672Y75884D01*
X21361Y76599D01*
X20816Y77544D01*
X20044Y78316D01*
X19099Y78861D01*
X18045Y79143D01*
X16954D01*
X15901Y78861D01*
X14956Y78316D01*
X14185Y77544D01*
X13639Y76599D01*
X13357Y75546D01*
Y74454D01*
X13639Y73401D01*
X14185Y72456D01*
X14956Y71684D01*
X15901Y71139D01*
X16954Y70857D01*
X18045D01*
X19099Y71139D01*
X20044Y71684D01*
X20816Y72456D01*
X21361Y73401D01*
X21672Y74116D01*
X21854Y74092D01*
X23357Y73375D01*
Y70857D01*
X31643D01*
Y79143D01*
X29125D01*
X28408Y80646D01*
X28384Y80828D01*
X29099Y81139D01*
X30044Y81684D01*
X30816Y82456D01*
X31361Y83401D01*
X31643Y84455D01*
Y85545D01*
X31361Y86599D01*
X30816Y87544D01*
X30044Y88315D01*
X29099Y88861D01*
X28045Y89143D01*
D02*
G37*
G36*
X116088Y77254D02*
X110951D01*
Y77184D01*
X109000D01*
X108571Y77099D01*
X108207Y76856D01*
X107964Y76492D01*
X107878Y76063D01*
Y72628D01*
X106735D01*
Y70622D01*
X104424D01*
X104020Y71026D01*
X103358Y71300D01*
X102642D01*
X101980Y71026D01*
X101474Y70520D01*
X101200Y69858D01*
Y69142D01*
X101474Y68480D01*
X101980Y67974D01*
X102642Y67700D01*
X103358D01*
X104020Y67974D01*
X104424Y68378D01*
X106735D01*
Y68278D01*
X112265D01*
Y72628D01*
X111744D01*
X111485Y73072D01*
X112521Y74872D01*
X116088D01*
Y77254D01*
D02*
G37*
G36*
X29858Y68300D02*
X29142D01*
X28480Y68026D01*
X27974Y67520D01*
X27974Y67520D01*
X7526D01*
X7526Y67520D01*
X7020Y68026D01*
X6358Y68300D01*
X5642D01*
X4980Y68026D01*
X4474Y67520D01*
X4200Y66858D01*
Y66142D01*
X4474Y65480D01*
X4980Y64974D01*
X5642Y64700D01*
X6442Y64442D01*
X6700Y63642D01*
X6974Y62980D01*
X7480Y62474D01*
X8142Y62200D01*
X8858D01*
X9520Y62474D01*
X10026Y62980D01*
X10026Y62980D01*
X30674D01*
X30674Y62980D01*
X31180Y62474D01*
X31842Y62200D01*
X32558D01*
X33220Y62474D01*
X33726Y62980D01*
X34000Y63642D01*
Y64358D01*
X33726Y65020D01*
X33220Y65526D01*
X32558Y65800D01*
X31726Y66026D01*
X31300Y66858D01*
X31026Y67520D01*
X30520Y68026D01*
X29858Y68300D01*
D02*
G37*
G36*
X122191Y75088D02*
X119809D01*
Y70232D01*
X119416Y67639D01*
X119163Y67261D01*
X119012Y66500D01*
Y57500D01*
X119030Y57410D01*
X118884Y55932D01*
X118427Y54424D01*
X117684Y53034D01*
X116684Y51816D01*
X115466Y50816D01*
X114076Y50073D01*
X112568Y49616D01*
X111091Y49470D01*
X111000Y49488D01*
X100836D01*
X100317Y50133D01*
X99957Y51281D01*
X100670Y52200D01*
X100858D01*
X101520Y52474D01*
X102026Y52980D01*
X102300Y53642D01*
Y54358D01*
X102026Y55020D01*
X101520Y55526D01*
X100858Y55800D01*
X100142D01*
X99480Y55526D01*
X98974Y55020D01*
X98700Y54358D01*
Y54170D01*
X97781Y53457D01*
X96633Y53817D01*
X95988Y54335D01*
Y60000D01*
X95986Y60010D01*
X95839Y61875D01*
X95400Y63704D01*
X94680Y65442D01*
X93698Y67046D01*
X92476Y68476D01*
X91046Y69698D01*
X89442Y70680D01*
X87704Y71400D01*
X85875Y71839D01*
X84010Y71986D01*
X84000Y71988D01*
X78765D01*
Y72222D01*
X73235D01*
Y71988D01*
X70380D01*
Y73100D01*
X67140D01*
X66660Y73100D01*
X65340D01*
X64860Y73100D01*
X61620D01*
Y71988D01*
X58765D01*
Y72222D01*
X53235D01*
Y71988D01*
X48000D01*
X47990Y71986D01*
X46125Y71839D01*
X44296Y71400D01*
X42558Y70680D01*
X40954Y69698D01*
X39524Y68476D01*
X38302Y67046D01*
X37319Y65442D01*
X36600Y63704D01*
X36161Y61875D01*
X36014Y60010D01*
X36012Y60000D01*
Y55124D01*
X34212Y54253D01*
X33971Y54443D01*
X33526Y56092D01*
X33800Y56753D01*
Y57469D01*
X33526Y58131D01*
X33020Y58637D01*
X32358Y58911D01*
X31642D01*
X30980Y58637D01*
X30474Y58131D01*
X30200Y57469D01*
Y56753D01*
X30474Y56092D01*
X30980Y55585D01*
X30980Y55585D01*
Y54000D01*
X31058Y53610D01*
X31279Y53279D01*
X33688Y50870D01*
X32756Y49257D01*
X27700Y50612D01*
Y51700D01*
X9300D01*
Y43300D01*
X27700D01*
Y44388D01*
X32757Y45744D01*
X33689Y44130D01*
X30779Y41221D01*
X30558Y40890D01*
X30480Y40500D01*
X30558Y40110D01*
X30779Y39779D01*
X31256Y39302D01*
X31256Y39302D01*
Y38586D01*
X31530Y37925D01*
X32036Y37418D01*
X32698Y37144D01*
X33414D01*
X34075Y37418D01*
X34212Y37555D01*
X35930Y37056D01*
X36012Y37003D01*
Y35000D01*
X36014Y34990D01*
X36161Y33125D01*
X36600Y31296D01*
X37319Y29558D01*
X38302Y27954D01*
X39524Y26524D01*
X40954Y25302D01*
X42558Y24320D01*
X44296Y23600D01*
X46125Y23161D01*
X47990Y23014D01*
X48000Y23012D01*
X53235D01*
Y22778D01*
X58765D01*
Y23012D01*
X61620D01*
Y21900D01*
X64860D01*
X65340Y21900D01*
X66660D01*
X67140Y21900D01*
X70380D01*
Y23012D01*
X73235D01*
Y22778D01*
X78765D01*
Y23012D01*
X84000D01*
X84010Y23014D01*
X85875Y23161D01*
X87704Y23600D01*
X89442Y24320D01*
X91046Y25302D01*
X92476Y26524D01*
X93698Y27954D01*
X94680Y29558D01*
X95400Y31296D01*
X95839Y33125D01*
X95986Y34990D01*
X95988Y35000D01*
Y41024D01*
X97788Y41770D01*
X101900Y37658D01*
Y37642D01*
X102174Y36980D01*
X102680Y36474D01*
X103342Y36200D01*
X104058D01*
X104720Y36474D01*
X105226Y36980D01*
X105500Y37642D01*
Y38358D01*
X105226Y39020D01*
X104720Y39526D01*
X104058Y39800D01*
X103342D01*
X102847Y39595D01*
X98730Y43712D01*
X99476Y45512D01*
X111000D01*
X111010Y45514D01*
X112875Y45661D01*
X114704Y46100D01*
X116442Y46820D01*
X118046Y47802D01*
X119476Y49024D01*
X120698Y50454D01*
X121680Y52058D01*
X122400Y53796D01*
X122839Y55625D01*
X122986Y57490D01*
X122988Y57500D01*
Y66500D01*
X122837Y67261D01*
X122584Y67639D01*
X122191Y70232D01*
Y75088D01*
D02*
G37*
G36*
X144045Y42643D02*
X142955D01*
X141901Y42361D01*
X140956Y41816D01*
X140184Y41044D01*
X139639Y40099D01*
X139357Y39046D01*
X137643D01*
X137361Y40099D01*
X136816Y41044D01*
X136044Y41816D01*
X135099Y42361D01*
X134046Y42643D01*
X132955D01*
X131901Y42361D01*
X130956Y41816D01*
X130184Y41044D01*
X129639Y40099D01*
X129357Y39046D01*
Y37955D01*
X129639Y36901D01*
X130184Y35956D01*
X130278Y35863D01*
X129532Y34063D01*
X117483D01*
X117020Y34526D01*
X116358Y34800D01*
X115642D01*
X114980Y34526D01*
X114474Y34020D01*
X114200Y33358D01*
Y32642D01*
X114474Y31980D01*
X114980Y31474D01*
X115007Y31463D01*
Y29537D01*
X114980Y29526D01*
X114474Y29020D01*
X114200Y28358D01*
Y27642D01*
X114474Y26980D01*
X114722Y25743D01*
X114379Y24775D01*
X113966Y24271D01*
X113339Y23098D01*
X112952Y21824D01*
X112822Y20500D01*
X112952Y19176D01*
X113339Y17902D01*
X113966Y16729D01*
X114712Y15820D01*
X114633Y15324D01*
X114021Y14020D01*
X7526D01*
X7526Y14020D01*
X7020Y14526D01*
X6358Y14800D01*
X5642D01*
X4980Y14526D01*
X4474Y14020D01*
X4200Y13358D01*
Y12642D01*
X4474Y11980D01*
X4980Y11474D01*
X5642Y11200D01*
X6358D01*
X7020Y11474D01*
X7526Y11980D01*
X7526Y11980D01*
X25217D01*
X25715Y11604D01*
Y10613D01*
X24071Y9020D01*
X10026D01*
X10026Y9020D01*
X9520Y9526D01*
X8858Y9800D01*
X8142D01*
X7480Y9526D01*
X6974Y9020D01*
X6700Y8358D01*
Y7642D01*
X6974Y6980D01*
X7480Y6474D01*
X8142Y6200D01*
X8858D01*
X9520Y6474D01*
X10026Y6980D01*
X10026Y6980D01*
X28092D01*
X29700Y6158D01*
Y5442D01*
X29974Y4780D01*
X30480Y4274D01*
X31142Y4000D01*
X31858D01*
X32520Y4274D01*
X33026Y4780D01*
X33109Y4980D01*
X150000D01*
X150390Y5058D01*
X150721Y5279D01*
X150942Y5610D01*
X151020Y6000D01*
Y38500D01*
X150942Y38890D01*
X150721Y39221D01*
X150390Y39442D01*
X150000Y39520D01*
X147516D01*
X147361Y40099D01*
X146816Y41044D01*
X146044Y41816D01*
X145099Y42361D01*
X144045Y42643D01*
D02*
G37*
%LPD*%
G36*
X147580Y135643D02*
X139357D01*
Y133755D01*
X137557Y133097D01*
X136941Y133826D01*
X136816Y134044D01*
X136044Y134816D01*
X135099Y135361D01*
X134520Y135516D01*
Y146500D01*
X135453Y147658D01*
X135878Y147980D01*
X147580D01*
Y135643D01*
D02*
G37*
G36*
X97109Y111486D02*
X94586Y112000D01*
Y113000D01*
X97109Y113514D01*
Y111486D01*
D02*
G37*
G36*
X35282Y112907D02*
Y112094D01*
X26086Y109628D01*
X25610Y109993D01*
Y115007D01*
X26086Y115372D01*
X35282Y112907D01*
D02*
G37*
G36*
X48000Y131512D02*
X51896D01*
Y130892D01*
X60104D01*
Y130892D01*
X60873Y130735D01*
X60873Y130735D01*
X61839Y130735D01*
X64978D01*
X65222Y130735D01*
X66778D01*
X67022Y130735D01*
X70160D01*
X71127Y130735D01*
X71127Y130735D01*
X71896Y130888D01*
Y130888D01*
X80104D01*
Y131508D01*
X84000D01*
X84091Y131526D01*
X85568Y131380D01*
X87076Y130923D01*
X88466Y130180D01*
X89684Y129180D01*
X90684Y127962D01*
X91427Y126572D01*
X91884Y125064D01*
X92030Y123586D01*
X92012Y123496D01*
Y117000D01*
X92163Y116239D01*
X92207Y116173D01*
Y113376D01*
Y108827D01*
X92163Y108761D01*
X92012Y108000D01*
Y101504D01*
X92030Y101414D01*
X91884Y99936D01*
X91427Y98428D01*
X90684Y97038D01*
X89684Y95820D01*
X88466Y94820D01*
X87076Y94077D01*
X85568Y93620D01*
X84091Y93474D01*
X84000Y93492D01*
X76000D01*
X75980Y93488D01*
X71128D01*
Y94265D01*
X67022D01*
X66778Y94265D01*
X65222D01*
X64978Y94265D01*
X60872D01*
Y93488D01*
X56020D01*
X56000Y93492D01*
X48000D01*
X47910Y93474D01*
X46432Y93620D01*
X44924Y94077D01*
X43534Y94820D01*
X42316Y95820D01*
X41316Y97038D01*
X40573Y98428D01*
X40116Y99936D01*
X39970Y101414D01*
X39988Y101504D01*
Y108000D01*
X39837Y108761D01*
X39793Y108827D01*
Y111408D01*
Y116173D01*
X39837Y116239D01*
X39988Y117000D01*
Y123500D01*
X39970Y123591D01*
X40116Y125068D01*
X40573Y126576D01*
X41316Y127966D01*
X42316Y129184D01*
X43534Y130184D01*
X44924Y130927D01*
X46432Y131384D01*
X47910Y131530D01*
X48000Y131512D01*
D02*
G37*
G36*
X121500Y89546D02*
X120500D01*
X120045Y92546D01*
X121955D01*
X121500Y89546D01*
D02*
G37*
%LPC*%
G36*
X66778Y124265D02*
X65222D01*
X64978Y124265D01*
X60872D01*
Y123488D01*
X54142D01*
X54132Y123486D01*
X52267Y123339D01*
X50438Y122900D01*
X48700Y122180D01*
X47096Y121198D01*
X45674Y119983D01*
X45665Y119977D01*
X44094Y118406D01*
X43663Y117761D01*
X43617Y117529D01*
X43317D01*
Y113376D01*
X43317D01*
Y111624D01*
X43317D01*
X43317Y111576D01*
Y107471D01*
X43617D01*
X43663Y107239D01*
X44094Y106594D01*
X45665Y105023D01*
X45674Y105017D01*
X47096Y103802D01*
X48700Y102820D01*
X50438Y102100D01*
X52267Y101661D01*
X52900Y101611D01*
Y101597D01*
X53077D01*
X54132Y101514D01*
X54142Y101512D01*
X60872D01*
Y100735D01*
X64978D01*
X65222Y100735D01*
X66778D01*
X67022Y100735D01*
X71128D01*
Y101256D01*
X72900Y101323D01*
Y101323D01*
X79100D01*
Y101611D01*
X79733Y101661D01*
X81562Y102100D01*
X83300Y102820D01*
X84904Y103802D01*
X86326Y105017D01*
X86335Y105023D01*
X87906Y106594D01*
X88337Y107239D01*
X88383Y107471D01*
X88683D01*
Y111576D01*
X88683Y111624D01*
X88683D01*
Y113376D01*
X88683D01*
Y117529D01*
X88383D01*
X88337Y117761D01*
X87906Y118406D01*
X86335Y119977D01*
X86326Y119983D01*
X84904Y121198D01*
X83300Y122180D01*
X81562Y122900D01*
X79733Y123339D01*
X77868Y123486D01*
X77858Y123488D01*
X71128D01*
Y124265D01*
X67022D01*
X66778Y124265D01*
D02*
G37*
%LPD*%
G36*
X79426Y119384D02*
X80934Y118927D01*
X82324Y118184D01*
X83472Y117242D01*
X83523Y117165D01*
X83801Y116887D01*
X83745Y116251D01*
X83227Y114915D01*
X82980Y114813D01*
X82474Y114307D01*
X82200Y113645D01*
X82069Y113557D01*
X81691Y113714D01*
X80975D01*
X80313Y113440D01*
X79807Y112934D01*
X79533Y112272D01*
Y111556D01*
X79807Y110894D01*
X80313Y110388D01*
X80975Y110114D01*
X81691D01*
X82842Y109504D01*
X83148Y108753D01*
X83273Y107595D01*
X82324Y106816D01*
X80934Y106073D01*
X79426Y105616D01*
X77948Y105470D01*
X77858Y105488D01*
X71128D01*
Y106265D01*
X67022D01*
X66778Y106265D01*
X65222D01*
X64978Y106265D01*
X60872D01*
Y105488D01*
X54142D01*
X54052Y105470D01*
X52574Y105616D01*
X51066Y106073D01*
X49676Y106816D01*
X48727Y107595D01*
X48852Y108753D01*
X49158Y109504D01*
X50309Y110114D01*
X51025D01*
X51687Y110388D01*
X52193Y110894D01*
X52467Y111556D01*
Y112272D01*
X52193Y112934D01*
X51687Y113440D01*
X51025Y113714D01*
X50309D01*
X49931Y113557D01*
X49800Y113645D01*
X49526Y114307D01*
X49020Y114813D01*
X48773Y114915D01*
X48255Y116251D01*
X48199Y116887D01*
X48477Y117165D01*
X48528Y117242D01*
X49676Y118184D01*
X51066Y118927D01*
X52574Y119384D01*
X54052Y119530D01*
X54142Y119512D01*
X60872D01*
Y118735D01*
X64978D01*
X65222Y118735D01*
X66778D01*
X67022Y118735D01*
X71128D01*
Y119512D01*
X77858D01*
X77948Y119530D01*
X79426Y119384D01*
D02*
G37*
G36*
X85568Y67884D02*
X87076Y67427D01*
X88466Y66684D01*
X89684Y65684D01*
X90684Y64466D01*
X91427Y63076D01*
X91884Y61568D01*
X92030Y60091D01*
X92012Y60000D01*
Y52000D01*
X92163Y51239D01*
X92207Y51173D01*
Y48376D01*
Y43827D01*
X92163Y43761D01*
X92012Y43000D01*
Y35000D01*
X92030Y34909D01*
X91884Y33432D01*
X91427Y31924D01*
X90684Y30534D01*
X89684Y29316D01*
X88466Y28316D01*
X87076Y27573D01*
X85568Y27116D01*
X84091Y26970D01*
X84000Y26988D01*
X78765D01*
Y27128D01*
X73235D01*
Y26988D01*
X70380D01*
Y28100D01*
X67140D01*
X66660Y28100D01*
X65340D01*
X64860Y28100D01*
X61620D01*
Y26988D01*
X58765D01*
Y27128D01*
X53235D01*
Y26988D01*
X48000D01*
X47910Y26970D01*
X46432Y27116D01*
X44924Y27573D01*
X43534Y28316D01*
X42316Y29316D01*
X41316Y30534D01*
X40573Y31924D01*
X40116Y33432D01*
X39970Y34909D01*
X39988Y35000D01*
Y43000D01*
X39837Y43761D01*
X39793Y43827D01*
Y46408D01*
Y51173D01*
X39837Y51239D01*
X39988Y52000D01*
Y55526D01*
Y60000D01*
X39970Y60091D01*
X40116Y61568D01*
X40573Y63076D01*
X41316Y64466D01*
X42316Y65684D01*
X43534Y66684D01*
X44924Y67427D01*
X46432Y67884D01*
X47910Y68030D01*
X48000Y68012D01*
X53235D01*
Y67872D01*
X58765D01*
Y68012D01*
X61620D01*
Y66900D01*
X64860D01*
X65340Y66900D01*
X66660D01*
X67140Y66900D01*
X70380D01*
Y68012D01*
X73235D01*
Y67872D01*
X78765D01*
Y68012D01*
X84000D01*
X84091Y68030D01*
X85568Y67884D01*
D02*
G37*
G36*
X121955Y67454D02*
X120045D01*
X120500Y70454D01*
X121500D01*
X121955Y67454D01*
D02*
G37*
G36*
X97046Y46545D02*
X94046Y47000D01*
Y48000D01*
X97046Y48455D01*
Y46545D01*
D02*
G37*
G36*
X35282Y47907D02*
Y47094D01*
X26086Y44628D01*
X25610Y44993D01*
Y50007D01*
X26086Y50372D01*
X35282Y47907D01*
D02*
G37*
%LPC*%
G36*
X66660Y60100D02*
X65340D01*
X64860Y60100D01*
X61620D01*
Y58488D01*
X58765D01*
Y59285D01*
X53235D01*
Y58416D01*
X52267Y58339D01*
X50438Y57900D01*
X48700Y57180D01*
X47096Y56198D01*
X45674Y54983D01*
X45665Y54977D01*
X44094Y53406D01*
X43663Y52761D01*
X43617Y52529D01*
X43317D01*
Y48424D01*
X43317Y48376D01*
X43317D01*
Y46624D01*
X43317D01*
Y42471D01*
X43617D01*
X43663Y42239D01*
X44094Y41594D01*
X45665Y40023D01*
X45674Y40017D01*
X47096Y38802D01*
X48700Y37820D01*
X50438Y37100D01*
X52267Y36661D01*
X53235Y36584D01*
Y35341D01*
X58765D01*
Y36512D01*
X61620D01*
Y34900D01*
X64860D01*
X65340Y34900D01*
X66660D01*
X67140Y34900D01*
X70380D01*
Y36512D01*
X73235D01*
Y35341D01*
X78765D01*
Y36584D01*
X79733Y36661D01*
X81562Y37100D01*
X83300Y37820D01*
X84904Y38802D01*
X86326Y40017D01*
X86335Y40023D01*
X87906Y41594D01*
X88337Y42239D01*
X88383Y42471D01*
X88683D01*
Y46624D01*
X88683D01*
Y48376D01*
X88683D01*
X88683Y48424D01*
Y52529D01*
X88383D01*
X88337Y52761D01*
X87906Y53406D01*
X86335Y54977D01*
X86326Y54983D01*
X84904Y56198D01*
X83300Y57180D01*
X81562Y57900D01*
X79733Y58339D01*
X78765Y58416D01*
Y59285D01*
X73235D01*
Y58488D01*
X70380D01*
Y60100D01*
X67140D01*
X66660Y60100D01*
D02*
G37*
%LPD*%
G36*
X79426Y54384D02*
X80934Y53927D01*
X82324Y53184D01*
X83273Y52405D01*
X83148Y51247D01*
X82842Y50496D01*
X81691Y49886D01*
X80975D01*
X80313Y49612D01*
X79807Y49106D01*
X79533Y48444D01*
Y47728D01*
X79807Y47067D01*
X80313Y46560D01*
X80975Y46286D01*
X81691D01*
X82474Y45693D01*
X82980Y45187D01*
X83227Y45085D01*
X83745Y43749D01*
X83801Y43113D01*
X83523Y42835D01*
X83472Y42758D01*
X82324Y41816D01*
X80934Y41073D01*
X79426Y40616D01*
X77948Y40470D01*
X77858Y40488D01*
X70380D01*
Y41100D01*
X67140D01*
X66660Y41100D01*
X65340D01*
X64860Y41100D01*
X61620D01*
Y40488D01*
X54142D01*
X54052Y40470D01*
X52574Y40616D01*
X51066Y41073D01*
X49676Y41816D01*
X48528Y42758D01*
X48477Y42835D01*
X48199Y43113D01*
X48255Y43749D01*
X48773Y45085D01*
X49020Y45187D01*
X49526Y45693D01*
X50309Y46286D01*
X51025D01*
X51687Y46560D01*
X52193Y47067D01*
X52467Y47728D01*
Y48444D01*
X52193Y49106D01*
X51687Y49612D01*
X51025Y49886D01*
X50309D01*
X49158Y50496D01*
X48852Y51247D01*
X48727Y52405D01*
X49676Y53184D01*
X51066Y53927D01*
X52574Y54384D01*
X54052Y54530D01*
X54142Y54512D01*
X61620D01*
Y53900D01*
X64860D01*
X65340Y53900D01*
X66660D01*
X67140Y53900D01*
X70380D01*
Y54512D01*
X77858D01*
X77948Y54530D01*
X79426Y54384D01*
D02*
G37*
G36*
X129357Y24357D02*
X132480D01*
Y14020D01*
X125200D01*
X124587Y15324D01*
X124508Y15820D01*
X125254Y16729D01*
X125882Y17902D01*
X126268Y19176D01*
X126398Y20500D01*
X126268Y21824D01*
X125882Y23098D01*
X125254Y24271D01*
X124508Y25180D01*
X124587Y25676D01*
X125200Y26980D01*
X129357D01*
Y24357D01*
D02*
G37*
G36*
X139947Y26368D02*
X140184Y25956D01*
X140956Y25185D01*
X141901Y24639D01*
X142480Y24484D01*
Y11520D01*
X135878D01*
X135453Y11842D01*
X134520Y13000D01*
Y24357D01*
X137643D01*
Y25009D01*
X139208Y26439D01*
X139947Y26368D01*
D02*
G37*
D28*
X38000Y35000D02*
G03*
X48000Y25000I10000J0D01*
G01*
Y70000D02*
G03*
X38000Y60000I0J-10000D01*
G01*
X121000Y102500D02*
G03*
X111000Y112500I-10000J0D01*
G01*
Y47500D02*
G03*
X121000Y57500I0J10000D01*
G01*
X47071Y41429D02*
G03*
X54142Y38500I7071J7071D01*
G01*
X77858D02*
G03*
X84929Y41429I0J10000D01*
G01*
Y53571D02*
G03*
X77858Y56500I-7071J-7071D01*
G01*
X54142D02*
G03*
X47071Y53571I0J-10000D01*
G01*
X94000Y60000D02*
G03*
X84000Y70000I-10000J0D01*
G01*
Y25000D02*
G03*
X94000Y35000I0J10000D01*
G01*
X77858Y103500D02*
G03*
X84929Y106429I0J10000D01*
G01*
X47071D02*
G03*
X54142Y103500I7071J7071D01*
G01*
Y121500D02*
G03*
X47071Y118571I0J-10000D01*
G01*
X84929D02*
G03*
X77858Y121500I-7071J-7071D01*
G01*
X38000Y101504D02*
G03*
X48000Y91504I10000J0D01*
G01*
X84000D02*
G03*
X94000Y101504I0J10000D01*
G01*
X48000Y133500D02*
G03*
X38000Y123500I0J-10000D01*
G01*
X94000Y123496D02*
G03*
X84000Y133496I-10000J0D01*
G01*
X38000Y35000D02*
Y43000D01*
Y55526D02*
Y60000D01*
Y52000D02*
Y55526D01*
X56000Y56500D02*
X63047D01*
X98000Y47500D02*
X111000D01*
X98000Y112500D02*
X111000D01*
X121000Y93500D02*
Y102500D01*
Y57500D02*
Y66500D01*
X45500Y43000D02*
X47071Y41429D01*
X54142Y38500D02*
X63047D01*
X84929Y41429D02*
X86500Y43000D01*
X68953Y38500D02*
X77858D01*
X84929Y53571D02*
X86500Y52000D01*
X68953Y56500D02*
X77858D01*
X45500Y52000D02*
X47071Y53571D01*
X54142Y56500D02*
X56000D01*
X94000Y52000D02*
Y60000D01*
X68520Y70000D02*
X84000D01*
X48000D02*
X63480D01*
X94000Y35000D02*
Y43000D01*
X68520Y25000D02*
X84000D01*
X48000D02*
X63480D01*
X68953Y103500D02*
X77858D01*
X84929Y106429D02*
X86500Y108000D01*
X54142Y103500D02*
X63047D01*
X45500Y108000D02*
X47071Y106429D01*
X54142Y121500D02*
X63047D01*
X45500Y117000D02*
X47071Y118571D01*
X84929D02*
X86500Y117000D01*
X68953Y121500D02*
X77858D01*
X56000Y91500D02*
Y91504D01*
X48000D02*
X56000D01*
Y91500D02*
X63047D01*
X38000Y101504D02*
Y108000D01*
X76000Y91500D02*
Y91504D01*
X84000D01*
X68953Y91500D02*
X76000D01*
X94000Y101504D02*
Y108000D01*
X48000Y133500D02*
X56000D01*
X38000Y117000D02*
Y123500D01*
X56000Y133500D02*
X63047D01*
X94000Y117000D02*
Y123496D01*
X68953Y133500D02*
X76000D01*
Y133496D02*
X84000D01*
X76000D02*
Y133500D01*
D29*
X117063Y72520D02*
D03*
X119032D02*
D03*
X121000D02*
D03*
X122968D02*
D03*
X124937D02*
D03*
Y87480D02*
D03*
X122968D02*
D03*
X121000D02*
D03*
X119032D02*
D03*
X117063D02*
D03*
D30*
X128480Y76063D02*
D03*
Y78031D02*
D03*
Y80000D02*
D03*
Y81968D02*
D03*
Y83937D02*
D03*
X113520D02*
D03*
Y81968D02*
D03*
Y80000D02*
D03*
Y78031D02*
D03*
Y76063D02*
D03*
D31*
X121000Y80000D02*
D03*
D32*
X76000Y86480D02*
D03*
Y98143D02*
D03*
Y103183D02*
D03*
X56000Y98417D02*
D03*
Y103457D02*
D03*
Y86480D02*
D03*
Y91520D02*
D03*
X76000D02*
D03*
Y121417D02*
D03*
Y126457D02*
D03*
X56000D02*
D03*
Y121417D02*
D03*
D33*
X18500Y47500D02*
D03*
X18610Y112500D02*
D03*
X145480Y80000D02*
D03*
D34*
X18500Y37500D02*
D03*
Y57500D02*
D03*
X18610Y102500D02*
D03*
Y122500D02*
D03*
X145480Y70000D02*
D03*
Y90000D02*
D03*
D35*
X76000Y19047D02*
D03*
Y24953D02*
D03*
X56000Y19047D02*
D03*
Y24953D02*
D03*
Y70047D02*
D03*
Y75953D02*
D03*
X76000Y70047D02*
D03*
Y75953D02*
D03*
X109500Y70453D02*
D03*
Y64547D02*
D03*
X103500Y73547D02*
D03*
Y79453D02*
D03*
Y92453D02*
D03*
Y86547D02*
D03*
X56000Y31610D02*
D03*
Y37516D02*
D03*
X76000Y31610D02*
D03*
Y37516D02*
D03*
Y63016D02*
D03*
Y57110D02*
D03*
X56000Y63016D02*
D03*
Y57110D02*
D03*
D36*
X90445Y47500D02*
D03*
X41555Y112500D02*
D03*
X90445D02*
D03*
X41555Y47500D02*
D03*
D37*
X93890Y51437D02*
D03*
Y49468D02*
D03*
Y47500D02*
D03*
Y45531D02*
D03*
Y43563D02*
D03*
X87000Y51437D02*
D03*
Y49468D02*
D03*
Y47500D02*
D03*
Y45531D02*
D03*
Y43563D02*
D03*
X38110Y108563D02*
D03*
Y110531D02*
D03*
Y112500D02*
D03*
Y114469D02*
D03*
Y116437D02*
D03*
X45000Y108563D02*
D03*
Y110531D02*
D03*
Y112500D02*
D03*
Y114469D02*
D03*
Y116437D02*
D03*
X93890D02*
D03*
Y114469D02*
D03*
Y110531D02*
D03*
Y108563D02*
D03*
X87000Y116437D02*
D03*
Y114469D02*
D03*
Y112500D02*
D03*
Y110531D02*
D03*
Y108563D02*
D03*
X93890Y112500D02*
D03*
X45000Y51437D02*
D03*
Y49468D02*
D03*
Y47500D02*
D03*
Y45531D02*
D03*
Y43563D02*
D03*
X38110Y51437D02*
D03*
Y49468D02*
D03*
Y47500D02*
D03*
Y45531D02*
D03*
Y43563D02*
D03*
D38*
X68520Y70000D02*
D03*
X63480D02*
D03*
X68520Y25000D02*
D03*
X63480D02*
D03*
Y38000D02*
D03*
X68520D02*
D03*
X63480Y57000D02*
D03*
X68520D02*
D03*
D39*
X68953Y91500D02*
D03*
X63047D02*
D03*
X68953Y121500D02*
D03*
X63047D02*
D03*
X68953Y133500D02*
D03*
X63047D02*
D03*
X68953Y103500D02*
D03*
X63047D02*
D03*
D40*
X76000Y133496D02*
D03*
Y140500D02*
D03*
X56000Y140504D02*
D03*
Y133500D02*
D03*
D41*
X18500Y47500D02*
X38110D01*
X18610Y112500D02*
X38110D01*
X18610Y112500D02*
X18610Y112500D01*
X117063Y83937D02*
X119032Y81968D01*
X117063Y83937D02*
Y87480D01*
X119032Y81968D02*
X121000Y80000D01*
X119032Y81968D02*
Y87480D01*
X124937Y83937D02*
X126281Y85282D01*
X122968Y81968D02*
X124937Y83937D01*
X121000Y80000D02*
X122968Y81968D01*
X126281Y85282D02*
X126456D01*
X122968Y78031D02*
X124937Y76063D01*
X121000Y80000D02*
X122968Y78031D01*
X126218Y74782D02*
X126456D01*
X124937Y76063D02*
X126218Y74782D01*
X124937Y76063D02*
X128480D01*
X124937Y83937D02*
Y87480D01*
Y83937D02*
X128480D01*
X119032Y78031D02*
X121000Y80000D01*
X117063Y76063D02*
X119032Y78031D01*
X117063Y72520D02*
Y76063D01*
X124937Y72520D02*
Y76063D01*
X113520Y78031D02*
X119032D01*
X113520Y80000D02*
X121000D01*
X122968Y81968D02*
X128480D01*
X122968Y78031D02*
X128480D01*
X122968Y72520D02*
Y78031D01*
X119032Y72520D02*
Y78031D01*
X122968Y81968D02*
Y87480D01*
X93890Y47500D02*
X98000D01*
X41555Y47500D02*
X45000D01*
X87000D02*
X90445D01*
X87000Y112500D02*
X90445D01*
X41555D02*
X45000D01*
X109000Y76063D02*
X113520D01*
X109000Y70453D02*
Y76063D01*
Y70453D02*
X109500D01*
X103500Y79453D02*
Y81968D01*
X113520D01*
X103500Y83937D02*
Y86547D01*
Y83937D02*
X113520D01*
X121000Y87480D02*
Y93500D01*
X93890Y47500D02*
Y47500D01*
X121000Y66500D02*
Y72520D01*
X108547Y69500D02*
X109500Y70453D01*
X103000Y69500D02*
X108547D01*
X103453Y86500D02*
X103500Y86547D01*
X97500Y86500D02*
X103453D01*
X102953Y80000D02*
X103500Y79453D01*
X97500Y80000D02*
X102953D01*
X93890Y112500D02*
X98000D01*
X128480Y80000D02*
X131500D01*
X93890Y112500D02*
Y112500D01*
X38110Y112500D02*
Y112500D01*
D42*
X31500Y40500D02*
X33056Y38944D01*
Y38944D02*
Y38944D01*
X28500Y10500D02*
X143500D01*
X31500Y40500D02*
X36531Y45531D01*
X103000Y38000D02*
X103700D01*
X95468Y45531D02*
X103000Y38000D01*
X6000Y66500D02*
X29500D01*
X32000Y54000D02*
Y57111D01*
Y57111D01*
X8500Y64000D02*
X32000D01*
X32200D01*
X93890Y49468D02*
X95969D01*
X100500Y54000D01*
X6000Y93500D02*
X29500D01*
X32000Y96059D02*
X32447Y96506D01*
X32000Y106000D02*
X36531Y110531D01*
X8500Y96000D02*
X32000D01*
Y96059D01*
X95468Y114469D02*
X102500Y121500D01*
X29000Y146000D02*
X29500Y146500D01*
X133500D01*
X31500Y119500D02*
X36531Y114469D01*
X31500Y119500D02*
Y123000D01*
Y149000D02*
X148600D01*
X116000Y28000D02*
X133000D01*
X116000Y33000D02*
X116043Y33043D01*
X137977D01*
X133500Y34443D02*
X140557D01*
X137977Y33043D02*
X138463Y32557D01*
X133500Y34443D02*
Y38500D01*
X115500Y132000D02*
X133000D01*
X115500Y127000D02*
X115543Y126957D01*
X137977D01*
X138463Y127443D01*
X133500Y121500D02*
Y125500D01*
X138500D01*
X133000Y132000D02*
X133500Y131500D01*
X148600Y126043D02*
Y149000D01*
X150000Y121500D02*
Y152000D01*
X9000D02*
X150000D01*
X133500Y131500D02*
Y146500D01*
X6500Y154500D02*
X143000D01*
X31500Y6000D02*
X150000D01*
X148500Y8000D02*
Y33500D01*
X8500Y8000D02*
X148500D01*
X143500Y10500D02*
Y28500D01*
X6000Y13000D02*
X133500D01*
Y28500D01*
X150000Y6000D02*
Y38500D01*
X31500Y5800D02*
Y6000D01*
X141500Y33500D02*
X148500D01*
X140557Y34443D02*
X141500Y33500D01*
X138500Y28500D02*
Y32557D01*
X138463D02*
X138500D01*
X143500Y38500D02*
X150000D01*
X85469Y45531D02*
X87000D01*
X84500Y46500D02*
X85469Y45531D01*
X133000Y28000D02*
X133500Y28500D01*
X82587Y49087D02*
X85036D01*
X81333Y48086D02*
X81414D01*
X81500Y48000D02*
X82587Y49087D01*
X81414Y48086D02*
X81500Y48000D01*
X93890Y45531D02*
X95468D01*
X45000Y45531D02*
X46031D01*
X46532Y45531D02*
X47500Y46500D01*
X45000Y45531D02*
X46532D01*
X86000Y49500D02*
X87000Y49468D01*
X85036Y49087D02*
X86000Y49500D01*
X46000Y49500D02*
X46964Y49087D01*
X45000Y49468D02*
X46000Y49500D01*
X50500Y48000D02*
X50586Y48086D01*
X49413Y49087D02*
X50500Y48000D01*
X50586Y48086D02*
X50667D01*
X46964Y49087D02*
X49413D01*
X138500Y28500D02*
X143500D01*
X36531Y49468D02*
X38110D01*
X32000Y54000D02*
X36531Y49468D01*
X36531Y45531D02*
X38110D01*
X138500Y127443D02*
Y131500D01*
X139043Y126043D02*
X148600D01*
X138463Y127443D02*
X138500D01*
Y125500D02*
X139043Y126043D01*
X36531Y114469D02*
X38110D01*
X36531Y110531D02*
X38110D01*
X143500Y121500D02*
X150000D01*
X138500Y131500D02*
X143500D01*
X46964Y110913D02*
X49413D01*
X50586Y111914D02*
X50667D01*
X49413Y110913D02*
X50500Y112000D01*
X50586Y111914D01*
X45000Y110531D02*
X46000Y110500D01*
X46964Y110913D01*
X85036Y110913D02*
X86000Y110500D01*
X87000Y110531D01*
X45000Y114469D02*
X46532D01*
X47500Y113500D01*
X45000Y114469D02*
X46031D01*
X95969Y110531D02*
X100500Y106000D01*
X93890Y110531D02*
X95969D01*
X93890Y114469D02*
X95468D01*
X81414Y111914D02*
X81500Y112000D01*
X82587Y110913D01*
X81333Y111914D02*
X81414D01*
X82587Y110913D02*
X85036D01*
X84500Y113500D02*
X85469Y114469D01*
X87000D01*
D43*
X119610Y20500D02*
D03*
X17110Y142000D02*
D03*
D44*
X27500Y85000D02*
D03*
X17500D02*
D03*
Y75000D02*
D03*
X133500Y121500D02*
D03*
X143500D02*
D03*
Y111500D02*
D03*
X133500D02*
D03*
Y131500D02*
D03*
X143500Y28500D02*
D03*
Y48500D02*
D03*
X133500D02*
D03*
Y38500D02*
D03*
X143500D02*
D03*
D45*
X27500Y75000D02*
D03*
D46*
X143500Y131500D02*
D03*
X133500Y28500D02*
D03*
D47*
X121000Y79500D02*
D03*
X130428Y138768D02*
D03*
X127956Y134282D02*
D03*
X122956D02*
D03*
X117956D02*
D03*
X112956Y129281D02*
D03*
X107956Y124282D02*
D03*
X112956D02*
D03*
X117956D02*
D03*
X122956D02*
D03*
X127956D02*
D03*
X30519Y43624D02*
D03*
X26000Y40000D02*
D03*
X21000D02*
D03*
X16000D02*
D03*
X11000D02*
D03*
Y35000D02*
D03*
Y30000D02*
D03*
Y25000D02*
D03*
Y20000D02*
D03*
X14363Y15559D02*
D03*
X19363D02*
D03*
X24363D02*
D03*
X127465Y51209D02*
D03*
Y46209D02*
D03*
Y41209D02*
D03*
X124363Y35559D02*
D03*
X119362D02*
D03*
X114363D02*
D03*
X109362Y30559D02*
D03*
Y25559D02*
D03*
Y20559D02*
D03*
Y15559D02*
D03*
X104362D02*
D03*
X99362D02*
D03*
X94362D02*
D03*
X89363D02*
D03*
X84363D02*
D03*
X79362D02*
D03*
X74362D02*
D03*
X69362D02*
D03*
X64363D02*
D03*
X59363D02*
D03*
X54362D02*
D03*
X49362D02*
D03*
X44363D02*
D03*
X39362D02*
D03*
X34363D02*
D03*
X24675Y61594D02*
D03*
X19675D02*
D03*
X14675D02*
D03*
X11000Y60000D02*
D03*
Y55000D02*
D03*
X31500Y51000D02*
D03*
X28500Y53000D02*
D03*
X13500D02*
D03*
X23500D02*
D03*
X18500D02*
D03*
X25700Y100000D02*
D03*
X20700D02*
D03*
X15700D02*
D03*
X10700D02*
D03*
Y105000D02*
D03*
X18610Y107000D02*
D03*
X13610D02*
D03*
X23610D02*
D03*
X10700Y130000D02*
D03*
Y125000D02*
D03*
X31610Y116000D02*
D03*
X10700Y120000D02*
D03*
X23610Y118000D02*
D03*
X28610D02*
D03*
X13610D02*
D03*
X18610D02*
D03*
X149500Y56500D02*
D03*
X144500D02*
D03*
X139500D02*
D03*
X134500D02*
D03*
X15052Y133073D02*
D03*
X20052D02*
D03*
X25052Y138073D02*
D03*
Y148073D02*
D03*
X35052Y143073D02*
D03*
X40052D02*
D03*
X45052D02*
D03*
X50052D02*
D03*
X55052D02*
D03*
X60052D02*
D03*
X65052D02*
D03*
X75052D02*
D03*
X70052D02*
D03*
X80052D02*
D03*
X85052D02*
D03*
X90052D02*
D03*
X95052D02*
D03*
X100052D02*
D03*
X105052D02*
D03*
X110052D02*
D03*
X115052D02*
D03*
X120052D02*
D03*
X125052D02*
D03*
X130052D02*
D03*
X140696Y141491D02*
D03*
X137109Y137235D02*
D03*
X137000Y145500D02*
D03*
X149500Y103500D02*
D03*
X144500D02*
D03*
X139500D02*
D03*
X134500D02*
D03*
X129500D02*
D03*
Y56500D02*
D03*
X138413Y17978D02*
D03*
X129413Y19478D02*
D03*
X21413Y10478D02*
D03*
X149413Y156978D02*
D03*
X145402Y156795D02*
D03*
X139413Y156978D02*
D03*
X134413D02*
D03*
X129413D02*
D03*
X124413D02*
D03*
X119413D02*
D03*
X114413D02*
D03*
X109413D02*
D03*
X104413D02*
D03*
X99413D02*
D03*
X94413D02*
D03*
X89413D02*
D03*
X84413D02*
D03*
X79413D02*
D03*
X74413D02*
D03*
X69413D02*
D03*
X64413D02*
D03*
X59413D02*
D03*
X54413D02*
D03*
X49413D02*
D03*
X44413D02*
D03*
X39413D02*
D03*
X34413D02*
D03*
X29413D02*
D03*
X24413D02*
D03*
X19413D02*
D03*
X14413D02*
D03*
X9413D02*
D03*
X2867Y155543D02*
D03*
Y150543D02*
D03*
Y145543D02*
D03*
Y140543D02*
D03*
X2867Y135859D02*
D03*
X2867Y130543D02*
D03*
Y125543D02*
D03*
Y120543D02*
D03*
Y115543D02*
D03*
Y110543D02*
D03*
Y105543D02*
D03*
Y100543D02*
D03*
Y95543D02*
D03*
Y90543D02*
D03*
Y85011D02*
D03*
Y80543D02*
D03*
Y75543D02*
D03*
Y70543D02*
D03*
Y65543D02*
D03*
Y60543D02*
D03*
Y55543D02*
D03*
Y50543D02*
D03*
Y45543D02*
D03*
Y40543D02*
D03*
Y35543D02*
D03*
Y30543D02*
D03*
Y25543D02*
D03*
Y20543D02*
D03*
Y15543D02*
D03*
Y10543D02*
D03*
Y5543D02*
D03*
X5500Y3000D02*
D03*
X10500D02*
D03*
X15500D02*
D03*
X20500D02*
D03*
X25500D02*
D03*
X30339Y2850D02*
D03*
X35500Y3000D02*
D03*
X40500D02*
D03*
X45500D02*
D03*
X50500D02*
D03*
X55500D02*
D03*
X60500D02*
D03*
X65500D02*
D03*
X70500D02*
D03*
X75500D02*
D03*
X80500D02*
D03*
X85500D02*
D03*
X90500D02*
D03*
X95500D02*
D03*
X100500D02*
D03*
X105500D02*
D03*
X110500D02*
D03*
X115500D02*
D03*
X120500D02*
D03*
X125500D02*
D03*
X130500D02*
D03*
X135500D02*
D03*
X140500D02*
D03*
X145500D02*
D03*
X150500D02*
D03*
X154000Y98500D02*
D03*
Y4500D02*
D03*
Y59500D02*
D03*
Y123500D02*
D03*
Y29500D02*
D03*
Y49500D02*
D03*
Y118500D02*
D03*
Y24500D02*
D03*
Y103500D02*
D03*
Y128500D02*
D03*
Y108500D02*
D03*
Y69500D02*
D03*
Y138500D02*
D03*
Y88500D02*
D03*
Y143500D02*
D03*
Y39500D02*
D03*
Y148500D02*
D03*
Y153500D02*
D03*
Y34500D02*
D03*
Y9500D02*
D03*
Y19500D02*
D03*
Y133500D02*
D03*
Y54500D02*
D03*
Y64500D02*
D03*
Y44500D02*
D03*
Y113500D02*
D03*
Y14500D02*
D03*
Y93500D02*
D03*
X33056Y38944D02*
D03*
X28500Y10500D02*
D03*
X34700Y33000D02*
D03*
X34500Y36000D02*
D03*
X36100Y28500D02*
D03*
X41500Y36000D02*
D03*
X97500Y37500D02*
D03*
X103700Y38000D02*
D03*
X78500Y21500D02*
D03*
X73000D02*
D03*
X89000Y22500D02*
D03*
X93000Y25000D02*
D03*
X83500Y21500D02*
D03*
X68000Y20500D02*
D03*
X95900Y28500D02*
D03*
X97300Y33000D02*
D03*
X53500Y21500D02*
D03*
X59000D02*
D03*
X43000Y22500D02*
D03*
X39000Y25000D02*
D03*
X48500Y21500D02*
D03*
X64000Y20500D02*
D03*
X34500Y59000D02*
D03*
X34700Y62000D02*
D03*
X29500Y66500D02*
D03*
X32000Y57111D02*
D03*
X8500Y64000D02*
D03*
X32200D02*
D03*
X33500Y69500D02*
D03*
X41500Y59000D02*
D03*
X36100Y66500D02*
D03*
X64000Y74500D02*
D03*
X48500Y73500D02*
D03*
X39000Y70000D02*
D03*
X43000Y72500D02*
D03*
X59000Y73500D02*
D03*
X53500D02*
D03*
X78500D02*
D03*
X73000D02*
D03*
X97500Y57000D02*
D03*
X97300Y62000D02*
D03*
X95900Y66500D02*
D03*
X89000Y72500D02*
D03*
X93000Y70000D02*
D03*
X83500Y73500D02*
D03*
X68000Y74500D02*
D03*
X114000Y65500D02*
D03*
X103500D02*
D03*
X108000Y61000D02*
D03*
X111500D02*
D03*
X101000Y51000D02*
D03*
X106000D02*
D03*
X111000D02*
D03*
X117500Y56500D02*
D03*
Y61500D02*
D03*
Y66500D02*
D03*
X114500Y70000D02*
D03*
X105500Y96000D02*
D03*
X98000Y90000D02*
D03*
X102000Y96000D02*
D03*
X108500Y90000D02*
D03*
X111500Y87000D02*
D03*
X114500Y90000D02*
D03*
X117500Y93500D02*
D03*
Y98500D02*
D03*
Y103500D02*
D03*
X111000Y109000D02*
D03*
X106000D02*
D03*
X101000D02*
D03*
Y44000D02*
D03*
X106000D02*
D03*
X111000D02*
D03*
X116000Y45000D02*
D03*
X120000Y47500D02*
D03*
X124500Y56500D02*
D03*
Y66500D02*
D03*
Y61500D02*
D03*
X123000Y51500D02*
D03*
X127000Y70000D02*
D03*
X130000Y73500D02*
D03*
X132500Y77000D02*
D03*
X138000Y74200D02*
D03*
X143000D02*
D03*
X148000D02*
D03*
X153000D02*
D03*
Y85800D02*
D03*
X148000D02*
D03*
X143000D02*
D03*
X138000D02*
D03*
X132500Y83000D02*
D03*
X130000Y86500D02*
D03*
X127000Y90000D02*
D03*
X123000Y108500D02*
D03*
X124500Y98500D02*
D03*
Y93500D02*
D03*
Y103500D02*
D03*
X120000Y112500D02*
D03*
X116000Y115000D02*
D03*
X111000Y116000D02*
D03*
X106000D02*
D03*
X101000D02*
D03*
X87000Y38500D02*
D03*
X83000Y36000D02*
D03*
X68000Y33500D02*
D03*
X72500Y34000D02*
D03*
X79000D02*
D03*
X45000Y38500D02*
D03*
X49000Y36000D02*
D03*
X64000Y33500D02*
D03*
X59000Y34000D02*
D03*
X53000D02*
D03*
X87000Y56500D02*
D03*
X83000Y59000D02*
D03*
X68000Y61500D02*
D03*
X72500Y60500D02*
D03*
X79000Y61000D02*
D03*
X53000D02*
D03*
X59500Y60500D02*
D03*
X64000Y61500D02*
D03*
X49000Y59000D02*
D03*
X45000Y56500D02*
D03*
X41500Y54000D02*
D03*
X43500Y64500D02*
D03*
X49000Y66500D02*
D03*
X64000Y65500D02*
D03*
X54000Y66500D02*
D03*
X59000D02*
D03*
X73000D02*
D03*
X78000D02*
D03*
X68000Y65500D02*
D03*
X83000Y66500D02*
D03*
X88500Y64500D02*
D03*
X90500Y59000D02*
D03*
Y54000D02*
D03*
X100500D02*
D03*
X90500Y41000D02*
D03*
Y36000D02*
D03*
X88500Y30500D02*
D03*
X83000Y28500D02*
D03*
X68000Y29500D02*
D03*
X78000Y28500D02*
D03*
X73000D02*
D03*
X59000D02*
D03*
X54000D02*
D03*
X64000Y29500D02*
D03*
X49000Y28500D02*
D03*
X43500Y30500D02*
D03*
X41500Y41000D02*
D03*
X51000Y43000D02*
D03*
X56000Y42000D02*
D03*
X61000Y42800D02*
D03*
X66000D02*
D03*
X71000D02*
D03*
X76000Y42000D02*
D03*
X81000Y43000D02*
D03*
Y52000D02*
D03*
X76000Y53000D02*
D03*
X71000Y52200D02*
D03*
X66000D02*
D03*
X61000D02*
D03*
X56000Y53000D02*
D03*
X51000Y52000D02*
D03*
X73000Y88000D02*
D03*
X78000D02*
D03*
X83000Y88000D02*
D03*
X51000Y117000D02*
D03*
X56000Y118000D02*
D03*
X61000Y117200D02*
D03*
X66000D02*
D03*
X71000D02*
D03*
X76000Y118000D02*
D03*
X81000Y117000D02*
D03*
Y108000D02*
D03*
X76000Y107000D02*
D03*
X71000Y107800D02*
D03*
X66000D02*
D03*
X61000D02*
D03*
X56000Y107000D02*
D03*
X51000Y108000D02*
D03*
X32000Y106000D02*
D03*
X29500Y93500D02*
D03*
X32447Y96506D02*
D03*
X34500Y104000D02*
D03*
Y99000D02*
D03*
X41500Y106000D02*
D03*
Y101000D02*
D03*
X44000Y96500D02*
D03*
X49000Y95000D02*
D03*
X54000Y95000D02*
D03*
X59000D02*
D03*
X64000Y96000D02*
D03*
X68000D02*
D03*
X73000Y95700D02*
D03*
X78000D02*
D03*
X83000Y95000D02*
D03*
X88000Y96500D02*
D03*
X64000Y87000D02*
D03*
X59000Y88000D02*
D03*
X54000D02*
D03*
X49000D02*
D03*
X43500Y88700D02*
D03*
X39500Y91000D02*
D03*
X36500Y94500D02*
D03*
X97500Y104000D02*
D03*
X88500Y88700D02*
D03*
X68000Y87000D02*
D03*
X92500Y90500D02*
D03*
X97500Y99000D02*
D03*
X96000Y95500D02*
D03*
X88000Y101000D02*
D03*
Y104500D02*
D03*
X84000Y101504D02*
D03*
X68000Y99000D02*
D03*
X64000D02*
D03*
X79500Y100000D02*
D03*
X50000Y100500D02*
D03*
X45500Y103000D02*
D03*
X59000Y100000D02*
D03*
X72500D02*
D03*
Y125000D02*
D03*
X59000D02*
D03*
X45500Y122000D02*
D03*
X50000Y124500D02*
D03*
X79500Y125000D02*
D03*
X64000Y126000D02*
D03*
X68000D02*
D03*
X84000Y123496D02*
D03*
X88000Y120500D02*
D03*
Y124000D02*
D03*
X96000Y129500D02*
D03*
X97500Y126000D02*
D03*
X92500Y134500D02*
D03*
X102500Y121500D02*
D03*
X68000Y138000D02*
D03*
X73000Y137700D02*
D03*
X78000D02*
D03*
X83000Y137000D02*
D03*
X88500Y136300D02*
D03*
X97500Y121000D02*
D03*
X36500Y130500D02*
D03*
X34500Y126000D02*
D03*
Y121000D02*
D03*
X29000Y146000D02*
D03*
X31500Y123000D02*
D03*
Y149000D02*
D03*
X39500Y134000D02*
D03*
X43500Y136300D02*
D03*
X49000Y137000D02*
D03*
X54000Y137700D02*
D03*
X59000D02*
D03*
X64000Y138000D02*
D03*
X88000Y128500D02*
D03*
X83000Y130000D02*
D03*
X78000Y129300D02*
D03*
X73000D02*
D03*
X68000Y129000D02*
D03*
X64000D02*
D03*
X59000Y129300D02*
D03*
X54000D02*
D03*
X49000Y130000D02*
D03*
X44000Y128500D02*
D03*
X41500Y124000D02*
D03*
Y119000D02*
D03*
X116000Y28000D02*
D03*
Y33000D02*
D03*
X115500Y132000D02*
D03*
Y127000D02*
D03*
X143000Y154500D02*
D03*
X6500D02*
D03*
X9000Y152000D02*
D03*
X8500Y96000D02*
D03*
X6000Y13000D02*
D03*
X31500Y5800D02*
D03*
X8500Y8000D02*
D03*
X103000Y69500D02*
D03*
X97500Y86500D02*
D03*
Y80000D02*
D03*
X84000Y46713D02*
D03*
X81333Y48086D02*
D03*
X48000Y46713D02*
D03*
X50667Y48086D02*
D03*
X6000Y66500D02*
D03*
Y93500D02*
D03*
X50667Y111914D02*
D03*
X48000Y113287D02*
D03*
X100500Y106000D02*
D03*
X81333Y111914D02*
D03*
X84000Y113287D02*
D03*
M02*
