G04*
G04 #@! TF.GenerationSoftware,Altium Limited,Altium Designer,24.4.1 (13)*
G04*
G04 Layer_Color=128*
%FSLAX25Y25*%
%MOIN*%
G70*
G04*
G04 #@! TF.SameCoordinates,8584FE8A-8FE8-497F-BE15-97A27C2B3E29*
G04*
G04*
G04 #@! TF.FilePolarity,Positive*
G04*
G01*
G75*
%ADD10C,0.00500*%
D10*
X115279Y20500D02*
X123941D01*
X119610Y16169D02*
Y24831D01*
X12779Y142000D02*
X21441D01*
X17110Y137669D02*
Y146331D01*
X25532Y85000D02*
X29469D01*
X27500Y83031D02*
Y86968D01*
X15531Y85000D02*
X19468D01*
X17500Y83031D02*
Y86968D01*
X15531Y75000D02*
X19468D01*
X17500Y73032D02*
Y76968D01*
X25532Y75000D02*
X29469D01*
X27500Y73032D02*
Y76968D01*
X131532Y121500D02*
X135468D01*
X133500Y119532D02*
Y123468D01*
X141532Y121500D02*
X145468D01*
X143500Y119532D02*
Y123468D01*
X141532Y111500D02*
X145468D01*
X143500Y109531D02*
Y113469D01*
X131532Y111500D02*
X135468D01*
X133500Y109531D02*
Y113469D01*
X141532Y131500D02*
X145468D01*
X143500Y129532D02*
Y133468D01*
X131532Y131500D02*
X135468D01*
X133500Y129532D02*
Y133468D01*
X141532Y28500D02*
X145468D01*
X143500Y26531D02*
Y30468D01*
X131532Y28500D02*
X135468D01*
X133500Y26531D02*
Y30468D01*
X141532Y48500D02*
X145468D01*
X143500Y46532D02*
Y50468D01*
X131532Y48500D02*
X135468D01*
X133500Y46532D02*
Y50468D01*
X131532Y38500D02*
X135468D01*
X133500Y36531D02*
Y40468D01*
X141532Y38500D02*
X145468D01*
X143500Y36531D02*
Y40468D01*
X120400Y79500D02*
X121600D01*
X121000Y78900D02*
Y80100D01*
X129828Y138768D02*
X131028D01*
X130428Y138168D02*
Y139368D01*
X127356Y134282D02*
X128556D01*
X127956Y133681D02*
Y134881D01*
X122356Y134282D02*
X123556D01*
X122956Y133681D02*
Y134881D01*
X117356Y134282D02*
X118556D01*
X117956Y133681D02*
Y134881D01*
X112356Y129281D02*
X113556D01*
X112956Y128682D02*
Y129882D01*
X107356Y124282D02*
X108556D01*
X107956Y123681D02*
Y124881D01*
X112356Y124282D02*
X113556D01*
X112956Y123681D02*
Y124881D01*
X117356Y124282D02*
X118556D01*
X117956Y123681D02*
Y124881D01*
X122356Y124282D02*
X123556D01*
X122956Y123681D02*
Y124881D01*
X127356Y124282D02*
X128556D01*
X127956Y123681D02*
Y124881D01*
X29919Y43624D02*
X31119D01*
X30519Y43024D02*
Y44224D01*
X25400Y40000D02*
X26600D01*
X26000Y39400D02*
Y40600D01*
X20400Y40000D02*
X21600D01*
X21000Y39400D02*
Y40600D01*
X15400Y40000D02*
X16600D01*
X16000Y39400D02*
Y40600D01*
X10400Y40000D02*
X11600D01*
X11000Y39400D02*
Y40600D01*
X10400Y35000D02*
X11600D01*
X11000Y34400D02*
Y35600D01*
X10400Y30000D02*
X11600D01*
X11000Y29400D02*
Y30600D01*
X10400Y25000D02*
X11600D01*
X11000Y24400D02*
Y25600D01*
X10400Y20000D02*
X11600D01*
X11000Y19400D02*
Y20600D01*
X13762Y15559D02*
X14963D01*
X14363Y14959D02*
Y16159D01*
X18763Y15559D02*
X19963D01*
X19363Y14959D02*
Y16159D01*
X23763Y15559D02*
X24962D01*
X24363Y14959D02*
Y16159D01*
X126865Y51209D02*
X128065D01*
X127465Y50609D02*
Y51809D01*
X126865Y46209D02*
X128065D01*
X127465Y45609D02*
Y46809D01*
X126865Y41209D02*
X128065D01*
X127465Y40609D02*
Y41809D01*
X123763Y35559D02*
X124962D01*
X124363Y34959D02*
Y36159D01*
X118763Y35559D02*
X119963D01*
X119362Y34959D02*
Y36159D01*
X113762Y35559D02*
X114962D01*
X114363Y34959D02*
Y36159D01*
X108763Y30559D02*
X109962D01*
X109362Y29959D02*
Y31159D01*
X108763Y25559D02*
X109962D01*
X109362Y24959D02*
Y26159D01*
X108763Y20559D02*
X109962D01*
X109362Y19959D02*
Y21159D01*
X108763Y15559D02*
X109962D01*
X109362Y14959D02*
Y16159D01*
X103762Y15559D02*
X104963D01*
X104362Y14959D02*
Y16159D01*
X98763Y15559D02*
X99963D01*
X99362Y14959D02*
Y16159D01*
X93762Y15559D02*
X94963D01*
X94362Y14959D02*
Y16159D01*
X88762Y15559D02*
X89963D01*
X89363Y14959D02*
Y16159D01*
X83763Y15559D02*
X84962D01*
X84363Y14959D02*
Y16159D01*
X78763Y15559D02*
X79962D01*
X79362Y14959D02*
Y16159D01*
X73763Y15559D02*
X74963D01*
X74362Y14959D02*
Y16159D01*
X68762Y15559D02*
X69963D01*
X69362Y14959D02*
Y16159D01*
X63762Y15559D02*
X64963D01*
X64363Y14959D02*
Y16159D01*
X58763Y15559D02*
X59962D01*
X59363Y14959D02*
Y16159D01*
X53763Y15559D02*
X54962D01*
X54362Y14959D02*
Y16159D01*
X48763Y15559D02*
X49962D01*
X49362Y14959D02*
Y16159D01*
X43762Y15559D02*
X44962D01*
X44363Y14959D02*
Y16159D01*
X38763Y15559D02*
X39963D01*
X39362Y14959D02*
Y16159D01*
X33762Y15559D02*
X34962D01*
X34363Y14959D02*
Y16159D01*
X24075Y61594D02*
X25275D01*
X24675Y60994D02*
Y62194D01*
X19075Y61594D02*
X20275D01*
X19675Y60994D02*
Y62194D01*
X14075Y61594D02*
X15275D01*
X14675Y60994D02*
Y62194D01*
X10400Y60000D02*
X11600D01*
X11000Y59400D02*
Y60600D01*
X10400Y55000D02*
X11600D01*
X11000Y54400D02*
Y55600D01*
X30900Y51000D02*
X32100D01*
X31500Y50400D02*
Y51600D01*
X27900Y53000D02*
X29100D01*
X28500Y52400D02*
Y53600D01*
X12900Y53000D02*
X14100D01*
X13500Y52400D02*
Y53600D01*
X22900Y53000D02*
X24100D01*
X23500Y52400D02*
Y53600D01*
X17900Y53000D02*
X19100D01*
X18500Y52400D02*
Y53600D01*
X25100Y100000D02*
X26300D01*
X25700Y99400D02*
Y100600D01*
X20100Y100000D02*
X21300D01*
X20700Y99400D02*
Y100600D01*
X15100Y100000D02*
X16300D01*
X15700Y99400D02*
Y100600D01*
X10100Y100000D02*
X11300D01*
X10700Y99400D02*
Y100600D01*
X10100Y105000D02*
X11300D01*
X10700Y104400D02*
Y105600D01*
X18010Y107000D02*
X19210D01*
X18610Y106400D02*
Y107600D01*
X13010Y107000D02*
X14210D01*
X13610Y106400D02*
Y107600D01*
X23010Y107000D02*
X24210D01*
X23610Y106400D02*
Y107600D01*
X10100Y130000D02*
X11300D01*
X10700Y129400D02*
Y130600D01*
X10100Y125000D02*
X11300D01*
X10700Y124400D02*
Y125600D01*
X31010Y116000D02*
X32210D01*
X31610Y115400D02*
Y116600D01*
X10100Y120000D02*
X11300D01*
X10700Y119400D02*
Y120600D01*
X23010Y118000D02*
X24210D01*
X23610Y117400D02*
Y118600D01*
X28010Y118000D02*
X29210D01*
X28610Y117400D02*
Y118600D01*
X13010Y118000D02*
X14210D01*
X13610Y117400D02*
Y118600D01*
X18010Y118000D02*
X19210D01*
X18610Y117400D02*
Y118600D01*
X148900Y56500D02*
X150100D01*
X149500Y55900D02*
Y57100D01*
X143900Y56500D02*
X145100D01*
X144500Y55900D02*
Y57100D01*
X138900Y56500D02*
X140100D01*
X139500Y55900D02*
Y57100D01*
X133900Y56500D02*
X135100D01*
X134500Y55900D02*
Y57100D01*
X14452Y133073D02*
X15652D01*
X15052Y132473D02*
Y133673D01*
X19452Y133073D02*
X20652D01*
X20052Y132473D02*
Y133673D01*
X24452Y138073D02*
X25652D01*
X25052Y137473D02*
Y138673D01*
X24452Y148073D02*
X25652D01*
X25052Y147473D02*
Y148673D01*
X34452Y143073D02*
X35652D01*
X35052Y142473D02*
Y143673D01*
X39452Y143073D02*
X40652D01*
X40052Y142473D02*
Y143673D01*
X44452Y143073D02*
X45652D01*
X45052Y142473D02*
Y143673D01*
X49452Y143073D02*
X50652D01*
X50052Y142473D02*
Y143673D01*
X54452Y143073D02*
X55652D01*
X55052Y142473D02*
Y143673D01*
X59452Y143073D02*
X60652D01*
X60052Y142473D02*
Y143673D01*
X64452Y143073D02*
X65652D01*
X65052Y142473D02*
Y143673D01*
X74452Y143073D02*
X75652D01*
X75052Y142473D02*
Y143673D01*
X69452Y143073D02*
X70652D01*
X70052Y142473D02*
Y143673D01*
X79452Y143073D02*
X80652D01*
X80052Y142473D02*
Y143673D01*
X84452Y143073D02*
X85652D01*
X85052Y142473D02*
Y143673D01*
X89452Y143073D02*
X90652D01*
X90052Y142473D02*
Y143673D01*
X94452Y143073D02*
X95652D01*
X95052Y142473D02*
Y143673D01*
X99452Y143073D02*
X100652D01*
X100052Y142473D02*
Y143673D01*
X104452Y143073D02*
X105652D01*
X105052Y142473D02*
Y143673D01*
X109452Y143073D02*
X110652D01*
X110052Y142473D02*
Y143673D01*
X114452Y143073D02*
X115652D01*
X115052Y142473D02*
Y143673D01*
X119452Y143073D02*
X120652D01*
X120052Y142473D02*
Y143673D01*
X124452Y143073D02*
X125652D01*
X125052Y142473D02*
Y143673D01*
X129452Y143073D02*
X130652D01*
X130052Y142473D02*
Y143673D01*
X140096Y141491D02*
X141296D01*
X140696Y140891D02*
Y142091D01*
X136509Y137235D02*
X137709D01*
X137109Y136635D02*
Y137835D01*
X136400Y145500D02*
X137600D01*
X137000Y144900D02*
Y146100D01*
X148900Y103500D02*
X150100D01*
X149500Y102900D02*
Y104100D01*
X143900Y103500D02*
X145100D01*
X144500Y102900D02*
Y104100D01*
X138900Y103500D02*
X140100D01*
X139500Y102900D02*
Y104100D01*
X133900Y103500D02*
X135100D01*
X134500Y102900D02*
Y104100D01*
X128900Y103500D02*
X130100D01*
X129500Y102900D02*
Y104100D01*
X128900Y56500D02*
X130100D01*
X129500Y55900D02*
Y57100D01*
X137813Y17978D02*
X139013D01*
X138413Y17378D02*
Y18578D01*
X128813Y19478D02*
X130013D01*
X129413Y18878D02*
Y20078D01*
X20813Y10478D02*
X22013D01*
X21413Y9878D02*
Y11078D01*
X148813Y156978D02*
X150013D01*
X149413Y156378D02*
Y157578D01*
X144802Y156795D02*
X146002D01*
X145402Y156195D02*
Y157395D01*
X138813Y156978D02*
X140013D01*
X139413Y156378D02*
Y157578D01*
X133813Y156978D02*
X135013D01*
X134413Y156378D02*
Y157578D01*
X128813Y156978D02*
X130013D01*
X129413Y156378D02*
Y157578D01*
X123813Y156978D02*
X125013D01*
X124413Y156378D02*
Y157578D01*
X118813Y156978D02*
X120013D01*
X119413Y156378D02*
Y157578D01*
X113813Y156978D02*
X115013D01*
X114413Y156378D02*
Y157578D01*
X108813Y156978D02*
X110013D01*
X109413Y156378D02*
Y157578D01*
X103813Y156978D02*
X105013D01*
X104413Y156378D02*
Y157578D01*
X98813Y156978D02*
X100013D01*
X99413Y156378D02*
Y157578D01*
X93813Y156978D02*
X95013D01*
X94413Y156378D02*
Y157578D01*
X88813Y156978D02*
X90013D01*
X89413Y156378D02*
Y157578D01*
X83813Y156978D02*
X85013D01*
X84413Y156378D02*
Y157578D01*
X78813Y156978D02*
X80013D01*
X79413Y156378D02*
Y157578D01*
X73813Y156978D02*
X75013D01*
X74413Y156378D02*
Y157578D01*
X68813Y156978D02*
X70013D01*
X69413Y156378D02*
Y157578D01*
X63813Y156978D02*
X65013D01*
X64413Y156378D02*
Y157578D01*
X58813Y156978D02*
X60013D01*
X59413Y156378D02*
Y157578D01*
X53813Y156978D02*
X55013D01*
X54413Y156378D02*
Y157578D01*
X48813Y156978D02*
X50013D01*
X49413Y156378D02*
Y157578D01*
X43813Y156978D02*
X45013D01*
X44413Y156378D02*
Y157578D01*
X38813Y156978D02*
X40013D01*
X39413Y156378D02*
Y157578D01*
X33813Y156978D02*
X35013D01*
X34413Y156378D02*
Y157578D01*
X28813Y156978D02*
X30013D01*
X29413Y156378D02*
Y157578D01*
X23813Y156978D02*
X25013D01*
X24413Y156378D02*
Y157578D01*
X18813Y156978D02*
X20013D01*
X19413Y156378D02*
Y157578D01*
X13813Y156978D02*
X15013D01*
X14413Y156378D02*
Y157578D01*
X8813Y156978D02*
X10013D01*
X9413Y156378D02*
Y157578D01*
X2267Y155543D02*
X3467D01*
X2867Y154943D02*
Y156143D01*
X2267Y150543D02*
X3467D01*
X2867Y149943D02*
Y151143D01*
X2267Y145543D02*
X3467D01*
X2867Y144943D02*
Y146143D01*
X2267Y140543D02*
X3467D01*
X2867Y139943D02*
Y141143D01*
X2267Y135859D02*
X3467D01*
X2867Y135259D02*
Y136459D01*
X2267Y130543D02*
X3467D01*
X2867Y129943D02*
Y131143D01*
X2267Y125543D02*
X3467D01*
X2867Y124943D02*
Y126143D01*
X2267Y120543D02*
X3467D01*
X2867Y119943D02*
Y121143D01*
X2267Y115543D02*
X3467D01*
X2867Y114943D02*
Y116143D01*
X2267Y110543D02*
X3467D01*
X2867Y109943D02*
Y111143D01*
X2267Y105543D02*
X3467D01*
X2867Y104943D02*
Y106143D01*
X2267Y100543D02*
X3467D01*
X2867Y99943D02*
Y101143D01*
X2267Y95543D02*
X3467D01*
X2867Y94943D02*
Y96143D01*
X2267Y90543D02*
X3467D01*
X2867Y89943D02*
Y91143D01*
X2267Y85011D02*
X3467D01*
X2867Y84411D02*
Y85611D01*
X2267Y80543D02*
X3467D01*
X2867Y79943D02*
Y81143D01*
X2267Y75543D02*
X3467D01*
X2867Y74943D02*
Y76143D01*
X2267Y70543D02*
X3467D01*
X2867Y69943D02*
Y71143D01*
X2267Y65543D02*
X3467D01*
X2867Y64943D02*
Y66143D01*
X2267Y60543D02*
X3467D01*
X2867Y59943D02*
Y61143D01*
X2267Y55543D02*
X3467D01*
X2867Y54943D02*
Y56143D01*
X2267Y50543D02*
X3467D01*
X2867Y49943D02*
Y51143D01*
X2267Y45543D02*
X3467D01*
X2867Y44943D02*
Y46143D01*
X2267Y40543D02*
X3467D01*
X2867Y39943D02*
Y41143D01*
X2267Y35543D02*
X3467D01*
X2867Y34943D02*
Y36143D01*
X2267Y30543D02*
X3467D01*
X2867Y29943D02*
Y31143D01*
X2267Y25543D02*
X3467D01*
X2867Y24943D02*
Y26143D01*
X2267Y20543D02*
X3467D01*
X2867Y19943D02*
Y21143D01*
X2267Y15543D02*
X3467D01*
X2867Y14943D02*
Y16143D01*
X2267Y10543D02*
X3467D01*
X2867Y9943D02*
Y11143D01*
X2267Y5543D02*
X3467D01*
X2867Y4943D02*
Y6143D01*
X4900Y3000D02*
X6100D01*
X5500Y2400D02*
Y3600D01*
X9900Y3000D02*
X11100D01*
X10500Y2400D02*
Y3600D01*
X14900Y3000D02*
X16100D01*
X15500Y2400D02*
Y3600D01*
X19900Y3000D02*
X21100D01*
X20500Y2400D02*
Y3600D01*
X24900Y3000D02*
X26100D01*
X25500Y2400D02*
Y3600D01*
X29739Y2850D02*
X30939D01*
X30339Y2251D02*
Y3450D01*
X34900Y3000D02*
X36100D01*
X35500Y2400D02*
Y3600D01*
X39900Y3000D02*
X41100D01*
X40500Y2400D02*
Y3600D01*
X44900Y3000D02*
X46100D01*
X45500Y2400D02*
Y3600D01*
X49900Y3000D02*
X51100D01*
X50500Y2400D02*
Y3600D01*
X54900Y3000D02*
X56100D01*
X55500Y2400D02*
Y3600D01*
X59900Y3000D02*
X61100D01*
X60500Y2400D02*
Y3600D01*
X64900Y3000D02*
X66100D01*
X65500Y2400D02*
Y3600D01*
X69900Y3000D02*
X71100D01*
X70500Y2400D02*
Y3600D01*
X74900Y3000D02*
X76100D01*
X75500Y2400D02*
Y3600D01*
X79900Y3000D02*
X81100D01*
X80500Y2400D02*
Y3600D01*
X84900Y3000D02*
X86100D01*
X85500Y2400D02*
Y3600D01*
X89900Y3000D02*
X91100D01*
X90500Y2400D02*
Y3600D01*
X94900Y3000D02*
X96100D01*
X95500Y2400D02*
Y3600D01*
X99900Y3000D02*
X101100D01*
X100500Y2400D02*
Y3600D01*
X104900Y3000D02*
X106100D01*
X105500Y2400D02*
Y3600D01*
X109900Y3000D02*
X111100D01*
X110500Y2400D02*
Y3600D01*
X114900Y3000D02*
X116100D01*
X115500Y2400D02*
Y3600D01*
X119900Y3000D02*
X121100D01*
X120500Y2400D02*
Y3600D01*
X124900Y3000D02*
X126100D01*
X125500Y2400D02*
Y3600D01*
X129900Y3000D02*
X131100D01*
X130500Y2400D02*
Y3600D01*
X134900Y3000D02*
X136100D01*
X135500Y2400D02*
Y3600D01*
X139900Y3000D02*
X141100D01*
X140500Y2400D02*
Y3600D01*
X144900Y3000D02*
X146100D01*
X145500Y2400D02*
Y3600D01*
X149900Y3000D02*
X151100D01*
X150500Y2400D02*
Y3600D01*
X153400Y98500D02*
X154600D01*
X154000Y97900D02*
Y99100D01*
X153400Y4500D02*
X154600D01*
X154000Y3900D02*
Y5100D01*
X153400Y59500D02*
X154600D01*
X154000Y58900D02*
Y60100D01*
X153400Y123500D02*
X154600D01*
X154000Y122900D02*
Y124100D01*
X153400Y29500D02*
X154600D01*
X154000Y28900D02*
Y30100D01*
X153400Y49500D02*
X154600D01*
X154000Y48900D02*
Y50100D01*
X153400Y118500D02*
X154600D01*
X154000Y117900D02*
Y119100D01*
X153400Y24500D02*
X154600D01*
X154000Y23900D02*
Y25100D01*
X153400Y103500D02*
X154600D01*
X154000Y102900D02*
Y104100D01*
X153400Y128500D02*
X154600D01*
X154000Y127900D02*
Y129100D01*
X153400Y108500D02*
X154600D01*
X154000Y107900D02*
Y109100D01*
X153400Y69500D02*
X154600D01*
X154000Y68900D02*
Y70100D01*
X153400Y138500D02*
X154600D01*
X154000Y137900D02*
Y139100D01*
X153400Y88500D02*
X154600D01*
X154000Y87900D02*
Y89100D01*
X153400Y143500D02*
X154600D01*
X154000Y142900D02*
Y144100D01*
X153400Y39500D02*
X154600D01*
X154000Y38900D02*
Y40100D01*
X153400Y148500D02*
X154600D01*
X154000Y147900D02*
Y149100D01*
X153400Y153500D02*
X154600D01*
X154000Y152900D02*
Y154100D01*
X153400Y34500D02*
X154600D01*
X154000Y33900D02*
Y35100D01*
X153400Y9500D02*
X154600D01*
X154000Y8900D02*
Y10100D01*
X153400Y19500D02*
X154600D01*
X154000Y18900D02*
Y20100D01*
X153400Y133500D02*
X154600D01*
X154000Y132900D02*
Y134100D01*
X153400Y54500D02*
X154600D01*
X154000Y53900D02*
Y55100D01*
X153400Y64500D02*
X154600D01*
X154000Y63900D02*
Y65100D01*
X153400Y44500D02*
X154600D01*
X154000Y43900D02*
Y45100D01*
X153400Y113500D02*
X154600D01*
X154000Y112900D02*
Y114100D01*
X153400Y14500D02*
X154600D01*
X154000Y13900D02*
Y15100D01*
X153400Y93500D02*
X154600D01*
X154000Y92900D02*
Y94100D01*
X32456Y38944D02*
X33656D01*
X33056Y38344D02*
Y39544D01*
X27900Y10500D02*
X29100D01*
X28500Y9900D02*
Y11100D01*
X34100Y33000D02*
X35300D01*
X34700Y32400D02*
Y33600D01*
X33900Y36000D02*
X35100D01*
X34500Y35400D02*
Y36600D01*
X35500Y28500D02*
X36700D01*
X36100Y27900D02*
Y29100D01*
X40900Y36000D02*
X42100D01*
X41500Y35400D02*
Y36600D01*
X96900Y37500D02*
X98100D01*
X97500Y36900D02*
Y38100D01*
X103100Y38000D02*
X104300D01*
X103700Y37400D02*
Y38600D01*
X77900Y21500D02*
X79100D01*
X78500Y20900D02*
Y22100D01*
X72400Y21500D02*
X73600D01*
X73000Y20900D02*
Y22100D01*
X88400Y22500D02*
X89600D01*
X89000Y21900D02*
Y23100D01*
X92400Y25000D02*
X93600D01*
X93000Y24400D02*
Y25600D01*
X82900Y21500D02*
X84100D01*
X83500Y20900D02*
Y22100D01*
X67400Y20500D02*
X68600D01*
X68000Y19900D02*
Y21100D01*
X95300Y28500D02*
X96500D01*
X95900Y27900D02*
Y29100D01*
X96700Y33000D02*
X97900D01*
X97300Y32400D02*
Y33600D01*
X52900Y21500D02*
X54100D01*
X53500Y20900D02*
Y22100D01*
X58400Y21500D02*
X59600D01*
X59000Y20900D02*
Y22100D01*
X42400Y22500D02*
X43600D01*
X43000Y21900D02*
Y23100D01*
X38400Y25000D02*
X39600D01*
X39000Y24400D02*
Y25600D01*
X47900Y21500D02*
X49100D01*
X48500Y20900D02*
Y22100D01*
X63400Y20500D02*
X64600D01*
X64000Y19900D02*
Y21100D01*
X33900Y59000D02*
X35100D01*
X34500Y58400D02*
Y59600D01*
X34100Y62000D02*
X35300D01*
X34700Y61400D02*
Y62600D01*
X28900Y66500D02*
X30100D01*
X29500Y65900D02*
Y67100D01*
X31400Y57111D02*
X32600D01*
X32000Y56511D02*
Y57711D01*
X7900Y64000D02*
X9100D01*
X8500Y63400D02*
Y64600D01*
X31600Y64000D02*
X32800D01*
X32200Y63400D02*
Y64600D01*
X32900Y69500D02*
X34100D01*
X33500Y68900D02*
Y70100D01*
X40900Y59000D02*
X42100D01*
X41500Y58400D02*
Y59600D01*
X35500Y66500D02*
X36700D01*
X36100Y65900D02*
Y67100D01*
X63400Y74500D02*
X64600D01*
X64000Y73900D02*
Y75100D01*
X47900Y73500D02*
X49100D01*
X48500Y72900D02*
Y74100D01*
X38400Y70000D02*
X39600D01*
X39000Y69400D02*
Y70600D01*
X42400Y72500D02*
X43600D01*
X43000Y71900D02*
Y73100D01*
X58400Y73500D02*
X59600D01*
X59000Y72900D02*
Y74100D01*
X52900Y73500D02*
X54100D01*
X53500Y72900D02*
Y74100D01*
X77900Y73500D02*
X79100D01*
X78500Y72900D02*
Y74100D01*
X72400Y73500D02*
X73600D01*
X73000Y72900D02*
Y74100D01*
X96900Y57000D02*
X98100D01*
X97500Y56400D02*
Y57600D01*
X96700Y62000D02*
X97900D01*
X97300Y61400D02*
Y62600D01*
X95300Y66500D02*
X96500D01*
X95900Y65900D02*
Y67100D01*
X88400Y72500D02*
X89600D01*
X89000Y71900D02*
Y73100D01*
X92400Y70000D02*
X93600D01*
X93000Y69400D02*
Y70600D01*
X82900Y73500D02*
X84100D01*
X83500Y72900D02*
Y74100D01*
X67400Y74500D02*
X68600D01*
X68000Y73900D02*
Y75100D01*
X113400Y65500D02*
X114600D01*
X114000Y64900D02*
Y66100D01*
X102900Y65500D02*
X104100D01*
X103500Y64900D02*
Y66100D01*
X107400Y61000D02*
X108600D01*
X108000Y60400D02*
Y61600D01*
X110900Y61000D02*
X112100D01*
X111500Y60400D02*
Y61600D01*
X100400Y51000D02*
X101600D01*
X101000Y50400D02*
Y51600D01*
X105400Y51000D02*
X106600D01*
X106000Y50400D02*
Y51600D01*
X110400Y51000D02*
X111600D01*
X111000Y50400D02*
Y51600D01*
X116900Y56500D02*
X118100D01*
X117500Y55900D02*
Y57100D01*
X116900Y61500D02*
X118100D01*
X117500Y60900D02*
Y62100D01*
X116900Y66500D02*
X118100D01*
X117500Y65900D02*
Y67100D01*
X113900Y70000D02*
X115100D01*
X114500Y69400D02*
Y70600D01*
X104900Y96000D02*
X106100D01*
X105500Y95400D02*
Y96600D01*
X97400Y90000D02*
X98600D01*
X98000Y89400D02*
Y90600D01*
X101400Y96000D02*
X102600D01*
X102000Y95400D02*
Y96600D01*
X107900Y90000D02*
X109100D01*
X108500Y89400D02*
Y90600D01*
X110900Y87000D02*
X112100D01*
X111500Y86400D02*
Y87600D01*
X113900Y90000D02*
X115100D01*
X114500Y89400D02*
Y90600D01*
X116900Y93500D02*
X118100D01*
X117500Y92900D02*
Y94100D01*
X116900Y98500D02*
X118100D01*
X117500Y97900D02*
Y99100D01*
X116900Y103500D02*
X118100D01*
X117500Y102900D02*
Y104100D01*
X110400Y109000D02*
X111600D01*
X111000Y108400D02*
Y109600D01*
X105400Y109000D02*
X106600D01*
X106000Y108400D02*
Y109600D01*
X100400Y109000D02*
X101600D01*
X101000Y108400D02*
Y109600D01*
X100400Y44000D02*
X101600D01*
X101000Y43400D02*
Y44600D01*
X105400Y44000D02*
X106600D01*
X106000Y43400D02*
Y44600D01*
X110400Y44000D02*
X111600D01*
X111000Y43400D02*
Y44600D01*
X115400Y45000D02*
X116600D01*
X116000Y44400D02*
Y45600D01*
X119400Y47500D02*
X120600D01*
X120000Y46900D02*
Y48100D01*
X123900Y56500D02*
X125100D01*
X124500Y55900D02*
Y57100D01*
X123900Y66500D02*
X125100D01*
X124500Y65900D02*
Y67100D01*
X123900Y61500D02*
X125100D01*
X124500Y60900D02*
Y62100D01*
X122400Y51500D02*
X123600D01*
X123000Y50900D02*
Y52100D01*
X126400Y70000D02*
X127600D01*
X127000Y69400D02*
Y70600D01*
X129400Y73500D02*
X130600D01*
X130000Y72900D02*
Y74100D01*
X131900Y77000D02*
X133100D01*
X132500Y76400D02*
Y77600D01*
X137400Y74200D02*
X138600D01*
X138000Y73600D02*
Y74800D01*
X142400Y74200D02*
X143600D01*
X143000Y73600D02*
Y74800D01*
X147400Y74200D02*
X148600D01*
X148000Y73600D02*
Y74800D01*
X152400Y74200D02*
X153600D01*
X153000Y73600D02*
Y74800D01*
X152400Y85800D02*
X153600D01*
X153000Y85200D02*
Y86400D01*
X147400Y85800D02*
X148600D01*
X148000Y85200D02*
Y86400D01*
X142400Y85800D02*
X143600D01*
X143000Y85200D02*
Y86400D01*
X137400Y85800D02*
X138600D01*
X138000Y85200D02*
Y86400D01*
X131900Y83000D02*
X133100D01*
X132500Y82400D02*
Y83600D01*
X129400Y86500D02*
X130600D01*
X130000Y85900D02*
Y87100D01*
X126400Y90000D02*
X127600D01*
X127000Y89400D02*
Y90600D01*
X122400Y108500D02*
X123600D01*
X123000Y107900D02*
Y109100D01*
X123900Y98500D02*
X125100D01*
X124500Y97900D02*
Y99100D01*
X123900Y93500D02*
X125100D01*
X124500Y92900D02*
Y94100D01*
X123900Y103500D02*
X125100D01*
X124500Y102900D02*
Y104100D01*
X119400Y112500D02*
X120600D01*
X120000Y111900D02*
Y113100D01*
X115400Y115000D02*
X116600D01*
X116000Y114400D02*
Y115600D01*
X110400Y116000D02*
X111600D01*
X111000Y115400D02*
Y116600D01*
X105400Y116000D02*
X106600D01*
X106000Y115400D02*
Y116600D01*
X100400Y116000D02*
X101600D01*
X101000Y115400D02*
Y116600D01*
X86400Y38500D02*
X87600D01*
X87000Y37900D02*
Y39100D01*
X82400Y36000D02*
X83600D01*
X83000Y35400D02*
Y36600D01*
X67400Y33500D02*
X68600D01*
X68000Y32900D02*
Y34100D01*
X71900Y34000D02*
X73100D01*
X72500Y33400D02*
Y34600D01*
X78400Y34000D02*
X79600D01*
X79000Y33400D02*
Y34600D01*
X44400Y38500D02*
X45600D01*
X45000Y37900D02*
Y39100D01*
X48400Y36000D02*
X49600D01*
X49000Y35400D02*
Y36600D01*
X63400Y33500D02*
X64600D01*
X64000Y32900D02*
Y34100D01*
X58400Y34000D02*
X59600D01*
X59000Y33400D02*
Y34600D01*
X52400Y34000D02*
X53600D01*
X53000Y33400D02*
Y34600D01*
X86400Y56500D02*
X87600D01*
X87000Y55900D02*
Y57100D01*
X82400Y59000D02*
X83600D01*
X83000Y58400D02*
Y59600D01*
X67400Y61500D02*
X68600D01*
X68000Y60900D02*
Y62100D01*
X71900Y60500D02*
X73100D01*
X72500Y59900D02*
Y61100D01*
X78400Y61000D02*
X79600D01*
X79000Y60400D02*
Y61600D01*
X52400Y61000D02*
X53600D01*
X53000Y60400D02*
Y61600D01*
X58900Y60500D02*
X60100D01*
X59500Y59900D02*
Y61100D01*
X63400Y61500D02*
X64600D01*
X64000Y60900D02*
Y62100D01*
X48400Y59000D02*
X49600D01*
X49000Y58400D02*
Y59600D01*
X44400Y56500D02*
X45600D01*
X45000Y55900D02*
Y57100D01*
X40900Y54000D02*
X42100D01*
X41500Y53400D02*
Y54600D01*
X42900Y64500D02*
X44100D01*
X43500Y63900D02*
Y65100D01*
X48400Y66500D02*
X49600D01*
X49000Y65900D02*
Y67100D01*
X63400Y65500D02*
X64600D01*
X64000Y64900D02*
Y66100D01*
X53400Y66500D02*
X54600D01*
X54000Y65900D02*
Y67100D01*
X58400Y66500D02*
X59600D01*
X59000Y65900D02*
Y67100D01*
X72400Y66500D02*
X73600D01*
X73000Y65900D02*
Y67100D01*
X77400Y66500D02*
X78600D01*
X78000Y65900D02*
Y67100D01*
X67400Y65500D02*
X68600D01*
X68000Y64900D02*
Y66100D01*
X82400Y66500D02*
X83600D01*
X83000Y65900D02*
Y67100D01*
X87900Y64500D02*
X89100D01*
X88500Y63900D02*
Y65100D01*
X89900Y59000D02*
X91100D01*
X90500Y58400D02*
Y59600D01*
X89900Y54000D02*
X91100D01*
X90500Y53400D02*
Y54600D01*
X99900Y54000D02*
X101100D01*
X100500Y53400D02*
Y54600D01*
X89900Y41000D02*
X91100D01*
X90500Y40400D02*
Y41600D01*
X89900Y36000D02*
X91100D01*
X90500Y35400D02*
Y36600D01*
X87900Y30500D02*
X89100D01*
X88500Y29900D02*
Y31100D01*
X82400Y28500D02*
X83600D01*
X83000Y27900D02*
Y29100D01*
X67400Y29500D02*
X68600D01*
X68000Y28900D02*
Y30100D01*
X77400Y28500D02*
X78600D01*
X78000Y27900D02*
Y29100D01*
X72400Y28500D02*
X73600D01*
X73000Y27900D02*
Y29100D01*
X58400Y28500D02*
X59600D01*
X59000Y27900D02*
Y29100D01*
X53400Y28500D02*
X54600D01*
X54000Y27900D02*
Y29100D01*
X63400Y29500D02*
X64600D01*
X64000Y28900D02*
Y30100D01*
X48400Y28500D02*
X49600D01*
X49000Y27900D02*
Y29100D01*
X42900Y30500D02*
X44100D01*
X43500Y29900D02*
Y31100D01*
X40900Y41000D02*
X42100D01*
X41500Y40400D02*
Y41600D01*
X50400Y43000D02*
X51600D01*
X51000Y42400D02*
Y43600D01*
X55400Y42000D02*
X56600D01*
X56000Y41400D02*
Y42600D01*
X60400Y42800D02*
X61600D01*
X61000Y42200D02*
Y43400D01*
X65400Y42800D02*
X66600D01*
X66000Y42200D02*
Y43400D01*
X70400Y42800D02*
X71600D01*
X71000Y42200D02*
Y43400D01*
X75400Y42000D02*
X76600D01*
X76000Y41400D02*
Y42600D01*
X80400Y43000D02*
X81600D01*
X81000Y42400D02*
Y43600D01*
X80400Y52000D02*
X81600D01*
X81000Y51400D02*
Y52600D01*
X75400Y53000D02*
X76600D01*
X76000Y52400D02*
Y53600D01*
X70400Y52200D02*
X71600D01*
X71000Y51600D02*
Y52800D01*
X65400Y52200D02*
X66600D01*
X66000Y51600D02*
Y52800D01*
X60400Y52200D02*
X61600D01*
X61000Y51600D02*
Y52800D01*
X55400Y53000D02*
X56600D01*
X56000Y52400D02*
Y53600D01*
X50400Y52000D02*
X51600D01*
X51000Y51400D02*
Y52600D01*
X72400Y88000D02*
X73600D01*
X73000Y87400D02*
Y88600D01*
X77400Y88000D02*
X78600D01*
X78000Y87400D02*
Y88600D01*
X82400Y88000D02*
X83600D01*
X83000Y87400D02*
Y88600D01*
X50400Y117000D02*
X51600D01*
X51000Y116400D02*
Y117600D01*
X55400Y118000D02*
X56600D01*
X56000Y117400D02*
Y118600D01*
X60400Y117200D02*
X61600D01*
X61000Y116600D02*
Y117800D01*
X65400Y117200D02*
X66600D01*
X66000Y116600D02*
Y117800D01*
X70400Y117200D02*
X71600D01*
X71000Y116600D02*
Y117800D01*
X75400Y118000D02*
X76600D01*
X76000Y117400D02*
Y118600D01*
X80400Y117000D02*
X81600D01*
X81000Y116400D02*
Y117600D01*
X80400Y108000D02*
X81600D01*
X81000Y107400D02*
Y108600D01*
X75400Y107000D02*
X76600D01*
X76000Y106400D02*
Y107600D01*
X70400Y107800D02*
X71600D01*
X71000Y107200D02*
Y108400D01*
X65400Y107800D02*
X66600D01*
X66000Y107200D02*
Y108400D01*
X60400Y107800D02*
X61600D01*
X61000Y107200D02*
Y108400D01*
X55400Y107000D02*
X56600D01*
X56000Y106400D02*
Y107600D01*
X50400Y108000D02*
X51600D01*
X51000Y107400D02*
Y108600D01*
X31400Y106000D02*
X32600D01*
X32000Y105400D02*
Y106600D01*
X28900Y93500D02*
X30100D01*
X29500Y92900D02*
Y94100D01*
X31847Y96506D02*
X33047D01*
X32447Y95906D02*
Y97106D01*
X33900Y104000D02*
X35100D01*
X34500Y103400D02*
Y104600D01*
X33900Y99000D02*
X35100D01*
X34500Y98400D02*
Y99600D01*
X40900Y106000D02*
X42100D01*
X41500Y105400D02*
Y106600D01*
X40900Y101000D02*
X42100D01*
X41500Y100400D02*
Y101600D01*
X43400Y96500D02*
X44600D01*
X44000Y95900D02*
Y97100D01*
X48400Y95000D02*
X49600D01*
X49000Y94400D02*
Y95600D01*
X53400Y95000D02*
X54600D01*
X54000Y94400D02*
Y95600D01*
X58400Y95000D02*
X59600D01*
X59000Y94400D02*
Y95600D01*
X63400Y96000D02*
X64600D01*
X64000Y95400D02*
Y96600D01*
X67400Y96000D02*
X68600D01*
X68000Y95400D02*
Y96600D01*
X72400Y95700D02*
X73600D01*
X73000Y95100D02*
Y96300D01*
X77400Y95700D02*
X78600D01*
X78000Y95100D02*
Y96300D01*
X82400Y95000D02*
X83600D01*
X83000Y94400D02*
Y95600D01*
X87400Y96500D02*
X88600D01*
X88000Y95900D02*
Y97100D01*
X63400Y87000D02*
X64600D01*
X64000Y86400D02*
Y87600D01*
X58400Y88000D02*
X59600D01*
X59000Y87400D02*
Y88600D01*
X53400Y88000D02*
X54600D01*
X54000Y87400D02*
Y88600D01*
X48400Y88000D02*
X49600D01*
X49000Y87400D02*
Y88600D01*
X42900Y88700D02*
X44100D01*
X43500Y88100D02*
Y89300D01*
X38900Y91000D02*
X40100D01*
X39500Y90400D02*
Y91600D01*
X35900Y94500D02*
X37100D01*
X36500Y93900D02*
Y95100D01*
X96900Y104000D02*
X98100D01*
X97500Y103400D02*
Y104600D01*
X87900Y88700D02*
X89100D01*
X88500Y88100D02*
Y89300D01*
X67400Y87000D02*
X68600D01*
X68000Y86400D02*
Y87600D01*
X91900Y90500D02*
X93100D01*
X92500Y89900D02*
Y91100D01*
X96900Y99000D02*
X98100D01*
X97500Y98400D02*
Y99600D01*
X95400Y95500D02*
X96600D01*
X96000Y94900D02*
Y96100D01*
X87400Y101000D02*
X88600D01*
X88000Y100400D02*
Y101600D01*
X87400Y104500D02*
X88600D01*
X88000Y103900D02*
Y105100D01*
X83400Y101504D02*
X84600D01*
X84000Y100904D02*
Y102104D01*
X67400Y99000D02*
X68600D01*
X68000Y98400D02*
Y99600D01*
X63400Y99000D02*
X64600D01*
X64000Y98400D02*
Y99600D01*
X78900Y100000D02*
X80100D01*
X79500Y99400D02*
Y100600D01*
X49400Y100500D02*
X50600D01*
X50000Y99900D02*
Y101100D01*
X44900Y103000D02*
X46100D01*
X45500Y102400D02*
Y103600D01*
X58400Y100000D02*
X59600D01*
X59000Y99400D02*
Y100600D01*
X71900Y100000D02*
X73100D01*
X72500Y99400D02*
Y100600D01*
X71900Y125000D02*
X73100D01*
X72500Y124400D02*
Y125600D01*
X58400Y125000D02*
X59600D01*
X59000Y124400D02*
Y125600D01*
X44900Y122000D02*
X46100D01*
X45500Y121400D02*
Y122600D01*
X49400Y124500D02*
X50600D01*
X50000Y123900D02*
Y125100D01*
X78900Y125000D02*
X80100D01*
X79500Y124400D02*
Y125600D01*
X63400Y126000D02*
X64600D01*
X64000Y125400D02*
Y126600D01*
X67400Y126000D02*
X68600D01*
X68000Y125400D02*
Y126600D01*
X83400Y123496D02*
X84600D01*
X84000Y122896D02*
Y124096D01*
X87400Y120500D02*
X88600D01*
X88000Y119900D02*
Y121100D01*
X87400Y124000D02*
X88600D01*
X88000Y123400D02*
Y124600D01*
X95400Y129500D02*
X96600D01*
X96000Y128900D02*
Y130100D01*
X96900Y126000D02*
X98100D01*
X97500Y125400D02*
Y126600D01*
X91900Y134500D02*
X93100D01*
X92500Y133900D02*
Y135100D01*
X101900Y121500D02*
X103100D01*
X102500Y120900D02*
Y122100D01*
X67400Y138000D02*
X68600D01*
X68000Y137400D02*
Y138600D01*
X72400Y137700D02*
X73600D01*
X73000Y137100D02*
Y138300D01*
X77400Y137700D02*
X78600D01*
X78000Y137100D02*
Y138300D01*
X82400Y137000D02*
X83600D01*
X83000Y136400D02*
Y137600D01*
X87900Y136300D02*
X89100D01*
X88500Y135700D02*
Y136900D01*
X96900Y121000D02*
X98100D01*
X97500Y120400D02*
Y121600D01*
X35900Y130500D02*
X37100D01*
X36500Y129900D02*
Y131100D01*
X33900Y126000D02*
X35100D01*
X34500Y125400D02*
Y126600D01*
X33900Y121000D02*
X35100D01*
X34500Y120400D02*
Y121600D01*
X28400Y146000D02*
X29600D01*
X29000Y145400D02*
Y146600D01*
X30900Y123000D02*
X32100D01*
X31500Y122400D02*
Y123600D01*
X30900Y149000D02*
X32100D01*
X31500Y148400D02*
Y149600D01*
X38900Y134000D02*
X40100D01*
X39500Y133400D02*
Y134600D01*
X42900Y136300D02*
X44100D01*
X43500Y135700D02*
Y136900D01*
X48400Y137000D02*
X49600D01*
X49000Y136400D02*
Y137600D01*
X53400Y137700D02*
X54600D01*
X54000Y137100D02*
Y138300D01*
X58400Y137700D02*
X59600D01*
X59000Y137100D02*
Y138300D01*
X63400Y138000D02*
X64600D01*
X64000Y137400D02*
Y138600D01*
X87400Y128500D02*
X88600D01*
X88000Y127900D02*
Y129100D01*
X82400Y130000D02*
X83600D01*
X83000Y129400D02*
Y130600D01*
X77400Y129300D02*
X78600D01*
X78000Y128700D02*
Y129900D01*
X72400Y129300D02*
X73600D01*
X73000Y128700D02*
Y129900D01*
X67400Y129000D02*
X68600D01*
X68000Y128400D02*
Y129600D01*
X63400Y129000D02*
X64600D01*
X64000Y128400D02*
Y129600D01*
X58400Y129300D02*
X59600D01*
X59000Y128700D02*
Y129900D01*
X53400Y129300D02*
X54600D01*
X54000Y128700D02*
Y129900D01*
X48400Y130000D02*
X49600D01*
X49000Y129400D02*
Y130600D01*
X43400Y128500D02*
X44600D01*
X44000Y127900D02*
Y129100D01*
X40900Y124000D02*
X42100D01*
X41500Y123400D02*
Y124600D01*
X40900Y119000D02*
X42100D01*
X41500Y118400D02*
Y119600D01*
X115400Y28000D02*
X116600D01*
X116000Y27400D02*
Y28600D01*
X115400Y33000D02*
X116600D01*
X116000Y32400D02*
Y33600D01*
X114900Y132000D02*
X116100D01*
X115500Y131400D02*
Y132600D01*
X114900Y127000D02*
X116100D01*
X115500Y126400D02*
Y127600D01*
X142400Y154500D02*
X143600D01*
X143000Y153900D02*
Y155100D01*
X5900Y154500D02*
X7100D01*
X6500Y153900D02*
Y155100D01*
X8400Y152000D02*
X9600D01*
X9000Y151400D02*
Y152600D01*
X7900Y96000D02*
X9100D01*
X8500Y95400D02*
Y96600D01*
X5400Y13000D02*
X6600D01*
X6000Y12400D02*
Y13600D01*
X30900Y5800D02*
X32100D01*
X31500Y5200D02*
Y6400D01*
X7900Y8000D02*
X9100D01*
X8500Y7400D02*
Y8600D01*
X102400Y69500D02*
X103600D01*
X103000Y68900D02*
Y70100D01*
X96900Y86500D02*
X98100D01*
X97500Y85900D02*
Y87100D01*
X96900Y80000D02*
X98100D01*
X97500Y79400D02*
Y80600D01*
X83400Y46713D02*
X84600D01*
X84000Y46113D02*
Y47313D01*
X80733Y48086D02*
X81933D01*
X81333Y47486D02*
Y48686D01*
X47400Y46713D02*
X48600D01*
X48000Y46113D02*
Y47313D01*
X50067Y48086D02*
X51267D01*
X50667Y47486D02*
Y48686D01*
X5400Y66500D02*
X6600D01*
X6000Y65900D02*
Y67100D01*
X5400Y93500D02*
X6600D01*
X6000Y92900D02*
Y94100D01*
X50067Y111914D02*
X51267D01*
X50667Y111314D02*
Y112514D01*
X47400Y113287D02*
X48600D01*
X48000Y112687D02*
Y113887D01*
X99900Y106000D02*
X101100D01*
X100500Y105400D02*
Y106600D01*
X80733Y111914D02*
X81933D01*
X81333Y111314D02*
Y112514D01*
X83400Y113287D02*
X84600D01*
X84000Y112687D02*
Y113887D01*
M02*
