G04*
G04 #@! TF.GenerationSoftware,Altium Limited,Altium Designer,24.4.1 (13)*
G04*
G04 Layer_Color=2752767*
%FSLAX25Y25*%
%MOIN*%
G70*
G04*
G04 #@! TF.SameCoordinates,8584FE8A-8FE8-497F-BE15-97A27C2B3E29*
G04*
G04*
G04 #@! TF.FilePolarity,Positive*
G04*
G01*
G75*
%ADD10C,0.00500*%
%ADD49C,0.00667*%
D10*
X119610Y18500D02*
X117610Y22500D01*
X121610D01*
X119610Y18500D01*
X17110Y140000D02*
X15110Y144000D01*
X19110D01*
X17110Y140000D01*
X25500Y83000D02*
Y87000D01*
X29500D01*
Y83000D01*
X25500D01*
X15500D02*
Y87000D01*
X19500D01*
Y83000D01*
X15500D01*
Y73000D02*
Y77000D01*
X19500D01*
Y73000D01*
X15500D01*
X25500D02*
Y77000D01*
X29500D01*
Y73000D01*
X25500D01*
X131500Y119500D02*
Y123500D01*
X135500D01*
Y119500D01*
X131500D01*
X141500D02*
Y123500D01*
X145500D01*
Y119500D01*
X141500D01*
Y109500D02*
Y113500D01*
X145500D01*
Y109500D01*
X141500D01*
X131500D02*
Y113500D01*
X135500D01*
Y109500D01*
X131500D01*
X141500Y129500D02*
Y133500D01*
X145500D01*
Y129500D01*
X141500D01*
X131500D02*
Y133500D01*
X135500D01*
Y129500D01*
X131500D01*
X141500Y26500D02*
Y30500D01*
X145500D01*
Y26500D01*
X141500D01*
X131500D02*
Y30500D01*
X135500D01*
Y26500D01*
X131500D01*
X141500Y46500D02*
Y50500D01*
X145500D01*
Y46500D01*
X141500D01*
X131500D02*
Y50500D01*
X135500D01*
Y46500D01*
X131500D01*
Y36500D02*
Y40500D01*
X135500D01*
Y36500D01*
X131500D01*
X141500D02*
Y40500D01*
X145500D01*
Y36500D01*
X141500D01*
D49*
X123000Y79500D02*
G03*
X123000Y79500I-2000J0D01*
G01*
X132428Y138768D02*
G03*
X132428Y138768I-2000J0D01*
G01*
X129956Y134282D02*
G03*
X129956Y134282I-2000J0D01*
G01*
X124956D02*
G03*
X124956Y134282I-2000J0D01*
G01*
X119956D02*
G03*
X119956Y134282I-2000J0D01*
G01*
X114956Y129281D02*
G03*
X114956Y129281I-2000J0D01*
G01*
X109956Y124282D02*
G03*
X109956Y124282I-2000J0D01*
G01*
X114956D02*
G03*
X114956Y124282I-2000J0D01*
G01*
X119956D02*
G03*
X119956Y124282I-2000J0D01*
G01*
X124956D02*
G03*
X124956Y124282I-2000J0D01*
G01*
X129956D02*
G03*
X129956Y124282I-2000J0D01*
G01*
X32519Y43624D02*
G03*
X32519Y43624I-2000J0D01*
G01*
X28000Y40000D02*
G03*
X28000Y40000I-2000J0D01*
G01*
X23000D02*
G03*
X23000Y40000I-2000J0D01*
G01*
X18000D02*
G03*
X18000Y40000I-2000J0D01*
G01*
X13000D02*
G03*
X13000Y40000I-2000J0D01*
G01*
Y35000D02*
G03*
X13000Y35000I-2000J0D01*
G01*
Y30000D02*
G03*
X13000Y30000I-2000J0D01*
G01*
Y25000D02*
G03*
X13000Y25000I-2000J0D01*
G01*
Y20000D02*
G03*
X13000Y20000I-2000J0D01*
G01*
X16363Y15559D02*
G03*
X16363Y15559I-2000J0D01*
G01*
X21362D02*
G03*
X21362Y15559I-2000J0D01*
G01*
X26362D02*
G03*
X26362Y15559I-2000J0D01*
G01*
X129465Y51209D02*
G03*
X129465Y51209I-2000J0D01*
G01*
Y46209D02*
G03*
X129465Y46209I-2000J0D01*
G01*
Y41209D02*
G03*
X129465Y41209I-2000J0D01*
G01*
X126363Y35559D02*
G03*
X126363Y35559I-2000J0D01*
G01*
X121362D02*
G03*
X121362Y35559I-2000J0D01*
G01*
X116363D02*
G03*
X116363Y35559I-2000J0D01*
G01*
X111363Y30559D02*
G03*
X111363Y30559I-2000J0D01*
G01*
Y25559D02*
G03*
X111363Y25559I-2000J0D01*
G01*
Y20559D02*
G03*
X111363Y20559I-2000J0D01*
G01*
Y15559D02*
G03*
X111363Y15559I-2000J0D01*
G01*
X106362D02*
G03*
X106362Y15559I-2000J0D01*
G01*
X101363D02*
G03*
X101363Y15559I-2000J0D01*
G01*
X96363D02*
G03*
X96363Y15559I-2000J0D01*
G01*
X91363D02*
G03*
X91363Y15559I-2000J0D01*
G01*
X86362D02*
G03*
X86362Y15559I-2000J0D01*
G01*
X81362D02*
G03*
X81362Y15559I-2000J0D01*
G01*
X76363D02*
G03*
X76363Y15559I-2000J0D01*
G01*
X71363D02*
G03*
X71363Y15559I-2000J0D01*
G01*
X66363D02*
G03*
X66363Y15559I-2000J0D01*
G01*
X61362D02*
G03*
X61362Y15559I-2000J0D01*
G01*
X56362D02*
G03*
X56362Y15559I-2000J0D01*
G01*
X51363D02*
G03*
X51363Y15559I-2000J0D01*
G01*
X46363D02*
G03*
X46363Y15559I-2000J0D01*
G01*
X41363D02*
G03*
X41363Y15559I-2000J0D01*
G01*
X36362D02*
G03*
X36362Y15559I-2000J0D01*
G01*
X26675Y61594D02*
G03*
X26675Y61594I-2000J0D01*
G01*
X21675D02*
G03*
X21675Y61594I-2000J0D01*
G01*
X16675D02*
G03*
X16675Y61594I-2000J0D01*
G01*
X13000Y60000D02*
G03*
X13000Y60000I-2000J0D01*
G01*
Y55000D02*
G03*
X13000Y55000I-2000J0D01*
G01*
X33500Y51000D02*
G03*
X33500Y51000I-2000J0D01*
G01*
X30500Y53000D02*
G03*
X30500Y53000I-2000J0D01*
G01*
X15500D02*
G03*
X15500Y53000I-2000J0D01*
G01*
X25500D02*
G03*
X25500Y53000I-2000J0D01*
G01*
X20500D02*
G03*
X20500Y53000I-2000J0D01*
G01*
X27700Y100000D02*
G03*
X27700Y100000I-2000J0D01*
G01*
X22700D02*
G03*
X22700Y100000I-2000J0D01*
G01*
X17700D02*
G03*
X17700Y100000I-2000J0D01*
G01*
X12700D02*
G03*
X12700Y100000I-2000J0D01*
G01*
Y105000D02*
G03*
X12700Y105000I-2000J0D01*
G01*
X20610Y107000D02*
G03*
X20610Y107000I-2000J0D01*
G01*
X15610D02*
G03*
X15610Y107000I-2000J0D01*
G01*
X25610D02*
G03*
X25610Y107000I-2000J0D01*
G01*
X12700Y130000D02*
G03*
X12700Y130000I-2000J0D01*
G01*
Y125000D02*
G03*
X12700Y125000I-2000J0D01*
G01*
X33610Y116000D02*
G03*
X33610Y116000I-2000J0D01*
G01*
X12700Y120000D02*
G03*
X12700Y120000I-2000J0D01*
G01*
X25610Y118000D02*
G03*
X25610Y118000I-2000J0D01*
G01*
X30610D02*
G03*
X30610Y118000I-2000J0D01*
G01*
X15610D02*
G03*
X15610Y118000I-2000J0D01*
G01*
X20610D02*
G03*
X20610Y118000I-2000J0D01*
G01*
X151500Y56500D02*
G03*
X151500Y56500I-2000J0D01*
G01*
X146500D02*
G03*
X146500Y56500I-2000J0D01*
G01*
X141500D02*
G03*
X141500Y56500I-2000J0D01*
G01*
X136500D02*
G03*
X136500Y56500I-2000J0D01*
G01*
X17052Y133073D02*
G03*
X17052Y133073I-2000J0D01*
G01*
X22052D02*
G03*
X22052Y133073I-2000J0D01*
G01*
X27052Y138073D02*
G03*
X27052Y138073I-2000J0D01*
G01*
Y148073D02*
G03*
X27052Y148073I-2000J0D01*
G01*
X37052Y143073D02*
G03*
X37052Y143073I-2000J0D01*
G01*
X42052D02*
G03*
X42052Y143073I-2000J0D01*
G01*
X47052D02*
G03*
X47052Y143073I-2000J0D01*
G01*
X52052D02*
G03*
X52052Y143073I-2000J0D01*
G01*
X57052D02*
G03*
X57052Y143073I-2000J0D01*
G01*
X62052D02*
G03*
X62052Y143073I-2000J0D01*
G01*
X67052D02*
G03*
X67052Y143073I-2000J0D01*
G01*
X77052D02*
G03*
X77052Y143073I-2000J0D01*
G01*
X72052D02*
G03*
X72052Y143073I-2000J0D01*
G01*
X82052D02*
G03*
X82052Y143073I-2000J0D01*
G01*
X87052D02*
G03*
X87052Y143073I-2000J0D01*
G01*
X92052D02*
G03*
X92052Y143073I-2000J0D01*
G01*
X97052D02*
G03*
X97052Y143073I-2000J0D01*
G01*
X102052D02*
G03*
X102052Y143073I-2000J0D01*
G01*
X107052D02*
G03*
X107052Y143073I-2000J0D01*
G01*
X112052D02*
G03*
X112052Y143073I-2000J0D01*
G01*
X117052D02*
G03*
X117052Y143073I-2000J0D01*
G01*
X122052D02*
G03*
X122052Y143073I-2000J0D01*
G01*
X127052D02*
G03*
X127052Y143073I-2000J0D01*
G01*
X132052D02*
G03*
X132052Y143073I-2000J0D01*
G01*
X142696Y141491D02*
G03*
X142696Y141491I-2000J0D01*
G01*
X139109Y137235D02*
G03*
X139109Y137235I-2000J0D01*
G01*
X139000Y145500D02*
G03*
X139000Y145500I-2000J0D01*
G01*
X151500Y103500D02*
G03*
X151500Y103500I-2000J0D01*
G01*
X146500D02*
G03*
X146500Y103500I-2000J0D01*
G01*
X141500D02*
G03*
X141500Y103500I-2000J0D01*
G01*
X136500D02*
G03*
X136500Y103500I-2000J0D01*
G01*
X131500D02*
G03*
X131500Y103500I-2000J0D01*
G01*
Y56500D02*
G03*
X131500Y56500I-2000J0D01*
G01*
X140413Y17978D02*
G03*
X140413Y17978I-2000J0D01*
G01*
X131413Y19478D02*
G03*
X131413Y19478I-2000J0D01*
G01*
X23413Y10478D02*
G03*
X23413Y10478I-2000J0D01*
G01*
X151413Y156978D02*
G03*
X151413Y156978I-2000J0D01*
G01*
X147402Y156795D02*
G03*
X147402Y156795I-2000J0D01*
G01*
X141413Y156978D02*
G03*
X141413Y156978I-2000J0D01*
G01*
X136413D02*
G03*
X136413Y156978I-2000J0D01*
G01*
X131413D02*
G03*
X131413Y156978I-2000J0D01*
G01*
X126413D02*
G03*
X126413Y156978I-2000J0D01*
G01*
X121413D02*
G03*
X121413Y156978I-2000J0D01*
G01*
X116413D02*
G03*
X116413Y156978I-2000J0D01*
G01*
X111413D02*
G03*
X111413Y156978I-2000J0D01*
G01*
X106413D02*
G03*
X106413Y156978I-2000J0D01*
G01*
X101413D02*
G03*
X101413Y156978I-2000J0D01*
G01*
X96413D02*
G03*
X96413Y156978I-2000J0D01*
G01*
X91413D02*
G03*
X91413Y156978I-2000J0D01*
G01*
X86413D02*
G03*
X86413Y156978I-2000J0D01*
G01*
X81413D02*
G03*
X81413Y156978I-2000J0D01*
G01*
X76413D02*
G03*
X76413Y156978I-2000J0D01*
G01*
X71413D02*
G03*
X71413Y156978I-2000J0D01*
G01*
X66413D02*
G03*
X66413Y156978I-2000J0D01*
G01*
X61413D02*
G03*
X61413Y156978I-2000J0D01*
G01*
X56413D02*
G03*
X56413Y156978I-2000J0D01*
G01*
X51413D02*
G03*
X51413Y156978I-2000J0D01*
G01*
X46413D02*
G03*
X46413Y156978I-2000J0D01*
G01*
X41413D02*
G03*
X41413Y156978I-2000J0D01*
G01*
X36413D02*
G03*
X36413Y156978I-2000J0D01*
G01*
X31413D02*
G03*
X31413Y156978I-2000J0D01*
G01*
X26413D02*
G03*
X26413Y156978I-2000J0D01*
G01*
X21413D02*
G03*
X21413Y156978I-2000J0D01*
G01*
X16413D02*
G03*
X16413Y156978I-2000J0D01*
G01*
X11413D02*
G03*
X11413Y156978I-2000J0D01*
G01*
X4867Y155543D02*
G03*
X4867Y155543I-2000J0D01*
G01*
Y150543D02*
G03*
X4867Y150543I-2000J0D01*
G01*
Y145543D02*
G03*
X4867Y145543I-2000J0D01*
G01*
Y140543D02*
G03*
X4867Y140543I-2000J0D01*
G01*
X4867Y135859D02*
G03*
X4867Y135859I-2000J0D01*
G01*
X4867Y130543D02*
G03*
X4867Y130543I-2000J0D01*
G01*
Y125543D02*
G03*
X4867Y125543I-2000J0D01*
G01*
Y120543D02*
G03*
X4867Y120543I-2000J0D01*
G01*
Y115543D02*
G03*
X4867Y115543I-2000J0D01*
G01*
Y110543D02*
G03*
X4867Y110543I-2000J0D01*
G01*
Y105543D02*
G03*
X4867Y105543I-2000J0D01*
G01*
Y100543D02*
G03*
X4867Y100543I-2000J0D01*
G01*
Y95543D02*
G03*
X4867Y95543I-2000J0D01*
G01*
Y90543D02*
G03*
X4867Y90543I-2000J0D01*
G01*
Y85011D02*
G03*
X4867Y85011I-2000J0D01*
G01*
Y80543D02*
G03*
X4867Y80543I-2000J0D01*
G01*
Y75543D02*
G03*
X4867Y75543I-2000J0D01*
G01*
Y70543D02*
G03*
X4867Y70543I-2000J0D01*
G01*
Y65543D02*
G03*
X4867Y65543I-2000J0D01*
G01*
Y60543D02*
G03*
X4867Y60543I-2000J0D01*
G01*
Y55543D02*
G03*
X4867Y55543I-2000J0D01*
G01*
Y50543D02*
G03*
X4867Y50543I-2000J0D01*
G01*
Y45543D02*
G03*
X4867Y45543I-2000J0D01*
G01*
Y40543D02*
G03*
X4867Y40543I-2000J0D01*
G01*
Y35543D02*
G03*
X4867Y35543I-2000J0D01*
G01*
Y30543D02*
G03*
X4867Y30543I-2000J0D01*
G01*
Y25543D02*
G03*
X4867Y25543I-2000J0D01*
G01*
Y20543D02*
G03*
X4867Y20543I-2000J0D01*
G01*
Y15543D02*
G03*
X4867Y15543I-2000J0D01*
G01*
Y10543D02*
G03*
X4867Y10543I-2000J0D01*
G01*
Y5543D02*
G03*
X4867Y5543I-2000J0D01*
G01*
X7500Y3000D02*
G03*
X7500Y3000I-2000J0D01*
G01*
X12500D02*
G03*
X12500Y3000I-2000J0D01*
G01*
X17500D02*
G03*
X17500Y3000I-2000J0D01*
G01*
X22500D02*
G03*
X22500Y3000I-2000J0D01*
G01*
X27500D02*
G03*
X27500Y3000I-2000J0D01*
G01*
X32339Y2850D02*
G03*
X32339Y2850I-2000J0D01*
G01*
X37500Y3000D02*
G03*
X37500Y3000I-2000J0D01*
G01*
X42500D02*
G03*
X42500Y3000I-2000J0D01*
G01*
X47500D02*
G03*
X47500Y3000I-2000J0D01*
G01*
X52500D02*
G03*
X52500Y3000I-2000J0D01*
G01*
X57500D02*
G03*
X57500Y3000I-2000J0D01*
G01*
X62500D02*
G03*
X62500Y3000I-2000J0D01*
G01*
X67500D02*
G03*
X67500Y3000I-2000J0D01*
G01*
X72500D02*
G03*
X72500Y3000I-2000J0D01*
G01*
X77500D02*
G03*
X77500Y3000I-2000J0D01*
G01*
X82500D02*
G03*
X82500Y3000I-2000J0D01*
G01*
X87500D02*
G03*
X87500Y3000I-2000J0D01*
G01*
X92500D02*
G03*
X92500Y3000I-2000J0D01*
G01*
X97500D02*
G03*
X97500Y3000I-2000J0D01*
G01*
X102500D02*
G03*
X102500Y3000I-2000J0D01*
G01*
X107500D02*
G03*
X107500Y3000I-2000J0D01*
G01*
X112500D02*
G03*
X112500Y3000I-2000J0D01*
G01*
X117500D02*
G03*
X117500Y3000I-2000J0D01*
G01*
X122500D02*
G03*
X122500Y3000I-2000J0D01*
G01*
X127500D02*
G03*
X127500Y3000I-2000J0D01*
G01*
X132500D02*
G03*
X132500Y3000I-2000J0D01*
G01*
X137500D02*
G03*
X137500Y3000I-2000J0D01*
G01*
X142500D02*
G03*
X142500Y3000I-2000J0D01*
G01*
X147500D02*
G03*
X147500Y3000I-2000J0D01*
G01*
X152500D02*
G03*
X152500Y3000I-2000J0D01*
G01*
X156000Y98500D02*
G03*
X156000Y98500I-2000J0D01*
G01*
Y4500D02*
G03*
X156000Y4500I-2000J0D01*
G01*
Y59500D02*
G03*
X156000Y59500I-2000J0D01*
G01*
Y123500D02*
G03*
X156000Y123500I-2000J0D01*
G01*
Y29500D02*
G03*
X156000Y29500I-2000J0D01*
G01*
Y49500D02*
G03*
X156000Y49500I-2000J0D01*
G01*
Y118500D02*
G03*
X156000Y118500I-2000J0D01*
G01*
Y24500D02*
G03*
X156000Y24500I-2000J0D01*
G01*
Y103500D02*
G03*
X156000Y103500I-2000J0D01*
G01*
Y128500D02*
G03*
X156000Y128500I-2000J0D01*
G01*
Y108500D02*
G03*
X156000Y108500I-2000J0D01*
G01*
Y69500D02*
G03*
X156000Y69500I-2000J0D01*
G01*
Y138500D02*
G03*
X156000Y138500I-2000J0D01*
G01*
Y88500D02*
G03*
X156000Y88500I-2000J0D01*
G01*
Y143500D02*
G03*
X156000Y143500I-2000J0D01*
G01*
Y39500D02*
G03*
X156000Y39500I-2000J0D01*
G01*
Y148500D02*
G03*
X156000Y148500I-2000J0D01*
G01*
Y153500D02*
G03*
X156000Y153500I-2000J0D01*
G01*
Y34500D02*
G03*
X156000Y34500I-2000J0D01*
G01*
Y9500D02*
G03*
X156000Y9500I-2000J0D01*
G01*
Y19500D02*
G03*
X156000Y19500I-2000J0D01*
G01*
Y133500D02*
G03*
X156000Y133500I-2000J0D01*
G01*
Y54500D02*
G03*
X156000Y54500I-2000J0D01*
G01*
Y64500D02*
G03*
X156000Y64500I-2000J0D01*
G01*
Y44500D02*
G03*
X156000Y44500I-2000J0D01*
G01*
Y113500D02*
G03*
X156000Y113500I-2000J0D01*
G01*
Y14500D02*
G03*
X156000Y14500I-2000J0D01*
G01*
Y93500D02*
G03*
X156000Y93500I-2000J0D01*
G01*
X35056Y38944D02*
G03*
X35056Y38944I-2000J0D01*
G01*
X30500Y10500D02*
G03*
X30500Y10500I-2000J0D01*
G01*
X36700Y33000D02*
G03*
X36700Y33000I-2000J0D01*
G01*
X36500Y36000D02*
G03*
X36500Y36000I-2000J0D01*
G01*
X38100Y28500D02*
G03*
X38100Y28500I-2000J0D01*
G01*
X43500Y36000D02*
G03*
X43500Y36000I-2000J0D01*
G01*
X99500Y37500D02*
G03*
X99500Y37500I-2000J0D01*
G01*
X105700Y38000D02*
G03*
X105700Y38000I-2000J0D01*
G01*
X80500Y21500D02*
G03*
X80500Y21500I-2000J0D01*
G01*
X75000D02*
G03*
X75000Y21500I-2000J0D01*
G01*
X91000Y22500D02*
G03*
X91000Y22500I-2000J0D01*
G01*
X95000Y25000D02*
G03*
X95000Y25000I-2000J0D01*
G01*
X85500Y21500D02*
G03*
X85500Y21500I-2000J0D01*
G01*
X70000Y20500D02*
G03*
X70000Y20500I-2000J0D01*
G01*
X97900Y28500D02*
G03*
X97900Y28500I-2000J0D01*
G01*
X99300Y33000D02*
G03*
X99300Y33000I-2000J0D01*
G01*
X55500Y21500D02*
G03*
X55500Y21500I-2000J0D01*
G01*
X61000D02*
G03*
X61000Y21500I-2000J0D01*
G01*
X45000Y22500D02*
G03*
X45000Y22500I-2000J0D01*
G01*
X41000Y25000D02*
G03*
X41000Y25000I-2000J0D01*
G01*
X50500Y21500D02*
G03*
X50500Y21500I-2000J0D01*
G01*
X66000Y20500D02*
G03*
X66000Y20500I-2000J0D01*
G01*
X36500Y59000D02*
G03*
X36500Y59000I-2000J0D01*
G01*
X36700Y62000D02*
G03*
X36700Y62000I-2000J0D01*
G01*
X31500Y66500D02*
G03*
X31500Y66500I-2000J0D01*
G01*
X34000Y57111D02*
G03*
X34000Y57111I-2000J0D01*
G01*
X10500Y64000D02*
G03*
X10500Y64000I-2000J0D01*
G01*
X34200D02*
G03*
X34200Y64000I-2000J0D01*
G01*
X35500Y69500D02*
G03*
X35500Y69500I-2000J0D01*
G01*
X43500Y59000D02*
G03*
X43500Y59000I-2000J0D01*
G01*
X38100Y66500D02*
G03*
X38100Y66500I-2000J0D01*
G01*
X66000Y74500D02*
G03*
X66000Y74500I-2000J0D01*
G01*
X50500Y73500D02*
G03*
X50500Y73500I-2000J0D01*
G01*
X41000Y70000D02*
G03*
X41000Y70000I-2000J0D01*
G01*
X45000Y72500D02*
G03*
X45000Y72500I-2000J0D01*
G01*
X61000Y73500D02*
G03*
X61000Y73500I-2000J0D01*
G01*
X55500D02*
G03*
X55500Y73500I-2000J0D01*
G01*
X80500D02*
G03*
X80500Y73500I-2000J0D01*
G01*
X75000D02*
G03*
X75000Y73500I-2000J0D01*
G01*
X99500Y57000D02*
G03*
X99500Y57000I-2000J0D01*
G01*
X99300Y62000D02*
G03*
X99300Y62000I-2000J0D01*
G01*
X97900Y66500D02*
G03*
X97900Y66500I-2000J0D01*
G01*
X91000Y72500D02*
G03*
X91000Y72500I-2000J0D01*
G01*
X95000Y70000D02*
G03*
X95000Y70000I-2000J0D01*
G01*
X85500Y73500D02*
G03*
X85500Y73500I-2000J0D01*
G01*
X70000Y74500D02*
G03*
X70000Y74500I-2000J0D01*
G01*
X116000Y65500D02*
G03*
X116000Y65500I-2000J0D01*
G01*
X105500D02*
G03*
X105500Y65500I-2000J0D01*
G01*
X110000Y61000D02*
G03*
X110000Y61000I-2000J0D01*
G01*
X113500D02*
G03*
X113500Y61000I-2000J0D01*
G01*
X103000Y51000D02*
G03*
X103000Y51000I-2000J0D01*
G01*
X108000D02*
G03*
X108000Y51000I-2000J0D01*
G01*
X113000D02*
G03*
X113000Y51000I-2000J0D01*
G01*
X119500Y56500D02*
G03*
X119500Y56500I-2000J0D01*
G01*
Y61500D02*
G03*
X119500Y61500I-2000J0D01*
G01*
Y66500D02*
G03*
X119500Y66500I-2000J0D01*
G01*
X116500Y70000D02*
G03*
X116500Y70000I-2000J0D01*
G01*
X107500Y96000D02*
G03*
X107500Y96000I-2000J0D01*
G01*
X100000Y90000D02*
G03*
X100000Y90000I-2000J0D01*
G01*
X104000Y96000D02*
G03*
X104000Y96000I-2000J0D01*
G01*
X110500Y90000D02*
G03*
X110500Y90000I-2000J0D01*
G01*
X113500Y87000D02*
G03*
X113500Y87000I-2000J0D01*
G01*
X116500Y90000D02*
G03*
X116500Y90000I-2000J0D01*
G01*
X119500Y93500D02*
G03*
X119500Y93500I-2000J0D01*
G01*
Y98500D02*
G03*
X119500Y98500I-2000J0D01*
G01*
Y103500D02*
G03*
X119500Y103500I-2000J0D01*
G01*
X113000Y109000D02*
G03*
X113000Y109000I-2000J0D01*
G01*
X108000D02*
G03*
X108000Y109000I-2000J0D01*
G01*
X103000D02*
G03*
X103000Y109000I-2000J0D01*
G01*
Y44000D02*
G03*
X103000Y44000I-2000J0D01*
G01*
X108000D02*
G03*
X108000Y44000I-2000J0D01*
G01*
X113000D02*
G03*
X113000Y44000I-2000J0D01*
G01*
X118000Y45000D02*
G03*
X118000Y45000I-2000J0D01*
G01*
X122000Y47500D02*
G03*
X122000Y47500I-2000J0D01*
G01*
X126500Y56500D02*
G03*
X126500Y56500I-2000J0D01*
G01*
Y66500D02*
G03*
X126500Y66500I-2000J0D01*
G01*
Y61500D02*
G03*
X126500Y61500I-2000J0D01*
G01*
X125000Y51500D02*
G03*
X125000Y51500I-2000J0D01*
G01*
X129000Y70000D02*
G03*
X129000Y70000I-2000J0D01*
G01*
X132000Y73500D02*
G03*
X132000Y73500I-2000J0D01*
G01*
X134500Y77000D02*
G03*
X134500Y77000I-2000J0D01*
G01*
X140000Y74200D02*
G03*
X140000Y74200I-2000J0D01*
G01*
X145000D02*
G03*
X145000Y74200I-2000J0D01*
G01*
X150000D02*
G03*
X150000Y74200I-2000J0D01*
G01*
X155000D02*
G03*
X155000Y74200I-2000J0D01*
G01*
Y85800D02*
G03*
X155000Y85800I-2000J0D01*
G01*
X150000D02*
G03*
X150000Y85800I-2000J0D01*
G01*
X145000D02*
G03*
X145000Y85800I-2000J0D01*
G01*
X140000D02*
G03*
X140000Y85800I-2000J0D01*
G01*
X134500Y83000D02*
G03*
X134500Y83000I-2000J0D01*
G01*
X132000Y86500D02*
G03*
X132000Y86500I-2000J0D01*
G01*
X129000Y90000D02*
G03*
X129000Y90000I-2000J0D01*
G01*
X125000Y108500D02*
G03*
X125000Y108500I-2000J0D01*
G01*
X126500Y98500D02*
G03*
X126500Y98500I-2000J0D01*
G01*
Y93500D02*
G03*
X126500Y93500I-2000J0D01*
G01*
Y103500D02*
G03*
X126500Y103500I-2000J0D01*
G01*
X122000Y112500D02*
G03*
X122000Y112500I-2000J0D01*
G01*
X118000Y115000D02*
G03*
X118000Y115000I-2000J0D01*
G01*
X113000Y116000D02*
G03*
X113000Y116000I-2000J0D01*
G01*
X108000D02*
G03*
X108000Y116000I-2000J0D01*
G01*
X103000D02*
G03*
X103000Y116000I-2000J0D01*
G01*
X89000Y38500D02*
G03*
X89000Y38500I-2000J0D01*
G01*
X85000Y36000D02*
G03*
X85000Y36000I-2000J0D01*
G01*
X70000Y33500D02*
G03*
X70000Y33500I-2000J0D01*
G01*
X74500Y34000D02*
G03*
X74500Y34000I-2000J0D01*
G01*
X81000D02*
G03*
X81000Y34000I-2000J0D01*
G01*
X47000Y38500D02*
G03*
X47000Y38500I-2000J0D01*
G01*
X51000Y36000D02*
G03*
X51000Y36000I-2000J0D01*
G01*
X66000Y33500D02*
G03*
X66000Y33500I-2000J0D01*
G01*
X61000Y34000D02*
G03*
X61000Y34000I-2000J0D01*
G01*
X55000D02*
G03*
X55000Y34000I-2000J0D01*
G01*
X89000Y56500D02*
G03*
X89000Y56500I-2000J0D01*
G01*
X85000Y59000D02*
G03*
X85000Y59000I-2000J0D01*
G01*
X70000Y61500D02*
G03*
X70000Y61500I-2000J0D01*
G01*
X74500Y60500D02*
G03*
X74500Y60500I-2000J0D01*
G01*
X81000Y61000D02*
G03*
X81000Y61000I-2000J0D01*
G01*
X55000D02*
G03*
X55000Y61000I-2000J0D01*
G01*
X61500Y60500D02*
G03*
X61500Y60500I-2000J0D01*
G01*
X66000Y61500D02*
G03*
X66000Y61500I-2000J0D01*
G01*
X51000Y59000D02*
G03*
X51000Y59000I-2000J0D01*
G01*
X47000Y56500D02*
G03*
X47000Y56500I-2000J0D01*
G01*
X43500Y54000D02*
G03*
X43500Y54000I-2000J0D01*
G01*
X45500Y64500D02*
G03*
X45500Y64500I-2000J0D01*
G01*
X51000Y66500D02*
G03*
X51000Y66500I-2000J0D01*
G01*
X66000Y65500D02*
G03*
X66000Y65500I-2000J0D01*
G01*
X56000Y66500D02*
G03*
X56000Y66500I-2000J0D01*
G01*
X61000D02*
G03*
X61000Y66500I-2000J0D01*
G01*
X75000D02*
G03*
X75000Y66500I-2000J0D01*
G01*
X80000D02*
G03*
X80000Y66500I-2000J0D01*
G01*
X70000Y65500D02*
G03*
X70000Y65500I-2000J0D01*
G01*
X85000Y66500D02*
G03*
X85000Y66500I-2000J0D01*
G01*
X90500Y64500D02*
G03*
X90500Y64500I-2000J0D01*
G01*
X92500Y59000D02*
G03*
X92500Y59000I-2000J0D01*
G01*
Y54000D02*
G03*
X92500Y54000I-2000J0D01*
G01*
X102500D02*
G03*
X102500Y54000I-2000J0D01*
G01*
X92500Y41000D02*
G03*
X92500Y41000I-2000J0D01*
G01*
Y36000D02*
G03*
X92500Y36000I-2000J0D01*
G01*
X90500Y30500D02*
G03*
X90500Y30500I-2000J0D01*
G01*
X85000Y28500D02*
G03*
X85000Y28500I-2000J0D01*
G01*
X70000Y29500D02*
G03*
X70000Y29500I-2000J0D01*
G01*
X80000Y28500D02*
G03*
X80000Y28500I-2000J0D01*
G01*
X75000D02*
G03*
X75000Y28500I-2000J0D01*
G01*
X61000D02*
G03*
X61000Y28500I-2000J0D01*
G01*
X56000D02*
G03*
X56000Y28500I-2000J0D01*
G01*
X66000Y29500D02*
G03*
X66000Y29500I-2000J0D01*
G01*
X51000Y28500D02*
G03*
X51000Y28500I-2000J0D01*
G01*
X45500Y30500D02*
G03*
X45500Y30500I-2000J0D01*
G01*
X43500Y41000D02*
G03*
X43500Y41000I-2000J0D01*
G01*
X53000Y43000D02*
G03*
X53000Y43000I-2000J0D01*
G01*
X58000Y42000D02*
G03*
X58000Y42000I-2000J0D01*
G01*
X63000Y42800D02*
G03*
X63000Y42800I-2000J0D01*
G01*
X68000D02*
G03*
X68000Y42800I-2000J0D01*
G01*
X73000D02*
G03*
X73000Y42800I-2000J0D01*
G01*
X78000Y42000D02*
G03*
X78000Y42000I-2000J0D01*
G01*
X83000Y43000D02*
G03*
X83000Y43000I-2000J0D01*
G01*
Y52000D02*
G03*
X83000Y52000I-2000J0D01*
G01*
X78000Y53000D02*
G03*
X78000Y53000I-2000J0D01*
G01*
X73000Y52200D02*
G03*
X73000Y52200I-2000J0D01*
G01*
X68000D02*
G03*
X68000Y52200I-2000J0D01*
G01*
X63000D02*
G03*
X63000Y52200I-2000J0D01*
G01*
X58000Y53000D02*
G03*
X58000Y53000I-2000J0D01*
G01*
X53000Y52000D02*
G03*
X53000Y52000I-2000J0D01*
G01*
X75000Y88000D02*
G03*
X75000Y88000I-2000J0D01*
G01*
X80000D02*
G03*
X80000Y88000I-2000J0D01*
G01*
X85000Y88000D02*
G03*
X85000Y88000I-2000J0D01*
G01*
X53000Y117000D02*
G03*
X53000Y117000I-2000J0D01*
G01*
X58000Y118000D02*
G03*
X58000Y118000I-2000J0D01*
G01*
X63000Y117200D02*
G03*
X63000Y117200I-2000J0D01*
G01*
X68000D02*
G03*
X68000Y117200I-2000J0D01*
G01*
X73000D02*
G03*
X73000Y117200I-2000J0D01*
G01*
X78000Y118000D02*
G03*
X78000Y118000I-2000J0D01*
G01*
X83000Y117000D02*
G03*
X83000Y117000I-2000J0D01*
G01*
Y108000D02*
G03*
X83000Y108000I-2000J0D01*
G01*
X78000Y107000D02*
G03*
X78000Y107000I-2000J0D01*
G01*
X73000Y107800D02*
G03*
X73000Y107800I-2000J0D01*
G01*
X68000D02*
G03*
X68000Y107800I-2000J0D01*
G01*
X63000D02*
G03*
X63000Y107800I-2000J0D01*
G01*
X58000Y107000D02*
G03*
X58000Y107000I-2000J0D01*
G01*
X53000Y108000D02*
G03*
X53000Y108000I-2000J0D01*
G01*
X34000Y106000D02*
G03*
X34000Y106000I-2000J0D01*
G01*
X31500Y93500D02*
G03*
X31500Y93500I-2000J0D01*
G01*
X34447Y96506D02*
G03*
X34447Y96506I-2000J0D01*
G01*
X36500Y104000D02*
G03*
X36500Y104000I-2000J0D01*
G01*
Y99000D02*
G03*
X36500Y99000I-2000J0D01*
G01*
X43500Y106000D02*
G03*
X43500Y106000I-2000J0D01*
G01*
Y101000D02*
G03*
X43500Y101000I-2000J0D01*
G01*
X46000Y96500D02*
G03*
X46000Y96500I-2000J0D01*
G01*
X51000Y95000D02*
G03*
X51000Y95000I-2000J0D01*
G01*
X56000Y95000D02*
G03*
X56000Y95000I-2000J0D01*
G01*
X61000D02*
G03*
X61000Y95000I-2000J0D01*
G01*
X66000Y96000D02*
G03*
X66000Y96000I-2000J0D01*
G01*
X70000D02*
G03*
X70000Y96000I-2000J0D01*
G01*
X75000Y95700D02*
G03*
X75000Y95700I-2000J0D01*
G01*
X80000D02*
G03*
X80000Y95700I-2000J0D01*
G01*
X85000Y95000D02*
G03*
X85000Y95000I-2000J0D01*
G01*
X90000Y96500D02*
G03*
X90000Y96500I-2000J0D01*
G01*
X66000Y87000D02*
G03*
X66000Y87000I-2000J0D01*
G01*
X61000Y88000D02*
G03*
X61000Y88000I-2000J0D01*
G01*
X56000D02*
G03*
X56000Y88000I-2000J0D01*
G01*
X51000D02*
G03*
X51000Y88000I-2000J0D01*
G01*
X45500Y88700D02*
G03*
X45500Y88700I-2000J0D01*
G01*
X41500Y91000D02*
G03*
X41500Y91000I-2000J0D01*
G01*
X38500Y94500D02*
G03*
X38500Y94500I-2000J0D01*
G01*
X99500Y104000D02*
G03*
X99500Y104000I-2000J0D01*
G01*
X90500Y88700D02*
G03*
X90500Y88700I-2000J0D01*
G01*
X70000Y87000D02*
G03*
X70000Y87000I-2000J0D01*
G01*
X94500Y90500D02*
G03*
X94500Y90500I-2000J0D01*
G01*
X99500Y99000D02*
G03*
X99500Y99000I-2000J0D01*
G01*
X98000Y95500D02*
G03*
X98000Y95500I-2000J0D01*
G01*
X90000Y101000D02*
G03*
X90000Y101000I-2000J0D01*
G01*
Y104500D02*
G03*
X90000Y104500I-2000J0D01*
G01*
X86000Y101504D02*
G03*
X86000Y101504I-2000J0D01*
G01*
X70000Y99000D02*
G03*
X70000Y99000I-2000J0D01*
G01*
X66000D02*
G03*
X66000Y99000I-2000J0D01*
G01*
X81500Y100000D02*
G03*
X81500Y100000I-2000J0D01*
G01*
X52000Y100500D02*
G03*
X52000Y100500I-2000J0D01*
G01*
X47500Y103000D02*
G03*
X47500Y103000I-2000J0D01*
G01*
X61000Y100000D02*
G03*
X61000Y100000I-2000J0D01*
G01*
X74500D02*
G03*
X74500Y100000I-2000J0D01*
G01*
Y125000D02*
G03*
X74500Y125000I-2000J0D01*
G01*
X61000D02*
G03*
X61000Y125000I-2000J0D01*
G01*
X47500Y122000D02*
G03*
X47500Y122000I-2000J0D01*
G01*
X52000Y124500D02*
G03*
X52000Y124500I-2000J0D01*
G01*
X81500Y125000D02*
G03*
X81500Y125000I-2000J0D01*
G01*
X66000Y126000D02*
G03*
X66000Y126000I-2000J0D01*
G01*
X70000D02*
G03*
X70000Y126000I-2000J0D01*
G01*
X86000Y123496D02*
G03*
X86000Y123496I-2000J0D01*
G01*
X90000Y120500D02*
G03*
X90000Y120500I-2000J0D01*
G01*
Y124000D02*
G03*
X90000Y124000I-2000J0D01*
G01*
X98000Y129500D02*
G03*
X98000Y129500I-2000J0D01*
G01*
X99500Y126000D02*
G03*
X99500Y126000I-2000J0D01*
G01*
X94500Y134500D02*
G03*
X94500Y134500I-2000J0D01*
G01*
X104500Y121500D02*
G03*
X104500Y121500I-2000J0D01*
G01*
X70000Y138000D02*
G03*
X70000Y138000I-2000J0D01*
G01*
X75000Y137700D02*
G03*
X75000Y137700I-2000J0D01*
G01*
X80000D02*
G03*
X80000Y137700I-2000J0D01*
G01*
X85000Y137000D02*
G03*
X85000Y137000I-2000J0D01*
G01*
X90500Y136300D02*
G03*
X90500Y136300I-2000J0D01*
G01*
X99500Y121000D02*
G03*
X99500Y121000I-2000J0D01*
G01*
X38500Y130500D02*
G03*
X38500Y130500I-2000J0D01*
G01*
X36500Y126000D02*
G03*
X36500Y126000I-2000J0D01*
G01*
Y121000D02*
G03*
X36500Y121000I-2000J0D01*
G01*
X31000Y146000D02*
G03*
X31000Y146000I-2000J0D01*
G01*
X33500Y123000D02*
G03*
X33500Y123000I-2000J0D01*
G01*
Y149000D02*
G03*
X33500Y149000I-2000J0D01*
G01*
X41500Y134000D02*
G03*
X41500Y134000I-2000J0D01*
G01*
X45500Y136300D02*
G03*
X45500Y136300I-2000J0D01*
G01*
X51000Y137000D02*
G03*
X51000Y137000I-2000J0D01*
G01*
X56000Y137700D02*
G03*
X56000Y137700I-2000J0D01*
G01*
X61000D02*
G03*
X61000Y137700I-2000J0D01*
G01*
X66000Y138000D02*
G03*
X66000Y138000I-2000J0D01*
G01*
X90000Y128500D02*
G03*
X90000Y128500I-2000J0D01*
G01*
X85000Y130000D02*
G03*
X85000Y130000I-2000J0D01*
G01*
X80000Y129300D02*
G03*
X80000Y129300I-2000J0D01*
G01*
X75000D02*
G03*
X75000Y129300I-2000J0D01*
G01*
X70000Y129000D02*
G03*
X70000Y129000I-2000J0D01*
G01*
X66000D02*
G03*
X66000Y129000I-2000J0D01*
G01*
X61000Y129300D02*
G03*
X61000Y129300I-2000J0D01*
G01*
X56000D02*
G03*
X56000Y129300I-2000J0D01*
G01*
X51000Y130000D02*
G03*
X51000Y130000I-2000J0D01*
G01*
X46000Y128500D02*
G03*
X46000Y128500I-2000J0D01*
G01*
X43500Y124000D02*
G03*
X43500Y124000I-2000J0D01*
G01*
Y119000D02*
G03*
X43500Y119000I-2000J0D01*
G01*
X118000Y28000D02*
G03*
X118000Y28000I-2000J0D01*
G01*
Y33000D02*
G03*
X118000Y33000I-2000J0D01*
G01*
X117500Y132000D02*
G03*
X117500Y132000I-2000J0D01*
G01*
Y127000D02*
G03*
X117500Y127000I-2000J0D01*
G01*
X145000Y154500D02*
G03*
X145000Y154500I-2000J0D01*
G01*
X8500D02*
G03*
X8500Y154500I-2000J0D01*
G01*
X11000Y152000D02*
G03*
X11000Y152000I-2000J0D01*
G01*
X10500Y96000D02*
G03*
X10500Y96000I-2000J0D01*
G01*
X8000Y13000D02*
G03*
X8000Y13000I-2000J0D01*
G01*
X33500Y5800D02*
G03*
X33500Y5800I-2000J0D01*
G01*
X10500Y8000D02*
G03*
X10500Y8000I-2000J0D01*
G01*
X105000Y69500D02*
G03*
X105000Y69500I-2000J0D01*
G01*
X99500Y86500D02*
G03*
X99500Y86500I-2000J0D01*
G01*
Y80000D02*
G03*
X99500Y80000I-2000J0D01*
G01*
X86000Y46713D02*
G03*
X86000Y46713I-2000J0D01*
G01*
X83333Y48086D02*
G03*
X83333Y48086I-2000J0D01*
G01*
X50000Y46713D02*
G03*
X50000Y46713I-2000J0D01*
G01*
X52667Y48086D02*
G03*
X52667Y48086I-2000J0D01*
G01*
X8000Y66500D02*
G03*
X8000Y66500I-2000J0D01*
G01*
Y93500D02*
G03*
X8000Y93500I-2000J0D01*
G01*
X52667Y111914D02*
G03*
X52667Y111914I-2000J0D01*
G01*
X50000Y113287D02*
G03*
X50000Y113287I-2000J0D01*
G01*
X102500Y106000D02*
G03*
X102500Y106000I-2000J0D01*
G01*
X83333Y111914D02*
G03*
X83333Y111914I-2000J0D01*
G01*
X86000Y113287D02*
G03*
X86000Y113287I-2000J0D01*
G01*
M02*
