M48
;Layer_Color=9474304
;FILE_FORMAT=2:5
INCH,TZ
;TYPE=PLATED
T01F00S00C0.01200
T02F00S00C0.03937
T03F00S00C0.08661
%
T01
X2867Y5543
Y10543
Y15543
Y20543
Y25543
Y30543
Y35543
Y40543
Y45543
Y50543
Y55543
Y60543
Y65543
X6000Y66500
X8500Y64000
X11000Y60000
Y55000
X13500Y53000
X18500
X23500
X28500
X31500Y51000
X32000Y57111
X34500Y59000
X34700Y62000
X32200Y64000
X29500Y66500
X36100
X33500Y69500
X39000Y70000
X43000Y72500
X48500Y73500
X53500
X59000
X64000Y74500
X68000
X73000Y73500
X78500
X83500
X89000Y72500
X93000Y70000
X95900Y66500
X97300Y62000
X97500Y57000
X100500Y54000
X101000Y51000
X106000
X111000
Y44000
X106000
X101000
X103700Y38000
X97500Y37500
X97300Y33000
X95900Y28500
X93000Y25000
X89000Y22500
X83500Y21500
X78500
X73000
X68000Y20500
X64000Y20500
X64363Y15559
X69362
X74362
X79362
X84363
X89363
X94362
X99362
X104362
X109362
Y20559
Y25559
Y30559
X116000Y33000
X114363Y35559
X119362
X124363
X127465Y41209
Y46209
Y51209
X123000Y51500
X124500Y56500
X129500
X134500
X124500Y61500
Y66500
X127000Y70000
X130000Y73500
X132500Y77000
Y83000
X130000Y86500
X127000Y90000
X124500Y93500
Y98500
Y103500
X129500
X134500
X123000Y108500
X120000Y112500
X116000Y115000
X111000Y116000
X106000
X101000
Y109000
X100500Y106000
X97500Y104000
Y99000
X96000Y95500
X102000Y96000
X105500
X108500Y90000
X111500Y87000
X114500Y90000
X117500Y93500
Y98500
Y103500
X111000Y109000
X106000
X102500Y121500
X97500Y121000
Y126000
X96000Y129500
X92500Y134500
X88500Y136300
X83000Y137000
X78000Y137700
X73000
X68000Y138000
X64000
X59000Y137700
X54000
X49000Y137000
X43500Y136300
X39500Y134000
X36500Y130500
X34500Y126000
Y121000
X31500Y123000
X31610Y116000
X28610Y118000
X23610
X18610
X13610
X10700Y120000
Y125000
Y130000
X15052Y133073
X20052
X25052Y138073
Y148073
X29000Y146000
X31500Y149000
X35052Y143073
X40052
X45052
X50052
X55052
X60052
X65052
X70052
X75052
X80052
X85052
X90052
X95052
X100052
X105052
X110052
X115052
X120052
X125052
X130052
X130428Y138768
X127956Y134282
X122956
X117956
X115500Y132000
Y127000
X112956Y129281
Y124282
X107956
X117956
X122956
X127956
X129413Y156978
X134413
X124413
X119413
X114413
X109413
X104413
X99413
X94413
X89413
X84413
X79413
X74413
X69413
X64413
X59413
X54413
X49413
X44413
X39413
X34413
X29413
X24413
X19413
X14413
X9413
X6500Y154500
X2867Y155543
Y150543
Y145543
Y140543
X2867Y135859
X2867Y130543
Y125543
Y120543
Y115543
Y110543
Y105543
Y100543
Y95543
Y90543
Y85011
Y80543
Y75543
Y70543
X14675Y61594
X19675
X24675
X41500Y59000
Y54000
X45000Y56500
X49000Y59000
X53000Y61000
X54000Y66500
X49000
X43500Y64500
X59000Y66500
X64000Y65500
Y61500
X68000
Y65500
X73000Y66500
X78000
X83000
Y59000
X79000Y61000
X72500Y60500
X71000Y52200
X66000
X61000
X56000Y53000
X51000Y52000
X50667Y48086
X48000Y46713
X51000Y43000
X56000Y42000
X61000Y42800
X66000
X71000
X76000Y42000
X81000Y43000
X81333Y48086
X84000Y46713
X81000Y52000
X76000Y53000
X87000Y56500
X90500Y59000
Y54000
X88500Y64500
X103500Y65500
X103000Y69500
X114500Y70000
X114000Y65500
X117500Y66500
Y61500
Y56500
X111500Y61000
X108000
X116000Y45000
X120000Y47500
X116000Y28000
X129413Y19478
X130500Y3000
X125500
X120500
X115500
X110500
X105500
X100500
X95500
X90500
X85500
X80500
X75500
X70500
X65500
X60500
X55500
X50500
X45500
X40500
X35500
X30339Y2850
X31500Y5800
X28500Y10500
X21413Y10478
X19363Y15559
X14363
X11000Y20000
Y25000
Y30000
Y35000
Y40000
X16000
X21000
X26000
X33056Y38944
X34500Y36000
X34700Y33000
X36100Y28500
X39000Y25000
X43000Y22500
X48500Y21500
X53500
X59000
X59363Y15559
X54362
X49362
X44363
X39362
X34363
X24363
X25500Y3000
X20500
X15500
X10500
X5500
X8500Y8000
X6000Y13000
X43500Y30500
X41500Y36000
Y41000
X45000Y38500
X49000Y36000
X53000Y34000
X59000
X64000Y33500
X68000
Y29500
X64000
X59000Y28500
X54000
X49000
X73000
X78000
X83000
Y36000
X79000Y34000
X72500
X87000Y38500
X90500Y41000
Y36000
X88500Y30500
Y88700
X92500Y90500
X98000Y90000
X97500Y86500
Y80000
X83000Y88000
X78000Y88000
X73000
X68000Y87000
X64000
X59000Y88000
X54000
X49000
X43500Y88700
X39500Y91000
X36500Y94500
X32447Y96506
X34500Y99000
Y104000
X32000Y106000
X23610Y107000
X18610
X13610
X10700Y105000
Y100000
X15700
X20700
X25700
X29500Y93500
X44000Y96500
X49000Y95000
X54000Y95000
X59000
Y100000
X64000Y99000
Y96000
X68000
Y99000
X72500Y100000
X73000Y95700
X78000
X83000Y95000
X88000Y96500
Y101000
Y104500
X84000Y101504
X79500Y100000
X81000Y108000
X81333Y111914
X84000Y113287
X81000Y117000
X76000Y118000
X71000Y117200
X66000
X61000
X56000Y118000
X51000Y117000
X50667Y111914
X48000Y113287
X51000Y108000
X56000Y107000
X61000Y107800
X66000
X71000
X76000Y107000
X72500Y125000
X73000Y129300
X78000
X83000Y130000
X88000Y128500
Y124000
Y120500
X84000Y123496
X79500Y125000
X68000Y126000
Y129000
X64000
Y126000
X59000Y125000
Y129300
X54000
X49000Y130000
X50000Y124500
X45500Y122000
X41500Y124000
Y119000
X44000Y128500
X41500Y106000
Y101000
X45500Y103000
X50000Y100500
X8500Y96000
X6000Y93500
X9000Y152000
X30519Y43624
X59500Y60500
X121000Y79500
X138000Y74200
X143000
X148000
X153000
X154000Y69500
Y64500
Y59500
Y54500
Y49500
Y44500
Y39500
Y34500
Y29500
Y24500
Y19500
Y14500
Y9500
Y4500
X150500Y3000
X145500
X140500
X135500
X138413Y17978
X139500Y56500
X144500
X149500
X148000Y85800
X153000
X154000Y88500
Y93500
Y98500
Y103500
X149500
X144500
X139500
X138000Y85800
X143000
X154000Y108500
Y113500
Y118500
Y123500
Y128500
Y133500
Y138500
Y143500
Y148500
Y153500
X149413Y156978
X145402Y156795
X143000Y154500
X139413Y156978
X137000Y145500
X140696Y141491
X137109Y137235
T02
X17500Y75000
Y85000
X27500
Y75000
X133500Y48500
Y38500
Y28500
Y111500
Y121500
Y131500
X143500
Y121500
Y111500
Y48500
Y38500
Y28500
T03
X119610Y20500
X17110Y142000
M30
