G04*
G04 #@! TF.GenerationSoftware,Altium Limited,Altium Designer,24.4.1 (13)*
G04*
G04 Layer_Color=32896*
%FSLAX25Y25*%
%MOIN*%
G70*
G04*
G04 #@! TF.SameCoordinates,E101684F-62CE-472E-B8B6-B79B7EA84F3C*
G04*
G04*
G04 #@! TF.FilePolarity,Positive*
G04*
G01*
G75*
%ADD32C,0.01000*%
D32*
X30289Y54999D02*
X31289Y53999D01*
Y52000D01*
X30289Y51000D01*
X26290D01*
X25291Y52000D01*
Y53999D01*
X26290Y54999D01*
X25291Y56998D02*
X31289D01*
Y59997D01*
X30289Y60997D01*
X28290D01*
X27290Y59997D01*
Y56998D01*
X31289Y62996D02*
X25291D01*
Y66995D01*
X31289Y68994D02*
X25291D01*
Y71993D01*
X26290Y72993D01*
X27290D01*
X28290Y71993D01*
Y68994D01*
Y71993D01*
X29289Y72993D01*
X30289D01*
X31289Y71993D01*
Y68994D01*
X29289Y74992D02*
X25291D01*
X27290D01*
X28290Y75992D01*
X29289Y76992D01*
Y77991D01*
X25291Y80990D02*
Y82990D01*
Y81990D01*
X29289D01*
Y80990D01*
X31289Y89987D02*
X25291D01*
Y86988D01*
X26290Y85989D01*
X28290D01*
X29289Y86988D01*
Y89987D01*
X23291Y93986D02*
Y94986D01*
X24291Y95986D01*
X29289D01*
Y92986D01*
X28290Y91987D01*
X26290D01*
X25291Y92986D01*
Y95986D01*
Y100984D02*
Y98984D01*
X26290Y97985D01*
X28290D01*
X29289Y98984D01*
Y100984D01*
X28290Y101983D01*
X27290D01*
Y97985D01*
X24291Y103983D02*
Y107982D01*
X25291Y109981D02*
X31289D01*
Y112980D01*
X30289Y113980D01*
X28290D01*
X27290Y112980D01*
Y109981D01*
Y111980D02*
X25291Y113980D01*
X30289Y115979D02*
X31289Y116979D01*
Y118978D01*
X30289Y119978D01*
X26290D01*
X25291Y118978D01*
Y116979D01*
X26290Y115979D01*
X30289D01*
Y121977D02*
X31289Y122977D01*
Y124976D01*
X30289Y125976D01*
X26290D01*
X25291Y124976D01*
Y122977D01*
X26290Y121977D01*
X30289D01*
M02*
