G04*
G04 #@! TF.GenerationSoftware,Altium Limited,Altium Designer,24.4.1 (13)*
G04*
G04 Layer_Physical_Order=1*
G04 Layer_Color=255*
%FSLAX25Y25*%
%MOIN*%
G70*
G04*
G04 #@! TF.SameCoordinates,E101684F-62CE-472E-B8B6-B79B7EA84F3C*
G04*
G04*
G04 #@! TF.FilePolarity,Positive*
G04*
G01*
G75*
%ADD22C,0.02700*%
%ADD23R,0.05512X0.02992*%
%ADD24R,0.16000X0.07000*%
%ADD25R,0.16000X0.06000*%
%ADD26R,0.03150X0.04331*%
%ADD27R,0.04331X0.03150*%
%ADD28R,0.03150X0.04331*%
%ADD29R,0.04331X0.03150*%
%ADD30C,0.08661*%
%ADD31C,0.02400*%
G36*
X87512Y152200D02*
X70250D01*
Y151334D01*
X65259Y149988D01*
X62078D01*
Y150765D01*
X58172D01*
X57728Y150765D01*
X56172D01*
X55728Y150765D01*
X51822D01*
Y149879D01*
X51323Y149839D01*
X49494Y149400D01*
X47756Y148680D01*
X46152Y147698D01*
X44722Y146476D01*
X43500Y145046D01*
X42518Y143442D01*
X41798Y141704D01*
X41359Y139875D01*
X41212Y138010D01*
X41210Y138000D01*
Y135096D01*
X39842D01*
Y134988D01*
X36578D01*
Y135765D01*
X32672D01*
X32228Y135765D01*
X30672D01*
X30228Y135765D01*
X26322D01*
Y134817D01*
X24254Y134320D01*
X22264Y133496D01*
X20426Y132370D01*
X20150Y132134D01*
X18150Y132200D01*
Y132200D01*
X1071D01*
Y174929D01*
X87512D01*
Y152200D01*
D02*
G37*
G36*
X70250Y144666D02*
Y143800D01*
X87512D01*
Y112200D01*
X70250D01*
X70250Y112200D01*
X68542Y112906D01*
X68192Y113334D01*
X68171Y113372D01*
X68215Y115373D01*
X68215D01*
Y119278D01*
X68215Y119722D01*
Y121278D01*
X68215Y121722D01*
Y125628D01*
X67298D01*
X66898Y127295D01*
X66229Y128910D01*
X65315Y130401D01*
X64180Y131730D01*
X62851Y132865D01*
X61360Y133779D01*
X60058Y134318D01*
Y135096D01*
X53346D01*
Y130904D01*
X57709D01*
X59054Y130496D01*
X60298Y129831D01*
X61387Y128937D01*
X62281Y127848D01*
X62451Y127531D01*
X62685Y125628D01*
X62685Y125628D01*
Y121722D01*
X62685Y121278D01*
Y119722D01*
X62685Y119278D01*
Y115372D01*
X63195D01*
X63529Y113983D01*
X64222Y112311D01*
X65167Y110768D01*
X66342Y109392D01*
X67718Y108217D01*
X69261Y107272D01*
X70250Y106862D01*
Y103800D01*
X87512D01*
X87512Y72200D01*
X70250D01*
Y68931D01*
X69762Y68729D01*
X68218Y67783D01*
X66842Y66608D01*
X65667Y65232D01*
X64722Y63688D01*
X64029Y62017D01*
X63695Y60628D01*
X62685D01*
Y56722D01*
X62685Y56278D01*
Y54722D01*
X62685Y54278D01*
Y50372D01*
X62685D01*
X62451Y48469D01*
X62281Y48153D01*
X61387Y47063D01*
X60298Y46169D01*
X59054Y45504D01*
X57709Y45096D01*
X53346D01*
Y40904D01*
X60058D01*
Y41682D01*
X61360Y42221D01*
X62851Y43135D01*
X64180Y44270D01*
X65315Y45599D01*
X66229Y47090D01*
X66898Y48705D01*
X67298Y50372D01*
X68215D01*
Y54278D01*
X68215Y54722D01*
Y56278D01*
X68215Y56722D01*
Y60628D01*
X68215D01*
X68588Y62473D01*
X68692Y62666D01*
X68710Y62689D01*
X70250Y63800D01*
X87512D01*
Y32200D01*
X70250D01*
Y31334D01*
X65259Y29988D01*
X62078D01*
Y30765D01*
X58172D01*
X57728Y30765D01*
X56172D01*
X55728Y30765D01*
X51823D01*
X51822Y30765D01*
X49822Y30733D01*
X48732Y31316D01*
X47514Y32316D01*
X46514Y33534D01*
X45771Y34924D01*
X45314Y36432D01*
X45168Y37909D01*
X45186Y38000D01*
Y40904D01*
X46554D01*
Y45096D01*
X39842D01*
Y44988D01*
X36578D01*
Y45765D01*
X32672D01*
X32228Y45765D01*
X30672D01*
X30228Y45765D01*
X26322D01*
Y45765D01*
X24377Y45898D01*
X23061Y46602D01*
X22933Y46706D01*
Y49294D01*
X23061Y49398D01*
X24377Y50102D01*
X26322Y50235D01*
X26322Y50235D01*
X30228D01*
X30672Y50235D01*
X32228D01*
X32672Y50235D01*
X36578D01*
Y51012D01*
X39842D01*
Y50904D01*
X46554D01*
Y55096D01*
X44938D01*
Y57872D01*
X45715D01*
Y62222D01*
X44029D01*
X43808Y62370D01*
X42950Y62540D01*
Y62535D01*
X42189Y62384D01*
X41947Y62222D01*
X40185D01*
Y57872D01*
X40962D01*
Y55096D01*
X39842D01*
Y54988D01*
X36578D01*
Y55765D01*
X32672D01*
X32228Y55765D01*
X30672D01*
X30228Y55765D01*
X26322D01*
Y54817D01*
X24254Y54320D01*
X22264Y53496D01*
X20426Y52370D01*
X20150Y52134D01*
X18150Y52200D01*
Y52200D01*
X1071D01*
X1071Y123800D01*
X18150D01*
Y123800D01*
X20150Y123866D01*
X20426Y123630D01*
X22264Y122504D01*
X24254Y121680D01*
X26322Y121183D01*
Y120235D01*
X30228D01*
X30672Y120235D01*
X32228D01*
X32672Y120235D01*
X36578D01*
Y121012D01*
X39842D01*
Y120904D01*
X41210D01*
Y118128D01*
X40185D01*
Y113778D01*
X45715D01*
Y118128D01*
X45186D01*
Y120904D01*
X46554D01*
Y125096D01*
X39842D01*
Y124988D01*
X36578D01*
Y125765D01*
X32672D01*
X32228Y125765D01*
X30672D01*
X30228Y125765D01*
X26322D01*
Y125765D01*
X24377Y125898D01*
X23061Y126602D01*
X22933Y126706D01*
Y129294D01*
X23061Y129398D01*
X24377Y130102D01*
X26322Y130235D01*
X26322Y130235D01*
X30228D01*
X30672Y130235D01*
X32228D01*
X32672Y130235D01*
X36578D01*
Y131012D01*
X39842D01*
Y130904D01*
X46554D01*
Y135096D01*
X45186D01*
Y138000D01*
X45168Y138091D01*
X45314Y139568D01*
X45771Y141076D01*
X46514Y142466D01*
X47514Y143684D01*
X48732Y144684D01*
X49822Y145267D01*
X51823Y145235D01*
Y145235D01*
X55728D01*
X56172Y145235D01*
X57728D01*
X58172Y145235D01*
X62078D01*
Y146012D01*
X65259D01*
X70250Y144666D01*
D02*
G37*
G36*
X71462Y145012D02*
X65387Y146650D01*
Y149350D01*
X71462Y150988D01*
Y145012D01*
D02*
G37*
G36*
X18885Y129350D02*
Y126650D01*
X16938Y126540D01*
Y129461D01*
X18885Y129350D01*
D02*
G37*
G36*
X20426Y43630D02*
X22264Y42504D01*
X24254Y41680D01*
X26322Y41183D01*
Y40235D01*
X30228D01*
X30672Y40235D01*
X32228D01*
X32672Y40235D01*
X36578D01*
Y41012D01*
X39842D01*
Y40904D01*
X41210D01*
Y38000D01*
X41212Y37990D01*
X41359Y36125D01*
X41798Y34296D01*
X42518Y32558D01*
X43500Y30954D01*
X44722Y29524D01*
X46152Y28302D01*
X47756Y27319D01*
X49494Y26600D01*
X51323Y26161D01*
X51822Y26121D01*
Y25235D01*
X55728D01*
X56172Y25235D01*
X57728D01*
X58172Y25235D01*
X62078D01*
Y26012D01*
X65259D01*
X70250Y24666D01*
Y23800D01*
X87512D01*
Y1071D01*
X1071D01*
Y43800D01*
X18150D01*
Y43800D01*
X20150Y43866D01*
X20426Y43630D01*
D02*
G37*
G36*
X71462Y25012D02*
X65387Y26650D01*
Y29350D01*
X71462Y30988D01*
Y25012D01*
D02*
G37*
%LPC*%
G36*
X31291Y170690D02*
X29889Y170552D01*
X28540Y170143D01*
X27297Y169478D01*
X26207Y168584D01*
X25313Y167495D01*
X24648Y166252D01*
X24239Y164903D01*
X24101Y163500D01*
X24239Y162097D01*
X24648Y160749D01*
X25313Y159505D01*
X26207Y158416D01*
X27297Y157522D01*
X28540Y156857D01*
X29889Y156448D01*
X31291Y156310D01*
X32694Y156448D01*
X34043Y156857D01*
X35286Y157522D01*
X36375Y158416D01*
X37270Y159505D01*
X37934Y160749D01*
X38343Y162097D01*
X38482Y163500D01*
X38343Y164903D01*
X37934Y166252D01*
X37270Y167495D01*
X36375Y168584D01*
X35286Y169478D01*
X34043Y170143D01*
X32694Y170552D01*
X31291Y170690D01*
D02*
G37*
G36*
Y19690D02*
X29889Y19552D01*
X28540Y19143D01*
X27297Y18478D01*
X26207Y17584D01*
X25313Y16495D01*
X24648Y15252D01*
X24239Y13903D01*
X24101Y12500D01*
X24239Y11097D01*
X24648Y9748D01*
X25313Y8505D01*
X26207Y7416D01*
X27297Y6522D01*
X28540Y5857D01*
X29889Y5448D01*
X31291Y5310D01*
X32694Y5448D01*
X34043Y5857D01*
X35286Y6522D01*
X36375Y7416D01*
X37270Y8505D01*
X37934Y9748D01*
X38343Y11097D01*
X38482Y12500D01*
X38343Y13903D01*
X37934Y15252D01*
X37270Y16495D01*
X36375Y17584D01*
X35286Y18478D01*
X34043Y19143D01*
X32694Y19552D01*
X31291Y19690D01*
D02*
G37*
%LPD*%
D22*
X53198Y148000D02*
G03*
X43198Y138000I0J-10000D01*
G01*
X28497Y133000D02*
G03*
X18885Y128000I0J-11739D01*
G01*
X18885Y128000D02*
G03*
X28497Y123000I9612J6739D01*
G01*
Y53000D02*
G03*
X18885Y48000I0J-11739D01*
G01*
X18885Y48000D02*
G03*
X28497Y43000I9612J6739D01*
G01*
X43198Y38000D02*
G03*
X53198Y28000I10000J0D01*
G01*
X74997Y68000D02*
G03*
X65450Y58453I0J-9547D01*
G01*
X56302Y42991D02*
G03*
X65459Y52148I0J9156D01*
G01*
X42950Y53248D02*
G03*
X43198Y53000I248J0D01*
G01*
Y60299D02*
G03*
X42950Y60547I-248J0D01*
G01*
X65459Y123852D02*
G03*
X56302Y133009I-9156J0D01*
G01*
X64950Y117547D02*
G03*
X74497Y108000I9547J0D01*
G01*
X42950Y115953D02*
G03*
X43198Y116201I0J248D01*
G01*
X53198Y148000D02*
X53997D01*
X43198Y133000D02*
Y138000D01*
X8950Y128000D02*
X18885D01*
X8950Y128000D02*
X8950Y128000D01*
X18885Y48000D02*
X18885Y48000D01*
X18885Y48000D02*
X18885D01*
X8950D02*
X18885D01*
X59903Y148000D02*
X79450D01*
X59903D02*
X59947Y147956D01*
X43198Y38000D02*
Y43000D01*
X53198Y28000D02*
X53997D01*
X59903D02*
X79450D01*
X74997Y68000D02*
X79950D01*
X34403Y43000D02*
X43198D01*
X34403Y53000D02*
X42950D01*
Y60047D02*
Y60299D01*
Y60547D01*
Y53000D02*
X43198D01*
X42950Y53248D02*
Y60047D01*
X34403Y133000D02*
X43198D01*
X74497Y108000D02*
X79497D01*
X43198Y116201D02*
Y123000D01*
X34403D02*
X43198D01*
D23*
Y133000D02*
D03*
Y123000D02*
D03*
X56702D02*
D03*
Y128000D02*
D03*
Y133000D02*
D03*
X43198Y53000D02*
D03*
Y43000D02*
D03*
X56702D02*
D03*
Y48000D02*
D03*
Y53000D02*
D03*
D24*
X8950Y58000D02*
D03*
Y38000D02*
D03*
X79450Y58000D02*
D03*
Y78000D02*
D03*
Y98000D02*
D03*
Y118000D02*
D03*
Y138000D02*
D03*
Y158000D02*
D03*
X8950Y138000D02*
D03*
Y118000D02*
D03*
X79450Y18000D02*
D03*
Y38000D02*
D03*
D25*
X8950Y48000D02*
D03*
X79450Y68000D02*
D03*
Y108000D02*
D03*
Y148000D02*
D03*
X8950Y128000D02*
D03*
X79450Y28000D02*
D03*
D26*
X53997Y148000D02*
D03*
X59903D02*
D03*
X53997Y28000D02*
D03*
X59903D02*
D03*
D27*
X42950Y115953D02*
D03*
Y110047D02*
D03*
Y60047D02*
D03*
Y65953D02*
D03*
D28*
X28497Y123000D02*
D03*
X34403D02*
D03*
X28497Y133000D02*
D03*
X34403D02*
D03*
X28497Y53000D02*
D03*
X34403D02*
D03*
X28497Y43000D02*
D03*
X34403D02*
D03*
D29*
X65450Y58453D02*
D03*
Y52547D02*
D03*
Y117547D02*
D03*
Y123453D02*
D03*
D30*
X31291Y12500D02*
D03*
Y163500D02*
D03*
D31*
X2791Y3000D02*
D03*
X82791D02*
D03*
X85791Y8000D02*
D03*
X2791D02*
D03*
X7791Y3000D02*
D03*
X13291D02*
D03*
X17791D02*
D03*
X22791D02*
D03*
X27791D02*
D03*
X32791D02*
D03*
X37791D02*
D03*
X42791D02*
D03*
X47791D02*
D03*
X52791D02*
D03*
X57791D02*
D03*
X62791D02*
D03*
X67791D02*
D03*
X72791D02*
D03*
X77791D02*
D03*
X2791Y173000D02*
D03*
X85791D02*
D03*
Y168000D02*
D03*
X2791D02*
D03*
X25791Y48000D02*
D03*
X30791D02*
D03*
X35791D02*
D03*
X40791D02*
D03*
X45791D02*
D03*
X8950Y42200D02*
D03*
X13950D02*
D03*
X18950D02*
D03*
X23950Y40000D02*
D03*
X28950Y38500D02*
D03*
X33950D02*
D03*
X38950Y39500D02*
D03*
X39950Y34500D02*
D03*
X54450Y24000D02*
D03*
X59450D02*
D03*
X64450Y24500D02*
D03*
X69450Y23500D02*
D03*
X79450Y22200D02*
D03*
X49450Y25000D02*
D03*
X45450Y27000D02*
D03*
X41950Y30500D02*
D03*
X84450Y33800D02*
D03*
X79450D02*
D03*
X74450D02*
D03*
X69450Y32500D02*
D03*
X64450Y31500D02*
D03*
X59450Y32000D02*
D03*
X54450D02*
D03*
X3950Y42200D02*
D03*
X3950Y53800D02*
D03*
X38950Y56500D02*
D03*
X33950Y57500D02*
D03*
X28950D02*
D03*
X23950Y56000D02*
D03*
X18950Y53800D02*
D03*
X13950D02*
D03*
X8950D02*
D03*
X84450Y22200D02*
D03*
X74450D02*
D03*
Y62200D02*
D03*
X84450D02*
D03*
X74450Y73800D02*
D03*
X79450D02*
D03*
X84450D02*
D03*
X79450Y62200D02*
D03*
X49450Y33000D02*
D03*
X46950Y37000D02*
D03*
X47950Y42000D02*
D03*
X55950Y39491D02*
D03*
X60950Y40000D02*
D03*
X64950Y43000D02*
D03*
X67950Y47000D02*
D03*
X69950Y51500D02*
D03*
Y61500D02*
D03*
X60950Y56500D02*
D03*
Y61500D02*
D03*
X63450Y66000D02*
D03*
X66950Y69500D02*
D03*
X69450Y73800D02*
D03*
X37950Y61500D02*
D03*
X47950Y61453D02*
D03*
X47450Y56453D02*
D03*
X48450Y51453D02*
D03*
X50450Y46453D02*
D03*
X51950Y41953D02*
D03*
X42950Y69000D02*
D03*
X37950Y66500D02*
D03*
X47950D02*
D03*
X69950Y56500D02*
D03*
X60950Y51500D02*
D03*
X59450Y47500D02*
D03*
X55950Y46491D02*
D03*
X55950Y129509D02*
D03*
X59450Y128500D02*
D03*
X60950Y124500D02*
D03*
X69950Y119500D02*
D03*
X47950Y109500D02*
D03*
X37950D02*
D03*
X42950Y107000D02*
D03*
X51950Y134047D02*
D03*
X50450Y129547D02*
D03*
X48450Y124547D02*
D03*
X47450Y119547D02*
D03*
X47950Y114547D02*
D03*
X37950Y114500D02*
D03*
X69450Y102200D02*
D03*
X66950Y106500D02*
D03*
X63450Y110000D02*
D03*
X60950Y114500D02*
D03*
Y119500D02*
D03*
X69950Y114500D02*
D03*
Y124500D02*
D03*
X67950Y129000D02*
D03*
X64950Y133000D02*
D03*
X60950Y136000D02*
D03*
X55950Y136509D02*
D03*
X47950Y134000D02*
D03*
X46950Y139000D02*
D03*
X49450Y143000D02*
D03*
X79450Y113800D02*
D03*
X84450Y102200D02*
D03*
X79450D02*
D03*
X74450D02*
D03*
X84450Y113800D02*
D03*
X74450D02*
D03*
Y153800D02*
D03*
X84450D02*
D03*
X8950Y122200D02*
D03*
X13950D02*
D03*
X18950D02*
D03*
X23950Y120000D02*
D03*
X28950Y118500D02*
D03*
X33950D02*
D03*
X38950Y119500D02*
D03*
X3950Y122200D02*
D03*
X3950Y133800D02*
D03*
X54450Y144000D02*
D03*
X59450D02*
D03*
X64450Y144500D02*
D03*
X69450Y143500D02*
D03*
X74450Y142200D02*
D03*
X79450D02*
D03*
X84450D02*
D03*
X41950Y145500D02*
D03*
X45450Y149000D02*
D03*
X49450Y151000D02*
D03*
X79450Y153800D02*
D03*
X69450Y152500D02*
D03*
X64450Y151500D02*
D03*
X59450Y152000D02*
D03*
X54450D02*
D03*
X39950Y141500D02*
D03*
X38950Y136500D02*
D03*
X33950Y137500D02*
D03*
X28950D02*
D03*
X23950Y136000D02*
D03*
X18950Y133800D02*
D03*
X13950D02*
D03*
X8950D02*
D03*
X45791Y128000D02*
D03*
X40791D02*
D03*
X35791D02*
D03*
X30791D02*
D03*
X25791D02*
D03*
X5791Y88000D02*
D03*
X10791D02*
D03*
X15791D02*
D03*
X20791D02*
D03*
X25791D02*
D03*
X30791D02*
D03*
X35791D02*
D03*
X40791D02*
D03*
X45791D02*
D03*
X50791D02*
D03*
X55791D02*
D03*
X60791D02*
D03*
X65791D02*
D03*
X70791D02*
D03*
X75791D02*
D03*
X80791D02*
D03*
X85791Y13000D02*
D03*
Y18000D02*
D03*
Y38000D02*
D03*
Y43000D02*
D03*
Y48000D02*
D03*
Y53000D02*
D03*
Y58000D02*
D03*
Y78000D02*
D03*
Y83000D02*
D03*
X10791Y173000D02*
D03*
X15791D02*
D03*
X20791D02*
D03*
X25791D02*
D03*
X30791D02*
D03*
X35791D02*
D03*
X40791D02*
D03*
X45791D02*
D03*
X50791D02*
D03*
X55791D02*
D03*
X60791D02*
D03*
X65791D02*
D03*
X70791D02*
D03*
X75791D02*
D03*
X80791D02*
D03*
X85791Y163000D02*
D03*
Y158000D02*
D03*
Y138000D02*
D03*
Y133000D02*
D03*
Y128000D02*
D03*
Y123000D02*
D03*
Y118000D02*
D03*
Y98000D02*
D03*
Y93000D02*
D03*
Y88000D02*
D03*
X2791Y13000D02*
D03*
Y18000D02*
D03*
Y23000D02*
D03*
Y28000D02*
D03*
Y33000D02*
D03*
Y38000D02*
D03*
Y58000D02*
D03*
Y63000D02*
D03*
Y68000D02*
D03*
Y73000D02*
D03*
Y78000D02*
D03*
Y83000D02*
D03*
Y163000D02*
D03*
Y158000D02*
D03*
Y153000D02*
D03*
Y148000D02*
D03*
Y143000D02*
D03*
Y138000D02*
D03*
Y118000D02*
D03*
Y113000D02*
D03*
Y108000D02*
D03*
Y103000D02*
D03*
Y98000D02*
D03*
Y93000D02*
D03*
Y88000D02*
D03*
M02*
