G04*
G04 #@! TF.GenerationSoftware,Altium Limited,Altium Designer,24.4.1 (13)*
G04*
G04 Layer_Color=65535*
%FSLAX25Y25*%
%MOIN*%
G70*
G04*
G04 #@! TF.SameCoordinates,E101684F-62CE-472E-B8B6-B79B7EA84F3C*
G04*
G04*
G04 #@! TF.FilePolarity,Positive*
G04*
G01*
G75*
%ADD10C,0.00787*%
%ADD11C,0.00500*%
%ADD12C,0.00600*%
%ADD13C,0.00700*%
D10*
X60893Y132949D02*
G03*
X60893Y132949I-199J0D01*
G01*
Y52949D02*
G03*
X60893Y52949I-199J0D01*
G01*
X44458Y120500D02*
X55442D01*
X44458Y135500D02*
X55442D01*
X44458Y40500D02*
X55442D01*
X44458Y55500D02*
X55442D01*
D11*
X18450Y33500D02*
Y62500D01*
X950Y33500D02*
X18450D01*
X950Y62500D02*
X18450D01*
X69950Y53500D02*
Y82500D01*
X87450D01*
X69950Y53500D02*
X87450D01*
X52950Y151000D02*
X60950D01*
X52950Y145000D02*
X60950D01*
X69950Y93500D02*
Y122500D01*
X87450D01*
X69950Y93500D02*
X87450D01*
X69950Y133500D02*
Y162500D01*
X87450D01*
X69950Y133500D02*
X87450D01*
X45950Y109000D02*
Y117000D01*
X39950Y109000D02*
Y117000D01*
X18450Y113500D02*
Y142500D01*
X950Y113500D02*
X18450D01*
X950Y142500D02*
X18450D01*
X27450Y126000D02*
X35450D01*
X27450Y120000D02*
X35450D01*
X27450Y136000D02*
X35450D01*
X27450Y130000D02*
X35450D01*
X27450Y56000D02*
X35450D01*
X27450Y50000D02*
X35450D01*
X27450Y46000D02*
X35450D01*
X27450Y40000D02*
X35450D01*
X39950Y59000D02*
Y67000D01*
X45950Y59000D02*
Y67000D01*
X69950Y13500D02*
Y42500D01*
X87450D01*
X69950Y13500D02*
X87450D01*
X68450Y51500D02*
Y59500D01*
X62450Y51500D02*
Y59500D01*
X52950Y31000D02*
X60950D01*
X52950Y25000D02*
X60950D01*
X62450Y124500D02*
X62450Y116500D01*
X68450Y124500D02*
X68450Y116500D01*
D12*
X4891Y167100D02*
Y171099D01*
X6891D01*
X7557Y170432D01*
Y169099D01*
X6891Y168433D01*
X4891D01*
X9556Y167100D02*
X10889D01*
X11556Y167766D01*
Y169099D01*
X10889Y169766D01*
X9556D01*
X8890Y169099D01*
Y167766D01*
X9556Y167100D01*
X12889Y169766D02*
Y167100D01*
Y168433D01*
X13555Y169099D01*
X14222Y169766D01*
X14888D01*
X17554Y170432D02*
Y169766D01*
X16887D01*
X18220D01*
X17554D01*
Y167766D01*
X18220Y167100D01*
X20220D02*
X21553D01*
X20886D01*
Y171099D01*
X20220Y170432D01*
X73391Y168599D02*
X72058D01*
X71391Y167932D01*
Y165267D01*
X72058Y164600D01*
X73391D01*
X74057Y165267D01*
Y167932D01*
X73391Y168599D01*
X75390D02*
Y165267D01*
X76056Y164600D01*
X77389D01*
X78056Y165267D01*
Y168599D01*
X79389D02*
X82055D01*
X80722D01*
Y164600D01*
X11391Y111599D02*
X12724D01*
X12058D01*
Y107600D01*
X11391D01*
X12724D01*
X14724D02*
Y111599D01*
X17389Y107600D01*
Y111599D01*
X6891Y29599D02*
X8224D01*
X7558D01*
Y25600D01*
X6891D01*
X8224D01*
X10224D02*
Y29599D01*
X12889Y25600D01*
Y29599D01*
X72891Y11099D02*
X71558D01*
X70891Y10432D01*
Y7767D01*
X71558Y7100D01*
X72891D01*
X73557Y7767D01*
Y10432D01*
X72891Y11099D01*
X74890D02*
Y7767D01*
X75556Y7100D01*
X76889D01*
X77556Y7767D01*
Y11099D01*
X78889D02*
X81555D01*
X80222D01*
Y7100D01*
X6891Y82100D02*
Y86099D01*
X8891D01*
X9557Y85432D01*
Y84099D01*
X8891Y83433D01*
X6891D01*
X11557Y82100D02*
X12889D01*
X13556Y82766D01*
Y84099D01*
X12889Y84766D01*
X11557D01*
X10890Y84099D01*
Y82766D01*
X11557Y82100D01*
X14889Y84766D02*
Y82100D01*
Y83433D01*
X15555Y84099D01*
X16222Y84766D01*
X16888D01*
X19554Y85432D02*
Y84766D01*
X18888D01*
X20220D01*
X19554D01*
Y82766D01*
X20220Y82100D01*
X24885D02*
X22220D01*
X24885Y84766D01*
Y85432D01*
X24219Y86099D01*
X22886D01*
X22220Y85432D01*
X46618Y141999D02*
X49284D01*
X47951D01*
Y138001D01*
X53282D02*
X50617D01*
X53282Y140666D01*
Y141333D01*
X52616Y141999D01*
X51283D01*
X50617Y141333D01*
X47284Y37999D02*
X49950D01*
X48617D01*
Y34001D01*
X51283D02*
X52616D01*
X51949D01*
Y37999D01*
X51283Y37333D01*
X31959Y104501D02*
Y108499D01*
X33958D01*
X34625Y107833D01*
Y106500D01*
X33958Y105834D01*
X31959D01*
X33292D02*
X34625Y104501D01*
X38624Y108499D02*
X37291Y107833D01*
X35958Y106500D01*
Y105167D01*
X36624Y104501D01*
X37957D01*
X38624Y105167D01*
Y105834D01*
X37957Y106500D01*
X35958D01*
X30959Y64501D02*
Y68499D01*
X32958D01*
X33625Y67833D01*
Y66500D01*
X32958Y65834D01*
X30959D01*
X32292D02*
X33625Y64501D01*
X37624Y68499D02*
X34958D01*
Y66500D01*
X36291Y67167D01*
X36957D01*
X37624Y66500D01*
Y65167D01*
X36957Y64501D01*
X35624D01*
X34958Y65167D01*
X26618Y114001D02*
Y117999D01*
X28617D01*
X29284Y117333D01*
Y116000D01*
X28617Y115333D01*
X26618D01*
X27951D02*
X29284Y114001D01*
X32616D02*
Y117999D01*
X30617Y116000D01*
X33282D01*
X26618Y138001D02*
Y141999D01*
X28617D01*
X29284Y141333D01*
Y140000D01*
X28617Y139333D01*
X26618D01*
X27951D02*
X29284Y138001D01*
X30617Y141333D02*
X31283Y141999D01*
X32616D01*
X33282Y141333D01*
Y140666D01*
X32616Y140000D01*
X31949D01*
X32616D01*
X33282Y139333D01*
Y138667D01*
X32616Y138001D01*
X31283D01*
X30617Y138667D01*
X21959Y57501D02*
Y61499D01*
X23958D01*
X24625Y60833D01*
Y59500D01*
X23958Y58834D01*
X21959D01*
X23292D02*
X24625Y57501D01*
X28624D02*
X25958D01*
X28624Y60167D01*
Y60833D01*
X27957Y61499D01*
X26624D01*
X25958Y60833D01*
X23626Y34501D02*
Y38499D01*
X25625D01*
X26291Y37833D01*
Y36500D01*
X25625Y35834D01*
X23626D01*
X24958D02*
X26291Y34501D01*
X27624D02*
X28957D01*
X28291D01*
Y38499D01*
X27624Y37833D01*
X55625Y113833D02*
X54959Y114499D01*
X53626D01*
X52960Y113833D01*
Y111167D01*
X53626Y110501D01*
X54959D01*
X55625Y111167D01*
X59624Y110501D02*
X56958D01*
X59624Y113166D01*
Y113833D01*
X58958Y114499D01*
X57625D01*
X56958Y113833D01*
X62957Y110501D02*
Y114499D01*
X60957Y112500D01*
X63623D01*
X53126Y60833D02*
X52459Y61499D01*
X51126D01*
X50460Y60833D01*
Y58167D01*
X51126Y57501D01*
X52459D01*
X53126Y58167D01*
X57124Y57501D02*
X54458D01*
X57124Y60167D01*
Y60833D01*
X56458Y61499D01*
X55125D01*
X54458Y60833D01*
X58457D02*
X59124Y61499D01*
X60457D01*
X61123Y60833D01*
Y60167D01*
X60457Y59500D01*
X59790D01*
X60457D01*
X61123Y58834D01*
Y58167D01*
X60457Y57501D01*
X59124D01*
X58457Y58167D01*
X42125Y153333D02*
X41459Y153999D01*
X40126D01*
X39460Y153333D01*
Y150667D01*
X40126Y150001D01*
X41459D01*
X42125Y150667D01*
X46124Y150001D02*
X43458D01*
X46124Y152666D01*
Y153333D01*
X45458Y153999D01*
X44125D01*
X43458Y153333D01*
X50123Y150001D02*
X47457D01*
X50123Y152666D01*
Y153333D01*
X49457Y153999D01*
X48124D01*
X47457Y153333D01*
X46292Y22833D02*
X45625Y23499D01*
X44293D01*
X43626Y22833D01*
Y20167D01*
X44293Y19501D01*
X45625D01*
X46292Y20167D01*
X50291Y19501D02*
X47625D01*
X50291Y22166D01*
Y22833D01*
X49624Y23499D01*
X48291D01*
X47625Y22833D01*
X51624Y19501D02*
X52956D01*
X52290D01*
Y23499D01*
X51624Y22833D01*
D13*
X58657Y89199D02*
X57991Y89865D01*
X56658D01*
X55991Y89199D01*
Y86533D01*
X56658Y85866D01*
X57991D01*
X58657Y86533D01*
X59990Y85866D02*
Y89865D01*
X61989D01*
X62656Y89199D01*
Y87866D01*
X61989Y87199D01*
X59990D01*
X63989Y89865D02*
Y85866D01*
X66655D01*
X67988Y85200D02*
X70653D01*
X73985Y89865D02*
X72653D01*
X71986Y89199D01*
Y86533D01*
X72653Y85866D01*
X73985D01*
X74652Y86533D01*
Y89199D01*
X73985Y89865D01*
X75985D02*
Y86533D01*
X76651Y85866D01*
X77984D01*
X78651Y86533D01*
Y89865D01*
X79984D02*
X82649D01*
X81317D01*
Y85866D01*
M02*
