G04*
G04 #@! TF.GenerationSoftware,Altium Limited,Altium Designer,24.4.1 (13)*
G04*
G04 Layer_Physical_Order=2*
G04 Layer_Color=16711680*
%FSLAX25Y25*%
%MOIN*%
G70*
G04*
G04 #@! TF.SameCoordinates,E101684F-62CE-472E-B8B6-B79B7EA84F3C*
G04*
G04*
G04 #@! TF.FilePolarity,Positive*
G04*
G01*
G75*
%ADD24R,0.16000X0.07000*%
%ADD30C,0.08661*%
%ADD31C,0.02400*%
G36*
X87512Y1071D02*
X1071D01*
Y174929D01*
X87512D01*
X87512Y1071D01*
D02*
G37*
%LPC*%
G36*
X31291Y170690D02*
X29889Y170552D01*
X28540Y170143D01*
X27297Y169478D01*
X26207Y168584D01*
X25313Y167495D01*
X24648Y166252D01*
X24239Y164903D01*
X24101Y163500D01*
X24239Y162097D01*
X24648Y160749D01*
X25313Y159505D01*
X26207Y158416D01*
X27297Y157522D01*
X28540Y156857D01*
X29889Y156448D01*
X31291Y156310D01*
X32694Y156448D01*
X34043Y156857D01*
X35286Y157522D01*
X36375Y158416D01*
X37270Y159505D01*
X37934Y160749D01*
X38343Y162097D01*
X38482Y163500D01*
X38343Y164903D01*
X37934Y166252D01*
X37270Y167495D01*
X36375Y168584D01*
X35286Y169478D01*
X34043Y170143D01*
X32694Y170552D01*
X31291Y170690D01*
D02*
G37*
G36*
Y19690D02*
X29889Y19552D01*
X28540Y19143D01*
X27297Y18478D01*
X26207Y17584D01*
X25313Y16495D01*
X24648Y15252D01*
X24239Y13903D01*
X24101Y12500D01*
X24239Y11097D01*
X24648Y9748D01*
X25313Y8505D01*
X26207Y7416D01*
X27297Y6522D01*
X28540Y5857D01*
X29889Y5448D01*
X31291Y5310D01*
X32694Y5448D01*
X34043Y5857D01*
X35286Y6522D01*
X36375Y7416D01*
X37270Y8505D01*
X37934Y9748D01*
X38343Y11097D01*
X38482Y12500D01*
X38343Y13903D01*
X37934Y15252D01*
X37270Y16495D01*
X36375Y17584D01*
X35286Y18478D01*
X34043Y19143D01*
X32694Y19552D01*
X31291Y19690D01*
D02*
G37*
%LPD*%
D24*
X8950Y58000D02*
D03*
Y38000D02*
D03*
X79450Y58000D02*
D03*
Y78000D02*
D03*
Y98000D02*
D03*
Y118000D02*
D03*
Y138000D02*
D03*
Y158000D02*
D03*
X8950Y138000D02*
D03*
Y118000D02*
D03*
X79450Y18000D02*
D03*
Y38000D02*
D03*
D30*
X31291Y12500D02*
D03*
Y163500D02*
D03*
D31*
X2791Y3000D02*
D03*
X82791D02*
D03*
X85791Y8000D02*
D03*
X2791D02*
D03*
X7791Y3000D02*
D03*
X13291D02*
D03*
X17791D02*
D03*
X22791D02*
D03*
X27791D02*
D03*
X32791D02*
D03*
X37791D02*
D03*
X42791D02*
D03*
X47791D02*
D03*
X52791D02*
D03*
X57791D02*
D03*
X62791D02*
D03*
X67791D02*
D03*
X72791D02*
D03*
X77791D02*
D03*
X2791Y173000D02*
D03*
X85791D02*
D03*
Y168000D02*
D03*
X2791D02*
D03*
X25791Y48000D02*
D03*
X30791D02*
D03*
X35791D02*
D03*
X40791D02*
D03*
X45791D02*
D03*
X8950Y42200D02*
D03*
X13950D02*
D03*
X18950D02*
D03*
X23950Y40000D02*
D03*
X28950Y38500D02*
D03*
X33950D02*
D03*
X38950Y39500D02*
D03*
X39950Y34500D02*
D03*
X54450Y24000D02*
D03*
X59450D02*
D03*
X64450Y24500D02*
D03*
X69450Y23500D02*
D03*
X79450Y22200D02*
D03*
X49450Y25000D02*
D03*
X45450Y27000D02*
D03*
X41950Y30500D02*
D03*
X84450Y33800D02*
D03*
X79450D02*
D03*
X74450D02*
D03*
X69450Y32500D02*
D03*
X64450Y31500D02*
D03*
X59450Y32000D02*
D03*
X54450D02*
D03*
X3950Y42200D02*
D03*
X3950Y53800D02*
D03*
X38950Y56500D02*
D03*
X33950Y57500D02*
D03*
X28950D02*
D03*
X23950Y56000D02*
D03*
X18950Y53800D02*
D03*
X13950D02*
D03*
X8950D02*
D03*
X84450Y22200D02*
D03*
X74450D02*
D03*
Y62200D02*
D03*
X84450D02*
D03*
X74450Y73800D02*
D03*
X79450D02*
D03*
X84450D02*
D03*
X79450Y62200D02*
D03*
X49450Y33000D02*
D03*
X46950Y37000D02*
D03*
X47950Y42000D02*
D03*
X55950Y39491D02*
D03*
X60950Y40000D02*
D03*
X64950Y43000D02*
D03*
X67950Y47000D02*
D03*
X69950Y51500D02*
D03*
Y61500D02*
D03*
X60950Y56500D02*
D03*
Y61500D02*
D03*
X63450Y66000D02*
D03*
X66950Y69500D02*
D03*
X69450Y73800D02*
D03*
X37950Y61500D02*
D03*
X47950Y61453D02*
D03*
X47450Y56453D02*
D03*
X48450Y51453D02*
D03*
X50450Y46453D02*
D03*
X51950Y41953D02*
D03*
X42950Y69000D02*
D03*
X37950Y66500D02*
D03*
X47950D02*
D03*
X69950Y56500D02*
D03*
X60950Y51500D02*
D03*
X59450Y47500D02*
D03*
X55950Y46491D02*
D03*
X55950Y129509D02*
D03*
X59450Y128500D02*
D03*
X60950Y124500D02*
D03*
X69950Y119500D02*
D03*
X47950Y109500D02*
D03*
X37950D02*
D03*
X42950Y107000D02*
D03*
X51950Y134047D02*
D03*
X50450Y129547D02*
D03*
X48450Y124547D02*
D03*
X47450Y119547D02*
D03*
X47950Y114547D02*
D03*
X37950Y114500D02*
D03*
X69450Y102200D02*
D03*
X66950Y106500D02*
D03*
X63450Y110000D02*
D03*
X60950Y114500D02*
D03*
Y119500D02*
D03*
X69950Y114500D02*
D03*
Y124500D02*
D03*
X67950Y129000D02*
D03*
X64950Y133000D02*
D03*
X60950Y136000D02*
D03*
X55950Y136509D02*
D03*
X47950Y134000D02*
D03*
X46950Y139000D02*
D03*
X49450Y143000D02*
D03*
X79450Y113800D02*
D03*
X84450Y102200D02*
D03*
X79450D02*
D03*
X74450D02*
D03*
X84450Y113800D02*
D03*
X74450D02*
D03*
Y153800D02*
D03*
X84450D02*
D03*
X8950Y122200D02*
D03*
X13950D02*
D03*
X18950D02*
D03*
X23950Y120000D02*
D03*
X28950Y118500D02*
D03*
X33950D02*
D03*
X38950Y119500D02*
D03*
X3950Y122200D02*
D03*
X3950Y133800D02*
D03*
X54450Y144000D02*
D03*
X59450D02*
D03*
X64450Y144500D02*
D03*
X69450Y143500D02*
D03*
X74450Y142200D02*
D03*
X79450D02*
D03*
X84450D02*
D03*
X41950Y145500D02*
D03*
X45450Y149000D02*
D03*
X49450Y151000D02*
D03*
X79450Y153800D02*
D03*
X69450Y152500D02*
D03*
X64450Y151500D02*
D03*
X59450Y152000D02*
D03*
X54450D02*
D03*
X39950Y141500D02*
D03*
X38950Y136500D02*
D03*
X33950Y137500D02*
D03*
X28950D02*
D03*
X23950Y136000D02*
D03*
X18950Y133800D02*
D03*
X13950D02*
D03*
X8950D02*
D03*
X45791Y128000D02*
D03*
X40791D02*
D03*
X35791D02*
D03*
X30791D02*
D03*
X25791D02*
D03*
X5791Y88000D02*
D03*
X10791D02*
D03*
X15791D02*
D03*
X20791D02*
D03*
X25791D02*
D03*
X30791D02*
D03*
X35791D02*
D03*
X40791D02*
D03*
X45791D02*
D03*
X50791D02*
D03*
X55791D02*
D03*
X60791D02*
D03*
X65791D02*
D03*
X70791D02*
D03*
X75791D02*
D03*
X80791D02*
D03*
X85791Y13000D02*
D03*
Y18000D02*
D03*
Y38000D02*
D03*
Y43000D02*
D03*
Y48000D02*
D03*
Y53000D02*
D03*
Y58000D02*
D03*
Y78000D02*
D03*
Y83000D02*
D03*
X10791Y173000D02*
D03*
X15791D02*
D03*
X20791D02*
D03*
X25791D02*
D03*
X30791D02*
D03*
X35791D02*
D03*
X40791D02*
D03*
X45791D02*
D03*
X50791D02*
D03*
X55791D02*
D03*
X60791D02*
D03*
X65791D02*
D03*
X70791D02*
D03*
X75791D02*
D03*
X80791D02*
D03*
X85791Y163000D02*
D03*
Y158000D02*
D03*
Y138000D02*
D03*
Y133000D02*
D03*
Y128000D02*
D03*
Y123000D02*
D03*
Y118000D02*
D03*
Y98000D02*
D03*
Y93000D02*
D03*
Y88000D02*
D03*
X2791Y13000D02*
D03*
Y18000D02*
D03*
Y23000D02*
D03*
Y28000D02*
D03*
Y33000D02*
D03*
Y38000D02*
D03*
Y58000D02*
D03*
Y63000D02*
D03*
Y68000D02*
D03*
Y73000D02*
D03*
Y78000D02*
D03*
Y83000D02*
D03*
Y163000D02*
D03*
Y158000D02*
D03*
Y153000D02*
D03*
Y148000D02*
D03*
Y143000D02*
D03*
Y138000D02*
D03*
Y118000D02*
D03*
Y113000D02*
D03*
Y108000D02*
D03*
Y103000D02*
D03*
Y98000D02*
D03*
Y93000D02*
D03*
Y88000D02*
D03*
M02*
