M48
;Layer_Color=9474304
;FILE_FORMAT=2:5
INCH,TZ
;TYPE=PLATED
T01F00S00C0.01200
T02F00S00C0.08661
%
T01
X2791Y3000
Y8000
Y13000
Y18000
Y23000
Y28000
Y33000
Y38000
X3950Y42200
X8950Y42200
X13950
X18950
X23950Y40000
X28950Y38500
X33950
X38950Y39500
X39950Y34500
X41950Y30500
X45450Y27000
X49450Y25000
X54450Y24000
X59450
X64450Y24500
X69450Y23500
X74450Y22200
X79450
X84450
X85791Y18000
Y13000
Y8000
X82791Y3000
X77791
X72791
X67791
X62791
X57791
X52791
X47791
X42791
X37791
X32791
X27791
X22791
X17791
X13291
X7791
X8950Y53800
X3950Y53800
X2791Y58000
Y63000
Y68000
Y73000
Y78000
Y83000
Y88000
X5791
X10791
X15791
X20791
X25791
X30791
X35791
X40791
X45791
X50791
X55791
X60791
X65791
X70791
X75791
X80791
X85791
Y83000
Y78000
X84450Y73800
X79450
X74450
X69450
X66950Y69500
X63450Y66000
X60950Y61500
Y56500
Y51500
X59450Y47500
X55950Y46491
X50450Y46453
X51950Y41953
X47950Y42000
X46950Y37000
X49450Y33000
X54450Y32000
X59450
X64450Y31500
X69450Y32500
X74450Y33800
X79450
X84450
X85791Y38000
Y43000
Y48000
Y53000
Y58000
X84450Y62200
X79450
X74450
X69950Y61500
Y56500
Y51500
X67950Y47000
X64950Y43000
X60950Y40000
X55950Y39491
X45791Y48000
X40791
X35791
X30791
X25791
X23950Y56000
X28950Y57500
X33950
X38950Y56500
X37950Y61500
Y66500
X42950Y69000
X47950Y66500
X47950Y61453
X47450Y56453
X48450Y51453
X18950Y53800
X13950
X2791Y93000
Y98000
Y103000
Y108000
Y113000
Y118000
X3950Y122200
X8950Y122200
X13950
X18950
X23950Y120000
X28950Y118500
X33950
X38950Y119500
X37950Y114500
Y109500
X42950Y107000
X47950Y109500
X47950Y114547
X47450Y119547
X48450Y124547
X45791Y128000
X40791
X35791
X30791
X25791
X23950Y136000
X28950Y137500
X33950
X38950Y136500
X39950Y141500
X41950Y145500
X45450Y149000
X49450Y151000
X54450Y152000
X59450
X64450Y151500
X69450Y152500
X74450Y153800
X79450
X84450
X85791Y158000
X84450Y142200
X79450
X74450
X69450Y143500
X64450Y144500
X59450Y144000
X54450
X49450Y143000
X46950Y139000
X47950Y134000
X51950Y134047
X50450Y129547
X55950Y129509
X59450Y128500
X60950Y124500
Y119500
Y114500
X63450Y110000
X66950Y106500
X69450Y102200
X74450
X79450
X84450
X85791Y98000
Y93000
X84450Y113800
X79450
X74450
X69950Y114500
Y119500
Y124500
X67950Y129000
X64950Y133000
X60950Y136000
X55950Y136509
X85791Y138000
Y133000
Y128000
Y123000
Y118000
X18950Y133800
X13950
X8950
X3950Y133800
X2791Y138000
Y143000
Y148000
Y153000
Y158000
Y163000
Y168000
Y173000
X10791Y173000
X15791
X20791
X25791
X30791
X35791
X40791
X45791
X50791
X55791
X60791
X65791
X70791
X75791
X80791
X85791Y173000
Y168000
Y163000
T02
X31291Y12500
Y163500
M30
