G04*
G04 #@! TF.GenerationSoftware,Altium Limited,Altium Designer,24.4.1 (13)*
G04*
G04 Layer_Color=128*
%FSLAX25Y25*%
%MOIN*%
G70*
G04*
G04 #@! TF.SameCoordinates,9EAFE7E4-189C-44CB-946A-5F511CB8720B*
G04*
G04*
G04 #@! TF.FilePolarity,Positive*
G04*
G01*
G75*
%ADD10C,0.00500*%
D10*
X13016Y29615D02*
X21678D01*
X17347Y25285D02*
Y33946D01*
X272465Y48213D02*
X281126D01*
X276795Y43882D02*
Y52543D01*
X154827Y77213D02*
X158764D01*
X156795Y75244D02*
Y79181D01*
X164827Y77213D02*
X168764D01*
X166795Y75244D02*
Y79181D01*
X174827Y77213D02*
X178764D01*
X176795Y75244D02*
Y79181D01*
X184827Y77213D02*
X188764D01*
X186795Y75244D02*
Y79181D01*
X164827Y87213D02*
X168764D01*
X166795Y85244D02*
Y89181D01*
X174827Y87213D02*
X178764D01*
X176795Y85244D02*
Y89181D01*
X184827Y87213D02*
X188764D01*
X186795Y85244D02*
Y89181D01*
X154827Y87213D02*
X158764D01*
X156795Y85244D02*
Y89181D01*
X93327Y43213D02*
X97264D01*
X95295Y41244D02*
Y45181D01*
X93327Y53213D02*
X97264D01*
X95295Y51244D02*
Y55181D01*
X103327Y53213D02*
X107264D01*
X105295Y51244D02*
Y55181D01*
X103327Y43213D02*
X107264D01*
X105295Y41244D02*
Y45181D01*
X286195Y3713D02*
X287395D01*
X286795Y3113D02*
Y4313D01*
X281195Y3713D02*
X282395D01*
X281795Y3113D02*
Y4313D01*
X286195Y92713D02*
X287395D01*
X286795Y92113D02*
Y93313D01*
X281195Y92713D02*
X282395D01*
X281795Y92113D02*
Y93313D01*
X287132Y8097D02*
X288332D01*
X287732Y7497D02*
Y8697D01*
X287132Y13097D02*
X288332D01*
X287732Y12497D02*
Y13697D01*
X287132Y18097D02*
X288332D01*
X287732Y17497D02*
Y18697D01*
X287132Y23097D02*
X288332D01*
X287732Y22497D02*
Y23697D01*
X287132Y28097D02*
X288332D01*
X287732Y27497D02*
Y28697D01*
X287132Y33097D02*
X288332D01*
X287732Y32497D02*
Y33697D01*
X287132Y38097D02*
X288332D01*
X287732Y37497D02*
Y38697D01*
X287132Y43097D02*
X288332D01*
X287732Y42497D02*
Y43697D01*
X287132Y48097D02*
X288332D01*
X287732Y47497D02*
Y48697D01*
X287132Y53097D02*
X288332D01*
X287732Y52497D02*
Y53697D01*
X287132Y58097D02*
X288332D01*
X287732Y57497D02*
Y58697D01*
X287132Y63097D02*
X288332D01*
X287732Y62497D02*
Y63697D01*
X287132Y68097D02*
X288332D01*
X287732Y67497D02*
Y68697D01*
X287132Y73097D02*
X288332D01*
X287732Y72497D02*
Y73697D01*
X287132Y78097D02*
X288332D01*
X287732Y77497D02*
Y78697D01*
X287132Y83097D02*
X288332D01*
X287732Y82497D02*
Y83697D01*
X287132Y88097D02*
X288332D01*
X287732Y87497D02*
Y88697D01*
X6195Y3713D02*
X7395D01*
X6795Y3113D02*
Y4313D01*
X11195Y3713D02*
X12395D01*
X11795Y3113D02*
Y4313D01*
X6195Y92713D02*
X7395D01*
X6795Y92113D02*
Y93313D01*
X11195Y92713D02*
X12395D01*
X11795Y92113D02*
Y93313D01*
X3195Y48213D02*
X4395D01*
X3795Y47613D02*
Y48813D01*
X3195Y38213D02*
X4395D01*
X3795Y37613D02*
Y38813D01*
X3195Y28213D02*
X4395D01*
X3795Y27613D02*
Y28813D01*
X3195Y18213D02*
X4395D01*
X3795Y17613D02*
Y18813D01*
X3195Y8213D02*
X4395D01*
X3795Y7613D02*
Y8813D01*
X3195Y43213D02*
X4395D01*
X3795Y42613D02*
Y43813D01*
X3195Y33213D02*
X4395D01*
X3795Y32613D02*
Y33813D01*
X3195Y23213D02*
X4395D01*
X3795Y22613D02*
Y23813D01*
X3195Y13213D02*
X4395D01*
X3795Y12613D02*
Y13813D01*
X3195Y53213D02*
X4395D01*
X3795Y52613D02*
Y53813D01*
X3195Y58213D02*
X4395D01*
X3795Y57613D02*
Y58813D01*
X3195Y63213D02*
X4395D01*
X3795Y62613D02*
Y63813D01*
X3195Y68213D02*
X4395D01*
X3795Y67613D02*
Y68813D01*
X3195Y73213D02*
X4395D01*
X3795Y72613D02*
Y73813D01*
X3195Y78213D02*
X4395D01*
X3795Y77613D02*
Y78813D01*
X3195Y83213D02*
X4395D01*
X3795Y82613D02*
Y83813D01*
X3195Y88213D02*
X4395D01*
X3795Y87613D02*
Y88813D01*
X187695Y60213D02*
X188895D01*
X188295Y59613D02*
Y60813D01*
X179195Y60213D02*
X180395D01*
X179795Y59613D02*
Y60813D01*
X187695Y65213D02*
X188895D01*
X188295Y64613D02*
Y65813D01*
X179195Y65213D02*
X180395D01*
X179795Y64613D02*
Y65813D01*
X166195Y41713D02*
X167395D01*
X166795Y41113D02*
Y42313D01*
X175695Y41713D02*
X176895D01*
X176295Y41113D02*
Y42313D01*
X241495Y37213D02*
X242695D01*
X242095Y36613D02*
Y37813D01*
X246195Y37213D02*
X247395D01*
X246795Y36613D02*
Y37813D01*
X50895Y47213D02*
X52095D01*
X51495Y46613D02*
Y47813D01*
X46195Y47213D02*
X47395D01*
X46795Y46613D02*
Y47813D01*
X241495Y59513D02*
X242695D01*
X242095Y58913D02*
Y60113D01*
X246748Y59513D02*
X247948D01*
X247348Y58913D02*
Y60113D01*
X146195Y43213D02*
X147395D01*
X146795Y42613D02*
Y43813D01*
X141695Y48213D02*
X142895D01*
X142295Y47613D02*
Y48813D01*
X146195Y52213D02*
X147395D01*
X146795Y51613D02*
Y52813D01*
X150695Y48213D02*
X151895D01*
X151295Y47613D02*
Y48813D01*
X146195Y48213D02*
X147395D01*
X146795Y47613D02*
Y48813D01*
X207195Y76713D02*
X208395D01*
X207795Y76113D02*
Y77313D01*
X207695Y71713D02*
X208895D01*
X208295Y71113D02*
Y72313D01*
X207695Y66713D02*
X208895D01*
X208295Y66113D02*
Y67313D01*
X201195Y63713D02*
X202395D01*
X201795Y63113D02*
Y64313D01*
X201195Y58713D02*
X202395D01*
X201795Y58113D02*
Y59313D01*
X201195Y53213D02*
X202395D01*
X201795Y52613D02*
Y53813D01*
X204695Y87213D02*
X205895D01*
X205295Y86613D02*
Y87813D01*
X204695Y81713D02*
X205895D01*
X205295Y81113D02*
Y82313D01*
X166195Y62213D02*
X167395D01*
X166795Y61613D02*
Y62813D01*
X157195Y60213D02*
X158395D01*
X157795Y59613D02*
Y60813D01*
X163195Y66213D02*
X164395D01*
X163795Y65613D02*
Y66813D01*
X173195Y65213D02*
X174395D01*
X173795Y64613D02*
Y65813D01*
X173195Y60713D02*
X174395D01*
X173795Y60113D02*
Y61313D01*
X153195Y56213D02*
X154395D01*
X153795Y55613D02*
Y56813D01*
X230695Y43713D02*
X231895D01*
X231295Y43113D02*
Y44313D01*
X230695Y52713D02*
X231895D01*
X231295Y52113D02*
Y53313D01*
X236195Y48213D02*
X237395D01*
X236795Y47613D02*
Y48813D01*
X250195Y53213D02*
X251395D01*
X250795Y52613D02*
Y53813D01*
X250195Y48213D02*
X251395D01*
X250795Y47613D02*
Y48813D01*
X250695Y43713D02*
X251895D01*
X251295Y43113D02*
Y44313D01*
X146195Y57713D02*
X147395D01*
X146795Y57113D02*
Y58313D01*
X149695Y61213D02*
X150895D01*
X150295Y60613D02*
Y61813D01*
X143195Y60713D02*
X144395D01*
X143795Y60113D02*
Y61313D01*
X142695Y37213D02*
X143895D01*
X143295Y36613D02*
Y37813D01*
X149695Y37213D02*
X150895D01*
X150295Y36613D02*
Y37813D01*
X146195Y36713D02*
X147395D01*
X146795Y36113D02*
Y37313D01*
X136195Y48213D02*
X137395D01*
X136795Y47613D02*
Y48813D01*
X155195Y48213D02*
X156395D01*
X155795Y47613D02*
Y48813D01*
X160695Y53213D02*
X161895D01*
X161295Y52613D02*
Y53813D01*
X158695Y49713D02*
X159895D01*
X159295Y49113D02*
Y50313D01*
X158695Y45213D02*
X159895D01*
X159295Y44613D02*
Y45813D01*
X133195Y50713D02*
X134395D01*
X133795Y50113D02*
Y51313D01*
X133195Y45713D02*
X134395D01*
X133795Y45113D02*
Y46313D01*
X55695Y80713D02*
X56895D01*
X56295Y80113D02*
Y81313D01*
X51195Y80713D02*
X52395D01*
X51795Y80113D02*
Y81313D01*
X46195Y80713D02*
X47395D01*
X46795Y80113D02*
Y81313D01*
X40695Y80713D02*
X41895D01*
X41295Y80113D02*
Y81313D01*
X57695Y55713D02*
X58895D01*
X58295Y55113D02*
Y56313D01*
X41195Y55713D02*
X42395D01*
X41795Y55113D02*
Y56313D01*
X39695Y41213D02*
X40895D01*
X40295Y40613D02*
Y41813D01*
X42195Y38213D02*
X43395D01*
X42795Y37613D02*
Y38813D01*
X61195Y41213D02*
X62395D01*
X61795Y40613D02*
Y41813D01*
X55695Y37713D02*
X56895D01*
X56295Y37113D02*
Y38313D01*
X195195Y78213D02*
X196395D01*
X195795Y77613D02*
Y78813D01*
X195195Y73213D02*
X196395D01*
X195795Y72613D02*
Y73813D01*
X195195Y63213D02*
X196395D01*
X195795Y62613D02*
Y63813D01*
X195195Y58213D02*
X196395D01*
X195795Y57613D02*
Y58813D01*
X195195Y53213D02*
X196395D01*
X195795Y52613D02*
Y53813D01*
X195195Y48213D02*
X196395D01*
X195795Y47613D02*
Y48813D01*
X195195Y68213D02*
X196395D01*
X195795Y67613D02*
Y68813D01*
X195195Y85213D02*
X196395D01*
X195795Y84613D02*
Y85813D01*
X195195Y89213D02*
X196395D01*
X195795Y88613D02*
Y89813D01*
X16195Y92713D02*
X17395D01*
X16795Y92113D02*
Y93313D01*
X31195Y92713D02*
X32395D01*
X31795Y92113D02*
Y93313D01*
X36195Y92713D02*
X37395D01*
X36795Y92113D02*
Y93313D01*
X41195Y92713D02*
X42395D01*
X41795Y92113D02*
Y93313D01*
X46195Y92713D02*
X47395D01*
X46795Y92113D02*
Y93313D01*
X51195Y92713D02*
X52395D01*
X51795Y92113D02*
Y93313D01*
X56195Y92713D02*
X57395D01*
X56795Y92113D02*
Y93313D01*
X61195Y92713D02*
X62395D01*
X61795Y92113D02*
Y93313D01*
X66195Y92713D02*
X67395D01*
X66795Y92113D02*
Y93313D01*
X81195Y92713D02*
X82395D01*
X81795Y92113D02*
Y93313D01*
X86195Y92713D02*
X87395D01*
X86795Y92113D02*
Y93313D01*
X91195Y92713D02*
X92395D01*
X91795Y92113D02*
Y93313D01*
X96195Y92713D02*
X97395D01*
X96795Y92113D02*
Y93313D01*
X101195Y92713D02*
X102395D01*
X101795Y92113D02*
Y93313D01*
X106195Y92713D02*
X107395D01*
X106795Y92113D02*
Y93313D01*
X261195Y3713D02*
X262395D01*
X261795Y3113D02*
Y4313D01*
X261195Y92713D02*
X262395D01*
X261795Y92113D02*
Y93313D01*
X116195Y92713D02*
X117395D01*
X116795Y92113D02*
Y93313D01*
X111195Y92713D02*
X112395D01*
X111795Y92113D02*
Y93313D01*
X136195Y92713D02*
X137395D01*
X136795Y92113D02*
Y93313D01*
X141195Y92713D02*
X142395D01*
X141795Y92113D02*
Y93313D01*
X146195Y92713D02*
X147395D01*
X146795Y92113D02*
Y93313D01*
X151195Y92713D02*
X152395D01*
X151795Y92113D02*
Y93313D01*
X156195Y92713D02*
X157395D01*
X156795Y92113D02*
Y93313D01*
X161195Y92713D02*
X162395D01*
X161795Y92113D02*
Y93313D01*
X206195Y92713D02*
X207395D01*
X206795Y92113D02*
Y93313D01*
X231195Y92713D02*
X232395D01*
X231795Y92113D02*
Y93313D01*
X236195Y92713D02*
X237395D01*
X236795Y92113D02*
Y93313D01*
X241195Y92713D02*
X242395D01*
X241795Y92113D02*
Y93313D01*
X246195Y92713D02*
X247395D01*
X246795Y92113D02*
Y93313D01*
X251195Y92713D02*
X252395D01*
X251795Y92113D02*
Y93313D01*
X256195Y92713D02*
X257395D01*
X256795Y92113D02*
Y93313D01*
X276195Y92713D02*
X277395D01*
X276795Y92113D02*
Y93313D01*
X231195Y3713D02*
X232395D01*
X231795Y3113D02*
Y4313D01*
X276195Y3713D02*
X277395D01*
X276795Y3113D02*
Y4313D01*
X256195Y3713D02*
X257395D01*
X256795Y3113D02*
Y4313D01*
X251195Y3713D02*
X252395D01*
X251795Y3113D02*
Y4313D01*
X246195Y3713D02*
X247395D01*
X246795Y3113D02*
Y4313D01*
X241195Y3713D02*
X242395D01*
X241795Y3113D02*
Y4313D01*
X236195Y3713D02*
X237395D01*
X236795Y3113D02*
Y4313D01*
X206195Y3713D02*
X207395D01*
X206795Y3113D02*
Y4313D01*
X201195Y3713D02*
X202395D01*
X201795Y3113D02*
Y4313D01*
X196195Y3713D02*
X197395D01*
X196795Y3113D02*
Y4313D01*
X191195Y3713D02*
X192395D01*
X191795Y3113D02*
Y4313D01*
X186195Y3713D02*
X187395D01*
X186795Y3113D02*
Y4313D01*
X176195Y3418D02*
X177395D01*
X176795Y2819D02*
Y4019D01*
X181195Y3713D02*
X182395D01*
X181795Y3113D02*
Y4313D01*
X156195Y3713D02*
X157395D01*
X156795Y3113D02*
Y4313D01*
X151195Y3713D02*
X152395D01*
X151795Y3113D02*
Y4313D01*
X136195Y3713D02*
X137395D01*
X136795Y3113D02*
Y4313D01*
X61195Y3713D02*
X62395D01*
X61795Y3113D02*
Y4313D01*
X36195Y3713D02*
X37395D01*
X36795Y3113D02*
Y4313D01*
X16195Y3713D02*
X17395D01*
X16795Y3113D02*
Y4313D01*
X26195Y3713D02*
X27395D01*
X26795Y3113D02*
Y4313D01*
X31195Y3713D02*
X32395D01*
X31795Y3113D02*
Y4313D01*
X66195Y3713D02*
X67395D01*
X66795Y3113D02*
Y4313D01*
X71195Y3713D02*
X72395D01*
X71795Y3113D02*
Y4313D01*
X76195Y3713D02*
X77395D01*
X76795Y3113D02*
Y4313D01*
X81195Y3713D02*
X82395D01*
X81795Y3113D02*
Y4313D01*
X86195Y3713D02*
X87395D01*
X86795Y3113D02*
Y4313D01*
X91195Y3713D02*
X92395D01*
X91795Y3113D02*
Y4313D01*
X116195Y3713D02*
X117395D01*
X116795Y3113D02*
Y4313D01*
X96195Y3713D02*
X97395D01*
X96795Y3113D02*
Y4313D01*
X101195Y3713D02*
X102395D01*
X101795Y3113D02*
Y4313D01*
X106195Y3713D02*
X107395D01*
X106795Y3113D02*
Y4313D01*
X111195Y3713D02*
X112395D01*
X111795Y3113D02*
Y4313D01*
X141195Y3713D02*
X142395D01*
X141795Y3113D02*
Y4313D01*
X146195Y3713D02*
X147395D01*
X146795Y3113D02*
Y4313D01*
X21195Y3713D02*
X22395D01*
X21795Y3113D02*
Y4313D01*
X55195Y60212D02*
X56395D01*
X55795Y59612D02*
Y60812D01*
X69695Y64213D02*
X70895D01*
X70295Y63613D02*
Y64813D01*
X76695Y59213D02*
X77895D01*
X77295Y58613D02*
Y59813D01*
X76695Y64213D02*
X77895D01*
X77295Y63613D02*
Y64813D01*
X59145Y66713D02*
X60445D01*
X59795Y66063D02*
Y67363D01*
X171995Y9713D02*
X173195D01*
X172595Y9113D02*
Y10313D01*
X171995Y14713D02*
X173195D01*
X172595Y14113D02*
Y15313D01*
X171995Y19713D02*
X173195D01*
X172595Y19113D02*
Y20313D01*
X169695Y24713D02*
X170895D01*
X170295Y24113D02*
Y25313D01*
X168595Y29513D02*
X169795D01*
X169195Y28913D02*
Y30113D01*
X165795Y33613D02*
X166995D01*
X166395Y33013D02*
Y34213D01*
X162195Y37213D02*
X163395D01*
X162795Y36613D02*
Y37813D01*
X158695Y40713D02*
X159895D01*
X159295Y40113D02*
Y41313D01*
X160395Y9713D02*
X161595D01*
X160995Y9113D02*
Y10313D01*
X160395Y14713D02*
X161595D01*
X160995Y14113D02*
Y15313D01*
X160395Y19713D02*
X161595D01*
X160995Y19113D02*
Y20313D01*
X162695Y24713D02*
X163895D01*
X163295Y24113D02*
Y25313D01*
X160295Y29013D02*
X161495D01*
X160895Y28413D02*
Y29613D01*
X156795Y32513D02*
X157995D01*
X157395Y31913D02*
Y33113D01*
X153295Y36113D02*
X154495D01*
X153895Y35513D02*
Y36713D01*
X139095Y36113D02*
X140295D01*
X139695Y35513D02*
Y36713D01*
X135595Y32513D02*
X136795D01*
X136195Y31913D02*
Y33113D01*
X132095Y29013D02*
X133295D01*
X132695Y28413D02*
Y29613D01*
X129695Y24713D02*
X130895D01*
X130295Y24113D02*
Y25313D01*
X131995Y19713D02*
X133195D01*
X132595Y19113D02*
Y20313D01*
X131995Y14713D02*
X133195D01*
X132595Y14113D02*
Y15313D01*
X131995Y9713D02*
X133195D01*
X132595Y9113D02*
Y10313D01*
X133695Y40713D02*
X134895D01*
X134295Y40113D02*
Y41313D01*
X130195Y37213D02*
X131395D01*
X130795Y36613D02*
Y37813D01*
X126595Y33613D02*
X127795D01*
X127195Y33013D02*
Y34213D01*
X123795Y29513D02*
X124995D01*
X124395Y28913D02*
Y30113D01*
X122695Y24713D02*
X123895D01*
X123295Y24113D02*
Y25313D01*
X120395Y19713D02*
X121595D01*
X120995Y19113D02*
Y20313D01*
X120395Y14713D02*
X121595D01*
X120995Y14113D02*
Y15313D01*
X120395Y9713D02*
X121595D01*
X120995Y9113D02*
Y10313D01*
X122695Y72213D02*
X123895D01*
X123295Y71613D02*
Y72813D01*
X123795Y66813D02*
X124995D01*
X124395Y66213D02*
Y67413D01*
X120395Y81713D02*
X121595D01*
X120995Y81113D02*
Y82313D01*
X131995Y81713D02*
X133195D01*
X132595Y81113D02*
Y82313D01*
X131995Y86713D02*
X133195D01*
X132595Y86113D02*
Y87313D01*
X120395Y86713D02*
X121595D01*
X120995Y86113D02*
Y87313D01*
X43395Y14713D02*
X44595D01*
X43995Y14113D02*
Y15313D01*
X43395Y9713D02*
X44595D01*
X43995Y9113D02*
Y10313D01*
X43395Y4713D02*
X44595D01*
X43995Y4113D02*
Y5313D01*
X54995Y4713D02*
X56195D01*
X55595Y4113D02*
Y5313D01*
X54995Y9713D02*
X56195D01*
X55595Y9113D02*
Y10313D01*
X54995Y14713D02*
X56195D01*
X55595Y14113D02*
Y15313D01*
X19195Y89213D02*
X20395D01*
X19795Y88613D02*
Y89813D01*
X19195Y84213D02*
X20395D01*
X19795Y83613D02*
Y84813D01*
X31195Y89213D02*
X32395D01*
X31795Y88613D02*
Y89813D01*
X79195Y89213D02*
X80395D01*
X79795Y88613D02*
Y89813D01*
X79195Y84213D02*
X80395D01*
X79795Y83613D02*
Y84813D01*
X67195Y89213D02*
X68395D01*
X67795Y88613D02*
Y89813D01*
X67195Y84213D02*
X68395D01*
X67795Y83613D02*
Y84813D01*
X31195Y84213D02*
X32395D01*
X31795Y83613D02*
Y84813D01*
X253795Y32913D02*
X254995D01*
X254395Y32313D02*
Y33513D01*
X254995Y39813D02*
X256195D01*
X255595Y39213D02*
Y40413D01*
X259995Y39513D02*
X261195D01*
X260595Y38913D02*
Y40113D01*
X264595Y37613D02*
X265795D01*
X265195Y37013D02*
Y38213D01*
X268195Y34213D02*
X269395D01*
X268795Y33613D02*
Y34813D01*
X270295Y29713D02*
X271495D01*
X270895Y29113D02*
Y30313D01*
X270695Y24713D02*
X271895D01*
X271295Y24113D02*
Y25313D01*
X272995Y19713D02*
X274195D01*
X273595Y19113D02*
Y20313D01*
X272995Y14713D02*
X274195D01*
X273595Y14113D02*
Y15313D01*
X273195Y9713D02*
X274395D01*
X273795Y9113D02*
Y10313D01*
X272995Y4713D02*
X274195D01*
X273595Y4113D02*
Y5313D01*
X258795Y32413D02*
X259995D01*
X259395Y31813D02*
Y33013D01*
X262695Y29513D02*
X263895D01*
X263295Y28913D02*
Y30113D01*
X263695Y24713D02*
X264895D01*
X264295Y24113D02*
Y25313D01*
X261395Y19713D02*
X262595D01*
X261995Y19113D02*
Y20313D01*
X261395Y14713D02*
X262595D01*
X261995Y14113D02*
Y15313D01*
X261395Y9713D02*
X262595D01*
X261995Y9113D02*
Y10313D01*
X213395Y4713D02*
X214595D01*
X213995Y4113D02*
Y5313D01*
X224995Y4713D02*
X226195D01*
X225595Y4113D02*
Y5313D01*
X215695Y24713D02*
X216895D01*
X216295Y24113D02*
Y25313D01*
X216095Y29713D02*
X217295D01*
X216695Y29113D02*
Y30313D01*
X213395Y19713D02*
X214595D01*
X213995Y19113D02*
Y20313D01*
X232595Y32913D02*
X233795D01*
X233195Y32313D02*
Y33513D01*
X227595Y32413D02*
X228795D01*
X228195Y31813D02*
Y33013D01*
X223695Y29513D02*
X224895D01*
X224295Y28913D02*
Y30113D01*
X222695Y24713D02*
X223895D01*
X223295Y24113D02*
Y25313D01*
X224995Y19713D02*
X226195D01*
X225595Y19113D02*
Y20313D01*
X224995Y14713D02*
X226195D01*
X225595Y14113D02*
Y15313D01*
X224995Y9713D02*
X226195D01*
X225595Y9113D02*
Y10313D01*
X231395Y39813D02*
X232595D01*
X231995Y39213D02*
Y40413D01*
X226395Y39513D02*
X227595D01*
X226995Y38913D02*
Y40113D01*
X221795Y37613D02*
X222995D01*
X222395Y37013D02*
Y38213D01*
X218195Y34213D02*
X219395D01*
X218795Y33613D02*
Y34813D01*
X213395Y14713D02*
X214595D01*
X213995Y14113D02*
Y15313D01*
X213395Y9713D02*
X214595D01*
X213995Y9113D02*
Y10313D01*
X63695Y34213D02*
X64895D01*
X64295Y33613D02*
Y34813D01*
X213395Y91713D02*
X214595D01*
X213995Y91113D02*
Y92313D01*
X224995Y91713D02*
X226195D01*
X225595Y91113D02*
Y92313D01*
X216095Y66713D02*
X217295D01*
X216695Y66113D02*
Y67313D01*
X215695Y71713D02*
X216895D01*
X216295Y71113D02*
Y72313D01*
X204645Y69213D02*
X205945D01*
X205295Y68563D02*
Y69863D01*
X223695Y66913D02*
X224895D01*
X224295Y66313D02*
Y67513D01*
X232595Y63513D02*
X233795D01*
X233195Y62913D02*
Y64113D01*
X227595Y64013D02*
X228795D01*
X228195Y63413D02*
Y64613D01*
X222695Y71713D02*
X223895D01*
X223295Y71113D02*
Y72313D01*
X231395Y56613D02*
X232595D01*
X231995Y56013D02*
Y57213D01*
X226395Y56913D02*
X227595D01*
X226995Y56313D02*
Y57513D01*
X221795Y58813D02*
X222995D01*
X222395Y58213D02*
Y59413D01*
X218195Y62213D02*
X219395D01*
X218795Y61613D02*
Y62813D01*
X224995Y76713D02*
X226195D01*
X225595Y76113D02*
Y77313D01*
X224995Y81713D02*
X226195D01*
X225595Y81113D02*
Y82313D01*
X224995Y86713D02*
X226195D01*
X225595Y86113D02*
Y87313D01*
X213395Y86713D02*
X214595D01*
X213995Y86113D02*
Y87313D01*
X213395Y81713D02*
X214595D01*
X213995Y81113D02*
Y82313D01*
X213395Y76713D02*
X214595D01*
X213995Y76113D02*
Y77313D01*
X253795Y63513D02*
X254995D01*
X254395Y62913D02*
Y64113D01*
X258795Y64013D02*
X259995D01*
X259395Y63413D02*
Y64613D01*
X262695Y66913D02*
X263895D01*
X263295Y66313D02*
Y67513D01*
X263695Y71713D02*
X264895D01*
X264295Y71113D02*
Y72313D01*
X261395Y76713D02*
X262595D01*
X261995Y76113D02*
Y77313D01*
X261395Y81713D02*
X262595D01*
X261995Y81113D02*
Y82313D01*
X261395Y86713D02*
X262595D01*
X261995Y86113D02*
Y87313D01*
X254995Y56613D02*
X256195D01*
X255595Y56013D02*
Y57213D01*
X259995Y56913D02*
X261195D01*
X260595Y56313D02*
Y57513D01*
X264595Y58813D02*
X265795D01*
X265195Y58213D02*
Y59413D01*
X268195Y62213D02*
X269395D01*
X268795Y61613D02*
Y62813D01*
X272995Y76713D02*
X274195D01*
X273595Y76113D02*
Y77313D01*
X270295Y66713D02*
X271495D01*
X270895Y66113D02*
Y67313D01*
X270695Y71713D02*
X271895D01*
X271295Y71113D02*
Y72313D01*
X272995Y81713D02*
X274195D01*
X273595Y81113D02*
Y82313D01*
X272995Y86713D02*
X274195D01*
X273595Y86113D02*
Y87313D01*
X45695Y24713D02*
X46895D01*
X46295Y24113D02*
Y25313D01*
X45695Y29713D02*
X46895D01*
X46295Y29113D02*
Y30313D01*
X45695Y34713D02*
X46895D01*
X46295Y34113D02*
Y35313D01*
X43395Y19713D02*
X44595D01*
X43995Y19113D02*
Y20313D01*
X52695Y34713D02*
X53895D01*
X53295Y34113D02*
Y35313D01*
X52695Y29713D02*
X53895D01*
X53295Y29113D02*
Y30313D01*
X52695Y24713D02*
X53895D01*
X53295Y24113D02*
Y25313D01*
X54995Y19713D02*
X56195D01*
X55595Y19113D02*
Y20313D01*
X59095Y51413D02*
X60295D01*
X59695Y50813D02*
Y52013D01*
X39095Y51413D02*
X40295D01*
X39695Y50813D02*
Y52013D01*
X34095Y51813D02*
X35295D01*
X34695Y51213D02*
Y52413D01*
X29995Y54513D02*
X31195D01*
X30595Y53913D02*
Y55113D01*
X37895Y44713D02*
X39095D01*
X38495Y44113D02*
Y45313D01*
X32895Y44813D02*
X34095D01*
X33495Y44213D02*
Y45413D01*
X28295Y46613D02*
X29495D01*
X28895Y46013D02*
Y47213D01*
X20695Y74213D02*
X21895D01*
X21295Y73613D02*
Y74813D01*
X29695Y74213D02*
X30895D01*
X30295Y73613D02*
Y74813D01*
X19195Y79213D02*
X20395D01*
X19795Y78613D02*
Y79813D01*
X31195Y79213D02*
X32395D01*
X31795Y78613D02*
Y79813D01*
X21695Y69213D02*
X22895D01*
X22295Y68613D02*
Y69813D01*
X21695Y64213D02*
X22895D01*
X22295Y63613D02*
Y64813D01*
X21695Y59213D02*
X22895D01*
X22295Y58613D02*
Y59813D01*
X28695Y59213D02*
X29895D01*
X29295Y58613D02*
Y59813D01*
X28695Y64213D02*
X29895D01*
X29295Y63613D02*
Y64813D01*
X28695Y69213D02*
X29895D01*
X29295Y68613D02*
Y69813D01*
X60495Y44613D02*
X61695D01*
X61095Y44013D02*
Y45213D01*
X70095Y46613D02*
X71295D01*
X70695Y46013D02*
Y47213D01*
X65495Y44813D02*
X66695D01*
X66095Y44213D02*
Y45413D01*
X64095Y51813D02*
X65295D01*
X64695Y51213D02*
Y52413D01*
X76195Y54313D02*
X77395D01*
X76795Y53713D02*
Y54913D01*
X73895Y49813D02*
X75095D01*
X74495Y49213D02*
Y50413D01*
X79195Y79213D02*
X80395D01*
X79795Y78613D02*
Y79813D01*
X67195Y79213D02*
X68395D01*
X67795Y78613D02*
Y79813D01*
X77695Y74213D02*
X78895D01*
X78295Y73613D02*
Y74813D01*
X68695Y74213D02*
X69895D01*
X69295Y73613D02*
Y74813D01*
X76695Y69213D02*
X77895D01*
X77295Y68613D02*
Y69813D01*
X69695Y69213D02*
X70895D01*
X70295Y68613D02*
Y69813D01*
X69695Y59213D02*
X70895D01*
X70295Y58613D02*
Y59813D01*
X68295Y54413D02*
X69495D01*
X68895Y53813D02*
Y55013D01*
X231145Y48213D02*
X232445D01*
X231795Y47563D02*
Y48863D01*
X245945Y48213D02*
X247145D01*
X246545Y47613D02*
Y48813D01*
X240445Y48213D02*
X241645D01*
X241045Y47613D02*
Y48813D01*
X126595Y62813D02*
X127795D01*
X127195Y62213D02*
Y63413D01*
X130195Y59213D02*
X131395D01*
X130795Y58613D02*
Y59813D01*
X133695Y55713D02*
X134895D01*
X134295Y55113D02*
Y56313D01*
X139095Y60313D02*
X140295D01*
X139695Y59713D02*
Y60913D01*
X135595Y63913D02*
X136795D01*
X136195Y63313D02*
Y64513D01*
X132095Y67413D02*
X133295D01*
X132695Y66813D02*
Y68013D01*
X129695Y72213D02*
X130895D01*
X130295Y71613D02*
Y72813D01*
X131995Y76713D02*
X133195D01*
X132595Y76113D02*
Y77313D01*
X120395Y76713D02*
X121595D01*
X120995Y76113D02*
Y77313D01*
X24495Y49813D02*
X25695D01*
X25095Y49213D02*
Y50413D01*
X22195Y54313D02*
X23395D01*
X22795Y53713D02*
Y54913D01*
X149024Y66713D02*
X150324D01*
X149674Y66063D02*
Y67363D01*
X45145Y59713D02*
X46445D01*
X45795Y59063D02*
Y60363D01*
X166145Y58213D02*
X167445D01*
X166795Y57563D02*
Y58863D01*
X204645Y22213D02*
X205945D01*
X205295Y21563D02*
Y22863D01*
X204645Y27213D02*
X205945D01*
X205295Y26563D02*
Y27863D01*
X233645Y22213D02*
X234945D01*
X234295Y21563D02*
Y22863D01*
X204645Y74213D02*
X205945D01*
X205295Y73563D02*
Y74863D01*
X233645Y74213D02*
X234945D01*
X234295Y73563D02*
Y74863D01*
X237145Y24213D02*
X238445D01*
X237795Y23563D02*
Y24863D01*
X239145Y72213D02*
X240445D01*
X239795Y71563D02*
Y72863D01*
X249145Y72713D02*
X250445D01*
X249795Y72063D02*
Y73363D01*
X247145Y24213D02*
X248445D01*
X247795Y23563D02*
Y24863D01*
M02*
