G04*
G04 #@! TF.GenerationSoftware,Altium Limited,Altium Designer,24.4.1 (13)*
G04*
G04 Layer_Physical_Order=1*
G04 Layer_Color=255*
%FSLAX25Y25*%
%MOIN*%
G70*
G04*
G04 #@! TF.SameCoordinates,9EAFE7E4-189C-44CB-946A-5F511CB8720B*
G04*
G04*
G04 #@! TF.FilePolarity,Positive*
G04*
G01*
G75*
%ADD28C,0.02700*%
%ADD29C,0.03000*%
%ADD30R,0.08268X0.08268*%
%ADD31R,0.01181X0.03937*%
%ADD32R,0.03937X0.01181*%
%ADD33P,0.11692X4X90.0*%
G04:AMPARAMS|DCode=34|XSize=39.37mil|YSize=11.81mil|CornerRadius=0mil|HoleSize=0mil|Usage=FLASHONLY|Rotation=45.000|XOffset=0mil|YOffset=0mil|HoleType=Round|Shape=Rectangle|*
%AMROTATEDRECTD34*
4,1,4,-0.00974,-0.01810,-0.01810,-0.00974,0.00974,0.01810,0.01810,0.00974,-0.00974,-0.01810,0.0*
%
%ADD34ROTATEDRECTD34*%

G04:AMPARAMS|DCode=35|XSize=39.37mil|YSize=11.81mil|CornerRadius=0mil|HoleSize=0mil|Usage=FLASHONLY|Rotation=315.000|XOffset=0mil|YOffset=0mil|HoleType=Round|Shape=Rectangle|*
%AMROTATEDRECTD35*
4,1,4,-0.01810,0.00974,-0.00974,0.01810,0.01810,-0.00974,0.00974,-0.01810,-0.01810,0.00974,0.0*
%
%ADD35ROTATEDRECTD35*%

%ADD36R,0.06000X0.16000*%
%ADD37R,0.07000X0.16000*%
%ADD38R,0.05906X0.05118*%
%ADD39R,0.05118X0.05906*%
%ADD40C,0.01000*%
%ADD41C,0.00700*%
%ADD42C,0.01100*%
%ADD43C,0.08661*%
%ADD44C,0.07087*%
%ADD45R,0.07087X0.07087*%
%ADD46R,0.07087X0.07087*%
%ADD47C,0.02400*%
%ADD48C,0.02600*%
G36*
X199827Y82981D02*
X199227Y82799D01*
X199088Y83006D01*
X198724Y83249D01*
X198295Y83334D01*
X179533D01*
X179329Y83934D01*
X179750Y84258D01*
X180414Y85123D01*
X180832Y86131D01*
X180974Y87213D01*
X180832Y88294D01*
X180414Y89302D01*
X179750Y90168D01*
X179130Y90644D01*
X179333Y91244D01*
X199827D01*
Y82981D01*
D02*
G37*
G36*
X269145Y72650D02*
X266445D01*
X264807Y78725D01*
X270783D01*
X269145Y72650D01*
D02*
G37*
G36*
X221145D02*
X218445D01*
X216807Y78725D01*
X222783D01*
X221145Y72650D01*
D02*
G37*
G36*
X128145D02*
X125445D01*
X123807Y78725D01*
X129783D01*
X128145Y72650D01*
D02*
G37*
G36*
X75145D02*
X72445D01*
X70807Y78725D01*
X76783D01*
X75145Y72650D01*
D02*
G37*
G36*
X27145D02*
X24445D01*
X22807Y78725D01*
X28783D01*
X27145Y72650D01*
D02*
G37*
G36*
X290348Y1275D02*
X271995D01*
Y18913D01*
X269936Y24559D01*
Y26213D01*
X269930Y26243D01*
X269783Y28111D01*
X269339Y29963D01*
X268610Y31723D01*
X267615Y33347D01*
X266378Y34795D01*
X264930Y36032D01*
X263305Y37027D01*
X261546Y37756D01*
X259694Y38201D01*
X257826Y38348D01*
X257795Y38354D01*
X255795D01*
X254976Y38191D01*
X254714Y38016D01*
X254660Y38017D01*
X253057Y37403D01*
X248707D01*
Y35022D01*
X253057D01*
X254660Y34408D01*
X254714Y34409D01*
X254976Y34234D01*
X255795Y34071D01*
X257795D01*
X257893Y34091D01*
X259334Y33949D01*
X260814Y33500D01*
X262178Y32771D01*
X263373Y31790D01*
X264354Y30595D01*
X265083Y29231D01*
X265532Y27751D01*
X265674Y26311D01*
X265654Y26213D01*
Y24559D01*
X263595Y18913D01*
Y1275D01*
X223995Y1275D01*
Y18913D01*
X222019Y23371D01*
X221783Y23903D01*
X221783D01*
X221783Y23903D01*
Y26213D01*
X221765Y26303D01*
X221911Y27781D01*
X222369Y29289D01*
X223111Y30679D01*
X224111Y31897D01*
X225329Y32897D01*
X226719Y33639D01*
X228227Y34097D01*
X229705Y34242D01*
X229795Y34224D01*
X232295D01*
X232576Y34280D01*
X232618Y34263D01*
X232734Y34311D01*
X232859Y34310D01*
X232993Y34363D01*
X233056Y34376D01*
X233103Y34407D01*
X234636Y35019D01*
X234639Y35022D01*
X238883D01*
Y37403D01*
X234620D01*
X233108Y38015D01*
X233056Y38050D01*
X232990Y38063D01*
X232861Y38115D01*
X232735Y38114D01*
X232618Y38162D01*
X232576Y38145D01*
X232295Y38201D01*
X229795D01*
X229785Y38199D01*
X227920Y38052D01*
X226091Y37613D01*
X224353Y36893D01*
X222749Y35910D01*
X221319Y34689D01*
X220098Y33258D01*
X219115Y31655D01*
X218395Y29917D01*
X217956Y28088D01*
X217809Y26223D01*
X217807Y26213D01*
Y23903D01*
X216693Y21389D01*
X215595Y18913D01*
Y1275D01*
X170995D01*
Y18913D01*
X169122Y23712D01*
X168933Y24197D01*
X168928Y24218D01*
X168920Y24229D01*
X168875Y24810D01*
X168783Y25969D01*
X168339Y27821D01*
X167610Y29581D01*
X166615Y31205D01*
X165551Y32450D01*
X165481Y32555D01*
X156509Y41527D01*
X155815Y41991D01*
X155506Y42052D01*
X155469Y42091D01*
X153901Y42791D01*
X151110Y45581D01*
X149427Y43898D01*
X152217Y41107D01*
X152917Y39539D01*
X152956Y39502D01*
X153017Y39193D01*
X153481Y38499D01*
X162453Y29527D01*
X162496Y29498D01*
X163354Y28453D01*
X164083Y27089D01*
X164532Y25609D01*
X164668Y24225D01*
X164663Y24218D01*
X164659Y24203D01*
X164460Y23692D01*
X162595Y18913D01*
Y1275D01*
X130995Y1275D01*
Y18913D01*
X128865Y23719D01*
X128795Y24132D01*
X128784Y24225D01*
X128783Y24462D01*
X128822Y24859D01*
X128906Y25714D01*
X129344Y27157D01*
X130055Y28487D01*
X130632Y29190D01*
X131030Y29635D01*
X131030D01*
X131446Y30052D01*
X140201Y38807D01*
X140632Y39452D01*
X140684Y39714D01*
X140718Y39744D01*
X141369Y41102D01*
X144164Y43898D01*
X142480Y45581D01*
X139685Y42786D01*
X138327Y42135D01*
X138297Y42102D01*
X138034Y42050D01*
X137389Y41618D01*
X128218Y32447D01*
X128207Y32431D01*
X127033Y31056D01*
X126078Y29498D01*
X125379Y27810D01*
X124953Y26034D01*
X124829Y24465D01*
X124811Y24232D01*
X124811Y24232D01*
X124807Y24213D01*
X124753Y23781D01*
X122595Y18913D01*
Y1275D01*
X53995D01*
Y18913D01*
X51784Y23903D01*
Y36713D01*
X51632Y37473D01*
X51484Y37696D01*
X51486Y37741D01*
X50986Y39162D01*
Y43301D01*
X48605D01*
Y39162D01*
X48105Y37741D01*
X48107Y37696D01*
X47958Y37473D01*
X47807Y36713D01*
Y23903D01*
X47807Y23903D01*
X45595Y18913D01*
Y1275D01*
X1275D01*
Y95226D01*
X21595D01*
Y77513D01*
X23807Y72522D01*
Y58213D01*
X23809Y58202D01*
X23956Y56337D01*
X24395Y54508D01*
X25115Y52771D01*
X26098Y51167D01*
X27319Y49736D01*
X28749Y48515D01*
X30353Y47532D01*
X32091Y46812D01*
X33920Y46373D01*
X35785Y46227D01*
X35795Y46224D01*
X38295D01*
X39056Y46376D01*
X39278Y46524D01*
X39323Y46522D01*
X40744Y47022D01*
X44883D01*
Y49403D01*
X40744D01*
X39323Y49903D01*
X39278Y49901D01*
X39056Y50050D01*
X38295Y50201D01*
X35795D01*
X35705Y50183D01*
X34227Y50328D01*
X32719Y50786D01*
X31329Y51529D01*
X30111Y52528D01*
X29111Y53746D01*
X28368Y55136D01*
X27911Y56644D01*
X27766Y58122D01*
X27784Y58213D01*
Y72522D01*
X27784Y72522D01*
X29995Y77513D01*
Y95226D01*
X69595Y95226D01*
Y77513D01*
X71654Y71866D01*
X71807Y71297D01*
Y58213D01*
X71825Y58122D01*
X71680Y56644D01*
X71222Y55136D01*
X70479Y53746D01*
X69480Y52528D01*
X68261Y51529D01*
X66872Y50786D01*
X65364Y50328D01*
X63886Y50183D01*
X63795Y50201D01*
X61295D01*
X60534Y50050D01*
X60312Y49901D01*
X60267Y49903D01*
X58846Y49403D01*
X54707D01*
Y47022D01*
X58846D01*
X60267Y46522D01*
X60312Y46524D01*
X60534Y46376D01*
X61295Y46224D01*
X63795D01*
X63806Y46227D01*
X65671Y46373D01*
X67500Y46812D01*
X69237Y47532D01*
X70841Y48515D01*
X72271Y49736D01*
X73493Y51167D01*
X74476Y52771D01*
X75196Y54508D01*
X75635Y56337D01*
X75781Y58202D01*
X75783Y58213D01*
Y71297D01*
X75937Y71866D01*
X77995Y77513D01*
Y95226D01*
X122595Y95226D01*
Y77513D01*
X124750Y72651D01*
X124807Y72355D01*
X124809Y72345D01*
X124809Y72344D01*
X124839Y71959D01*
X124956Y70480D01*
X125395Y68651D01*
X126115Y66913D01*
X127098Y65309D01*
X128312Y63887D01*
X128318Y63878D01*
X137389Y54807D01*
X138034Y54376D01*
X138305Y54322D01*
X138341Y54283D01*
X139612Y53712D01*
X142480Y50844D01*
X144164Y52528D01*
X141295Y55396D01*
X140725Y56667D01*
X140686Y56703D01*
X140632Y56973D01*
X140201Y57618D01*
X131130Y66689D01*
X131053Y66741D01*
X130111Y67889D01*
X129368Y69279D01*
X128911Y70786D01*
X128854Y71367D01*
X128795Y71965D01*
X128791Y72179D01*
X128822Y72470D01*
X128918Y72825D01*
X130995Y77513D01*
Y95226D01*
X166456D01*
X166515Y94626D01*
X166425Y94608D01*
X166110Y94397D01*
X165900Y94083D01*
X165827Y93713D01*
Y91264D01*
X165714Y91249D01*
X164706Y90832D01*
X163840Y90168D01*
X163176Y89302D01*
X162759Y88294D01*
X162616Y87213D01*
X162759Y86131D01*
X163176Y85123D01*
X163840Y84258D01*
X164262Y83934D01*
X164058Y83334D01*
X160939D01*
Y91356D01*
X152652D01*
Y83069D01*
X155674D01*
Y82213D01*
X155759Y81783D01*
X156002Y81419D01*
X156366Y81176D01*
X156795Y81091D01*
X164058D01*
X164262Y80491D01*
X163840Y80168D01*
X163176Y79302D01*
X162759Y78294D01*
X162616Y77213D01*
X162759Y76131D01*
X163176Y75123D01*
X163840Y74258D01*
X164706Y73593D01*
X165674Y73193D01*
Y68213D01*
X165759Y67783D01*
X166002Y67419D01*
X166366Y67176D01*
X166795Y67091D01*
X175174D01*
Y56834D01*
X168881D01*
X168560Y57434D01*
X168585Y57471D01*
X168733Y58213D01*
X168585Y58954D01*
X168165Y59582D01*
X167537Y60002D01*
X166795Y60150D01*
X166054Y60002D01*
X165426Y59582D01*
X165260Y59334D01*
X159579D01*
X159150Y59249D01*
X158786Y59006D01*
X158786Y59006D01*
X154500Y54719D01*
X154451Y54768D01*
X150819Y51136D01*
X152210Y49744D01*
X153894Y48060D01*
X157527Y51692D01*
X157478Y51741D01*
X160328Y54591D01*
X163242D01*
Y48794D01*
X170348D01*
Y54591D01*
X172742D01*
Y48794D01*
X179848D01*
Y55112D01*
X177417D01*
Y55713D01*
Y67091D01*
X190827D01*
Y22713D01*
Y22213D01*
X190900Y21842D01*
X191110Y21528D01*
X191425Y21318D01*
X191795Y21244D01*
X203657D01*
X203925Y20843D01*
X204554Y20423D01*
X205295Y20275D01*
X206037Y20423D01*
X206665Y20843D01*
X207085Y21471D01*
X207232Y22213D01*
X207085Y22954D01*
X206665Y23582D01*
X206037Y24002D01*
X205295Y24150D01*
X204554Y24002D01*
X203925Y23582D01*
X203657Y23181D01*
X192764D01*
Y25758D01*
X193295Y26244D01*
X203657D01*
X203925Y25843D01*
X204554Y25423D01*
X205295Y25275D01*
X206037Y25423D01*
X206665Y25843D01*
X207085Y26471D01*
X207232Y27213D01*
X207085Y27954D01*
X206665Y28582D01*
X206037Y29002D01*
X205295Y29150D01*
X204554Y29002D01*
X203925Y28582D01*
X203657Y28181D01*
X194264D01*
Y70213D01*
X194190Y70583D01*
X193980Y70898D01*
X193666Y71108D01*
X193295Y71181D01*
X177764D01*
Y73161D01*
X177877Y73176D01*
X178885Y73593D01*
X179750Y74258D01*
X180414Y75123D01*
X180832Y76131D01*
X180974Y77213D01*
X180832Y78294D01*
X180414Y79302D01*
X179750Y80168D01*
X179329Y80491D01*
X179533Y81091D01*
X197174D01*
Y48213D01*
X197259Y47783D01*
X197502Y47420D01*
X197866Y47176D01*
X198295Y47091D01*
X230260D01*
X230426Y46843D01*
X231054Y46423D01*
X231795Y46275D01*
X232537Y46423D01*
X233165Y46843D01*
X233585Y47471D01*
X233733Y48213D01*
X233585Y48954D01*
X233165Y49582D01*
X232537Y50002D01*
X231795Y50150D01*
X231054Y50002D01*
X230426Y49582D01*
X230260Y49334D01*
X199417D01*
Y68486D01*
X200017Y68668D01*
X200110Y68528D01*
X200425Y68318D01*
X200795Y68244D01*
X203657D01*
X203925Y67843D01*
X204554Y67423D01*
X205295Y67275D01*
X206037Y67423D01*
X206665Y67843D01*
X207085Y68471D01*
X207232Y69213D01*
X207085Y69954D01*
X206665Y70582D01*
X206037Y71002D01*
X205295Y71150D01*
X204554Y71002D01*
X203925Y70582D01*
X203657Y70181D01*
X201764D01*
Y72758D01*
X202295Y73244D01*
X203657D01*
X203925Y72843D01*
X204554Y72423D01*
X205295Y72275D01*
X206037Y72423D01*
X206665Y72843D01*
X207085Y73471D01*
X207232Y74213D01*
X207085Y74954D01*
X206665Y75582D01*
X206037Y76002D01*
X205295Y76150D01*
X204554Y76002D01*
X203925Y75582D01*
X203864Y75490D01*
X203264Y75672D01*
Y93713D01*
X203190Y94083D01*
X202980Y94397D01*
X202666Y94608D01*
X202575Y94626D01*
X202634Y95226D01*
X215595D01*
Y77513D01*
X217571Y73054D01*
X217807Y72522D01*
X217807D01*
X217807Y72522D01*
Y70213D01*
X217809Y70202D01*
X217956Y68337D01*
X218395Y66508D01*
X219115Y64771D01*
X220098Y63167D01*
X221319Y61737D01*
X222749Y60515D01*
X224353Y59532D01*
X226091Y58812D01*
X227920Y58373D01*
X229785Y58227D01*
X229795Y58224D01*
X232295D01*
X233056Y58376D01*
X233278Y58524D01*
X233323Y58522D01*
X234744Y59022D01*
X238883D01*
Y61403D01*
X234744D01*
X233323Y61903D01*
X233278Y61901D01*
X233056Y62050D01*
X232295Y62201D01*
X229795D01*
X229705Y62183D01*
X228227Y62328D01*
X226719Y62786D01*
X225329Y63529D01*
X224111Y64528D01*
X223111Y65746D01*
X222369Y67136D01*
X221911Y68644D01*
X221765Y70122D01*
X221783Y70213D01*
Y72522D01*
X222898Y75036D01*
X223995Y77513D01*
Y95226D01*
X263595Y95226D01*
Y77513D01*
X265452Y72421D01*
X265654Y71866D01*
X265807Y71297D01*
Y70213D01*
X265825Y70122D01*
X265680Y68644D01*
X265222Y67136D01*
X264479Y65746D01*
X263479Y64528D01*
X262261Y63529D01*
X260872Y62786D01*
X259364Y62328D01*
X257886Y62183D01*
X257795Y62201D01*
X255295D01*
X254534Y62050D01*
X254305Y61896D01*
X254252Y61898D01*
X252950Y61403D01*
X248707D01*
Y59022D01*
X252950D01*
X254252Y58527D01*
X254305Y58529D01*
X254534Y58376D01*
X255295Y58224D01*
X257795D01*
X257806Y58227D01*
X259670Y58373D01*
X261499Y58812D01*
X263237Y59532D01*
X264841Y60515D01*
X266271Y61737D01*
X267493Y63167D01*
X268476Y64771D01*
X269196Y66508D01*
X269635Y68337D01*
X269781Y70202D01*
X269783Y70213D01*
Y71297D01*
X269936Y71866D01*
X269936Y71866D01*
X271995Y77513D01*
X271995Y77513D01*
X271995Y78015D01*
Y95226D01*
X290348D01*
Y1275D01*
D02*
G37*
G36*
X254483Y59134D02*
X252961Y59713D01*
Y60713D01*
X254483Y61291D01*
Y59134D01*
D02*
G37*
G36*
X234608Y60763D02*
Y59663D01*
X233108Y59134D01*
Y61291D01*
X234608Y60763D01*
D02*
G37*
G36*
X140799Y54916D02*
X140092Y54209D01*
X138607Y54876D01*
X140132Y56401D01*
X140799Y54916D01*
D02*
G37*
G36*
X60483Y47134D02*
X58982Y47663D01*
Y48763D01*
X60483Y49291D01*
Y47134D01*
D02*
G37*
G36*
X40608Y48763D02*
Y47663D01*
X39108Y47134D01*
Y49291D01*
X40608Y48763D01*
D02*
G37*
G36*
X140820Y41459D02*
X140132Y40025D01*
X138607Y41550D01*
X140042Y42237D01*
X140820Y41459D01*
D02*
G37*
G36*
X155204Y41498D02*
X153510Y39804D01*
X152771Y41459D01*
X153549Y42237D01*
X155204Y41498D01*
D02*
G37*
G36*
X50874Y37525D02*
X48717D01*
X49245Y39026D01*
X50345D01*
X50874Y37525D01*
D02*
G37*
G36*
X254893Y35015D02*
X253200Y35663D01*
Y36763D01*
X254893Y37411D01*
Y35015D01*
D02*
G37*
G36*
X234395Y36793D02*
Y35623D01*
X232618Y34913D01*
Y37513D01*
X234395Y36793D01*
D02*
G37*
G36*
X270783Y17701D02*
X264807D01*
X266295Y24451D01*
X269295D01*
X270783Y17701D01*
D02*
G37*
G36*
X222783D02*
X216807D01*
X218445Y23776D01*
X221145D01*
X222783Y17701D01*
D02*
G37*
G36*
X169783D02*
X163807D01*
X165295Y24070D01*
X168295D01*
X169783Y17701D01*
D02*
G37*
G36*
X129783D02*
X123807D01*
X125445Y23776D01*
X128145D01*
X129783Y17701D01*
D02*
G37*
G36*
X52783D02*
X46807D01*
X48445Y23776D01*
X51145D01*
X52783Y17701D01*
D02*
G37*
%LPC*%
G36*
X251848Y82131D02*
X244742D01*
Y75834D01*
X242848D01*
Y82131D01*
X235742D01*
Y76152D01*
X235142Y75932D01*
X235037Y76002D01*
X234295Y76150D01*
X233554Y76002D01*
X232926Y75582D01*
X232505Y74954D01*
X232358Y74213D01*
X232505Y73471D01*
X232926Y72843D01*
X233554Y72423D01*
X234295Y72275D01*
X235037Y72423D01*
X235665Y72843D01*
X236085Y73471D01*
X236109Y73591D01*
X237710D01*
X238030Y72991D01*
X238005Y72954D01*
X237858Y72213D01*
X238005Y71471D01*
X238425Y70843D01*
X238476Y70809D01*
X238668Y70261D01*
X238668Y70261D01*
X238668Y70261D01*
Y67432D01*
X238666Y67420D01*
X238668Y67207D01*
Y65124D01*
X241049D01*
Y70261D01*
X241049Y70261D01*
X241049D01*
X241165Y70843D01*
X241585Y71471D01*
X241733Y72213D01*
X241585Y72954D01*
X241560Y72991D01*
X241881Y73591D01*
X244674D01*
Y70261D01*
X244573D01*
Y65124D01*
X248923D01*
Y70254D01*
X249502Y70834D01*
X249795Y70775D01*
X250537Y70923D01*
X251165Y71343D01*
X251585Y71971D01*
X251732Y72713D01*
X251585Y73454D01*
X251165Y74082D01*
X250537Y74502D01*
X249795Y74650D01*
X249417Y75186D01*
Y75813D01*
X251848D01*
Y82131D01*
D02*
G37*
G36*
X157214Y70265D02*
X150896D01*
Y68848D01*
X150296Y68526D01*
X149674Y68650D01*
X148932Y68502D01*
X148304Y68082D01*
X147884Y67454D01*
X147737Y66713D01*
X147884Y65971D01*
X148304Y65343D01*
X148932Y64923D01*
X149674Y64775D01*
X150296Y64899D01*
X150896Y64578D01*
Y63160D01*
X152674D01*
Y61182D01*
X150338Y58881D01*
X150275Y58944D01*
X146643Y55312D01*
X148326Y53628D01*
X151959Y57260D01*
Y57260D01*
X151959Y57330D01*
X154582Y59913D01*
X154585Y59917D01*
X154588Y59920D01*
X154708Y60098D01*
X154828Y60276D01*
X154829Y60280D01*
X154832Y60283D01*
X154873Y60493D01*
X154917Y60704D01*
X154916Y60708D01*
X154917Y60713D01*
Y63160D01*
X157214D01*
Y70265D01*
D02*
G37*
G36*
X57348Y70631D02*
X50243D01*
Y64313D01*
X50243D01*
X50027Y63803D01*
X49064D01*
X48848Y64313D01*
X48848D01*
Y70631D01*
X41743D01*
Y64313D01*
X44174D01*
Y62681D01*
X44259Y62252D01*
X44502Y61888D01*
X44527Y61872D01*
Y61150D01*
X44425Y61082D01*
X44006Y60454D01*
X43858Y59713D01*
X44006Y58971D01*
X44425Y58343D01*
X44668Y58181D01*
Y53124D01*
X47049D01*
Y58261D01*
X47049Y58261D01*
X47049D01*
X47121Y58312D01*
X47165Y58343D01*
X47585Y58971D01*
X47732Y59713D01*
X47585Y60454D01*
X47247Y60960D01*
X47394Y61396D01*
X47513Y61560D01*
X50642D01*
Y58261D01*
X50573D01*
Y53124D01*
X54923D01*
Y57754D01*
X55587Y58419D01*
X55795Y58377D01*
X56497Y58517D01*
X57093Y58915D01*
X57491Y59510D01*
X57630Y60212D01*
X57491Y60915D01*
X57461Y60960D01*
X57781Y61560D01*
X58764D01*
X58764Y61559D01*
X59193Y61645D01*
X59557Y61888D01*
X60588Y62919D01*
X60588Y62919D01*
X60831Y63283D01*
X60917Y63713D01*
X60917Y63713D01*
Y65177D01*
X61165Y65343D01*
X61585Y65971D01*
X61733Y66713D01*
X61585Y67454D01*
X61165Y68082D01*
X60537Y68502D01*
X59795Y68650D01*
X59054Y68502D01*
X58425Y68082D01*
X58005Y67454D01*
X57948Y67165D01*
X57348Y67224D01*
Y70631D01*
D02*
G37*
G36*
X105295Y57392D02*
X104214Y57249D01*
X103206Y56832D01*
X102340Y56168D01*
X101676Y55302D01*
X101259Y54294D01*
X101116Y53213D01*
X101259Y52131D01*
X101676Y51123D01*
X102340Y50258D01*
X103206Y49593D01*
X104214Y49176D01*
X105295Y49034D01*
X106377Y49176D01*
X107385Y49593D01*
X108250Y50258D01*
X108914Y51123D01*
X109332Y52131D01*
X109474Y53213D01*
X109332Y54294D01*
X108914Y55302D01*
X108250Y56168D01*
X107385Y56832D01*
X106377Y57249D01*
X105295Y57392D01*
D02*
G37*
G36*
X95295D02*
X94214Y57249D01*
X93206Y56832D01*
X92340Y56168D01*
X91676Y55302D01*
X91259Y54294D01*
X91116Y53213D01*
X91259Y52131D01*
X91676Y51123D01*
X92340Y50258D01*
X93206Y49593D01*
X94214Y49176D01*
X95295Y49034D01*
X96377Y49176D01*
X97385Y49593D01*
X98250Y50258D01*
X98914Y51123D01*
X99332Y52131D01*
X99474Y53213D01*
X99332Y54294D01*
X98914Y55302D01*
X98250Y56168D01*
X97385Y56832D01*
X96377Y57249D01*
X95295Y57392D01*
D02*
G37*
G36*
X244986Y55301D02*
X242605D01*
Y50164D01*
X242623D01*
Y46261D01*
X242605D01*
Y41124D01*
X244986D01*
Y46261D01*
X244968D01*
Y50164D01*
X244986D01*
Y55301D01*
D02*
G37*
G36*
X276795Y55403D02*
X275393Y55265D01*
X274044Y54855D01*
X272801Y54191D01*
X271711Y53297D01*
X270817Y52207D01*
X270152Y50964D01*
X269743Y49615D01*
X269605Y48213D01*
X269743Y46810D01*
X270152Y45461D01*
X270817Y44218D01*
X271711Y43128D01*
X272801Y42234D01*
X274044Y41570D01*
X275393Y41161D01*
X276795Y41023D01*
X278198Y41161D01*
X279547Y41570D01*
X280790Y42234D01*
X281879Y43128D01*
X282774Y44218D01*
X283438Y45461D01*
X283847Y46810D01*
X283985Y48213D01*
X283847Y49615D01*
X283438Y50964D01*
X282774Y52207D01*
X281879Y53297D01*
X280790Y54191D01*
X279547Y54855D01*
X278198Y55265D01*
X276795Y55403D01*
D02*
G37*
G36*
X105295Y47392D02*
X104214Y47249D01*
X103206Y46832D01*
X102340Y46168D01*
X101676Y45302D01*
X101259Y44294D01*
X101116Y43213D01*
X101259Y42131D01*
X101676Y41123D01*
X102340Y40258D01*
X103206Y39593D01*
X104174Y39193D01*
Y35334D01*
X65711D01*
X65593Y35510D01*
X64998Y35908D01*
X64295Y36048D01*
X63593Y35908D01*
X62998Y35510D01*
X62600Y34915D01*
X62460Y34213D01*
X62600Y33510D01*
X62998Y32915D01*
X63593Y32517D01*
X64295Y32377D01*
X64998Y32517D01*
X65593Y32915D01*
X65711Y33091D01*
X105295D01*
X105725Y33176D01*
X106088Y33419D01*
X106332Y33783D01*
X106417Y34213D01*
Y39193D01*
X107385Y39593D01*
X108250Y40258D01*
X108914Y41123D01*
X109332Y42131D01*
X109474Y43213D01*
X109332Y44294D01*
X108914Y45302D01*
X108250Y46168D01*
X107385Y46832D01*
X106377Y47249D01*
X105295Y47392D01*
D02*
G37*
G36*
X248923Y31301D02*
X246542D01*
Y26164D01*
X246542Y26164D01*
X246542D01*
X246426Y25582D01*
X246006Y24954D01*
X245858Y24213D01*
X246006Y23471D01*
X246030Y23434D01*
X245710Y22834D01*
X242948D01*
Y26164D01*
X243017D01*
Y31301D01*
X238668D01*
Y26567D01*
X238102Y26089D01*
X237795Y26150D01*
X237054Y26002D01*
X236425Y25582D01*
X236005Y24954D01*
X235858Y24213D01*
X235867Y24169D01*
X235327Y23809D01*
X235037Y24002D01*
X234295Y24150D01*
X233554Y24002D01*
X232926Y23582D01*
X232505Y22954D01*
X232358Y22213D01*
X232505Y21471D01*
X232926Y20843D01*
X233554Y20423D01*
X234295Y20275D01*
X235037Y20423D01*
X235288Y20591D01*
X236243D01*
Y14294D01*
X243348D01*
Y20591D01*
X244742D01*
Y14294D01*
X251848D01*
Y20612D01*
X249417D01*
Y21713D01*
X249331Y22142D01*
X249088Y22506D01*
X249319Y23073D01*
X249585Y23471D01*
X249732Y24213D01*
X249585Y24954D01*
X249165Y25582D01*
X249114Y25616D01*
X248923Y26164D01*
X248923Y26164D01*
X248923Y26164D01*
Y31301D01*
D02*
G37*
G36*
X17347Y36805D02*
X15945Y36667D01*
X14596Y36258D01*
X13353Y35594D01*
X12263Y34699D01*
X11369Y33610D01*
X10704Y32367D01*
X10295Y31018D01*
X10157Y29615D01*
X10295Y28213D01*
X10704Y26864D01*
X11369Y25621D01*
X12263Y24531D01*
X13353Y23637D01*
X14596Y22973D01*
X15945Y22563D01*
X17347Y22425D01*
X18750Y22563D01*
X20099Y22973D01*
X21342Y23637D01*
X22431Y24531D01*
X23326Y25621D01*
X23990Y26864D01*
X24399Y28213D01*
X24537Y29615D01*
X24399Y31018D01*
X23990Y32367D01*
X23326Y33610D01*
X22431Y34699D01*
X21342Y35594D01*
X20099Y36258D01*
X18750Y36667D01*
X17347Y36805D01*
D02*
G37*
%LPD*%
D28*
X126795Y72355D02*
G03*
X129724Y65284I10000J0D01*
G01*
X219795Y70213D02*
G03*
X229795Y60213I10000J0D01*
G01*
X63795Y48213D02*
G03*
X73795Y58213I0J10000D01*
G01*
X25795D02*
G03*
X35795Y48213I10000J0D01*
G01*
X257795Y60213D02*
G03*
X267795Y70213I0J10000D01*
G01*
X129624Y31041D02*
G03*
X126795Y24213I6828J-6828D01*
G01*
X229795Y36213D02*
G03*
X219795Y26213I0J-10000D01*
G01*
X73795Y58213D02*
Y86713D01*
X129724Y65284D02*
X138795Y56213D01*
X126795Y72355D02*
Y86713D01*
X61295Y48213D02*
X63795D01*
X25795Y58213D02*
Y86713D01*
X219795Y70213D02*
Y86713D01*
X267795Y70213D02*
Y86713D01*
X255295Y60213D02*
X257795D01*
X49795Y9713D02*
Y36713D01*
X35795Y48213D02*
X38295D01*
X129624Y31041D02*
X138795Y40213D01*
X126795Y9713D02*
Y24213D01*
X229795Y60213D02*
X232295D01*
X229795Y36213D02*
X232295D01*
X219795Y9713D02*
Y26213D01*
D29*
X166795Y24070D02*
G03*
X163866Y31141I-10000J0D01*
G01*
X267795Y26213D02*
G03*
X257795Y36213I-10000J0D01*
G01*
X154995Y40013D02*
X163967Y31041D01*
X166795Y9713D02*
Y24070D01*
X255795Y36213D02*
X257795D01*
X267795Y9713D02*
Y26213D01*
D30*
X49795Y48213D02*
D03*
X243795Y36213D02*
D03*
Y60213D02*
D03*
D31*
X45858Y55693D02*
D03*
X47827D02*
D03*
X49795D02*
D03*
X51764D02*
D03*
X53732D02*
D03*
Y40732D02*
D03*
X51764D02*
D03*
X49795D02*
D03*
X47827D02*
D03*
X45858D02*
D03*
X247732Y28732D02*
D03*
X245764D02*
D03*
X243795D02*
D03*
X241827D02*
D03*
X239858D02*
D03*
Y43693D02*
D03*
X241827D02*
D03*
X243795D02*
D03*
X245764D02*
D03*
X247732D02*
D03*
X239858Y67693D02*
D03*
X241827D02*
D03*
X243795D02*
D03*
X245764D02*
D03*
X247732D02*
D03*
Y52732D02*
D03*
X245764D02*
D03*
X243795D02*
D03*
X241827D02*
D03*
X239858D02*
D03*
D32*
X57276Y52150D02*
D03*
Y50181D02*
D03*
Y48213D02*
D03*
Y46244D02*
D03*
Y44276D02*
D03*
X42315D02*
D03*
Y46244D02*
D03*
Y48213D02*
D03*
Y50181D02*
D03*
Y52150D02*
D03*
X236315Y32276D02*
D03*
Y34244D02*
D03*
Y36213D02*
D03*
Y38181D02*
D03*
Y40150D02*
D03*
X251276D02*
D03*
Y38181D02*
D03*
Y36213D02*
D03*
Y34244D02*
D03*
Y32276D02*
D03*
Y64150D02*
D03*
Y62181D02*
D03*
Y60213D02*
D03*
Y58244D02*
D03*
Y56276D02*
D03*
X236315D02*
D03*
Y58244D02*
D03*
Y60213D02*
D03*
Y62181D02*
D03*
Y64150D02*
D03*
D33*
X146795Y48213D02*
D03*
D34*
X149301Y56286D02*
D03*
X150693Y54894D02*
D03*
X152085Y53502D02*
D03*
X153477Y52110D02*
D03*
X154868Y50718D02*
D03*
X144290Y40139D02*
D03*
X142898Y41531D02*
D03*
X141506Y42923D02*
D03*
X140114Y44315D02*
D03*
X138722Y45707D02*
D03*
D35*
X154868D02*
D03*
X153477Y44315D02*
D03*
X152085Y42923D02*
D03*
X150693Y41531D02*
D03*
X149301Y40139D02*
D03*
X138722Y50718D02*
D03*
X140114Y52110D02*
D03*
X141506Y53502D02*
D03*
X142898Y54894D02*
D03*
X144290Y56286D02*
D03*
D36*
X267795Y86713D02*
D03*
X73795D02*
D03*
X25795D02*
D03*
X126795D02*
D03*
X219795D02*
D03*
X49795Y9713D02*
D03*
X126795D02*
D03*
X166795D02*
D03*
X267795D02*
D03*
X219795D02*
D03*
D37*
X257795Y86713D02*
D03*
X277795D02*
D03*
X63795D02*
D03*
X83795D02*
D03*
X15795D02*
D03*
X35795D02*
D03*
X136795D02*
D03*
X116795D02*
D03*
X209795D02*
D03*
X229795D02*
D03*
X39795Y9713D02*
D03*
X59795D02*
D03*
X136795D02*
D03*
X116795D02*
D03*
X176795D02*
D03*
X156795D02*
D03*
X257795D02*
D03*
X277795D02*
D03*
X209795D02*
D03*
X229795D02*
D03*
D38*
X53795Y74953D02*
D03*
Y67472D02*
D03*
X45295Y74953D02*
D03*
Y67472D02*
D03*
X176295Y44472D02*
D03*
Y51953D02*
D03*
X166795Y44472D02*
D03*
Y51953D02*
D03*
X248295Y9972D02*
D03*
Y17453D02*
D03*
X239795Y9972D02*
D03*
Y17453D02*
D03*
X239295Y86453D02*
D03*
Y78972D02*
D03*
X248295Y86453D02*
D03*
Y78972D02*
D03*
D39*
X161535Y66713D02*
D03*
X154055D02*
D03*
D40*
X156795Y87213D02*
Y88213D01*
X198295Y48213D02*
Y82213D01*
X59795Y63713D02*
Y66713D01*
X58764Y62681D02*
X59795Y63713D01*
X53764Y62681D02*
X58764D01*
X45295D02*
X51764D01*
X234295Y22213D02*
X234795Y21713D01*
X239795D01*
X64295Y34213D02*
X105295D01*
Y43213D01*
X245795Y67693D02*
Y74713D01*
X234295D02*
X239295D01*
X156795Y82213D02*
X198295D01*
X156795D02*
Y87213D01*
X149674Y66713D02*
X153795D01*
Y60713D02*
Y66713D01*
X149301Y56286D02*
X153795Y60713D01*
X241827Y21713D02*
X248295D01*
X241827D02*
Y28732D01*
X239795Y21713D02*
X241827D01*
X53732Y58150D02*
X55795Y60212D01*
X153795Y66713D02*
X154055D01*
X166795Y68213D02*
Y78213D01*
Y68213D02*
X176295D01*
X191795D01*
X176295Y55713D02*
Y68213D01*
X45795Y59713D02*
X45858Y59650D01*
Y55693D02*
Y59650D01*
X53732Y55693D02*
Y58150D01*
X53764Y62681D02*
X53795Y62713D01*
X51764Y62681D02*
X53764D01*
X45295D02*
Y66472D01*
X53795Y62713D02*
Y66472D01*
X51764Y55693D02*
Y62681D01*
X159579Y58213D02*
X166795D01*
X153477Y52110D02*
X159579Y58213D01*
X166795Y55713D02*
X176295D01*
X159863D02*
X166795D01*
X154868Y50718D02*
X159863Y55713D01*
X176295Y51953D02*
Y55713D01*
X166795Y51953D02*
Y55713D01*
X198295Y48213D02*
X231795D01*
X251276Y60213D02*
X255295D01*
X239795Y28669D02*
X239858Y28732D01*
X237795Y24213D02*
X238295D01*
X232295Y36213D02*
X236315D01*
X238295Y24213D02*
X239858Y25776D01*
X248295Y17453D02*
Y21713D01*
X239795Y17453D02*
Y21713D01*
X241795Y28701D02*
X241827Y28732D01*
X239858Y67693D02*
Y72213D01*
X247732Y23713D02*
Y28732D01*
X239795Y72213D02*
X239858D01*
X239768Y67213D02*
X239858Y67693D01*
X247732Y70650D02*
X249795Y72713D01*
X247732Y23713D02*
X247795D01*
X239858Y25776D02*
Y28732D01*
X247732Y67693D02*
Y70650D01*
X245795Y74713D02*
X248295D01*
Y78972D01*
X239295Y74713D02*
Y78972D01*
Y74713D02*
X245795D01*
X245764Y67693D02*
X245795D01*
X138795Y56213D02*
X141506Y53502D01*
D41*
X176795Y70213D02*
X193295D01*
Y27213D02*
X205295D01*
X193295D02*
Y70213D01*
X191795Y22213D02*
Y22713D01*
Y68213D01*
Y22213D02*
X205295D01*
X166795Y88213D02*
Y93713D01*
X202295D01*
Y74213D02*
Y93713D01*
X200795Y69213D02*
Y92213D01*
X176795D02*
X200795D01*
X176795Y87213D02*
Y92213D01*
X202295Y74213D02*
X205295D01*
X200795Y69213D02*
X205295D01*
X176795Y70213D02*
Y78213D01*
D42*
X57276Y48213D02*
X61295D01*
X49795Y36713D02*
Y40732D01*
X38295Y48213D02*
X42315D01*
X152085Y42923D02*
X154995Y40013D01*
X138795Y40213D02*
X141506Y42923D01*
X251276Y36213D02*
X255795D01*
X232295Y60213D02*
X236315D01*
X243795Y43693D02*
Y52732D01*
D43*
X17347Y29615D02*
D03*
X276795Y48213D02*
D03*
D44*
X156795Y77213D02*
D03*
X166795D02*
D03*
X176795D02*
D03*
X186795D02*
D03*
X166795Y87213D02*
D03*
X176795D02*
D03*
X186795D02*
D03*
X95295Y53213D02*
D03*
X105295D02*
D03*
Y43213D02*
D03*
D45*
X156795Y87213D02*
D03*
D46*
X95295Y43213D02*
D03*
D47*
X286795Y3713D02*
D03*
X281795D02*
D03*
X286795Y92713D02*
D03*
X281795D02*
D03*
X287732Y8097D02*
D03*
Y13097D02*
D03*
Y18097D02*
D03*
Y23097D02*
D03*
Y28097D02*
D03*
Y33097D02*
D03*
Y38097D02*
D03*
Y43097D02*
D03*
Y48097D02*
D03*
Y53097D02*
D03*
Y58097D02*
D03*
Y63097D02*
D03*
Y68097D02*
D03*
Y73097D02*
D03*
Y78097D02*
D03*
Y83097D02*
D03*
Y88097D02*
D03*
X6795Y3713D02*
D03*
X11795D02*
D03*
X6795Y92713D02*
D03*
X11795D02*
D03*
X3795Y48213D02*
D03*
Y38213D02*
D03*
Y28213D02*
D03*
Y18213D02*
D03*
Y8213D02*
D03*
Y43213D02*
D03*
Y33213D02*
D03*
Y23213D02*
D03*
Y13213D02*
D03*
Y53213D02*
D03*
Y58213D02*
D03*
Y63213D02*
D03*
Y68213D02*
D03*
Y73213D02*
D03*
Y78213D02*
D03*
Y83213D02*
D03*
Y88213D02*
D03*
X188295Y60213D02*
D03*
X179795D02*
D03*
X188295Y65213D02*
D03*
X179795D02*
D03*
X166795Y41713D02*
D03*
X176295D02*
D03*
X242095Y37213D02*
D03*
X246795D02*
D03*
X51495Y47213D02*
D03*
X46795D02*
D03*
X242095Y59513D02*
D03*
X247348D02*
D03*
X146795Y43213D02*
D03*
X142295Y48213D02*
D03*
X146795Y52213D02*
D03*
X151295Y48213D02*
D03*
X146795D02*
D03*
X207795Y76713D02*
D03*
X208295Y71713D02*
D03*
Y66713D02*
D03*
X201795Y63713D02*
D03*
Y58713D02*
D03*
Y53213D02*
D03*
X205295Y87213D02*
D03*
Y81713D02*
D03*
X166795Y62213D02*
D03*
X157795Y60213D02*
D03*
X163795Y66213D02*
D03*
X173795Y65213D02*
D03*
Y60713D02*
D03*
X153795Y56213D02*
D03*
X231295Y43713D02*
D03*
Y52713D02*
D03*
X236795Y48213D02*
D03*
X250795Y53213D02*
D03*
Y48213D02*
D03*
X251295Y43713D02*
D03*
X146795Y57713D02*
D03*
X150295Y61213D02*
D03*
X143795Y60713D02*
D03*
X143295Y37213D02*
D03*
X150295D02*
D03*
X146795Y36713D02*
D03*
X136795Y48213D02*
D03*
X155795D02*
D03*
X161295Y53213D02*
D03*
X159295Y49713D02*
D03*
Y45213D02*
D03*
X133795Y50713D02*
D03*
Y45713D02*
D03*
X56295Y80713D02*
D03*
X51795D02*
D03*
X46795D02*
D03*
X41295D02*
D03*
X58295Y55713D02*
D03*
X41795D02*
D03*
X40295Y41213D02*
D03*
X42795Y38213D02*
D03*
X61795Y41213D02*
D03*
X56295Y37713D02*
D03*
X195795Y78213D02*
D03*
Y73213D02*
D03*
Y63213D02*
D03*
Y58213D02*
D03*
Y53213D02*
D03*
Y48213D02*
D03*
Y68213D02*
D03*
Y85213D02*
D03*
Y89213D02*
D03*
X16795Y92713D02*
D03*
X31795D02*
D03*
X36795D02*
D03*
X41795D02*
D03*
X46795D02*
D03*
X51795D02*
D03*
X56795D02*
D03*
X61795D02*
D03*
X66795D02*
D03*
X81795D02*
D03*
X86795D02*
D03*
X91795D02*
D03*
X96795D02*
D03*
X101795D02*
D03*
X106795D02*
D03*
X261795Y3713D02*
D03*
Y92713D02*
D03*
X116795D02*
D03*
X111795D02*
D03*
X136795D02*
D03*
X141795D02*
D03*
X146795D02*
D03*
X151795D02*
D03*
X156795D02*
D03*
X161795D02*
D03*
X206795D02*
D03*
X231795D02*
D03*
X236795D02*
D03*
X241795D02*
D03*
X246795D02*
D03*
X251795D02*
D03*
X256795D02*
D03*
X276795D02*
D03*
X231795Y3713D02*
D03*
X276795D02*
D03*
X256795D02*
D03*
X251795D02*
D03*
X246795D02*
D03*
X241795D02*
D03*
X236795D02*
D03*
X206795D02*
D03*
X201795D02*
D03*
X196795D02*
D03*
X191795D02*
D03*
X186795D02*
D03*
X176795Y3418D02*
D03*
X181795Y3713D02*
D03*
X156795D02*
D03*
X151795D02*
D03*
X136795D02*
D03*
X61795D02*
D03*
X36795D02*
D03*
X16795D02*
D03*
X26795D02*
D03*
X31795D02*
D03*
X66795D02*
D03*
X71795D02*
D03*
X76795D02*
D03*
X81795D02*
D03*
X86795D02*
D03*
X91795D02*
D03*
X116795D02*
D03*
X96795D02*
D03*
X101795D02*
D03*
X106795D02*
D03*
X111795D02*
D03*
X141795D02*
D03*
X146795D02*
D03*
X21795D02*
D03*
X55795Y60212D02*
D03*
X70295Y64213D02*
D03*
X77295Y59213D02*
D03*
Y64213D02*
D03*
X172595Y9713D02*
D03*
Y14713D02*
D03*
Y19713D02*
D03*
X170295Y24713D02*
D03*
X169195Y29513D02*
D03*
X166395Y33613D02*
D03*
X162795Y37213D02*
D03*
X159295Y40713D02*
D03*
X160995Y9713D02*
D03*
Y14713D02*
D03*
Y19713D02*
D03*
X163295Y24713D02*
D03*
X160895Y29013D02*
D03*
X157395Y32513D02*
D03*
X153895Y36113D02*
D03*
X139695D02*
D03*
X136195Y32513D02*
D03*
X132695Y29013D02*
D03*
X130295Y24713D02*
D03*
X132595Y19713D02*
D03*
Y14713D02*
D03*
Y9713D02*
D03*
X134295Y40713D02*
D03*
X130795Y37213D02*
D03*
X127195Y33613D02*
D03*
X124395Y29513D02*
D03*
X123295Y24713D02*
D03*
X120995Y19713D02*
D03*
Y14713D02*
D03*
Y9713D02*
D03*
X123295Y72213D02*
D03*
X124395Y66813D02*
D03*
X120995Y81713D02*
D03*
X132595D02*
D03*
Y86713D02*
D03*
X120995D02*
D03*
X43995Y14713D02*
D03*
Y9713D02*
D03*
Y4713D02*
D03*
X55595D02*
D03*
Y9713D02*
D03*
Y14713D02*
D03*
X19795Y89213D02*
D03*
Y84213D02*
D03*
X31795Y89213D02*
D03*
X79795D02*
D03*
Y84213D02*
D03*
X67795Y89213D02*
D03*
Y84213D02*
D03*
X31795D02*
D03*
X254395Y32913D02*
D03*
X255595Y39813D02*
D03*
X260595Y39513D02*
D03*
X265195Y37613D02*
D03*
X268795Y34213D02*
D03*
X270895Y29713D02*
D03*
X271295Y24713D02*
D03*
X273595Y19713D02*
D03*
Y14713D02*
D03*
X273795Y9713D02*
D03*
X273595Y4713D02*
D03*
X259395Y32413D02*
D03*
X263295Y29513D02*
D03*
X264295Y24713D02*
D03*
X261995Y19713D02*
D03*
Y14713D02*
D03*
Y9713D02*
D03*
X213995Y4713D02*
D03*
X225595D02*
D03*
X216295Y24713D02*
D03*
X216695Y29713D02*
D03*
X213995Y19713D02*
D03*
X233195Y32913D02*
D03*
X228195Y32413D02*
D03*
X224295Y29513D02*
D03*
X223295Y24713D02*
D03*
X225595Y19713D02*
D03*
Y14713D02*
D03*
Y9713D02*
D03*
X231995Y39813D02*
D03*
X226995Y39513D02*
D03*
X222395Y37613D02*
D03*
X218795Y34213D02*
D03*
X213995Y14713D02*
D03*
Y9713D02*
D03*
X64295Y34213D02*
D03*
X213995Y91713D02*
D03*
X225595D02*
D03*
X216695Y66713D02*
D03*
X216295Y71713D02*
D03*
X224295Y66913D02*
D03*
X233195Y63513D02*
D03*
X228195Y64013D02*
D03*
X223295Y71713D02*
D03*
X231995Y56613D02*
D03*
X226995Y56913D02*
D03*
X222395Y58813D02*
D03*
X218795Y62213D02*
D03*
X225595Y76713D02*
D03*
Y81713D02*
D03*
Y86713D02*
D03*
X213995D02*
D03*
Y81713D02*
D03*
Y76713D02*
D03*
X254395Y63513D02*
D03*
X259395Y64013D02*
D03*
X263295Y66913D02*
D03*
X264295Y71713D02*
D03*
X261995Y76713D02*
D03*
Y81713D02*
D03*
Y86713D02*
D03*
X255595Y56613D02*
D03*
X260595Y56913D02*
D03*
X265195Y58813D02*
D03*
X268795Y62213D02*
D03*
X273595Y76713D02*
D03*
X270895Y66713D02*
D03*
X271295Y71713D02*
D03*
X273595Y81713D02*
D03*
Y86713D02*
D03*
X46295Y24713D02*
D03*
Y29713D02*
D03*
Y34713D02*
D03*
X43995Y19713D02*
D03*
X53295Y34713D02*
D03*
Y29713D02*
D03*
Y24713D02*
D03*
X55595Y19713D02*
D03*
X59695Y51413D02*
D03*
X39695D02*
D03*
X34695Y51813D02*
D03*
X30595Y54513D02*
D03*
X38495Y44713D02*
D03*
X33495Y44813D02*
D03*
X28895Y46613D02*
D03*
X21295Y74213D02*
D03*
X30295D02*
D03*
X19795Y79213D02*
D03*
X31795D02*
D03*
X22295Y69213D02*
D03*
Y64213D02*
D03*
Y59213D02*
D03*
X29295D02*
D03*
Y64213D02*
D03*
Y69213D02*
D03*
X61095Y44613D02*
D03*
X70695Y46613D02*
D03*
X66095Y44813D02*
D03*
X64695Y51813D02*
D03*
X76795Y54313D02*
D03*
X74495Y49813D02*
D03*
X79795Y79213D02*
D03*
X67795D02*
D03*
X78295Y74213D02*
D03*
X69295D02*
D03*
X77295Y69213D02*
D03*
X70295D02*
D03*
Y59213D02*
D03*
X68895Y54413D02*
D03*
X246545Y48213D02*
D03*
X241045D02*
D03*
X127195Y62813D02*
D03*
X130795Y59213D02*
D03*
X134295Y55713D02*
D03*
X139695Y60313D02*
D03*
X136195Y63913D02*
D03*
X132695Y67413D02*
D03*
X130295Y72213D02*
D03*
X132595Y76713D02*
D03*
X120995D02*
D03*
X25095Y49813D02*
D03*
X22795Y54313D02*
D03*
D48*
X59795Y66713D02*
D03*
X205295Y69213D02*
D03*
X231795Y48213D02*
D03*
X149674Y66713D02*
D03*
X45795Y59713D02*
D03*
X166795Y58213D02*
D03*
X205295Y22213D02*
D03*
Y27213D02*
D03*
X234295Y22213D02*
D03*
X205295Y74213D02*
D03*
X234295D02*
D03*
X237795Y24213D02*
D03*
X239795Y72213D02*
D03*
X249795Y72713D02*
D03*
X247795Y24213D02*
D03*
M02*
