G04*
G04 #@! TF.GenerationSoftware,Altium Limited,Altium Designer,24.4.1 (13)*
G04*
G04 Layer_Color=16711935*
%FSLAX25Y25*%
%MOIN*%
G70*
G04*
G04 #@! TF.SameCoordinates,9EAFE7E4-189C-44CB-946A-5F511CB8720B*
G04*
G04*
G04 #@! TF.FilePolarity,Negative*
G04*
G01*
G75*
%ADD19R,0.07800X0.16800*%
%ADD20R,0.06706X0.05918*%
%ADD22C,0.09461*%
%ADD23C,0.07887*%
%ADD24R,0.07887X0.07887*%
%ADD25R,0.07887X0.07887*%
%ADD26C,0.03200*%
%ADD27C,0.03400*%
D19*
X257795Y86713D02*
D03*
X277795D02*
D03*
X63795D02*
D03*
X83795D02*
D03*
X15795D02*
D03*
X35795D02*
D03*
X136795D02*
D03*
X116795D02*
D03*
X209795D02*
D03*
X229795D02*
D03*
X39795Y9713D02*
D03*
X59795D02*
D03*
X136795D02*
D03*
X116795D02*
D03*
X176795D02*
D03*
X156795D02*
D03*
X257795D02*
D03*
X277795D02*
D03*
X209795D02*
D03*
X229795D02*
D03*
D20*
X239795Y9972D02*
D03*
Y17453D02*
D03*
X243795Y63953D02*
D03*
Y56472D02*
D03*
X248295Y78972D02*
D03*
Y86453D02*
D03*
X49795Y51953D02*
D03*
Y44472D02*
D03*
X53795Y74953D02*
D03*
Y67472D02*
D03*
X45295Y74953D02*
D03*
Y67472D02*
D03*
X166795Y44472D02*
D03*
Y51953D02*
D03*
X176295Y44472D02*
D03*
Y51953D02*
D03*
X239295Y86453D02*
D03*
Y78972D02*
D03*
X248295Y9972D02*
D03*
Y17453D02*
D03*
X243795Y32472D02*
D03*
Y39953D02*
D03*
D22*
X17347Y29615D02*
D03*
X276795Y48213D02*
D03*
D23*
X156795Y77213D02*
D03*
X166795D02*
D03*
X176795D02*
D03*
X186795D02*
D03*
X166795Y87213D02*
D03*
X176795D02*
D03*
X186795D02*
D03*
X95295Y53213D02*
D03*
X105295D02*
D03*
Y43213D02*
D03*
D24*
X156795Y87213D02*
D03*
D25*
X95295Y43213D02*
D03*
D26*
X55795Y60212D02*
D03*
D27*
X59795Y66713D02*
D03*
X205295Y69213D02*
D03*
X231795Y48213D02*
D03*
X149674Y66713D02*
D03*
X45795Y59713D02*
D03*
X166795Y58213D02*
D03*
X205295Y22213D02*
D03*
Y27213D02*
D03*
X234295Y22213D02*
D03*
X205295Y74213D02*
D03*
X234295D02*
D03*
X237795Y24213D02*
D03*
X239795Y72213D02*
D03*
X249795Y72713D02*
D03*
X247795Y24213D02*
D03*
M02*
