G04*
G04 #@! TF.GenerationSoftware,Altium Limited,Altium Designer,24.5.2 (23)*
G04*
G04 Layer_Color=8388736*
%FSLAX25Y25*%
%MOIN*%
G70*
G04*
G04 #@! TF.SameCoordinates,466BDFCD-25A3-4837-BAAA-452BE7E626CC*
G04*
G04*
G04 #@! TF.FilePolarity,Negative*
G04*
G01*
G75*
G04:AMPARAMS|DCode=28|XSize=39.75mil|YSize=9.55mil|CornerRadius=4.77mil|HoleSize=0mil|Usage=FLASHONLY|Rotation=0.000|XOffset=0mil|YOffset=0mil|HoleType=Round|Shape=RoundedRectangle|*
%AMROUNDEDRECTD28*
21,1,0.03975,0.00000,0,0,0.0*
21,1,0.03020,0.00955,0,0,0.0*
1,1,0.00955,0.01510,0.00000*
1,1,0.00955,-0.01510,0.00000*
1,1,0.00955,-0.01510,0.00000*
1,1,0.00955,0.01510,0.00000*
%
%ADD28ROUNDEDRECTD28*%
G04:AMPARAMS|DCode=29|XSize=9.55mil|YSize=39.75mil|CornerRadius=4.77mil|HoleSize=0mil|Usage=FLASHONLY|Rotation=0.000|XOffset=0mil|YOffset=0mil|HoleType=Round|Shape=RoundedRectangle|*
%AMROUNDEDRECTD29*
21,1,0.00955,0.03020,0,0,0.0*
21,1,0.00000,0.03975,0,0,0.0*
1,1,0.00955,0.00000,-0.01510*
1,1,0.00955,0.00000,-0.01510*
1,1,0.00955,0.00000,0.01510*
1,1,0.00955,0.00000,0.01510*
%
%ADD29ROUNDEDRECTD29*%
%ADD30R,0.03975X0.00955*%
%ADD31R,0.07800X0.16800*%
%ADD32R,0.06800X0.16800*%
%ADD33R,0.02769X0.03162*%
%ADD34R,0.02769X0.07099*%
%ADD35R,0.05131X0.03950*%
%ADD36R,0.05918X0.06706*%
%ADD37R,0.06706X0.05918*%
%ADD38R,0.03858X0.03780*%
%ADD39R,0.03950X0.05131*%
%ADD40R,0.06115X0.06706*%
%ADD41R,0.06312X0.05524*%
%ADD42R,0.04737X0.03556*%
%ADD43R,0.04409X0.03228*%
%ADD44R,0.12598X0.12598*%
%ADD45C,0.07887*%
%ADD46R,0.07887X0.07887*%
%ADD47C,0.13398*%
%ADD48C,0.03200*%
%ADD49C,0.04000*%
%ADD50C,0.03202*%
D28*
X162487Y87306D02*
D03*
Y89275D02*
D03*
Y99117D02*
D03*
Y95180D02*
D03*
Y97149D02*
D03*
Y91243D02*
D03*
Y93212D02*
D03*
X181788Y87306D02*
D03*
Y89275D02*
D03*
Y91243D02*
D03*
Y97149D02*
D03*
Y99117D02*
D03*
Y93212D02*
D03*
Y95180D02*
D03*
Y101086D02*
D03*
D29*
X165248Y84545D02*
D03*
X167217D02*
D03*
Y103847D02*
D03*
X165248D02*
D03*
X175091Y84545D02*
D03*
X179028D02*
D03*
X177059D02*
D03*
X171153D02*
D03*
X169185D02*
D03*
X173122D02*
D03*
X177059Y103847D02*
D03*
X171153D02*
D03*
X169185D02*
D03*
X175091D02*
D03*
X173122D02*
D03*
X179028D02*
D03*
D30*
X162487Y101086D02*
D03*
D31*
X187728Y13295D02*
D03*
X207728D02*
D03*
X159984Y13098D02*
D03*
X139984D02*
D03*
D32*
X197728Y13295D02*
D03*
X149984Y13098D02*
D03*
D33*
Y31130D02*
D03*
Y35067D02*
D03*
Y39630D02*
D03*
Y43567D02*
D03*
Y48098D02*
D03*
Y52035D02*
D03*
D34*
X146835Y33098D02*
D03*
Y41598D02*
D03*
Y50067D02*
D03*
D35*
X149984Y58646D02*
D03*
Y64551D02*
D03*
X166232Y60736D02*
D03*
Y66642D02*
D03*
X181980Y44201D02*
D03*
Y50106D02*
D03*
X166429Y44594D02*
D03*
Y50500D02*
D03*
X197728Y44791D02*
D03*
Y50697D02*
D03*
X181980Y60736D02*
D03*
Y66642D02*
D03*
D36*
X88870Y109752D02*
D03*
X81390D02*
D03*
Y91642D02*
D03*
X88870D02*
D03*
X221744Y115461D02*
D03*
X214264D02*
D03*
X175878Y158768D02*
D03*
X168398D02*
D03*
X233949Y54240D02*
D03*
X226468D02*
D03*
X256784Y54043D02*
D03*
X249303D02*
D03*
X139461Y142429D02*
D03*
X131980D02*
D03*
X140445Y158571D02*
D03*
X132965D02*
D03*
X81783Y72404D02*
D03*
X89264D02*
D03*
X81783Y63295D02*
D03*
X89264D02*
D03*
X221744Y135037D02*
D03*
X214264D02*
D03*
X221941Y95382D02*
D03*
X214461D02*
D03*
X221744Y144038D02*
D03*
X214264D02*
D03*
X97634Y25894D02*
D03*
X90154D02*
D03*
X256784Y44201D02*
D03*
X249303D02*
D03*
X226272Y34555D02*
D03*
X233752D02*
D03*
X233555Y44398D02*
D03*
X226075D02*
D03*
X221744Y106012D02*
D03*
X214264D02*
D03*
X168398Y133965D02*
D03*
X175878D02*
D03*
X256390Y63886D02*
D03*
X248909D02*
D03*
X226272Y64083D02*
D03*
X233752D02*
D03*
X81587Y81406D02*
D03*
X89067D02*
D03*
D37*
X43303Y21366D02*
D03*
Y28846D02*
D03*
D38*
X96359Y44594D02*
D03*
X91823D02*
D03*
X96359Y35146D02*
D03*
X91823D02*
D03*
D39*
X197728Y71563D02*
D03*
X203634D02*
D03*
X149894Y70777D02*
D03*
X143988D02*
D03*
D40*
X89067Y119004D02*
D03*
X81587D02*
D03*
X81390Y100643D02*
D03*
X88870D02*
D03*
X81390Y128256D02*
D03*
X88870D02*
D03*
X81193Y158374D02*
D03*
X88673D02*
D03*
X81390Y149319D02*
D03*
X88870D02*
D03*
X81390Y140264D02*
D03*
X88870D02*
D03*
X214264Y126036D02*
D03*
X221744D02*
D03*
D41*
X167807Y142429D02*
D03*
Y149122D02*
D03*
X176469Y142429D02*
D03*
Y149122D02*
D03*
D42*
X73225Y28846D02*
D03*
Y21366D02*
D03*
D43*
X63776Y28846D02*
D03*
Y25106D02*
D03*
Y21366D02*
D03*
D44*
X172138Y94196D02*
D03*
D45*
X23949Y77626D02*
D03*
X33949D02*
D03*
X23949Y127626D02*
D03*
Y117626D02*
D03*
Y107626D02*
D03*
Y97626D02*
D03*
Y87626D02*
D03*
X33949Y117626D02*
D03*
Y107626D02*
D03*
Y97626D02*
D03*
Y87626D02*
D03*
D46*
Y127626D02*
D03*
D47*
X251468Y20972D02*
D03*
X20563Y20579D02*
D03*
X26469Y151484D02*
D03*
X250484Y158177D02*
D03*
D48*
X154000Y88000D02*
D03*
X217020Y76681D02*
D03*
X126228Y157795D02*
D03*
X126728Y142295D02*
D03*
X130602Y87705D02*
D03*
X96350Y81012D02*
D03*
X96153Y72404D02*
D03*
X95366Y63295D02*
D03*
X201075Y87306D02*
D03*
X240839Y64083D02*
D03*
X168201Y80981D02*
D03*
X227728Y144295D02*
D03*
Y134795D02*
D03*
Y125795D02*
D03*
Y115295D02*
D03*
Y105795D02*
D03*
Y94795D02*
D03*
X75228Y127795D02*
D03*
X72728Y91295D02*
D03*
Y80795D02*
D03*
Y72295D02*
D03*
Y63295D02*
D03*
X183728Y159295D02*
D03*
Y149795D02*
D03*
X219579Y54043D02*
D03*
Y44201D02*
D03*
Y34161D02*
D03*
X260917Y64083D02*
D03*
Y53059D02*
D03*
Y43807D02*
D03*
D49*
X61902Y95382D02*
D03*
X149580Y126224D02*
D03*
X101075Y91839D02*
D03*
X186508Y112705D02*
D03*
X157374Y121760D02*
D03*
X56193Y122350D02*
D03*
X185721Y121366D02*
D03*
X203240Y122153D02*
D03*
X71547Y130815D02*
D03*
X115248Y90658D02*
D03*
X143595Y84752D02*
D03*
D50*
X219579Y63886D02*
D03*
M02*
