G04*
G04 #@! TF.GenerationSoftware,Altium Limited,Altium Designer,24.5.2 (23)*
G04*
G04 Layer_Color=16711935*
%FSLAX25Y25*%
%MOIN*%
G70*
G04*
G04 #@! TF.SameCoordinates,466BDFCD-25A3-4837-BAAA-452BE7E626CC*
G04*
G04*
G04 #@! TF.FilePolarity,Negative*
G04*
G01*
G75*
%ADD31R,0.07800X0.16800*%
%ADD35R,0.05131X0.03950*%
%ADD45C,0.07887*%
%ADD46R,0.07887X0.07887*%
%ADD47C,0.13398*%
%ADD48C,0.03200*%
%ADD49C,0.04000*%
%ADD50C,0.03202*%
D31*
X187728Y13295D02*
D03*
X207728D02*
D03*
X159984Y13098D02*
D03*
X139984D02*
D03*
D35*
X181980Y60736D02*
D03*
Y66642D02*
D03*
X166228Y66748D02*
D03*
Y60843D02*
D03*
D45*
X23949Y77626D02*
D03*
X33949D02*
D03*
X23949Y127626D02*
D03*
Y117626D02*
D03*
Y107626D02*
D03*
Y97626D02*
D03*
Y87626D02*
D03*
X33949Y117626D02*
D03*
Y107626D02*
D03*
Y97626D02*
D03*
Y87626D02*
D03*
D46*
Y127626D02*
D03*
D47*
X251468Y20972D02*
D03*
X20563Y20579D02*
D03*
X26469Y151484D02*
D03*
X250484Y158177D02*
D03*
D48*
X154000Y88000D02*
D03*
X217020Y76681D02*
D03*
X126228Y157795D02*
D03*
X126728Y142295D02*
D03*
X130602Y87705D02*
D03*
X96350Y81012D02*
D03*
X96153Y72404D02*
D03*
X95366Y63295D02*
D03*
X201075Y87306D02*
D03*
X240839Y64083D02*
D03*
X168201Y80981D02*
D03*
X227728Y144295D02*
D03*
Y134795D02*
D03*
Y125795D02*
D03*
Y115295D02*
D03*
Y105795D02*
D03*
Y94795D02*
D03*
X75228Y127795D02*
D03*
X72728Y91295D02*
D03*
Y80795D02*
D03*
Y72295D02*
D03*
Y63295D02*
D03*
X183728Y159295D02*
D03*
Y149795D02*
D03*
X219579Y54043D02*
D03*
Y44201D02*
D03*
Y34161D02*
D03*
X260917Y64083D02*
D03*
Y53059D02*
D03*
Y43807D02*
D03*
D49*
X61902Y95382D02*
D03*
X149580Y126224D02*
D03*
X101075Y91839D02*
D03*
X186508Y112705D02*
D03*
X157374Y121760D02*
D03*
X56193Y122350D02*
D03*
X185721Y121366D02*
D03*
X203240Y122153D02*
D03*
X71547Y130815D02*
D03*
X115248Y90658D02*
D03*
X143595Y84752D02*
D03*
D50*
X219579Y63886D02*
D03*
M02*
